<?xml version="1.0" encoding="utf-8" standalone="no"?>
<!DOCTYPE svg PUBLIC "-//W3C//DTD SVG 1.1//EN"
  "http://www.w3.org/Graphics/SVG/1.1/DTD/svg11.dtd">
<!-- Created with matplotlib (https://matplotlib.org/) -->
<svg height="265.24041pt" version="1.1" viewBox="0 0 408.768125 265.24041" width="408.768125pt" xmlns="http://www.w3.org/2000/svg" xmlns:xlink="http://www.w3.org/1999/xlink">
 <defs>
  <style type="text/css">
*{stroke-linecap:butt;stroke-linejoin:round;}
  </style>
 </defs>
 <g id="figure_1">
  <g id="patch_1">
   <path d="M 0 265.24041 
L 408.768125 265.24041 
L 408.768125 0 
L 0 0 
z
" style="fill:#ffffff;"/>
  </g>
  <g id="axes_1">
   <g id="patch_2">
    <path d="M 44.448125 200.878125 
L 401.568125 200.878125 
L 401.568125 22.318125 
L 44.448125 22.318125 
z
" style="fill:#ffffff;"/>
   </g>
   <g id="matplotlib.axis_1">
    <g id="xtick_1">
     <g id="line2d_1">
      <path clip-path="url(#pe54883cc16)" d="M 109.870935 200.878125 
L 109.870935 22.318125 
" style="fill:none;stroke:#f3f3f3;stroke-dasharray:0.5,0.825;stroke-dashoffset:0;stroke-width:0.5;"/>
     </g>
     <g id="line2d_2">
      <defs>
       <path d="M 0 0 
L 0 4.8 
" id="m8f33790882" style="stroke:#262626;"/>
      </defs>
      <g>
       <use style="fill:#262626;stroke:#262626;" x="109.870935" xlink:href="#m8f33790882" y="200.878125"/>
      </g>
     </g>
     <g id="text_1">
      <!-- 2020-02-01 -->
      <defs>
       <path d="M 19.1875 8.296875 
L 53.609375 8.296875 
L 53.609375 0 
L 7.328125 0 
L 7.328125 8.296875 
Q 12.9375 14.109375 22.625 23.890625 
Q 32.328125 33.6875 34.8125 36.53125 
Q 39.546875 41.84375 41.421875 45.53125 
Q 43.3125 49.21875 43.3125 52.78125 
Q 43.3125 58.59375 39.234375 62.25 
Q 35.15625 65.921875 28.609375 65.921875 
Q 23.96875 65.921875 18.8125 64.3125 
Q 13.671875 62.703125 7.8125 59.421875 
L 7.8125 69.390625 
Q 13.765625 71.78125 18.9375 73 
Q 24.125 74.21875 28.421875 74.21875 
Q 39.75 74.21875 46.484375 68.546875 
Q 53.21875 62.890625 53.21875 53.421875 
Q 53.21875 48.921875 51.53125 44.890625 
Q 49.859375 40.875 45.40625 35.40625 
Q 44.1875 33.984375 37.640625 27.21875 
Q 31.109375 20.453125 19.1875 8.296875 
z
" id="DejaVuSans-50"/>
       <path d="M 31.78125 66.40625 
Q 24.171875 66.40625 20.328125 58.90625 
Q 16.5 51.421875 16.5 36.375 
Q 16.5 21.390625 20.328125 13.890625 
Q 24.171875 6.390625 31.78125 6.390625 
Q 39.453125 6.390625 43.28125 13.890625 
Q 47.125 21.390625 47.125 36.375 
Q 47.125 51.421875 43.28125 58.90625 
Q 39.453125 66.40625 31.78125 66.40625 
z
M 31.78125 74.21875 
Q 44.046875 74.21875 50.515625 64.515625 
Q 56.984375 54.828125 56.984375 36.375 
Q 56.984375 17.96875 50.515625 8.265625 
Q 44.046875 -1.421875 31.78125 -1.421875 
Q 19.53125 -1.421875 13.0625 8.265625 
Q 6.59375 17.96875 6.59375 36.375 
Q 6.59375 54.828125 13.0625 64.515625 
Q 19.53125 74.21875 31.78125 74.21875 
z
" id="DejaVuSans-48"/>
       <path d="M 4.890625 31.390625 
L 31.203125 31.390625 
L 31.203125 23.390625 
L 4.890625 23.390625 
z
" id="DejaVuSans-45"/>
       <path d="M 12.40625 8.296875 
L 28.515625 8.296875 
L 28.515625 63.921875 
L 10.984375 60.40625 
L 10.984375 69.390625 
L 28.421875 72.90625 
L 38.28125 72.90625 
L 38.28125 8.296875 
L 54.390625 8.296875 
L 54.390625 0 
L 12.40625 0 
z
" id="DejaVuSans-49"/>
      </defs>
      <g style="fill:#262626;" transform="translate(106.957717 244.039327)rotate(-75)scale(0.06 -0.06)">
       <use xlink:href="#DejaVuSans-50"/>
       <use x="63.623047" xlink:href="#DejaVuSans-48"/>
       <use x="127.246094" xlink:href="#DejaVuSans-50"/>
       <use x="190.869141" xlink:href="#DejaVuSans-48"/>
       <use x="254.492188" xlink:href="#DejaVuSans-45"/>
       <use x="290.576172" xlink:href="#DejaVuSans-48"/>
       <use x="354.199219" xlink:href="#DejaVuSans-50"/>
       <use x="417.822266" xlink:href="#DejaVuSans-45"/>
       <use x="453.90625" xlink:href="#DejaVuSans-48"/>
       <use x="517.529297" xlink:href="#DejaVuSans-49"/>
      </g>
     </g>
    </g>
    <g id="xtick_2">
     <g id="line2d_3">
      <path clip-path="url(#pe54883cc16)" d="M 178.737051 200.878125 
L 178.737051 22.318125 
" style="fill:none;stroke:#f3f3f3;stroke-dasharray:0.5,0.825;stroke-dashoffset:0;stroke-width:0.5;"/>
     </g>
     <g id="line2d_4">
      <g>
       <use style="fill:#262626;stroke:#262626;" x="178.737051" xlink:href="#m8f33790882" y="200.878125"/>
      </g>
     </g>
     <g id="text_2">
      <!-- 2020-02-15 -->
      <defs>
       <path d="M 10.796875 72.90625 
L 49.515625 72.90625 
L 49.515625 64.59375 
L 19.828125 64.59375 
L 19.828125 46.734375 
Q 21.96875 47.46875 24.109375 47.828125 
Q 26.265625 48.1875 28.421875 48.1875 
Q 40.625 48.1875 47.75 41.5 
Q 54.890625 34.8125 54.890625 23.390625 
Q 54.890625 11.625 47.5625 5.09375 
Q 40.234375 -1.421875 26.90625 -1.421875 
Q 22.3125 -1.421875 17.546875 -0.640625 
Q 12.796875 0.140625 7.71875 1.703125 
L 7.71875 11.625 
Q 12.109375 9.234375 16.796875 8.0625 
Q 21.484375 6.890625 26.703125 6.890625 
Q 35.15625 6.890625 40.078125 11.328125 
Q 45.015625 15.765625 45.015625 23.390625 
Q 45.015625 31 40.078125 35.4375 
Q 35.15625 39.890625 26.703125 39.890625 
Q 22.75 39.890625 18.8125 39.015625 
Q 14.890625 38.140625 10.796875 36.28125 
z
" id="DejaVuSans-53"/>
      </defs>
      <g style="fill:#262626;" transform="translate(175.823832 244.039327)rotate(-75)scale(0.06 -0.06)">
       <use xlink:href="#DejaVuSans-50"/>
       <use x="63.623047" xlink:href="#DejaVuSans-48"/>
       <use x="127.246094" xlink:href="#DejaVuSans-50"/>
       <use x="190.869141" xlink:href="#DejaVuSans-48"/>
       <use x="254.492188" xlink:href="#DejaVuSans-45"/>
       <use x="290.576172" xlink:href="#DejaVuSans-48"/>
       <use x="354.199219" xlink:href="#DejaVuSans-50"/>
       <use x="417.822266" xlink:href="#DejaVuSans-45"/>
       <use x="453.90625" xlink:href="#DejaVuSans-49"/>
       <use x="517.529297" xlink:href="#DejaVuSans-53"/>
      </g>
     </g>
    </g>
    <g id="xtick_3">
     <g id="line2d_5">
      <path clip-path="url(#pe54883cc16)" d="M 252.522175 200.878125 
L 252.522175 22.318125 
" style="fill:none;stroke:#f3f3f3;stroke-dasharray:0.5,0.825;stroke-dashoffset:0;stroke-width:0.5;"/>
     </g>
     <g id="line2d_6">
      <g>
       <use style="fill:#262626;stroke:#262626;" x="252.522175" xlink:href="#m8f33790882" y="200.878125"/>
      </g>
     </g>
     <g id="text_3">
      <!-- 2020-03-01 -->
      <defs>
       <path d="M 40.578125 39.3125 
Q 47.65625 37.796875 51.625 33 
Q 55.609375 28.21875 55.609375 21.1875 
Q 55.609375 10.40625 48.1875 4.484375 
Q 40.765625 -1.421875 27.09375 -1.421875 
Q 22.515625 -1.421875 17.65625 -0.515625 
Q 12.796875 0.390625 7.625 2.203125 
L 7.625 11.71875 
Q 11.71875 9.328125 16.59375 8.109375 
Q 21.484375 6.890625 26.8125 6.890625 
Q 36.078125 6.890625 40.9375 10.546875 
Q 45.796875 14.203125 45.796875 21.1875 
Q 45.796875 27.640625 41.28125 31.265625 
Q 36.765625 34.90625 28.71875 34.90625 
L 20.21875 34.90625 
L 20.21875 43.015625 
L 29.109375 43.015625 
Q 36.375 43.015625 40.234375 45.921875 
Q 44.09375 48.828125 44.09375 54.296875 
Q 44.09375 59.90625 40.109375 62.90625 
Q 36.140625 65.921875 28.71875 65.921875 
Q 24.65625 65.921875 20.015625 65.03125 
Q 15.375 64.15625 9.8125 62.3125 
L 9.8125 71.09375 
Q 15.4375 72.65625 20.34375 73.4375 
Q 25.25 74.21875 29.59375 74.21875 
Q 40.828125 74.21875 47.359375 69.109375 
Q 53.90625 64.015625 53.90625 55.328125 
Q 53.90625 49.265625 50.4375 45.09375 
Q 46.96875 40.921875 40.578125 39.3125 
z
" id="DejaVuSans-51"/>
      </defs>
      <g style="fill:#262626;" transform="translate(249.608956 244.039327)rotate(-75)scale(0.06 -0.06)">
       <use xlink:href="#DejaVuSans-50"/>
       <use x="63.623047" xlink:href="#DejaVuSans-48"/>
       <use x="127.246094" xlink:href="#DejaVuSans-50"/>
       <use x="190.869141" xlink:href="#DejaVuSans-48"/>
       <use x="254.492188" xlink:href="#DejaVuSans-45"/>
       <use x="290.576172" xlink:href="#DejaVuSans-48"/>
       <use x="354.199219" xlink:href="#DejaVuSans-51"/>
       <use x="417.822266" xlink:href="#DejaVuSans-45"/>
       <use x="453.90625" xlink:href="#DejaVuSans-48"/>
       <use x="517.529297" xlink:href="#DejaVuSans-49"/>
      </g>
     </g>
    </g>
    <g id="xtick_4">
     <g id="line2d_7">
      <path clip-path="url(#pe54883cc16)" d="M 321.38829 200.878125 
L 321.38829 22.318125 
" style="fill:none;stroke:#f3f3f3;stroke-dasharray:0.5,0.825;stroke-dashoffset:0;stroke-width:0.5;"/>
     </g>
     <g id="line2d_8">
      <g>
       <use style="fill:#262626;stroke:#262626;" x="321.38829" xlink:href="#m8f33790882" y="200.878125"/>
      </g>
     </g>
     <g id="text_4">
      <!-- 2020-03-15 -->
      <g style="fill:#262626;" transform="translate(318.475072 244.039327)rotate(-75)scale(0.06 -0.06)">
       <use xlink:href="#DejaVuSans-50"/>
       <use x="63.623047" xlink:href="#DejaVuSans-48"/>
       <use x="127.246094" xlink:href="#DejaVuSans-50"/>
       <use x="190.869141" xlink:href="#DejaVuSans-48"/>
       <use x="254.492188" xlink:href="#DejaVuSans-45"/>
       <use x="290.576172" xlink:href="#DejaVuSans-48"/>
       <use x="354.199219" xlink:href="#DejaVuSans-51"/>
       <use x="417.822266" xlink:href="#DejaVuSans-45"/>
       <use x="453.90625" xlink:href="#DejaVuSans-49"/>
       <use x="517.529297" xlink:href="#DejaVuSans-53"/>
      </g>
     </g>
    </g>
    <g id="xtick_5">
     <g id="line2d_9">
      <path clip-path="url(#pe54883cc16)" d="M 385.335398 200.878125 
L 385.335398 22.318125 
" style="fill:none;stroke:#f3f3f3;stroke-dasharray:0.5,0.825;stroke-dashoffset:0;stroke-width:0.5;"/>
     </g>
     <g id="line2d_10">
      <g>
       <use style="fill:#262626;stroke:#262626;" x="385.335398" xlink:href="#m8f33790882" y="200.878125"/>
      </g>
     </g>
     <g id="text_5">
      <!-- 2020-03-28 -->
      <defs>
       <path d="M 31.78125 34.625 
Q 24.75 34.625 20.71875 30.859375 
Q 16.703125 27.09375 16.703125 20.515625 
Q 16.703125 13.921875 20.71875 10.15625 
Q 24.75 6.390625 31.78125 6.390625 
Q 38.8125 6.390625 42.859375 10.171875 
Q 46.921875 13.96875 46.921875 20.515625 
Q 46.921875 27.09375 42.890625 30.859375 
Q 38.875 34.625 31.78125 34.625 
z
M 21.921875 38.8125 
Q 15.578125 40.375 12.03125 44.71875 
Q 8.5 49.078125 8.5 55.328125 
Q 8.5 64.0625 14.71875 69.140625 
Q 20.953125 74.21875 31.78125 74.21875 
Q 42.671875 74.21875 48.875 69.140625 
Q 55.078125 64.0625 55.078125 55.328125 
Q 55.078125 49.078125 51.53125 44.71875 
Q 48 40.375 41.703125 38.8125 
Q 48.828125 37.15625 52.796875 32.3125 
Q 56.78125 27.484375 56.78125 20.515625 
Q 56.78125 9.90625 50.3125 4.234375 
Q 43.84375 -1.421875 31.78125 -1.421875 
Q 19.734375 -1.421875 13.25 4.234375 
Q 6.78125 9.90625 6.78125 20.515625 
Q 6.78125 27.484375 10.78125 32.3125 
Q 14.796875 37.15625 21.921875 38.8125 
z
M 18.3125 54.390625 
Q 18.3125 48.734375 21.84375 45.5625 
Q 25.390625 42.390625 31.78125 42.390625 
Q 38.140625 42.390625 41.71875 45.5625 
Q 45.3125 48.734375 45.3125 54.390625 
Q 45.3125 60.0625 41.71875 63.234375 
Q 38.140625 66.40625 31.78125 66.40625 
Q 25.390625 66.40625 21.84375 63.234375 
Q 18.3125 60.0625 18.3125 54.390625 
z
" id="DejaVuSans-56"/>
      </defs>
      <g style="fill:#262626;" transform="translate(382.42218 244.039327)rotate(-75)scale(0.06 -0.06)">
       <use xlink:href="#DejaVuSans-50"/>
       <use x="63.623047" xlink:href="#DejaVuSans-48"/>
       <use x="127.246094" xlink:href="#DejaVuSans-50"/>
       <use x="190.869141" xlink:href="#DejaVuSans-48"/>
       <use x="254.492188" xlink:href="#DejaVuSans-45"/>
       <use x="290.576172" xlink:href="#DejaVuSans-48"/>
       <use x="354.199219" xlink:href="#DejaVuSans-51"/>
       <use x="417.822266" xlink:href="#DejaVuSans-45"/>
       <use x="453.90625" xlink:href="#DejaVuSans-50"/>
       <use x="517.529297" xlink:href="#DejaVuSans-56"/>
      </g>
     </g>
    </g>
    <g id="text_6">
     <!-- Time -&gt; -->
     <defs>
      <path d="M -0.296875 72.90625 
L 61.375 72.90625 
L 61.375 64.59375 
L 35.5 64.59375 
L 35.5 0 
L 25.59375 0 
L 25.59375 64.59375 
L -0.296875 64.59375 
z
" id="DejaVuSans-84"/>
      <path d="M 9.421875 54.6875 
L 18.40625 54.6875 
L 18.40625 0 
L 9.421875 0 
z
M 9.421875 75.984375 
L 18.40625 75.984375 
L 18.40625 64.59375 
L 9.421875 64.59375 
z
" id="DejaVuSans-105"/>
      <path d="M 52 44.1875 
Q 55.375 50.25 60.0625 53.125 
Q 64.75 56 71.09375 56 
Q 79.640625 56 84.28125 50.015625 
Q 88.921875 44.046875 88.921875 33.015625 
L 88.921875 0 
L 79.890625 0 
L 79.890625 32.71875 
Q 79.890625 40.578125 77.09375 44.375 
Q 74.3125 48.1875 68.609375 48.1875 
Q 61.625 48.1875 57.5625 43.546875 
Q 53.515625 38.921875 53.515625 30.90625 
L 53.515625 0 
L 44.484375 0 
L 44.484375 32.71875 
Q 44.484375 40.625 41.703125 44.40625 
Q 38.921875 48.1875 33.109375 48.1875 
Q 26.21875 48.1875 22.15625 43.53125 
Q 18.109375 38.875 18.109375 30.90625 
L 18.109375 0 
L 9.078125 0 
L 9.078125 54.6875 
L 18.109375 54.6875 
L 18.109375 46.1875 
Q 21.1875 51.21875 25.484375 53.609375 
Q 29.78125 56 35.6875 56 
Q 41.65625 56 45.828125 52.96875 
Q 50 49.953125 52 44.1875 
z
" id="DejaVuSans-109"/>
      <path d="M 56.203125 29.59375 
L 56.203125 25.203125 
L 14.890625 25.203125 
Q 15.484375 15.921875 20.484375 11.0625 
Q 25.484375 6.203125 34.421875 6.203125 
Q 39.59375 6.203125 44.453125 7.46875 
Q 49.3125 8.734375 54.109375 11.28125 
L 54.109375 2.78125 
Q 49.265625 0.734375 44.1875 -0.34375 
Q 39.109375 -1.421875 33.890625 -1.421875 
Q 20.796875 -1.421875 13.15625 6.1875 
Q 5.515625 13.8125 5.515625 26.8125 
Q 5.515625 40.234375 12.765625 48.109375 
Q 20.015625 56 32.328125 56 
Q 43.359375 56 49.78125 48.890625 
Q 56.203125 41.796875 56.203125 29.59375 
z
M 47.21875 32.234375 
Q 47.125 39.59375 43.09375 43.984375 
Q 39.0625 48.390625 32.421875 48.390625 
Q 24.90625 48.390625 20.390625 44.140625 
Q 15.875 39.890625 15.1875 32.171875 
z
" id="DejaVuSans-101"/>
      <path id="DejaVuSans-32"/>
      <path d="M 10.59375 49.21875 
L 10.59375 58.109375 
L 73.1875 35.40625 
L 73.1875 27.296875 
L 10.59375 4.59375 
L 10.59375 13.484375 
L 60.890625 31.296875 
z
" id="DejaVuSans-62"/>
     </defs>
     <g style="fill:#262626;" transform="translate(203.191719 255.960722)scale(0.1 -0.1)">
      <use xlink:href="#DejaVuSans-84"/>
      <use x="57.958984" xlink:href="#DejaVuSans-105"/>
      <use x="85.742188" xlink:href="#DejaVuSans-109"/>
      <use x="183.154297" xlink:href="#DejaVuSans-101"/>
      <use x="244.677734" xlink:href="#DejaVuSans-32"/>
      <use x="276.464844" xlink:href="#DejaVuSans-45"/>
      <use x="312.548828" xlink:href="#DejaVuSans-62"/>
     </g>
    </g>
   </g>
   <g id="matplotlib.axis_2">
    <g id="ytick_1">
     <g id="line2d_11">
      <path clip-path="url(#pe54883cc16)" d="M 44.448125 192.761761 
L 401.568125 192.761761 
" style="fill:none;stroke:#f3f3f3;stroke-dasharray:0.5,0.825;stroke-dashoffset:0;stroke-width:0.5;"/>
     </g>
     <g id="line2d_12">
      <defs>
       <path d="M 0 0 
L -4.8 0 
" id="m2eb96ac6b6" style="stroke:#262626;"/>
      </defs>
      <g>
       <use style="fill:#262626;stroke:#262626;" x="44.448125" xlink:href="#m2eb96ac6b6" y="192.761761"/>
      </g>
     </g>
     <g id="text_7">
      <!-- 0 -->
      <g style="fill:#262626;" transform="translate(32.330625 195.041293)scale(0.06 -0.06)">
       <use xlink:href="#DejaVuSans-48"/>
      </g>
     </g>
    </g>
    <g id="ytick_2">
     <g id="line2d_13">
      <path clip-path="url(#pe54883cc16)" d="M 44.448125 159.868697 
L 401.568125 159.868697 
" style="fill:none;stroke:#f3f3f3;stroke-dasharray:0.5,0.825;stroke-dashoffset:0;stroke-width:0.5;"/>
     </g>
     <g id="line2d_14">
      <g>
       <use style="fill:#262626;stroke:#262626;" x="44.448125" xlink:href="#m2eb96ac6b6" y="159.868697"/>
      </g>
     </g>
     <g id="text_8">
      <!-- 200 -->
      <g style="fill:#262626;" transform="translate(24.695625 162.148228)scale(0.06 -0.06)">
       <use xlink:href="#DejaVuSans-50"/>
       <use x="63.623047" xlink:href="#DejaVuSans-48"/>
       <use x="127.246094" xlink:href="#DejaVuSans-48"/>
      </g>
     </g>
    </g>
    <g id="ytick_3">
     <g id="line2d_15">
      <path clip-path="url(#pe54883cc16)" d="M 44.448125 126.975633 
L 401.568125 126.975633 
" style="fill:none;stroke:#f3f3f3;stroke-dasharray:0.5,0.825;stroke-dashoffset:0;stroke-width:0.5;"/>
     </g>
     <g id="line2d_16">
      <g>
       <use style="fill:#262626;stroke:#262626;" x="44.448125" xlink:href="#m2eb96ac6b6" y="126.975633"/>
      </g>
     </g>
     <g id="text_9">
      <!-- 400 -->
      <defs>
       <path d="M 37.796875 64.3125 
L 12.890625 25.390625 
L 37.796875 25.390625 
z
M 35.203125 72.90625 
L 47.609375 72.90625 
L 47.609375 25.390625 
L 58.015625 25.390625 
L 58.015625 17.1875 
L 47.609375 17.1875 
L 47.609375 0 
L 37.796875 0 
L 37.796875 17.1875 
L 4.890625 17.1875 
L 4.890625 26.703125 
z
" id="DejaVuSans-52"/>
      </defs>
      <g style="fill:#262626;" transform="translate(24.695625 129.255164)scale(0.06 -0.06)">
       <use xlink:href="#DejaVuSans-52"/>
       <use x="63.623047" xlink:href="#DejaVuSans-48"/>
       <use x="127.246094" xlink:href="#DejaVuSans-48"/>
      </g>
     </g>
    </g>
    <g id="ytick_4">
     <g id="line2d_17">
      <path clip-path="url(#pe54883cc16)" d="M 44.448125 94.082568 
L 401.568125 94.082568 
" style="fill:none;stroke:#f3f3f3;stroke-dasharray:0.5,0.825;stroke-dashoffset:0;stroke-width:0.5;"/>
     </g>
     <g id="line2d_18">
      <g>
       <use style="fill:#262626;stroke:#262626;" x="44.448125" xlink:href="#m2eb96ac6b6" y="94.082568"/>
      </g>
     </g>
     <g id="text_10">
      <!-- 600 -->
      <defs>
       <path d="M 33.015625 40.375 
Q 26.375 40.375 22.484375 35.828125 
Q 18.609375 31.296875 18.609375 23.390625 
Q 18.609375 15.53125 22.484375 10.953125 
Q 26.375 6.390625 33.015625 6.390625 
Q 39.65625 6.390625 43.53125 10.953125 
Q 47.40625 15.53125 47.40625 23.390625 
Q 47.40625 31.296875 43.53125 35.828125 
Q 39.65625 40.375 33.015625 40.375 
z
M 52.59375 71.296875 
L 52.59375 62.3125 
Q 48.875 64.0625 45.09375 64.984375 
Q 41.3125 65.921875 37.59375 65.921875 
Q 27.828125 65.921875 22.671875 59.328125 
Q 17.53125 52.734375 16.796875 39.40625 
Q 19.671875 43.65625 24.015625 45.921875 
Q 28.375 48.1875 33.59375 48.1875 
Q 44.578125 48.1875 50.953125 41.515625 
Q 57.328125 34.859375 57.328125 23.390625 
Q 57.328125 12.15625 50.6875 5.359375 
Q 44.046875 -1.421875 33.015625 -1.421875 
Q 20.359375 -1.421875 13.671875 8.265625 
Q 6.984375 17.96875 6.984375 36.375 
Q 6.984375 53.65625 15.1875 63.9375 
Q 23.390625 74.21875 37.203125 74.21875 
Q 40.921875 74.21875 44.703125 73.484375 
Q 48.484375 72.75 52.59375 71.296875 
z
" id="DejaVuSans-54"/>
      </defs>
      <g style="fill:#262626;" transform="translate(24.695625 96.362099)scale(0.06 -0.06)">
       <use xlink:href="#DejaVuSans-54"/>
       <use x="63.623047" xlink:href="#DejaVuSans-48"/>
       <use x="127.246094" xlink:href="#DejaVuSans-48"/>
      </g>
     </g>
    </g>
    <g id="ytick_5">
     <g id="line2d_19">
      <path clip-path="url(#pe54883cc16)" d="M 44.448125 61.189504 
L 401.568125 61.189504 
" style="fill:none;stroke:#f3f3f3;stroke-dasharray:0.5,0.825;stroke-dashoffset:0;stroke-width:0.5;"/>
     </g>
     <g id="line2d_20">
      <g>
       <use style="fill:#262626;stroke:#262626;" x="44.448125" xlink:href="#m2eb96ac6b6" y="61.189504"/>
      </g>
     </g>
     <g id="text_11">
      <!-- 800 -->
      <g style="fill:#262626;" transform="translate(24.695625 63.469035)scale(0.06 -0.06)">
       <use xlink:href="#DejaVuSans-56"/>
       <use x="63.623047" xlink:href="#DejaVuSans-48"/>
       <use x="127.246094" xlink:href="#DejaVuSans-48"/>
      </g>
     </g>
    </g>
    <g id="ytick_6">
     <g id="line2d_21">
      <path clip-path="url(#pe54883cc16)" d="M 44.448125 28.296439 
L 401.568125 28.296439 
" style="fill:none;stroke:#f3f3f3;stroke-dasharray:0.5,0.825;stroke-dashoffset:0;stroke-width:0.5;"/>
     </g>
     <g id="line2d_22">
      <g>
       <use style="fill:#262626;stroke:#262626;" x="44.448125" xlink:href="#m2eb96ac6b6" y="28.296439"/>
      </g>
     </g>
     <g id="text_12">
      <!-- 1000 -->
      <g style="fill:#262626;" transform="translate(20.878125 30.575971)scale(0.06 -0.06)">
       <use xlink:href="#DejaVuSans-49"/>
       <use x="63.623047" xlink:href="#DejaVuSans-48"/>
       <use x="127.246094" xlink:href="#DejaVuSans-48"/>
       <use x="190.869141" xlink:href="#DejaVuSans-48"/>
      </g>
     </g>
    </g>
    <g id="text_13">
     <!-- Cases / Deaths -->
     <defs>
      <path d="M 64.40625 67.28125 
L 64.40625 56.890625 
Q 59.421875 61.53125 53.78125 63.8125 
Q 48.140625 66.109375 41.796875 66.109375 
Q 29.296875 66.109375 22.65625 58.46875 
Q 16.015625 50.828125 16.015625 36.375 
Q 16.015625 21.96875 22.65625 14.328125 
Q 29.296875 6.6875 41.796875 6.6875 
Q 48.140625 6.6875 53.78125 8.984375 
Q 59.421875 11.28125 64.40625 15.921875 
L 64.40625 5.609375 
Q 59.234375 2.09375 53.4375 0.328125 
Q 47.65625 -1.421875 41.21875 -1.421875 
Q 24.65625 -1.421875 15.125 8.703125 
Q 5.609375 18.84375 5.609375 36.375 
Q 5.609375 53.953125 15.125 64.078125 
Q 24.65625 74.21875 41.21875 74.21875 
Q 47.75 74.21875 53.53125 72.484375 
Q 59.328125 70.75 64.40625 67.28125 
z
" id="DejaVuSans-67"/>
      <path d="M 34.28125 27.484375 
Q 23.390625 27.484375 19.1875 25 
Q 14.984375 22.515625 14.984375 16.5 
Q 14.984375 11.71875 18.140625 8.90625 
Q 21.296875 6.109375 26.703125 6.109375 
Q 34.1875 6.109375 38.703125 11.40625 
Q 43.21875 16.703125 43.21875 25.484375 
L 43.21875 27.484375 
z
M 52.203125 31.203125 
L 52.203125 0 
L 43.21875 0 
L 43.21875 8.296875 
Q 40.140625 3.328125 35.546875 0.953125 
Q 30.953125 -1.421875 24.3125 -1.421875 
Q 15.921875 -1.421875 10.953125 3.296875 
Q 6 8.015625 6 15.921875 
Q 6 25.140625 12.171875 29.828125 
Q 18.359375 34.515625 30.609375 34.515625 
L 43.21875 34.515625 
L 43.21875 35.40625 
Q 43.21875 41.609375 39.140625 45 
Q 35.0625 48.390625 27.6875 48.390625 
Q 23 48.390625 18.546875 47.265625 
Q 14.109375 46.140625 10.015625 43.890625 
L 10.015625 52.203125 
Q 14.9375 54.109375 19.578125 55.046875 
Q 24.21875 56 28.609375 56 
Q 40.484375 56 46.34375 49.84375 
Q 52.203125 43.703125 52.203125 31.203125 
z
" id="DejaVuSans-97"/>
      <path d="M 44.28125 53.078125 
L 44.28125 44.578125 
Q 40.484375 46.53125 36.375 47.5 
Q 32.28125 48.484375 27.875 48.484375 
Q 21.1875 48.484375 17.84375 46.4375 
Q 14.5 44.390625 14.5 40.28125 
Q 14.5 37.15625 16.890625 35.375 
Q 19.28125 33.59375 26.515625 31.984375 
L 29.59375 31.296875 
Q 39.15625 29.25 43.1875 25.515625 
Q 47.21875 21.78125 47.21875 15.09375 
Q 47.21875 7.46875 41.1875 3.015625 
Q 35.15625 -1.421875 24.609375 -1.421875 
Q 20.21875 -1.421875 15.453125 -0.5625 
Q 10.6875 0.296875 5.421875 2 
L 5.421875 11.28125 
Q 10.40625 8.6875 15.234375 7.390625 
Q 20.0625 6.109375 24.8125 6.109375 
Q 31.15625 6.109375 34.5625 8.28125 
Q 37.984375 10.453125 37.984375 14.40625 
Q 37.984375 18.0625 35.515625 20.015625 
Q 33.0625 21.96875 24.703125 23.78125 
L 21.578125 24.515625 
Q 13.234375 26.265625 9.515625 29.90625 
Q 5.8125 33.546875 5.8125 39.890625 
Q 5.8125 47.609375 11.28125 51.796875 
Q 16.75 56 26.8125 56 
Q 31.78125 56 36.171875 55.265625 
Q 40.578125 54.546875 44.28125 53.078125 
z
" id="DejaVuSans-115"/>
      <path d="M 25.390625 72.90625 
L 33.6875 72.90625 
L 8.296875 -9.28125 
L 0 -9.28125 
z
" id="DejaVuSans-47"/>
      <path d="M 19.671875 64.796875 
L 19.671875 8.109375 
L 31.59375 8.109375 
Q 46.6875 8.109375 53.6875 14.9375 
Q 60.6875 21.78125 60.6875 36.53125 
Q 60.6875 51.171875 53.6875 57.984375 
Q 46.6875 64.796875 31.59375 64.796875 
z
M 9.8125 72.90625 
L 30.078125 72.90625 
Q 51.265625 72.90625 61.171875 64.09375 
Q 71.09375 55.28125 71.09375 36.53125 
Q 71.09375 17.671875 61.125 8.828125 
Q 51.171875 0 30.078125 0 
L 9.8125 0 
z
" id="DejaVuSans-68"/>
      <path d="M 18.3125 70.21875 
L 18.3125 54.6875 
L 36.8125 54.6875 
L 36.8125 47.703125 
L 18.3125 47.703125 
L 18.3125 18.015625 
Q 18.3125 11.328125 20.140625 9.421875 
Q 21.96875 7.515625 27.59375 7.515625 
L 36.8125 7.515625 
L 36.8125 0 
L 27.59375 0 
Q 17.1875 0 13.234375 3.875 
Q 9.28125 7.765625 9.28125 18.015625 
L 9.28125 47.703125 
L 2.6875 47.703125 
L 2.6875 54.6875 
L 9.28125 54.6875 
L 9.28125 70.21875 
z
" id="DejaVuSans-116"/>
      <path d="M 54.890625 33.015625 
L 54.890625 0 
L 45.90625 0 
L 45.90625 32.71875 
Q 45.90625 40.484375 42.875 44.328125 
Q 39.84375 48.1875 33.796875 48.1875 
Q 26.515625 48.1875 22.3125 43.546875 
Q 18.109375 38.921875 18.109375 30.90625 
L 18.109375 0 
L 9.078125 0 
L 9.078125 75.984375 
L 18.109375 75.984375 
L 18.109375 46.1875 
Q 21.34375 51.125 25.703125 53.5625 
Q 30.078125 56 35.796875 56 
Q 45.21875 56 50.046875 50.171875 
Q 54.890625 44.34375 54.890625 33.015625 
z
" id="DejaVuSans-104"/>
     </defs>
     <g style="fill:#262626;" transform="translate(14.798438 149.02625)rotate(-90)scale(0.1 -0.1)">
      <use xlink:href="#DejaVuSans-67"/>
      <use x="69.824219" xlink:href="#DejaVuSans-97"/>
      <use x="131.103516" xlink:href="#DejaVuSans-115"/>
      <use x="183.203125" xlink:href="#DejaVuSans-101"/>
      <use x="244.726562" xlink:href="#DejaVuSans-115"/>
      <use x="296.826172" xlink:href="#DejaVuSans-32"/>
      <use x="328.613281" xlink:href="#DejaVuSans-47"/>
      <use x="362.304688" xlink:href="#DejaVuSans-32"/>
      <use x="394.091797" xlink:href="#DejaVuSans-68"/>
      <use x="471.09375" xlink:href="#DejaVuSans-101"/>
      <use x="532.617188" xlink:href="#DejaVuSans-97"/>
      <use x="593.896484" xlink:href="#DejaVuSans-116"/>
      <use x="633.105469" xlink:href="#DejaVuSans-104"/>
      <use x="696.484375" xlink:href="#DejaVuSans-115"/>
     </g>
    </g>
   </g>
   <g id="line2d_23">
    <path clip-path="url(#pe54883cc16)" d="M 60.680852 192.761761 
L 65.599861 192.761761 
L 70.518869 192.761761 
L 75.437877 192.761761 
L 80.356885 192.761761 
L 85.275894 192.761761 
L 90.194902 192.761761 
L 95.11391 192.761761 
L 100.032918 192.597296 
L 104.951927 192.597296 
L 109.870935 192.597296 
L 114.789943 192.432831 
L 119.708951 192.268365 
L 124.62796 192.268365 
L 129.546968 192.268365 
L 134.465976 192.268365 
L 139.384985 192.268365 
L 144.303993 192.268365 
L 149.223001 192.268365 
L 154.142009 192.268365 
L 159.061018 192.268365 
L 163.980026 192.268365 
L 168.899034 192.268365 
L 173.818042 192.268365 
L 178.737051 192.268365 
L 183.656059 192.268365 
L 188.575067 192.268365 
L 193.494075 192.268365 
L 198.413084 192.268365 
L 203.332092 192.268365 
L 208.2511 192.268365 
L 213.170108 192.268365 
L 218.089117 192.268365 
L 223.008125 192.268365 
L 227.927133 192.268365 
L 232.846142 192.268365 
L 237.76515 192.268365 
L 242.684158 192.268365 
L 247.603166 192.268365 
L 252.522175 192.268365 
L 257.441183 191.939435 
L 262.360191 191.939435 
L 267.279199 188.156732 
L 272.198208 187.827802 
L 277.117216 187.663336 
L 282.036224 187.16994 
L 286.955232 186.347614 
L 291.874241 185.689753 
L 296.793249 183.551703 
L 301.712257 182.564911 
L 306.631265 180.755793 
L 311.550274 179.275605 
L 316.469282 175.986299 
L 321.38829 174.17718 
L 326.307299 173.190388 
L 331.226307 169.407686 
L 336.145315 167.105171 
L 341.064323 160.855489 
L 345.983332 152.632223 
L 350.90234 138.488205 
L 355.821348 127.633494 
L 360.740356 110.693566 
L 365.659365 104.608349 
L 370.578373 84.708045 
L 375.497381 73.195472 
L 380.416389 46.881021 
L 385.335398 30.434489 
" style="fill:none;stroke:#ffa500;stroke-linecap:round;stroke-width:2;"/>
    <defs>
     <path d="M 0 2 
C 0.530406 2 1.03916 1.789267 1.414214 1.414214 
C 1.789267 1.03916 2 0.530406 2 0 
C 2 -0.530406 1.789267 -1.03916 1.414214 -1.414214 
C 1.03916 -1.789267 0.530406 -2 0 -2 
C -0.530406 -2 -1.03916 -1.789267 -1.414214 -1.414214 
C -1.789267 -1.03916 -2 -0.530406 -2 0 
C -2 0.530406 -1.789267 1.03916 -1.414214 1.414214 
C -1.03916 1.789267 -0.530406 2 0 2 
z
" id="mf5c5445c49" style="stroke:#ffffff;stroke-width:0.25;"/>
    </defs>
    <g clip-path="url(#pe54883cc16)">
     <use style="fill:#ffa500;stroke:#ffffff;stroke-width:0.25;" x="60.680852" xlink:href="#mf5c5445c49" y="192.761761"/>
     <use style="fill:#ffa500;stroke:#ffffff;stroke-width:0.25;" x="65.599861" xlink:href="#mf5c5445c49" y="192.761761"/>
     <use style="fill:#ffa500;stroke:#ffffff;stroke-width:0.25;" x="70.518869" xlink:href="#mf5c5445c49" y="192.761761"/>
     <use style="fill:#ffa500;stroke:#ffffff;stroke-width:0.25;" x="75.437877" xlink:href="#mf5c5445c49" y="192.761761"/>
     <use style="fill:#ffa500;stroke:#ffffff;stroke-width:0.25;" x="80.356885" xlink:href="#mf5c5445c49" y="192.761761"/>
     <use style="fill:#ffa500;stroke:#ffffff;stroke-width:0.25;" x="85.275894" xlink:href="#mf5c5445c49" y="192.761761"/>
     <use style="fill:#ffa500;stroke:#ffffff;stroke-width:0.25;" x="90.194902" xlink:href="#mf5c5445c49" y="192.761761"/>
     <use style="fill:#ffa500;stroke:#ffffff;stroke-width:0.25;" x="95.11391" xlink:href="#mf5c5445c49" y="192.761761"/>
     <use style="fill:#ffa500;stroke:#ffffff;stroke-width:0.25;" x="100.032918" xlink:href="#mf5c5445c49" y="192.597296"/>
     <use style="fill:#ffa500;stroke:#ffffff;stroke-width:0.25;" x="104.951927" xlink:href="#mf5c5445c49" y="192.597296"/>
     <use style="fill:#ffa500;stroke:#ffffff;stroke-width:0.25;" x="109.870935" xlink:href="#mf5c5445c49" y="192.597296"/>
     <use style="fill:#ffa500;stroke:#ffffff;stroke-width:0.25;" x="114.789943" xlink:href="#mf5c5445c49" y="192.432831"/>
     <use style="fill:#ffa500;stroke:#ffffff;stroke-width:0.25;" x="119.708951" xlink:href="#mf5c5445c49" y="192.268365"/>
     <use style="fill:#ffa500;stroke:#ffffff;stroke-width:0.25;" x="124.62796" xlink:href="#mf5c5445c49" y="192.268365"/>
     <use style="fill:#ffa500;stroke:#ffffff;stroke-width:0.25;" x="129.546968" xlink:href="#mf5c5445c49" y="192.268365"/>
     <use style="fill:#ffa500;stroke:#ffffff;stroke-width:0.25;" x="134.465976" xlink:href="#mf5c5445c49" y="192.268365"/>
     <use style="fill:#ffa500;stroke:#ffffff;stroke-width:0.25;" x="139.384985" xlink:href="#mf5c5445c49" y="192.268365"/>
     <use style="fill:#ffa500;stroke:#ffffff;stroke-width:0.25;" x="144.303993" xlink:href="#mf5c5445c49" y="192.268365"/>
     <use style="fill:#ffa500;stroke:#ffffff;stroke-width:0.25;" x="149.223001" xlink:href="#mf5c5445c49" y="192.268365"/>
     <use style="fill:#ffa500;stroke:#ffffff;stroke-width:0.25;" x="154.142009" xlink:href="#mf5c5445c49" y="192.268365"/>
     <use style="fill:#ffa500;stroke:#ffffff;stroke-width:0.25;" x="159.061018" xlink:href="#mf5c5445c49" y="192.268365"/>
     <use style="fill:#ffa500;stroke:#ffffff;stroke-width:0.25;" x="163.980026" xlink:href="#mf5c5445c49" y="192.268365"/>
     <use style="fill:#ffa500;stroke:#ffffff;stroke-width:0.25;" x="168.899034" xlink:href="#mf5c5445c49" y="192.268365"/>
     <use style="fill:#ffa500;stroke:#ffffff;stroke-width:0.25;" x="173.818042" xlink:href="#mf5c5445c49" y="192.268365"/>
     <use style="fill:#ffa500;stroke:#ffffff;stroke-width:0.25;" x="178.737051" xlink:href="#mf5c5445c49" y="192.268365"/>
     <use style="fill:#ffa500;stroke:#ffffff;stroke-width:0.25;" x="183.656059" xlink:href="#mf5c5445c49" y="192.268365"/>
     <use style="fill:#ffa500;stroke:#ffffff;stroke-width:0.25;" x="188.575067" xlink:href="#mf5c5445c49" y="192.268365"/>
     <use style="fill:#ffa500;stroke:#ffffff;stroke-width:0.25;" x="193.494075" xlink:href="#mf5c5445c49" y="192.268365"/>
     <use style="fill:#ffa500;stroke:#ffffff;stroke-width:0.25;" x="198.413084" xlink:href="#mf5c5445c49" y="192.268365"/>
     <use style="fill:#ffa500;stroke:#ffffff;stroke-width:0.25;" x="203.332092" xlink:href="#mf5c5445c49" y="192.268365"/>
     <use style="fill:#ffa500;stroke:#ffffff;stroke-width:0.25;" x="208.2511" xlink:href="#mf5c5445c49" y="192.268365"/>
     <use style="fill:#ffa500;stroke:#ffffff;stroke-width:0.25;" x="213.170108" xlink:href="#mf5c5445c49" y="192.268365"/>
     <use style="fill:#ffa500;stroke:#ffffff;stroke-width:0.25;" x="218.089117" xlink:href="#mf5c5445c49" y="192.268365"/>
     <use style="fill:#ffa500;stroke:#ffffff;stroke-width:0.25;" x="223.008125" xlink:href="#mf5c5445c49" y="192.268365"/>
     <use style="fill:#ffa500;stroke:#ffffff;stroke-width:0.25;" x="227.927133" xlink:href="#mf5c5445c49" y="192.268365"/>
     <use style="fill:#ffa500;stroke:#ffffff;stroke-width:0.25;" x="232.846142" xlink:href="#mf5c5445c49" y="192.268365"/>
     <use style="fill:#ffa500;stroke:#ffffff;stroke-width:0.25;" x="237.76515" xlink:href="#mf5c5445c49" y="192.268365"/>
     <use style="fill:#ffa500;stroke:#ffffff;stroke-width:0.25;" x="242.684158" xlink:href="#mf5c5445c49" y="192.268365"/>
     <use style="fill:#ffa500;stroke:#ffffff;stroke-width:0.25;" x="247.603166" xlink:href="#mf5c5445c49" y="192.268365"/>
     <use style="fill:#ffa500;stroke:#ffffff;stroke-width:0.25;" x="252.522175" xlink:href="#mf5c5445c49" y="192.268365"/>
     <use style="fill:#ffa500;stroke:#ffffff;stroke-width:0.25;" x="257.441183" xlink:href="#mf5c5445c49" y="191.939435"/>
     <use style="fill:#ffa500;stroke:#ffffff;stroke-width:0.25;" x="262.360191" xlink:href="#mf5c5445c49" y="191.939435"/>
     <use style="fill:#ffa500;stroke:#ffffff;stroke-width:0.25;" x="267.279199" xlink:href="#mf5c5445c49" y="188.156732"/>
     <use style="fill:#ffa500;stroke:#ffffff;stroke-width:0.25;" x="272.198208" xlink:href="#mf5c5445c49" y="187.827802"/>
     <use style="fill:#ffa500;stroke:#ffffff;stroke-width:0.25;" x="277.117216" xlink:href="#mf5c5445c49" y="187.663336"/>
     <use style="fill:#ffa500;stroke:#ffffff;stroke-width:0.25;" x="282.036224" xlink:href="#mf5c5445c49" y="187.16994"/>
     <use style="fill:#ffa500;stroke:#ffffff;stroke-width:0.25;" x="286.955232" xlink:href="#mf5c5445c49" y="186.347614"/>
     <use style="fill:#ffa500;stroke:#ffffff;stroke-width:0.25;" x="291.874241" xlink:href="#mf5c5445c49" y="185.689753"/>
     <use style="fill:#ffa500;stroke:#ffffff;stroke-width:0.25;" x="296.793249" xlink:href="#mf5c5445c49" y="183.551703"/>
     <use style="fill:#ffa500;stroke:#ffffff;stroke-width:0.25;" x="301.712257" xlink:href="#mf5c5445c49" y="182.564911"/>
     <use style="fill:#ffa500;stroke:#ffffff;stroke-width:0.25;" x="306.631265" xlink:href="#mf5c5445c49" y="180.755793"/>
     <use style="fill:#ffa500;stroke:#ffffff;stroke-width:0.25;" x="311.550274" xlink:href="#mf5c5445c49" y="179.275605"/>
     <use style="fill:#ffa500;stroke:#ffffff;stroke-width:0.25;" x="316.469282" xlink:href="#mf5c5445c49" y="175.986299"/>
     <use style="fill:#ffa500;stroke:#ffffff;stroke-width:0.25;" x="321.38829" xlink:href="#mf5c5445c49" y="174.17718"/>
     <use style="fill:#ffa500;stroke:#ffffff;stroke-width:0.25;" x="326.307299" xlink:href="#mf5c5445c49" y="173.190388"/>
     <use style="fill:#ffa500;stroke:#ffffff;stroke-width:0.25;" x="331.226307" xlink:href="#mf5c5445c49" y="169.407686"/>
     <use style="fill:#ffa500;stroke:#ffffff;stroke-width:0.25;" x="336.145315" xlink:href="#mf5c5445c49" y="167.105171"/>
     <use style="fill:#ffa500;stroke:#ffffff;stroke-width:0.25;" x="341.064323" xlink:href="#mf5c5445c49" y="160.855489"/>
     <use style="fill:#ffa500;stroke:#ffffff;stroke-width:0.25;" x="345.983332" xlink:href="#mf5c5445c49" y="152.632223"/>
     <use style="fill:#ffa500;stroke:#ffffff;stroke-width:0.25;" x="350.90234" xlink:href="#mf5c5445c49" y="138.488205"/>
     <use style="fill:#ffa500;stroke:#ffffff;stroke-width:0.25;" x="355.821348" xlink:href="#mf5c5445c49" y="127.633494"/>
     <use style="fill:#ffa500;stroke:#ffffff;stroke-width:0.25;" x="360.740356" xlink:href="#mf5c5445c49" y="110.693566"/>
     <use style="fill:#ffa500;stroke:#ffffff;stroke-width:0.25;" x="365.659365" xlink:href="#mf5c5445c49" y="104.608349"/>
     <use style="fill:#ffa500;stroke:#ffffff;stroke-width:0.25;" x="370.578373" xlink:href="#mf5c5445c49" y="84.708045"/>
     <use style="fill:#ffa500;stroke:#ffffff;stroke-width:0.25;" x="375.497381" xlink:href="#mf5c5445c49" y="73.195472"/>
     <use style="fill:#ffa500;stroke:#ffffff;stroke-width:0.25;" x="380.416389" xlink:href="#mf5c5445c49" y="46.881021"/>
     <use style="fill:#ffa500;stroke:#ffffff;stroke-width:0.25;" x="385.335398" xlink:href="#mf5c5445c49" y="30.434489"/>
    </g>
   </g>
   <g id="line2d_24">
    <path clip-path="url(#pe54883cc16)" d="M 60.680852 192.761761 
L 65.599861 192.761761 
L 70.518869 192.761761 
L 75.437877 192.761761 
L 80.356885 192.761761 
L 85.275894 192.761761 
L 90.194902 192.761761 
L 95.11391 192.761761 
L 100.032918 192.761761 
L 104.951927 192.761761 
L 109.870935 192.761761 
L 114.789943 192.761761 
L 119.708951 192.761761 
L 124.62796 192.761761 
L 129.546968 192.761761 
L 134.465976 192.761761 
L 139.384985 192.761761 
L 144.303993 192.761761 
L 149.223001 192.761761 
L 154.142009 192.761761 
L 159.061018 192.761761 
L 163.980026 192.761761 
L 168.899034 192.761761 
L 173.818042 192.761761 
L 178.737051 192.761761 
L 183.656059 192.761761 
L 188.575067 192.761761 
L 193.494075 192.761761 
L 198.413084 192.761761 
L 203.332092 192.761761 
L 208.2511 192.761761 
L 213.170108 192.761761 
L 218.089117 192.761761 
L 223.008125 192.761761 
L 227.927133 192.761761 
L 232.846142 192.761761 
L 237.76515 192.761761 
L 242.684158 192.761761 
L 247.603166 192.761761 
L 252.522175 192.761761 
L 257.441183 192.761761 
L 262.360191 192.761761 
L 267.279199 192.761761 
L 272.198208 192.761761 
L 277.117216 192.761761 
L 282.036224 192.761761 
L 286.955232 192.761761 
L 291.874241 192.761761 
L 296.793249 192.761761 
L 301.712257 192.597296 
L 306.631265 192.597296 
L 311.550274 192.432831 
L 316.469282 192.432831 
L 321.38829 192.432831 
L 326.307299 192.432831 
L 331.226307 192.268365 
L 336.145315 192.268365 
L 341.064323 192.1039 
L 345.983332 191.939435 
L 350.90234 192.1039 
L 355.821348 191.610504 
L 360.740356 191.117108 
L 365.659365 191.117108 
L 370.578373 190.788178 
L 375.497381 189.472455 
L 380.416389 189.472455 
L 385.335398 188.814594 
" style="fill:none;stroke:#ff0000;stroke-linecap:round;stroke-width:2;"/>
    <defs>
     <path d="M -1 2 
L 0 1 
L 1 2 
L 2 1 
L 1 0 
L 2 -1 
L 1 -2 
L 0 -1 
L -1 -2 
L -2 -1 
L -1 0 
L -2 1 
z
" id="me6a3469bf8" style="stroke:#ffffff;stroke-linejoin:miter;stroke-width:0.25;"/>
    </defs>
    <g clip-path="url(#pe54883cc16)">
     <use style="fill:#ff0000;stroke:#ffffff;stroke-linejoin:miter;stroke-width:0.25;" x="60.680852" xlink:href="#me6a3469bf8" y="192.761761"/>
     <use style="fill:#ff0000;stroke:#ffffff;stroke-linejoin:miter;stroke-width:0.25;" x="65.599861" xlink:href="#me6a3469bf8" y="192.761761"/>
     <use style="fill:#ff0000;stroke:#ffffff;stroke-linejoin:miter;stroke-width:0.25;" x="70.518869" xlink:href="#me6a3469bf8" y="192.761761"/>
     <use style="fill:#ff0000;stroke:#ffffff;stroke-linejoin:miter;stroke-width:0.25;" x="75.437877" xlink:href="#me6a3469bf8" y="192.761761"/>
     <use style="fill:#ff0000;stroke:#ffffff;stroke-linejoin:miter;stroke-width:0.25;" x="80.356885" xlink:href="#me6a3469bf8" y="192.761761"/>
     <use style="fill:#ff0000;stroke:#ffffff;stroke-linejoin:miter;stroke-width:0.25;" x="85.275894" xlink:href="#me6a3469bf8" y="192.761761"/>
     <use style="fill:#ff0000;stroke:#ffffff;stroke-linejoin:miter;stroke-width:0.25;" x="90.194902" xlink:href="#me6a3469bf8" y="192.761761"/>
     <use style="fill:#ff0000;stroke:#ffffff;stroke-linejoin:miter;stroke-width:0.25;" x="95.11391" xlink:href="#me6a3469bf8" y="192.761761"/>
     <use style="fill:#ff0000;stroke:#ffffff;stroke-linejoin:miter;stroke-width:0.25;" x="100.032918" xlink:href="#me6a3469bf8" y="192.761761"/>
     <use style="fill:#ff0000;stroke:#ffffff;stroke-linejoin:miter;stroke-width:0.25;" x="104.951927" xlink:href="#me6a3469bf8" y="192.761761"/>
     <use style="fill:#ff0000;stroke:#ffffff;stroke-linejoin:miter;stroke-width:0.25;" x="109.870935" xlink:href="#me6a3469bf8" y="192.761761"/>
     <use style="fill:#ff0000;stroke:#ffffff;stroke-linejoin:miter;stroke-width:0.25;" x="114.789943" xlink:href="#me6a3469bf8" y="192.761761"/>
     <use style="fill:#ff0000;stroke:#ffffff;stroke-linejoin:miter;stroke-width:0.25;" x="119.708951" xlink:href="#me6a3469bf8" y="192.761761"/>
     <use style="fill:#ff0000;stroke:#ffffff;stroke-linejoin:miter;stroke-width:0.25;" x="124.62796" xlink:href="#me6a3469bf8" y="192.761761"/>
     <use style="fill:#ff0000;stroke:#ffffff;stroke-linejoin:miter;stroke-width:0.25;" x="129.546968" xlink:href="#me6a3469bf8" y="192.761761"/>
     <use style="fill:#ff0000;stroke:#ffffff;stroke-linejoin:miter;stroke-width:0.25;" x="134.465976" xlink:href="#me6a3469bf8" y="192.761761"/>
     <use style="fill:#ff0000;stroke:#ffffff;stroke-linejoin:miter;stroke-width:0.25;" x="139.384985" xlink:href="#me6a3469bf8" y="192.761761"/>
     <use style="fill:#ff0000;stroke:#ffffff;stroke-linejoin:miter;stroke-width:0.25;" x="144.303993" xlink:href="#me6a3469bf8" y="192.761761"/>
     <use style="fill:#ff0000;stroke:#ffffff;stroke-linejoin:miter;stroke-width:0.25;" x="149.223001" xlink:href="#me6a3469bf8" y="192.761761"/>
     <use style="fill:#ff0000;stroke:#ffffff;stroke-linejoin:miter;stroke-width:0.25;" x="154.142009" xlink:href="#me6a3469bf8" y="192.761761"/>
     <use style="fill:#ff0000;stroke:#ffffff;stroke-linejoin:miter;stroke-width:0.25;" x="159.061018" xlink:href="#me6a3469bf8" y="192.761761"/>
     <use style="fill:#ff0000;stroke:#ffffff;stroke-linejoin:miter;stroke-width:0.25;" x="163.980026" xlink:href="#me6a3469bf8" y="192.761761"/>
     <use style="fill:#ff0000;stroke:#ffffff;stroke-linejoin:miter;stroke-width:0.25;" x="168.899034" xlink:href="#me6a3469bf8" y="192.761761"/>
     <use style="fill:#ff0000;stroke:#ffffff;stroke-linejoin:miter;stroke-width:0.25;" x="173.818042" xlink:href="#me6a3469bf8" y="192.761761"/>
     <use style="fill:#ff0000;stroke:#ffffff;stroke-linejoin:miter;stroke-width:0.25;" x="178.737051" xlink:href="#me6a3469bf8" y="192.761761"/>
     <use style="fill:#ff0000;stroke:#ffffff;stroke-linejoin:miter;stroke-width:0.25;" x="183.656059" xlink:href="#me6a3469bf8" y="192.761761"/>
     <use style="fill:#ff0000;stroke:#ffffff;stroke-linejoin:miter;stroke-width:0.25;" x="188.575067" xlink:href="#me6a3469bf8" y="192.761761"/>
     <use style="fill:#ff0000;stroke:#ffffff;stroke-linejoin:miter;stroke-width:0.25;" x="193.494075" xlink:href="#me6a3469bf8" y="192.761761"/>
     <use style="fill:#ff0000;stroke:#ffffff;stroke-linejoin:miter;stroke-width:0.25;" x="198.413084" xlink:href="#me6a3469bf8" y="192.761761"/>
     <use style="fill:#ff0000;stroke:#ffffff;stroke-linejoin:miter;stroke-width:0.25;" x="203.332092" xlink:href="#me6a3469bf8" y="192.761761"/>
     <use style="fill:#ff0000;stroke:#ffffff;stroke-linejoin:miter;stroke-width:0.25;" x="208.2511" xlink:href="#me6a3469bf8" y="192.761761"/>
     <use style="fill:#ff0000;stroke:#ffffff;stroke-linejoin:miter;stroke-width:0.25;" x="213.170108" xlink:href="#me6a3469bf8" y="192.761761"/>
     <use style="fill:#ff0000;stroke:#ffffff;stroke-linejoin:miter;stroke-width:0.25;" x="218.089117" xlink:href="#me6a3469bf8" y="192.761761"/>
     <use style="fill:#ff0000;stroke:#ffffff;stroke-linejoin:miter;stroke-width:0.25;" x="223.008125" xlink:href="#me6a3469bf8" y="192.761761"/>
     <use style="fill:#ff0000;stroke:#ffffff;stroke-linejoin:miter;stroke-width:0.25;" x="227.927133" xlink:href="#me6a3469bf8" y="192.761761"/>
     <use style="fill:#ff0000;stroke:#ffffff;stroke-linejoin:miter;stroke-width:0.25;" x="232.846142" xlink:href="#me6a3469bf8" y="192.761761"/>
     <use style="fill:#ff0000;stroke:#ffffff;stroke-linejoin:miter;stroke-width:0.25;" x="237.76515" xlink:href="#me6a3469bf8" y="192.761761"/>
     <use style="fill:#ff0000;stroke:#ffffff;stroke-linejoin:miter;stroke-width:0.25;" x="242.684158" xlink:href="#me6a3469bf8" y="192.761761"/>
     <use style="fill:#ff0000;stroke:#ffffff;stroke-linejoin:miter;stroke-width:0.25;" x="247.603166" xlink:href="#me6a3469bf8" y="192.761761"/>
     <use style="fill:#ff0000;stroke:#ffffff;stroke-linejoin:miter;stroke-width:0.25;" x="252.522175" xlink:href="#me6a3469bf8" y="192.761761"/>
     <use style="fill:#ff0000;stroke:#ffffff;stroke-linejoin:miter;stroke-width:0.25;" x="257.441183" xlink:href="#me6a3469bf8" y="192.761761"/>
     <use style="fill:#ff0000;stroke:#ffffff;stroke-linejoin:miter;stroke-width:0.25;" x="262.360191" xlink:href="#me6a3469bf8" y="192.761761"/>
     <use style="fill:#ff0000;stroke:#ffffff;stroke-linejoin:miter;stroke-width:0.25;" x="267.279199" xlink:href="#me6a3469bf8" y="192.761761"/>
     <use style="fill:#ff0000;stroke:#ffffff;stroke-linejoin:miter;stroke-width:0.25;" x="272.198208" xlink:href="#me6a3469bf8" y="192.761761"/>
     <use style="fill:#ff0000;stroke:#ffffff;stroke-linejoin:miter;stroke-width:0.25;" x="277.117216" xlink:href="#me6a3469bf8" y="192.761761"/>
     <use style="fill:#ff0000;stroke:#ffffff;stroke-linejoin:miter;stroke-width:0.25;" x="282.036224" xlink:href="#me6a3469bf8" y="192.761761"/>
     <use style="fill:#ff0000;stroke:#ffffff;stroke-linejoin:miter;stroke-width:0.25;" x="286.955232" xlink:href="#me6a3469bf8" y="192.761761"/>
     <use style="fill:#ff0000;stroke:#ffffff;stroke-linejoin:miter;stroke-width:0.25;" x="291.874241" xlink:href="#me6a3469bf8" y="192.761761"/>
     <use style="fill:#ff0000;stroke:#ffffff;stroke-linejoin:miter;stroke-width:0.25;" x="296.793249" xlink:href="#me6a3469bf8" y="192.761761"/>
     <use style="fill:#ff0000;stroke:#ffffff;stroke-linejoin:miter;stroke-width:0.25;" x="301.712257" xlink:href="#me6a3469bf8" y="192.597296"/>
     <use style="fill:#ff0000;stroke:#ffffff;stroke-linejoin:miter;stroke-width:0.25;" x="306.631265" xlink:href="#me6a3469bf8" y="192.597296"/>
     <use style="fill:#ff0000;stroke:#ffffff;stroke-linejoin:miter;stroke-width:0.25;" x="311.550274" xlink:href="#me6a3469bf8" y="192.432831"/>
     <use style="fill:#ff0000;stroke:#ffffff;stroke-linejoin:miter;stroke-width:0.25;" x="316.469282" xlink:href="#me6a3469bf8" y="192.432831"/>
     <use style="fill:#ff0000;stroke:#ffffff;stroke-linejoin:miter;stroke-width:0.25;" x="321.38829" xlink:href="#me6a3469bf8" y="192.432831"/>
     <use style="fill:#ff0000;stroke:#ffffff;stroke-linejoin:miter;stroke-width:0.25;" x="326.307299" xlink:href="#me6a3469bf8" y="192.432831"/>
     <use style="fill:#ff0000;stroke:#ffffff;stroke-linejoin:miter;stroke-width:0.25;" x="331.226307" xlink:href="#me6a3469bf8" y="192.268365"/>
     <use style="fill:#ff0000;stroke:#ffffff;stroke-linejoin:miter;stroke-width:0.25;" x="336.145315" xlink:href="#me6a3469bf8" y="192.268365"/>
     <use style="fill:#ff0000;stroke:#ffffff;stroke-linejoin:miter;stroke-width:0.25;" x="341.064323" xlink:href="#me6a3469bf8" y="192.1039"/>
     <use style="fill:#ff0000;stroke:#ffffff;stroke-linejoin:miter;stroke-width:0.25;" x="345.983332" xlink:href="#me6a3469bf8" y="191.939435"/>
     <use style="fill:#ff0000;stroke:#ffffff;stroke-linejoin:miter;stroke-width:0.25;" x="350.90234" xlink:href="#me6a3469bf8" y="192.1039"/>
     <use style="fill:#ff0000;stroke:#ffffff;stroke-linejoin:miter;stroke-width:0.25;" x="355.821348" xlink:href="#me6a3469bf8" y="191.610504"/>
     <use style="fill:#ff0000;stroke:#ffffff;stroke-linejoin:miter;stroke-width:0.25;" x="360.740356" xlink:href="#me6a3469bf8" y="191.117108"/>
     <use style="fill:#ff0000;stroke:#ffffff;stroke-linejoin:miter;stroke-width:0.25;" x="365.659365" xlink:href="#me6a3469bf8" y="191.117108"/>
     <use style="fill:#ff0000;stroke:#ffffff;stroke-linejoin:miter;stroke-width:0.25;" x="370.578373" xlink:href="#me6a3469bf8" y="190.788178"/>
     <use style="fill:#ff0000;stroke:#ffffff;stroke-linejoin:miter;stroke-width:0.25;" x="375.497381" xlink:href="#me6a3469bf8" y="189.472455"/>
     <use style="fill:#ff0000;stroke:#ffffff;stroke-linejoin:miter;stroke-width:0.25;" x="380.416389" xlink:href="#me6a3469bf8" y="189.472455"/>
     <use style="fill:#ff0000;stroke:#ffffff;stroke-linejoin:miter;stroke-width:0.25;" x="385.335398" xlink:href="#me6a3469bf8" y="188.814594"/>
    </g>
   </g>
   <g id="line2d_25"/>
   <g id="line2d_26"/>
   <g id="line2d_27"/>
   <g id="line2d_28">
    <path clip-path="url(#pe54883cc16)" d="M 44.448125 30.434489 
L 401.568125 30.434489 
" style="fill:none;stroke:#4c72b0;stroke-dasharray:0.5,0.825;stroke-dashoffset:0;stroke-width:0.5;"/>
   </g>
   <g id="line2d_29">
    <path clip-path="url(#pe54883cc16)" d="M 44.448125 188.814594 
L 401.568125 188.814594 
" style="fill:none;stroke:#4c72b0;stroke-dasharray:0.5,0.825;stroke-dashoffset:0;stroke-width:0.5;"/>
   </g>
   <g id="patch_3">
    <path d="M 44.448125 200.878125 
L 44.448125 22.318125 
" style="fill:none;stroke:#262626;stroke-linecap:square;stroke-linejoin:miter;"/>
   </g>
   <g id="patch_4">
    <path d="M 401.568125 200.878125 
L 401.568125 22.318125 
" style="fill:none;stroke:#262626;stroke-linecap:square;stroke-linejoin:miter;"/>
   </g>
   <g id="patch_5">
    <path d="M 44.448125 200.878125 
L 401.568125 200.878125 
" style="fill:none;stroke:#262626;stroke-linecap:square;stroke-linejoin:miter;"/>
   </g>
   <g id="patch_6">
    <path d="M 44.448125 22.318125 
L 401.568125 22.318125 
" style="fill:none;stroke:#262626;stroke-linecap:square;stroke-linejoin:miter;"/>
   </g>
   <g id="text_14">
    <!-- 987 -->
    <defs>
     <path d="M 10.984375 1.515625 
L 10.984375 10.5 
Q 14.703125 8.734375 18.5 7.8125 
Q 22.3125 6.890625 25.984375 6.890625 
Q 35.75 6.890625 40.890625 13.453125 
Q 46.046875 20.015625 46.78125 33.40625 
Q 43.953125 29.203125 39.59375 26.953125 
Q 35.25 24.703125 29.984375 24.703125 
Q 19.046875 24.703125 12.671875 31.3125 
Q 6.296875 37.9375 6.296875 49.421875 
Q 6.296875 60.640625 12.9375 67.421875 
Q 19.578125 74.21875 30.609375 74.21875 
Q 43.265625 74.21875 49.921875 64.515625 
Q 56.59375 54.828125 56.59375 36.375 
Q 56.59375 19.140625 48.40625 8.859375 
Q 40.234375 -1.421875 26.421875 -1.421875 
Q 22.703125 -1.421875 18.890625 -0.6875 
Q 15.09375 0.046875 10.984375 1.515625 
z
M 30.609375 32.421875 
Q 37.25 32.421875 41.125 36.953125 
Q 45.015625 41.5 45.015625 49.421875 
Q 45.015625 57.28125 41.125 61.84375 
Q 37.25 66.40625 30.609375 66.40625 
Q 23.96875 66.40625 20.09375 61.84375 
Q 16.21875 57.28125 16.21875 49.421875 
Q 16.21875 41.5 20.09375 36.953125 
Q 23.96875 32.421875 30.609375 32.421875 
z
" id="DejaVuSans-57"/>
     <path d="M 8.203125 72.90625 
L 55.078125 72.90625 
L 55.078125 68.703125 
L 28.609375 0 
L 18.3125 0 
L 43.21875 64.59375 
L 8.203125 64.59375 
z
" id="DejaVuSans-55"/>
    </defs>
    <g style="fill:#ffa500;" transform="translate(20.878125 32.641989)scale(0.08 -0.08)">
     <use xlink:href="#DejaVuSans-57"/>
     <use x="63.623047" xlink:href="#DejaVuSans-56"/>
     <use x="127.246094" xlink:href="#DejaVuSans-55"/>
    </g>
   </g>
   <g id="text_15">
    <!-- 24 -->
    <g style="fill:#ff0000;" transform="translate(25.968125 191.022094)scale(0.08 -0.08)">
     <use xlink:href="#DejaVuSans-50"/>
     <use x="63.623047" xlink:href="#DejaVuSans-52"/>
    </g>
   </g>
   <g id="text_16">
    <!-- COVID-19 Cases and Deaths Graph -->
    <defs>
     <path d="M 39.40625 66.21875 
Q 28.65625 66.21875 22.328125 58.203125 
Q 16.015625 50.203125 16.015625 36.375 
Q 16.015625 22.609375 22.328125 14.59375 
Q 28.65625 6.59375 39.40625 6.59375 
Q 50.140625 6.59375 56.421875 14.59375 
Q 62.703125 22.609375 62.703125 36.375 
Q 62.703125 50.203125 56.421875 58.203125 
Q 50.140625 66.21875 39.40625 66.21875 
z
M 39.40625 74.21875 
Q 54.734375 74.21875 63.90625 63.9375 
Q 73.09375 53.65625 73.09375 36.375 
Q 73.09375 19.140625 63.90625 8.859375 
Q 54.734375 -1.421875 39.40625 -1.421875 
Q 24.03125 -1.421875 14.8125 8.828125 
Q 5.609375 19.09375 5.609375 36.375 
Q 5.609375 53.65625 14.8125 63.9375 
Q 24.03125 74.21875 39.40625 74.21875 
z
" id="DejaVuSans-79"/>
     <path d="M 28.609375 0 
L 0.78125 72.90625 
L 11.078125 72.90625 
L 34.1875 11.53125 
L 57.328125 72.90625 
L 67.578125 72.90625 
L 39.796875 0 
z
" id="DejaVuSans-86"/>
     <path d="M 9.8125 72.90625 
L 19.671875 72.90625 
L 19.671875 0 
L 9.8125 0 
z
" id="DejaVuSans-73"/>
     <path d="M 54.890625 33.015625 
L 54.890625 0 
L 45.90625 0 
L 45.90625 32.71875 
Q 45.90625 40.484375 42.875 44.328125 
Q 39.84375 48.1875 33.796875 48.1875 
Q 26.515625 48.1875 22.3125 43.546875 
Q 18.109375 38.921875 18.109375 30.90625 
L 18.109375 0 
L 9.078125 0 
L 9.078125 54.6875 
L 18.109375 54.6875 
L 18.109375 46.1875 
Q 21.34375 51.125 25.703125 53.5625 
Q 30.078125 56 35.796875 56 
Q 45.21875 56 50.046875 50.171875 
Q 54.890625 44.34375 54.890625 33.015625 
z
" id="DejaVuSans-110"/>
     <path d="M 45.40625 46.390625 
L 45.40625 75.984375 
L 54.390625 75.984375 
L 54.390625 0 
L 45.40625 0 
L 45.40625 8.203125 
Q 42.578125 3.328125 38.25 0.953125 
Q 33.9375 -1.421875 27.875 -1.421875 
Q 17.96875 -1.421875 11.734375 6.484375 
Q 5.515625 14.40625 5.515625 27.296875 
Q 5.515625 40.1875 11.734375 48.09375 
Q 17.96875 56 27.875 56 
Q 33.9375 56 38.25 53.625 
Q 42.578125 51.265625 45.40625 46.390625 
z
M 14.796875 27.296875 
Q 14.796875 17.390625 18.875 11.75 
Q 22.953125 6.109375 30.078125 6.109375 
Q 37.203125 6.109375 41.296875 11.75 
Q 45.40625 17.390625 45.40625 27.296875 
Q 45.40625 37.203125 41.296875 42.84375 
Q 37.203125 48.484375 30.078125 48.484375 
Q 22.953125 48.484375 18.875 42.84375 
Q 14.796875 37.203125 14.796875 27.296875 
z
" id="DejaVuSans-100"/>
     <path d="M 59.515625 10.40625 
L 59.515625 29.984375 
L 43.40625 29.984375 
L 43.40625 38.09375 
L 69.28125 38.09375 
L 69.28125 6.78125 
Q 63.578125 2.734375 56.6875 0.65625 
Q 49.8125 -1.421875 42 -1.421875 
Q 24.90625 -1.421875 15.25 8.5625 
Q 5.609375 18.5625 5.609375 36.375 
Q 5.609375 54.25 15.25 64.234375 
Q 24.90625 74.21875 42 74.21875 
Q 49.125 74.21875 55.546875 72.453125 
Q 61.96875 70.703125 67.390625 67.28125 
L 67.390625 56.78125 
Q 61.921875 61.421875 55.765625 63.765625 
Q 49.609375 66.109375 42.828125 66.109375 
Q 29.4375 66.109375 22.71875 58.640625 
Q 16.015625 51.171875 16.015625 36.375 
Q 16.015625 21.625 22.71875 14.15625 
Q 29.4375 6.6875 42.828125 6.6875 
Q 48.046875 6.6875 52.140625 7.59375 
Q 56.25 8.5 59.515625 10.40625 
z
" id="DejaVuSans-71"/>
     <path d="M 41.109375 46.296875 
Q 39.59375 47.171875 37.8125 47.578125 
Q 36.03125 48 33.890625 48 
Q 26.265625 48 22.1875 43.046875 
Q 18.109375 38.09375 18.109375 28.8125 
L 18.109375 0 
L 9.078125 0 
L 9.078125 54.6875 
L 18.109375 54.6875 
L 18.109375 46.1875 
Q 20.953125 51.171875 25.484375 53.578125 
Q 30.03125 56 36.53125 56 
Q 37.453125 56 38.578125 55.875 
Q 39.703125 55.765625 41.0625 55.515625 
z
" id="DejaVuSans-114"/>
     <path d="M 18.109375 8.203125 
L 18.109375 -20.796875 
L 9.078125 -20.796875 
L 9.078125 54.6875 
L 18.109375 54.6875 
L 18.109375 46.390625 
Q 20.953125 51.265625 25.265625 53.625 
Q 29.59375 56 35.59375 56 
Q 45.5625 56 51.78125 48.09375 
Q 58.015625 40.1875 58.015625 27.296875 
Q 58.015625 14.40625 51.78125 6.484375 
Q 45.5625 -1.421875 35.59375 -1.421875 
Q 29.59375 -1.421875 25.265625 0.953125 
Q 20.953125 3.328125 18.109375 8.203125 
z
M 48.6875 27.296875 
Q 48.6875 37.203125 44.609375 42.84375 
Q 40.53125 48.484375 33.40625 48.484375 
Q 26.265625 48.484375 22.1875 42.84375 
Q 18.109375 37.203125 18.109375 27.296875 
Q 18.109375 17.390625 22.1875 11.75 
Q 26.265625 6.109375 33.40625 6.109375 
Q 40.53125 6.109375 44.609375 11.75 
Q 48.6875 17.390625 48.6875 27.296875 
z
" id="DejaVuSans-112"/>
    </defs>
    <g style="fill:#262626;" transform="translate(117.5075 16.318125)scale(0.12 -0.12)">
     <use xlink:href="#DejaVuSans-67"/>
     <use x="69.824219" xlink:href="#DejaVuSans-79"/>
     <use x="146.785156" xlink:href="#DejaVuSans-86"/>
     <use x="215.193359" xlink:href="#DejaVuSans-73"/>
     <use x="244.685547" xlink:href="#DejaVuSans-68"/>
     <use x="321.6875" xlink:href="#DejaVuSans-45"/>
     <use x="357.771484" xlink:href="#DejaVuSans-49"/>
     <use x="421.394531" xlink:href="#DejaVuSans-57"/>
     <use x="485.017578" xlink:href="#DejaVuSans-32"/>
     <use x="516.804688" xlink:href="#DejaVuSans-67"/>
     <use x="586.628906" xlink:href="#DejaVuSans-97"/>
     <use x="647.908203" xlink:href="#DejaVuSans-115"/>
     <use x="700.007812" xlink:href="#DejaVuSans-101"/>
     <use x="761.53125" xlink:href="#DejaVuSans-115"/>
     <use x="813.630859" xlink:href="#DejaVuSans-32"/>
     <use x="845.417969" xlink:href="#DejaVuSans-97"/>
     <use x="906.697266" xlink:href="#DejaVuSans-110"/>
     <use x="970.076172" xlink:href="#DejaVuSans-100"/>
     <use x="1033.552734" xlink:href="#DejaVuSans-32"/>
     <use x="1065.339844" xlink:href="#DejaVuSans-68"/>
     <use x="1142.341797" xlink:href="#DejaVuSans-101"/>
     <use x="1203.865234" xlink:href="#DejaVuSans-97"/>
     <use x="1265.144531" xlink:href="#DejaVuSans-116"/>
     <use x="1304.353516" xlink:href="#DejaVuSans-104"/>
     <use x="1367.732422" xlink:href="#DejaVuSans-115"/>
     <use x="1419.832031" xlink:href="#DejaVuSans-32"/>
     <use x="1451.619141" xlink:href="#DejaVuSans-71"/>
     <use x="1529.109375" xlink:href="#DejaVuSans-114"/>
     <use x="1570.222656" xlink:href="#DejaVuSans-97"/>
     <use x="1631.501953" xlink:href="#DejaVuSans-112"/>
     <use x="1694.978516" xlink:href="#DejaVuSans-104"/>
    </g>
   </g>
   <g id="legend_1">
    <g id="patch_7">
     <path d="M 50.608125 125.834875 
L 153.3715 125.834875 
Q 155.1315 125.834875 155.1315 124.074875 
L 155.1315 99.121375 
Q 155.1315 97.361375 153.3715 97.361375 
L 50.608125 97.361375 
Q 48.848125 97.361375 48.848125 99.121375 
L 48.848125 124.074875 
Q 48.848125 125.834875 50.608125 125.834875 
z
" style="fill:#ffffff;opacity:0.8;stroke:#cccccc;stroke-linejoin:miter;stroke-width:0.8;"/>
    </g>
    <g id="line2d_30">
     <path d="M 52.368125 104.488 
L 69.968125 104.488 
" style="fill:none;stroke:#ffa500;stroke-linecap:round;stroke-width:2;"/>
    </g>
    <g id="line2d_31">
     <g>
      <use style="fill:#ffa500;stroke:#ffffff;stroke-width:0.25;" x="61.168125" xlink:href="#mf5c5445c49" y="104.488"/>
     </g>
    </g>
    <g id="text_17">
     <!-- Confirmed Cases -->
     <defs>
      <path d="M 30.609375 48.390625 
Q 23.390625 48.390625 19.1875 42.75 
Q 14.984375 37.109375 14.984375 27.296875 
Q 14.984375 17.484375 19.15625 11.84375 
Q 23.34375 6.203125 30.609375 6.203125 
Q 37.796875 6.203125 41.984375 11.859375 
Q 46.1875 17.53125 46.1875 27.296875 
Q 46.1875 37.015625 41.984375 42.703125 
Q 37.796875 48.390625 30.609375 48.390625 
z
M 30.609375 56 
Q 42.328125 56 49.015625 48.375 
Q 55.71875 40.765625 55.71875 27.296875 
Q 55.71875 13.875 49.015625 6.21875 
Q 42.328125 -1.421875 30.609375 -1.421875 
Q 18.84375 -1.421875 12.171875 6.21875 
Q 5.515625 13.875 5.515625 27.296875 
Q 5.515625 40.765625 12.171875 48.375 
Q 18.84375 56 30.609375 56 
z
" id="DejaVuSans-111"/>
      <path d="M 37.109375 75.984375 
L 37.109375 68.5 
L 28.515625 68.5 
Q 23.6875 68.5 21.796875 66.546875 
Q 19.921875 64.59375 19.921875 59.515625 
L 19.921875 54.6875 
L 34.71875 54.6875 
L 34.71875 47.703125 
L 19.921875 47.703125 
L 19.921875 0 
L 10.890625 0 
L 10.890625 47.703125 
L 2.296875 47.703125 
L 2.296875 54.6875 
L 10.890625 54.6875 
L 10.890625 58.5 
Q 10.890625 67.625 15.140625 71.796875 
Q 19.390625 75.984375 28.609375 75.984375 
z
" id="DejaVuSans-102"/>
     </defs>
     <g style="fill:#262626;" transform="translate(77.008125 107.568)scale(0.088 -0.088)">
      <use xlink:href="#DejaVuSans-67"/>
      <use x="69.824219" xlink:href="#DejaVuSans-111"/>
      <use x="131.005859" xlink:href="#DejaVuSans-110"/>
      <use x="194.384766" xlink:href="#DejaVuSans-102"/>
      <use x="229.589844" xlink:href="#DejaVuSans-105"/>
      <use x="257.373047" xlink:href="#DejaVuSans-114"/>
      <use x="296.736328" xlink:href="#DejaVuSans-109"/>
      <use x="394.148438" xlink:href="#DejaVuSans-101"/>
      <use x="455.671875" xlink:href="#DejaVuSans-100"/>
      <use x="519.148438" xlink:href="#DejaVuSans-32"/>
      <use x="550.935547" xlink:href="#DejaVuSans-67"/>
      <use x="620.759766" xlink:href="#DejaVuSans-97"/>
      <use x="682.039062" xlink:href="#DejaVuSans-115"/>
      <use x="734.138672" xlink:href="#DejaVuSans-101"/>
      <use x="795.662109" xlink:href="#DejaVuSans-115"/>
     </g>
    </g>
    <g id="line2d_32">
     <path d="M 52.368125 117.40475 
L 69.968125 117.40475 
" style="fill:none;stroke:#ff0000;stroke-linecap:round;stroke-width:2;"/>
    </g>
    <g id="line2d_33">
     <g>
      <use style="fill:#ff0000;stroke:#ffffff;stroke-linejoin:miter;stroke-width:0.25;" x="61.168125" xlink:href="#me6a3469bf8" y="117.40475"/>
     </g>
    </g>
    <g id="text_18">
     <!-- Deaths -->
     <g style="fill:#262626;" transform="translate(77.008125 120.48475)scale(0.088 -0.088)">
      <use xlink:href="#DejaVuSans-68"/>
      <use x="77.001953" xlink:href="#DejaVuSans-101"/>
      <use x="138.525391" xlink:href="#DejaVuSans-97"/>
      <use x="199.804688" xlink:href="#DejaVuSans-116"/>
      <use x="239.013672" xlink:href="#DejaVuSans-104"/>
      <use x="302.392578" xlink:href="#DejaVuSans-115"/>
     </g>
    </g>
   </g>
  </g>
 </g>
 <defs>
  <clipPath id="pe54883cc16">
   <rect height="178.56" width="357.12" x="44.448125" y="22.318125"/>
  </clipPath>
 </defs>
</svg>
