<?xml version="1.0" encoding="utf-8" standalone="no"?>
<!DOCTYPE svg PUBLIC "-//W3C//DTD SVG 1.1//EN"
  "http://www.w3.org/Graphics/SVG/1.1/DTD/svg11.dtd">
<!-- Created with matplotlib (https://matplotlib.org/) -->
<svg height="214.137656pt" version="1.1" viewBox="0 0 376.32 214.137656" width="376.32pt" xmlns="http://www.w3.org/2000/svg" xmlns:xlink="http://www.w3.org/1999/xlink">
 <defs>
  <style type="text/css">
*{stroke-linecap:butt;stroke-linejoin:round;}
  </style>
 </defs>
 <g id="figure_1">
  <g id="patch_1">
   <path d="M 0 214.137656 
L 376.32 214.137656 
L 376.32 0 
L 0 0 
z
" style="fill:#ffffff;"/>
  </g>
  <g id="axes_1">
   <g id="patch_2">
    <path d="M 12 198.598594 
L 369.12 198.598594 
L 369.12 20.038594 
L 12 20.038594 
z
" style="fill:#ffffff;"/>
   </g>
   <g id="matplotlib.axis_1">
    <g id="xtick_1">
     <g id="line2d_1">
      <path clip-path="url(#pf5038934e9)" d="M 56.963218 198.598594 
L 56.963218 20.038594 
" style="fill:none;stroke:#f3f3f3;stroke-dasharray:0.5,0.825;stroke-dashoffset:0;stroke-width:0.5;"/>
     </g>
     <g id="line2d_2">
      <defs>
       <path d="M 0 0 
L 0 -3 
" id="m789c099016" style="stroke:#262626;stroke-width:0.5;"/>
      </defs>
      <g>
       <use style="fill:#262626;stroke:#262626;stroke-width:0.5;" x="56.963218" xlink:href="#m789c099016" y="198.598594"/>
      </g>
     </g>
     <g id="text_1">
      <!-- 01 Feb -->
      <defs>
       <path d="M 31.78125 66.40625 
Q 24.171875 66.40625 20.328125 58.90625 
Q 16.5 51.421875 16.5 36.375 
Q 16.5 21.390625 20.328125 13.890625 
Q 24.171875 6.390625 31.78125 6.390625 
Q 39.453125 6.390625 43.28125 13.890625 
Q 47.125 21.390625 47.125 36.375 
Q 47.125 51.421875 43.28125 58.90625 
Q 39.453125 66.40625 31.78125 66.40625 
z
M 31.78125 74.21875 
Q 44.046875 74.21875 50.515625 64.515625 
Q 56.984375 54.828125 56.984375 36.375 
Q 56.984375 17.96875 50.515625 8.265625 
Q 44.046875 -1.421875 31.78125 -1.421875 
Q 19.53125 -1.421875 13.0625 8.265625 
Q 6.59375 17.96875 6.59375 36.375 
Q 6.59375 54.828125 13.0625 64.515625 
Q 19.53125 74.21875 31.78125 74.21875 
z
" id="DejaVuSans-48"/>
       <path d="M 12.40625 8.296875 
L 28.515625 8.296875 
L 28.515625 63.921875 
L 10.984375 60.40625 
L 10.984375 69.390625 
L 28.421875 72.90625 
L 38.28125 72.90625 
L 38.28125 8.296875 
L 54.390625 8.296875 
L 54.390625 0 
L 12.40625 0 
z
" id="DejaVuSans-49"/>
       <path id="DejaVuSans-32"/>
       <path d="M 9.8125 72.90625 
L 51.703125 72.90625 
L 51.703125 64.59375 
L 19.671875 64.59375 
L 19.671875 43.109375 
L 48.578125 43.109375 
L 48.578125 34.8125 
L 19.671875 34.8125 
L 19.671875 0 
L 9.8125 0 
z
" id="DejaVuSans-70"/>
       <path d="M 56.203125 29.59375 
L 56.203125 25.203125 
L 14.890625 25.203125 
Q 15.484375 15.921875 20.484375 11.0625 
Q 25.484375 6.203125 34.421875 6.203125 
Q 39.59375 6.203125 44.453125 7.46875 
Q 49.3125 8.734375 54.109375 11.28125 
L 54.109375 2.78125 
Q 49.265625 0.734375 44.1875 -0.34375 
Q 39.109375 -1.421875 33.890625 -1.421875 
Q 20.796875 -1.421875 13.15625 6.1875 
Q 5.515625 13.8125 5.515625 26.8125 
Q 5.515625 40.234375 12.765625 48.109375 
Q 20.015625 56 32.328125 56 
Q 43.359375 56 49.78125 48.890625 
Q 56.203125 41.796875 56.203125 29.59375 
z
M 47.21875 32.234375 
Q 47.125 39.59375 43.09375 43.984375 
Q 39.0625 48.390625 32.421875 48.390625 
Q 24.90625 48.390625 20.390625 44.140625 
Q 15.875 39.890625 15.1875 32.171875 
z
" id="DejaVuSans-101"/>
       <path d="M 48.6875 27.296875 
Q 48.6875 37.203125 44.609375 42.84375 
Q 40.53125 48.484375 33.40625 48.484375 
Q 26.265625 48.484375 22.1875 42.84375 
Q 18.109375 37.203125 18.109375 27.296875 
Q 18.109375 17.390625 22.1875 11.75 
Q 26.265625 6.109375 33.40625 6.109375 
Q 40.53125 6.109375 44.609375 11.75 
Q 48.6875 17.390625 48.6875 27.296875 
z
M 18.109375 46.390625 
Q 20.953125 51.265625 25.265625 53.625 
Q 29.59375 56 35.59375 56 
Q 45.5625 56 51.78125 48.09375 
Q 58.015625 40.1875 58.015625 27.296875 
Q 58.015625 14.40625 51.78125 6.484375 
Q 45.5625 -1.421875 35.59375 -1.421875 
Q 29.59375 -1.421875 25.265625 0.953125 
Q 20.953125 3.328125 18.109375 8.203125 
L 18.109375 0 
L 9.078125 0 
L 9.078125 75.984375 
L 18.109375 75.984375 
z
" id="DejaVuSans-98"/>
      </defs>
      <g style="fill:#262626;" transform="translate(48.561656 205.897812)scale(0.05 -0.05)">
       <use xlink:href="#DejaVuSans-48"/>
       <use x="63.623047" xlink:href="#DejaVuSans-49"/>
       <use x="127.246094" xlink:href="#DejaVuSans-32"/>
       <use x="159.033203" xlink:href="#DejaVuSans-70"/>
       <use x="211.052734" xlink:href="#DejaVuSans-101"/>
       <use x="272.576172" xlink:href="#DejaVuSans-98"/>
      </g>
     </g>
    </g>
    <g id="xtick_2">
     <g id="line2d_3">
      <path clip-path="url(#pf5038934e9)" d="M 97.185905 198.598594 
L 97.185905 20.038594 
" style="fill:none;stroke:#f3f3f3;stroke-dasharray:0.5,0.825;stroke-dashoffset:0;stroke-width:0.5;"/>
     </g>
     <g id="line2d_4">
      <g>
       <use style="fill:#262626;stroke:#262626;stroke-width:0.5;" x="97.185905" xlink:href="#m789c099016" y="198.598594"/>
      </g>
     </g>
     <g id="text_2">
      <!-- 15 Feb -->
      <defs>
       <path d="M 10.796875 72.90625 
L 49.515625 72.90625 
L 49.515625 64.59375 
L 19.828125 64.59375 
L 19.828125 46.734375 
Q 21.96875 47.46875 24.109375 47.828125 
Q 26.265625 48.1875 28.421875 48.1875 
Q 40.625 48.1875 47.75 41.5 
Q 54.890625 34.8125 54.890625 23.390625 
Q 54.890625 11.625 47.5625 5.09375 
Q 40.234375 -1.421875 26.90625 -1.421875 
Q 22.3125 -1.421875 17.546875 -0.640625 
Q 12.796875 0.140625 7.71875 1.703125 
L 7.71875 11.625 
Q 12.109375 9.234375 16.796875 8.0625 
Q 21.484375 6.890625 26.703125 6.890625 
Q 35.15625 6.890625 40.078125 11.328125 
Q 45.015625 15.765625 45.015625 23.390625 
Q 45.015625 31 40.078125 35.4375 
Q 35.15625 39.890625 26.703125 39.890625 
Q 22.75 39.890625 18.8125 39.015625 
Q 14.890625 38.140625 10.796875 36.28125 
z
" id="DejaVuSans-53"/>
      </defs>
      <g style="fill:#262626;" transform="translate(88.784343 205.897812)scale(0.05 -0.05)">
       <use xlink:href="#DejaVuSans-49"/>
       <use x="63.623047" xlink:href="#DejaVuSans-53"/>
       <use x="127.246094" xlink:href="#DejaVuSans-32"/>
       <use x="159.033203" xlink:href="#DejaVuSans-70"/>
       <use x="211.052734" xlink:href="#DejaVuSans-101"/>
       <use x="272.576172" xlink:href="#DejaVuSans-98"/>
      </g>
     </g>
    </g>
    <g id="xtick_3">
     <g id="line2d_5">
      <path clip-path="url(#pf5038934e9)" d="M 140.281641 198.598594 
L 140.281641 20.038594 
" style="fill:none;stroke:#f3f3f3;stroke-dasharray:0.5,0.825;stroke-dashoffset:0;stroke-width:0.5;"/>
     </g>
     <g id="line2d_6">
      <g>
       <use style="fill:#262626;stroke:#262626;stroke-width:0.5;" x="140.281641" xlink:href="#m789c099016" y="198.598594"/>
      </g>
     </g>
     <g id="text_3">
      <!-- 01 Mar -->
      <defs>
       <path d="M 9.8125 72.90625 
L 24.515625 72.90625 
L 43.109375 23.296875 
L 61.8125 72.90625 
L 76.515625 72.90625 
L 76.515625 0 
L 66.890625 0 
L 66.890625 64.015625 
L 48.09375 14.015625 
L 38.1875 14.015625 
L 19.390625 64.015625 
L 19.390625 0 
L 9.8125 0 
z
" id="DejaVuSans-77"/>
       <path d="M 34.28125 27.484375 
Q 23.390625 27.484375 19.1875 25 
Q 14.984375 22.515625 14.984375 16.5 
Q 14.984375 11.71875 18.140625 8.90625 
Q 21.296875 6.109375 26.703125 6.109375 
Q 34.1875 6.109375 38.703125 11.40625 
Q 43.21875 16.703125 43.21875 25.484375 
L 43.21875 27.484375 
z
M 52.203125 31.203125 
L 52.203125 0 
L 43.21875 0 
L 43.21875 8.296875 
Q 40.140625 3.328125 35.546875 0.953125 
Q 30.953125 -1.421875 24.3125 -1.421875 
Q 15.921875 -1.421875 10.953125 3.296875 
Q 6 8.015625 6 15.921875 
Q 6 25.140625 12.171875 29.828125 
Q 18.359375 34.515625 30.609375 34.515625 
L 43.21875 34.515625 
L 43.21875 35.40625 
Q 43.21875 41.609375 39.140625 45 
Q 35.0625 48.390625 27.6875 48.390625 
Q 23 48.390625 18.546875 47.265625 
Q 14.109375 46.140625 10.015625 43.890625 
L 10.015625 52.203125 
Q 14.9375 54.109375 19.578125 55.046875 
Q 24.21875 56 28.609375 56 
Q 40.484375 56 46.34375 49.84375 
Q 52.203125 43.703125 52.203125 31.203125 
z
" id="DejaVuSans-97"/>
       <path d="M 41.109375 46.296875 
Q 39.59375 47.171875 37.8125 47.578125 
Q 36.03125 48 33.890625 48 
Q 26.265625 48 22.1875 43.046875 
Q 18.109375 38.09375 18.109375 28.8125 
L 18.109375 0 
L 9.078125 0 
L 9.078125 54.6875 
L 18.109375 54.6875 
L 18.109375 46.1875 
Q 20.953125 51.171875 25.484375 53.578125 
Q 30.03125 56 36.53125 56 
Q 37.453125 56 38.578125 55.875 
Q 39.703125 55.765625 41.0625 55.515625 
z
" id="DejaVuSans-114"/>
      </defs>
      <g style="fill:#262626;" transform="translate(131.589063 205.897812)scale(0.05 -0.05)">
       <use xlink:href="#DejaVuSans-48"/>
       <use x="63.623047" xlink:href="#DejaVuSans-49"/>
       <use x="127.246094" xlink:href="#DejaVuSans-32"/>
       <use x="159.033203" xlink:href="#DejaVuSans-77"/>
       <use x="245.3125" xlink:href="#DejaVuSans-97"/>
       <use x="306.591797" xlink:href="#DejaVuSans-114"/>
      </g>
     </g>
    </g>
    <g id="xtick_4">
     <g id="line2d_7">
      <path clip-path="url(#pf5038934e9)" d="M 180.504328 198.598594 
L 180.504328 20.038594 
" style="fill:none;stroke:#f3f3f3;stroke-dasharray:0.5,0.825;stroke-dashoffset:0;stroke-width:0.5;"/>
     </g>
     <g id="line2d_8">
      <g>
       <use style="fill:#262626;stroke:#262626;stroke-width:0.5;" x="180.504328" xlink:href="#m789c099016" y="198.598594"/>
      </g>
     </g>
     <g id="text_4">
      <!-- 15 Mar -->
      <g style="fill:#262626;" transform="translate(171.81175 205.897812)scale(0.05 -0.05)">
       <use xlink:href="#DejaVuSans-49"/>
       <use x="63.623047" xlink:href="#DejaVuSans-53"/>
       <use x="127.246094" xlink:href="#DejaVuSans-32"/>
       <use x="159.033203" xlink:href="#DejaVuSans-77"/>
       <use x="245.3125" xlink:href="#DejaVuSans-97"/>
       <use x="306.591797" xlink:href="#DejaVuSans-114"/>
      </g>
     </g>
    </g>
    <g id="xtick_5">
     <g id="line2d_9">
      <path clip-path="url(#pf5038934e9)" d="M 229.346163 198.598594 
L 229.346163 20.038594 
" style="fill:none;stroke:#f3f3f3;stroke-dasharray:0.5,0.825;stroke-dashoffset:0;stroke-width:0.5;"/>
     </g>
     <g id="line2d_10">
      <g>
       <use style="fill:#262626;stroke:#262626;stroke-width:0.5;" x="229.346163" xlink:href="#m789c099016" y="198.598594"/>
      </g>
     </g>
     <g id="text_5">
      <!-- 01 Apr -->
      <defs>
       <path d="M 34.1875 63.1875 
L 20.796875 26.90625 
L 47.609375 26.90625 
z
M 28.609375 72.90625 
L 39.796875 72.90625 
L 67.578125 0 
L 57.328125 0 
L 50.6875 18.703125 
L 17.828125 18.703125 
L 11.1875 0 
L 0.78125 0 
z
" id="DejaVuSans-65"/>
       <path d="M 18.109375 8.203125 
L 18.109375 -20.796875 
L 9.078125 -20.796875 
L 9.078125 54.6875 
L 18.109375 54.6875 
L 18.109375 46.390625 
Q 20.953125 51.265625 25.265625 53.625 
Q 29.59375 56 35.59375 56 
Q 45.5625 56 51.78125 48.09375 
Q 58.015625 40.1875 58.015625 27.296875 
Q 58.015625 14.40625 51.78125 6.484375 
Q 45.5625 -1.421875 35.59375 -1.421875 
Q 29.59375 -1.421875 25.265625 0.953125 
Q 20.953125 3.328125 18.109375 8.203125 
z
M 48.6875 27.296875 
Q 48.6875 37.203125 44.609375 42.84375 
Q 40.53125 48.484375 33.40625 48.484375 
Q 26.265625 48.484375 22.1875 42.84375 
Q 18.109375 37.203125 18.109375 27.296875 
Q 18.109375 17.390625 22.1875 11.75 
Q 26.265625 6.109375 33.40625 6.109375 
Q 40.53125 6.109375 44.609375 11.75 
Q 48.6875 17.390625 48.6875 27.296875 
z
" id="DejaVuSans-112"/>
      </defs>
      <g style="fill:#262626;" transform="translate(221.045381 205.897812)scale(0.05 -0.05)">
       <use xlink:href="#DejaVuSans-48"/>
       <use x="63.623047" xlink:href="#DejaVuSans-49"/>
       <use x="127.246094" xlink:href="#DejaVuSans-32"/>
       <use x="159.033203" xlink:href="#DejaVuSans-65"/>
       <use x="227.441406" xlink:href="#DejaVuSans-112"/>
       <use x="290.917969" xlink:href="#DejaVuSans-114"/>
      </g>
     </g>
    </g>
    <g id="xtick_6">
     <g id="line2d_11">
      <path clip-path="url(#pf5038934e9)" d="M 269.56885 198.598594 
L 269.56885 20.038594 
" style="fill:none;stroke:#f3f3f3;stroke-dasharray:0.5,0.825;stroke-dashoffset:0;stroke-width:0.5;"/>
     </g>
     <g id="line2d_12">
      <g>
       <use style="fill:#262626;stroke:#262626;stroke-width:0.5;" x="269.56885" xlink:href="#m789c099016" y="198.598594"/>
      </g>
     </g>
     <g id="text_6">
      <!-- 15 Apr -->
      <g style="fill:#262626;" transform="translate(261.268068 205.897812)scale(0.05 -0.05)">
       <use xlink:href="#DejaVuSans-49"/>
       <use x="63.623047" xlink:href="#DejaVuSans-53"/>
       <use x="127.246094" xlink:href="#DejaVuSans-32"/>
       <use x="159.033203" xlink:href="#DejaVuSans-65"/>
       <use x="227.441406" xlink:href="#DejaVuSans-112"/>
       <use x="290.917969" xlink:href="#DejaVuSans-114"/>
      </g>
     </g>
    </g>
    <g id="xtick_7">
     <g id="line2d_13">
      <path clip-path="url(#pf5038934e9)" d="M 315.537635 198.598594 
L 315.537635 20.038594 
" style="fill:none;stroke:#f3f3f3;stroke-dasharray:0.5,0.825;stroke-dashoffset:0;stroke-width:0.5;"/>
     </g>
     <g id="line2d_14">
      <g>
       <use style="fill:#262626;stroke:#262626;stroke-width:0.5;" x="315.537635" xlink:href="#m789c099016" y="198.598594"/>
      </g>
     </g>
     <g id="text_7">
      <!-- 01 May -->
      <defs>
       <path d="M 32.171875 -5.078125 
Q 28.375 -14.84375 24.75 -17.8125 
Q 21.140625 -20.796875 15.09375 -20.796875 
L 7.90625 -20.796875 
L 7.90625 -13.28125 
L 13.1875 -13.28125 
Q 16.890625 -13.28125 18.9375 -11.515625 
Q 21 -9.765625 23.484375 -3.21875 
L 25.09375 0.875 
L 2.984375 54.6875 
L 12.5 54.6875 
L 29.59375 11.921875 
L 46.6875 54.6875 
L 56.203125 54.6875 
z
" id="DejaVuSans-121"/>
      </defs>
      <g style="fill:#262626;" transform="translate(306.393104 205.897812)scale(0.05 -0.05)">
       <use xlink:href="#DejaVuSans-48"/>
       <use x="63.623047" xlink:href="#DejaVuSans-49"/>
       <use x="127.246094" xlink:href="#DejaVuSans-32"/>
       <use x="159.033203" xlink:href="#DejaVuSans-77"/>
       <use x="245.3125" xlink:href="#DejaVuSans-97"/>
       <use x="306.591797" xlink:href="#DejaVuSans-121"/>
      </g>
     </g>
    </g>
    <g id="xtick_8">
     <g id="line2d_15">
      <path clip-path="url(#pf5038934e9)" d="M 352.887273 198.598594 
L 352.887273 20.038594 
" style="fill:none;stroke:#f3f3f3;stroke-dasharray:0.5,0.825;stroke-dashoffset:0;stroke-width:0.5;"/>
     </g>
     <g id="line2d_16">
      <g>
       <use style="fill:#262626;stroke:#262626;stroke-width:0.5;" x="352.887273" xlink:href="#m789c099016" y="198.598594"/>
      </g>
     </g>
     <g id="text_8">
      <!-- 14 May -->
      <defs>
       <path d="M 37.796875 64.3125 
L 12.890625 25.390625 
L 37.796875 25.390625 
z
M 35.203125 72.90625 
L 47.609375 72.90625 
L 47.609375 25.390625 
L 58.015625 25.390625 
L 58.015625 17.1875 
L 47.609375 17.1875 
L 47.609375 0 
L 37.796875 0 
L 37.796875 17.1875 
L 4.890625 17.1875 
L 4.890625 26.703125 
z
" id="DejaVuSans-52"/>
      </defs>
      <g style="fill:#262626;" transform="translate(343.742741 205.897812)scale(0.05 -0.05)">
       <use xlink:href="#DejaVuSans-49"/>
       <use x="63.623047" xlink:href="#DejaVuSans-52"/>
       <use x="127.246094" xlink:href="#DejaVuSans-32"/>
       <use x="159.033203" xlink:href="#DejaVuSans-77"/>
       <use x="245.3125" xlink:href="#DejaVuSans-97"/>
       <use x="306.591797" xlink:href="#DejaVuSans-121"/>
      </g>
     </g>
    </g>
   </g>
   <g id="line2d_17">
    <path clip-path="url(#pf5038934e9)" d="M 28.232727 190.48223 
L 31.105776 190.48223 
L 33.978825 190.48223 
L 36.851874 190.48223 
L 39.724924 190.48223 
L 42.597973 190.48223 
L 45.471022 190.48223 
L 48.344071 190.48223 
L 51.21712 190.48025 
L 54.090169 190.48025 
L 56.963218 190.48025 
L 59.836267 190.478271 
L 62.709316 190.476291 
L 65.582365 190.476291 
L 68.455414 190.476291 
L 71.328463 190.476291 
L 74.201512 190.476291 
L 77.074562 190.476291 
L 79.947611 190.476291 
L 82.82066 190.476291 
L 85.693709 190.476291 
L 88.566758 190.476291 
L 91.439807 190.476291 
L 94.312856 190.476291 
L 97.185905 190.476291 
L 100.058954 190.476291 
L 102.932003 190.476291 
L 105.805052 190.476291 
L 108.678101 190.476291 
L 111.55115 190.476291 
L 114.4242 190.476291 
L 117.297249 190.476291 
L 120.170298 190.476291 
L 123.043347 190.476291 
L 125.916396 190.476291 
L 128.789445 190.476291 
L 131.662494 190.476291 
L 134.535543 190.476291 
L 137.408592 190.476291 
L 140.281641 190.476291 
L 143.15469 190.472332 
L 146.027739 190.472332 
L 148.900788 190.426799 
L 151.773837 190.42284 
L 154.646887 190.42086 
L 157.519936 190.414921 
L 160.392985 190.405023 
L 163.266034 190.397104 
L 166.139083 190.371368 
L 169.012132 190.35949 
L 171.885181 190.337714 
L 174.75823 190.319897 
L 177.631279 190.280303 
L 180.504328 190.258527 
L 183.377377 190.246649 
L 186.250426 190.201117 
L 189.123475 190.173401 
L 191.996525 190.098173 
L 194.869574 189.99919 
L 197.742623 189.828938 
L 200.615672 189.698279 
L 203.488721 189.494373 
L 206.36177 189.421125 
L 209.234819 189.181585 
L 212.107868 189.043008 
L 214.980917 188.72626 
L 217.853966 188.528293 
L 220.727015 188.455045 
L 223.600064 188.005659 
L 226.473113 187.716626 
L 229.346163 186.526843 
L 232.219212 185.447921 
L 235.092261 185.400409 
L 237.96531 184.380877 
L 240.838359 183.379162 
L 243.711408 181.023351 
L 246.584457 179.968185 
L 249.457506 178.770483 
L 252.330555 177.168927 
L 255.203604 175.440672 
L 258.076653 173.761909 
L 260.949702 172.259337 
L 263.822751 169.788705 
L 266.6958 167.741723 
L 269.56885 166.088696 
L 272.441899 163.895218 
L 275.314948 162.069959 
L 278.187997 159.357806 
L 281.061046 155.610285 
L 283.934095 153.781067 
L 286.807144 150.73039 
L 289.680193 148.176611 
L 292.553242 144.797309 
L 295.426291 141.920844 
L 298.29934 138.450476 
L 301.172389 135.269141 
L 304.045438 132.178871 
L 306.918488 128.470943 
L 309.791537 125.030271 
L 312.664586 121.464879 
L 315.537635 116.725541 
L 318.410684 111.891179 
L 321.283733 106.336216 
L 324.156782 98.55214 
L 327.029831 92.686368 
L 329.90288 85.58528 
L 332.775929 78.925659 
L 335.648978 72.305632 
L 338.522027 66.142909 
L 341.395076 57.525391 
L 344.268126 50.384709 
L 347.141175 43.40834 
L 350.014224 35.95883 
L 352.887273 28.154957 
" style="fill:none;stroke:#ff0000;stroke-linecap:round;stroke-width:1.5;"/>
    <defs>
     <path d="M 0 1.5 
C 0.397805 1.5 0.77937 1.341951 1.06066 1.06066 
C 1.341951 0.77937 1.5 0.397805 1.5 0 
C 1.5 -0.397805 1.341951 -0.77937 1.06066 -1.06066 
C 0.77937 -1.341951 0.397805 -1.5 0 -1.5 
C -0.397805 -1.5 -0.77937 -1.341951 -1.06066 -1.06066 
C -1.341951 -0.77937 -1.5 -0.397805 -1.5 0 
C -1.5 0.397805 -1.341951 0.77937 -1.06066 1.06066 
C -0.77937 1.341951 -0.397805 1.5 0 1.5 
z
" id="m2c381e60ba" style="stroke:#ffffff;stroke-width:0.25;"/>
    </defs>
    <g clip-path="url(#pf5038934e9)">
     <use style="fill:#ff0000;stroke:#ffffff;stroke-width:0.25;" x="28.232727" xlink:href="#m2c381e60ba" y="190.48223"/>
     <use style="fill:#ff0000;stroke:#ffffff;stroke-width:0.25;" x="31.105776" xlink:href="#m2c381e60ba" y="190.48223"/>
     <use style="fill:#ff0000;stroke:#ffffff;stroke-width:0.25;" x="33.978825" xlink:href="#m2c381e60ba" y="190.48223"/>
     <use style="fill:#ff0000;stroke:#ffffff;stroke-width:0.25;" x="36.851874" xlink:href="#m2c381e60ba" y="190.48223"/>
     <use style="fill:#ff0000;stroke:#ffffff;stroke-width:0.25;" x="39.724924" xlink:href="#m2c381e60ba" y="190.48223"/>
     <use style="fill:#ff0000;stroke:#ffffff;stroke-width:0.25;" x="42.597973" xlink:href="#m2c381e60ba" y="190.48223"/>
     <use style="fill:#ff0000;stroke:#ffffff;stroke-width:0.25;" x="45.471022" xlink:href="#m2c381e60ba" y="190.48223"/>
     <use style="fill:#ff0000;stroke:#ffffff;stroke-width:0.25;" x="48.344071" xlink:href="#m2c381e60ba" y="190.48223"/>
     <use style="fill:#ff0000;stroke:#ffffff;stroke-width:0.25;" x="51.21712" xlink:href="#m2c381e60ba" y="190.48025"/>
     <use style="fill:#ff0000;stroke:#ffffff;stroke-width:0.25;" x="54.090169" xlink:href="#m2c381e60ba" y="190.48025"/>
     <use style="fill:#ff0000;stroke:#ffffff;stroke-width:0.25;" x="56.963218" xlink:href="#m2c381e60ba" y="190.48025"/>
     <use style="fill:#ff0000;stroke:#ffffff;stroke-width:0.25;" x="59.836267" xlink:href="#m2c381e60ba" y="190.478271"/>
     <use style="fill:#ff0000;stroke:#ffffff;stroke-width:0.25;" x="62.709316" xlink:href="#m2c381e60ba" y="190.476291"/>
     <use style="fill:#ff0000;stroke:#ffffff;stroke-width:0.25;" x="65.582365" xlink:href="#m2c381e60ba" y="190.476291"/>
     <use style="fill:#ff0000;stroke:#ffffff;stroke-width:0.25;" x="68.455414" xlink:href="#m2c381e60ba" y="190.476291"/>
     <use style="fill:#ff0000;stroke:#ffffff;stroke-width:0.25;" x="71.328463" xlink:href="#m2c381e60ba" y="190.476291"/>
     <use style="fill:#ff0000;stroke:#ffffff;stroke-width:0.25;" x="74.201512" xlink:href="#m2c381e60ba" y="190.476291"/>
     <use style="fill:#ff0000;stroke:#ffffff;stroke-width:0.25;" x="77.074562" xlink:href="#m2c381e60ba" y="190.476291"/>
     <use style="fill:#ff0000;stroke:#ffffff;stroke-width:0.25;" x="79.947611" xlink:href="#m2c381e60ba" y="190.476291"/>
     <use style="fill:#ff0000;stroke:#ffffff;stroke-width:0.25;" x="82.82066" xlink:href="#m2c381e60ba" y="190.476291"/>
     <use style="fill:#ff0000;stroke:#ffffff;stroke-width:0.25;" x="85.693709" xlink:href="#m2c381e60ba" y="190.476291"/>
     <use style="fill:#ff0000;stroke:#ffffff;stroke-width:0.25;" x="88.566758" xlink:href="#m2c381e60ba" y="190.476291"/>
     <use style="fill:#ff0000;stroke:#ffffff;stroke-width:0.25;" x="91.439807" xlink:href="#m2c381e60ba" y="190.476291"/>
     <use style="fill:#ff0000;stroke:#ffffff;stroke-width:0.25;" x="94.312856" xlink:href="#m2c381e60ba" y="190.476291"/>
     <use style="fill:#ff0000;stroke:#ffffff;stroke-width:0.25;" x="97.185905" xlink:href="#m2c381e60ba" y="190.476291"/>
     <use style="fill:#ff0000;stroke:#ffffff;stroke-width:0.25;" x="100.058954" xlink:href="#m2c381e60ba" y="190.476291"/>
     <use style="fill:#ff0000;stroke:#ffffff;stroke-width:0.25;" x="102.932003" xlink:href="#m2c381e60ba" y="190.476291"/>
     <use style="fill:#ff0000;stroke:#ffffff;stroke-width:0.25;" x="105.805052" xlink:href="#m2c381e60ba" y="190.476291"/>
     <use style="fill:#ff0000;stroke:#ffffff;stroke-width:0.25;" x="108.678101" xlink:href="#m2c381e60ba" y="190.476291"/>
     <use style="fill:#ff0000;stroke:#ffffff;stroke-width:0.25;" x="111.55115" xlink:href="#m2c381e60ba" y="190.476291"/>
     <use style="fill:#ff0000;stroke:#ffffff;stroke-width:0.25;" x="114.4242" xlink:href="#m2c381e60ba" y="190.476291"/>
     <use style="fill:#ff0000;stroke:#ffffff;stroke-width:0.25;" x="117.297249" xlink:href="#m2c381e60ba" y="190.476291"/>
     <use style="fill:#ff0000;stroke:#ffffff;stroke-width:0.25;" x="120.170298" xlink:href="#m2c381e60ba" y="190.476291"/>
     <use style="fill:#ff0000;stroke:#ffffff;stroke-width:0.25;" x="123.043347" xlink:href="#m2c381e60ba" y="190.476291"/>
     <use style="fill:#ff0000;stroke:#ffffff;stroke-width:0.25;" x="125.916396" xlink:href="#m2c381e60ba" y="190.476291"/>
     <use style="fill:#ff0000;stroke:#ffffff;stroke-width:0.25;" x="128.789445" xlink:href="#m2c381e60ba" y="190.476291"/>
     <use style="fill:#ff0000;stroke:#ffffff;stroke-width:0.25;" x="131.662494" xlink:href="#m2c381e60ba" y="190.476291"/>
     <use style="fill:#ff0000;stroke:#ffffff;stroke-width:0.25;" x="134.535543" xlink:href="#m2c381e60ba" y="190.476291"/>
     <use style="fill:#ff0000;stroke:#ffffff;stroke-width:0.25;" x="137.408592" xlink:href="#m2c381e60ba" y="190.476291"/>
     <use style="fill:#ff0000;stroke:#ffffff;stroke-width:0.25;" x="140.281641" xlink:href="#m2c381e60ba" y="190.476291"/>
     <use style="fill:#ff0000;stroke:#ffffff;stroke-width:0.25;" x="143.15469" xlink:href="#m2c381e60ba" y="190.472332"/>
     <use style="fill:#ff0000;stroke:#ffffff;stroke-width:0.25;" x="146.027739" xlink:href="#m2c381e60ba" y="190.472332"/>
     <use style="fill:#ff0000;stroke:#ffffff;stroke-width:0.25;" x="148.900788" xlink:href="#m2c381e60ba" y="190.426799"/>
     <use style="fill:#ff0000;stroke:#ffffff;stroke-width:0.25;" x="151.773837" xlink:href="#m2c381e60ba" y="190.42284"/>
     <use style="fill:#ff0000;stroke:#ffffff;stroke-width:0.25;" x="154.646887" xlink:href="#m2c381e60ba" y="190.42086"/>
     <use style="fill:#ff0000;stroke:#ffffff;stroke-width:0.25;" x="157.519936" xlink:href="#m2c381e60ba" y="190.414921"/>
     <use style="fill:#ff0000;stroke:#ffffff;stroke-width:0.25;" x="160.392985" xlink:href="#m2c381e60ba" y="190.405023"/>
     <use style="fill:#ff0000;stroke:#ffffff;stroke-width:0.25;" x="163.266034" xlink:href="#m2c381e60ba" y="190.397104"/>
     <use style="fill:#ff0000;stroke:#ffffff;stroke-width:0.25;" x="166.139083" xlink:href="#m2c381e60ba" y="190.371368"/>
     <use style="fill:#ff0000;stroke:#ffffff;stroke-width:0.25;" x="169.012132" xlink:href="#m2c381e60ba" y="190.35949"/>
     <use style="fill:#ff0000;stroke:#ffffff;stroke-width:0.25;" x="171.885181" xlink:href="#m2c381e60ba" y="190.337714"/>
     <use style="fill:#ff0000;stroke:#ffffff;stroke-width:0.25;" x="174.75823" xlink:href="#m2c381e60ba" y="190.319897"/>
     <use style="fill:#ff0000;stroke:#ffffff;stroke-width:0.25;" x="177.631279" xlink:href="#m2c381e60ba" y="190.280303"/>
     <use style="fill:#ff0000;stroke:#ffffff;stroke-width:0.25;" x="180.504328" xlink:href="#m2c381e60ba" y="190.258527"/>
     <use style="fill:#ff0000;stroke:#ffffff;stroke-width:0.25;" x="183.377377" xlink:href="#m2c381e60ba" y="190.246649"/>
     <use style="fill:#ff0000;stroke:#ffffff;stroke-width:0.25;" x="186.250426" xlink:href="#m2c381e60ba" y="190.201117"/>
     <use style="fill:#ff0000;stroke:#ffffff;stroke-width:0.25;" x="189.123475" xlink:href="#m2c381e60ba" y="190.173401"/>
     <use style="fill:#ff0000;stroke:#ffffff;stroke-width:0.25;" x="191.996525" xlink:href="#m2c381e60ba" y="190.098173"/>
     <use style="fill:#ff0000;stroke:#ffffff;stroke-width:0.25;" x="194.869574" xlink:href="#m2c381e60ba" y="189.99919"/>
     <use style="fill:#ff0000;stroke:#ffffff;stroke-width:0.25;" x="197.742623" xlink:href="#m2c381e60ba" y="189.828938"/>
     <use style="fill:#ff0000;stroke:#ffffff;stroke-width:0.25;" x="200.615672" xlink:href="#m2c381e60ba" y="189.698279"/>
     <use style="fill:#ff0000;stroke:#ffffff;stroke-width:0.25;" x="203.488721" xlink:href="#m2c381e60ba" y="189.494373"/>
     <use style="fill:#ff0000;stroke:#ffffff;stroke-width:0.25;" x="206.36177" xlink:href="#m2c381e60ba" y="189.421125"/>
     <use style="fill:#ff0000;stroke:#ffffff;stroke-width:0.25;" x="209.234819" xlink:href="#m2c381e60ba" y="189.181585"/>
     <use style="fill:#ff0000;stroke:#ffffff;stroke-width:0.25;" x="212.107868" xlink:href="#m2c381e60ba" y="189.043008"/>
     <use style="fill:#ff0000;stroke:#ffffff;stroke-width:0.25;" x="214.980917" xlink:href="#m2c381e60ba" y="188.72626"/>
     <use style="fill:#ff0000;stroke:#ffffff;stroke-width:0.25;" x="217.853966" xlink:href="#m2c381e60ba" y="188.528293"/>
     <use style="fill:#ff0000;stroke:#ffffff;stroke-width:0.25;" x="220.727015" xlink:href="#m2c381e60ba" y="188.455045"/>
     <use style="fill:#ff0000;stroke:#ffffff;stroke-width:0.25;" x="223.600064" xlink:href="#m2c381e60ba" y="188.005659"/>
     <use style="fill:#ff0000;stroke:#ffffff;stroke-width:0.25;" x="226.473113" xlink:href="#m2c381e60ba" y="187.716626"/>
     <use style="fill:#ff0000;stroke:#ffffff;stroke-width:0.25;" x="229.346163" xlink:href="#m2c381e60ba" y="186.526843"/>
     <use style="fill:#ff0000;stroke:#ffffff;stroke-width:0.25;" x="232.219212" xlink:href="#m2c381e60ba" y="185.447921"/>
     <use style="fill:#ff0000;stroke:#ffffff;stroke-width:0.25;" x="235.092261" xlink:href="#m2c381e60ba" y="185.400409"/>
     <use style="fill:#ff0000;stroke:#ffffff;stroke-width:0.25;" x="237.96531" xlink:href="#m2c381e60ba" y="184.380877"/>
     <use style="fill:#ff0000;stroke:#ffffff;stroke-width:0.25;" x="240.838359" xlink:href="#m2c381e60ba" y="183.379162"/>
     <use style="fill:#ff0000;stroke:#ffffff;stroke-width:0.25;" x="243.711408" xlink:href="#m2c381e60ba" y="181.023351"/>
     <use style="fill:#ff0000;stroke:#ffffff;stroke-width:0.25;" x="246.584457" xlink:href="#m2c381e60ba" y="179.968185"/>
     <use style="fill:#ff0000;stroke:#ffffff;stroke-width:0.25;" x="249.457506" xlink:href="#m2c381e60ba" y="178.770483"/>
     <use style="fill:#ff0000;stroke:#ffffff;stroke-width:0.25;" x="252.330555" xlink:href="#m2c381e60ba" y="177.168927"/>
     <use style="fill:#ff0000;stroke:#ffffff;stroke-width:0.25;" x="255.203604" xlink:href="#m2c381e60ba" y="175.440672"/>
     <use style="fill:#ff0000;stroke:#ffffff;stroke-width:0.25;" x="258.076653" xlink:href="#m2c381e60ba" y="173.761909"/>
     <use style="fill:#ff0000;stroke:#ffffff;stroke-width:0.25;" x="260.949702" xlink:href="#m2c381e60ba" y="172.259337"/>
     <use style="fill:#ff0000;stroke:#ffffff;stroke-width:0.25;" x="263.822751" xlink:href="#m2c381e60ba" y="169.788705"/>
     <use style="fill:#ff0000;stroke:#ffffff;stroke-width:0.25;" x="266.6958" xlink:href="#m2c381e60ba" y="167.741723"/>
     <use style="fill:#ff0000;stroke:#ffffff;stroke-width:0.25;" x="269.56885" xlink:href="#m2c381e60ba" y="166.088696"/>
     <use style="fill:#ff0000;stroke:#ffffff;stroke-width:0.25;" x="272.441899" xlink:href="#m2c381e60ba" y="163.895218"/>
     <use style="fill:#ff0000;stroke:#ffffff;stroke-width:0.25;" x="275.314948" xlink:href="#m2c381e60ba" y="162.069959"/>
     <use style="fill:#ff0000;stroke:#ffffff;stroke-width:0.25;" x="278.187997" xlink:href="#m2c381e60ba" y="159.357806"/>
     <use style="fill:#ff0000;stroke:#ffffff;stroke-width:0.25;" x="281.061046" xlink:href="#m2c381e60ba" y="155.610285"/>
     <use style="fill:#ff0000;stroke:#ffffff;stroke-width:0.25;" x="283.934095" xlink:href="#m2c381e60ba" y="153.781067"/>
     <use style="fill:#ff0000;stroke:#ffffff;stroke-width:0.25;" x="286.807144" xlink:href="#m2c381e60ba" y="150.73039"/>
     <use style="fill:#ff0000;stroke:#ffffff;stroke-width:0.25;" x="289.680193" xlink:href="#m2c381e60ba" y="148.176611"/>
     <use style="fill:#ff0000;stroke:#ffffff;stroke-width:0.25;" x="292.553242" xlink:href="#m2c381e60ba" y="144.797309"/>
     <use style="fill:#ff0000;stroke:#ffffff;stroke-width:0.25;" x="295.426291" xlink:href="#m2c381e60ba" y="141.920844"/>
     <use style="fill:#ff0000;stroke:#ffffff;stroke-width:0.25;" x="298.29934" xlink:href="#m2c381e60ba" y="138.450476"/>
     <use style="fill:#ff0000;stroke:#ffffff;stroke-width:0.25;" x="301.172389" xlink:href="#m2c381e60ba" y="135.269141"/>
     <use style="fill:#ff0000;stroke:#ffffff;stroke-width:0.25;" x="304.045438" xlink:href="#m2c381e60ba" y="132.178871"/>
     <use style="fill:#ff0000;stroke:#ffffff;stroke-width:0.25;" x="306.918488" xlink:href="#m2c381e60ba" y="128.470943"/>
     <use style="fill:#ff0000;stroke:#ffffff;stroke-width:0.25;" x="309.791537" xlink:href="#m2c381e60ba" y="125.030271"/>
     <use style="fill:#ff0000;stroke:#ffffff;stroke-width:0.25;" x="312.664586" xlink:href="#m2c381e60ba" y="121.464879"/>
     <use style="fill:#ff0000;stroke:#ffffff;stroke-width:0.25;" x="315.537635" xlink:href="#m2c381e60ba" y="116.725541"/>
     <use style="fill:#ff0000;stroke:#ffffff;stroke-width:0.25;" x="318.410684" xlink:href="#m2c381e60ba" y="111.891179"/>
     <use style="fill:#ff0000;stroke:#ffffff;stroke-width:0.25;" x="321.283733" xlink:href="#m2c381e60ba" y="106.336216"/>
     <use style="fill:#ff0000;stroke:#ffffff;stroke-width:0.25;" x="324.156782" xlink:href="#m2c381e60ba" y="98.55214"/>
     <use style="fill:#ff0000;stroke:#ffffff;stroke-width:0.25;" x="327.029831" xlink:href="#m2c381e60ba" y="92.686368"/>
     <use style="fill:#ff0000;stroke:#ffffff;stroke-width:0.25;" x="329.90288" xlink:href="#m2c381e60ba" y="85.58528"/>
     <use style="fill:#ff0000;stroke:#ffffff;stroke-width:0.25;" x="332.775929" xlink:href="#m2c381e60ba" y="78.925659"/>
     <use style="fill:#ff0000;stroke:#ffffff;stroke-width:0.25;" x="335.648978" xlink:href="#m2c381e60ba" y="72.305632"/>
     <use style="fill:#ff0000;stroke:#ffffff;stroke-width:0.25;" x="338.522027" xlink:href="#m2c381e60ba" y="66.142909"/>
     <use style="fill:#ff0000;stroke:#ffffff;stroke-width:0.25;" x="341.395076" xlink:href="#m2c381e60ba" y="57.525391"/>
     <use style="fill:#ff0000;stroke:#ffffff;stroke-width:0.25;" x="344.268126" xlink:href="#m2c381e60ba" y="50.384709"/>
     <use style="fill:#ff0000;stroke:#ffffff;stroke-width:0.25;" x="347.141175" xlink:href="#m2c381e60ba" y="43.40834"/>
     <use style="fill:#ff0000;stroke:#ffffff;stroke-width:0.25;" x="350.014224" xlink:href="#m2c381e60ba" y="35.95883"/>
     <use style="fill:#ff0000;stroke:#ffffff;stroke-width:0.25;" x="352.887273" xlink:href="#m2c381e60ba" y="28.154957"/>
    </g>
   </g>
   <g id="line2d_18">
    <path clip-path="url(#pf5038934e9)" d="M 28.232727 190.48223 
L 31.105776 190.48223 
L 33.978825 190.48223 
L 36.851874 190.48223 
L 39.724924 190.48223 
L 42.597973 190.48223 
L 45.471022 190.48223 
L 48.344071 190.48223 
L 51.21712 190.48223 
L 54.090169 190.48223 
L 56.963218 190.48223 
L 59.836267 190.48223 
L 62.709316 190.48223 
L 65.582365 190.48223 
L 68.455414 190.48223 
L 71.328463 190.48223 
L 74.201512 190.48223 
L 77.074562 190.48223 
L 79.947611 190.48223 
L 82.82066 190.48223 
L 85.693709 190.48223 
L 88.566758 190.48223 
L 91.439807 190.48223 
L 94.312856 190.48223 
L 97.185905 190.48223 
L 100.058954 190.476291 
L 102.932003 190.476291 
L 105.805052 190.476291 
L 108.678101 190.476291 
L 111.55115 190.476291 
L 114.4242 190.476291 
L 117.297249 190.476291 
L 120.170298 190.476291 
L 123.043347 190.476291 
L 125.916396 190.476291 
L 128.789445 190.476291 
L 131.662494 190.476291 
L 134.535543 190.476291 
L 137.408592 190.476291 
L 140.281641 190.476291 
L 143.15469 190.476291 
L 146.027739 190.476291 
L 148.900788 190.476291 
L 151.773837 190.476291 
L 154.646887 190.476291 
L 157.519936 190.476291 
L 160.392985 190.476291 
L 163.266034 190.476291 
L 166.139083 190.474311 
L 169.012132 190.474311 
L 171.885181 190.474311 
L 174.75823 190.474311 
L 177.631279 190.474311 
L 180.504328 190.456494 
L 183.377377 190.456494 
L 186.250426 190.454515 
L 189.123475 190.454515 
L 191.996525 190.452535 
L 194.869574 190.442637 
L 197.742623 190.436698 
L 200.615672 190.428779 
L 203.488721 190.428779 
L 206.36177 190.403043 
L 209.234819 190.397104 
L 212.107868 190.393145 
L 214.980917 190.337714 
L 217.853966 190.315938 
L 220.727015 190.294161 
L 223.600064 190.280303 
L 226.473113 190.23873 
L 229.346163 190.189238 
L 232.219212 190.104113 
L 235.092261 190.102133 
L 237.96531 190.028885 
L 240.838359 190.028885 
L 243.711408 189.739853 
L 246.584457 189.648788 
L 249.457506 189.480515 
L 252.330555 189.254833 
L 255.203604 188.949963 
L 258.076653 188.563927 
L 260.949702 188.344183 
L 263.822751 188.144236 
L 266.6958 187.791854 
L 269.56885 187.647338 
L 272.441899 186.982168 
L 275.314948 186.441717 
L 278.187997 185.606295 
L 281.061046 184.832242 
L 283.934095 184.002759 
L 286.807144 182.613029 
L 289.680193 181.831058 
L 292.553242 180.560107 
L 295.426291 179.597986 
L 298.29934 178.72495 
L 301.172389 177.568821 
L 304.045438 176.353302 
L 306.918488 175.145701 
L 309.791537 173.779726 
L 312.664586 172.530553 
L 315.537635 170.671639 
L 318.410684 169.064145 
L 321.283733 167.171577 
L 324.156782 165.049367 
L 327.029831 162.48569 
L 329.90288 160.131859 
L 332.775929 157.271231 
L 335.648978 155.071814 
L 338.522027 152.272555 
L 341.395076 148.97046 
L 344.268126 145.842577 
L 347.141175 142.138608 
L 350.014224 138.218855 
L 352.887273 135.112747 
" style="fill:none;stroke:#008000;stroke-linecap:round;stroke-width:1.5;"/>
    <defs>
     <path d="M -0 2.12132 
L 1.272792 0 
L 0 -2.12132 
L -1.272792 -0 
z
" id="m3f9f0f73b0" style="stroke:#ffffff;stroke-linejoin:miter;stroke-width:0.25;"/>
    </defs>
    <g clip-path="url(#pf5038934e9)">
     <use style="fill:#008000;stroke:#ffffff;stroke-linejoin:miter;stroke-width:0.25;" x="28.232727" xlink:href="#m3f9f0f73b0" y="190.48223"/>
     <use style="fill:#008000;stroke:#ffffff;stroke-linejoin:miter;stroke-width:0.25;" x="31.105776" xlink:href="#m3f9f0f73b0" y="190.48223"/>
     <use style="fill:#008000;stroke:#ffffff;stroke-linejoin:miter;stroke-width:0.25;" x="33.978825" xlink:href="#m3f9f0f73b0" y="190.48223"/>
     <use style="fill:#008000;stroke:#ffffff;stroke-linejoin:miter;stroke-width:0.25;" x="36.851874" xlink:href="#m3f9f0f73b0" y="190.48223"/>
     <use style="fill:#008000;stroke:#ffffff;stroke-linejoin:miter;stroke-width:0.25;" x="39.724924" xlink:href="#m3f9f0f73b0" y="190.48223"/>
     <use style="fill:#008000;stroke:#ffffff;stroke-linejoin:miter;stroke-width:0.25;" x="42.597973" xlink:href="#m3f9f0f73b0" y="190.48223"/>
     <use style="fill:#008000;stroke:#ffffff;stroke-linejoin:miter;stroke-width:0.25;" x="45.471022" xlink:href="#m3f9f0f73b0" y="190.48223"/>
     <use style="fill:#008000;stroke:#ffffff;stroke-linejoin:miter;stroke-width:0.25;" x="48.344071" xlink:href="#m3f9f0f73b0" y="190.48223"/>
     <use style="fill:#008000;stroke:#ffffff;stroke-linejoin:miter;stroke-width:0.25;" x="51.21712" xlink:href="#m3f9f0f73b0" y="190.48223"/>
     <use style="fill:#008000;stroke:#ffffff;stroke-linejoin:miter;stroke-width:0.25;" x="54.090169" xlink:href="#m3f9f0f73b0" y="190.48223"/>
     <use style="fill:#008000;stroke:#ffffff;stroke-linejoin:miter;stroke-width:0.25;" x="56.963218" xlink:href="#m3f9f0f73b0" y="190.48223"/>
     <use style="fill:#008000;stroke:#ffffff;stroke-linejoin:miter;stroke-width:0.25;" x="59.836267" xlink:href="#m3f9f0f73b0" y="190.48223"/>
     <use style="fill:#008000;stroke:#ffffff;stroke-linejoin:miter;stroke-width:0.25;" x="62.709316" xlink:href="#m3f9f0f73b0" y="190.48223"/>
     <use style="fill:#008000;stroke:#ffffff;stroke-linejoin:miter;stroke-width:0.25;" x="65.582365" xlink:href="#m3f9f0f73b0" y="190.48223"/>
     <use style="fill:#008000;stroke:#ffffff;stroke-linejoin:miter;stroke-width:0.25;" x="68.455414" xlink:href="#m3f9f0f73b0" y="190.48223"/>
     <use style="fill:#008000;stroke:#ffffff;stroke-linejoin:miter;stroke-width:0.25;" x="71.328463" xlink:href="#m3f9f0f73b0" y="190.48223"/>
     <use style="fill:#008000;stroke:#ffffff;stroke-linejoin:miter;stroke-width:0.25;" x="74.201512" xlink:href="#m3f9f0f73b0" y="190.48223"/>
     <use style="fill:#008000;stroke:#ffffff;stroke-linejoin:miter;stroke-width:0.25;" x="77.074562" xlink:href="#m3f9f0f73b0" y="190.48223"/>
     <use style="fill:#008000;stroke:#ffffff;stroke-linejoin:miter;stroke-width:0.25;" x="79.947611" xlink:href="#m3f9f0f73b0" y="190.48223"/>
     <use style="fill:#008000;stroke:#ffffff;stroke-linejoin:miter;stroke-width:0.25;" x="82.82066" xlink:href="#m3f9f0f73b0" y="190.48223"/>
     <use style="fill:#008000;stroke:#ffffff;stroke-linejoin:miter;stroke-width:0.25;" x="85.693709" xlink:href="#m3f9f0f73b0" y="190.48223"/>
     <use style="fill:#008000;stroke:#ffffff;stroke-linejoin:miter;stroke-width:0.25;" x="88.566758" xlink:href="#m3f9f0f73b0" y="190.48223"/>
     <use style="fill:#008000;stroke:#ffffff;stroke-linejoin:miter;stroke-width:0.25;" x="91.439807" xlink:href="#m3f9f0f73b0" y="190.48223"/>
     <use style="fill:#008000;stroke:#ffffff;stroke-linejoin:miter;stroke-width:0.25;" x="94.312856" xlink:href="#m3f9f0f73b0" y="190.48223"/>
     <use style="fill:#008000;stroke:#ffffff;stroke-linejoin:miter;stroke-width:0.25;" x="97.185905" xlink:href="#m3f9f0f73b0" y="190.48223"/>
     <use style="fill:#008000;stroke:#ffffff;stroke-linejoin:miter;stroke-width:0.25;" x="100.058954" xlink:href="#m3f9f0f73b0" y="190.476291"/>
     <use style="fill:#008000;stroke:#ffffff;stroke-linejoin:miter;stroke-width:0.25;" x="102.932003" xlink:href="#m3f9f0f73b0" y="190.476291"/>
     <use style="fill:#008000;stroke:#ffffff;stroke-linejoin:miter;stroke-width:0.25;" x="105.805052" xlink:href="#m3f9f0f73b0" y="190.476291"/>
     <use style="fill:#008000;stroke:#ffffff;stroke-linejoin:miter;stroke-width:0.25;" x="108.678101" xlink:href="#m3f9f0f73b0" y="190.476291"/>
     <use style="fill:#008000;stroke:#ffffff;stroke-linejoin:miter;stroke-width:0.25;" x="111.55115" xlink:href="#m3f9f0f73b0" y="190.476291"/>
     <use style="fill:#008000;stroke:#ffffff;stroke-linejoin:miter;stroke-width:0.25;" x="114.4242" xlink:href="#m3f9f0f73b0" y="190.476291"/>
     <use style="fill:#008000;stroke:#ffffff;stroke-linejoin:miter;stroke-width:0.25;" x="117.297249" xlink:href="#m3f9f0f73b0" y="190.476291"/>
     <use style="fill:#008000;stroke:#ffffff;stroke-linejoin:miter;stroke-width:0.25;" x="120.170298" xlink:href="#m3f9f0f73b0" y="190.476291"/>
     <use style="fill:#008000;stroke:#ffffff;stroke-linejoin:miter;stroke-width:0.25;" x="123.043347" xlink:href="#m3f9f0f73b0" y="190.476291"/>
     <use style="fill:#008000;stroke:#ffffff;stroke-linejoin:miter;stroke-width:0.25;" x="125.916396" xlink:href="#m3f9f0f73b0" y="190.476291"/>
     <use style="fill:#008000;stroke:#ffffff;stroke-linejoin:miter;stroke-width:0.25;" x="128.789445" xlink:href="#m3f9f0f73b0" y="190.476291"/>
     <use style="fill:#008000;stroke:#ffffff;stroke-linejoin:miter;stroke-width:0.25;" x="131.662494" xlink:href="#m3f9f0f73b0" y="190.476291"/>
     <use style="fill:#008000;stroke:#ffffff;stroke-linejoin:miter;stroke-width:0.25;" x="134.535543" xlink:href="#m3f9f0f73b0" y="190.476291"/>
     <use style="fill:#008000;stroke:#ffffff;stroke-linejoin:miter;stroke-width:0.25;" x="137.408592" xlink:href="#m3f9f0f73b0" y="190.476291"/>
     <use style="fill:#008000;stroke:#ffffff;stroke-linejoin:miter;stroke-width:0.25;" x="140.281641" xlink:href="#m3f9f0f73b0" y="190.476291"/>
     <use style="fill:#008000;stroke:#ffffff;stroke-linejoin:miter;stroke-width:0.25;" x="143.15469" xlink:href="#m3f9f0f73b0" y="190.476291"/>
     <use style="fill:#008000;stroke:#ffffff;stroke-linejoin:miter;stroke-width:0.25;" x="146.027739" xlink:href="#m3f9f0f73b0" y="190.476291"/>
     <use style="fill:#008000;stroke:#ffffff;stroke-linejoin:miter;stroke-width:0.25;" x="148.900788" xlink:href="#m3f9f0f73b0" y="190.476291"/>
     <use style="fill:#008000;stroke:#ffffff;stroke-linejoin:miter;stroke-width:0.25;" x="151.773837" xlink:href="#m3f9f0f73b0" y="190.476291"/>
     <use style="fill:#008000;stroke:#ffffff;stroke-linejoin:miter;stroke-width:0.25;" x="154.646887" xlink:href="#m3f9f0f73b0" y="190.476291"/>
     <use style="fill:#008000;stroke:#ffffff;stroke-linejoin:miter;stroke-width:0.25;" x="157.519936" xlink:href="#m3f9f0f73b0" y="190.476291"/>
     <use style="fill:#008000;stroke:#ffffff;stroke-linejoin:miter;stroke-width:0.25;" x="160.392985" xlink:href="#m3f9f0f73b0" y="190.476291"/>
     <use style="fill:#008000;stroke:#ffffff;stroke-linejoin:miter;stroke-width:0.25;" x="163.266034" xlink:href="#m3f9f0f73b0" y="190.476291"/>
     <use style="fill:#008000;stroke:#ffffff;stroke-linejoin:miter;stroke-width:0.25;" x="166.139083" xlink:href="#m3f9f0f73b0" y="190.474311"/>
     <use style="fill:#008000;stroke:#ffffff;stroke-linejoin:miter;stroke-width:0.25;" x="169.012132" xlink:href="#m3f9f0f73b0" y="190.474311"/>
     <use style="fill:#008000;stroke:#ffffff;stroke-linejoin:miter;stroke-width:0.25;" x="171.885181" xlink:href="#m3f9f0f73b0" y="190.474311"/>
     <use style="fill:#008000;stroke:#ffffff;stroke-linejoin:miter;stroke-width:0.25;" x="174.75823" xlink:href="#m3f9f0f73b0" y="190.474311"/>
     <use style="fill:#008000;stroke:#ffffff;stroke-linejoin:miter;stroke-width:0.25;" x="177.631279" xlink:href="#m3f9f0f73b0" y="190.474311"/>
     <use style="fill:#008000;stroke:#ffffff;stroke-linejoin:miter;stroke-width:0.25;" x="180.504328" xlink:href="#m3f9f0f73b0" y="190.456494"/>
     <use style="fill:#008000;stroke:#ffffff;stroke-linejoin:miter;stroke-width:0.25;" x="183.377377" xlink:href="#m3f9f0f73b0" y="190.456494"/>
     <use style="fill:#008000;stroke:#ffffff;stroke-linejoin:miter;stroke-width:0.25;" x="186.250426" xlink:href="#m3f9f0f73b0" y="190.454515"/>
     <use style="fill:#008000;stroke:#ffffff;stroke-linejoin:miter;stroke-width:0.25;" x="189.123475" xlink:href="#m3f9f0f73b0" y="190.454515"/>
     <use style="fill:#008000;stroke:#ffffff;stroke-linejoin:miter;stroke-width:0.25;" x="191.996525" xlink:href="#m3f9f0f73b0" y="190.452535"/>
     <use style="fill:#008000;stroke:#ffffff;stroke-linejoin:miter;stroke-width:0.25;" x="194.869574" xlink:href="#m3f9f0f73b0" y="190.442637"/>
     <use style="fill:#008000;stroke:#ffffff;stroke-linejoin:miter;stroke-width:0.25;" x="197.742623" xlink:href="#m3f9f0f73b0" y="190.436698"/>
     <use style="fill:#008000;stroke:#ffffff;stroke-linejoin:miter;stroke-width:0.25;" x="200.615672" xlink:href="#m3f9f0f73b0" y="190.428779"/>
     <use style="fill:#008000;stroke:#ffffff;stroke-linejoin:miter;stroke-width:0.25;" x="203.488721" xlink:href="#m3f9f0f73b0" y="190.428779"/>
     <use style="fill:#008000;stroke:#ffffff;stroke-linejoin:miter;stroke-width:0.25;" x="206.36177" xlink:href="#m3f9f0f73b0" y="190.403043"/>
     <use style="fill:#008000;stroke:#ffffff;stroke-linejoin:miter;stroke-width:0.25;" x="209.234819" xlink:href="#m3f9f0f73b0" y="190.397104"/>
     <use style="fill:#008000;stroke:#ffffff;stroke-linejoin:miter;stroke-width:0.25;" x="212.107868" xlink:href="#m3f9f0f73b0" y="190.393145"/>
     <use style="fill:#008000;stroke:#ffffff;stroke-linejoin:miter;stroke-width:0.25;" x="214.980917" xlink:href="#m3f9f0f73b0" y="190.337714"/>
     <use style="fill:#008000;stroke:#ffffff;stroke-linejoin:miter;stroke-width:0.25;" x="217.853966" xlink:href="#m3f9f0f73b0" y="190.315938"/>
     <use style="fill:#008000;stroke:#ffffff;stroke-linejoin:miter;stroke-width:0.25;" x="220.727015" xlink:href="#m3f9f0f73b0" y="190.294161"/>
     <use style="fill:#008000;stroke:#ffffff;stroke-linejoin:miter;stroke-width:0.25;" x="223.600064" xlink:href="#m3f9f0f73b0" y="190.280303"/>
     <use style="fill:#008000;stroke:#ffffff;stroke-linejoin:miter;stroke-width:0.25;" x="226.473113" xlink:href="#m3f9f0f73b0" y="190.23873"/>
     <use style="fill:#008000;stroke:#ffffff;stroke-linejoin:miter;stroke-width:0.25;" x="229.346163" xlink:href="#m3f9f0f73b0" y="190.189238"/>
     <use style="fill:#008000;stroke:#ffffff;stroke-linejoin:miter;stroke-width:0.25;" x="232.219212" xlink:href="#m3f9f0f73b0" y="190.104113"/>
     <use style="fill:#008000;stroke:#ffffff;stroke-linejoin:miter;stroke-width:0.25;" x="235.092261" xlink:href="#m3f9f0f73b0" y="190.102133"/>
     <use style="fill:#008000;stroke:#ffffff;stroke-linejoin:miter;stroke-width:0.25;" x="237.96531" xlink:href="#m3f9f0f73b0" y="190.028885"/>
     <use style="fill:#008000;stroke:#ffffff;stroke-linejoin:miter;stroke-width:0.25;" x="240.838359" xlink:href="#m3f9f0f73b0" y="190.028885"/>
     <use style="fill:#008000;stroke:#ffffff;stroke-linejoin:miter;stroke-width:0.25;" x="243.711408" xlink:href="#m3f9f0f73b0" y="189.739853"/>
     <use style="fill:#008000;stroke:#ffffff;stroke-linejoin:miter;stroke-width:0.25;" x="246.584457" xlink:href="#m3f9f0f73b0" y="189.648788"/>
     <use style="fill:#008000;stroke:#ffffff;stroke-linejoin:miter;stroke-width:0.25;" x="249.457506" xlink:href="#m3f9f0f73b0" y="189.480515"/>
     <use style="fill:#008000;stroke:#ffffff;stroke-linejoin:miter;stroke-width:0.25;" x="252.330555" xlink:href="#m3f9f0f73b0" y="189.254833"/>
     <use style="fill:#008000;stroke:#ffffff;stroke-linejoin:miter;stroke-width:0.25;" x="255.203604" xlink:href="#m3f9f0f73b0" y="188.949963"/>
     <use style="fill:#008000;stroke:#ffffff;stroke-linejoin:miter;stroke-width:0.25;" x="258.076653" xlink:href="#m3f9f0f73b0" y="188.563927"/>
     <use style="fill:#008000;stroke:#ffffff;stroke-linejoin:miter;stroke-width:0.25;" x="260.949702" xlink:href="#m3f9f0f73b0" y="188.344183"/>
     <use style="fill:#008000;stroke:#ffffff;stroke-linejoin:miter;stroke-width:0.25;" x="263.822751" xlink:href="#m3f9f0f73b0" y="188.144236"/>
     <use style="fill:#008000;stroke:#ffffff;stroke-linejoin:miter;stroke-width:0.25;" x="266.6958" xlink:href="#m3f9f0f73b0" y="187.791854"/>
     <use style="fill:#008000;stroke:#ffffff;stroke-linejoin:miter;stroke-width:0.25;" x="269.56885" xlink:href="#m3f9f0f73b0" y="187.647338"/>
     <use style="fill:#008000;stroke:#ffffff;stroke-linejoin:miter;stroke-width:0.25;" x="272.441899" xlink:href="#m3f9f0f73b0" y="186.982168"/>
     <use style="fill:#008000;stroke:#ffffff;stroke-linejoin:miter;stroke-width:0.25;" x="275.314948" xlink:href="#m3f9f0f73b0" y="186.441717"/>
     <use style="fill:#008000;stroke:#ffffff;stroke-linejoin:miter;stroke-width:0.25;" x="278.187997" xlink:href="#m3f9f0f73b0" y="185.606295"/>
     <use style="fill:#008000;stroke:#ffffff;stroke-linejoin:miter;stroke-width:0.25;" x="281.061046" xlink:href="#m3f9f0f73b0" y="184.832242"/>
     <use style="fill:#008000;stroke:#ffffff;stroke-linejoin:miter;stroke-width:0.25;" x="283.934095" xlink:href="#m3f9f0f73b0" y="184.002759"/>
     <use style="fill:#008000;stroke:#ffffff;stroke-linejoin:miter;stroke-width:0.25;" x="286.807144" xlink:href="#m3f9f0f73b0" y="182.613029"/>
     <use style="fill:#008000;stroke:#ffffff;stroke-linejoin:miter;stroke-width:0.25;" x="289.680193" xlink:href="#m3f9f0f73b0" y="181.831058"/>
     <use style="fill:#008000;stroke:#ffffff;stroke-linejoin:miter;stroke-width:0.25;" x="292.553242" xlink:href="#m3f9f0f73b0" y="180.560107"/>
     <use style="fill:#008000;stroke:#ffffff;stroke-linejoin:miter;stroke-width:0.25;" x="295.426291" xlink:href="#m3f9f0f73b0" y="179.597986"/>
     <use style="fill:#008000;stroke:#ffffff;stroke-linejoin:miter;stroke-width:0.25;" x="298.29934" xlink:href="#m3f9f0f73b0" y="178.72495"/>
     <use style="fill:#008000;stroke:#ffffff;stroke-linejoin:miter;stroke-width:0.25;" x="301.172389" xlink:href="#m3f9f0f73b0" y="177.568821"/>
     <use style="fill:#008000;stroke:#ffffff;stroke-linejoin:miter;stroke-width:0.25;" x="304.045438" xlink:href="#m3f9f0f73b0" y="176.353302"/>
     <use style="fill:#008000;stroke:#ffffff;stroke-linejoin:miter;stroke-width:0.25;" x="306.918488" xlink:href="#m3f9f0f73b0" y="175.145701"/>
     <use style="fill:#008000;stroke:#ffffff;stroke-linejoin:miter;stroke-width:0.25;" x="309.791537" xlink:href="#m3f9f0f73b0" y="173.779726"/>
     <use style="fill:#008000;stroke:#ffffff;stroke-linejoin:miter;stroke-width:0.25;" x="312.664586" xlink:href="#m3f9f0f73b0" y="172.530553"/>
     <use style="fill:#008000;stroke:#ffffff;stroke-linejoin:miter;stroke-width:0.25;" x="315.537635" xlink:href="#m3f9f0f73b0" y="170.671639"/>
     <use style="fill:#008000;stroke:#ffffff;stroke-linejoin:miter;stroke-width:0.25;" x="318.410684" xlink:href="#m3f9f0f73b0" y="169.064145"/>
     <use style="fill:#008000;stroke:#ffffff;stroke-linejoin:miter;stroke-width:0.25;" x="321.283733" xlink:href="#m3f9f0f73b0" y="167.171577"/>
     <use style="fill:#008000;stroke:#ffffff;stroke-linejoin:miter;stroke-width:0.25;" x="324.156782" xlink:href="#m3f9f0f73b0" y="165.049367"/>
     <use style="fill:#008000;stroke:#ffffff;stroke-linejoin:miter;stroke-width:0.25;" x="327.029831" xlink:href="#m3f9f0f73b0" y="162.48569"/>
     <use style="fill:#008000;stroke:#ffffff;stroke-linejoin:miter;stroke-width:0.25;" x="329.90288" xlink:href="#m3f9f0f73b0" y="160.131859"/>
     <use style="fill:#008000;stroke:#ffffff;stroke-linejoin:miter;stroke-width:0.25;" x="332.775929" xlink:href="#m3f9f0f73b0" y="157.271231"/>
     <use style="fill:#008000;stroke:#ffffff;stroke-linejoin:miter;stroke-width:0.25;" x="335.648978" xlink:href="#m3f9f0f73b0" y="155.071814"/>
     <use style="fill:#008000;stroke:#ffffff;stroke-linejoin:miter;stroke-width:0.25;" x="338.522027" xlink:href="#m3f9f0f73b0" y="152.272555"/>
     <use style="fill:#008000;stroke:#ffffff;stroke-linejoin:miter;stroke-width:0.25;" x="341.395076" xlink:href="#m3f9f0f73b0" y="148.97046"/>
     <use style="fill:#008000;stroke:#ffffff;stroke-linejoin:miter;stroke-width:0.25;" x="344.268126" xlink:href="#m3f9f0f73b0" y="145.842577"/>
     <use style="fill:#008000;stroke:#ffffff;stroke-linejoin:miter;stroke-width:0.25;" x="347.141175" xlink:href="#m3f9f0f73b0" y="142.138608"/>
     <use style="fill:#008000;stroke:#ffffff;stroke-linejoin:miter;stroke-width:0.25;" x="350.014224" xlink:href="#m3f9f0f73b0" y="138.218855"/>
     <use style="fill:#008000;stroke:#ffffff;stroke-linejoin:miter;stroke-width:0.25;" x="352.887273" xlink:href="#m3f9f0f73b0" y="135.112747"/>
    </g>
   </g>
   <g id="line2d_19">
    <path clip-path="url(#pf5038934e9)" d="M 28.232727 190.48223 
L 31.105776 190.48223 
L 33.978825 190.48223 
L 36.851874 190.48223 
L 39.724924 190.48223 
L 42.597973 190.48223 
L 45.471022 190.48223 
L 48.344071 190.48223 
L 51.21712 190.48223 
L 54.090169 190.48223 
L 56.963218 190.48223 
L 59.836267 190.48223 
L 62.709316 190.48223 
L 65.582365 190.48223 
L 68.455414 190.48223 
L 71.328463 190.48223 
L 74.201512 190.48223 
L 77.074562 190.48223 
L 79.947611 190.48223 
L 82.82066 190.48223 
L 85.693709 190.48223 
L 88.566758 190.48223 
L 91.439807 190.48223 
L 94.312856 190.48223 
L 97.185905 190.48223 
L 100.058954 190.48223 
L 102.932003 190.48223 
L 105.805052 190.48223 
L 108.678101 190.48223 
L 111.55115 190.48223 
L 114.4242 190.48223 
L 117.297249 190.48223 
L 120.170298 190.48223 
L 123.043347 190.48223 
L 125.916396 190.48223 
L 128.789445 190.48223 
L 131.662494 190.48223 
L 134.535543 190.48223 
L 137.408592 190.48223 
L 140.281641 190.48223 
L 143.15469 190.48223 
L 146.027739 190.48223 
L 148.900788 190.48223 
L 151.773837 190.48223 
L 154.646887 190.48223 
L 157.519936 190.48223 
L 160.392985 190.48223 
L 163.266034 190.48223 
L 166.139083 190.48223 
L 169.012132 190.48025 
L 171.885181 190.48025 
L 174.75823 190.478271 
L 177.631279 190.478271 
L 180.504328 190.478271 
L 183.377377 190.478271 
L 186.250426 190.476291 
L 189.123475 190.476291 
L 191.996525 190.474311 
L 194.869574 190.472332 
L 197.742623 190.474311 
L 200.615672 190.468372 
L 203.488721 190.462433 
L 206.36177 190.462433 
L 209.234819 190.458474 
L 212.107868 190.442637 
L 214.980917 190.442637 
L 217.853966 190.434718 
L 220.727015 190.428779 
L 223.600064 190.418881 
L 226.473113 190.412942 
L 229.346163 190.367409 
L 232.219212 190.339694 
L 235.092261 190.339694 
L 237.96531 190.311978 
L 240.838359 190.286242 
L 243.711408 190.212995 
L 246.584457 190.185279 
L 249.457506 190.129848 
L 252.330555 190.034824 
L 255.203604 189.99523 
L 258.076653 189.912084 
L 260.949702 189.826958 
L 263.822751 189.773507 
L 266.6958 189.704219 
L 269.56885 189.680462 
L 272.441899 189.595336 
L 275.314948 189.520109 
L 278.187997 189.45082 
L 281.061046 189.375593 
L 283.934095 189.310264 
L 286.807144 189.205341 
L 289.680193 189.134073 
L 292.553242 189.054886 
L 295.426291 188.938085 
L 298.29934 188.849 
L 301.172389 188.738138 
L 304.045438 188.623317 
L 306.918488 188.486719 
L 309.791537 188.346163 
L 312.664586 188.197687 
L 315.537635 188.06109 
L 318.410684 187.863122 
L 321.283733 187.728505 
L 324.156782 187.382062 
L 327.029831 187.130643 
L 329.90288 186.948513 
L 332.775929 186.742627 
L 335.648978 186.552579 
L 338.522027 186.322936 
L 341.395076 186.103193 
L 344.268126 185.94086 
L 347.141175 185.701319 
L 350.014224 185.432083 
L 352.887273 185.238076 
" style="fill:none;stroke:#808080;stroke-linecap:round;stroke-width:1.5;"/>
    <defs>
     <path d="M -0.75 1.5 
L 0 0.75 
L 0.75 1.5 
L 1.5 0.75 
L 0.75 0 
L 1.5 -0.75 
L 0.75 -1.5 
L 0 -0.75 
L -0.75 -1.5 
L -1.5 -0.75 
L -0.75 0 
L -1.5 0.75 
z
" id="m37fa84caf4" style="stroke:#ffffff;stroke-linejoin:miter;stroke-width:0.25;"/>
    </defs>
    <g clip-path="url(#pf5038934e9)">
     <use style="fill:#808080;stroke:#ffffff;stroke-linejoin:miter;stroke-width:0.25;" x="28.232727" xlink:href="#m37fa84caf4" y="190.48223"/>
     <use style="fill:#808080;stroke:#ffffff;stroke-linejoin:miter;stroke-width:0.25;" x="31.105776" xlink:href="#m37fa84caf4" y="190.48223"/>
     <use style="fill:#808080;stroke:#ffffff;stroke-linejoin:miter;stroke-width:0.25;" x="33.978825" xlink:href="#m37fa84caf4" y="190.48223"/>
     <use style="fill:#808080;stroke:#ffffff;stroke-linejoin:miter;stroke-width:0.25;" x="36.851874" xlink:href="#m37fa84caf4" y="190.48223"/>
     <use style="fill:#808080;stroke:#ffffff;stroke-linejoin:miter;stroke-width:0.25;" x="39.724924" xlink:href="#m37fa84caf4" y="190.48223"/>
     <use style="fill:#808080;stroke:#ffffff;stroke-linejoin:miter;stroke-width:0.25;" x="42.597973" xlink:href="#m37fa84caf4" y="190.48223"/>
     <use style="fill:#808080;stroke:#ffffff;stroke-linejoin:miter;stroke-width:0.25;" x="45.471022" xlink:href="#m37fa84caf4" y="190.48223"/>
     <use style="fill:#808080;stroke:#ffffff;stroke-linejoin:miter;stroke-width:0.25;" x="48.344071" xlink:href="#m37fa84caf4" y="190.48223"/>
     <use style="fill:#808080;stroke:#ffffff;stroke-linejoin:miter;stroke-width:0.25;" x="51.21712" xlink:href="#m37fa84caf4" y="190.48223"/>
     <use style="fill:#808080;stroke:#ffffff;stroke-linejoin:miter;stroke-width:0.25;" x="54.090169" xlink:href="#m37fa84caf4" y="190.48223"/>
     <use style="fill:#808080;stroke:#ffffff;stroke-linejoin:miter;stroke-width:0.25;" x="56.963218" xlink:href="#m37fa84caf4" y="190.48223"/>
     <use style="fill:#808080;stroke:#ffffff;stroke-linejoin:miter;stroke-width:0.25;" x="59.836267" xlink:href="#m37fa84caf4" y="190.48223"/>
     <use style="fill:#808080;stroke:#ffffff;stroke-linejoin:miter;stroke-width:0.25;" x="62.709316" xlink:href="#m37fa84caf4" y="190.48223"/>
     <use style="fill:#808080;stroke:#ffffff;stroke-linejoin:miter;stroke-width:0.25;" x="65.582365" xlink:href="#m37fa84caf4" y="190.48223"/>
     <use style="fill:#808080;stroke:#ffffff;stroke-linejoin:miter;stroke-width:0.25;" x="68.455414" xlink:href="#m37fa84caf4" y="190.48223"/>
     <use style="fill:#808080;stroke:#ffffff;stroke-linejoin:miter;stroke-width:0.25;" x="71.328463" xlink:href="#m37fa84caf4" y="190.48223"/>
     <use style="fill:#808080;stroke:#ffffff;stroke-linejoin:miter;stroke-width:0.25;" x="74.201512" xlink:href="#m37fa84caf4" y="190.48223"/>
     <use style="fill:#808080;stroke:#ffffff;stroke-linejoin:miter;stroke-width:0.25;" x="77.074562" xlink:href="#m37fa84caf4" y="190.48223"/>
     <use style="fill:#808080;stroke:#ffffff;stroke-linejoin:miter;stroke-width:0.25;" x="79.947611" xlink:href="#m37fa84caf4" y="190.48223"/>
     <use style="fill:#808080;stroke:#ffffff;stroke-linejoin:miter;stroke-width:0.25;" x="82.82066" xlink:href="#m37fa84caf4" y="190.48223"/>
     <use style="fill:#808080;stroke:#ffffff;stroke-linejoin:miter;stroke-width:0.25;" x="85.693709" xlink:href="#m37fa84caf4" y="190.48223"/>
     <use style="fill:#808080;stroke:#ffffff;stroke-linejoin:miter;stroke-width:0.25;" x="88.566758" xlink:href="#m37fa84caf4" y="190.48223"/>
     <use style="fill:#808080;stroke:#ffffff;stroke-linejoin:miter;stroke-width:0.25;" x="91.439807" xlink:href="#m37fa84caf4" y="190.48223"/>
     <use style="fill:#808080;stroke:#ffffff;stroke-linejoin:miter;stroke-width:0.25;" x="94.312856" xlink:href="#m37fa84caf4" y="190.48223"/>
     <use style="fill:#808080;stroke:#ffffff;stroke-linejoin:miter;stroke-width:0.25;" x="97.185905" xlink:href="#m37fa84caf4" y="190.48223"/>
     <use style="fill:#808080;stroke:#ffffff;stroke-linejoin:miter;stroke-width:0.25;" x="100.058954" xlink:href="#m37fa84caf4" y="190.48223"/>
     <use style="fill:#808080;stroke:#ffffff;stroke-linejoin:miter;stroke-width:0.25;" x="102.932003" xlink:href="#m37fa84caf4" y="190.48223"/>
     <use style="fill:#808080;stroke:#ffffff;stroke-linejoin:miter;stroke-width:0.25;" x="105.805052" xlink:href="#m37fa84caf4" y="190.48223"/>
     <use style="fill:#808080;stroke:#ffffff;stroke-linejoin:miter;stroke-width:0.25;" x="108.678101" xlink:href="#m37fa84caf4" y="190.48223"/>
     <use style="fill:#808080;stroke:#ffffff;stroke-linejoin:miter;stroke-width:0.25;" x="111.55115" xlink:href="#m37fa84caf4" y="190.48223"/>
     <use style="fill:#808080;stroke:#ffffff;stroke-linejoin:miter;stroke-width:0.25;" x="114.4242" xlink:href="#m37fa84caf4" y="190.48223"/>
     <use style="fill:#808080;stroke:#ffffff;stroke-linejoin:miter;stroke-width:0.25;" x="117.297249" xlink:href="#m37fa84caf4" y="190.48223"/>
     <use style="fill:#808080;stroke:#ffffff;stroke-linejoin:miter;stroke-width:0.25;" x="120.170298" xlink:href="#m37fa84caf4" y="190.48223"/>
     <use style="fill:#808080;stroke:#ffffff;stroke-linejoin:miter;stroke-width:0.25;" x="123.043347" xlink:href="#m37fa84caf4" y="190.48223"/>
     <use style="fill:#808080;stroke:#ffffff;stroke-linejoin:miter;stroke-width:0.25;" x="125.916396" xlink:href="#m37fa84caf4" y="190.48223"/>
     <use style="fill:#808080;stroke:#ffffff;stroke-linejoin:miter;stroke-width:0.25;" x="128.789445" xlink:href="#m37fa84caf4" y="190.48223"/>
     <use style="fill:#808080;stroke:#ffffff;stroke-linejoin:miter;stroke-width:0.25;" x="131.662494" xlink:href="#m37fa84caf4" y="190.48223"/>
     <use style="fill:#808080;stroke:#ffffff;stroke-linejoin:miter;stroke-width:0.25;" x="134.535543" xlink:href="#m37fa84caf4" y="190.48223"/>
     <use style="fill:#808080;stroke:#ffffff;stroke-linejoin:miter;stroke-width:0.25;" x="137.408592" xlink:href="#m37fa84caf4" y="190.48223"/>
     <use style="fill:#808080;stroke:#ffffff;stroke-linejoin:miter;stroke-width:0.25;" x="140.281641" xlink:href="#m37fa84caf4" y="190.48223"/>
     <use style="fill:#808080;stroke:#ffffff;stroke-linejoin:miter;stroke-width:0.25;" x="143.15469" xlink:href="#m37fa84caf4" y="190.48223"/>
     <use style="fill:#808080;stroke:#ffffff;stroke-linejoin:miter;stroke-width:0.25;" x="146.027739" xlink:href="#m37fa84caf4" y="190.48223"/>
     <use style="fill:#808080;stroke:#ffffff;stroke-linejoin:miter;stroke-width:0.25;" x="148.900788" xlink:href="#m37fa84caf4" y="190.48223"/>
     <use style="fill:#808080;stroke:#ffffff;stroke-linejoin:miter;stroke-width:0.25;" x="151.773837" xlink:href="#m37fa84caf4" y="190.48223"/>
     <use style="fill:#808080;stroke:#ffffff;stroke-linejoin:miter;stroke-width:0.25;" x="154.646887" xlink:href="#m37fa84caf4" y="190.48223"/>
     <use style="fill:#808080;stroke:#ffffff;stroke-linejoin:miter;stroke-width:0.25;" x="157.519936" xlink:href="#m37fa84caf4" y="190.48223"/>
     <use style="fill:#808080;stroke:#ffffff;stroke-linejoin:miter;stroke-width:0.25;" x="160.392985" xlink:href="#m37fa84caf4" y="190.48223"/>
     <use style="fill:#808080;stroke:#ffffff;stroke-linejoin:miter;stroke-width:0.25;" x="163.266034" xlink:href="#m37fa84caf4" y="190.48223"/>
     <use style="fill:#808080;stroke:#ffffff;stroke-linejoin:miter;stroke-width:0.25;" x="166.139083" xlink:href="#m37fa84caf4" y="190.48223"/>
     <use style="fill:#808080;stroke:#ffffff;stroke-linejoin:miter;stroke-width:0.25;" x="169.012132" xlink:href="#m37fa84caf4" y="190.48025"/>
     <use style="fill:#808080;stroke:#ffffff;stroke-linejoin:miter;stroke-width:0.25;" x="171.885181" xlink:href="#m37fa84caf4" y="190.48025"/>
     <use style="fill:#808080;stroke:#ffffff;stroke-linejoin:miter;stroke-width:0.25;" x="174.75823" xlink:href="#m37fa84caf4" y="190.478271"/>
     <use style="fill:#808080;stroke:#ffffff;stroke-linejoin:miter;stroke-width:0.25;" x="177.631279" xlink:href="#m37fa84caf4" y="190.478271"/>
     <use style="fill:#808080;stroke:#ffffff;stroke-linejoin:miter;stroke-width:0.25;" x="180.504328" xlink:href="#m37fa84caf4" y="190.478271"/>
     <use style="fill:#808080;stroke:#ffffff;stroke-linejoin:miter;stroke-width:0.25;" x="183.377377" xlink:href="#m37fa84caf4" y="190.478271"/>
     <use style="fill:#808080;stroke:#ffffff;stroke-linejoin:miter;stroke-width:0.25;" x="186.250426" xlink:href="#m37fa84caf4" y="190.476291"/>
     <use style="fill:#808080;stroke:#ffffff;stroke-linejoin:miter;stroke-width:0.25;" x="189.123475" xlink:href="#m37fa84caf4" y="190.476291"/>
     <use style="fill:#808080;stroke:#ffffff;stroke-linejoin:miter;stroke-width:0.25;" x="191.996525" xlink:href="#m37fa84caf4" y="190.474311"/>
     <use style="fill:#808080;stroke:#ffffff;stroke-linejoin:miter;stroke-width:0.25;" x="194.869574" xlink:href="#m37fa84caf4" y="190.472332"/>
     <use style="fill:#808080;stroke:#ffffff;stroke-linejoin:miter;stroke-width:0.25;" x="197.742623" xlink:href="#m37fa84caf4" y="190.474311"/>
     <use style="fill:#808080;stroke:#ffffff;stroke-linejoin:miter;stroke-width:0.25;" x="200.615672" xlink:href="#m37fa84caf4" y="190.468372"/>
     <use style="fill:#808080;stroke:#ffffff;stroke-linejoin:miter;stroke-width:0.25;" x="203.488721" xlink:href="#m37fa84caf4" y="190.462433"/>
     <use style="fill:#808080;stroke:#ffffff;stroke-linejoin:miter;stroke-width:0.25;" x="206.36177" xlink:href="#m37fa84caf4" y="190.462433"/>
     <use style="fill:#808080;stroke:#ffffff;stroke-linejoin:miter;stroke-width:0.25;" x="209.234819" xlink:href="#m37fa84caf4" y="190.458474"/>
     <use style="fill:#808080;stroke:#ffffff;stroke-linejoin:miter;stroke-width:0.25;" x="212.107868" xlink:href="#m37fa84caf4" y="190.442637"/>
     <use style="fill:#808080;stroke:#ffffff;stroke-linejoin:miter;stroke-width:0.25;" x="214.980917" xlink:href="#m37fa84caf4" y="190.442637"/>
     <use style="fill:#808080;stroke:#ffffff;stroke-linejoin:miter;stroke-width:0.25;" x="217.853966" xlink:href="#m37fa84caf4" y="190.434718"/>
     <use style="fill:#808080;stroke:#ffffff;stroke-linejoin:miter;stroke-width:0.25;" x="220.727015" xlink:href="#m37fa84caf4" y="190.428779"/>
     <use style="fill:#808080;stroke:#ffffff;stroke-linejoin:miter;stroke-width:0.25;" x="223.600064" xlink:href="#m37fa84caf4" y="190.418881"/>
     <use style="fill:#808080;stroke:#ffffff;stroke-linejoin:miter;stroke-width:0.25;" x="226.473113" xlink:href="#m37fa84caf4" y="190.412942"/>
     <use style="fill:#808080;stroke:#ffffff;stroke-linejoin:miter;stroke-width:0.25;" x="229.346163" xlink:href="#m37fa84caf4" y="190.367409"/>
     <use style="fill:#808080;stroke:#ffffff;stroke-linejoin:miter;stroke-width:0.25;" x="232.219212" xlink:href="#m37fa84caf4" y="190.339694"/>
     <use style="fill:#808080;stroke:#ffffff;stroke-linejoin:miter;stroke-width:0.25;" x="235.092261" xlink:href="#m37fa84caf4" y="190.339694"/>
     <use style="fill:#808080;stroke:#ffffff;stroke-linejoin:miter;stroke-width:0.25;" x="237.96531" xlink:href="#m37fa84caf4" y="190.311978"/>
     <use style="fill:#808080;stroke:#ffffff;stroke-linejoin:miter;stroke-width:0.25;" x="240.838359" xlink:href="#m37fa84caf4" y="190.286242"/>
     <use style="fill:#808080;stroke:#ffffff;stroke-linejoin:miter;stroke-width:0.25;" x="243.711408" xlink:href="#m37fa84caf4" y="190.212995"/>
     <use style="fill:#808080;stroke:#ffffff;stroke-linejoin:miter;stroke-width:0.25;" x="246.584457" xlink:href="#m37fa84caf4" y="190.185279"/>
     <use style="fill:#808080;stroke:#ffffff;stroke-linejoin:miter;stroke-width:0.25;" x="249.457506" xlink:href="#m37fa84caf4" y="190.129848"/>
     <use style="fill:#808080;stroke:#ffffff;stroke-linejoin:miter;stroke-width:0.25;" x="252.330555" xlink:href="#m37fa84caf4" y="190.034824"/>
     <use style="fill:#808080;stroke:#ffffff;stroke-linejoin:miter;stroke-width:0.25;" x="255.203604" xlink:href="#m37fa84caf4" y="189.99523"/>
     <use style="fill:#808080;stroke:#ffffff;stroke-linejoin:miter;stroke-width:0.25;" x="258.076653" xlink:href="#m37fa84caf4" y="189.912084"/>
     <use style="fill:#808080;stroke:#ffffff;stroke-linejoin:miter;stroke-width:0.25;" x="260.949702" xlink:href="#m37fa84caf4" y="189.826958"/>
     <use style="fill:#808080;stroke:#ffffff;stroke-linejoin:miter;stroke-width:0.25;" x="263.822751" xlink:href="#m37fa84caf4" y="189.773507"/>
     <use style="fill:#808080;stroke:#ffffff;stroke-linejoin:miter;stroke-width:0.25;" x="266.6958" xlink:href="#m37fa84caf4" y="189.704219"/>
     <use style="fill:#808080;stroke:#ffffff;stroke-linejoin:miter;stroke-width:0.25;" x="269.56885" xlink:href="#m37fa84caf4" y="189.680462"/>
     <use style="fill:#808080;stroke:#ffffff;stroke-linejoin:miter;stroke-width:0.25;" x="272.441899" xlink:href="#m37fa84caf4" y="189.595336"/>
     <use style="fill:#808080;stroke:#ffffff;stroke-linejoin:miter;stroke-width:0.25;" x="275.314948" xlink:href="#m37fa84caf4" y="189.520109"/>
     <use style="fill:#808080;stroke:#ffffff;stroke-linejoin:miter;stroke-width:0.25;" x="278.187997" xlink:href="#m37fa84caf4" y="189.45082"/>
     <use style="fill:#808080;stroke:#ffffff;stroke-linejoin:miter;stroke-width:0.25;" x="281.061046" xlink:href="#m37fa84caf4" y="189.375593"/>
     <use style="fill:#808080;stroke:#ffffff;stroke-linejoin:miter;stroke-width:0.25;" x="283.934095" xlink:href="#m37fa84caf4" y="189.310264"/>
     <use style="fill:#808080;stroke:#ffffff;stroke-linejoin:miter;stroke-width:0.25;" x="286.807144" xlink:href="#m37fa84caf4" y="189.205341"/>
     <use style="fill:#808080;stroke:#ffffff;stroke-linejoin:miter;stroke-width:0.25;" x="289.680193" xlink:href="#m37fa84caf4" y="189.134073"/>
     <use style="fill:#808080;stroke:#ffffff;stroke-linejoin:miter;stroke-width:0.25;" x="292.553242" xlink:href="#m37fa84caf4" y="189.054886"/>
     <use style="fill:#808080;stroke:#ffffff;stroke-linejoin:miter;stroke-width:0.25;" x="295.426291" xlink:href="#m37fa84caf4" y="188.938085"/>
     <use style="fill:#808080;stroke:#ffffff;stroke-linejoin:miter;stroke-width:0.25;" x="298.29934" xlink:href="#m37fa84caf4" y="188.849"/>
     <use style="fill:#808080;stroke:#ffffff;stroke-linejoin:miter;stroke-width:0.25;" x="301.172389" xlink:href="#m37fa84caf4" y="188.738138"/>
     <use style="fill:#808080;stroke:#ffffff;stroke-linejoin:miter;stroke-width:0.25;" x="304.045438" xlink:href="#m37fa84caf4" y="188.623317"/>
     <use style="fill:#808080;stroke:#ffffff;stroke-linejoin:miter;stroke-width:0.25;" x="306.918488" xlink:href="#m37fa84caf4" y="188.486719"/>
     <use style="fill:#808080;stroke:#ffffff;stroke-linejoin:miter;stroke-width:0.25;" x="309.791537" xlink:href="#m37fa84caf4" y="188.346163"/>
     <use style="fill:#808080;stroke:#ffffff;stroke-linejoin:miter;stroke-width:0.25;" x="312.664586" xlink:href="#m37fa84caf4" y="188.197687"/>
     <use style="fill:#808080;stroke:#ffffff;stroke-linejoin:miter;stroke-width:0.25;" x="315.537635" xlink:href="#m37fa84caf4" y="188.06109"/>
     <use style="fill:#808080;stroke:#ffffff;stroke-linejoin:miter;stroke-width:0.25;" x="318.410684" xlink:href="#m37fa84caf4" y="187.863122"/>
     <use style="fill:#808080;stroke:#ffffff;stroke-linejoin:miter;stroke-width:0.25;" x="321.283733" xlink:href="#m37fa84caf4" y="187.728505"/>
     <use style="fill:#808080;stroke:#ffffff;stroke-linejoin:miter;stroke-width:0.25;" x="324.156782" xlink:href="#m37fa84caf4" y="187.382062"/>
     <use style="fill:#808080;stroke:#ffffff;stroke-linejoin:miter;stroke-width:0.25;" x="327.029831" xlink:href="#m37fa84caf4" y="187.130643"/>
     <use style="fill:#808080;stroke:#ffffff;stroke-linejoin:miter;stroke-width:0.25;" x="329.90288" xlink:href="#m37fa84caf4" y="186.948513"/>
     <use style="fill:#808080;stroke:#ffffff;stroke-linejoin:miter;stroke-width:0.25;" x="332.775929" xlink:href="#m37fa84caf4" y="186.742627"/>
     <use style="fill:#808080;stroke:#ffffff;stroke-linejoin:miter;stroke-width:0.25;" x="335.648978" xlink:href="#m37fa84caf4" y="186.552579"/>
     <use style="fill:#808080;stroke:#ffffff;stroke-linejoin:miter;stroke-width:0.25;" x="338.522027" xlink:href="#m37fa84caf4" y="186.322936"/>
     <use style="fill:#808080;stroke:#ffffff;stroke-linejoin:miter;stroke-width:0.25;" x="341.395076" xlink:href="#m37fa84caf4" y="186.103193"/>
     <use style="fill:#808080;stroke:#ffffff;stroke-linejoin:miter;stroke-width:0.25;" x="344.268126" xlink:href="#m37fa84caf4" y="185.94086"/>
     <use style="fill:#808080;stroke:#ffffff;stroke-linejoin:miter;stroke-width:0.25;" x="347.141175" xlink:href="#m37fa84caf4" y="185.701319"/>
     <use style="fill:#808080;stroke:#ffffff;stroke-linejoin:miter;stroke-width:0.25;" x="350.014224" xlink:href="#m37fa84caf4" y="185.432083"/>
     <use style="fill:#808080;stroke:#ffffff;stroke-linejoin:miter;stroke-width:0.25;" x="352.887273" xlink:href="#m37fa84caf4" y="185.238076"/>
    </g>
   </g>
   <g id="line2d_20"/>
   <g id="line2d_21"/>
   <g id="line2d_22"/>
   <g id="line2d_23"/>
   <g id="line2d_24">
    <path clip-path="url(#pf5038934e9)" d="M 12 28.154957 
L 369.12 28.154957 
" style="fill:none;stroke:#4c72b0;stroke-dasharray:0.5,0.825;stroke-dashoffset:0;stroke-width:0.5;"/>
   </g>
   <g id="line2d_25">
    <path clip-path="url(#pf5038934e9)" d="M 12 185.238076 
L 369.12 185.238076 
" style="fill:none;stroke:#4c72b0;stroke-dasharray:0.5,0.825;stroke-dashoffset:0;stroke-width:0.5;"/>
   </g>
   <g id="line2d_26">
    <path clip-path="url(#pf5038934e9)" d="M 12 135.112747 
L 369.12 135.112747 
" style="fill:none;stroke:#4c72b0;stroke-dasharray:0.5,0.825;stroke-dashoffset:0;stroke-width:0.5;"/>
   </g>
   <g id="line2d_27">
    <path clip-path="url(#pf5038934e9)" d="M 352.887273 198.598594 
L 352.887273 20.038594 
" style="fill:none;stroke:#4c72b0;stroke-dasharray:0.5,0.825;stroke-dashoffset:0;stroke-width:0.5;"/>
   </g>
   <g id="patch_3">
    <path d="M 12 198.598594 
L 12 20.038594 
" style="fill:none;stroke:#262626;stroke-linecap:square;stroke-linejoin:miter;stroke-width:0.5;"/>
   </g>
   <g id="patch_4">
    <path d="M 12 198.598594 
L 369.12 198.598594 
" style="fill:none;stroke:#262626;stroke-linecap:square;stroke-linejoin:miter;stroke-width:0.5;"/>
   </g>
   <g id="text_9">
    <!-- 81997 -->
    <defs>
     <path d="M 31.78125 34.625 
Q 24.75 34.625 20.71875 30.859375 
Q 16.703125 27.09375 16.703125 20.515625 
Q 16.703125 13.921875 20.71875 10.15625 
Q 24.75 6.390625 31.78125 6.390625 
Q 38.8125 6.390625 42.859375 10.171875 
Q 46.921875 13.96875 46.921875 20.515625 
Q 46.921875 27.09375 42.890625 30.859375 
Q 38.875 34.625 31.78125 34.625 
z
M 21.921875 38.8125 
Q 15.578125 40.375 12.03125 44.71875 
Q 8.5 49.078125 8.5 55.328125 
Q 8.5 64.0625 14.71875 69.140625 
Q 20.953125 74.21875 31.78125 74.21875 
Q 42.671875 74.21875 48.875 69.140625 
Q 55.078125 64.0625 55.078125 55.328125 
Q 55.078125 49.078125 51.53125 44.71875 
Q 48 40.375 41.703125 38.8125 
Q 48.828125 37.15625 52.796875 32.3125 
Q 56.78125 27.484375 56.78125 20.515625 
Q 56.78125 9.90625 50.3125 4.234375 
Q 43.84375 -1.421875 31.78125 -1.421875 
Q 19.734375 -1.421875 13.25 4.234375 
Q 6.78125 9.90625 6.78125 20.515625 
Q 6.78125 27.484375 10.78125 32.3125 
Q 14.796875 37.15625 21.921875 38.8125 
z
M 18.3125 54.390625 
Q 18.3125 48.734375 21.84375 45.5625 
Q 25.390625 42.390625 31.78125 42.390625 
Q 38.140625 42.390625 41.71875 45.5625 
Q 45.3125 48.734375 45.3125 54.390625 
Q 45.3125 60.0625 41.71875 63.234375 
Q 38.140625 66.40625 31.78125 66.40625 
Q 25.390625 66.40625 21.84375 63.234375 
Q 18.3125 60.0625 18.3125 54.390625 
z
" id="DejaVuSans-56"/>
     <path d="M 10.984375 1.515625 
L 10.984375 10.5 
Q 14.703125 8.734375 18.5 7.8125 
Q 22.3125 6.890625 25.984375 6.890625 
Q 35.75 6.890625 40.890625 13.453125 
Q 46.046875 20.015625 46.78125 33.40625 
Q 43.953125 29.203125 39.59375 26.953125 
Q 35.25 24.703125 29.984375 24.703125 
Q 19.046875 24.703125 12.671875 31.3125 
Q 6.296875 37.9375 6.296875 49.421875 
Q 6.296875 60.640625 12.9375 67.421875 
Q 19.578125 74.21875 30.609375 74.21875 
Q 43.265625 74.21875 49.921875 64.515625 
Q 56.59375 54.828125 56.59375 36.375 
Q 56.59375 19.140625 48.40625 8.859375 
Q 40.234375 -1.421875 26.421875 -1.421875 
Q 22.703125 -1.421875 18.890625 -0.6875 
Q 15.09375 0.046875 10.984375 1.515625 
z
M 30.609375 32.421875 
Q 37.25 32.421875 41.125 36.953125 
Q 45.015625 41.5 45.015625 49.421875 
Q 45.015625 57.28125 41.125 61.84375 
Q 37.25 66.40625 30.609375 66.40625 
Q 23.96875 66.40625 20.09375 61.84375 
Q 16.21875 57.28125 16.21875 49.421875 
Q 16.21875 41.5 20.09375 36.953125 
Q 23.96875 32.421875 30.609375 32.421875 
z
" id="DejaVuSans-57"/>
     <path d="M 8.203125 72.90625 
L 55.078125 72.90625 
L 55.078125 68.703125 
L 28.609375 0 
L 18.3125 0 
L 43.21875 64.59375 
L 8.203125 64.59375 
z
" id="DejaVuSans-55"/>
    </defs>
    <g style="fill:#ff0000;" transform="translate(15.5712 26.491207)scale(0.08 -0.08)">
     <use xlink:href="#DejaVuSans-56"/>
     <use x="63.623047" xlink:href="#DejaVuSans-49"/>
     <use x="127.246094" xlink:href="#DejaVuSans-57"/>
     <use x="190.869141" xlink:href="#DejaVuSans-57"/>
     <use x="254.492188" xlink:href="#DejaVuSans-55"/>
    </g>
   </g>
   <g id="text_10">
    <!-- 2649 -->
    <defs>
     <path d="M 19.1875 8.296875 
L 53.609375 8.296875 
L 53.609375 0 
L 7.328125 0 
L 7.328125 8.296875 
Q 12.9375 14.109375 22.625 23.890625 
Q 32.328125 33.6875 34.8125 36.53125 
Q 39.546875 41.84375 41.421875 45.53125 
Q 43.3125 49.21875 43.3125 52.78125 
Q 43.3125 58.59375 39.234375 62.25 
Q 35.15625 65.921875 28.609375 65.921875 
Q 23.96875 65.921875 18.8125 64.3125 
Q 13.671875 62.703125 7.8125 59.421875 
L 7.8125 69.390625 
Q 13.765625 71.78125 18.9375 73 
Q 24.125 74.21875 28.421875 74.21875 
Q 39.75 74.21875 46.484375 68.546875 
Q 53.21875 62.890625 53.21875 53.421875 
Q 53.21875 48.921875 51.53125 44.890625 
Q 49.859375 40.875 45.40625 35.40625 
Q 44.1875 33.984375 37.640625 27.21875 
Q 31.109375 20.453125 19.1875 8.296875 
z
" id="DejaVuSans-50"/>
     <path d="M 33.015625 40.375 
Q 26.375 40.375 22.484375 35.828125 
Q 18.609375 31.296875 18.609375 23.390625 
Q 18.609375 15.53125 22.484375 10.953125 
Q 26.375 6.390625 33.015625 6.390625 
Q 39.65625 6.390625 43.53125 10.953125 
Q 47.40625 15.53125 47.40625 23.390625 
Q 47.40625 31.296875 43.53125 35.828125 
Q 39.65625 40.375 33.015625 40.375 
z
M 52.59375 71.296875 
L 52.59375 62.3125 
Q 48.875 64.0625 45.09375 64.984375 
Q 41.3125 65.921875 37.59375 65.921875 
Q 27.828125 65.921875 22.671875 59.328125 
Q 17.53125 52.734375 16.796875 39.40625 
Q 19.671875 43.65625 24.015625 45.921875 
Q 28.375 48.1875 33.59375 48.1875 
Q 44.578125 48.1875 50.953125 41.515625 
Q 57.328125 34.859375 57.328125 23.390625 
Q 57.328125 12.15625 50.6875 5.359375 
Q 44.046875 -1.421875 33.015625 -1.421875 
Q 20.359375 -1.421875 13.671875 8.265625 
Q 6.984375 17.96875 6.984375 36.375 
Q 6.984375 53.65625 15.1875 63.9375 
Q 23.390625 74.21875 37.203125 74.21875 
Q 40.921875 74.21875 44.703125 73.484375 
Q 48.484375 72.75 52.59375 71.296875 
z
" id="DejaVuSans-54"/>
    </defs>
    <g style="fill:#ff0000;" transform="translate(15.5712 183.574326)scale(0.08 -0.08)">
     <use xlink:href="#DejaVuSans-50"/>
     <use x="63.623047" xlink:href="#DejaVuSans-54"/>
     <use x="127.246094" xlink:href="#DejaVuSans-52"/>
     <use x="190.869141" xlink:href="#DejaVuSans-57"/>
    </g>
   </g>
   <g id="text_11">
    <!-- 27969 -->
    <g style="fill:#008000;" transform="translate(15.5712 133.448997)scale(0.08 -0.08)">
     <use xlink:href="#DejaVuSans-50"/>
     <use x="63.623047" xlink:href="#DejaVuSans-55"/>
     <use x="127.246094" xlink:href="#DejaVuSans-57"/>
     <use x="190.869141" xlink:href="#DejaVuSans-54"/>
     <use x="254.492188" xlink:href="#DejaVuSans-57"/>
    </g>
   </g>
   <g id="text_12">
    <!-- COVID-19 Cases, Recoveries &amp; Deaths Graph -->
    <defs>
     <path d="M 64.40625 67.28125 
L 64.40625 56.890625 
Q 59.421875 61.53125 53.78125 63.8125 
Q 48.140625 66.109375 41.796875 66.109375 
Q 29.296875 66.109375 22.65625 58.46875 
Q 16.015625 50.828125 16.015625 36.375 
Q 16.015625 21.96875 22.65625 14.328125 
Q 29.296875 6.6875 41.796875 6.6875 
Q 48.140625 6.6875 53.78125 8.984375 
Q 59.421875 11.28125 64.40625 15.921875 
L 64.40625 5.609375 
Q 59.234375 2.09375 53.4375 0.328125 
Q 47.65625 -1.421875 41.21875 -1.421875 
Q 24.65625 -1.421875 15.125 8.703125 
Q 5.609375 18.84375 5.609375 36.375 
Q 5.609375 53.953125 15.125 64.078125 
Q 24.65625 74.21875 41.21875 74.21875 
Q 47.75 74.21875 53.53125 72.484375 
Q 59.328125 70.75 64.40625 67.28125 
z
" id="DejaVuSans-67"/>
     <path d="M 39.40625 66.21875 
Q 28.65625 66.21875 22.328125 58.203125 
Q 16.015625 50.203125 16.015625 36.375 
Q 16.015625 22.609375 22.328125 14.59375 
Q 28.65625 6.59375 39.40625 6.59375 
Q 50.140625 6.59375 56.421875 14.59375 
Q 62.703125 22.609375 62.703125 36.375 
Q 62.703125 50.203125 56.421875 58.203125 
Q 50.140625 66.21875 39.40625 66.21875 
z
M 39.40625 74.21875 
Q 54.734375 74.21875 63.90625 63.9375 
Q 73.09375 53.65625 73.09375 36.375 
Q 73.09375 19.140625 63.90625 8.859375 
Q 54.734375 -1.421875 39.40625 -1.421875 
Q 24.03125 -1.421875 14.8125 8.828125 
Q 5.609375 19.09375 5.609375 36.375 
Q 5.609375 53.65625 14.8125 63.9375 
Q 24.03125 74.21875 39.40625 74.21875 
z
" id="DejaVuSans-79"/>
     <path d="M 28.609375 0 
L 0.78125 72.90625 
L 11.078125 72.90625 
L 34.1875 11.53125 
L 57.328125 72.90625 
L 67.578125 72.90625 
L 39.796875 0 
z
" id="DejaVuSans-86"/>
     <path d="M 9.8125 72.90625 
L 19.671875 72.90625 
L 19.671875 0 
L 9.8125 0 
z
" id="DejaVuSans-73"/>
     <path d="M 19.671875 64.796875 
L 19.671875 8.109375 
L 31.59375 8.109375 
Q 46.6875 8.109375 53.6875 14.9375 
Q 60.6875 21.78125 60.6875 36.53125 
Q 60.6875 51.171875 53.6875 57.984375 
Q 46.6875 64.796875 31.59375 64.796875 
z
M 9.8125 72.90625 
L 30.078125 72.90625 
Q 51.265625 72.90625 61.171875 64.09375 
Q 71.09375 55.28125 71.09375 36.53125 
Q 71.09375 17.671875 61.125 8.828125 
Q 51.171875 0 30.078125 0 
L 9.8125 0 
z
" id="DejaVuSans-68"/>
     <path d="M 4.890625 31.390625 
L 31.203125 31.390625 
L 31.203125 23.390625 
L 4.890625 23.390625 
z
" id="DejaVuSans-45"/>
     <path d="M 44.28125 53.078125 
L 44.28125 44.578125 
Q 40.484375 46.53125 36.375 47.5 
Q 32.28125 48.484375 27.875 48.484375 
Q 21.1875 48.484375 17.84375 46.4375 
Q 14.5 44.390625 14.5 40.28125 
Q 14.5 37.15625 16.890625 35.375 
Q 19.28125 33.59375 26.515625 31.984375 
L 29.59375 31.296875 
Q 39.15625 29.25 43.1875 25.515625 
Q 47.21875 21.78125 47.21875 15.09375 
Q 47.21875 7.46875 41.1875 3.015625 
Q 35.15625 -1.421875 24.609375 -1.421875 
Q 20.21875 -1.421875 15.453125 -0.5625 
Q 10.6875 0.296875 5.421875 2 
L 5.421875 11.28125 
Q 10.40625 8.6875 15.234375 7.390625 
Q 20.0625 6.109375 24.8125 6.109375 
Q 31.15625 6.109375 34.5625 8.28125 
Q 37.984375 10.453125 37.984375 14.40625 
Q 37.984375 18.0625 35.515625 20.015625 
Q 33.0625 21.96875 24.703125 23.78125 
L 21.578125 24.515625 
Q 13.234375 26.265625 9.515625 29.90625 
Q 5.8125 33.546875 5.8125 39.890625 
Q 5.8125 47.609375 11.28125 51.796875 
Q 16.75 56 26.8125 56 
Q 31.78125 56 36.171875 55.265625 
Q 40.578125 54.546875 44.28125 53.078125 
z
" id="DejaVuSans-115"/>
     <path d="M 11.71875 12.40625 
L 22.015625 12.40625 
L 22.015625 4 
L 14.015625 -11.625 
L 7.71875 -11.625 
L 11.71875 4 
z
" id="DejaVuSans-44"/>
     <path d="M 44.390625 34.1875 
Q 47.5625 33.109375 50.5625 29.59375 
Q 53.5625 26.078125 56.59375 19.921875 
L 66.609375 0 
L 56 0 
L 46.6875 18.703125 
Q 43.0625 26.03125 39.671875 28.421875 
Q 36.28125 30.8125 30.421875 30.8125 
L 19.671875 30.8125 
L 19.671875 0 
L 9.8125 0 
L 9.8125 72.90625 
L 32.078125 72.90625 
Q 44.578125 72.90625 50.734375 67.671875 
Q 56.890625 62.453125 56.890625 51.90625 
Q 56.890625 45.015625 53.6875 40.46875 
Q 50.484375 35.9375 44.390625 34.1875 
z
M 19.671875 64.796875 
L 19.671875 38.921875 
L 32.078125 38.921875 
Q 39.203125 38.921875 42.84375 42.21875 
Q 46.484375 45.515625 46.484375 51.90625 
Q 46.484375 58.296875 42.84375 61.546875 
Q 39.203125 64.796875 32.078125 64.796875 
z
" id="DejaVuSans-82"/>
     <path d="M 48.78125 52.59375 
L 48.78125 44.1875 
Q 44.96875 46.296875 41.140625 47.34375 
Q 37.3125 48.390625 33.40625 48.390625 
Q 24.65625 48.390625 19.8125 42.84375 
Q 14.984375 37.3125 14.984375 27.296875 
Q 14.984375 17.28125 19.8125 11.734375 
Q 24.65625 6.203125 33.40625 6.203125 
Q 37.3125 6.203125 41.140625 7.25 
Q 44.96875 8.296875 48.78125 10.40625 
L 48.78125 2.09375 
Q 45.015625 0.34375 40.984375 -0.53125 
Q 36.96875 -1.421875 32.421875 -1.421875 
Q 20.0625 -1.421875 12.78125 6.34375 
Q 5.515625 14.109375 5.515625 27.296875 
Q 5.515625 40.671875 12.859375 48.328125 
Q 20.21875 56 33.015625 56 
Q 37.15625 56 41.109375 55.140625 
Q 45.0625 54.296875 48.78125 52.59375 
z
" id="DejaVuSans-99"/>
     <path d="M 30.609375 48.390625 
Q 23.390625 48.390625 19.1875 42.75 
Q 14.984375 37.109375 14.984375 27.296875 
Q 14.984375 17.484375 19.15625 11.84375 
Q 23.34375 6.203125 30.609375 6.203125 
Q 37.796875 6.203125 41.984375 11.859375 
Q 46.1875 17.53125 46.1875 27.296875 
Q 46.1875 37.015625 41.984375 42.703125 
Q 37.796875 48.390625 30.609375 48.390625 
z
M 30.609375 56 
Q 42.328125 56 49.015625 48.375 
Q 55.71875 40.765625 55.71875 27.296875 
Q 55.71875 13.875 49.015625 6.21875 
Q 42.328125 -1.421875 30.609375 -1.421875 
Q 18.84375 -1.421875 12.171875 6.21875 
Q 5.515625 13.875 5.515625 27.296875 
Q 5.515625 40.765625 12.171875 48.375 
Q 18.84375 56 30.609375 56 
z
" id="DejaVuSans-111"/>
     <path d="M 2.984375 54.6875 
L 12.5 54.6875 
L 29.59375 8.796875 
L 46.6875 54.6875 
L 56.203125 54.6875 
L 35.6875 0 
L 23.484375 0 
z
" id="DejaVuSans-118"/>
     <path d="M 9.421875 54.6875 
L 18.40625 54.6875 
L 18.40625 0 
L 9.421875 0 
z
M 9.421875 75.984375 
L 18.40625 75.984375 
L 18.40625 64.59375 
L 9.421875 64.59375 
z
" id="DejaVuSans-105"/>
     <path d="M 24.3125 39.203125 
Q 19.875 35.25 17.796875 31.3125 
Q 15.71875 27.390625 15.71875 23.09375 
Q 15.71875 15.96875 20.890625 11.234375 
Q 26.078125 6.5 33.890625 6.5 
Q 38.53125 6.5 42.578125 8.03125 
Q 46.625 9.578125 50.203125 12.703125 
z
M 31.203125 44.671875 
L 56 19.28125 
Q 58.890625 23.640625 60.5 28.59375 
Q 62.109375 33.546875 62.40625 39.109375 
L 71.484375 39.109375 
Q 70.90625 32.671875 68.359375 26.359375 
Q 65.828125 20.0625 61.28125 13.921875 
L 74.90625 0 
L 62.59375 0 
L 55.609375 7.171875 
Q 50.53125 2.828125 44.96875 0.703125 
Q 39.40625 -1.421875 33.015625 -1.421875 
Q 21.234375 -1.421875 13.765625 5.296875 
Q 6.296875 12.015625 6.296875 22.515625 
Q 6.296875 28.765625 9.5625 34.25 
Q 12.84375 39.75 19.390625 44.578125 
Q 17.046875 47.65625 15.8125 50.703125 
Q 14.59375 53.765625 14.59375 56.6875 
Q 14.59375 64.59375 20.015625 69.40625 
Q 25.4375 74.21875 34.421875 74.21875 
Q 38.484375 74.21875 42.5 73.34375 
Q 46.53125 72.46875 50.6875 70.703125 
L 50.6875 61.8125 
Q 46.4375 64.109375 42.578125 65.296875 
Q 38.71875 66.5 35.40625 66.5 
Q 30.28125 66.5 27.078125 63.78125 
Q 23.875 61.078125 23.875 56.78125 
Q 23.875 54.296875 25.3125 51.78125 
Q 26.765625 49.265625 31.203125 44.671875 
z
" id="DejaVuSans-38"/>
     <path d="M 18.3125 70.21875 
L 18.3125 54.6875 
L 36.8125 54.6875 
L 36.8125 47.703125 
L 18.3125 47.703125 
L 18.3125 18.015625 
Q 18.3125 11.328125 20.140625 9.421875 
Q 21.96875 7.515625 27.59375 7.515625 
L 36.8125 7.515625 
L 36.8125 0 
L 27.59375 0 
Q 17.1875 0 13.234375 3.875 
Q 9.28125 7.765625 9.28125 18.015625 
L 9.28125 47.703125 
L 2.6875 47.703125 
L 2.6875 54.6875 
L 9.28125 54.6875 
L 9.28125 70.21875 
z
" id="DejaVuSans-116"/>
     <path d="M 54.890625 33.015625 
L 54.890625 0 
L 45.90625 0 
L 45.90625 32.71875 
Q 45.90625 40.484375 42.875 44.328125 
Q 39.84375 48.1875 33.796875 48.1875 
Q 26.515625 48.1875 22.3125 43.546875 
Q 18.109375 38.921875 18.109375 30.90625 
L 18.109375 0 
L 9.078125 0 
L 9.078125 75.984375 
L 18.109375 75.984375 
L 18.109375 46.1875 
Q 21.34375 51.125 25.703125 53.5625 
Q 30.078125 56 35.796875 56 
Q 45.21875 56 50.046875 50.171875 
Q 54.890625 44.34375 54.890625 33.015625 
z
" id="DejaVuSans-104"/>
     <path d="M 59.515625 10.40625 
L 59.515625 29.984375 
L 43.40625 29.984375 
L 43.40625 38.09375 
L 69.28125 38.09375 
L 69.28125 6.78125 
Q 63.578125 2.734375 56.6875 0.65625 
Q 49.8125 -1.421875 42 -1.421875 
Q 24.90625 -1.421875 15.25 8.5625 
Q 5.609375 18.5625 5.609375 36.375 
Q 5.609375 54.25 15.25 64.234375 
Q 24.90625 74.21875 42 74.21875 
Q 49.125 74.21875 55.546875 72.453125 
Q 61.96875 70.703125 67.390625 67.28125 
L 67.390625 56.78125 
Q 61.921875 61.421875 55.765625 63.765625 
Q 49.609375 66.109375 42.828125 66.109375 
Q 29.4375 66.109375 22.71875 58.640625 
Q 16.015625 51.171875 16.015625 36.375 
Q 16.015625 21.625 22.71875 14.15625 
Q 29.4375 6.6875 42.828125 6.6875 
Q 48.046875 6.6875 52.140625 7.59375 
Q 56.25 8.5 59.515625 10.40625 
z
" id="DejaVuSans-71"/>
    </defs>
    <g style="fill:#262626;" transform="translate(88.964766 14.038594)scale(0.09 -0.09)">
     <use xlink:href="#DejaVuSans-67"/>
     <use x="69.824219" xlink:href="#DejaVuSans-79"/>
     <use x="146.785156" xlink:href="#DejaVuSans-86"/>
     <use x="215.193359" xlink:href="#DejaVuSans-73"/>
     <use x="244.685547" xlink:href="#DejaVuSans-68"/>
     <use x="321.6875" xlink:href="#DejaVuSans-45"/>
     <use x="357.771484" xlink:href="#DejaVuSans-49"/>
     <use x="421.394531" xlink:href="#DejaVuSans-57"/>
     <use x="485.017578" xlink:href="#DejaVuSans-32"/>
     <use x="516.804688" xlink:href="#DejaVuSans-67"/>
     <use x="586.628906" xlink:href="#DejaVuSans-97"/>
     <use x="647.908203" xlink:href="#DejaVuSans-115"/>
     <use x="700.007812" xlink:href="#DejaVuSans-101"/>
     <use x="761.53125" xlink:href="#DejaVuSans-115"/>
     <use x="813.630859" xlink:href="#DejaVuSans-44"/>
     <use x="845.417969" xlink:href="#DejaVuSans-32"/>
     <use x="877.205078" xlink:href="#DejaVuSans-82"/>
     <use x="942.1875" xlink:href="#DejaVuSans-101"/>
     <use x="1003.710938" xlink:href="#DejaVuSans-99"/>
     <use x="1058.691406" xlink:href="#DejaVuSans-111"/>
     <use x="1119.873047" xlink:href="#DejaVuSans-118"/>
     <use x="1179.052734" xlink:href="#DejaVuSans-101"/>
     <use x="1240.576172" xlink:href="#DejaVuSans-114"/>
     <use x="1281.689453" xlink:href="#DejaVuSans-105"/>
     <use x="1309.472656" xlink:href="#DejaVuSans-101"/>
     <use x="1370.996094" xlink:href="#DejaVuSans-115"/>
     <use x="1423.095703" xlink:href="#DejaVuSans-32"/>
     <use x="1454.882812" xlink:href="#DejaVuSans-38"/>
     <use x="1532.861328" xlink:href="#DejaVuSans-32"/>
     <use x="1564.648438" xlink:href="#DejaVuSans-68"/>
     <use x="1641.650391" xlink:href="#DejaVuSans-101"/>
     <use x="1703.173828" xlink:href="#DejaVuSans-97"/>
     <use x="1764.453125" xlink:href="#DejaVuSans-116"/>
     <use x="1803.662109" xlink:href="#DejaVuSans-104"/>
     <use x="1867.041016" xlink:href="#DejaVuSans-115"/>
     <use x="1919.140625" xlink:href="#DejaVuSans-32"/>
     <use x="1950.927734" xlink:href="#DejaVuSans-71"/>
     <use x="2028.417969" xlink:href="#DejaVuSans-114"/>
     <use x="2069.53125" xlink:href="#DejaVuSans-97"/>
     <use x="2130.810547" xlink:href="#DejaVuSans-112"/>
     <use x="2194.287109" xlink:href="#DejaVuSans-104"/>
    </g>
   </g>
   <g id="legend_1">
    <g id="line2d_28">
     <path d="M 19.92 95.750094 
L 37.52 95.750094 
" style="fill:none;stroke:#ff0000;stroke-linecap:round;stroke-width:1.5;"/>
    </g>
    <g id="line2d_29">
     <g>
      <use style="fill:#ff0000;stroke:#ffffff;stroke-width:0.25;" x="28.72" xlink:href="#m2c381e60ba" y="95.750094"/>
     </g>
    </g>
    <g id="text_13">
     <!-- Confirmed Cases -->
     <defs>
      <path d="M 54.890625 33.015625 
L 54.890625 0 
L 45.90625 0 
L 45.90625 32.71875 
Q 45.90625 40.484375 42.875 44.328125 
Q 39.84375 48.1875 33.796875 48.1875 
Q 26.515625 48.1875 22.3125 43.546875 
Q 18.109375 38.921875 18.109375 30.90625 
L 18.109375 0 
L 9.078125 0 
L 9.078125 54.6875 
L 18.109375 54.6875 
L 18.109375 46.1875 
Q 21.34375 51.125 25.703125 53.5625 
Q 30.078125 56 35.796875 56 
Q 45.21875 56 50.046875 50.171875 
Q 54.890625 44.34375 54.890625 33.015625 
z
" id="DejaVuSans-110"/>
      <path d="M 37.109375 75.984375 
L 37.109375 68.5 
L 28.515625 68.5 
Q 23.6875 68.5 21.796875 66.546875 
Q 19.921875 64.59375 19.921875 59.515625 
L 19.921875 54.6875 
L 34.71875 54.6875 
L 34.71875 47.703125 
L 19.921875 47.703125 
L 19.921875 0 
L 10.890625 0 
L 10.890625 47.703125 
L 2.296875 47.703125 
L 2.296875 54.6875 
L 10.890625 54.6875 
L 10.890625 58.5 
Q 10.890625 67.625 15.140625 71.796875 
Q 19.390625 75.984375 28.609375 75.984375 
z
" id="DejaVuSans-102"/>
      <path d="M 52 44.1875 
Q 55.375 50.25 60.0625 53.125 
Q 64.75 56 71.09375 56 
Q 79.640625 56 84.28125 50.015625 
Q 88.921875 44.046875 88.921875 33.015625 
L 88.921875 0 
L 79.890625 0 
L 79.890625 32.71875 
Q 79.890625 40.578125 77.09375 44.375 
Q 74.3125 48.1875 68.609375 48.1875 
Q 61.625 48.1875 57.5625 43.546875 
Q 53.515625 38.921875 53.515625 30.90625 
L 53.515625 0 
L 44.484375 0 
L 44.484375 32.71875 
Q 44.484375 40.625 41.703125 44.40625 
Q 38.921875 48.1875 33.109375 48.1875 
Q 26.21875 48.1875 22.15625 43.53125 
Q 18.109375 38.875 18.109375 30.90625 
L 18.109375 0 
L 9.078125 0 
L 9.078125 54.6875 
L 18.109375 54.6875 
L 18.109375 46.1875 
Q 21.1875 51.21875 25.484375 53.609375 
Q 29.78125 56 35.6875 56 
Q 41.65625 56 45.828125 52.96875 
Q 50 49.953125 52 44.1875 
z
" id="DejaVuSans-109"/>
      <path d="M 45.40625 46.390625 
L 45.40625 75.984375 
L 54.390625 75.984375 
L 54.390625 0 
L 45.40625 0 
L 45.40625 8.203125 
Q 42.578125 3.328125 38.25 0.953125 
Q 33.9375 -1.421875 27.875 -1.421875 
Q 17.96875 -1.421875 11.734375 6.484375 
Q 5.515625 14.40625 5.515625 27.296875 
Q 5.515625 40.1875 11.734375 48.09375 
Q 17.96875 56 27.875 56 
Q 33.9375 56 38.25 53.625 
Q 42.578125 51.265625 45.40625 46.390625 
z
M 14.796875 27.296875 
Q 14.796875 17.390625 18.875 11.75 
Q 22.953125 6.109375 30.078125 6.109375 
Q 37.203125 6.109375 41.296875 11.75 
Q 45.40625 17.390625 45.40625 27.296875 
Q 45.40625 37.203125 41.296875 42.84375 
Q 37.203125 48.484375 30.078125 48.484375 
Q 22.953125 48.484375 18.875 42.84375 
Q 14.796875 37.203125 14.796875 27.296875 
z
" id="DejaVuSans-100"/>
     </defs>
     <g style="fill:#262626;" transform="translate(44.56 98.830094)scale(0.088 -0.088)">
      <use xlink:href="#DejaVuSans-67"/>
      <use x="69.824219" xlink:href="#DejaVuSans-111"/>
      <use x="131.005859" xlink:href="#DejaVuSans-110"/>
      <use x="194.384766" xlink:href="#DejaVuSans-102"/>
      <use x="229.589844" xlink:href="#DejaVuSans-105"/>
      <use x="257.373047" xlink:href="#DejaVuSans-114"/>
      <use x="296.736328" xlink:href="#DejaVuSans-109"/>
      <use x="394.148438" xlink:href="#DejaVuSans-101"/>
      <use x="455.671875" xlink:href="#DejaVuSans-100"/>
      <use x="519.148438" xlink:href="#DejaVuSans-32"/>
      <use x="550.935547" xlink:href="#DejaVuSans-67"/>
      <use x="620.759766" xlink:href="#DejaVuSans-97"/>
      <use x="682.039062" xlink:href="#DejaVuSans-115"/>
      <use x="734.138672" xlink:href="#DejaVuSans-101"/>
      <use x="795.662109" xlink:href="#DejaVuSans-115"/>
     </g>
    </g>
    <g id="line2d_30">
     <path d="M 19.92 108.666844 
L 37.52 108.666844 
" style="fill:none;stroke:#008000;stroke-linecap:round;stroke-width:1.5;"/>
    </g>
    <g id="line2d_31">
     <g>
      <use style="fill:#008000;stroke:#ffffff;stroke-linejoin:miter;stroke-width:0.25;" x="28.72" xlink:href="#m3f9f0f73b0" y="108.666844"/>
     </g>
    </g>
    <g id="text_14">
     <!-- Recoveries -->
     <g style="fill:#262626;" transform="translate(44.56 111.746844)scale(0.088 -0.088)">
      <use xlink:href="#DejaVuSans-82"/>
      <use x="64.982422" xlink:href="#DejaVuSans-101"/>
      <use x="126.505859" xlink:href="#DejaVuSans-99"/>
      <use x="181.486328" xlink:href="#DejaVuSans-111"/>
      <use x="242.667969" xlink:href="#DejaVuSans-118"/>
      <use x="301.847656" xlink:href="#DejaVuSans-101"/>
      <use x="363.371094" xlink:href="#DejaVuSans-114"/>
      <use x="404.484375" xlink:href="#DejaVuSans-105"/>
      <use x="432.267578" xlink:href="#DejaVuSans-101"/>
      <use x="493.791016" xlink:href="#DejaVuSans-115"/>
     </g>
    </g>
    <g id="line2d_32">
     <path d="M 19.92 121.583594 
L 37.52 121.583594 
" style="fill:none;stroke:#808080;stroke-linecap:round;stroke-width:1.5;"/>
    </g>
    <g id="line2d_33">
     <g>
      <use style="fill:#808080;stroke:#ffffff;stroke-linejoin:miter;stroke-width:0.25;" x="28.72" xlink:href="#m37fa84caf4" y="121.583594"/>
     </g>
    </g>
    <g id="text_15">
     <!-- Deaths -->
     <g style="fill:#262626;" transform="translate(44.56 124.663594)scale(0.088 -0.088)">
      <use xlink:href="#DejaVuSans-68"/>
      <use x="77.001953" xlink:href="#DejaVuSans-101"/>
      <use x="138.525391" xlink:href="#DejaVuSans-97"/>
      <use x="199.804688" xlink:href="#DejaVuSans-116"/>
      <use x="239.013672" xlink:href="#DejaVuSans-104"/>
      <use x="302.392578" xlink:href="#DejaVuSans-115"/>
     </g>
    </g>
   </g>
  </g>
 </g>
 <defs>
  <clipPath id="pf5038934e9">
   <rect height="178.56" width="357.12" x="12" y="20.038594"/>
  </clipPath>
 </defs>
</svg>
