<?xml version="1.0" encoding="utf-8" standalone="no"?>
<!DOCTYPE svg PUBLIC "-//W3C//DTD SVG 1.1//EN"
  "http://www.w3.org/Graphics/SVG/1.1/DTD/svg11.dtd">
<!-- Created with matplotlib (https://matplotlib.org/) -->
<svg height="214.137656pt" version="1.1" viewBox="0 0 376.32 214.137656" width="376.32pt" xmlns="http://www.w3.org/2000/svg" xmlns:xlink="http://www.w3.org/1999/xlink">
 <defs>
  <style type="text/css">
*{stroke-linecap:butt;stroke-linejoin:round;}
  </style>
 </defs>
 <g id="figure_1">
  <g id="patch_1">
   <path d="M 0 214.137656 
L 376.32 214.137656 
L 376.32 0 
L 0 0 
z
" style="fill:#ffffff;"/>
  </g>
  <g id="axes_1">
   <g id="patch_2">
    <path d="M 12 198.598594 
L 369.12 198.598594 
L 369.12 20.038594 
L 12 20.038594 
z
" style="fill:#ffffff;"/>
   </g>
   <g id="matplotlib.axis_1">
    <g id="xtick_1">
     <g id="line2d_1">
      <path clip-path="url(#p5242a69c03)" d="M 57.480885 198.598594 
L 57.480885 20.038594 
" style="fill:none;stroke:#f3f3f3;stroke-dasharray:0.5,0.825;stroke-dashoffset:0;stroke-width:0.5;"/>
     </g>
     <g id="line2d_2">
      <defs>
       <path d="M 0 0 
L 0 -3 
" id="mf9084cf5b6" style="stroke:#262626;stroke-width:0.5;"/>
      </defs>
      <g>
       <use style="fill:#262626;stroke:#262626;stroke-width:0.5;" x="57.480885" xlink:href="#mf9084cf5b6" y="198.598594"/>
      </g>
     </g>
     <g id="text_1">
      <!-- 01 Feb -->
      <defs>
       <path d="M 31.78125 66.40625 
Q 24.171875 66.40625 20.328125 58.90625 
Q 16.5 51.421875 16.5 36.375 
Q 16.5 21.390625 20.328125 13.890625 
Q 24.171875 6.390625 31.78125 6.390625 
Q 39.453125 6.390625 43.28125 13.890625 
Q 47.125 21.390625 47.125 36.375 
Q 47.125 51.421875 43.28125 58.90625 
Q 39.453125 66.40625 31.78125 66.40625 
z
M 31.78125 74.21875 
Q 44.046875 74.21875 50.515625 64.515625 
Q 56.984375 54.828125 56.984375 36.375 
Q 56.984375 17.96875 50.515625 8.265625 
Q 44.046875 -1.421875 31.78125 -1.421875 
Q 19.53125 -1.421875 13.0625 8.265625 
Q 6.59375 17.96875 6.59375 36.375 
Q 6.59375 54.828125 13.0625 64.515625 
Q 19.53125 74.21875 31.78125 74.21875 
z
" id="DejaVuSans-48"/>
       <path d="M 12.40625 8.296875 
L 28.515625 8.296875 
L 28.515625 63.921875 
L 10.984375 60.40625 
L 10.984375 69.390625 
L 28.421875 72.90625 
L 38.28125 72.90625 
L 38.28125 8.296875 
L 54.390625 8.296875 
L 54.390625 0 
L 12.40625 0 
z
" id="DejaVuSans-49"/>
       <path id="DejaVuSans-32"/>
       <path d="M 9.8125 72.90625 
L 51.703125 72.90625 
L 51.703125 64.59375 
L 19.671875 64.59375 
L 19.671875 43.109375 
L 48.578125 43.109375 
L 48.578125 34.8125 
L 19.671875 34.8125 
L 19.671875 0 
L 9.8125 0 
z
" id="DejaVuSans-70"/>
       <path d="M 56.203125 29.59375 
L 56.203125 25.203125 
L 14.890625 25.203125 
Q 15.484375 15.921875 20.484375 11.0625 
Q 25.484375 6.203125 34.421875 6.203125 
Q 39.59375 6.203125 44.453125 7.46875 
Q 49.3125 8.734375 54.109375 11.28125 
L 54.109375 2.78125 
Q 49.265625 0.734375 44.1875 -0.34375 
Q 39.109375 -1.421875 33.890625 -1.421875 
Q 20.796875 -1.421875 13.15625 6.1875 
Q 5.515625 13.8125 5.515625 26.8125 
Q 5.515625 40.234375 12.765625 48.109375 
Q 20.015625 56 32.328125 56 
Q 43.359375 56 49.78125 48.890625 
Q 56.203125 41.796875 56.203125 29.59375 
z
M 47.21875 32.234375 
Q 47.125 39.59375 43.09375 43.984375 
Q 39.0625 48.390625 32.421875 48.390625 
Q 24.90625 48.390625 20.390625 44.140625 
Q 15.875 39.890625 15.1875 32.171875 
z
" id="DejaVuSans-101"/>
       <path d="M 48.6875 27.296875 
Q 48.6875 37.203125 44.609375 42.84375 
Q 40.53125 48.484375 33.40625 48.484375 
Q 26.265625 48.484375 22.1875 42.84375 
Q 18.109375 37.203125 18.109375 27.296875 
Q 18.109375 17.390625 22.1875 11.75 
Q 26.265625 6.109375 33.40625 6.109375 
Q 40.53125 6.109375 44.609375 11.75 
Q 48.6875 17.390625 48.6875 27.296875 
z
M 18.109375 46.390625 
Q 20.953125 51.265625 25.265625 53.625 
Q 29.59375 56 35.59375 56 
Q 45.5625 56 51.78125 48.09375 
Q 58.015625 40.1875 58.015625 27.296875 
Q 58.015625 14.40625 51.78125 6.484375 
Q 45.5625 -1.421875 35.59375 -1.421875 
Q 29.59375 -1.421875 25.265625 0.953125 
Q 20.953125 3.328125 18.109375 8.203125 
L 18.109375 0 
L 9.078125 0 
L 9.078125 75.984375 
L 18.109375 75.984375 
z
" id="DejaVuSans-98"/>
      </defs>
      <g style="fill:#262626;" transform="translate(49.079322 205.897812)scale(0.05 -0.05)">
       <use xlink:href="#DejaVuSans-48"/>
       <use x="63.623047" xlink:href="#DejaVuSans-49"/>
       <use x="127.246094" xlink:href="#DejaVuSans-32"/>
       <use x="159.033203" xlink:href="#DejaVuSans-70"/>
       <use x="211.052734" xlink:href="#DejaVuSans-101"/>
       <use x="272.576172" xlink:href="#DejaVuSans-98"/>
      </g>
     </g>
    </g>
    <g id="xtick_2">
     <g id="line2d_3">
      <path clip-path="url(#p5242a69c03)" d="M 98.428305 198.598594 
L 98.428305 20.038594 
" style="fill:none;stroke:#f3f3f3;stroke-dasharray:0.5,0.825;stroke-dashoffset:0;stroke-width:0.5;"/>
     </g>
     <g id="line2d_4">
      <g>
       <use style="fill:#262626;stroke:#262626;stroke-width:0.5;" x="98.428305" xlink:href="#mf9084cf5b6" y="198.598594"/>
      </g>
     </g>
     <g id="text_2">
      <!-- 15 Feb -->
      <defs>
       <path d="M 10.796875 72.90625 
L 49.515625 72.90625 
L 49.515625 64.59375 
L 19.828125 64.59375 
L 19.828125 46.734375 
Q 21.96875 47.46875 24.109375 47.828125 
Q 26.265625 48.1875 28.421875 48.1875 
Q 40.625 48.1875 47.75 41.5 
Q 54.890625 34.8125 54.890625 23.390625 
Q 54.890625 11.625 47.5625 5.09375 
Q 40.234375 -1.421875 26.90625 -1.421875 
Q 22.3125 -1.421875 17.546875 -0.640625 
Q 12.796875 0.140625 7.71875 1.703125 
L 7.71875 11.625 
Q 12.109375 9.234375 16.796875 8.0625 
Q 21.484375 6.890625 26.703125 6.890625 
Q 35.15625 6.890625 40.078125 11.328125 
Q 45.015625 15.765625 45.015625 23.390625 
Q 45.015625 31 40.078125 35.4375 
Q 35.15625 39.890625 26.703125 39.890625 
Q 22.75 39.890625 18.8125 39.015625 
Q 14.890625 38.140625 10.796875 36.28125 
z
" id="DejaVuSans-53"/>
      </defs>
      <g style="fill:#262626;" transform="translate(90.026742 205.897812)scale(0.05 -0.05)">
       <use xlink:href="#DejaVuSans-49"/>
       <use x="63.623047" xlink:href="#DejaVuSans-53"/>
       <use x="127.246094" xlink:href="#DejaVuSans-32"/>
       <use x="159.033203" xlink:href="#DejaVuSans-70"/>
       <use x="211.052734" xlink:href="#DejaVuSans-101"/>
       <use x="272.576172" xlink:href="#DejaVuSans-98"/>
      </g>
     </g>
    </g>
    <g id="xtick_3">
     <g id="line2d_5">
      <path clip-path="url(#p5242a69c03)" d="M 142.300541 198.598594 
L 142.300541 20.038594 
" style="fill:none;stroke:#f3f3f3;stroke-dasharray:0.5,0.825;stroke-dashoffset:0;stroke-width:0.5;"/>
     </g>
     <g id="line2d_6">
      <g>
       <use style="fill:#262626;stroke:#262626;stroke-width:0.5;" x="142.300541" xlink:href="#mf9084cf5b6" y="198.598594"/>
      </g>
     </g>
     <g id="text_3">
      <!-- 01 Mar -->
      <defs>
       <path d="M 9.8125 72.90625 
L 24.515625 72.90625 
L 43.109375 23.296875 
L 61.8125 72.90625 
L 76.515625 72.90625 
L 76.515625 0 
L 66.890625 0 
L 66.890625 64.015625 
L 48.09375 14.015625 
L 38.1875 14.015625 
L 19.390625 64.015625 
L 19.390625 0 
L 9.8125 0 
z
" id="DejaVuSans-77"/>
       <path d="M 34.28125 27.484375 
Q 23.390625 27.484375 19.1875 25 
Q 14.984375 22.515625 14.984375 16.5 
Q 14.984375 11.71875 18.140625 8.90625 
Q 21.296875 6.109375 26.703125 6.109375 
Q 34.1875 6.109375 38.703125 11.40625 
Q 43.21875 16.703125 43.21875 25.484375 
L 43.21875 27.484375 
z
M 52.203125 31.203125 
L 52.203125 0 
L 43.21875 0 
L 43.21875 8.296875 
Q 40.140625 3.328125 35.546875 0.953125 
Q 30.953125 -1.421875 24.3125 -1.421875 
Q 15.921875 -1.421875 10.953125 3.296875 
Q 6 8.015625 6 15.921875 
Q 6 25.140625 12.171875 29.828125 
Q 18.359375 34.515625 30.609375 34.515625 
L 43.21875 34.515625 
L 43.21875 35.40625 
Q 43.21875 41.609375 39.140625 45 
Q 35.0625 48.390625 27.6875 48.390625 
Q 23 48.390625 18.546875 47.265625 
Q 14.109375 46.140625 10.015625 43.890625 
L 10.015625 52.203125 
Q 14.9375 54.109375 19.578125 55.046875 
Q 24.21875 56 28.609375 56 
Q 40.484375 56 46.34375 49.84375 
Q 52.203125 43.703125 52.203125 31.203125 
z
" id="DejaVuSans-97"/>
       <path d="M 41.109375 46.296875 
Q 39.59375 47.171875 37.8125 47.578125 
Q 36.03125 48 33.890625 48 
Q 26.265625 48 22.1875 43.046875 
Q 18.109375 38.09375 18.109375 28.8125 
L 18.109375 0 
L 9.078125 0 
L 9.078125 54.6875 
L 18.109375 54.6875 
L 18.109375 46.1875 
Q 20.953125 51.171875 25.484375 53.578125 
Q 30.03125 56 36.53125 56 
Q 37.453125 56 38.578125 55.875 
Q 39.703125 55.765625 41.0625 55.515625 
z
" id="DejaVuSans-114"/>
      </defs>
      <g style="fill:#262626;" transform="translate(133.607962 205.897812)scale(0.05 -0.05)">
       <use xlink:href="#DejaVuSans-48"/>
       <use x="63.623047" xlink:href="#DejaVuSans-49"/>
       <use x="127.246094" xlink:href="#DejaVuSans-32"/>
       <use x="159.033203" xlink:href="#DejaVuSans-77"/>
       <use x="245.3125" xlink:href="#DejaVuSans-97"/>
       <use x="306.591797" xlink:href="#DejaVuSans-114"/>
      </g>
     </g>
    </g>
    <g id="xtick_4">
     <g id="line2d_7">
      <path clip-path="url(#p5242a69c03)" d="M 183.247961 198.598594 
L 183.247961 20.038594 
" style="fill:none;stroke:#f3f3f3;stroke-dasharray:0.5,0.825;stroke-dashoffset:0;stroke-width:0.5;"/>
     </g>
     <g id="line2d_8">
      <g>
       <use style="fill:#262626;stroke:#262626;stroke-width:0.5;" x="183.247961" xlink:href="#mf9084cf5b6" y="198.598594"/>
      </g>
     </g>
     <g id="text_4">
      <!-- 15 Mar -->
      <g style="fill:#262626;" transform="translate(174.555383 205.897812)scale(0.05 -0.05)">
       <use xlink:href="#DejaVuSans-49"/>
       <use x="63.623047" xlink:href="#DejaVuSans-53"/>
       <use x="127.246094" xlink:href="#DejaVuSans-32"/>
       <use x="159.033203" xlink:href="#DejaVuSans-77"/>
       <use x="245.3125" xlink:href="#DejaVuSans-97"/>
       <use x="306.591797" xlink:href="#DejaVuSans-114"/>
      </g>
     </g>
    </g>
    <g id="xtick_5">
     <g id="line2d_9">
      <path clip-path="url(#p5242a69c03)" d="M 232.969828 198.598594 
L 232.969828 20.038594 
" style="fill:none;stroke:#f3f3f3;stroke-dasharray:0.5,0.825;stroke-dashoffset:0;stroke-width:0.5;"/>
     </g>
     <g id="line2d_10">
      <g>
       <use style="fill:#262626;stroke:#262626;stroke-width:0.5;" x="232.969828" xlink:href="#mf9084cf5b6" y="198.598594"/>
      </g>
     </g>
     <g id="text_5">
      <!-- 01 Apr -->
      <defs>
       <path d="M 34.1875 63.1875 
L 20.796875 26.90625 
L 47.609375 26.90625 
z
M 28.609375 72.90625 
L 39.796875 72.90625 
L 67.578125 0 
L 57.328125 0 
L 50.6875 18.703125 
L 17.828125 18.703125 
L 11.1875 0 
L 0.78125 0 
z
" id="DejaVuSans-65"/>
       <path d="M 18.109375 8.203125 
L 18.109375 -20.796875 
L 9.078125 -20.796875 
L 9.078125 54.6875 
L 18.109375 54.6875 
L 18.109375 46.390625 
Q 20.953125 51.265625 25.265625 53.625 
Q 29.59375 56 35.59375 56 
Q 45.5625 56 51.78125 48.09375 
Q 58.015625 40.1875 58.015625 27.296875 
Q 58.015625 14.40625 51.78125 6.484375 
Q 45.5625 -1.421875 35.59375 -1.421875 
Q 29.59375 -1.421875 25.265625 0.953125 
Q 20.953125 3.328125 18.109375 8.203125 
z
M 48.6875 27.296875 
Q 48.6875 37.203125 44.609375 42.84375 
Q 40.53125 48.484375 33.40625 48.484375 
Q 26.265625 48.484375 22.1875 42.84375 
Q 18.109375 37.203125 18.109375 27.296875 
Q 18.109375 17.390625 22.1875 11.75 
Q 26.265625 6.109375 33.40625 6.109375 
Q 40.53125 6.109375 44.609375 11.75 
Q 48.6875 17.390625 48.6875 27.296875 
z
" id="DejaVuSans-112"/>
      </defs>
      <g style="fill:#262626;" transform="translate(224.669047 205.897812)scale(0.05 -0.05)">
       <use xlink:href="#DejaVuSans-48"/>
       <use x="63.623047" xlink:href="#DejaVuSans-49"/>
       <use x="127.246094" xlink:href="#DejaVuSans-32"/>
       <use x="159.033203" xlink:href="#DejaVuSans-65"/>
       <use x="227.441406" xlink:href="#DejaVuSans-112"/>
       <use x="290.917969" xlink:href="#DejaVuSans-114"/>
      </g>
     </g>
    </g>
    <g id="xtick_6">
     <g id="line2d_11">
      <path clip-path="url(#p5242a69c03)" d="M 273.917248 198.598594 
L 273.917248 20.038594 
" style="fill:none;stroke:#f3f3f3;stroke-dasharray:0.5,0.825;stroke-dashoffset:0;stroke-width:0.5;"/>
     </g>
     <g id="line2d_12">
      <g>
       <use style="fill:#262626;stroke:#262626;stroke-width:0.5;" x="273.917248" xlink:href="#mf9084cf5b6" y="198.598594"/>
      </g>
     </g>
     <g id="text_6">
      <!-- 15 Apr -->
      <g style="fill:#262626;" transform="translate(265.616467 205.897812)scale(0.05 -0.05)">
       <use xlink:href="#DejaVuSans-49"/>
       <use x="63.623047" xlink:href="#DejaVuSans-53"/>
       <use x="127.246094" xlink:href="#DejaVuSans-32"/>
       <use x="159.033203" xlink:href="#DejaVuSans-65"/>
       <use x="227.441406" xlink:href="#DejaVuSans-112"/>
       <use x="290.917969" xlink:href="#DejaVuSans-114"/>
      </g>
     </g>
    </g>
    <g id="xtick_7">
     <g id="line2d_13">
      <path clip-path="url(#p5242a69c03)" d="M 320.7143 198.598594 
L 320.7143 20.038594 
" style="fill:none;stroke:#f3f3f3;stroke-dasharray:0.5,0.825;stroke-dashoffset:0;stroke-width:0.5;"/>
     </g>
     <g id="line2d_14">
      <g>
       <use style="fill:#262626;stroke:#262626;stroke-width:0.5;" x="320.7143" xlink:href="#mf9084cf5b6" y="198.598594"/>
      </g>
     </g>
     <g id="text_7">
      <!-- 01 May -->
      <defs>
       <path d="M 32.171875 -5.078125 
Q 28.375 -14.84375 24.75 -17.8125 
Q 21.140625 -20.796875 15.09375 -20.796875 
L 7.90625 -20.796875 
L 7.90625 -13.28125 
L 13.1875 -13.28125 
Q 16.890625 -13.28125 18.9375 -11.515625 
Q 21 -9.765625 23.484375 -3.21875 
L 25.09375 0.875 
L 2.984375 54.6875 
L 12.5 54.6875 
L 29.59375 11.921875 
L 46.6875 54.6875 
L 56.203125 54.6875 
z
" id="DejaVuSans-121"/>
      </defs>
      <g style="fill:#262626;" transform="translate(311.569769 205.897812)scale(0.05 -0.05)">
       <use xlink:href="#DejaVuSans-48"/>
       <use x="63.623047" xlink:href="#DejaVuSans-49"/>
       <use x="127.246094" xlink:href="#DejaVuSans-32"/>
       <use x="159.033203" xlink:href="#DejaVuSans-77"/>
       <use x="245.3125" xlink:href="#DejaVuSans-97"/>
       <use x="306.591797" xlink:href="#DejaVuSans-121"/>
      </g>
     </g>
    </g>
    <g id="xtick_8">
     <g id="line2d_15">
      <path clip-path="url(#p5242a69c03)" d="M 352.887273 198.598594 
L 352.887273 20.038594 
" style="fill:none;stroke:#f3f3f3;stroke-dasharray:0.5,0.825;stroke-dashoffset:0;stroke-width:0.5;"/>
     </g>
     <g id="line2d_16">
      <g>
       <use style="fill:#262626;stroke:#262626;stroke-width:0.5;" x="352.887273" xlink:href="#mf9084cf5b6" y="198.598594"/>
      </g>
     </g>
     <g id="text_8">
      <!-- 12 May -->
      <defs>
       <path d="M 19.1875 8.296875 
L 53.609375 8.296875 
L 53.609375 0 
L 7.328125 0 
L 7.328125 8.296875 
Q 12.9375 14.109375 22.625 23.890625 
Q 32.328125 33.6875 34.8125 36.53125 
Q 39.546875 41.84375 41.421875 45.53125 
Q 43.3125 49.21875 43.3125 52.78125 
Q 43.3125 58.59375 39.234375 62.25 
Q 35.15625 65.921875 28.609375 65.921875 
Q 23.96875 65.921875 18.8125 64.3125 
Q 13.671875 62.703125 7.8125 59.421875 
L 7.8125 69.390625 
Q 13.765625 71.78125 18.9375 73 
Q 24.125 74.21875 28.421875 74.21875 
Q 39.75 74.21875 46.484375 68.546875 
Q 53.21875 62.890625 53.21875 53.421875 
Q 53.21875 48.921875 51.53125 44.890625 
Q 49.859375 40.875 45.40625 35.40625 
Q 44.1875 33.984375 37.640625 27.21875 
Q 31.109375 20.453125 19.1875 8.296875 
z
" id="DejaVuSans-50"/>
      </defs>
      <g style="fill:#262626;" transform="translate(343.742741 205.897812)scale(0.05 -0.05)">
       <use xlink:href="#DejaVuSans-49"/>
       <use x="63.623047" xlink:href="#DejaVuSans-50"/>
       <use x="127.246094" xlink:href="#DejaVuSans-32"/>
       <use x="159.033203" xlink:href="#DejaVuSans-77"/>
       <use x="245.3125" xlink:href="#DejaVuSans-97"/>
       <use x="306.591797" xlink:href="#DejaVuSans-121"/>
      </g>
     </g>
    </g>
   </g>
   <g id="line2d_17">
    <path clip-path="url(#p5242a69c03)" d="M 28.232727 190.48223 
L 31.157543 190.48223 
L 34.082359 190.48223 
L 37.007174 190.48223 
L 39.93199 190.48223 
L 42.856806 190.48223 
L 45.781622 190.48223 
L 48.706437 190.48223 
L 51.631253 190.480045 
L 54.556069 190.480045 
L 57.480885 190.480045 
L 60.4057 190.47786 
L 63.330516 190.475675 
L 66.255332 190.475675 
L 69.180147 190.475675 
L 72.104963 190.475675 
L 75.029779 190.475675 
L 77.954595 190.475675 
L 80.87941 190.475675 
L 83.804226 190.475675 
L 86.729042 190.475675 
L 89.653857 190.475675 
L 92.578673 190.475675 
L 95.503489 190.475675 
L 98.428305 190.475675 
L 101.35312 190.475675 
L 104.277936 190.475675 
L 107.202752 190.475675 
L 110.127568 190.475675 
L 113.052383 190.475675 
L 115.977199 190.475675 
L 118.902015 190.475675 
L 121.82683 190.475675 
L 124.751646 190.475675 
L 127.676462 190.475675 
L 130.601278 190.475675 
L 133.526093 190.475675 
L 136.450909 190.475675 
L 139.375725 190.475675 
L 142.300541 190.475675 
L 145.225356 190.471305 
L 148.150172 190.471305 
L 151.074988 190.42105 
L 153.999803 190.41668 
L 156.924619 190.414495 
L 159.849435 190.40794 
L 162.774251 190.397016 
L 165.699066 190.388276 
L 168.623882 190.359871 
L 171.548698 190.346761 
L 174.473514 190.322726 
L 177.398329 190.303061 
L 180.323145 190.259361 
L 183.247961 190.235326 
L 186.172776 190.222216 
L 189.097592 190.171962 
L 192.022408 190.141372 
L 194.947224 190.058342 
L 197.872039 189.949093 
L 200.796855 189.761183 
L 203.721671 189.616974 
L 206.646486 189.39192 
L 209.571302 189.311076 
L 212.496118 189.046692 
L 215.420934 188.893742 
L 218.345749 188.544144 
L 221.270565 188.325645 
L 224.195381 188.2448 
L 227.120197 187.748808 
L 230.045012 187.429799 
L 232.969828 186.11662 
L 235.894644 184.925801 
L 238.819459 184.873361 
L 241.744275 183.748091 
L 244.669091 182.642486 
L 247.593907 180.042348 
L 250.518722 178.877749 
L 253.443538 177.55583 
L 256.368354 175.788173 
L 259.29317 173.880677 
L 262.217985 172.027805 
L 265.142801 170.369398 
L 268.067617 167.64253 
L 270.992432 165.383251 
L 273.917248 163.558784 
L 276.842064 161.137815 
L 279.76688 159.123254 
L 282.691695 156.129818 
L 285.616511 151.993632 
L 288.541327 149.974702 
L 291.466143 146.607632 
L 294.390958 143.788995 
L 297.315774 140.059217 
L 300.24059 136.884427 
L 303.165405 133.054139 
L 306.090221 129.542861 
L 309.015037 126.132091 
L 311.939853 122.039605 
L 314.864668 118.242093 
L 317.789484 114.306926 
L 320.7143 109.07606 
L 323.639115 103.740314 
L 326.563931 97.609233 
L 329.488747 89.017852 
L 332.413563 82.543727 
L 335.338378 74.706168 
L 338.263194 67.355862 
L 341.18801 60.049256 
L 344.112826 53.247382 
L 347.037641 43.736121 
L 349.962457 35.854862 
L 352.887273 28.154957 
" style="fill:none;stroke:#ff0000;stroke-linecap:round;stroke-width:1.5;"/>
    <defs>
     <path d="M 0 1.5 
C 0.397805 1.5 0.77937 1.341951 1.06066 1.06066 
C 1.341951 0.77937 1.5 0.397805 1.5 0 
C 1.5 -0.397805 1.341951 -0.77937 1.06066 -1.06066 
C 0.77937 -1.341951 0.397805 -1.5 0 -1.5 
C -0.397805 -1.5 -0.77937 -1.341951 -1.06066 -1.06066 
C -1.341951 -0.77937 -1.5 -0.397805 -1.5 0 
C -1.5 0.397805 -1.341951 0.77937 -1.06066 1.06066 
C -0.77937 1.341951 -0.397805 1.5 0 1.5 
z
" id="mc2883f29fc" style="stroke:#ffffff;stroke-width:0.25;"/>
    </defs>
    <g clip-path="url(#p5242a69c03)">
     <use style="fill:#ff0000;stroke:#ffffff;stroke-width:0.25;" x="28.232727" xlink:href="#mc2883f29fc" y="190.48223"/>
     <use style="fill:#ff0000;stroke:#ffffff;stroke-width:0.25;" x="31.157543" xlink:href="#mc2883f29fc" y="190.48223"/>
     <use style="fill:#ff0000;stroke:#ffffff;stroke-width:0.25;" x="34.082359" xlink:href="#mc2883f29fc" y="190.48223"/>
     <use style="fill:#ff0000;stroke:#ffffff;stroke-width:0.25;" x="37.007174" xlink:href="#mc2883f29fc" y="190.48223"/>
     <use style="fill:#ff0000;stroke:#ffffff;stroke-width:0.25;" x="39.93199" xlink:href="#mc2883f29fc" y="190.48223"/>
     <use style="fill:#ff0000;stroke:#ffffff;stroke-width:0.25;" x="42.856806" xlink:href="#mc2883f29fc" y="190.48223"/>
     <use style="fill:#ff0000;stroke:#ffffff;stroke-width:0.25;" x="45.781622" xlink:href="#mc2883f29fc" y="190.48223"/>
     <use style="fill:#ff0000;stroke:#ffffff;stroke-width:0.25;" x="48.706437" xlink:href="#mc2883f29fc" y="190.48223"/>
     <use style="fill:#ff0000;stroke:#ffffff;stroke-width:0.25;" x="51.631253" xlink:href="#mc2883f29fc" y="190.480045"/>
     <use style="fill:#ff0000;stroke:#ffffff;stroke-width:0.25;" x="54.556069" xlink:href="#mc2883f29fc" y="190.480045"/>
     <use style="fill:#ff0000;stroke:#ffffff;stroke-width:0.25;" x="57.480885" xlink:href="#mc2883f29fc" y="190.480045"/>
     <use style="fill:#ff0000;stroke:#ffffff;stroke-width:0.25;" x="60.4057" xlink:href="#mc2883f29fc" y="190.47786"/>
     <use style="fill:#ff0000;stroke:#ffffff;stroke-width:0.25;" x="63.330516" xlink:href="#mc2883f29fc" y="190.475675"/>
     <use style="fill:#ff0000;stroke:#ffffff;stroke-width:0.25;" x="66.255332" xlink:href="#mc2883f29fc" y="190.475675"/>
     <use style="fill:#ff0000;stroke:#ffffff;stroke-width:0.25;" x="69.180147" xlink:href="#mc2883f29fc" y="190.475675"/>
     <use style="fill:#ff0000;stroke:#ffffff;stroke-width:0.25;" x="72.104963" xlink:href="#mc2883f29fc" y="190.475675"/>
     <use style="fill:#ff0000;stroke:#ffffff;stroke-width:0.25;" x="75.029779" xlink:href="#mc2883f29fc" y="190.475675"/>
     <use style="fill:#ff0000;stroke:#ffffff;stroke-width:0.25;" x="77.954595" xlink:href="#mc2883f29fc" y="190.475675"/>
     <use style="fill:#ff0000;stroke:#ffffff;stroke-width:0.25;" x="80.87941" xlink:href="#mc2883f29fc" y="190.475675"/>
     <use style="fill:#ff0000;stroke:#ffffff;stroke-width:0.25;" x="83.804226" xlink:href="#mc2883f29fc" y="190.475675"/>
     <use style="fill:#ff0000;stroke:#ffffff;stroke-width:0.25;" x="86.729042" xlink:href="#mc2883f29fc" y="190.475675"/>
     <use style="fill:#ff0000;stroke:#ffffff;stroke-width:0.25;" x="89.653857" xlink:href="#mc2883f29fc" y="190.475675"/>
     <use style="fill:#ff0000;stroke:#ffffff;stroke-width:0.25;" x="92.578673" xlink:href="#mc2883f29fc" y="190.475675"/>
     <use style="fill:#ff0000;stroke:#ffffff;stroke-width:0.25;" x="95.503489" xlink:href="#mc2883f29fc" y="190.475675"/>
     <use style="fill:#ff0000;stroke:#ffffff;stroke-width:0.25;" x="98.428305" xlink:href="#mc2883f29fc" y="190.475675"/>
     <use style="fill:#ff0000;stroke:#ffffff;stroke-width:0.25;" x="101.35312" xlink:href="#mc2883f29fc" y="190.475675"/>
     <use style="fill:#ff0000;stroke:#ffffff;stroke-width:0.25;" x="104.277936" xlink:href="#mc2883f29fc" y="190.475675"/>
     <use style="fill:#ff0000;stroke:#ffffff;stroke-width:0.25;" x="107.202752" xlink:href="#mc2883f29fc" y="190.475675"/>
     <use style="fill:#ff0000;stroke:#ffffff;stroke-width:0.25;" x="110.127568" xlink:href="#mc2883f29fc" y="190.475675"/>
     <use style="fill:#ff0000;stroke:#ffffff;stroke-width:0.25;" x="113.052383" xlink:href="#mc2883f29fc" y="190.475675"/>
     <use style="fill:#ff0000;stroke:#ffffff;stroke-width:0.25;" x="115.977199" xlink:href="#mc2883f29fc" y="190.475675"/>
     <use style="fill:#ff0000;stroke:#ffffff;stroke-width:0.25;" x="118.902015" xlink:href="#mc2883f29fc" y="190.475675"/>
     <use style="fill:#ff0000;stroke:#ffffff;stroke-width:0.25;" x="121.82683" xlink:href="#mc2883f29fc" y="190.475675"/>
     <use style="fill:#ff0000;stroke:#ffffff;stroke-width:0.25;" x="124.751646" xlink:href="#mc2883f29fc" y="190.475675"/>
     <use style="fill:#ff0000;stroke:#ffffff;stroke-width:0.25;" x="127.676462" xlink:href="#mc2883f29fc" y="190.475675"/>
     <use style="fill:#ff0000;stroke:#ffffff;stroke-width:0.25;" x="130.601278" xlink:href="#mc2883f29fc" y="190.475675"/>
     <use style="fill:#ff0000;stroke:#ffffff;stroke-width:0.25;" x="133.526093" xlink:href="#mc2883f29fc" y="190.475675"/>
     <use style="fill:#ff0000;stroke:#ffffff;stroke-width:0.25;" x="136.450909" xlink:href="#mc2883f29fc" y="190.475675"/>
     <use style="fill:#ff0000;stroke:#ffffff;stroke-width:0.25;" x="139.375725" xlink:href="#mc2883f29fc" y="190.475675"/>
     <use style="fill:#ff0000;stroke:#ffffff;stroke-width:0.25;" x="142.300541" xlink:href="#mc2883f29fc" y="190.475675"/>
     <use style="fill:#ff0000;stroke:#ffffff;stroke-width:0.25;" x="145.225356" xlink:href="#mc2883f29fc" y="190.471305"/>
     <use style="fill:#ff0000;stroke:#ffffff;stroke-width:0.25;" x="148.150172" xlink:href="#mc2883f29fc" y="190.471305"/>
     <use style="fill:#ff0000;stroke:#ffffff;stroke-width:0.25;" x="151.074988" xlink:href="#mc2883f29fc" y="190.42105"/>
     <use style="fill:#ff0000;stroke:#ffffff;stroke-width:0.25;" x="153.999803" xlink:href="#mc2883f29fc" y="190.41668"/>
     <use style="fill:#ff0000;stroke:#ffffff;stroke-width:0.25;" x="156.924619" xlink:href="#mc2883f29fc" y="190.414495"/>
     <use style="fill:#ff0000;stroke:#ffffff;stroke-width:0.25;" x="159.849435" xlink:href="#mc2883f29fc" y="190.40794"/>
     <use style="fill:#ff0000;stroke:#ffffff;stroke-width:0.25;" x="162.774251" xlink:href="#mc2883f29fc" y="190.397016"/>
     <use style="fill:#ff0000;stroke:#ffffff;stroke-width:0.25;" x="165.699066" xlink:href="#mc2883f29fc" y="190.388276"/>
     <use style="fill:#ff0000;stroke:#ffffff;stroke-width:0.25;" x="168.623882" xlink:href="#mc2883f29fc" y="190.359871"/>
     <use style="fill:#ff0000;stroke:#ffffff;stroke-width:0.25;" x="171.548698" xlink:href="#mc2883f29fc" y="190.346761"/>
     <use style="fill:#ff0000;stroke:#ffffff;stroke-width:0.25;" x="174.473514" xlink:href="#mc2883f29fc" y="190.322726"/>
     <use style="fill:#ff0000;stroke:#ffffff;stroke-width:0.25;" x="177.398329" xlink:href="#mc2883f29fc" y="190.303061"/>
     <use style="fill:#ff0000;stroke:#ffffff;stroke-width:0.25;" x="180.323145" xlink:href="#mc2883f29fc" y="190.259361"/>
     <use style="fill:#ff0000;stroke:#ffffff;stroke-width:0.25;" x="183.247961" xlink:href="#mc2883f29fc" y="190.235326"/>
     <use style="fill:#ff0000;stroke:#ffffff;stroke-width:0.25;" x="186.172776" xlink:href="#mc2883f29fc" y="190.222216"/>
     <use style="fill:#ff0000;stroke:#ffffff;stroke-width:0.25;" x="189.097592" xlink:href="#mc2883f29fc" y="190.171962"/>
     <use style="fill:#ff0000;stroke:#ffffff;stroke-width:0.25;" x="192.022408" xlink:href="#mc2883f29fc" y="190.141372"/>
     <use style="fill:#ff0000;stroke:#ffffff;stroke-width:0.25;" x="194.947224" xlink:href="#mc2883f29fc" y="190.058342"/>
     <use style="fill:#ff0000;stroke:#ffffff;stroke-width:0.25;" x="197.872039" xlink:href="#mc2883f29fc" y="189.949093"/>
     <use style="fill:#ff0000;stroke:#ffffff;stroke-width:0.25;" x="200.796855" xlink:href="#mc2883f29fc" y="189.761183"/>
     <use style="fill:#ff0000;stroke:#ffffff;stroke-width:0.25;" x="203.721671" xlink:href="#mc2883f29fc" y="189.616974"/>
     <use style="fill:#ff0000;stroke:#ffffff;stroke-width:0.25;" x="206.646486" xlink:href="#mc2883f29fc" y="189.39192"/>
     <use style="fill:#ff0000;stroke:#ffffff;stroke-width:0.25;" x="209.571302" xlink:href="#mc2883f29fc" y="189.311076"/>
     <use style="fill:#ff0000;stroke:#ffffff;stroke-width:0.25;" x="212.496118" xlink:href="#mc2883f29fc" y="189.046692"/>
     <use style="fill:#ff0000;stroke:#ffffff;stroke-width:0.25;" x="215.420934" xlink:href="#mc2883f29fc" y="188.893742"/>
     <use style="fill:#ff0000;stroke:#ffffff;stroke-width:0.25;" x="218.345749" xlink:href="#mc2883f29fc" y="188.544144"/>
     <use style="fill:#ff0000;stroke:#ffffff;stroke-width:0.25;" x="221.270565" xlink:href="#mc2883f29fc" y="188.325645"/>
     <use style="fill:#ff0000;stroke:#ffffff;stroke-width:0.25;" x="224.195381" xlink:href="#mc2883f29fc" y="188.2448"/>
     <use style="fill:#ff0000;stroke:#ffffff;stroke-width:0.25;" x="227.120197" xlink:href="#mc2883f29fc" y="187.748808"/>
     <use style="fill:#ff0000;stroke:#ffffff;stroke-width:0.25;" x="230.045012" xlink:href="#mc2883f29fc" y="187.429799"/>
     <use style="fill:#ff0000;stroke:#ffffff;stroke-width:0.25;" x="232.969828" xlink:href="#mc2883f29fc" y="186.11662"/>
     <use style="fill:#ff0000;stroke:#ffffff;stroke-width:0.25;" x="235.894644" xlink:href="#mc2883f29fc" y="184.925801"/>
     <use style="fill:#ff0000;stroke:#ffffff;stroke-width:0.25;" x="238.819459" xlink:href="#mc2883f29fc" y="184.873361"/>
     <use style="fill:#ff0000;stroke:#ffffff;stroke-width:0.25;" x="241.744275" xlink:href="#mc2883f29fc" y="183.748091"/>
     <use style="fill:#ff0000;stroke:#ffffff;stroke-width:0.25;" x="244.669091" xlink:href="#mc2883f29fc" y="182.642486"/>
     <use style="fill:#ff0000;stroke:#ffffff;stroke-width:0.25;" x="247.593907" xlink:href="#mc2883f29fc" y="180.042348"/>
     <use style="fill:#ff0000;stroke:#ffffff;stroke-width:0.25;" x="250.518722" xlink:href="#mc2883f29fc" y="178.877749"/>
     <use style="fill:#ff0000;stroke:#ffffff;stroke-width:0.25;" x="253.443538" xlink:href="#mc2883f29fc" y="177.55583"/>
     <use style="fill:#ff0000;stroke:#ffffff;stroke-width:0.25;" x="256.368354" xlink:href="#mc2883f29fc" y="175.788173"/>
     <use style="fill:#ff0000;stroke:#ffffff;stroke-width:0.25;" x="259.29317" xlink:href="#mc2883f29fc" y="173.880677"/>
     <use style="fill:#ff0000;stroke:#ffffff;stroke-width:0.25;" x="262.217985" xlink:href="#mc2883f29fc" y="172.027805"/>
     <use style="fill:#ff0000;stroke:#ffffff;stroke-width:0.25;" x="265.142801" xlink:href="#mc2883f29fc" y="170.369398"/>
     <use style="fill:#ff0000;stroke:#ffffff;stroke-width:0.25;" x="268.067617" xlink:href="#mc2883f29fc" y="167.64253"/>
     <use style="fill:#ff0000;stroke:#ffffff;stroke-width:0.25;" x="270.992432" xlink:href="#mc2883f29fc" y="165.383251"/>
     <use style="fill:#ff0000;stroke:#ffffff;stroke-width:0.25;" x="273.917248" xlink:href="#mc2883f29fc" y="163.558784"/>
     <use style="fill:#ff0000;stroke:#ffffff;stroke-width:0.25;" x="276.842064" xlink:href="#mc2883f29fc" y="161.137815"/>
     <use style="fill:#ff0000;stroke:#ffffff;stroke-width:0.25;" x="279.76688" xlink:href="#mc2883f29fc" y="159.123254"/>
     <use style="fill:#ff0000;stroke:#ffffff;stroke-width:0.25;" x="282.691695" xlink:href="#mc2883f29fc" y="156.129818"/>
     <use style="fill:#ff0000;stroke:#ffffff;stroke-width:0.25;" x="285.616511" xlink:href="#mc2883f29fc" y="151.993632"/>
     <use style="fill:#ff0000;stroke:#ffffff;stroke-width:0.25;" x="288.541327" xlink:href="#mc2883f29fc" y="149.974702"/>
     <use style="fill:#ff0000;stroke:#ffffff;stroke-width:0.25;" x="291.466143" xlink:href="#mc2883f29fc" y="146.607632"/>
     <use style="fill:#ff0000;stroke:#ffffff;stroke-width:0.25;" x="294.390958" xlink:href="#mc2883f29fc" y="143.788995"/>
     <use style="fill:#ff0000;stroke:#ffffff;stroke-width:0.25;" x="297.315774" xlink:href="#mc2883f29fc" y="140.059217"/>
     <use style="fill:#ff0000;stroke:#ffffff;stroke-width:0.25;" x="300.24059" xlink:href="#mc2883f29fc" y="136.884427"/>
     <use style="fill:#ff0000;stroke:#ffffff;stroke-width:0.25;" x="303.165405" xlink:href="#mc2883f29fc" y="133.054139"/>
     <use style="fill:#ff0000;stroke:#ffffff;stroke-width:0.25;" x="306.090221" xlink:href="#mc2883f29fc" y="129.542861"/>
     <use style="fill:#ff0000;stroke:#ffffff;stroke-width:0.25;" x="309.015037" xlink:href="#mc2883f29fc" y="126.132091"/>
     <use style="fill:#ff0000;stroke:#ffffff;stroke-width:0.25;" x="311.939853" xlink:href="#mc2883f29fc" y="122.039605"/>
     <use style="fill:#ff0000;stroke:#ffffff;stroke-width:0.25;" x="314.864668" xlink:href="#mc2883f29fc" y="118.242093"/>
     <use style="fill:#ff0000;stroke:#ffffff;stroke-width:0.25;" x="317.789484" xlink:href="#mc2883f29fc" y="114.306926"/>
     <use style="fill:#ff0000;stroke:#ffffff;stroke-width:0.25;" x="320.7143" xlink:href="#mc2883f29fc" y="109.07606"/>
     <use style="fill:#ff0000;stroke:#ffffff;stroke-width:0.25;" x="323.639115" xlink:href="#mc2883f29fc" y="103.740314"/>
     <use style="fill:#ff0000;stroke:#ffffff;stroke-width:0.25;" x="326.563931" xlink:href="#mc2883f29fc" y="97.609233"/>
     <use style="fill:#ff0000;stroke:#ffffff;stroke-width:0.25;" x="329.488747" xlink:href="#mc2883f29fc" y="89.017852"/>
     <use style="fill:#ff0000;stroke:#ffffff;stroke-width:0.25;" x="332.413563" xlink:href="#mc2883f29fc" y="82.543727"/>
     <use style="fill:#ff0000;stroke:#ffffff;stroke-width:0.25;" x="335.338378" xlink:href="#mc2883f29fc" y="74.706168"/>
     <use style="fill:#ff0000;stroke:#ffffff;stroke-width:0.25;" x="338.263194" xlink:href="#mc2883f29fc" y="67.355862"/>
     <use style="fill:#ff0000;stroke:#ffffff;stroke-width:0.25;" x="341.18801" xlink:href="#mc2883f29fc" y="60.049256"/>
     <use style="fill:#ff0000;stroke:#ffffff;stroke-width:0.25;" x="344.112826" xlink:href="#mc2883f29fc" y="53.247382"/>
     <use style="fill:#ff0000;stroke:#ffffff;stroke-width:0.25;" x="347.037641" xlink:href="#mc2883f29fc" y="43.736121"/>
     <use style="fill:#ff0000;stroke:#ffffff;stroke-width:0.25;" x="349.962457" xlink:href="#mc2883f29fc" y="35.854862"/>
     <use style="fill:#ff0000;stroke:#ffffff;stroke-width:0.25;" x="352.887273" xlink:href="#mc2883f29fc" y="28.154957"/>
    </g>
   </g>
   <g id="line2d_18">
    <path clip-path="url(#p5242a69c03)" d="M 28.232727 190.48223 
L 31.157543 190.48223 
L 34.082359 190.48223 
L 37.007174 190.48223 
L 39.93199 190.48223 
L 42.856806 190.48223 
L 45.781622 190.48223 
L 48.706437 190.48223 
L 51.631253 190.48223 
L 54.556069 190.48223 
L 57.480885 190.48223 
L 60.4057 190.48223 
L 63.330516 190.48223 
L 66.255332 190.48223 
L 69.180147 190.48223 
L 72.104963 190.48223 
L 75.029779 190.48223 
L 77.954595 190.48223 
L 80.87941 190.48223 
L 83.804226 190.48223 
L 86.729042 190.48223 
L 89.653857 190.48223 
L 92.578673 190.48223 
L 95.503489 190.48223 
L 98.428305 190.48223 
L 101.35312 190.475675 
L 104.277936 190.475675 
L 107.202752 190.475675 
L 110.127568 190.475675 
L 113.052383 190.475675 
L 115.977199 190.475675 
L 118.902015 190.475675 
L 121.82683 190.475675 
L 124.751646 190.475675 
L 127.676462 190.475675 
L 130.601278 190.475675 
L 133.526093 190.475675 
L 136.450909 190.475675 
L 139.375725 190.475675 
L 142.300541 190.475675 
L 145.225356 190.475675 
L 148.150172 190.475675 
L 151.074988 190.475675 
L 153.999803 190.475675 
L 156.924619 190.475675 
L 159.849435 190.475675 
L 162.774251 190.475675 
L 165.699066 190.475675 
L 168.623882 190.47349 
L 171.548698 190.47349 
L 174.473514 190.47349 
L 177.398329 190.47349 
L 180.323145 190.47349 
L 183.247961 190.453825 
L 186.172776 190.453825 
L 189.097592 190.45164 
L 192.022408 190.45164 
L 194.947224 190.449455 
L 197.872039 190.43853 
L 200.796855 190.431975 
L 203.721671 190.423235 
L 206.646486 190.423235 
L 209.571302 190.394831 
L 212.496118 190.388276 
L 215.420934 190.383906 
L 218.345749 190.322726 
L 221.270565 190.298691 
L 224.195381 190.274656 
L 227.120197 190.259361 
L 230.045012 190.213476 
L 232.969828 190.158852 
L 235.894644 190.064897 
L 238.819459 190.062712 
L 241.744275 189.981867 
L 244.669091 189.981867 
L 247.593907 189.662859 
L 250.518722 189.562349 
L 253.443538 189.376625 
L 256.368354 189.127536 
L 259.29317 188.791048 
L 262.217985 188.364975 
L 265.142801 188.122441 
L 268.067617 187.901757 
L 270.992432 187.512829 
L 273.917248 187.353325 
L 276.842064 186.619168 
L 279.76688 186.022666 
L 282.691695 185.1006 
L 285.616511 184.246269 
L 288.541327 183.330758 
L 291.466143 181.796895 
L 294.390958 180.933824 
L 297.315774 179.531061 
L 300.24059 178.469155 
L 303.165405 177.505575 
L 306.090221 176.229541 
L 309.015037 174.887957 
L 311.939853 173.555113 
L 314.864668 172.04747 
L 317.789484 170.668741 
L 320.7143 168.617036 
L 323.639115 166.842824 
L 326.563931 164.753974 
L 329.488747 162.411664 
L 332.413563 159.582102 
L 335.338378 156.984149 
L 338.263194 153.826839 
L 341.18801 151.399315 
L 344.112826 148.309739 
L 347.037641 144.665176 
L 349.962457 141.212892 
L 352.887273 137.124776 
" style="fill:none;stroke:#008000;stroke-linecap:round;stroke-width:1.5;"/>
    <defs>
     <path d="M -0 2.12132 
L 1.272792 0 
L 0 -2.12132 
L -1.272792 -0 
z
" id="m52d1e1214d" style="stroke:#ffffff;stroke-linejoin:miter;stroke-width:0.25;"/>
    </defs>
    <g clip-path="url(#p5242a69c03)">
     <use style="fill:#008000;stroke:#ffffff;stroke-linejoin:miter;stroke-width:0.25;" x="28.232727" xlink:href="#m52d1e1214d" y="190.48223"/>
     <use style="fill:#008000;stroke:#ffffff;stroke-linejoin:miter;stroke-width:0.25;" x="31.157543" xlink:href="#m52d1e1214d" y="190.48223"/>
     <use style="fill:#008000;stroke:#ffffff;stroke-linejoin:miter;stroke-width:0.25;" x="34.082359" xlink:href="#m52d1e1214d" y="190.48223"/>
     <use style="fill:#008000;stroke:#ffffff;stroke-linejoin:miter;stroke-width:0.25;" x="37.007174" xlink:href="#m52d1e1214d" y="190.48223"/>
     <use style="fill:#008000;stroke:#ffffff;stroke-linejoin:miter;stroke-width:0.25;" x="39.93199" xlink:href="#m52d1e1214d" y="190.48223"/>
     <use style="fill:#008000;stroke:#ffffff;stroke-linejoin:miter;stroke-width:0.25;" x="42.856806" xlink:href="#m52d1e1214d" y="190.48223"/>
     <use style="fill:#008000;stroke:#ffffff;stroke-linejoin:miter;stroke-width:0.25;" x="45.781622" xlink:href="#m52d1e1214d" y="190.48223"/>
     <use style="fill:#008000;stroke:#ffffff;stroke-linejoin:miter;stroke-width:0.25;" x="48.706437" xlink:href="#m52d1e1214d" y="190.48223"/>
     <use style="fill:#008000;stroke:#ffffff;stroke-linejoin:miter;stroke-width:0.25;" x="51.631253" xlink:href="#m52d1e1214d" y="190.48223"/>
     <use style="fill:#008000;stroke:#ffffff;stroke-linejoin:miter;stroke-width:0.25;" x="54.556069" xlink:href="#m52d1e1214d" y="190.48223"/>
     <use style="fill:#008000;stroke:#ffffff;stroke-linejoin:miter;stroke-width:0.25;" x="57.480885" xlink:href="#m52d1e1214d" y="190.48223"/>
     <use style="fill:#008000;stroke:#ffffff;stroke-linejoin:miter;stroke-width:0.25;" x="60.4057" xlink:href="#m52d1e1214d" y="190.48223"/>
     <use style="fill:#008000;stroke:#ffffff;stroke-linejoin:miter;stroke-width:0.25;" x="63.330516" xlink:href="#m52d1e1214d" y="190.48223"/>
     <use style="fill:#008000;stroke:#ffffff;stroke-linejoin:miter;stroke-width:0.25;" x="66.255332" xlink:href="#m52d1e1214d" y="190.48223"/>
     <use style="fill:#008000;stroke:#ffffff;stroke-linejoin:miter;stroke-width:0.25;" x="69.180147" xlink:href="#m52d1e1214d" y="190.48223"/>
     <use style="fill:#008000;stroke:#ffffff;stroke-linejoin:miter;stroke-width:0.25;" x="72.104963" xlink:href="#m52d1e1214d" y="190.48223"/>
     <use style="fill:#008000;stroke:#ffffff;stroke-linejoin:miter;stroke-width:0.25;" x="75.029779" xlink:href="#m52d1e1214d" y="190.48223"/>
     <use style="fill:#008000;stroke:#ffffff;stroke-linejoin:miter;stroke-width:0.25;" x="77.954595" xlink:href="#m52d1e1214d" y="190.48223"/>
     <use style="fill:#008000;stroke:#ffffff;stroke-linejoin:miter;stroke-width:0.25;" x="80.87941" xlink:href="#m52d1e1214d" y="190.48223"/>
     <use style="fill:#008000;stroke:#ffffff;stroke-linejoin:miter;stroke-width:0.25;" x="83.804226" xlink:href="#m52d1e1214d" y="190.48223"/>
     <use style="fill:#008000;stroke:#ffffff;stroke-linejoin:miter;stroke-width:0.25;" x="86.729042" xlink:href="#m52d1e1214d" y="190.48223"/>
     <use style="fill:#008000;stroke:#ffffff;stroke-linejoin:miter;stroke-width:0.25;" x="89.653857" xlink:href="#m52d1e1214d" y="190.48223"/>
     <use style="fill:#008000;stroke:#ffffff;stroke-linejoin:miter;stroke-width:0.25;" x="92.578673" xlink:href="#m52d1e1214d" y="190.48223"/>
     <use style="fill:#008000;stroke:#ffffff;stroke-linejoin:miter;stroke-width:0.25;" x="95.503489" xlink:href="#m52d1e1214d" y="190.48223"/>
     <use style="fill:#008000;stroke:#ffffff;stroke-linejoin:miter;stroke-width:0.25;" x="98.428305" xlink:href="#m52d1e1214d" y="190.48223"/>
     <use style="fill:#008000;stroke:#ffffff;stroke-linejoin:miter;stroke-width:0.25;" x="101.35312" xlink:href="#m52d1e1214d" y="190.475675"/>
     <use style="fill:#008000;stroke:#ffffff;stroke-linejoin:miter;stroke-width:0.25;" x="104.277936" xlink:href="#m52d1e1214d" y="190.475675"/>
     <use style="fill:#008000;stroke:#ffffff;stroke-linejoin:miter;stroke-width:0.25;" x="107.202752" xlink:href="#m52d1e1214d" y="190.475675"/>
     <use style="fill:#008000;stroke:#ffffff;stroke-linejoin:miter;stroke-width:0.25;" x="110.127568" xlink:href="#m52d1e1214d" y="190.475675"/>
     <use style="fill:#008000;stroke:#ffffff;stroke-linejoin:miter;stroke-width:0.25;" x="113.052383" xlink:href="#m52d1e1214d" y="190.475675"/>
     <use style="fill:#008000;stroke:#ffffff;stroke-linejoin:miter;stroke-width:0.25;" x="115.977199" xlink:href="#m52d1e1214d" y="190.475675"/>
     <use style="fill:#008000;stroke:#ffffff;stroke-linejoin:miter;stroke-width:0.25;" x="118.902015" xlink:href="#m52d1e1214d" y="190.475675"/>
     <use style="fill:#008000;stroke:#ffffff;stroke-linejoin:miter;stroke-width:0.25;" x="121.82683" xlink:href="#m52d1e1214d" y="190.475675"/>
     <use style="fill:#008000;stroke:#ffffff;stroke-linejoin:miter;stroke-width:0.25;" x="124.751646" xlink:href="#m52d1e1214d" y="190.475675"/>
     <use style="fill:#008000;stroke:#ffffff;stroke-linejoin:miter;stroke-width:0.25;" x="127.676462" xlink:href="#m52d1e1214d" y="190.475675"/>
     <use style="fill:#008000;stroke:#ffffff;stroke-linejoin:miter;stroke-width:0.25;" x="130.601278" xlink:href="#m52d1e1214d" y="190.475675"/>
     <use style="fill:#008000;stroke:#ffffff;stroke-linejoin:miter;stroke-width:0.25;" x="133.526093" xlink:href="#m52d1e1214d" y="190.475675"/>
     <use style="fill:#008000;stroke:#ffffff;stroke-linejoin:miter;stroke-width:0.25;" x="136.450909" xlink:href="#m52d1e1214d" y="190.475675"/>
     <use style="fill:#008000;stroke:#ffffff;stroke-linejoin:miter;stroke-width:0.25;" x="139.375725" xlink:href="#m52d1e1214d" y="190.475675"/>
     <use style="fill:#008000;stroke:#ffffff;stroke-linejoin:miter;stroke-width:0.25;" x="142.300541" xlink:href="#m52d1e1214d" y="190.475675"/>
     <use style="fill:#008000;stroke:#ffffff;stroke-linejoin:miter;stroke-width:0.25;" x="145.225356" xlink:href="#m52d1e1214d" y="190.475675"/>
     <use style="fill:#008000;stroke:#ffffff;stroke-linejoin:miter;stroke-width:0.25;" x="148.150172" xlink:href="#m52d1e1214d" y="190.475675"/>
     <use style="fill:#008000;stroke:#ffffff;stroke-linejoin:miter;stroke-width:0.25;" x="151.074988" xlink:href="#m52d1e1214d" y="190.475675"/>
     <use style="fill:#008000;stroke:#ffffff;stroke-linejoin:miter;stroke-width:0.25;" x="153.999803" xlink:href="#m52d1e1214d" y="190.475675"/>
     <use style="fill:#008000;stroke:#ffffff;stroke-linejoin:miter;stroke-width:0.25;" x="156.924619" xlink:href="#m52d1e1214d" y="190.475675"/>
     <use style="fill:#008000;stroke:#ffffff;stroke-linejoin:miter;stroke-width:0.25;" x="159.849435" xlink:href="#m52d1e1214d" y="190.475675"/>
     <use style="fill:#008000;stroke:#ffffff;stroke-linejoin:miter;stroke-width:0.25;" x="162.774251" xlink:href="#m52d1e1214d" y="190.475675"/>
     <use style="fill:#008000;stroke:#ffffff;stroke-linejoin:miter;stroke-width:0.25;" x="165.699066" xlink:href="#m52d1e1214d" y="190.475675"/>
     <use style="fill:#008000;stroke:#ffffff;stroke-linejoin:miter;stroke-width:0.25;" x="168.623882" xlink:href="#m52d1e1214d" y="190.47349"/>
     <use style="fill:#008000;stroke:#ffffff;stroke-linejoin:miter;stroke-width:0.25;" x="171.548698" xlink:href="#m52d1e1214d" y="190.47349"/>
     <use style="fill:#008000;stroke:#ffffff;stroke-linejoin:miter;stroke-width:0.25;" x="174.473514" xlink:href="#m52d1e1214d" y="190.47349"/>
     <use style="fill:#008000;stroke:#ffffff;stroke-linejoin:miter;stroke-width:0.25;" x="177.398329" xlink:href="#m52d1e1214d" y="190.47349"/>
     <use style="fill:#008000;stroke:#ffffff;stroke-linejoin:miter;stroke-width:0.25;" x="180.323145" xlink:href="#m52d1e1214d" y="190.47349"/>
     <use style="fill:#008000;stroke:#ffffff;stroke-linejoin:miter;stroke-width:0.25;" x="183.247961" xlink:href="#m52d1e1214d" y="190.453825"/>
     <use style="fill:#008000;stroke:#ffffff;stroke-linejoin:miter;stroke-width:0.25;" x="186.172776" xlink:href="#m52d1e1214d" y="190.453825"/>
     <use style="fill:#008000;stroke:#ffffff;stroke-linejoin:miter;stroke-width:0.25;" x="189.097592" xlink:href="#m52d1e1214d" y="190.45164"/>
     <use style="fill:#008000;stroke:#ffffff;stroke-linejoin:miter;stroke-width:0.25;" x="192.022408" xlink:href="#m52d1e1214d" y="190.45164"/>
     <use style="fill:#008000;stroke:#ffffff;stroke-linejoin:miter;stroke-width:0.25;" x="194.947224" xlink:href="#m52d1e1214d" y="190.449455"/>
     <use style="fill:#008000;stroke:#ffffff;stroke-linejoin:miter;stroke-width:0.25;" x="197.872039" xlink:href="#m52d1e1214d" y="190.43853"/>
     <use style="fill:#008000;stroke:#ffffff;stroke-linejoin:miter;stroke-width:0.25;" x="200.796855" xlink:href="#m52d1e1214d" y="190.431975"/>
     <use style="fill:#008000;stroke:#ffffff;stroke-linejoin:miter;stroke-width:0.25;" x="203.721671" xlink:href="#m52d1e1214d" y="190.423235"/>
     <use style="fill:#008000;stroke:#ffffff;stroke-linejoin:miter;stroke-width:0.25;" x="206.646486" xlink:href="#m52d1e1214d" y="190.423235"/>
     <use style="fill:#008000;stroke:#ffffff;stroke-linejoin:miter;stroke-width:0.25;" x="209.571302" xlink:href="#m52d1e1214d" y="190.394831"/>
     <use style="fill:#008000;stroke:#ffffff;stroke-linejoin:miter;stroke-width:0.25;" x="212.496118" xlink:href="#m52d1e1214d" y="190.388276"/>
     <use style="fill:#008000;stroke:#ffffff;stroke-linejoin:miter;stroke-width:0.25;" x="215.420934" xlink:href="#m52d1e1214d" y="190.383906"/>
     <use style="fill:#008000;stroke:#ffffff;stroke-linejoin:miter;stroke-width:0.25;" x="218.345749" xlink:href="#m52d1e1214d" y="190.322726"/>
     <use style="fill:#008000;stroke:#ffffff;stroke-linejoin:miter;stroke-width:0.25;" x="221.270565" xlink:href="#m52d1e1214d" y="190.298691"/>
     <use style="fill:#008000;stroke:#ffffff;stroke-linejoin:miter;stroke-width:0.25;" x="224.195381" xlink:href="#m52d1e1214d" y="190.274656"/>
     <use style="fill:#008000;stroke:#ffffff;stroke-linejoin:miter;stroke-width:0.25;" x="227.120197" xlink:href="#m52d1e1214d" y="190.259361"/>
     <use style="fill:#008000;stroke:#ffffff;stroke-linejoin:miter;stroke-width:0.25;" x="230.045012" xlink:href="#m52d1e1214d" y="190.213476"/>
     <use style="fill:#008000;stroke:#ffffff;stroke-linejoin:miter;stroke-width:0.25;" x="232.969828" xlink:href="#m52d1e1214d" y="190.158852"/>
     <use style="fill:#008000;stroke:#ffffff;stroke-linejoin:miter;stroke-width:0.25;" x="235.894644" xlink:href="#m52d1e1214d" y="190.064897"/>
     <use style="fill:#008000;stroke:#ffffff;stroke-linejoin:miter;stroke-width:0.25;" x="238.819459" xlink:href="#m52d1e1214d" y="190.062712"/>
     <use style="fill:#008000;stroke:#ffffff;stroke-linejoin:miter;stroke-width:0.25;" x="241.744275" xlink:href="#m52d1e1214d" y="189.981867"/>
     <use style="fill:#008000;stroke:#ffffff;stroke-linejoin:miter;stroke-width:0.25;" x="244.669091" xlink:href="#m52d1e1214d" y="189.981867"/>
     <use style="fill:#008000;stroke:#ffffff;stroke-linejoin:miter;stroke-width:0.25;" x="247.593907" xlink:href="#m52d1e1214d" y="189.662859"/>
     <use style="fill:#008000;stroke:#ffffff;stroke-linejoin:miter;stroke-width:0.25;" x="250.518722" xlink:href="#m52d1e1214d" y="189.562349"/>
     <use style="fill:#008000;stroke:#ffffff;stroke-linejoin:miter;stroke-width:0.25;" x="253.443538" xlink:href="#m52d1e1214d" y="189.376625"/>
     <use style="fill:#008000;stroke:#ffffff;stroke-linejoin:miter;stroke-width:0.25;" x="256.368354" xlink:href="#m52d1e1214d" y="189.127536"/>
     <use style="fill:#008000;stroke:#ffffff;stroke-linejoin:miter;stroke-width:0.25;" x="259.29317" xlink:href="#m52d1e1214d" y="188.791048"/>
     <use style="fill:#008000;stroke:#ffffff;stroke-linejoin:miter;stroke-width:0.25;" x="262.217985" xlink:href="#m52d1e1214d" y="188.364975"/>
     <use style="fill:#008000;stroke:#ffffff;stroke-linejoin:miter;stroke-width:0.25;" x="265.142801" xlink:href="#m52d1e1214d" y="188.122441"/>
     <use style="fill:#008000;stroke:#ffffff;stroke-linejoin:miter;stroke-width:0.25;" x="268.067617" xlink:href="#m52d1e1214d" y="187.901757"/>
     <use style="fill:#008000;stroke:#ffffff;stroke-linejoin:miter;stroke-width:0.25;" x="270.992432" xlink:href="#m52d1e1214d" y="187.512829"/>
     <use style="fill:#008000;stroke:#ffffff;stroke-linejoin:miter;stroke-width:0.25;" x="273.917248" xlink:href="#m52d1e1214d" y="187.353325"/>
     <use style="fill:#008000;stroke:#ffffff;stroke-linejoin:miter;stroke-width:0.25;" x="276.842064" xlink:href="#m52d1e1214d" y="186.619168"/>
     <use style="fill:#008000;stroke:#ffffff;stroke-linejoin:miter;stroke-width:0.25;" x="279.76688" xlink:href="#m52d1e1214d" y="186.022666"/>
     <use style="fill:#008000;stroke:#ffffff;stroke-linejoin:miter;stroke-width:0.25;" x="282.691695" xlink:href="#m52d1e1214d" y="185.1006"/>
     <use style="fill:#008000;stroke:#ffffff;stroke-linejoin:miter;stroke-width:0.25;" x="285.616511" xlink:href="#m52d1e1214d" y="184.246269"/>
     <use style="fill:#008000;stroke:#ffffff;stroke-linejoin:miter;stroke-width:0.25;" x="288.541327" xlink:href="#m52d1e1214d" y="183.330758"/>
     <use style="fill:#008000;stroke:#ffffff;stroke-linejoin:miter;stroke-width:0.25;" x="291.466143" xlink:href="#m52d1e1214d" y="181.796895"/>
     <use style="fill:#008000;stroke:#ffffff;stroke-linejoin:miter;stroke-width:0.25;" x="294.390958" xlink:href="#m52d1e1214d" y="180.933824"/>
     <use style="fill:#008000;stroke:#ffffff;stroke-linejoin:miter;stroke-width:0.25;" x="297.315774" xlink:href="#m52d1e1214d" y="179.531061"/>
     <use style="fill:#008000;stroke:#ffffff;stroke-linejoin:miter;stroke-width:0.25;" x="300.24059" xlink:href="#m52d1e1214d" y="178.469155"/>
     <use style="fill:#008000;stroke:#ffffff;stroke-linejoin:miter;stroke-width:0.25;" x="303.165405" xlink:href="#m52d1e1214d" y="177.505575"/>
     <use style="fill:#008000;stroke:#ffffff;stroke-linejoin:miter;stroke-width:0.25;" x="306.090221" xlink:href="#m52d1e1214d" y="176.229541"/>
     <use style="fill:#008000;stroke:#ffffff;stroke-linejoin:miter;stroke-width:0.25;" x="309.015037" xlink:href="#m52d1e1214d" y="174.887957"/>
     <use style="fill:#008000;stroke:#ffffff;stroke-linejoin:miter;stroke-width:0.25;" x="311.939853" xlink:href="#m52d1e1214d" y="173.555113"/>
     <use style="fill:#008000;stroke:#ffffff;stroke-linejoin:miter;stroke-width:0.25;" x="314.864668" xlink:href="#m52d1e1214d" y="172.04747"/>
     <use style="fill:#008000;stroke:#ffffff;stroke-linejoin:miter;stroke-width:0.25;" x="317.789484" xlink:href="#m52d1e1214d" y="170.668741"/>
     <use style="fill:#008000;stroke:#ffffff;stroke-linejoin:miter;stroke-width:0.25;" x="320.7143" xlink:href="#m52d1e1214d" y="168.617036"/>
     <use style="fill:#008000;stroke:#ffffff;stroke-linejoin:miter;stroke-width:0.25;" x="323.639115" xlink:href="#m52d1e1214d" y="166.842824"/>
     <use style="fill:#008000;stroke:#ffffff;stroke-linejoin:miter;stroke-width:0.25;" x="326.563931" xlink:href="#m52d1e1214d" y="164.753974"/>
     <use style="fill:#008000;stroke:#ffffff;stroke-linejoin:miter;stroke-width:0.25;" x="329.488747" xlink:href="#m52d1e1214d" y="162.411664"/>
     <use style="fill:#008000;stroke:#ffffff;stroke-linejoin:miter;stroke-width:0.25;" x="332.413563" xlink:href="#m52d1e1214d" y="159.582102"/>
     <use style="fill:#008000;stroke:#ffffff;stroke-linejoin:miter;stroke-width:0.25;" x="335.338378" xlink:href="#m52d1e1214d" y="156.984149"/>
     <use style="fill:#008000;stroke:#ffffff;stroke-linejoin:miter;stroke-width:0.25;" x="338.263194" xlink:href="#m52d1e1214d" y="153.826839"/>
     <use style="fill:#008000;stroke:#ffffff;stroke-linejoin:miter;stroke-width:0.25;" x="341.18801" xlink:href="#m52d1e1214d" y="151.399315"/>
     <use style="fill:#008000;stroke:#ffffff;stroke-linejoin:miter;stroke-width:0.25;" x="344.112826" xlink:href="#m52d1e1214d" y="148.309739"/>
     <use style="fill:#008000;stroke:#ffffff;stroke-linejoin:miter;stroke-width:0.25;" x="347.037641" xlink:href="#m52d1e1214d" y="144.665176"/>
     <use style="fill:#008000;stroke:#ffffff;stroke-linejoin:miter;stroke-width:0.25;" x="349.962457" xlink:href="#m52d1e1214d" y="141.212892"/>
     <use style="fill:#008000;stroke:#ffffff;stroke-linejoin:miter;stroke-width:0.25;" x="352.887273" xlink:href="#m52d1e1214d" y="137.124776"/>
    </g>
   </g>
   <g id="line2d_19">
    <path clip-path="url(#p5242a69c03)" d="M 28.232727 190.48223 
L 31.157543 190.48223 
L 34.082359 190.48223 
L 37.007174 190.48223 
L 39.93199 190.48223 
L 42.856806 190.48223 
L 45.781622 190.48223 
L 48.706437 190.48223 
L 51.631253 190.48223 
L 54.556069 190.48223 
L 57.480885 190.48223 
L 60.4057 190.48223 
L 63.330516 190.48223 
L 66.255332 190.48223 
L 69.180147 190.48223 
L 72.104963 190.48223 
L 75.029779 190.48223 
L 77.954595 190.48223 
L 80.87941 190.48223 
L 83.804226 190.48223 
L 86.729042 190.48223 
L 89.653857 190.48223 
L 92.578673 190.48223 
L 95.503489 190.48223 
L 98.428305 190.48223 
L 101.35312 190.48223 
L 104.277936 190.48223 
L 107.202752 190.48223 
L 110.127568 190.48223 
L 113.052383 190.48223 
L 115.977199 190.48223 
L 118.902015 190.48223 
L 121.82683 190.48223 
L 124.751646 190.48223 
L 127.676462 190.48223 
L 130.601278 190.48223 
L 133.526093 190.48223 
L 136.450909 190.48223 
L 139.375725 190.48223 
L 142.300541 190.48223 
L 145.225356 190.48223 
L 148.150172 190.48223 
L 151.074988 190.48223 
L 153.999803 190.48223 
L 156.924619 190.48223 
L 159.849435 190.48223 
L 162.774251 190.48223 
L 165.699066 190.48223 
L 168.623882 190.48223 
L 171.548698 190.480045 
L 174.473514 190.480045 
L 177.398329 190.47786 
L 180.323145 190.47786 
L 183.247961 190.47786 
L 186.172776 190.47786 
L 189.097592 190.475675 
L 192.022408 190.475675 
L 194.947224 190.47349 
L 197.872039 190.471305 
L 200.796855 190.47349 
L 203.721671 190.466935 
L 206.646486 190.46038 
L 209.571302 190.46038 
L 212.496118 190.45601 
L 215.420934 190.43853 
L 218.345749 190.43853 
L 221.270565 190.42979 
L 224.195381 190.423235 
L 227.120197 190.41231 
L 230.045012 190.405755 
L 232.969828 190.355501 
L 235.894644 190.324911 
L 238.819459 190.324911 
L 241.744275 190.294321 
L 244.669091 190.265916 
L 247.593907 190.185071 
L 250.518722 190.154482 
L 253.443538 190.093302 
L 256.368354 189.988422 
L 259.29317 189.944723 
L 262.217985 189.852953 
L 265.142801 189.758998 
L 268.067617 189.700004 
L 270.992432 189.623529 
L 273.917248 189.597309 
L 276.842064 189.503355 
L 279.76688 189.420325 
L 282.691695 189.34385 
L 285.616511 189.260821 
L 288.541327 189.188716 
L 291.466143 189.072912 
L 294.390958 188.994252 
L 297.315774 188.906852 
L 300.24059 188.777938 
L 303.165405 188.679613 
L 306.090221 188.557254 
L 309.015037 188.430525 
L 311.939853 188.27976 
L 314.864668 188.124626 
L 317.789484 187.960752 
L 320.7143 187.809987 
L 323.639115 187.591488 
L 326.563931 187.442909 
L 329.488747 187.060536 
L 332.413563 186.783042 
L 335.338378 186.582023 
L 338.263194 186.354784 
L 341.18801 186.145025 
L 344.112826 185.891566 
L 347.037641 185.649032 
L 349.962457 185.469863 
L 352.887273 185.205479 
" style="fill:none;stroke:#808080;stroke-linecap:round;stroke-width:1.5;"/>
    <defs>
     <path d="M -0.75 1.5 
L 0 0.75 
L 0.75 1.5 
L 1.5 0.75 
L 0.75 0 
L 1.5 -0.75 
L 0.75 -1.5 
L 0 -0.75 
L -0.75 -1.5 
L -1.5 -0.75 
L -0.75 0 
L -1.5 0.75 
z
" id="m2f361f7502" style="stroke:#ffffff;stroke-linejoin:miter;stroke-width:0.25;"/>
    </defs>
    <g clip-path="url(#p5242a69c03)">
     <use style="fill:#808080;stroke:#ffffff;stroke-linejoin:miter;stroke-width:0.25;" x="28.232727" xlink:href="#m2f361f7502" y="190.48223"/>
     <use style="fill:#808080;stroke:#ffffff;stroke-linejoin:miter;stroke-width:0.25;" x="31.157543" xlink:href="#m2f361f7502" y="190.48223"/>
     <use style="fill:#808080;stroke:#ffffff;stroke-linejoin:miter;stroke-width:0.25;" x="34.082359" xlink:href="#m2f361f7502" y="190.48223"/>
     <use style="fill:#808080;stroke:#ffffff;stroke-linejoin:miter;stroke-width:0.25;" x="37.007174" xlink:href="#m2f361f7502" y="190.48223"/>
     <use style="fill:#808080;stroke:#ffffff;stroke-linejoin:miter;stroke-width:0.25;" x="39.93199" xlink:href="#m2f361f7502" y="190.48223"/>
     <use style="fill:#808080;stroke:#ffffff;stroke-linejoin:miter;stroke-width:0.25;" x="42.856806" xlink:href="#m2f361f7502" y="190.48223"/>
     <use style="fill:#808080;stroke:#ffffff;stroke-linejoin:miter;stroke-width:0.25;" x="45.781622" xlink:href="#m2f361f7502" y="190.48223"/>
     <use style="fill:#808080;stroke:#ffffff;stroke-linejoin:miter;stroke-width:0.25;" x="48.706437" xlink:href="#m2f361f7502" y="190.48223"/>
     <use style="fill:#808080;stroke:#ffffff;stroke-linejoin:miter;stroke-width:0.25;" x="51.631253" xlink:href="#m2f361f7502" y="190.48223"/>
     <use style="fill:#808080;stroke:#ffffff;stroke-linejoin:miter;stroke-width:0.25;" x="54.556069" xlink:href="#m2f361f7502" y="190.48223"/>
     <use style="fill:#808080;stroke:#ffffff;stroke-linejoin:miter;stroke-width:0.25;" x="57.480885" xlink:href="#m2f361f7502" y="190.48223"/>
     <use style="fill:#808080;stroke:#ffffff;stroke-linejoin:miter;stroke-width:0.25;" x="60.4057" xlink:href="#m2f361f7502" y="190.48223"/>
     <use style="fill:#808080;stroke:#ffffff;stroke-linejoin:miter;stroke-width:0.25;" x="63.330516" xlink:href="#m2f361f7502" y="190.48223"/>
     <use style="fill:#808080;stroke:#ffffff;stroke-linejoin:miter;stroke-width:0.25;" x="66.255332" xlink:href="#m2f361f7502" y="190.48223"/>
     <use style="fill:#808080;stroke:#ffffff;stroke-linejoin:miter;stroke-width:0.25;" x="69.180147" xlink:href="#m2f361f7502" y="190.48223"/>
     <use style="fill:#808080;stroke:#ffffff;stroke-linejoin:miter;stroke-width:0.25;" x="72.104963" xlink:href="#m2f361f7502" y="190.48223"/>
     <use style="fill:#808080;stroke:#ffffff;stroke-linejoin:miter;stroke-width:0.25;" x="75.029779" xlink:href="#m2f361f7502" y="190.48223"/>
     <use style="fill:#808080;stroke:#ffffff;stroke-linejoin:miter;stroke-width:0.25;" x="77.954595" xlink:href="#m2f361f7502" y="190.48223"/>
     <use style="fill:#808080;stroke:#ffffff;stroke-linejoin:miter;stroke-width:0.25;" x="80.87941" xlink:href="#m2f361f7502" y="190.48223"/>
     <use style="fill:#808080;stroke:#ffffff;stroke-linejoin:miter;stroke-width:0.25;" x="83.804226" xlink:href="#m2f361f7502" y="190.48223"/>
     <use style="fill:#808080;stroke:#ffffff;stroke-linejoin:miter;stroke-width:0.25;" x="86.729042" xlink:href="#m2f361f7502" y="190.48223"/>
     <use style="fill:#808080;stroke:#ffffff;stroke-linejoin:miter;stroke-width:0.25;" x="89.653857" xlink:href="#m2f361f7502" y="190.48223"/>
     <use style="fill:#808080;stroke:#ffffff;stroke-linejoin:miter;stroke-width:0.25;" x="92.578673" xlink:href="#m2f361f7502" y="190.48223"/>
     <use style="fill:#808080;stroke:#ffffff;stroke-linejoin:miter;stroke-width:0.25;" x="95.503489" xlink:href="#m2f361f7502" y="190.48223"/>
     <use style="fill:#808080;stroke:#ffffff;stroke-linejoin:miter;stroke-width:0.25;" x="98.428305" xlink:href="#m2f361f7502" y="190.48223"/>
     <use style="fill:#808080;stroke:#ffffff;stroke-linejoin:miter;stroke-width:0.25;" x="101.35312" xlink:href="#m2f361f7502" y="190.48223"/>
     <use style="fill:#808080;stroke:#ffffff;stroke-linejoin:miter;stroke-width:0.25;" x="104.277936" xlink:href="#m2f361f7502" y="190.48223"/>
     <use style="fill:#808080;stroke:#ffffff;stroke-linejoin:miter;stroke-width:0.25;" x="107.202752" xlink:href="#m2f361f7502" y="190.48223"/>
     <use style="fill:#808080;stroke:#ffffff;stroke-linejoin:miter;stroke-width:0.25;" x="110.127568" xlink:href="#m2f361f7502" y="190.48223"/>
     <use style="fill:#808080;stroke:#ffffff;stroke-linejoin:miter;stroke-width:0.25;" x="113.052383" xlink:href="#m2f361f7502" y="190.48223"/>
     <use style="fill:#808080;stroke:#ffffff;stroke-linejoin:miter;stroke-width:0.25;" x="115.977199" xlink:href="#m2f361f7502" y="190.48223"/>
     <use style="fill:#808080;stroke:#ffffff;stroke-linejoin:miter;stroke-width:0.25;" x="118.902015" xlink:href="#m2f361f7502" y="190.48223"/>
     <use style="fill:#808080;stroke:#ffffff;stroke-linejoin:miter;stroke-width:0.25;" x="121.82683" xlink:href="#m2f361f7502" y="190.48223"/>
     <use style="fill:#808080;stroke:#ffffff;stroke-linejoin:miter;stroke-width:0.25;" x="124.751646" xlink:href="#m2f361f7502" y="190.48223"/>
     <use style="fill:#808080;stroke:#ffffff;stroke-linejoin:miter;stroke-width:0.25;" x="127.676462" xlink:href="#m2f361f7502" y="190.48223"/>
     <use style="fill:#808080;stroke:#ffffff;stroke-linejoin:miter;stroke-width:0.25;" x="130.601278" xlink:href="#m2f361f7502" y="190.48223"/>
     <use style="fill:#808080;stroke:#ffffff;stroke-linejoin:miter;stroke-width:0.25;" x="133.526093" xlink:href="#m2f361f7502" y="190.48223"/>
     <use style="fill:#808080;stroke:#ffffff;stroke-linejoin:miter;stroke-width:0.25;" x="136.450909" xlink:href="#m2f361f7502" y="190.48223"/>
     <use style="fill:#808080;stroke:#ffffff;stroke-linejoin:miter;stroke-width:0.25;" x="139.375725" xlink:href="#m2f361f7502" y="190.48223"/>
     <use style="fill:#808080;stroke:#ffffff;stroke-linejoin:miter;stroke-width:0.25;" x="142.300541" xlink:href="#m2f361f7502" y="190.48223"/>
     <use style="fill:#808080;stroke:#ffffff;stroke-linejoin:miter;stroke-width:0.25;" x="145.225356" xlink:href="#m2f361f7502" y="190.48223"/>
     <use style="fill:#808080;stroke:#ffffff;stroke-linejoin:miter;stroke-width:0.25;" x="148.150172" xlink:href="#m2f361f7502" y="190.48223"/>
     <use style="fill:#808080;stroke:#ffffff;stroke-linejoin:miter;stroke-width:0.25;" x="151.074988" xlink:href="#m2f361f7502" y="190.48223"/>
     <use style="fill:#808080;stroke:#ffffff;stroke-linejoin:miter;stroke-width:0.25;" x="153.999803" xlink:href="#m2f361f7502" y="190.48223"/>
     <use style="fill:#808080;stroke:#ffffff;stroke-linejoin:miter;stroke-width:0.25;" x="156.924619" xlink:href="#m2f361f7502" y="190.48223"/>
     <use style="fill:#808080;stroke:#ffffff;stroke-linejoin:miter;stroke-width:0.25;" x="159.849435" xlink:href="#m2f361f7502" y="190.48223"/>
     <use style="fill:#808080;stroke:#ffffff;stroke-linejoin:miter;stroke-width:0.25;" x="162.774251" xlink:href="#m2f361f7502" y="190.48223"/>
     <use style="fill:#808080;stroke:#ffffff;stroke-linejoin:miter;stroke-width:0.25;" x="165.699066" xlink:href="#m2f361f7502" y="190.48223"/>
     <use style="fill:#808080;stroke:#ffffff;stroke-linejoin:miter;stroke-width:0.25;" x="168.623882" xlink:href="#m2f361f7502" y="190.48223"/>
     <use style="fill:#808080;stroke:#ffffff;stroke-linejoin:miter;stroke-width:0.25;" x="171.548698" xlink:href="#m2f361f7502" y="190.480045"/>
     <use style="fill:#808080;stroke:#ffffff;stroke-linejoin:miter;stroke-width:0.25;" x="174.473514" xlink:href="#m2f361f7502" y="190.480045"/>
     <use style="fill:#808080;stroke:#ffffff;stroke-linejoin:miter;stroke-width:0.25;" x="177.398329" xlink:href="#m2f361f7502" y="190.47786"/>
     <use style="fill:#808080;stroke:#ffffff;stroke-linejoin:miter;stroke-width:0.25;" x="180.323145" xlink:href="#m2f361f7502" y="190.47786"/>
     <use style="fill:#808080;stroke:#ffffff;stroke-linejoin:miter;stroke-width:0.25;" x="183.247961" xlink:href="#m2f361f7502" y="190.47786"/>
     <use style="fill:#808080;stroke:#ffffff;stroke-linejoin:miter;stroke-width:0.25;" x="186.172776" xlink:href="#m2f361f7502" y="190.47786"/>
     <use style="fill:#808080;stroke:#ffffff;stroke-linejoin:miter;stroke-width:0.25;" x="189.097592" xlink:href="#m2f361f7502" y="190.475675"/>
     <use style="fill:#808080;stroke:#ffffff;stroke-linejoin:miter;stroke-width:0.25;" x="192.022408" xlink:href="#m2f361f7502" y="190.475675"/>
     <use style="fill:#808080;stroke:#ffffff;stroke-linejoin:miter;stroke-width:0.25;" x="194.947224" xlink:href="#m2f361f7502" y="190.47349"/>
     <use style="fill:#808080;stroke:#ffffff;stroke-linejoin:miter;stroke-width:0.25;" x="197.872039" xlink:href="#m2f361f7502" y="190.471305"/>
     <use style="fill:#808080;stroke:#ffffff;stroke-linejoin:miter;stroke-width:0.25;" x="200.796855" xlink:href="#m2f361f7502" y="190.47349"/>
     <use style="fill:#808080;stroke:#ffffff;stroke-linejoin:miter;stroke-width:0.25;" x="203.721671" xlink:href="#m2f361f7502" y="190.466935"/>
     <use style="fill:#808080;stroke:#ffffff;stroke-linejoin:miter;stroke-width:0.25;" x="206.646486" xlink:href="#m2f361f7502" y="190.46038"/>
     <use style="fill:#808080;stroke:#ffffff;stroke-linejoin:miter;stroke-width:0.25;" x="209.571302" xlink:href="#m2f361f7502" y="190.46038"/>
     <use style="fill:#808080;stroke:#ffffff;stroke-linejoin:miter;stroke-width:0.25;" x="212.496118" xlink:href="#m2f361f7502" y="190.45601"/>
     <use style="fill:#808080;stroke:#ffffff;stroke-linejoin:miter;stroke-width:0.25;" x="215.420934" xlink:href="#m2f361f7502" y="190.43853"/>
     <use style="fill:#808080;stroke:#ffffff;stroke-linejoin:miter;stroke-width:0.25;" x="218.345749" xlink:href="#m2f361f7502" y="190.43853"/>
     <use style="fill:#808080;stroke:#ffffff;stroke-linejoin:miter;stroke-width:0.25;" x="221.270565" xlink:href="#m2f361f7502" y="190.42979"/>
     <use style="fill:#808080;stroke:#ffffff;stroke-linejoin:miter;stroke-width:0.25;" x="224.195381" xlink:href="#m2f361f7502" y="190.423235"/>
     <use style="fill:#808080;stroke:#ffffff;stroke-linejoin:miter;stroke-width:0.25;" x="227.120197" xlink:href="#m2f361f7502" y="190.41231"/>
     <use style="fill:#808080;stroke:#ffffff;stroke-linejoin:miter;stroke-width:0.25;" x="230.045012" xlink:href="#m2f361f7502" y="190.405755"/>
     <use style="fill:#808080;stroke:#ffffff;stroke-linejoin:miter;stroke-width:0.25;" x="232.969828" xlink:href="#m2f361f7502" y="190.355501"/>
     <use style="fill:#808080;stroke:#ffffff;stroke-linejoin:miter;stroke-width:0.25;" x="235.894644" xlink:href="#m2f361f7502" y="190.324911"/>
     <use style="fill:#808080;stroke:#ffffff;stroke-linejoin:miter;stroke-width:0.25;" x="238.819459" xlink:href="#m2f361f7502" y="190.324911"/>
     <use style="fill:#808080;stroke:#ffffff;stroke-linejoin:miter;stroke-width:0.25;" x="241.744275" xlink:href="#m2f361f7502" y="190.294321"/>
     <use style="fill:#808080;stroke:#ffffff;stroke-linejoin:miter;stroke-width:0.25;" x="244.669091" xlink:href="#m2f361f7502" y="190.265916"/>
     <use style="fill:#808080;stroke:#ffffff;stroke-linejoin:miter;stroke-width:0.25;" x="247.593907" xlink:href="#m2f361f7502" y="190.185071"/>
     <use style="fill:#808080;stroke:#ffffff;stroke-linejoin:miter;stroke-width:0.25;" x="250.518722" xlink:href="#m2f361f7502" y="190.154482"/>
     <use style="fill:#808080;stroke:#ffffff;stroke-linejoin:miter;stroke-width:0.25;" x="253.443538" xlink:href="#m2f361f7502" y="190.093302"/>
     <use style="fill:#808080;stroke:#ffffff;stroke-linejoin:miter;stroke-width:0.25;" x="256.368354" xlink:href="#m2f361f7502" y="189.988422"/>
     <use style="fill:#808080;stroke:#ffffff;stroke-linejoin:miter;stroke-width:0.25;" x="259.29317" xlink:href="#m2f361f7502" y="189.944723"/>
     <use style="fill:#808080;stroke:#ffffff;stroke-linejoin:miter;stroke-width:0.25;" x="262.217985" xlink:href="#m2f361f7502" y="189.852953"/>
     <use style="fill:#808080;stroke:#ffffff;stroke-linejoin:miter;stroke-width:0.25;" x="265.142801" xlink:href="#m2f361f7502" y="189.758998"/>
     <use style="fill:#808080;stroke:#ffffff;stroke-linejoin:miter;stroke-width:0.25;" x="268.067617" xlink:href="#m2f361f7502" y="189.700004"/>
     <use style="fill:#808080;stroke:#ffffff;stroke-linejoin:miter;stroke-width:0.25;" x="270.992432" xlink:href="#m2f361f7502" y="189.623529"/>
     <use style="fill:#808080;stroke:#ffffff;stroke-linejoin:miter;stroke-width:0.25;" x="273.917248" xlink:href="#m2f361f7502" y="189.597309"/>
     <use style="fill:#808080;stroke:#ffffff;stroke-linejoin:miter;stroke-width:0.25;" x="276.842064" xlink:href="#m2f361f7502" y="189.503355"/>
     <use style="fill:#808080;stroke:#ffffff;stroke-linejoin:miter;stroke-width:0.25;" x="279.76688" xlink:href="#m2f361f7502" y="189.420325"/>
     <use style="fill:#808080;stroke:#ffffff;stroke-linejoin:miter;stroke-width:0.25;" x="282.691695" xlink:href="#m2f361f7502" y="189.34385"/>
     <use style="fill:#808080;stroke:#ffffff;stroke-linejoin:miter;stroke-width:0.25;" x="285.616511" xlink:href="#m2f361f7502" y="189.260821"/>
     <use style="fill:#808080;stroke:#ffffff;stroke-linejoin:miter;stroke-width:0.25;" x="288.541327" xlink:href="#m2f361f7502" y="189.188716"/>
     <use style="fill:#808080;stroke:#ffffff;stroke-linejoin:miter;stroke-width:0.25;" x="291.466143" xlink:href="#m2f361f7502" y="189.072912"/>
     <use style="fill:#808080;stroke:#ffffff;stroke-linejoin:miter;stroke-width:0.25;" x="294.390958" xlink:href="#m2f361f7502" y="188.994252"/>
     <use style="fill:#808080;stroke:#ffffff;stroke-linejoin:miter;stroke-width:0.25;" x="297.315774" xlink:href="#m2f361f7502" y="188.906852"/>
     <use style="fill:#808080;stroke:#ffffff;stroke-linejoin:miter;stroke-width:0.25;" x="300.24059" xlink:href="#m2f361f7502" y="188.777938"/>
     <use style="fill:#808080;stroke:#ffffff;stroke-linejoin:miter;stroke-width:0.25;" x="303.165405" xlink:href="#m2f361f7502" y="188.679613"/>
     <use style="fill:#808080;stroke:#ffffff;stroke-linejoin:miter;stroke-width:0.25;" x="306.090221" xlink:href="#m2f361f7502" y="188.557254"/>
     <use style="fill:#808080;stroke:#ffffff;stroke-linejoin:miter;stroke-width:0.25;" x="309.015037" xlink:href="#m2f361f7502" y="188.430525"/>
     <use style="fill:#808080;stroke:#ffffff;stroke-linejoin:miter;stroke-width:0.25;" x="311.939853" xlink:href="#m2f361f7502" y="188.27976"/>
     <use style="fill:#808080;stroke:#ffffff;stroke-linejoin:miter;stroke-width:0.25;" x="314.864668" xlink:href="#m2f361f7502" y="188.124626"/>
     <use style="fill:#808080;stroke:#ffffff;stroke-linejoin:miter;stroke-width:0.25;" x="317.789484" xlink:href="#m2f361f7502" y="187.960752"/>
     <use style="fill:#808080;stroke:#ffffff;stroke-linejoin:miter;stroke-width:0.25;" x="320.7143" xlink:href="#m2f361f7502" y="187.809987"/>
     <use style="fill:#808080;stroke:#ffffff;stroke-linejoin:miter;stroke-width:0.25;" x="323.639115" xlink:href="#m2f361f7502" y="187.591488"/>
     <use style="fill:#808080;stroke:#ffffff;stroke-linejoin:miter;stroke-width:0.25;" x="326.563931" xlink:href="#m2f361f7502" y="187.442909"/>
     <use style="fill:#808080;stroke:#ffffff;stroke-linejoin:miter;stroke-width:0.25;" x="329.488747" xlink:href="#m2f361f7502" y="187.060536"/>
     <use style="fill:#808080;stroke:#ffffff;stroke-linejoin:miter;stroke-width:0.25;" x="332.413563" xlink:href="#m2f361f7502" y="186.783042"/>
     <use style="fill:#808080;stroke:#ffffff;stroke-linejoin:miter;stroke-width:0.25;" x="335.338378" xlink:href="#m2f361f7502" y="186.582023"/>
     <use style="fill:#808080;stroke:#ffffff;stroke-linejoin:miter;stroke-width:0.25;" x="338.263194" xlink:href="#m2f361f7502" y="186.354784"/>
     <use style="fill:#808080;stroke:#ffffff;stroke-linejoin:miter;stroke-width:0.25;" x="341.18801" xlink:href="#m2f361f7502" y="186.145025"/>
     <use style="fill:#808080;stroke:#ffffff;stroke-linejoin:miter;stroke-width:0.25;" x="344.112826" xlink:href="#m2f361f7502" y="185.891566"/>
     <use style="fill:#808080;stroke:#ffffff;stroke-linejoin:miter;stroke-width:0.25;" x="347.037641" xlink:href="#m2f361f7502" y="185.649032"/>
     <use style="fill:#808080;stroke:#ffffff;stroke-linejoin:miter;stroke-width:0.25;" x="349.962457" xlink:href="#m2f361f7502" y="185.469863"/>
     <use style="fill:#808080;stroke:#ffffff;stroke-linejoin:miter;stroke-width:0.25;" x="352.887273" xlink:href="#m2f361f7502" y="185.205479"/>
    </g>
   </g>
   <g id="line2d_20"/>
   <g id="line2d_21"/>
   <g id="line2d_22"/>
   <g id="line2d_23"/>
   <g id="line2d_24">
    <path clip-path="url(#p5242a69c03)" d="M 12 28.154957 
L 369.12 28.154957 
" style="fill:none;stroke:#4c72b0;stroke-dasharray:0.5,0.825;stroke-dashoffset:0;stroke-width:0.5;"/>
   </g>
   <g id="line2d_25">
    <path clip-path="url(#p5242a69c03)" d="M 12 185.205479 
L 369.12 185.205479 
" style="fill:none;stroke:#4c72b0;stroke-dasharray:0.5,0.825;stroke-dashoffset:0;stroke-width:0.5;"/>
   </g>
   <g id="line2d_26">
    <path clip-path="url(#p5242a69c03)" d="M 12 137.124776 
L 369.12 137.124776 
" style="fill:none;stroke:#4c72b0;stroke-dasharray:0.5,0.825;stroke-dashoffset:0;stroke-width:0.5;"/>
   </g>
   <g id="line2d_27">
    <path clip-path="url(#p5242a69c03)" d="M 352.887273 198.598594 
L 352.887273 20.038594 
" style="fill:none;stroke:#4c72b0;stroke-dasharray:0.5,0.825;stroke-dashoffset:0;stroke-width:0.5;"/>
   </g>
   <g id="patch_3">
    <path d="M 12 198.598594 
L 12 20.038594 
" style="fill:none;stroke:#262626;stroke-linecap:square;stroke-linejoin:miter;stroke-width:0.5;"/>
   </g>
   <g id="patch_4">
    <path d="M 12 198.598594 
L 369.12 198.598594 
" style="fill:none;stroke:#262626;stroke-linecap:square;stroke-linejoin:miter;stroke-width:0.5;"/>
   </g>
   <g id="text_9">
    <!-- 74292 -->
    <defs>
     <path d="M 8.203125 72.90625 
L 55.078125 72.90625 
L 55.078125 68.703125 
L 28.609375 0 
L 18.3125 0 
L 43.21875 64.59375 
L 8.203125 64.59375 
z
" id="DejaVuSans-55"/>
     <path d="M 37.796875 64.3125 
L 12.890625 25.390625 
L 37.796875 25.390625 
z
M 35.203125 72.90625 
L 47.609375 72.90625 
L 47.609375 25.390625 
L 58.015625 25.390625 
L 58.015625 17.1875 
L 47.609375 17.1875 
L 47.609375 0 
L 37.796875 0 
L 37.796875 17.1875 
L 4.890625 17.1875 
L 4.890625 26.703125 
z
" id="DejaVuSans-52"/>
     <path d="M 10.984375 1.515625 
L 10.984375 10.5 
Q 14.703125 8.734375 18.5 7.8125 
Q 22.3125 6.890625 25.984375 6.890625 
Q 35.75 6.890625 40.890625 13.453125 
Q 46.046875 20.015625 46.78125 33.40625 
Q 43.953125 29.203125 39.59375 26.953125 
Q 35.25 24.703125 29.984375 24.703125 
Q 19.046875 24.703125 12.671875 31.3125 
Q 6.296875 37.9375 6.296875 49.421875 
Q 6.296875 60.640625 12.9375 67.421875 
Q 19.578125 74.21875 30.609375 74.21875 
Q 43.265625 74.21875 49.921875 64.515625 
Q 56.59375 54.828125 56.59375 36.375 
Q 56.59375 19.140625 48.40625 8.859375 
Q 40.234375 -1.421875 26.421875 -1.421875 
Q 22.703125 -1.421875 18.890625 -0.6875 
Q 15.09375 0.046875 10.984375 1.515625 
z
M 30.609375 32.421875 
Q 37.25 32.421875 41.125 36.953125 
Q 45.015625 41.5 45.015625 49.421875 
Q 45.015625 57.28125 41.125 61.84375 
Q 37.25 66.40625 30.609375 66.40625 
Q 23.96875 66.40625 20.09375 61.84375 
Q 16.21875 57.28125 16.21875 49.421875 
Q 16.21875 41.5 20.09375 36.953125 
Q 23.96875 32.421875 30.609375 32.421875 
z
" id="DejaVuSans-57"/>
    </defs>
    <g style="fill:#ff0000;" transform="translate(15.5712 26.491207)scale(0.08 -0.08)">
     <use xlink:href="#DejaVuSans-55"/>
     <use x="63.623047" xlink:href="#DejaVuSans-52"/>
     <use x="127.246094" xlink:href="#DejaVuSans-50"/>
     <use x="190.869141" xlink:href="#DejaVuSans-57"/>
     <use x="254.492188" xlink:href="#DejaVuSans-50"/>
    </g>
   </g>
   <g id="text_10">
    <!-- 2415 -->
    <g style="fill:#ff0000;" transform="translate(15.5712 183.541729)scale(0.08 -0.08)">
     <use xlink:href="#DejaVuSans-50"/>
     <use x="63.623047" xlink:href="#DejaVuSans-52"/>
     <use x="127.246094" xlink:href="#DejaVuSans-49"/>
     <use x="190.869141" xlink:href="#DejaVuSans-53"/>
    </g>
   </g>
   <g id="text_11">
    <!-- 24420 -->
    <g style="fill:#008000;" transform="translate(15.5712 135.461026)scale(0.08 -0.08)">
     <use xlink:href="#DejaVuSans-50"/>
     <use x="63.623047" xlink:href="#DejaVuSans-52"/>
     <use x="127.246094" xlink:href="#DejaVuSans-52"/>
     <use x="190.869141" xlink:href="#DejaVuSans-50"/>
     <use x="254.492188" xlink:href="#DejaVuSans-48"/>
    </g>
   </g>
   <g id="text_12">
    <!-- COVID-19 Cases, Recoveries &amp; Deaths Graph -->
    <defs>
     <path d="M 64.40625 67.28125 
L 64.40625 56.890625 
Q 59.421875 61.53125 53.78125 63.8125 
Q 48.140625 66.109375 41.796875 66.109375 
Q 29.296875 66.109375 22.65625 58.46875 
Q 16.015625 50.828125 16.015625 36.375 
Q 16.015625 21.96875 22.65625 14.328125 
Q 29.296875 6.6875 41.796875 6.6875 
Q 48.140625 6.6875 53.78125 8.984375 
Q 59.421875 11.28125 64.40625 15.921875 
L 64.40625 5.609375 
Q 59.234375 2.09375 53.4375 0.328125 
Q 47.65625 -1.421875 41.21875 -1.421875 
Q 24.65625 -1.421875 15.125 8.703125 
Q 5.609375 18.84375 5.609375 36.375 
Q 5.609375 53.953125 15.125 64.078125 
Q 24.65625 74.21875 41.21875 74.21875 
Q 47.75 74.21875 53.53125 72.484375 
Q 59.328125 70.75 64.40625 67.28125 
z
" id="DejaVuSans-67"/>
     <path d="M 39.40625 66.21875 
Q 28.65625 66.21875 22.328125 58.203125 
Q 16.015625 50.203125 16.015625 36.375 
Q 16.015625 22.609375 22.328125 14.59375 
Q 28.65625 6.59375 39.40625 6.59375 
Q 50.140625 6.59375 56.421875 14.59375 
Q 62.703125 22.609375 62.703125 36.375 
Q 62.703125 50.203125 56.421875 58.203125 
Q 50.140625 66.21875 39.40625 66.21875 
z
M 39.40625 74.21875 
Q 54.734375 74.21875 63.90625 63.9375 
Q 73.09375 53.65625 73.09375 36.375 
Q 73.09375 19.140625 63.90625 8.859375 
Q 54.734375 -1.421875 39.40625 -1.421875 
Q 24.03125 -1.421875 14.8125 8.828125 
Q 5.609375 19.09375 5.609375 36.375 
Q 5.609375 53.65625 14.8125 63.9375 
Q 24.03125 74.21875 39.40625 74.21875 
z
" id="DejaVuSans-79"/>
     <path d="M 28.609375 0 
L 0.78125 72.90625 
L 11.078125 72.90625 
L 34.1875 11.53125 
L 57.328125 72.90625 
L 67.578125 72.90625 
L 39.796875 0 
z
" id="DejaVuSans-86"/>
     <path d="M 9.8125 72.90625 
L 19.671875 72.90625 
L 19.671875 0 
L 9.8125 0 
z
" id="DejaVuSans-73"/>
     <path d="M 19.671875 64.796875 
L 19.671875 8.109375 
L 31.59375 8.109375 
Q 46.6875 8.109375 53.6875 14.9375 
Q 60.6875 21.78125 60.6875 36.53125 
Q 60.6875 51.171875 53.6875 57.984375 
Q 46.6875 64.796875 31.59375 64.796875 
z
M 9.8125 72.90625 
L 30.078125 72.90625 
Q 51.265625 72.90625 61.171875 64.09375 
Q 71.09375 55.28125 71.09375 36.53125 
Q 71.09375 17.671875 61.125 8.828125 
Q 51.171875 0 30.078125 0 
L 9.8125 0 
z
" id="DejaVuSans-68"/>
     <path d="M 4.890625 31.390625 
L 31.203125 31.390625 
L 31.203125 23.390625 
L 4.890625 23.390625 
z
" id="DejaVuSans-45"/>
     <path d="M 44.28125 53.078125 
L 44.28125 44.578125 
Q 40.484375 46.53125 36.375 47.5 
Q 32.28125 48.484375 27.875 48.484375 
Q 21.1875 48.484375 17.84375 46.4375 
Q 14.5 44.390625 14.5 40.28125 
Q 14.5 37.15625 16.890625 35.375 
Q 19.28125 33.59375 26.515625 31.984375 
L 29.59375 31.296875 
Q 39.15625 29.25 43.1875 25.515625 
Q 47.21875 21.78125 47.21875 15.09375 
Q 47.21875 7.46875 41.1875 3.015625 
Q 35.15625 -1.421875 24.609375 -1.421875 
Q 20.21875 -1.421875 15.453125 -0.5625 
Q 10.6875 0.296875 5.421875 2 
L 5.421875 11.28125 
Q 10.40625 8.6875 15.234375 7.390625 
Q 20.0625 6.109375 24.8125 6.109375 
Q 31.15625 6.109375 34.5625 8.28125 
Q 37.984375 10.453125 37.984375 14.40625 
Q 37.984375 18.0625 35.515625 20.015625 
Q 33.0625 21.96875 24.703125 23.78125 
L 21.578125 24.515625 
Q 13.234375 26.265625 9.515625 29.90625 
Q 5.8125 33.546875 5.8125 39.890625 
Q 5.8125 47.609375 11.28125 51.796875 
Q 16.75 56 26.8125 56 
Q 31.78125 56 36.171875 55.265625 
Q 40.578125 54.546875 44.28125 53.078125 
z
" id="DejaVuSans-115"/>
     <path d="M 11.71875 12.40625 
L 22.015625 12.40625 
L 22.015625 4 
L 14.015625 -11.625 
L 7.71875 -11.625 
L 11.71875 4 
z
" id="DejaVuSans-44"/>
     <path d="M 44.390625 34.1875 
Q 47.5625 33.109375 50.5625 29.59375 
Q 53.5625 26.078125 56.59375 19.921875 
L 66.609375 0 
L 56 0 
L 46.6875 18.703125 
Q 43.0625 26.03125 39.671875 28.421875 
Q 36.28125 30.8125 30.421875 30.8125 
L 19.671875 30.8125 
L 19.671875 0 
L 9.8125 0 
L 9.8125 72.90625 
L 32.078125 72.90625 
Q 44.578125 72.90625 50.734375 67.671875 
Q 56.890625 62.453125 56.890625 51.90625 
Q 56.890625 45.015625 53.6875 40.46875 
Q 50.484375 35.9375 44.390625 34.1875 
z
M 19.671875 64.796875 
L 19.671875 38.921875 
L 32.078125 38.921875 
Q 39.203125 38.921875 42.84375 42.21875 
Q 46.484375 45.515625 46.484375 51.90625 
Q 46.484375 58.296875 42.84375 61.546875 
Q 39.203125 64.796875 32.078125 64.796875 
z
" id="DejaVuSans-82"/>
     <path d="M 48.78125 52.59375 
L 48.78125 44.1875 
Q 44.96875 46.296875 41.140625 47.34375 
Q 37.3125 48.390625 33.40625 48.390625 
Q 24.65625 48.390625 19.8125 42.84375 
Q 14.984375 37.3125 14.984375 27.296875 
Q 14.984375 17.28125 19.8125 11.734375 
Q 24.65625 6.203125 33.40625 6.203125 
Q 37.3125 6.203125 41.140625 7.25 
Q 44.96875 8.296875 48.78125 10.40625 
L 48.78125 2.09375 
Q 45.015625 0.34375 40.984375 -0.53125 
Q 36.96875 -1.421875 32.421875 -1.421875 
Q 20.0625 -1.421875 12.78125 6.34375 
Q 5.515625 14.109375 5.515625 27.296875 
Q 5.515625 40.671875 12.859375 48.328125 
Q 20.21875 56 33.015625 56 
Q 37.15625 56 41.109375 55.140625 
Q 45.0625 54.296875 48.78125 52.59375 
z
" id="DejaVuSans-99"/>
     <path d="M 30.609375 48.390625 
Q 23.390625 48.390625 19.1875 42.75 
Q 14.984375 37.109375 14.984375 27.296875 
Q 14.984375 17.484375 19.15625 11.84375 
Q 23.34375 6.203125 30.609375 6.203125 
Q 37.796875 6.203125 41.984375 11.859375 
Q 46.1875 17.53125 46.1875 27.296875 
Q 46.1875 37.015625 41.984375 42.703125 
Q 37.796875 48.390625 30.609375 48.390625 
z
M 30.609375 56 
Q 42.328125 56 49.015625 48.375 
Q 55.71875 40.765625 55.71875 27.296875 
Q 55.71875 13.875 49.015625 6.21875 
Q 42.328125 -1.421875 30.609375 -1.421875 
Q 18.84375 -1.421875 12.171875 6.21875 
Q 5.515625 13.875 5.515625 27.296875 
Q 5.515625 40.765625 12.171875 48.375 
Q 18.84375 56 30.609375 56 
z
" id="DejaVuSans-111"/>
     <path d="M 2.984375 54.6875 
L 12.5 54.6875 
L 29.59375 8.796875 
L 46.6875 54.6875 
L 56.203125 54.6875 
L 35.6875 0 
L 23.484375 0 
z
" id="DejaVuSans-118"/>
     <path d="M 9.421875 54.6875 
L 18.40625 54.6875 
L 18.40625 0 
L 9.421875 0 
z
M 9.421875 75.984375 
L 18.40625 75.984375 
L 18.40625 64.59375 
L 9.421875 64.59375 
z
" id="DejaVuSans-105"/>
     <path d="M 24.3125 39.203125 
Q 19.875 35.25 17.796875 31.3125 
Q 15.71875 27.390625 15.71875 23.09375 
Q 15.71875 15.96875 20.890625 11.234375 
Q 26.078125 6.5 33.890625 6.5 
Q 38.53125 6.5 42.578125 8.03125 
Q 46.625 9.578125 50.203125 12.703125 
z
M 31.203125 44.671875 
L 56 19.28125 
Q 58.890625 23.640625 60.5 28.59375 
Q 62.109375 33.546875 62.40625 39.109375 
L 71.484375 39.109375 
Q 70.90625 32.671875 68.359375 26.359375 
Q 65.828125 20.0625 61.28125 13.921875 
L 74.90625 0 
L 62.59375 0 
L 55.609375 7.171875 
Q 50.53125 2.828125 44.96875 0.703125 
Q 39.40625 -1.421875 33.015625 -1.421875 
Q 21.234375 -1.421875 13.765625 5.296875 
Q 6.296875 12.015625 6.296875 22.515625 
Q 6.296875 28.765625 9.5625 34.25 
Q 12.84375 39.75 19.390625 44.578125 
Q 17.046875 47.65625 15.8125 50.703125 
Q 14.59375 53.765625 14.59375 56.6875 
Q 14.59375 64.59375 20.015625 69.40625 
Q 25.4375 74.21875 34.421875 74.21875 
Q 38.484375 74.21875 42.5 73.34375 
Q 46.53125 72.46875 50.6875 70.703125 
L 50.6875 61.8125 
Q 46.4375 64.109375 42.578125 65.296875 
Q 38.71875 66.5 35.40625 66.5 
Q 30.28125 66.5 27.078125 63.78125 
Q 23.875 61.078125 23.875 56.78125 
Q 23.875 54.296875 25.3125 51.78125 
Q 26.765625 49.265625 31.203125 44.671875 
z
" id="DejaVuSans-38"/>
     <path d="M 18.3125 70.21875 
L 18.3125 54.6875 
L 36.8125 54.6875 
L 36.8125 47.703125 
L 18.3125 47.703125 
L 18.3125 18.015625 
Q 18.3125 11.328125 20.140625 9.421875 
Q 21.96875 7.515625 27.59375 7.515625 
L 36.8125 7.515625 
L 36.8125 0 
L 27.59375 0 
Q 17.1875 0 13.234375 3.875 
Q 9.28125 7.765625 9.28125 18.015625 
L 9.28125 47.703125 
L 2.6875 47.703125 
L 2.6875 54.6875 
L 9.28125 54.6875 
L 9.28125 70.21875 
z
" id="DejaVuSans-116"/>
     <path d="M 54.890625 33.015625 
L 54.890625 0 
L 45.90625 0 
L 45.90625 32.71875 
Q 45.90625 40.484375 42.875 44.328125 
Q 39.84375 48.1875 33.796875 48.1875 
Q 26.515625 48.1875 22.3125 43.546875 
Q 18.109375 38.921875 18.109375 30.90625 
L 18.109375 0 
L 9.078125 0 
L 9.078125 75.984375 
L 18.109375 75.984375 
L 18.109375 46.1875 
Q 21.34375 51.125 25.703125 53.5625 
Q 30.078125 56 35.796875 56 
Q 45.21875 56 50.046875 50.171875 
Q 54.890625 44.34375 54.890625 33.015625 
z
" id="DejaVuSans-104"/>
     <path d="M 59.515625 10.40625 
L 59.515625 29.984375 
L 43.40625 29.984375 
L 43.40625 38.09375 
L 69.28125 38.09375 
L 69.28125 6.78125 
Q 63.578125 2.734375 56.6875 0.65625 
Q 49.8125 -1.421875 42 -1.421875 
Q 24.90625 -1.421875 15.25 8.5625 
Q 5.609375 18.5625 5.609375 36.375 
Q 5.609375 54.25 15.25 64.234375 
Q 24.90625 74.21875 42 74.21875 
Q 49.125 74.21875 55.546875 72.453125 
Q 61.96875 70.703125 67.390625 67.28125 
L 67.390625 56.78125 
Q 61.921875 61.421875 55.765625 63.765625 
Q 49.609375 66.109375 42.828125 66.109375 
Q 29.4375 66.109375 22.71875 58.640625 
Q 16.015625 51.171875 16.015625 36.375 
Q 16.015625 21.625 22.71875 14.15625 
Q 29.4375 6.6875 42.828125 6.6875 
Q 48.046875 6.6875 52.140625 7.59375 
Q 56.25 8.5 59.515625 10.40625 
z
" id="DejaVuSans-71"/>
    </defs>
    <g style="fill:#262626;" transform="translate(88.964766 14.038594)scale(0.09 -0.09)">
     <use xlink:href="#DejaVuSans-67"/>
     <use x="69.824219" xlink:href="#DejaVuSans-79"/>
     <use x="146.785156" xlink:href="#DejaVuSans-86"/>
     <use x="215.193359" xlink:href="#DejaVuSans-73"/>
     <use x="244.685547" xlink:href="#DejaVuSans-68"/>
     <use x="321.6875" xlink:href="#DejaVuSans-45"/>
     <use x="357.771484" xlink:href="#DejaVuSans-49"/>
     <use x="421.394531" xlink:href="#DejaVuSans-57"/>
     <use x="485.017578" xlink:href="#DejaVuSans-32"/>
     <use x="516.804688" xlink:href="#DejaVuSans-67"/>
     <use x="586.628906" xlink:href="#DejaVuSans-97"/>
     <use x="647.908203" xlink:href="#DejaVuSans-115"/>
     <use x="700.007812" xlink:href="#DejaVuSans-101"/>
     <use x="761.53125" xlink:href="#DejaVuSans-115"/>
     <use x="813.630859" xlink:href="#DejaVuSans-44"/>
     <use x="845.417969" xlink:href="#DejaVuSans-32"/>
     <use x="877.205078" xlink:href="#DejaVuSans-82"/>
     <use x="942.1875" xlink:href="#DejaVuSans-101"/>
     <use x="1003.710938" xlink:href="#DejaVuSans-99"/>
     <use x="1058.691406" xlink:href="#DejaVuSans-111"/>
     <use x="1119.873047" xlink:href="#DejaVuSans-118"/>
     <use x="1179.052734" xlink:href="#DejaVuSans-101"/>
     <use x="1240.576172" xlink:href="#DejaVuSans-114"/>
     <use x="1281.689453" xlink:href="#DejaVuSans-105"/>
     <use x="1309.472656" xlink:href="#DejaVuSans-101"/>
     <use x="1370.996094" xlink:href="#DejaVuSans-115"/>
     <use x="1423.095703" xlink:href="#DejaVuSans-32"/>
     <use x="1454.882812" xlink:href="#DejaVuSans-38"/>
     <use x="1532.861328" xlink:href="#DejaVuSans-32"/>
     <use x="1564.648438" xlink:href="#DejaVuSans-68"/>
     <use x="1641.650391" xlink:href="#DejaVuSans-101"/>
     <use x="1703.173828" xlink:href="#DejaVuSans-97"/>
     <use x="1764.453125" xlink:href="#DejaVuSans-116"/>
     <use x="1803.662109" xlink:href="#DejaVuSans-104"/>
     <use x="1867.041016" xlink:href="#DejaVuSans-115"/>
     <use x="1919.140625" xlink:href="#DejaVuSans-32"/>
     <use x="1950.927734" xlink:href="#DejaVuSans-71"/>
     <use x="2028.417969" xlink:href="#DejaVuSans-114"/>
     <use x="2069.53125" xlink:href="#DejaVuSans-97"/>
     <use x="2130.810547" xlink:href="#DejaVuSans-112"/>
     <use x="2194.287109" xlink:href="#DejaVuSans-104"/>
    </g>
   </g>
   <g id="legend_1">
    <g id="line2d_28">
     <path d="M 19.92 95.750094 
L 37.52 95.750094 
" style="fill:none;stroke:#ff0000;stroke-linecap:round;stroke-width:1.5;"/>
    </g>
    <g id="line2d_29">
     <g>
      <use style="fill:#ff0000;stroke:#ffffff;stroke-width:0.25;" x="28.72" xlink:href="#mc2883f29fc" y="95.750094"/>
     </g>
    </g>
    <g id="text_13">
     <!-- Confirmed Cases -->
     <defs>
      <path d="M 54.890625 33.015625 
L 54.890625 0 
L 45.90625 0 
L 45.90625 32.71875 
Q 45.90625 40.484375 42.875 44.328125 
Q 39.84375 48.1875 33.796875 48.1875 
Q 26.515625 48.1875 22.3125 43.546875 
Q 18.109375 38.921875 18.109375 30.90625 
L 18.109375 0 
L 9.078125 0 
L 9.078125 54.6875 
L 18.109375 54.6875 
L 18.109375 46.1875 
Q 21.34375 51.125 25.703125 53.5625 
Q 30.078125 56 35.796875 56 
Q 45.21875 56 50.046875 50.171875 
Q 54.890625 44.34375 54.890625 33.015625 
z
" id="DejaVuSans-110"/>
      <path d="M 37.109375 75.984375 
L 37.109375 68.5 
L 28.515625 68.5 
Q 23.6875 68.5 21.796875 66.546875 
Q 19.921875 64.59375 19.921875 59.515625 
L 19.921875 54.6875 
L 34.71875 54.6875 
L 34.71875 47.703125 
L 19.921875 47.703125 
L 19.921875 0 
L 10.890625 0 
L 10.890625 47.703125 
L 2.296875 47.703125 
L 2.296875 54.6875 
L 10.890625 54.6875 
L 10.890625 58.5 
Q 10.890625 67.625 15.140625 71.796875 
Q 19.390625 75.984375 28.609375 75.984375 
z
" id="DejaVuSans-102"/>
      <path d="M 52 44.1875 
Q 55.375 50.25 60.0625 53.125 
Q 64.75 56 71.09375 56 
Q 79.640625 56 84.28125 50.015625 
Q 88.921875 44.046875 88.921875 33.015625 
L 88.921875 0 
L 79.890625 0 
L 79.890625 32.71875 
Q 79.890625 40.578125 77.09375 44.375 
Q 74.3125 48.1875 68.609375 48.1875 
Q 61.625 48.1875 57.5625 43.546875 
Q 53.515625 38.921875 53.515625 30.90625 
L 53.515625 0 
L 44.484375 0 
L 44.484375 32.71875 
Q 44.484375 40.625 41.703125 44.40625 
Q 38.921875 48.1875 33.109375 48.1875 
Q 26.21875 48.1875 22.15625 43.53125 
Q 18.109375 38.875 18.109375 30.90625 
L 18.109375 0 
L 9.078125 0 
L 9.078125 54.6875 
L 18.109375 54.6875 
L 18.109375 46.1875 
Q 21.1875 51.21875 25.484375 53.609375 
Q 29.78125 56 35.6875 56 
Q 41.65625 56 45.828125 52.96875 
Q 50 49.953125 52 44.1875 
z
" id="DejaVuSans-109"/>
      <path d="M 45.40625 46.390625 
L 45.40625 75.984375 
L 54.390625 75.984375 
L 54.390625 0 
L 45.40625 0 
L 45.40625 8.203125 
Q 42.578125 3.328125 38.25 0.953125 
Q 33.9375 -1.421875 27.875 -1.421875 
Q 17.96875 -1.421875 11.734375 6.484375 
Q 5.515625 14.40625 5.515625 27.296875 
Q 5.515625 40.1875 11.734375 48.09375 
Q 17.96875 56 27.875 56 
Q 33.9375 56 38.25 53.625 
Q 42.578125 51.265625 45.40625 46.390625 
z
M 14.796875 27.296875 
Q 14.796875 17.390625 18.875 11.75 
Q 22.953125 6.109375 30.078125 6.109375 
Q 37.203125 6.109375 41.296875 11.75 
Q 45.40625 17.390625 45.40625 27.296875 
Q 45.40625 37.203125 41.296875 42.84375 
Q 37.203125 48.484375 30.078125 48.484375 
Q 22.953125 48.484375 18.875 42.84375 
Q 14.796875 37.203125 14.796875 27.296875 
z
" id="DejaVuSans-100"/>
     </defs>
     <g style="fill:#262626;" transform="translate(44.56 98.830094)scale(0.088 -0.088)">
      <use xlink:href="#DejaVuSans-67"/>
      <use x="69.824219" xlink:href="#DejaVuSans-111"/>
      <use x="131.005859" xlink:href="#DejaVuSans-110"/>
      <use x="194.384766" xlink:href="#DejaVuSans-102"/>
      <use x="229.589844" xlink:href="#DejaVuSans-105"/>
      <use x="257.373047" xlink:href="#DejaVuSans-114"/>
      <use x="296.736328" xlink:href="#DejaVuSans-109"/>
      <use x="394.148438" xlink:href="#DejaVuSans-101"/>
      <use x="455.671875" xlink:href="#DejaVuSans-100"/>
      <use x="519.148438" xlink:href="#DejaVuSans-32"/>
      <use x="550.935547" xlink:href="#DejaVuSans-67"/>
      <use x="620.759766" xlink:href="#DejaVuSans-97"/>
      <use x="682.039062" xlink:href="#DejaVuSans-115"/>
      <use x="734.138672" xlink:href="#DejaVuSans-101"/>
      <use x="795.662109" xlink:href="#DejaVuSans-115"/>
     </g>
    </g>
    <g id="line2d_30">
     <path d="M 19.92 108.666844 
L 37.52 108.666844 
" style="fill:none;stroke:#008000;stroke-linecap:round;stroke-width:1.5;"/>
    </g>
    <g id="line2d_31">
     <g>
      <use style="fill:#008000;stroke:#ffffff;stroke-linejoin:miter;stroke-width:0.25;" x="28.72" xlink:href="#m52d1e1214d" y="108.666844"/>
     </g>
    </g>
    <g id="text_14">
     <!-- Recoveries -->
     <g style="fill:#262626;" transform="translate(44.56 111.746844)scale(0.088 -0.088)">
      <use xlink:href="#DejaVuSans-82"/>
      <use x="64.982422" xlink:href="#DejaVuSans-101"/>
      <use x="126.505859" xlink:href="#DejaVuSans-99"/>
      <use x="181.486328" xlink:href="#DejaVuSans-111"/>
      <use x="242.667969" xlink:href="#DejaVuSans-118"/>
      <use x="301.847656" xlink:href="#DejaVuSans-101"/>
      <use x="363.371094" xlink:href="#DejaVuSans-114"/>
      <use x="404.484375" xlink:href="#DejaVuSans-105"/>
      <use x="432.267578" xlink:href="#DejaVuSans-101"/>
      <use x="493.791016" xlink:href="#DejaVuSans-115"/>
     </g>
    </g>
    <g id="line2d_32">
     <path d="M 19.92 121.583594 
L 37.52 121.583594 
" style="fill:none;stroke:#808080;stroke-linecap:round;stroke-width:1.5;"/>
    </g>
    <g id="line2d_33">
     <g>
      <use style="fill:#808080;stroke:#ffffff;stroke-linejoin:miter;stroke-width:0.25;" x="28.72" xlink:href="#m2f361f7502" y="121.583594"/>
     </g>
    </g>
    <g id="text_15">
     <!-- Deaths -->
     <g style="fill:#262626;" transform="translate(44.56 124.663594)scale(0.088 -0.088)">
      <use xlink:href="#DejaVuSans-68"/>
      <use x="77.001953" xlink:href="#DejaVuSans-101"/>
      <use x="138.525391" xlink:href="#DejaVuSans-97"/>
      <use x="199.804688" xlink:href="#DejaVuSans-116"/>
      <use x="239.013672" xlink:href="#DejaVuSans-104"/>
      <use x="302.392578" xlink:href="#DejaVuSans-115"/>
     </g>
    </g>
   </g>
  </g>
 </g>
 <defs>
  <clipPath id="p5242a69c03">
   <rect height="178.56" width="357.12" x="12" y="20.038594"/>
  </clipPath>
 </defs>
</svg>
