<?xml version="1.0" encoding="utf-8" standalone="no"?>
<!DOCTYPE svg PUBLIC "-//W3C//DTD SVG 1.1//EN"
  "http://www.w3.org/Graphics/SVG/1.1/DTD/svg11.dtd">
<!-- Created with matplotlib (https://matplotlib.org/) -->
<svg height="244.969593pt" version="1.1" viewBox="0 0 395.09 244.969593" width="395.09pt" xmlns="http://www.w3.org/2000/svg" xmlns:xlink="http://www.w3.org/1999/xlink">
 <defs>
  <style type="text/css">
*{stroke-linecap:butt;stroke-linejoin:round;}
  </style>
 </defs>
 <g id="figure_1">
  <g id="patch_1">
   <path d="M 0 244.969593 
L 395.09 244.969593 
L 395.09 0 
L 0 0 
z
" style="fill:#ffffff;"/>
  </g>
  <g id="axes_1">
   <g id="patch_2">
    <path d="M 30.77 198.598594 
L 387.89 198.598594 
L 387.89 20.038594 
L 30.77 20.038594 
z
" style="fill:#ffffff;"/>
   </g>
   <g id="matplotlib.axis_1">
    <g id="xtick_1">
     <g id="line2d_1">
      <path clip-path="url(#pea6bb6a7b1)" d="M 88.098239 198.598594 
L 88.098239 20.038594 
" style="fill:none;stroke:#f3f3f3;stroke-dasharray:0.5,0.825;stroke-dashoffset:0;stroke-width:0.5;"/>
     </g>
     <g id="line2d_2">
      <defs>
       <path d="M 0 0 
L 0 4.8 
" id="m8362d13f88" style="stroke:#262626;"/>
      </defs>
      <g>
       <use style="fill:#262626;stroke:#262626;" x="88.098239" xlink:href="#m8362d13f88" y="198.598594"/>
      </g>
     </g>
     <g id="text_1">
      <!-- 01 Feb 20 -->
      <defs>
       <path d="M 31.78125 66.40625 
Q 24.171875 66.40625 20.328125 58.90625 
Q 16.5 51.421875 16.5 36.375 
Q 16.5 21.390625 20.328125 13.890625 
Q 24.171875 6.390625 31.78125 6.390625 
Q 39.453125 6.390625 43.28125 13.890625 
Q 47.125 21.390625 47.125 36.375 
Q 47.125 51.421875 43.28125 58.90625 
Q 39.453125 66.40625 31.78125 66.40625 
z
M 31.78125 74.21875 
Q 44.046875 74.21875 50.515625 64.515625 
Q 56.984375 54.828125 56.984375 36.375 
Q 56.984375 17.96875 50.515625 8.265625 
Q 44.046875 -1.421875 31.78125 -1.421875 
Q 19.53125 -1.421875 13.0625 8.265625 
Q 6.59375 17.96875 6.59375 36.375 
Q 6.59375 54.828125 13.0625 64.515625 
Q 19.53125 74.21875 31.78125 74.21875 
z
" id="DejaVuSans-48"/>
       <path d="M 12.40625 8.296875 
L 28.515625 8.296875 
L 28.515625 63.921875 
L 10.984375 60.40625 
L 10.984375 69.390625 
L 28.421875 72.90625 
L 38.28125 72.90625 
L 38.28125 8.296875 
L 54.390625 8.296875 
L 54.390625 0 
L 12.40625 0 
z
" id="DejaVuSans-49"/>
       <path id="DejaVuSans-32"/>
       <path d="M 9.8125 72.90625 
L 51.703125 72.90625 
L 51.703125 64.59375 
L 19.671875 64.59375 
L 19.671875 43.109375 
L 48.578125 43.109375 
L 48.578125 34.8125 
L 19.671875 34.8125 
L 19.671875 0 
L 9.8125 0 
z
" id="DejaVuSans-70"/>
       <path d="M 56.203125 29.59375 
L 56.203125 25.203125 
L 14.890625 25.203125 
Q 15.484375 15.921875 20.484375 11.0625 
Q 25.484375 6.203125 34.421875 6.203125 
Q 39.59375 6.203125 44.453125 7.46875 
Q 49.3125 8.734375 54.109375 11.28125 
L 54.109375 2.78125 
Q 49.265625 0.734375 44.1875 -0.34375 
Q 39.109375 -1.421875 33.890625 -1.421875 
Q 20.796875 -1.421875 13.15625 6.1875 
Q 5.515625 13.8125 5.515625 26.8125 
Q 5.515625 40.234375 12.765625 48.109375 
Q 20.015625 56 32.328125 56 
Q 43.359375 56 49.78125 48.890625 
Q 56.203125 41.796875 56.203125 29.59375 
z
M 47.21875 32.234375 
Q 47.125 39.59375 43.09375 43.984375 
Q 39.0625 48.390625 32.421875 48.390625 
Q 24.90625 48.390625 20.390625 44.140625 
Q 15.875 39.890625 15.1875 32.171875 
z
" id="DejaVuSans-101"/>
       <path d="M 48.6875 27.296875 
Q 48.6875 37.203125 44.609375 42.84375 
Q 40.53125 48.484375 33.40625 48.484375 
Q 26.265625 48.484375 22.1875 42.84375 
Q 18.109375 37.203125 18.109375 27.296875 
Q 18.109375 17.390625 22.1875 11.75 
Q 26.265625 6.109375 33.40625 6.109375 
Q 40.53125 6.109375 44.609375 11.75 
Q 48.6875 17.390625 48.6875 27.296875 
z
M 18.109375 46.390625 
Q 20.953125 51.265625 25.265625 53.625 
Q 29.59375 56 35.59375 56 
Q 45.5625 56 51.78125 48.09375 
Q 58.015625 40.1875 58.015625 27.296875 
Q 58.015625 14.40625 51.78125 6.484375 
Q 45.5625 -1.421875 35.59375 -1.421875 
Q 29.59375 -1.421875 25.265625 0.953125 
Q 20.953125 3.328125 18.109375 8.203125 
L 18.109375 0 
L 9.078125 0 
L 9.078125 75.984375 
L 18.109375 75.984375 
z
" id="DejaVuSans-98"/>
       <path d="M 19.1875 8.296875 
L 53.609375 8.296875 
L 53.609375 0 
L 7.328125 0 
L 7.328125 8.296875 
Q 12.9375 14.109375 22.625 23.890625 
Q 32.328125 33.6875 34.8125 36.53125 
Q 39.546875 41.84375 41.421875 45.53125 
Q 43.3125 49.21875 43.3125 52.78125 
Q 43.3125 58.59375 39.234375 62.25 
Q 35.15625 65.921875 28.609375 65.921875 
Q 23.96875 65.921875 18.8125 64.3125 
Q 13.671875 62.703125 7.8125 59.421875 
L 7.8125 69.390625 
Q 13.765625 71.78125 18.9375 73 
Q 24.125 74.21875 28.421875 74.21875 
Q 39.75 74.21875 46.484375 68.546875 
Q 53.21875 62.890625 53.21875 53.421875 
Q 53.21875 48.921875 51.53125 44.890625 
Q 49.859375 40.875 45.40625 35.40625 
Q 44.1875 33.984375 37.640625 27.21875 
Q 31.109375 20.453125 19.1875 8.296875 
z
" id="DejaVuSans-50"/>
      </defs>
      <g style="fill:#262626;" transform="translate(85.85326 236.771996)rotate(-75)scale(0.06 -0.06)">
       <use xlink:href="#DejaVuSans-48"/>
       <use x="63.623047" xlink:href="#DejaVuSans-49"/>
       <use x="127.246094" xlink:href="#DejaVuSans-32"/>
       <use x="159.033203" xlink:href="#DejaVuSans-70"/>
       <use x="211.052734" xlink:href="#DejaVuSans-101"/>
       <use x="272.576172" xlink:href="#DejaVuSans-98"/>
       <use x="336.052734" xlink:href="#DejaVuSans-32"/>
       <use x="367.839844" xlink:href="#DejaVuSans-50"/>
       <use x="431.462891" xlink:href="#DejaVuSans-48"/>
      </g>
     </g>
    </g>
    <g id="xtick_2">
     <g id="line2d_3">
      <path clip-path="url(#pea6bb6a7b1)" d="M 145.631956 198.598594 
L 145.631956 20.038594 
" style="fill:none;stroke:#f3f3f3;stroke-dasharray:0.5,0.825;stroke-dashoffset:0;stroke-width:0.5;"/>
     </g>
     <g id="line2d_4">
      <g>
       <use style="fill:#262626;stroke:#262626;" x="145.631956" xlink:href="#m8362d13f88" y="198.598594"/>
      </g>
     </g>
     <g id="text_2">
      <!-- 15 Feb 20 -->
      <defs>
       <path d="M 10.796875 72.90625 
L 49.515625 72.90625 
L 49.515625 64.59375 
L 19.828125 64.59375 
L 19.828125 46.734375 
Q 21.96875 47.46875 24.109375 47.828125 
Q 26.265625 48.1875 28.421875 48.1875 
Q 40.625 48.1875 47.75 41.5 
Q 54.890625 34.8125 54.890625 23.390625 
Q 54.890625 11.625 47.5625 5.09375 
Q 40.234375 -1.421875 26.90625 -1.421875 
Q 22.3125 -1.421875 17.546875 -0.640625 
Q 12.796875 0.140625 7.71875 1.703125 
L 7.71875 11.625 
Q 12.109375 9.234375 16.796875 8.0625 
Q 21.484375 6.890625 26.703125 6.890625 
Q 35.15625 6.890625 40.078125 11.328125 
Q 45.015625 15.765625 45.015625 23.390625 
Q 45.015625 31 40.078125 35.4375 
Q 35.15625 39.890625 26.703125 39.890625 
Q 22.75 39.890625 18.8125 39.015625 
Q 14.890625 38.140625 10.796875 36.28125 
z
" id="DejaVuSans-53"/>
      </defs>
      <g style="fill:#262626;" transform="translate(143.386976 236.771996)rotate(-75)scale(0.06 -0.06)">
       <use xlink:href="#DejaVuSans-49"/>
       <use x="63.623047" xlink:href="#DejaVuSans-53"/>
       <use x="127.246094" xlink:href="#DejaVuSans-32"/>
       <use x="159.033203" xlink:href="#DejaVuSans-70"/>
       <use x="211.052734" xlink:href="#DejaVuSans-101"/>
       <use x="272.576172" xlink:href="#DejaVuSans-98"/>
       <use x="336.052734" xlink:href="#DejaVuSans-32"/>
       <use x="367.839844" xlink:href="#DejaVuSans-50"/>
       <use x="431.462891" xlink:href="#DejaVuSans-48"/>
      </g>
     </g>
    </g>
    <g id="xtick_3">
     <g id="line2d_5">
      <path clip-path="url(#pea6bb6a7b1)" d="M 207.275224 198.598594 
L 207.275224 20.038594 
" style="fill:none;stroke:#f3f3f3;stroke-dasharray:0.5,0.825;stroke-dashoffset:0;stroke-width:0.5;"/>
     </g>
     <g id="line2d_6">
      <g>
       <use style="fill:#262626;stroke:#262626;" x="207.275224" xlink:href="#m8362d13f88" y="198.598594"/>
      </g>
     </g>
     <g id="text_3">
      <!-- 01 Mar 20 -->
      <defs>
       <path d="M 9.8125 72.90625 
L 24.515625 72.90625 
L 43.109375 23.296875 
L 61.8125 72.90625 
L 76.515625 72.90625 
L 76.515625 0 
L 66.890625 0 
L 66.890625 64.015625 
L 48.09375 14.015625 
L 38.1875 14.015625 
L 19.390625 64.015625 
L 19.390625 0 
L 9.8125 0 
z
" id="DejaVuSans-77"/>
       <path d="M 34.28125 27.484375 
Q 23.390625 27.484375 19.1875 25 
Q 14.984375 22.515625 14.984375 16.5 
Q 14.984375 11.71875 18.140625 8.90625 
Q 21.296875 6.109375 26.703125 6.109375 
Q 34.1875 6.109375 38.703125 11.40625 
Q 43.21875 16.703125 43.21875 25.484375 
L 43.21875 27.484375 
z
M 52.203125 31.203125 
L 52.203125 0 
L 43.21875 0 
L 43.21875 8.296875 
Q 40.140625 3.328125 35.546875 0.953125 
Q 30.953125 -1.421875 24.3125 -1.421875 
Q 15.921875 -1.421875 10.953125 3.296875 
Q 6 8.015625 6 15.921875 
Q 6 25.140625 12.171875 29.828125 
Q 18.359375 34.515625 30.609375 34.515625 
L 43.21875 34.515625 
L 43.21875 35.40625 
Q 43.21875 41.609375 39.140625 45 
Q 35.0625 48.390625 27.6875 48.390625 
Q 23 48.390625 18.546875 47.265625 
Q 14.109375 46.140625 10.015625 43.890625 
L 10.015625 52.203125 
Q 14.9375 54.109375 19.578125 55.046875 
Q 24.21875 56 28.609375 56 
Q 40.484375 56 46.34375 49.84375 
Q 52.203125 43.703125 52.203125 31.203125 
z
" id="DejaVuSans-97"/>
       <path d="M 41.109375 46.296875 
Q 39.59375 47.171875 37.8125 47.578125 
Q 36.03125 48 33.890625 48 
Q 26.265625 48 22.1875 43.046875 
Q 18.109375 38.09375 18.109375 28.8125 
L 18.109375 0 
L 9.078125 0 
L 9.078125 54.6875 
L 18.109375 54.6875 
L 18.109375 46.1875 
Q 20.953125 51.171875 25.484375 53.578125 
Q 30.03125 56 36.53125 56 
Q 37.453125 56 38.578125 55.875 
Q 39.703125 55.765625 41.0625 55.515625 
z
" id="DejaVuSans-114"/>
      </defs>
      <g style="fill:#262626;" transform="translate(204.93986 237.446635)rotate(-75)scale(0.06 -0.06)">
       <use xlink:href="#DejaVuSans-48"/>
       <use x="63.623047" xlink:href="#DejaVuSans-49"/>
       <use x="127.246094" xlink:href="#DejaVuSans-32"/>
       <use x="159.033203" xlink:href="#DejaVuSans-77"/>
       <use x="245.3125" xlink:href="#DejaVuSans-97"/>
       <use x="306.591797" xlink:href="#DejaVuSans-114"/>
       <use x="347.705078" xlink:href="#DejaVuSans-32"/>
       <use x="379.492188" xlink:href="#DejaVuSans-50"/>
       <use x="443.115234" xlink:href="#DejaVuSans-48"/>
      </g>
     </g>
    </g>
    <g id="xtick_4">
     <g id="line2d_7">
      <path clip-path="url(#pea6bb6a7b1)" d="M 264.808941 198.598594 
L 264.808941 20.038594 
" style="fill:none;stroke:#f3f3f3;stroke-dasharray:0.5,0.825;stroke-dashoffset:0;stroke-width:0.5;"/>
     </g>
     <g id="line2d_8">
      <g>
       <use style="fill:#262626;stroke:#262626;" x="264.808941" xlink:href="#m8362d13f88" y="198.598594"/>
      </g>
     </g>
     <g id="text_4">
      <!-- 15 Mar 20 -->
      <g style="fill:#262626;" transform="translate(262.473577 237.446635)rotate(-75)scale(0.06 -0.06)">
       <use xlink:href="#DejaVuSans-49"/>
       <use x="63.623047" xlink:href="#DejaVuSans-53"/>
       <use x="127.246094" xlink:href="#DejaVuSans-32"/>
       <use x="159.033203" xlink:href="#DejaVuSans-77"/>
       <use x="245.3125" xlink:href="#DejaVuSans-97"/>
       <use x="306.591797" xlink:href="#DejaVuSans-114"/>
       <use x="347.705078" xlink:href="#DejaVuSans-32"/>
       <use x="379.492188" xlink:href="#DejaVuSans-50"/>
       <use x="443.115234" xlink:href="#DejaVuSans-48"/>
      </g>
     </g>
    </g>
    <g id="xtick_5">
     <g id="line2d_9">
      <path clip-path="url(#pea6bb6a7b1)" d="M 334.671312 198.598594 
L 334.671312 20.038594 
" style="fill:none;stroke:#f3f3f3;stroke-dasharray:0.5,0.825;stroke-dashoffset:0;stroke-width:0.5;"/>
     </g>
     <g id="line2d_10">
      <g>
       <use style="fill:#262626;stroke:#262626;" x="334.671312" xlink:href="#m8362d13f88" y="198.598594"/>
      </g>
     </g>
     <g id="text_5">
      <!-- 01 Apr 20 -->
      <defs>
       <path d="M 34.1875 63.1875 
L 20.796875 26.90625 
L 47.609375 26.90625 
z
M 28.609375 72.90625 
L 39.796875 72.90625 
L 67.578125 0 
L 57.328125 0 
L 50.6875 18.703125 
L 17.828125 18.703125 
L 11.1875 0 
L 0.78125 0 
z
" id="DejaVuSans-65"/>
       <path d="M 18.109375 8.203125 
L 18.109375 -20.796875 
L 9.078125 -20.796875 
L 9.078125 54.6875 
L 18.109375 54.6875 
L 18.109375 46.390625 
Q 20.953125 51.265625 25.265625 53.625 
Q 29.59375 56 35.59375 56 
Q 45.5625 56 51.78125 48.09375 
Q 58.015625 40.1875 58.015625 27.296875 
Q 58.015625 14.40625 51.78125 6.484375 
Q 45.5625 -1.421875 35.59375 -1.421875 
Q 29.59375 -1.421875 25.265625 0.953125 
Q 20.953125 3.328125 18.109375 8.203125 
z
M 48.6875 27.296875 
Q 48.6875 37.203125 44.609375 42.84375 
Q 40.53125 48.484375 33.40625 48.484375 
Q 26.265625 48.484375 22.1875 42.84375 
Q 18.109375 37.203125 18.109375 27.296875 
Q 18.109375 17.390625 22.1875 11.75 
Q 26.265625 6.109375 33.40625 6.109375 
Q 40.53125 6.109375 44.609375 11.75 
Q 48.6875 17.390625 48.6875 27.296875 
z
" id="DejaVuSans-112"/>
      </defs>
      <g style="fill:#262626;" transform="translate(332.457633 236.538363)rotate(-75)scale(0.06 -0.06)">
       <use xlink:href="#DejaVuSans-48"/>
       <use x="63.623047" xlink:href="#DejaVuSans-49"/>
       <use x="127.246094" xlink:href="#DejaVuSans-32"/>
       <use x="159.033203" xlink:href="#DejaVuSans-65"/>
       <use x="227.441406" xlink:href="#DejaVuSans-112"/>
       <use x="290.917969" xlink:href="#DejaVuSans-114"/>
       <use x="332.03125" xlink:href="#DejaVuSans-32"/>
       <use x="363.818359" xlink:href="#DejaVuSans-50"/>
       <use x="427.441406" xlink:href="#DejaVuSans-48"/>
      </g>
     </g>
    </g>
    <g id="xtick_6">
     <g id="line2d_11">
      <path clip-path="url(#pea6bb6a7b1)" d="M 371.657273 198.598594 
L 371.657273 20.038594 
" style="fill:none;stroke:#f3f3f3;stroke-dasharray:0.5,0.825;stroke-dashoffset:0;stroke-width:0.5;"/>
     </g>
     <g id="line2d_12">
      <g>
       <use style="fill:#262626;stroke:#262626;" x="371.657273" xlink:href="#m8362d13f88" y="198.598594"/>
      </g>
     </g>
     <g id="text_6">
      <!-- 10 Apr 20 -->
      <g style="fill:#262626;" transform="translate(369.443594 236.538363)rotate(-75)scale(0.06 -0.06)">
       <use xlink:href="#DejaVuSans-49"/>
       <use x="63.623047" xlink:href="#DejaVuSans-48"/>
       <use x="127.246094" xlink:href="#DejaVuSans-32"/>
       <use x="159.033203" xlink:href="#DejaVuSans-65"/>
       <use x="227.441406" xlink:href="#DejaVuSans-112"/>
       <use x="290.917969" xlink:href="#DejaVuSans-114"/>
       <use x="332.03125" xlink:href="#DejaVuSans-32"/>
       <use x="363.818359" xlink:href="#DejaVuSans-50"/>
       <use x="427.441406" xlink:href="#DejaVuSans-48"/>
      </g>
     </g>
    </g>
   </g>
   <g id="matplotlib.axis_2">
    <g id="ytick_1">
     <g id="line2d_13">
      <path clip-path="url(#pea6bb6a7b1)" d="M 30.77 190.48223 
L 387.89 190.48223 
" style="fill:none;stroke:#f3f3f3;stroke-dasharray:0.5,0.825;stroke-dashoffset:0;stroke-width:0.5;"/>
     </g>
     <g id="line2d_14">
      <defs>
       <path d="M 0 0 
L -4.8 0 
" id="m688c62ae06" style="stroke:#262626;"/>
      </defs>
      <g>
       <use style="fill:#262626;stroke:#262626;" x="30.77" xlink:href="#m688c62ae06" y="190.48223"/>
      </g>
     </g>
     <g id="text_7">
      <!-- 0 -->
      <g style="fill:#262626;" transform="translate(18.6525 192.761761)scale(0.06 -0.06)">
       <use xlink:href="#DejaVuSans-48"/>
      </g>
     </g>
    </g>
    <g id="ytick_2">
     <g id="line2d_15">
      <path clip-path="url(#pea6bb6a7b1)" d="M 30.77 166.472872 
L 387.89 166.472872 
" style="fill:none;stroke:#f3f3f3;stroke-dasharray:0.5,0.825;stroke-dashoffset:0;stroke-width:0.5;"/>
     </g>
     <g id="line2d_16">
      <g>
       <use style="fill:#262626;stroke:#262626;" x="30.77" xlink:href="#m688c62ae06" y="166.472872"/>
      </g>
     </g>
     <g id="text_8">
      <!-- 1000 -->
      <g style="fill:#262626;" transform="translate(7.2 168.752403)scale(0.06 -0.06)">
       <use xlink:href="#DejaVuSans-49"/>
       <use x="63.623047" xlink:href="#DejaVuSans-48"/>
       <use x="127.246094" xlink:href="#DejaVuSans-48"/>
       <use x="190.869141" xlink:href="#DejaVuSans-48"/>
      </g>
     </g>
    </g>
    <g id="ytick_3">
     <g id="line2d_17">
      <path clip-path="url(#pea6bb6a7b1)" d="M 30.77 142.463513 
L 387.89 142.463513 
" style="fill:none;stroke:#f3f3f3;stroke-dasharray:0.5,0.825;stroke-dashoffset:0;stroke-width:0.5;"/>
     </g>
     <g id="line2d_18">
      <g>
       <use style="fill:#262626;stroke:#262626;" x="30.77" xlink:href="#m688c62ae06" y="142.463513"/>
      </g>
     </g>
     <g id="text_9">
      <!-- 2000 -->
      <g style="fill:#262626;" transform="translate(7.2 144.743044)scale(0.06 -0.06)">
       <use xlink:href="#DejaVuSans-50"/>
       <use x="63.623047" xlink:href="#DejaVuSans-48"/>
       <use x="127.246094" xlink:href="#DejaVuSans-48"/>
       <use x="190.869141" xlink:href="#DejaVuSans-48"/>
      </g>
     </g>
    </g>
    <g id="ytick_4">
     <g id="line2d_19">
      <path clip-path="url(#pea6bb6a7b1)" d="M 30.77 118.454155 
L 387.89 118.454155 
" style="fill:none;stroke:#f3f3f3;stroke-dasharray:0.5,0.825;stroke-dashoffset:0;stroke-width:0.5;"/>
     </g>
     <g id="line2d_20">
      <g>
       <use style="fill:#262626;stroke:#262626;" x="30.77" xlink:href="#m688c62ae06" y="118.454155"/>
      </g>
     </g>
     <g id="text_10">
      <!-- 3000 -->
      <defs>
       <path d="M 40.578125 39.3125 
Q 47.65625 37.796875 51.625 33 
Q 55.609375 28.21875 55.609375 21.1875 
Q 55.609375 10.40625 48.1875 4.484375 
Q 40.765625 -1.421875 27.09375 -1.421875 
Q 22.515625 -1.421875 17.65625 -0.515625 
Q 12.796875 0.390625 7.625 2.203125 
L 7.625 11.71875 
Q 11.71875 9.328125 16.59375 8.109375 
Q 21.484375 6.890625 26.8125 6.890625 
Q 36.078125 6.890625 40.9375 10.546875 
Q 45.796875 14.203125 45.796875 21.1875 
Q 45.796875 27.640625 41.28125 31.265625 
Q 36.765625 34.90625 28.71875 34.90625 
L 20.21875 34.90625 
L 20.21875 43.015625 
L 29.109375 43.015625 
Q 36.375 43.015625 40.234375 45.921875 
Q 44.09375 48.828125 44.09375 54.296875 
Q 44.09375 59.90625 40.109375 62.90625 
Q 36.140625 65.921875 28.71875 65.921875 
Q 24.65625 65.921875 20.015625 65.03125 
Q 15.375 64.15625 9.8125 62.3125 
L 9.8125 71.09375 
Q 15.4375 72.65625 20.34375 73.4375 
Q 25.25 74.21875 29.59375 74.21875 
Q 40.828125 74.21875 47.359375 69.109375 
Q 53.90625 64.015625 53.90625 55.328125 
Q 53.90625 49.265625 50.4375 45.09375 
Q 46.96875 40.921875 40.578125 39.3125 
z
" id="DejaVuSans-51"/>
      </defs>
      <g style="fill:#262626;" transform="translate(7.2 120.733686)scale(0.06 -0.06)">
       <use xlink:href="#DejaVuSans-51"/>
       <use x="63.623047" xlink:href="#DejaVuSans-48"/>
       <use x="127.246094" xlink:href="#DejaVuSans-48"/>
       <use x="190.869141" xlink:href="#DejaVuSans-48"/>
      </g>
     </g>
    </g>
    <g id="ytick_5">
     <g id="line2d_21">
      <path clip-path="url(#pea6bb6a7b1)" d="M 30.77 94.444796 
L 387.89 94.444796 
" style="fill:none;stroke:#f3f3f3;stroke-dasharray:0.5,0.825;stroke-dashoffset:0;stroke-width:0.5;"/>
     </g>
     <g id="line2d_22">
      <g>
       <use style="fill:#262626;stroke:#262626;" x="30.77" xlink:href="#m688c62ae06" y="94.444796"/>
      </g>
     </g>
     <g id="text_11">
      <!-- 4000 -->
      <defs>
       <path d="M 37.796875 64.3125 
L 12.890625 25.390625 
L 37.796875 25.390625 
z
M 35.203125 72.90625 
L 47.609375 72.90625 
L 47.609375 25.390625 
L 58.015625 25.390625 
L 58.015625 17.1875 
L 47.609375 17.1875 
L 47.609375 0 
L 37.796875 0 
L 37.796875 17.1875 
L 4.890625 17.1875 
L 4.890625 26.703125 
z
" id="DejaVuSans-52"/>
      </defs>
      <g style="fill:#262626;" transform="translate(7.2 96.724327)scale(0.06 -0.06)">
       <use xlink:href="#DejaVuSans-52"/>
       <use x="63.623047" xlink:href="#DejaVuSans-48"/>
       <use x="127.246094" xlink:href="#DejaVuSans-48"/>
       <use x="190.869141" xlink:href="#DejaVuSans-48"/>
      </g>
     </g>
    </g>
    <g id="ytick_6">
     <g id="line2d_23">
      <path clip-path="url(#pea6bb6a7b1)" d="M 30.77 70.435438 
L 387.89 70.435438 
" style="fill:none;stroke:#f3f3f3;stroke-dasharray:0.5,0.825;stroke-dashoffset:0;stroke-width:0.5;"/>
     </g>
     <g id="line2d_24">
      <g>
       <use style="fill:#262626;stroke:#262626;" x="30.77" xlink:href="#m688c62ae06" y="70.435438"/>
      </g>
     </g>
     <g id="text_12">
      <!-- 5000 -->
      <g style="fill:#262626;" transform="translate(7.2 72.714969)scale(0.06 -0.06)">
       <use xlink:href="#DejaVuSans-53"/>
       <use x="63.623047" xlink:href="#DejaVuSans-48"/>
       <use x="127.246094" xlink:href="#DejaVuSans-48"/>
       <use x="190.869141" xlink:href="#DejaVuSans-48"/>
      </g>
     </g>
    </g>
    <g id="ytick_7">
     <g id="line2d_25">
      <path clip-path="url(#pea6bb6a7b1)" d="M 30.77 46.426079 
L 387.89 46.426079 
" style="fill:none;stroke:#f3f3f3;stroke-dasharray:0.5,0.825;stroke-dashoffset:0;stroke-width:0.5;"/>
     </g>
     <g id="line2d_26">
      <g>
       <use style="fill:#262626;stroke:#262626;" x="30.77" xlink:href="#m688c62ae06" y="46.426079"/>
      </g>
     </g>
     <g id="text_13">
      <!-- 6000 -->
      <defs>
       <path d="M 33.015625 40.375 
Q 26.375 40.375 22.484375 35.828125 
Q 18.609375 31.296875 18.609375 23.390625 
Q 18.609375 15.53125 22.484375 10.953125 
Q 26.375 6.390625 33.015625 6.390625 
Q 39.65625 6.390625 43.53125 10.953125 
Q 47.40625 15.53125 47.40625 23.390625 
Q 47.40625 31.296875 43.53125 35.828125 
Q 39.65625 40.375 33.015625 40.375 
z
M 52.59375 71.296875 
L 52.59375 62.3125 
Q 48.875 64.0625 45.09375 64.984375 
Q 41.3125 65.921875 37.59375 65.921875 
Q 27.828125 65.921875 22.671875 59.328125 
Q 17.53125 52.734375 16.796875 39.40625 
Q 19.671875 43.65625 24.015625 45.921875 
Q 28.375 48.1875 33.59375 48.1875 
Q 44.578125 48.1875 50.953125 41.515625 
Q 57.328125 34.859375 57.328125 23.390625 
Q 57.328125 12.15625 50.6875 5.359375 
Q 44.046875 -1.421875 33.015625 -1.421875 
Q 20.359375 -1.421875 13.671875 8.265625 
Q 6.984375 17.96875 6.984375 36.375 
Q 6.984375 53.65625 15.1875 63.9375 
Q 23.390625 74.21875 37.203125 74.21875 
Q 40.921875 74.21875 44.703125 73.484375 
Q 48.484375 72.75 52.59375 71.296875 
z
" id="DejaVuSans-54"/>
      </defs>
      <g style="fill:#262626;" transform="translate(7.2 48.70561)scale(0.06 -0.06)">
       <use xlink:href="#DejaVuSans-54"/>
       <use x="63.623047" xlink:href="#DejaVuSans-48"/>
       <use x="127.246094" xlink:href="#DejaVuSans-48"/>
       <use x="190.869141" xlink:href="#DejaVuSans-48"/>
      </g>
     </g>
    </g>
    <g id="ytick_8">
     <g id="line2d_27">
      <path clip-path="url(#pea6bb6a7b1)" d="M 30.77 22.416721 
L 387.89 22.416721 
" style="fill:none;stroke:#f3f3f3;stroke-dasharray:0.5,0.825;stroke-dashoffset:0;stroke-width:0.5;"/>
     </g>
     <g id="line2d_28">
      <g>
       <use style="fill:#262626;stroke:#262626;" x="30.77" xlink:href="#m688c62ae06" y="22.416721"/>
      </g>
     </g>
     <g id="text_14">
      <!-- 7000 -->
      <defs>
       <path d="M 8.203125 72.90625 
L 55.078125 72.90625 
L 55.078125 68.703125 
L 28.609375 0 
L 18.3125 0 
L 43.21875 64.59375 
L 8.203125 64.59375 
z
" id="DejaVuSans-55"/>
      </defs>
      <g style="fill:#262626;" transform="translate(7.2 24.696252)scale(0.06 -0.06)">
       <use xlink:href="#DejaVuSans-55"/>
       <use x="63.623047" xlink:href="#DejaVuSans-48"/>
       <use x="127.246094" xlink:href="#DejaVuSans-48"/>
       <use x="190.869141" xlink:href="#DejaVuSans-48"/>
      </g>
     </g>
    </g>
   </g>
   <g id="line2d_29">
    <path clip-path="url(#pea6bb6a7b1)" d="M 47.002727 190.48223 
L 51.112278 190.48223 
L 55.22183 190.48223 
L 59.331381 190.48223 
L 63.440932 190.48223 
L 67.550483 190.48223 
L 71.660035 190.48223 
L 75.769586 190.48223 
L 79.879137 190.458221 
L 83.988688 190.458221 
L 88.098239 190.458221 
L 92.207791 190.434211 
L 96.317342 190.410202 
L 100.426893 190.410202 
L 104.536444 190.410202 
L 108.645995 190.410202 
L 112.755547 190.410202 
L 116.865098 190.410202 
L 120.974649 190.410202 
L 125.0842 190.410202 
L 129.193751 190.410202 
L 133.303303 190.410202 
L 137.412854 190.410202 
L 141.522405 190.410202 
L 145.631956 190.410202 
L 149.741507 190.410202 
L 153.851059 190.410202 
L 157.96061 190.410202 
L 162.070161 190.410202 
L 166.179712 190.410202 
L 170.289264 190.410202 
L 174.398815 190.410202 
L 178.508366 190.410202 
L 182.617917 190.410202 
L 186.727468 190.410202 
L 190.83702 190.410202 
L 194.946571 190.410202 
L 199.056122 190.410202 
L 203.165673 190.410202 
L 207.275224 190.410202 
L 211.384776 190.362183 
L 215.494327 190.362183 
L 219.603878 189.809968 
L 223.713429 189.761949 
L 227.82298 189.73794 
L 231.932532 189.665912 
L 236.042083 189.545865 
L 240.151634 189.449828 
L 244.261185 189.137706 
L 248.370736 188.99365 
L 252.480288 188.729547 
L 256.589839 188.513463 
L 260.69939 188.033276 
L 264.808941 187.769173 
L 268.918493 187.625116 
L 273.028044 187.072901 
L 277.137595 186.73677 
L 281.247146 185.824415 
L 285.356697 184.623947 
L 289.466249 182.559142 
L 293.5758 180.974524 
L 297.685351 178.50156 
L 301.794902 177.613214 
L 305.904453 174.708082 
L 310.014005 173.027426 
L 314.123556 169.185929 
L 318.233107 166.784993 
L 322.342658 165.896647 
L 326.452209 160.446523 
L 330.561761 156.941156 
L 334.671312 142.511532 
L 338.780863 129.426431 
L 342.890414 128.850207 
L 346.999965 116.485387 
L 351.109517 104.336652 
L 355.219068 75.765515 
L 359.328619 62.968527 
L 363.43817 48.442865 
L 367.547722 29.019294 
L 371.657273 28.154957 
" style="fill:none;stroke:#ffa500;stroke-linecap:round;stroke-width:2;"/>
    <defs>
     <path d="M 0 2 
C 0.530406 2 1.03916 1.789267 1.414214 1.414214 
C 1.789267 1.03916 2 0.530406 2 0 
C 2 -0.530406 1.789267 -1.03916 1.414214 -1.414214 
C 1.03916 -1.789267 0.530406 -2 0 -2 
C -0.530406 -2 -1.03916 -1.789267 -1.414214 -1.414214 
C -1.789267 -1.03916 -2 -0.530406 -2 0 
C -2 0.530406 -1.789267 1.03916 -1.414214 1.414214 
C -1.03916 1.789267 -0.530406 2 0 2 
z
" id="mfe64f430b8" style="stroke:#ffffff;stroke-width:0.25;"/>
    </defs>
    <g clip-path="url(#pea6bb6a7b1)">
     <use style="fill:#ffa500;stroke:#ffffff;stroke-width:0.25;" x="47.002727" xlink:href="#mfe64f430b8" y="190.48223"/>
     <use style="fill:#ffa500;stroke:#ffffff;stroke-width:0.25;" x="51.112278" xlink:href="#mfe64f430b8" y="190.48223"/>
     <use style="fill:#ffa500;stroke:#ffffff;stroke-width:0.25;" x="55.22183" xlink:href="#mfe64f430b8" y="190.48223"/>
     <use style="fill:#ffa500;stroke:#ffffff;stroke-width:0.25;" x="59.331381" xlink:href="#mfe64f430b8" y="190.48223"/>
     <use style="fill:#ffa500;stroke:#ffffff;stroke-width:0.25;" x="63.440932" xlink:href="#mfe64f430b8" y="190.48223"/>
     <use style="fill:#ffa500;stroke:#ffffff;stroke-width:0.25;" x="67.550483" xlink:href="#mfe64f430b8" y="190.48223"/>
     <use style="fill:#ffa500;stroke:#ffffff;stroke-width:0.25;" x="71.660035" xlink:href="#mfe64f430b8" y="190.48223"/>
     <use style="fill:#ffa500;stroke:#ffffff;stroke-width:0.25;" x="75.769586" xlink:href="#mfe64f430b8" y="190.48223"/>
     <use style="fill:#ffa500;stroke:#ffffff;stroke-width:0.25;" x="79.879137" xlink:href="#mfe64f430b8" y="190.458221"/>
     <use style="fill:#ffa500;stroke:#ffffff;stroke-width:0.25;" x="83.988688" xlink:href="#mfe64f430b8" y="190.458221"/>
     <use style="fill:#ffa500;stroke:#ffffff;stroke-width:0.25;" x="88.098239" xlink:href="#mfe64f430b8" y="190.458221"/>
     <use style="fill:#ffa500;stroke:#ffffff;stroke-width:0.25;" x="92.207791" xlink:href="#mfe64f430b8" y="190.434211"/>
     <use style="fill:#ffa500;stroke:#ffffff;stroke-width:0.25;" x="96.317342" xlink:href="#mfe64f430b8" y="190.410202"/>
     <use style="fill:#ffa500;stroke:#ffffff;stroke-width:0.25;" x="100.426893" xlink:href="#mfe64f430b8" y="190.410202"/>
     <use style="fill:#ffa500;stroke:#ffffff;stroke-width:0.25;" x="104.536444" xlink:href="#mfe64f430b8" y="190.410202"/>
     <use style="fill:#ffa500;stroke:#ffffff;stroke-width:0.25;" x="108.645995" xlink:href="#mfe64f430b8" y="190.410202"/>
     <use style="fill:#ffa500;stroke:#ffffff;stroke-width:0.25;" x="112.755547" xlink:href="#mfe64f430b8" y="190.410202"/>
     <use style="fill:#ffa500;stroke:#ffffff;stroke-width:0.25;" x="116.865098" xlink:href="#mfe64f430b8" y="190.410202"/>
     <use style="fill:#ffa500;stroke:#ffffff;stroke-width:0.25;" x="120.974649" xlink:href="#mfe64f430b8" y="190.410202"/>
     <use style="fill:#ffa500;stroke:#ffffff;stroke-width:0.25;" x="125.0842" xlink:href="#mfe64f430b8" y="190.410202"/>
     <use style="fill:#ffa500;stroke:#ffffff;stroke-width:0.25;" x="129.193751" xlink:href="#mfe64f430b8" y="190.410202"/>
     <use style="fill:#ffa500;stroke:#ffffff;stroke-width:0.25;" x="133.303303" xlink:href="#mfe64f430b8" y="190.410202"/>
     <use style="fill:#ffa500;stroke:#ffffff;stroke-width:0.25;" x="137.412854" xlink:href="#mfe64f430b8" y="190.410202"/>
     <use style="fill:#ffa500;stroke:#ffffff;stroke-width:0.25;" x="141.522405" xlink:href="#mfe64f430b8" y="190.410202"/>
     <use style="fill:#ffa500;stroke:#ffffff;stroke-width:0.25;" x="145.631956" xlink:href="#mfe64f430b8" y="190.410202"/>
     <use style="fill:#ffa500;stroke:#ffffff;stroke-width:0.25;" x="149.741507" xlink:href="#mfe64f430b8" y="190.410202"/>
     <use style="fill:#ffa500;stroke:#ffffff;stroke-width:0.25;" x="153.851059" xlink:href="#mfe64f430b8" y="190.410202"/>
     <use style="fill:#ffa500;stroke:#ffffff;stroke-width:0.25;" x="157.96061" xlink:href="#mfe64f430b8" y="190.410202"/>
     <use style="fill:#ffa500;stroke:#ffffff;stroke-width:0.25;" x="162.070161" xlink:href="#mfe64f430b8" y="190.410202"/>
     <use style="fill:#ffa500;stroke:#ffffff;stroke-width:0.25;" x="166.179712" xlink:href="#mfe64f430b8" y="190.410202"/>
     <use style="fill:#ffa500;stroke:#ffffff;stroke-width:0.25;" x="170.289264" xlink:href="#mfe64f430b8" y="190.410202"/>
     <use style="fill:#ffa500;stroke:#ffffff;stroke-width:0.25;" x="174.398815" xlink:href="#mfe64f430b8" y="190.410202"/>
     <use style="fill:#ffa500;stroke:#ffffff;stroke-width:0.25;" x="178.508366" xlink:href="#mfe64f430b8" y="190.410202"/>
     <use style="fill:#ffa500;stroke:#ffffff;stroke-width:0.25;" x="182.617917" xlink:href="#mfe64f430b8" y="190.410202"/>
     <use style="fill:#ffa500;stroke:#ffffff;stroke-width:0.25;" x="186.727468" xlink:href="#mfe64f430b8" y="190.410202"/>
     <use style="fill:#ffa500;stroke:#ffffff;stroke-width:0.25;" x="190.83702" xlink:href="#mfe64f430b8" y="190.410202"/>
     <use style="fill:#ffa500;stroke:#ffffff;stroke-width:0.25;" x="194.946571" xlink:href="#mfe64f430b8" y="190.410202"/>
     <use style="fill:#ffa500;stroke:#ffffff;stroke-width:0.25;" x="199.056122" xlink:href="#mfe64f430b8" y="190.410202"/>
     <use style="fill:#ffa500;stroke:#ffffff;stroke-width:0.25;" x="203.165673" xlink:href="#mfe64f430b8" y="190.410202"/>
     <use style="fill:#ffa500;stroke:#ffffff;stroke-width:0.25;" x="207.275224" xlink:href="#mfe64f430b8" y="190.410202"/>
     <use style="fill:#ffa500;stroke:#ffffff;stroke-width:0.25;" x="211.384776" xlink:href="#mfe64f430b8" y="190.362183"/>
     <use style="fill:#ffa500;stroke:#ffffff;stroke-width:0.25;" x="215.494327" xlink:href="#mfe64f430b8" y="190.362183"/>
     <use style="fill:#ffa500;stroke:#ffffff;stroke-width:0.25;" x="219.603878" xlink:href="#mfe64f430b8" y="189.809968"/>
     <use style="fill:#ffa500;stroke:#ffffff;stroke-width:0.25;" x="223.713429" xlink:href="#mfe64f430b8" y="189.761949"/>
     <use style="fill:#ffa500;stroke:#ffffff;stroke-width:0.25;" x="227.82298" xlink:href="#mfe64f430b8" y="189.73794"/>
     <use style="fill:#ffa500;stroke:#ffffff;stroke-width:0.25;" x="231.932532" xlink:href="#mfe64f430b8" y="189.665912"/>
     <use style="fill:#ffa500;stroke:#ffffff;stroke-width:0.25;" x="236.042083" xlink:href="#mfe64f430b8" y="189.545865"/>
     <use style="fill:#ffa500;stroke:#ffffff;stroke-width:0.25;" x="240.151634" xlink:href="#mfe64f430b8" y="189.449828"/>
     <use style="fill:#ffa500;stroke:#ffffff;stroke-width:0.25;" x="244.261185" xlink:href="#mfe64f430b8" y="189.137706"/>
     <use style="fill:#ffa500;stroke:#ffffff;stroke-width:0.25;" x="248.370736" xlink:href="#mfe64f430b8" y="188.99365"/>
     <use style="fill:#ffa500;stroke:#ffffff;stroke-width:0.25;" x="252.480288" xlink:href="#mfe64f430b8" y="188.729547"/>
     <use style="fill:#ffa500;stroke:#ffffff;stroke-width:0.25;" x="256.589839" xlink:href="#mfe64f430b8" y="188.513463"/>
     <use style="fill:#ffa500;stroke:#ffffff;stroke-width:0.25;" x="260.69939" xlink:href="#mfe64f430b8" y="188.033276"/>
     <use style="fill:#ffa500;stroke:#ffffff;stroke-width:0.25;" x="264.808941" xlink:href="#mfe64f430b8" y="187.769173"/>
     <use style="fill:#ffa500;stroke:#ffffff;stroke-width:0.25;" x="268.918493" xlink:href="#mfe64f430b8" y="187.625116"/>
     <use style="fill:#ffa500;stroke:#ffffff;stroke-width:0.25;" x="273.028044" xlink:href="#mfe64f430b8" y="187.072901"/>
     <use style="fill:#ffa500;stroke:#ffffff;stroke-width:0.25;" x="277.137595" xlink:href="#mfe64f430b8" y="186.73677"/>
     <use style="fill:#ffa500;stroke:#ffffff;stroke-width:0.25;" x="281.247146" xlink:href="#mfe64f430b8" y="185.824415"/>
     <use style="fill:#ffa500;stroke:#ffffff;stroke-width:0.25;" x="285.356697" xlink:href="#mfe64f430b8" y="184.623947"/>
     <use style="fill:#ffa500;stroke:#ffffff;stroke-width:0.25;" x="289.466249" xlink:href="#mfe64f430b8" y="182.559142"/>
     <use style="fill:#ffa500;stroke:#ffffff;stroke-width:0.25;" x="293.5758" xlink:href="#mfe64f430b8" y="180.974524"/>
     <use style="fill:#ffa500;stroke:#ffffff;stroke-width:0.25;" x="297.685351" xlink:href="#mfe64f430b8" y="178.50156"/>
     <use style="fill:#ffa500;stroke:#ffffff;stroke-width:0.25;" x="301.794902" xlink:href="#mfe64f430b8" y="177.613214"/>
     <use style="fill:#ffa500;stroke:#ffffff;stroke-width:0.25;" x="305.904453" xlink:href="#mfe64f430b8" y="174.708082"/>
     <use style="fill:#ffa500;stroke:#ffffff;stroke-width:0.25;" x="310.014005" xlink:href="#mfe64f430b8" y="173.027426"/>
     <use style="fill:#ffa500;stroke:#ffffff;stroke-width:0.25;" x="314.123556" xlink:href="#mfe64f430b8" y="169.185929"/>
     <use style="fill:#ffa500;stroke:#ffffff;stroke-width:0.25;" x="318.233107" xlink:href="#mfe64f430b8" y="166.784993"/>
     <use style="fill:#ffa500;stroke:#ffffff;stroke-width:0.25;" x="322.342658" xlink:href="#mfe64f430b8" y="165.896647"/>
     <use style="fill:#ffa500;stroke:#ffffff;stroke-width:0.25;" x="326.452209" xlink:href="#mfe64f430b8" y="160.446523"/>
     <use style="fill:#ffa500;stroke:#ffffff;stroke-width:0.25;" x="330.561761" xlink:href="#mfe64f430b8" y="156.941156"/>
     <use style="fill:#ffa500;stroke:#ffffff;stroke-width:0.25;" x="334.671312" xlink:href="#mfe64f430b8" y="142.511532"/>
     <use style="fill:#ffa500;stroke:#ffffff;stroke-width:0.25;" x="338.780863" xlink:href="#mfe64f430b8" y="129.426431"/>
     <use style="fill:#ffa500;stroke:#ffffff;stroke-width:0.25;" x="342.890414" xlink:href="#mfe64f430b8" y="128.850207"/>
     <use style="fill:#ffa500;stroke:#ffffff;stroke-width:0.25;" x="346.999965" xlink:href="#mfe64f430b8" y="116.485387"/>
     <use style="fill:#ffa500;stroke:#ffffff;stroke-width:0.25;" x="351.109517" xlink:href="#mfe64f430b8" y="104.336652"/>
     <use style="fill:#ffa500;stroke:#ffffff;stroke-width:0.25;" x="355.219068" xlink:href="#mfe64f430b8" y="75.765515"/>
     <use style="fill:#ffa500;stroke:#ffffff;stroke-width:0.25;" x="359.328619" xlink:href="#mfe64f430b8" y="62.968527"/>
     <use style="fill:#ffa500;stroke:#ffffff;stroke-width:0.25;" x="363.43817" xlink:href="#mfe64f430b8" y="48.442865"/>
     <use style="fill:#ffa500;stroke:#ffffff;stroke-width:0.25;" x="367.547722" xlink:href="#mfe64f430b8" y="29.019294"/>
     <use style="fill:#ffa500;stroke:#ffffff;stroke-width:0.25;" x="371.657273" xlink:href="#mfe64f430b8" y="28.154957"/>
    </g>
   </g>
   <g id="line2d_30">
    <path clip-path="url(#pea6bb6a7b1)" d="M 47.002727 190.48223 
L 51.112278 190.48223 
L 55.22183 190.48223 
L 59.331381 190.48223 
L 63.440932 190.48223 
L 67.550483 190.48223 
L 71.660035 190.48223 
L 75.769586 190.48223 
L 79.879137 190.48223 
L 83.988688 190.48223 
L 88.098239 190.48223 
L 92.207791 190.48223 
L 96.317342 190.48223 
L 100.426893 190.48223 
L 104.536444 190.48223 
L 108.645995 190.48223 
L 112.755547 190.48223 
L 116.865098 190.48223 
L 120.974649 190.48223 
L 125.0842 190.48223 
L 129.193751 190.48223 
L 133.303303 190.48223 
L 137.412854 190.48223 
L 141.522405 190.48223 
L 145.631956 190.48223 
L 149.741507 190.410202 
L 153.851059 190.410202 
L 157.96061 190.410202 
L 162.070161 190.410202 
L 166.179712 190.410202 
L 170.289264 190.410202 
L 174.398815 190.410202 
L 178.508366 190.410202 
L 182.617917 190.410202 
L 186.727468 190.410202 
L 190.83702 190.410202 
L 194.946571 190.410202 
L 199.056122 190.410202 
L 203.165673 190.410202 
L 207.275224 190.410202 
L 211.384776 190.410202 
L 215.494327 190.410202 
L 219.603878 190.410202 
L 223.713429 190.410202 
L 227.82298 190.410202 
L 231.932532 190.410202 
L 236.042083 190.410202 
L 240.151634 190.410202 
L 244.261185 190.386193 
L 248.370736 190.386193 
L 252.480288 190.386193 
L 256.589839 190.386193 
L 260.69939 190.386193 
L 264.808941 190.170108 
L 268.918493 190.170108 
L 273.028044 190.146099 
L 277.137595 190.146099 
L 281.247146 190.12209 
L 285.356697 190.002043 
L 289.466249 189.930015 
L 293.5758 189.833977 
L 297.685351 189.833977 
L 301.794902 189.521856 
L 305.904453 189.449828 
L 310.014005 189.401809 
L 314.123556 188.729547 
L 318.233107 188.465444 
L 322.342658 188.201341 
L 326.452209 188.033276 
L 330.561761 187.529079 
L 334.671312 186.928845 
L 338.780863 185.896443 
L 342.890414 185.872433 
L 346.999965 184.984087 
L 351.109517 184.984087 
L 355.219068 181.478721 
L 359.328619 180.37429 
L 363.43817 178.333495 
L 367.547722 175.596428 
" style="fill:none;stroke:#008000;stroke-linecap:round;stroke-width:2;"/>
    <defs>
     <path d="M -0 2.828427 
L 1.697056 0 
L 0 -2.828427 
L -1.697056 -0 
z
" id="md8cfaddf31" style="stroke:#ffffff;stroke-linejoin:miter;stroke-width:0.25;"/>
    </defs>
    <g clip-path="url(#pea6bb6a7b1)">
     <use style="fill:#008000;stroke:#ffffff;stroke-linejoin:miter;stroke-width:0.25;" x="47.002727" xlink:href="#md8cfaddf31" y="190.48223"/>
     <use style="fill:#008000;stroke:#ffffff;stroke-linejoin:miter;stroke-width:0.25;" x="51.112278" xlink:href="#md8cfaddf31" y="190.48223"/>
     <use style="fill:#008000;stroke:#ffffff;stroke-linejoin:miter;stroke-width:0.25;" x="55.22183" xlink:href="#md8cfaddf31" y="190.48223"/>
     <use style="fill:#008000;stroke:#ffffff;stroke-linejoin:miter;stroke-width:0.25;" x="59.331381" xlink:href="#md8cfaddf31" y="190.48223"/>
     <use style="fill:#008000;stroke:#ffffff;stroke-linejoin:miter;stroke-width:0.25;" x="63.440932" xlink:href="#md8cfaddf31" y="190.48223"/>
     <use style="fill:#008000;stroke:#ffffff;stroke-linejoin:miter;stroke-width:0.25;" x="67.550483" xlink:href="#md8cfaddf31" y="190.48223"/>
     <use style="fill:#008000;stroke:#ffffff;stroke-linejoin:miter;stroke-width:0.25;" x="71.660035" xlink:href="#md8cfaddf31" y="190.48223"/>
     <use style="fill:#008000;stroke:#ffffff;stroke-linejoin:miter;stroke-width:0.25;" x="75.769586" xlink:href="#md8cfaddf31" y="190.48223"/>
     <use style="fill:#008000;stroke:#ffffff;stroke-linejoin:miter;stroke-width:0.25;" x="79.879137" xlink:href="#md8cfaddf31" y="190.48223"/>
     <use style="fill:#008000;stroke:#ffffff;stroke-linejoin:miter;stroke-width:0.25;" x="83.988688" xlink:href="#md8cfaddf31" y="190.48223"/>
     <use style="fill:#008000;stroke:#ffffff;stroke-linejoin:miter;stroke-width:0.25;" x="88.098239" xlink:href="#md8cfaddf31" y="190.48223"/>
     <use style="fill:#008000;stroke:#ffffff;stroke-linejoin:miter;stroke-width:0.25;" x="92.207791" xlink:href="#md8cfaddf31" y="190.48223"/>
     <use style="fill:#008000;stroke:#ffffff;stroke-linejoin:miter;stroke-width:0.25;" x="96.317342" xlink:href="#md8cfaddf31" y="190.48223"/>
     <use style="fill:#008000;stroke:#ffffff;stroke-linejoin:miter;stroke-width:0.25;" x="100.426893" xlink:href="#md8cfaddf31" y="190.48223"/>
     <use style="fill:#008000;stroke:#ffffff;stroke-linejoin:miter;stroke-width:0.25;" x="104.536444" xlink:href="#md8cfaddf31" y="190.48223"/>
     <use style="fill:#008000;stroke:#ffffff;stroke-linejoin:miter;stroke-width:0.25;" x="108.645995" xlink:href="#md8cfaddf31" y="190.48223"/>
     <use style="fill:#008000;stroke:#ffffff;stroke-linejoin:miter;stroke-width:0.25;" x="112.755547" xlink:href="#md8cfaddf31" y="190.48223"/>
     <use style="fill:#008000;stroke:#ffffff;stroke-linejoin:miter;stroke-width:0.25;" x="116.865098" xlink:href="#md8cfaddf31" y="190.48223"/>
     <use style="fill:#008000;stroke:#ffffff;stroke-linejoin:miter;stroke-width:0.25;" x="120.974649" xlink:href="#md8cfaddf31" y="190.48223"/>
     <use style="fill:#008000;stroke:#ffffff;stroke-linejoin:miter;stroke-width:0.25;" x="125.0842" xlink:href="#md8cfaddf31" y="190.48223"/>
     <use style="fill:#008000;stroke:#ffffff;stroke-linejoin:miter;stroke-width:0.25;" x="129.193751" xlink:href="#md8cfaddf31" y="190.48223"/>
     <use style="fill:#008000;stroke:#ffffff;stroke-linejoin:miter;stroke-width:0.25;" x="133.303303" xlink:href="#md8cfaddf31" y="190.48223"/>
     <use style="fill:#008000;stroke:#ffffff;stroke-linejoin:miter;stroke-width:0.25;" x="137.412854" xlink:href="#md8cfaddf31" y="190.48223"/>
     <use style="fill:#008000;stroke:#ffffff;stroke-linejoin:miter;stroke-width:0.25;" x="141.522405" xlink:href="#md8cfaddf31" y="190.48223"/>
     <use style="fill:#008000;stroke:#ffffff;stroke-linejoin:miter;stroke-width:0.25;" x="145.631956" xlink:href="#md8cfaddf31" y="190.48223"/>
     <use style="fill:#008000;stroke:#ffffff;stroke-linejoin:miter;stroke-width:0.25;" x="149.741507" xlink:href="#md8cfaddf31" y="190.410202"/>
     <use style="fill:#008000;stroke:#ffffff;stroke-linejoin:miter;stroke-width:0.25;" x="153.851059" xlink:href="#md8cfaddf31" y="190.410202"/>
     <use style="fill:#008000;stroke:#ffffff;stroke-linejoin:miter;stroke-width:0.25;" x="157.96061" xlink:href="#md8cfaddf31" y="190.410202"/>
     <use style="fill:#008000;stroke:#ffffff;stroke-linejoin:miter;stroke-width:0.25;" x="162.070161" xlink:href="#md8cfaddf31" y="190.410202"/>
     <use style="fill:#008000;stroke:#ffffff;stroke-linejoin:miter;stroke-width:0.25;" x="166.179712" xlink:href="#md8cfaddf31" y="190.410202"/>
     <use style="fill:#008000;stroke:#ffffff;stroke-linejoin:miter;stroke-width:0.25;" x="170.289264" xlink:href="#md8cfaddf31" y="190.410202"/>
     <use style="fill:#008000;stroke:#ffffff;stroke-linejoin:miter;stroke-width:0.25;" x="174.398815" xlink:href="#md8cfaddf31" y="190.410202"/>
     <use style="fill:#008000;stroke:#ffffff;stroke-linejoin:miter;stroke-width:0.25;" x="178.508366" xlink:href="#md8cfaddf31" y="190.410202"/>
     <use style="fill:#008000;stroke:#ffffff;stroke-linejoin:miter;stroke-width:0.25;" x="182.617917" xlink:href="#md8cfaddf31" y="190.410202"/>
     <use style="fill:#008000;stroke:#ffffff;stroke-linejoin:miter;stroke-width:0.25;" x="186.727468" xlink:href="#md8cfaddf31" y="190.410202"/>
     <use style="fill:#008000;stroke:#ffffff;stroke-linejoin:miter;stroke-width:0.25;" x="190.83702" xlink:href="#md8cfaddf31" y="190.410202"/>
     <use style="fill:#008000;stroke:#ffffff;stroke-linejoin:miter;stroke-width:0.25;" x="194.946571" xlink:href="#md8cfaddf31" y="190.410202"/>
     <use style="fill:#008000;stroke:#ffffff;stroke-linejoin:miter;stroke-width:0.25;" x="199.056122" xlink:href="#md8cfaddf31" y="190.410202"/>
     <use style="fill:#008000;stroke:#ffffff;stroke-linejoin:miter;stroke-width:0.25;" x="203.165673" xlink:href="#md8cfaddf31" y="190.410202"/>
     <use style="fill:#008000;stroke:#ffffff;stroke-linejoin:miter;stroke-width:0.25;" x="207.275224" xlink:href="#md8cfaddf31" y="190.410202"/>
     <use style="fill:#008000;stroke:#ffffff;stroke-linejoin:miter;stroke-width:0.25;" x="211.384776" xlink:href="#md8cfaddf31" y="190.410202"/>
     <use style="fill:#008000;stroke:#ffffff;stroke-linejoin:miter;stroke-width:0.25;" x="215.494327" xlink:href="#md8cfaddf31" y="190.410202"/>
     <use style="fill:#008000;stroke:#ffffff;stroke-linejoin:miter;stroke-width:0.25;" x="219.603878" xlink:href="#md8cfaddf31" y="190.410202"/>
     <use style="fill:#008000;stroke:#ffffff;stroke-linejoin:miter;stroke-width:0.25;" x="223.713429" xlink:href="#md8cfaddf31" y="190.410202"/>
     <use style="fill:#008000;stroke:#ffffff;stroke-linejoin:miter;stroke-width:0.25;" x="227.82298" xlink:href="#md8cfaddf31" y="190.410202"/>
     <use style="fill:#008000;stroke:#ffffff;stroke-linejoin:miter;stroke-width:0.25;" x="231.932532" xlink:href="#md8cfaddf31" y="190.410202"/>
     <use style="fill:#008000;stroke:#ffffff;stroke-linejoin:miter;stroke-width:0.25;" x="236.042083" xlink:href="#md8cfaddf31" y="190.410202"/>
     <use style="fill:#008000;stroke:#ffffff;stroke-linejoin:miter;stroke-width:0.25;" x="240.151634" xlink:href="#md8cfaddf31" y="190.410202"/>
     <use style="fill:#008000;stroke:#ffffff;stroke-linejoin:miter;stroke-width:0.25;" x="244.261185" xlink:href="#md8cfaddf31" y="190.386193"/>
     <use style="fill:#008000;stroke:#ffffff;stroke-linejoin:miter;stroke-width:0.25;" x="248.370736" xlink:href="#md8cfaddf31" y="190.386193"/>
     <use style="fill:#008000;stroke:#ffffff;stroke-linejoin:miter;stroke-width:0.25;" x="252.480288" xlink:href="#md8cfaddf31" y="190.386193"/>
     <use style="fill:#008000;stroke:#ffffff;stroke-linejoin:miter;stroke-width:0.25;" x="256.589839" xlink:href="#md8cfaddf31" y="190.386193"/>
     <use style="fill:#008000;stroke:#ffffff;stroke-linejoin:miter;stroke-width:0.25;" x="260.69939" xlink:href="#md8cfaddf31" y="190.386193"/>
     <use style="fill:#008000;stroke:#ffffff;stroke-linejoin:miter;stroke-width:0.25;" x="264.808941" xlink:href="#md8cfaddf31" y="190.170108"/>
     <use style="fill:#008000;stroke:#ffffff;stroke-linejoin:miter;stroke-width:0.25;" x="268.918493" xlink:href="#md8cfaddf31" y="190.170108"/>
     <use style="fill:#008000;stroke:#ffffff;stroke-linejoin:miter;stroke-width:0.25;" x="273.028044" xlink:href="#md8cfaddf31" y="190.146099"/>
     <use style="fill:#008000;stroke:#ffffff;stroke-linejoin:miter;stroke-width:0.25;" x="277.137595" xlink:href="#md8cfaddf31" y="190.146099"/>
     <use style="fill:#008000;stroke:#ffffff;stroke-linejoin:miter;stroke-width:0.25;" x="281.247146" xlink:href="#md8cfaddf31" y="190.12209"/>
     <use style="fill:#008000;stroke:#ffffff;stroke-linejoin:miter;stroke-width:0.25;" x="285.356697" xlink:href="#md8cfaddf31" y="190.002043"/>
     <use style="fill:#008000;stroke:#ffffff;stroke-linejoin:miter;stroke-width:0.25;" x="289.466249" xlink:href="#md8cfaddf31" y="189.930015"/>
     <use style="fill:#008000;stroke:#ffffff;stroke-linejoin:miter;stroke-width:0.25;" x="293.5758" xlink:href="#md8cfaddf31" y="189.833977"/>
     <use style="fill:#008000;stroke:#ffffff;stroke-linejoin:miter;stroke-width:0.25;" x="297.685351" xlink:href="#md8cfaddf31" y="189.833977"/>
     <use style="fill:#008000;stroke:#ffffff;stroke-linejoin:miter;stroke-width:0.25;" x="301.794902" xlink:href="#md8cfaddf31" y="189.521856"/>
     <use style="fill:#008000;stroke:#ffffff;stroke-linejoin:miter;stroke-width:0.25;" x="305.904453" xlink:href="#md8cfaddf31" y="189.449828"/>
     <use style="fill:#008000;stroke:#ffffff;stroke-linejoin:miter;stroke-width:0.25;" x="310.014005" xlink:href="#md8cfaddf31" y="189.401809"/>
     <use style="fill:#008000;stroke:#ffffff;stroke-linejoin:miter;stroke-width:0.25;" x="314.123556" xlink:href="#md8cfaddf31" y="188.729547"/>
     <use style="fill:#008000;stroke:#ffffff;stroke-linejoin:miter;stroke-width:0.25;" x="318.233107" xlink:href="#md8cfaddf31" y="188.465444"/>
     <use style="fill:#008000;stroke:#ffffff;stroke-linejoin:miter;stroke-width:0.25;" x="322.342658" xlink:href="#md8cfaddf31" y="188.201341"/>
     <use style="fill:#008000;stroke:#ffffff;stroke-linejoin:miter;stroke-width:0.25;" x="326.452209" xlink:href="#md8cfaddf31" y="188.033276"/>
     <use style="fill:#008000;stroke:#ffffff;stroke-linejoin:miter;stroke-width:0.25;" x="330.561761" xlink:href="#md8cfaddf31" y="187.529079"/>
     <use style="fill:#008000;stroke:#ffffff;stroke-linejoin:miter;stroke-width:0.25;" x="334.671312" xlink:href="#md8cfaddf31" y="186.928845"/>
     <use style="fill:#008000;stroke:#ffffff;stroke-linejoin:miter;stroke-width:0.25;" x="338.780863" xlink:href="#md8cfaddf31" y="185.896443"/>
     <use style="fill:#008000;stroke:#ffffff;stroke-linejoin:miter;stroke-width:0.25;" x="342.890414" xlink:href="#md8cfaddf31" y="185.872433"/>
     <use style="fill:#008000;stroke:#ffffff;stroke-linejoin:miter;stroke-width:0.25;" x="346.999965" xlink:href="#md8cfaddf31" y="184.984087"/>
     <use style="fill:#008000;stroke:#ffffff;stroke-linejoin:miter;stroke-width:0.25;" x="351.109517" xlink:href="#md8cfaddf31" y="184.984087"/>
     <use style="fill:#008000;stroke:#ffffff;stroke-linejoin:miter;stroke-width:0.25;" x="355.219068" xlink:href="#md8cfaddf31" y="181.478721"/>
     <use style="fill:#008000;stroke:#ffffff;stroke-linejoin:miter;stroke-width:0.25;" x="359.328619" xlink:href="#md8cfaddf31" y="180.37429"/>
     <use style="fill:#008000;stroke:#ffffff;stroke-linejoin:miter;stroke-width:0.25;" x="363.43817" xlink:href="#md8cfaddf31" y="178.333495"/>
     <use style="fill:#008000;stroke:#ffffff;stroke-linejoin:miter;stroke-width:0.25;" x="367.547722" xlink:href="#md8cfaddf31" y="175.596428"/>
    </g>
   </g>
   <g id="line2d_31">
    <path clip-path="url(#pea6bb6a7b1)" d="M 47.002727 190.48223 
L 51.112278 190.48223 
L 55.22183 190.48223 
L 59.331381 190.48223 
L 63.440932 190.48223 
L 67.550483 190.48223 
L 71.660035 190.48223 
L 75.769586 190.48223 
L 79.879137 190.48223 
L 83.988688 190.48223 
L 88.098239 190.48223 
L 92.207791 190.48223 
L 96.317342 190.48223 
L 100.426893 190.48223 
L 104.536444 190.48223 
L 108.645995 190.48223 
L 112.755547 190.48223 
L 116.865098 190.48223 
L 120.974649 190.48223 
L 125.0842 190.48223 
L 129.193751 190.48223 
L 133.303303 190.48223 
L 137.412854 190.48223 
L 141.522405 190.48223 
L 145.631956 190.48223 
L 149.741507 190.48223 
L 153.851059 190.48223 
L 157.96061 190.48223 
L 162.070161 190.48223 
L 166.179712 190.48223 
L 170.289264 190.48223 
L 174.398815 190.48223 
L 178.508366 190.48223 
L 182.617917 190.48223 
L 186.727468 190.48223 
L 190.83702 190.48223 
L 194.946571 190.48223 
L 199.056122 190.48223 
L 203.165673 190.48223 
L 207.275224 190.48223 
L 211.384776 190.48223 
L 215.494327 190.48223 
L 219.603878 190.48223 
L 223.713429 190.48223 
L 227.82298 190.48223 
L 231.932532 190.48223 
L 236.042083 190.48223 
L 240.151634 190.48223 
L 244.261185 190.48223 
L 248.370736 190.458221 
L 252.480288 190.458221 
L 256.589839 190.434211 
L 260.69939 190.434211 
L 264.808941 190.434211 
L 268.918493 190.434211 
L 273.028044 190.410202 
L 277.137595 190.410202 
L 281.247146 190.386193 
L 285.356697 190.362183 
L 289.466249 190.386193 
L 293.5758 190.314165 
L 297.685351 190.242137 
L 301.794902 190.242137 
L 305.904453 190.194118 
L 310.014005 190.002043 
L 314.123556 190.002043 
L 318.233107 189.906006 
L 322.342658 189.833977 
L 326.452209 189.713931 
L 330.561761 189.641903 
L 334.671312 189.089687 
L 338.780863 188.753556 
L 342.890414 188.753556 
L 346.999965 188.417425 
L 351.109517 188.105304 
L 355.219068 187.216957 
L 359.328619 186.880826 
L 363.43817 186.208564 
L 367.547722 185.056115 
" style="fill:none;stroke:#ff0000;stroke-linecap:round;stroke-width:2;"/>
    <defs>
     <path d="M -1 2 
L 0 1 
L 1 2 
L 2 1 
L 1 0 
L 2 -1 
L 1 -2 
L 0 -1 
L -1 -2 
L -2 -1 
L -1 0 
L -2 1 
z
" id="mf9833be970" style="stroke:#ffffff;stroke-linejoin:miter;stroke-width:0.25;"/>
    </defs>
    <g clip-path="url(#pea6bb6a7b1)">
     <use style="fill:#ff0000;stroke:#ffffff;stroke-linejoin:miter;stroke-width:0.25;" x="47.002727" xlink:href="#mf9833be970" y="190.48223"/>
     <use style="fill:#ff0000;stroke:#ffffff;stroke-linejoin:miter;stroke-width:0.25;" x="51.112278" xlink:href="#mf9833be970" y="190.48223"/>
     <use style="fill:#ff0000;stroke:#ffffff;stroke-linejoin:miter;stroke-width:0.25;" x="55.22183" xlink:href="#mf9833be970" y="190.48223"/>
     <use style="fill:#ff0000;stroke:#ffffff;stroke-linejoin:miter;stroke-width:0.25;" x="59.331381" xlink:href="#mf9833be970" y="190.48223"/>
     <use style="fill:#ff0000;stroke:#ffffff;stroke-linejoin:miter;stroke-width:0.25;" x="63.440932" xlink:href="#mf9833be970" y="190.48223"/>
     <use style="fill:#ff0000;stroke:#ffffff;stroke-linejoin:miter;stroke-width:0.25;" x="67.550483" xlink:href="#mf9833be970" y="190.48223"/>
     <use style="fill:#ff0000;stroke:#ffffff;stroke-linejoin:miter;stroke-width:0.25;" x="71.660035" xlink:href="#mf9833be970" y="190.48223"/>
     <use style="fill:#ff0000;stroke:#ffffff;stroke-linejoin:miter;stroke-width:0.25;" x="75.769586" xlink:href="#mf9833be970" y="190.48223"/>
     <use style="fill:#ff0000;stroke:#ffffff;stroke-linejoin:miter;stroke-width:0.25;" x="79.879137" xlink:href="#mf9833be970" y="190.48223"/>
     <use style="fill:#ff0000;stroke:#ffffff;stroke-linejoin:miter;stroke-width:0.25;" x="83.988688" xlink:href="#mf9833be970" y="190.48223"/>
     <use style="fill:#ff0000;stroke:#ffffff;stroke-linejoin:miter;stroke-width:0.25;" x="88.098239" xlink:href="#mf9833be970" y="190.48223"/>
     <use style="fill:#ff0000;stroke:#ffffff;stroke-linejoin:miter;stroke-width:0.25;" x="92.207791" xlink:href="#mf9833be970" y="190.48223"/>
     <use style="fill:#ff0000;stroke:#ffffff;stroke-linejoin:miter;stroke-width:0.25;" x="96.317342" xlink:href="#mf9833be970" y="190.48223"/>
     <use style="fill:#ff0000;stroke:#ffffff;stroke-linejoin:miter;stroke-width:0.25;" x="100.426893" xlink:href="#mf9833be970" y="190.48223"/>
     <use style="fill:#ff0000;stroke:#ffffff;stroke-linejoin:miter;stroke-width:0.25;" x="104.536444" xlink:href="#mf9833be970" y="190.48223"/>
     <use style="fill:#ff0000;stroke:#ffffff;stroke-linejoin:miter;stroke-width:0.25;" x="108.645995" xlink:href="#mf9833be970" y="190.48223"/>
     <use style="fill:#ff0000;stroke:#ffffff;stroke-linejoin:miter;stroke-width:0.25;" x="112.755547" xlink:href="#mf9833be970" y="190.48223"/>
     <use style="fill:#ff0000;stroke:#ffffff;stroke-linejoin:miter;stroke-width:0.25;" x="116.865098" xlink:href="#mf9833be970" y="190.48223"/>
     <use style="fill:#ff0000;stroke:#ffffff;stroke-linejoin:miter;stroke-width:0.25;" x="120.974649" xlink:href="#mf9833be970" y="190.48223"/>
     <use style="fill:#ff0000;stroke:#ffffff;stroke-linejoin:miter;stroke-width:0.25;" x="125.0842" xlink:href="#mf9833be970" y="190.48223"/>
     <use style="fill:#ff0000;stroke:#ffffff;stroke-linejoin:miter;stroke-width:0.25;" x="129.193751" xlink:href="#mf9833be970" y="190.48223"/>
     <use style="fill:#ff0000;stroke:#ffffff;stroke-linejoin:miter;stroke-width:0.25;" x="133.303303" xlink:href="#mf9833be970" y="190.48223"/>
     <use style="fill:#ff0000;stroke:#ffffff;stroke-linejoin:miter;stroke-width:0.25;" x="137.412854" xlink:href="#mf9833be970" y="190.48223"/>
     <use style="fill:#ff0000;stroke:#ffffff;stroke-linejoin:miter;stroke-width:0.25;" x="141.522405" xlink:href="#mf9833be970" y="190.48223"/>
     <use style="fill:#ff0000;stroke:#ffffff;stroke-linejoin:miter;stroke-width:0.25;" x="145.631956" xlink:href="#mf9833be970" y="190.48223"/>
     <use style="fill:#ff0000;stroke:#ffffff;stroke-linejoin:miter;stroke-width:0.25;" x="149.741507" xlink:href="#mf9833be970" y="190.48223"/>
     <use style="fill:#ff0000;stroke:#ffffff;stroke-linejoin:miter;stroke-width:0.25;" x="153.851059" xlink:href="#mf9833be970" y="190.48223"/>
     <use style="fill:#ff0000;stroke:#ffffff;stroke-linejoin:miter;stroke-width:0.25;" x="157.96061" xlink:href="#mf9833be970" y="190.48223"/>
     <use style="fill:#ff0000;stroke:#ffffff;stroke-linejoin:miter;stroke-width:0.25;" x="162.070161" xlink:href="#mf9833be970" y="190.48223"/>
     <use style="fill:#ff0000;stroke:#ffffff;stroke-linejoin:miter;stroke-width:0.25;" x="166.179712" xlink:href="#mf9833be970" y="190.48223"/>
     <use style="fill:#ff0000;stroke:#ffffff;stroke-linejoin:miter;stroke-width:0.25;" x="170.289264" xlink:href="#mf9833be970" y="190.48223"/>
     <use style="fill:#ff0000;stroke:#ffffff;stroke-linejoin:miter;stroke-width:0.25;" x="174.398815" xlink:href="#mf9833be970" y="190.48223"/>
     <use style="fill:#ff0000;stroke:#ffffff;stroke-linejoin:miter;stroke-width:0.25;" x="178.508366" xlink:href="#mf9833be970" y="190.48223"/>
     <use style="fill:#ff0000;stroke:#ffffff;stroke-linejoin:miter;stroke-width:0.25;" x="182.617917" xlink:href="#mf9833be970" y="190.48223"/>
     <use style="fill:#ff0000;stroke:#ffffff;stroke-linejoin:miter;stroke-width:0.25;" x="186.727468" xlink:href="#mf9833be970" y="190.48223"/>
     <use style="fill:#ff0000;stroke:#ffffff;stroke-linejoin:miter;stroke-width:0.25;" x="190.83702" xlink:href="#mf9833be970" y="190.48223"/>
     <use style="fill:#ff0000;stroke:#ffffff;stroke-linejoin:miter;stroke-width:0.25;" x="194.946571" xlink:href="#mf9833be970" y="190.48223"/>
     <use style="fill:#ff0000;stroke:#ffffff;stroke-linejoin:miter;stroke-width:0.25;" x="199.056122" xlink:href="#mf9833be970" y="190.48223"/>
     <use style="fill:#ff0000;stroke:#ffffff;stroke-linejoin:miter;stroke-width:0.25;" x="203.165673" xlink:href="#mf9833be970" y="190.48223"/>
     <use style="fill:#ff0000;stroke:#ffffff;stroke-linejoin:miter;stroke-width:0.25;" x="207.275224" xlink:href="#mf9833be970" y="190.48223"/>
     <use style="fill:#ff0000;stroke:#ffffff;stroke-linejoin:miter;stroke-width:0.25;" x="211.384776" xlink:href="#mf9833be970" y="190.48223"/>
     <use style="fill:#ff0000;stroke:#ffffff;stroke-linejoin:miter;stroke-width:0.25;" x="215.494327" xlink:href="#mf9833be970" y="190.48223"/>
     <use style="fill:#ff0000;stroke:#ffffff;stroke-linejoin:miter;stroke-width:0.25;" x="219.603878" xlink:href="#mf9833be970" y="190.48223"/>
     <use style="fill:#ff0000;stroke:#ffffff;stroke-linejoin:miter;stroke-width:0.25;" x="223.713429" xlink:href="#mf9833be970" y="190.48223"/>
     <use style="fill:#ff0000;stroke:#ffffff;stroke-linejoin:miter;stroke-width:0.25;" x="227.82298" xlink:href="#mf9833be970" y="190.48223"/>
     <use style="fill:#ff0000;stroke:#ffffff;stroke-linejoin:miter;stroke-width:0.25;" x="231.932532" xlink:href="#mf9833be970" y="190.48223"/>
     <use style="fill:#ff0000;stroke:#ffffff;stroke-linejoin:miter;stroke-width:0.25;" x="236.042083" xlink:href="#mf9833be970" y="190.48223"/>
     <use style="fill:#ff0000;stroke:#ffffff;stroke-linejoin:miter;stroke-width:0.25;" x="240.151634" xlink:href="#mf9833be970" y="190.48223"/>
     <use style="fill:#ff0000;stroke:#ffffff;stroke-linejoin:miter;stroke-width:0.25;" x="244.261185" xlink:href="#mf9833be970" y="190.48223"/>
     <use style="fill:#ff0000;stroke:#ffffff;stroke-linejoin:miter;stroke-width:0.25;" x="248.370736" xlink:href="#mf9833be970" y="190.458221"/>
     <use style="fill:#ff0000;stroke:#ffffff;stroke-linejoin:miter;stroke-width:0.25;" x="252.480288" xlink:href="#mf9833be970" y="190.458221"/>
     <use style="fill:#ff0000;stroke:#ffffff;stroke-linejoin:miter;stroke-width:0.25;" x="256.589839" xlink:href="#mf9833be970" y="190.434211"/>
     <use style="fill:#ff0000;stroke:#ffffff;stroke-linejoin:miter;stroke-width:0.25;" x="260.69939" xlink:href="#mf9833be970" y="190.434211"/>
     <use style="fill:#ff0000;stroke:#ffffff;stroke-linejoin:miter;stroke-width:0.25;" x="264.808941" xlink:href="#mf9833be970" y="190.434211"/>
     <use style="fill:#ff0000;stroke:#ffffff;stroke-linejoin:miter;stroke-width:0.25;" x="268.918493" xlink:href="#mf9833be970" y="190.434211"/>
     <use style="fill:#ff0000;stroke:#ffffff;stroke-linejoin:miter;stroke-width:0.25;" x="273.028044" xlink:href="#mf9833be970" y="190.410202"/>
     <use style="fill:#ff0000;stroke:#ffffff;stroke-linejoin:miter;stroke-width:0.25;" x="277.137595" xlink:href="#mf9833be970" y="190.410202"/>
     <use style="fill:#ff0000;stroke:#ffffff;stroke-linejoin:miter;stroke-width:0.25;" x="281.247146" xlink:href="#mf9833be970" y="190.386193"/>
     <use style="fill:#ff0000;stroke:#ffffff;stroke-linejoin:miter;stroke-width:0.25;" x="285.356697" xlink:href="#mf9833be970" y="190.362183"/>
     <use style="fill:#ff0000;stroke:#ffffff;stroke-linejoin:miter;stroke-width:0.25;" x="289.466249" xlink:href="#mf9833be970" y="190.386193"/>
     <use style="fill:#ff0000;stroke:#ffffff;stroke-linejoin:miter;stroke-width:0.25;" x="293.5758" xlink:href="#mf9833be970" y="190.314165"/>
     <use style="fill:#ff0000;stroke:#ffffff;stroke-linejoin:miter;stroke-width:0.25;" x="297.685351" xlink:href="#mf9833be970" y="190.242137"/>
     <use style="fill:#ff0000;stroke:#ffffff;stroke-linejoin:miter;stroke-width:0.25;" x="301.794902" xlink:href="#mf9833be970" y="190.242137"/>
     <use style="fill:#ff0000;stroke:#ffffff;stroke-linejoin:miter;stroke-width:0.25;" x="305.904453" xlink:href="#mf9833be970" y="190.194118"/>
     <use style="fill:#ff0000;stroke:#ffffff;stroke-linejoin:miter;stroke-width:0.25;" x="310.014005" xlink:href="#mf9833be970" y="190.002043"/>
     <use style="fill:#ff0000;stroke:#ffffff;stroke-linejoin:miter;stroke-width:0.25;" x="314.123556" xlink:href="#mf9833be970" y="190.002043"/>
     <use style="fill:#ff0000;stroke:#ffffff;stroke-linejoin:miter;stroke-width:0.25;" x="318.233107" xlink:href="#mf9833be970" y="189.906006"/>
     <use style="fill:#ff0000;stroke:#ffffff;stroke-linejoin:miter;stroke-width:0.25;" x="322.342658" xlink:href="#mf9833be970" y="189.833977"/>
     <use style="fill:#ff0000;stroke:#ffffff;stroke-linejoin:miter;stroke-width:0.25;" x="326.452209" xlink:href="#mf9833be970" y="189.713931"/>
     <use style="fill:#ff0000;stroke:#ffffff;stroke-linejoin:miter;stroke-width:0.25;" x="330.561761" xlink:href="#mf9833be970" y="189.641903"/>
     <use style="fill:#ff0000;stroke:#ffffff;stroke-linejoin:miter;stroke-width:0.25;" x="334.671312" xlink:href="#mf9833be970" y="189.089687"/>
     <use style="fill:#ff0000;stroke:#ffffff;stroke-linejoin:miter;stroke-width:0.25;" x="338.780863" xlink:href="#mf9833be970" y="188.753556"/>
     <use style="fill:#ff0000;stroke:#ffffff;stroke-linejoin:miter;stroke-width:0.25;" x="342.890414" xlink:href="#mf9833be970" y="188.753556"/>
     <use style="fill:#ff0000;stroke:#ffffff;stroke-linejoin:miter;stroke-width:0.25;" x="346.999965" xlink:href="#mf9833be970" y="188.417425"/>
     <use style="fill:#ff0000;stroke:#ffffff;stroke-linejoin:miter;stroke-width:0.25;" x="351.109517" xlink:href="#mf9833be970" y="188.105304"/>
     <use style="fill:#ff0000;stroke:#ffffff;stroke-linejoin:miter;stroke-width:0.25;" x="355.219068" xlink:href="#mf9833be970" y="187.216957"/>
     <use style="fill:#ff0000;stroke:#ffffff;stroke-linejoin:miter;stroke-width:0.25;" x="359.328619" xlink:href="#mf9833be970" y="186.880826"/>
     <use style="fill:#ff0000;stroke:#ffffff;stroke-linejoin:miter;stroke-width:0.25;" x="363.43817" xlink:href="#mf9833be970" y="186.208564"/>
     <use style="fill:#ff0000;stroke:#ffffff;stroke-linejoin:miter;stroke-width:0.25;" x="367.547722" xlink:href="#mf9833be970" y="185.056115"/>
    </g>
   </g>
   <g id="line2d_32"/>
   <g id="line2d_33"/>
   <g id="line2d_34"/>
   <g id="line2d_35"/>
   <g id="line2d_36">
    <path clip-path="url(#pea6bb6a7b1)" d="M 30.77 28.154957 
L 387.89 28.154957 
" style="fill:none;stroke:#4c72b0;stroke-dasharray:0.5,0.825;stroke-dashoffset:0;stroke-width:0.5;"/>
   </g>
   <g id="line2d_37">
    <path clip-path="url(#pea6bb6a7b1)" d="M 30.77 185.056115 
L 387.89 185.056115 
" style="fill:none;stroke:#4c72b0;stroke-dasharray:0.5,0.825;stroke-dashoffset:0;stroke-width:0.5;"/>
   </g>
   <g id="line2d_38">
    <path clip-path="url(#pea6bb6a7b1)" d="M 30.77 175.596428 
L 387.89 175.596428 
" style="fill:none;stroke:#4c72b0;stroke-dasharray:0.5,0.825;stroke-dashoffset:0;stroke-width:0.5;"/>
   </g>
   <g id="line2d_39">
    <path clip-path="url(#pea6bb6a7b1)" d="M 371.657273 198.598594 
L 371.657273 20.038594 
" style="fill:none;stroke:#4c72b0;stroke-dasharray:0.5,0.825;stroke-dashoffset:0;stroke-width:0.5;"/>
   </g>
   <g id="patch_3">
    <path d="M 30.77 198.598594 
L 30.77 20.038594 
" style="fill:none;stroke:#262626;stroke-linecap:square;stroke-linejoin:miter;"/>
   </g>
   <g id="patch_4">
    <path d="M 387.89 198.598594 
L 387.89 20.038594 
" style="fill:none;stroke:#262626;stroke-linecap:square;stroke-linejoin:miter;"/>
   </g>
   <g id="patch_5">
    <path d="M 30.77 198.598594 
L 387.89 198.598594 
" style="fill:none;stroke:#262626;stroke-linecap:square;stroke-linejoin:miter;"/>
   </g>
   <g id="patch_6">
    <path d="M 30.77 20.038594 
L 387.89 20.038594 
" style="fill:none;stroke:#262626;stroke-linecap:square;stroke-linejoin:miter;"/>
   </g>
   <g id="text_15">
    <!-- 6761 -->
    <g style="fill:#ff0000;" transform="translate(34.3412 26.491207)scale(0.08 -0.08)">
     <use xlink:href="#DejaVuSans-54"/>
     <use x="63.623047" xlink:href="#DejaVuSans-55"/>
     <use x="127.246094" xlink:href="#DejaVuSans-54"/>
     <use x="190.869141" xlink:href="#DejaVuSans-49"/>
    </g>
   </g>
   <g id="text_16">
    <!-- 226 -->
    <g style="fill:#ff0000;" transform="translate(34.3412 183.392365)scale(0.08 -0.08)">
     <use xlink:href="#DejaVuSans-50"/>
     <use x="63.623047" xlink:href="#DejaVuSans-50"/>
     <use x="127.246094" xlink:href="#DejaVuSans-54"/>
    </g>
   </g>
   <g id="text_17">
    <!-- 620 -->
    <g style="fill:#008000;" transform="translate(34.3412 173.932678)scale(0.08 -0.08)">
     <use xlink:href="#DejaVuSans-54"/>
     <use x="63.623047" xlink:href="#DejaVuSans-50"/>
     <use x="127.246094" xlink:href="#DejaVuSans-48"/>
    </g>
   </g>
   <g id="text_18">
    <!-- COVID-19 Cases, Recoveries &amp; Deaths Graph -->
    <defs>
     <path d="M 64.40625 67.28125 
L 64.40625 56.890625 
Q 59.421875 61.53125 53.78125 63.8125 
Q 48.140625 66.109375 41.796875 66.109375 
Q 29.296875 66.109375 22.65625 58.46875 
Q 16.015625 50.828125 16.015625 36.375 
Q 16.015625 21.96875 22.65625 14.328125 
Q 29.296875 6.6875 41.796875 6.6875 
Q 48.140625 6.6875 53.78125 8.984375 
Q 59.421875 11.28125 64.40625 15.921875 
L 64.40625 5.609375 
Q 59.234375 2.09375 53.4375 0.328125 
Q 47.65625 -1.421875 41.21875 -1.421875 
Q 24.65625 -1.421875 15.125 8.703125 
Q 5.609375 18.84375 5.609375 36.375 
Q 5.609375 53.953125 15.125 64.078125 
Q 24.65625 74.21875 41.21875 74.21875 
Q 47.75 74.21875 53.53125 72.484375 
Q 59.328125 70.75 64.40625 67.28125 
z
" id="DejaVuSans-67"/>
     <path d="M 39.40625 66.21875 
Q 28.65625 66.21875 22.328125 58.203125 
Q 16.015625 50.203125 16.015625 36.375 
Q 16.015625 22.609375 22.328125 14.59375 
Q 28.65625 6.59375 39.40625 6.59375 
Q 50.140625 6.59375 56.421875 14.59375 
Q 62.703125 22.609375 62.703125 36.375 
Q 62.703125 50.203125 56.421875 58.203125 
Q 50.140625 66.21875 39.40625 66.21875 
z
M 39.40625 74.21875 
Q 54.734375 74.21875 63.90625 63.9375 
Q 73.09375 53.65625 73.09375 36.375 
Q 73.09375 19.140625 63.90625 8.859375 
Q 54.734375 -1.421875 39.40625 -1.421875 
Q 24.03125 -1.421875 14.8125 8.828125 
Q 5.609375 19.09375 5.609375 36.375 
Q 5.609375 53.65625 14.8125 63.9375 
Q 24.03125 74.21875 39.40625 74.21875 
z
" id="DejaVuSans-79"/>
     <path d="M 28.609375 0 
L 0.78125 72.90625 
L 11.078125 72.90625 
L 34.1875 11.53125 
L 57.328125 72.90625 
L 67.578125 72.90625 
L 39.796875 0 
z
" id="DejaVuSans-86"/>
     <path d="M 9.8125 72.90625 
L 19.671875 72.90625 
L 19.671875 0 
L 9.8125 0 
z
" id="DejaVuSans-73"/>
     <path d="M 19.671875 64.796875 
L 19.671875 8.109375 
L 31.59375 8.109375 
Q 46.6875 8.109375 53.6875 14.9375 
Q 60.6875 21.78125 60.6875 36.53125 
Q 60.6875 51.171875 53.6875 57.984375 
Q 46.6875 64.796875 31.59375 64.796875 
z
M 9.8125 72.90625 
L 30.078125 72.90625 
Q 51.265625 72.90625 61.171875 64.09375 
Q 71.09375 55.28125 71.09375 36.53125 
Q 71.09375 17.671875 61.125 8.828125 
Q 51.171875 0 30.078125 0 
L 9.8125 0 
z
" id="DejaVuSans-68"/>
     <path d="M 4.890625 31.390625 
L 31.203125 31.390625 
L 31.203125 23.390625 
L 4.890625 23.390625 
z
" id="DejaVuSans-45"/>
     <path d="M 10.984375 1.515625 
L 10.984375 10.5 
Q 14.703125 8.734375 18.5 7.8125 
Q 22.3125 6.890625 25.984375 6.890625 
Q 35.75 6.890625 40.890625 13.453125 
Q 46.046875 20.015625 46.78125 33.40625 
Q 43.953125 29.203125 39.59375 26.953125 
Q 35.25 24.703125 29.984375 24.703125 
Q 19.046875 24.703125 12.671875 31.3125 
Q 6.296875 37.9375 6.296875 49.421875 
Q 6.296875 60.640625 12.9375 67.421875 
Q 19.578125 74.21875 30.609375 74.21875 
Q 43.265625 74.21875 49.921875 64.515625 
Q 56.59375 54.828125 56.59375 36.375 
Q 56.59375 19.140625 48.40625 8.859375 
Q 40.234375 -1.421875 26.421875 -1.421875 
Q 22.703125 -1.421875 18.890625 -0.6875 
Q 15.09375 0.046875 10.984375 1.515625 
z
M 30.609375 32.421875 
Q 37.25 32.421875 41.125 36.953125 
Q 45.015625 41.5 45.015625 49.421875 
Q 45.015625 57.28125 41.125 61.84375 
Q 37.25 66.40625 30.609375 66.40625 
Q 23.96875 66.40625 20.09375 61.84375 
Q 16.21875 57.28125 16.21875 49.421875 
Q 16.21875 41.5 20.09375 36.953125 
Q 23.96875 32.421875 30.609375 32.421875 
z
" id="DejaVuSans-57"/>
     <path d="M 44.28125 53.078125 
L 44.28125 44.578125 
Q 40.484375 46.53125 36.375 47.5 
Q 32.28125 48.484375 27.875 48.484375 
Q 21.1875 48.484375 17.84375 46.4375 
Q 14.5 44.390625 14.5 40.28125 
Q 14.5 37.15625 16.890625 35.375 
Q 19.28125 33.59375 26.515625 31.984375 
L 29.59375 31.296875 
Q 39.15625 29.25 43.1875 25.515625 
Q 47.21875 21.78125 47.21875 15.09375 
Q 47.21875 7.46875 41.1875 3.015625 
Q 35.15625 -1.421875 24.609375 -1.421875 
Q 20.21875 -1.421875 15.453125 -0.5625 
Q 10.6875 0.296875 5.421875 2 
L 5.421875 11.28125 
Q 10.40625 8.6875 15.234375 7.390625 
Q 20.0625 6.109375 24.8125 6.109375 
Q 31.15625 6.109375 34.5625 8.28125 
Q 37.984375 10.453125 37.984375 14.40625 
Q 37.984375 18.0625 35.515625 20.015625 
Q 33.0625 21.96875 24.703125 23.78125 
L 21.578125 24.515625 
Q 13.234375 26.265625 9.515625 29.90625 
Q 5.8125 33.546875 5.8125 39.890625 
Q 5.8125 47.609375 11.28125 51.796875 
Q 16.75 56 26.8125 56 
Q 31.78125 56 36.171875 55.265625 
Q 40.578125 54.546875 44.28125 53.078125 
z
" id="DejaVuSans-115"/>
     <path d="M 11.71875 12.40625 
L 22.015625 12.40625 
L 22.015625 4 
L 14.015625 -11.625 
L 7.71875 -11.625 
L 11.71875 4 
z
" id="DejaVuSans-44"/>
     <path d="M 44.390625 34.1875 
Q 47.5625 33.109375 50.5625 29.59375 
Q 53.5625 26.078125 56.59375 19.921875 
L 66.609375 0 
L 56 0 
L 46.6875 18.703125 
Q 43.0625 26.03125 39.671875 28.421875 
Q 36.28125 30.8125 30.421875 30.8125 
L 19.671875 30.8125 
L 19.671875 0 
L 9.8125 0 
L 9.8125 72.90625 
L 32.078125 72.90625 
Q 44.578125 72.90625 50.734375 67.671875 
Q 56.890625 62.453125 56.890625 51.90625 
Q 56.890625 45.015625 53.6875 40.46875 
Q 50.484375 35.9375 44.390625 34.1875 
z
M 19.671875 64.796875 
L 19.671875 38.921875 
L 32.078125 38.921875 
Q 39.203125 38.921875 42.84375 42.21875 
Q 46.484375 45.515625 46.484375 51.90625 
Q 46.484375 58.296875 42.84375 61.546875 
Q 39.203125 64.796875 32.078125 64.796875 
z
" id="DejaVuSans-82"/>
     <path d="M 48.78125 52.59375 
L 48.78125 44.1875 
Q 44.96875 46.296875 41.140625 47.34375 
Q 37.3125 48.390625 33.40625 48.390625 
Q 24.65625 48.390625 19.8125 42.84375 
Q 14.984375 37.3125 14.984375 27.296875 
Q 14.984375 17.28125 19.8125 11.734375 
Q 24.65625 6.203125 33.40625 6.203125 
Q 37.3125 6.203125 41.140625 7.25 
Q 44.96875 8.296875 48.78125 10.40625 
L 48.78125 2.09375 
Q 45.015625 0.34375 40.984375 -0.53125 
Q 36.96875 -1.421875 32.421875 -1.421875 
Q 20.0625 -1.421875 12.78125 6.34375 
Q 5.515625 14.109375 5.515625 27.296875 
Q 5.515625 40.671875 12.859375 48.328125 
Q 20.21875 56 33.015625 56 
Q 37.15625 56 41.109375 55.140625 
Q 45.0625 54.296875 48.78125 52.59375 
z
" id="DejaVuSans-99"/>
     <path d="M 30.609375 48.390625 
Q 23.390625 48.390625 19.1875 42.75 
Q 14.984375 37.109375 14.984375 27.296875 
Q 14.984375 17.484375 19.15625 11.84375 
Q 23.34375 6.203125 30.609375 6.203125 
Q 37.796875 6.203125 41.984375 11.859375 
Q 46.1875 17.53125 46.1875 27.296875 
Q 46.1875 37.015625 41.984375 42.703125 
Q 37.796875 48.390625 30.609375 48.390625 
z
M 30.609375 56 
Q 42.328125 56 49.015625 48.375 
Q 55.71875 40.765625 55.71875 27.296875 
Q 55.71875 13.875 49.015625 6.21875 
Q 42.328125 -1.421875 30.609375 -1.421875 
Q 18.84375 -1.421875 12.171875 6.21875 
Q 5.515625 13.875 5.515625 27.296875 
Q 5.515625 40.765625 12.171875 48.375 
Q 18.84375 56 30.609375 56 
z
" id="DejaVuSans-111"/>
     <path d="M 2.984375 54.6875 
L 12.5 54.6875 
L 29.59375 8.796875 
L 46.6875 54.6875 
L 56.203125 54.6875 
L 35.6875 0 
L 23.484375 0 
z
" id="DejaVuSans-118"/>
     <path d="M 9.421875 54.6875 
L 18.40625 54.6875 
L 18.40625 0 
L 9.421875 0 
z
M 9.421875 75.984375 
L 18.40625 75.984375 
L 18.40625 64.59375 
L 9.421875 64.59375 
z
" id="DejaVuSans-105"/>
     <path d="M 24.3125 39.203125 
Q 19.875 35.25 17.796875 31.3125 
Q 15.71875 27.390625 15.71875 23.09375 
Q 15.71875 15.96875 20.890625 11.234375 
Q 26.078125 6.5 33.890625 6.5 
Q 38.53125 6.5 42.578125 8.03125 
Q 46.625 9.578125 50.203125 12.703125 
z
M 31.203125 44.671875 
L 56 19.28125 
Q 58.890625 23.640625 60.5 28.59375 
Q 62.109375 33.546875 62.40625 39.109375 
L 71.484375 39.109375 
Q 70.90625 32.671875 68.359375 26.359375 
Q 65.828125 20.0625 61.28125 13.921875 
L 74.90625 0 
L 62.59375 0 
L 55.609375 7.171875 
Q 50.53125 2.828125 44.96875 0.703125 
Q 39.40625 -1.421875 33.015625 -1.421875 
Q 21.234375 -1.421875 13.765625 5.296875 
Q 6.296875 12.015625 6.296875 22.515625 
Q 6.296875 28.765625 9.5625 34.25 
Q 12.84375 39.75 19.390625 44.578125 
Q 17.046875 47.65625 15.8125 50.703125 
Q 14.59375 53.765625 14.59375 56.6875 
Q 14.59375 64.59375 20.015625 69.40625 
Q 25.4375 74.21875 34.421875 74.21875 
Q 38.484375 74.21875 42.5 73.34375 
Q 46.53125 72.46875 50.6875 70.703125 
L 50.6875 61.8125 
Q 46.4375 64.109375 42.578125 65.296875 
Q 38.71875 66.5 35.40625 66.5 
Q 30.28125 66.5 27.078125 63.78125 
Q 23.875 61.078125 23.875 56.78125 
Q 23.875 54.296875 25.3125 51.78125 
Q 26.765625 49.265625 31.203125 44.671875 
z
" id="DejaVuSans-38"/>
     <path d="M 18.3125 70.21875 
L 18.3125 54.6875 
L 36.8125 54.6875 
L 36.8125 47.703125 
L 18.3125 47.703125 
L 18.3125 18.015625 
Q 18.3125 11.328125 20.140625 9.421875 
Q 21.96875 7.515625 27.59375 7.515625 
L 36.8125 7.515625 
L 36.8125 0 
L 27.59375 0 
Q 17.1875 0 13.234375 3.875 
Q 9.28125 7.765625 9.28125 18.015625 
L 9.28125 47.703125 
L 2.6875 47.703125 
L 2.6875 54.6875 
L 9.28125 54.6875 
L 9.28125 70.21875 
z
" id="DejaVuSans-116"/>
     <path d="M 54.890625 33.015625 
L 54.890625 0 
L 45.90625 0 
L 45.90625 32.71875 
Q 45.90625 40.484375 42.875 44.328125 
Q 39.84375 48.1875 33.796875 48.1875 
Q 26.515625 48.1875 22.3125 43.546875 
Q 18.109375 38.921875 18.109375 30.90625 
L 18.109375 0 
L 9.078125 0 
L 9.078125 75.984375 
L 18.109375 75.984375 
L 18.109375 46.1875 
Q 21.34375 51.125 25.703125 53.5625 
Q 30.078125 56 35.796875 56 
Q 45.21875 56 50.046875 50.171875 
Q 54.890625 44.34375 54.890625 33.015625 
z
" id="DejaVuSans-104"/>
     <path d="M 59.515625 10.40625 
L 59.515625 29.984375 
L 43.40625 29.984375 
L 43.40625 38.09375 
L 69.28125 38.09375 
L 69.28125 6.78125 
Q 63.578125 2.734375 56.6875 0.65625 
Q 49.8125 -1.421875 42 -1.421875 
Q 24.90625 -1.421875 15.25 8.5625 
Q 5.609375 18.5625 5.609375 36.375 
Q 5.609375 54.25 15.25 64.234375 
Q 24.90625 74.21875 42 74.21875 
Q 49.125 74.21875 55.546875 72.453125 
Q 61.96875 70.703125 67.390625 67.28125 
L 67.390625 56.78125 
Q 61.921875 61.421875 55.765625 63.765625 
Q 49.609375 66.109375 42.828125 66.109375 
Q 29.4375 66.109375 22.71875 58.640625 
Q 16.015625 51.171875 16.015625 36.375 
Q 16.015625 21.625 22.71875 14.15625 
Q 29.4375 6.6875 42.828125 6.6875 
Q 48.046875 6.6875 52.140625 7.59375 
Q 56.25 8.5 59.515625 10.40625 
z
" id="DejaVuSans-71"/>
    </defs>
    <g style="fill:#262626;" transform="translate(107.734766 14.038594)scale(0.09 -0.09)">
     <use xlink:href="#DejaVuSans-67"/>
     <use x="69.824219" xlink:href="#DejaVuSans-79"/>
     <use x="146.785156" xlink:href="#DejaVuSans-86"/>
     <use x="215.193359" xlink:href="#DejaVuSans-73"/>
     <use x="244.685547" xlink:href="#DejaVuSans-68"/>
     <use x="321.6875" xlink:href="#DejaVuSans-45"/>
     <use x="357.771484" xlink:href="#DejaVuSans-49"/>
     <use x="421.394531" xlink:href="#DejaVuSans-57"/>
     <use x="485.017578" xlink:href="#DejaVuSans-32"/>
     <use x="516.804688" xlink:href="#DejaVuSans-67"/>
     <use x="586.628906" xlink:href="#DejaVuSans-97"/>
     <use x="647.908203" xlink:href="#DejaVuSans-115"/>
     <use x="700.007812" xlink:href="#DejaVuSans-101"/>
     <use x="761.53125" xlink:href="#DejaVuSans-115"/>
     <use x="813.630859" xlink:href="#DejaVuSans-44"/>
     <use x="845.417969" xlink:href="#DejaVuSans-32"/>
     <use x="877.205078" xlink:href="#DejaVuSans-82"/>
     <use x="942.1875" xlink:href="#DejaVuSans-101"/>
     <use x="1003.710938" xlink:href="#DejaVuSans-99"/>
     <use x="1058.691406" xlink:href="#DejaVuSans-111"/>
     <use x="1119.873047" xlink:href="#DejaVuSans-118"/>
     <use x="1179.052734" xlink:href="#DejaVuSans-101"/>
     <use x="1240.576172" xlink:href="#DejaVuSans-114"/>
     <use x="1281.689453" xlink:href="#DejaVuSans-105"/>
     <use x="1309.472656" xlink:href="#DejaVuSans-101"/>
     <use x="1370.996094" xlink:href="#DejaVuSans-115"/>
     <use x="1423.095703" xlink:href="#DejaVuSans-32"/>
     <use x="1454.882812" xlink:href="#DejaVuSans-38"/>
     <use x="1532.861328" xlink:href="#DejaVuSans-32"/>
     <use x="1564.648438" xlink:href="#DejaVuSans-68"/>
     <use x="1641.650391" xlink:href="#DejaVuSans-101"/>
     <use x="1703.173828" xlink:href="#DejaVuSans-97"/>
     <use x="1764.453125" xlink:href="#DejaVuSans-116"/>
     <use x="1803.662109" xlink:href="#DejaVuSans-104"/>
     <use x="1867.041016" xlink:href="#DejaVuSans-115"/>
     <use x="1919.140625" xlink:href="#DejaVuSans-32"/>
     <use x="1950.927734" xlink:href="#DejaVuSans-71"/>
     <use x="2028.417969" xlink:href="#DejaVuSans-114"/>
     <use x="2069.53125" xlink:href="#DejaVuSans-97"/>
     <use x="2130.810547" xlink:href="#DejaVuSans-112"/>
     <use x="2194.287109" xlink:href="#DejaVuSans-104"/>
    </g>
   </g>
   <g id="legend_1">
    <g id="line2d_40">
     <path d="M 38.69 95.750094 
L 56.29 95.750094 
" style="fill:none;stroke:#ffa500;stroke-linecap:round;stroke-width:2;"/>
    </g>
    <g id="line2d_41">
     <g>
      <use style="fill:#ffa500;stroke:#ffffff;stroke-width:0.25;" x="47.49" xlink:href="#mfe64f430b8" y="95.750094"/>
     </g>
    </g>
    <g id="text_19">
     <!-- Confirmed Cases -->
     <defs>
      <path d="M 54.890625 33.015625 
L 54.890625 0 
L 45.90625 0 
L 45.90625 32.71875 
Q 45.90625 40.484375 42.875 44.328125 
Q 39.84375 48.1875 33.796875 48.1875 
Q 26.515625 48.1875 22.3125 43.546875 
Q 18.109375 38.921875 18.109375 30.90625 
L 18.109375 0 
L 9.078125 0 
L 9.078125 54.6875 
L 18.109375 54.6875 
L 18.109375 46.1875 
Q 21.34375 51.125 25.703125 53.5625 
Q 30.078125 56 35.796875 56 
Q 45.21875 56 50.046875 50.171875 
Q 54.890625 44.34375 54.890625 33.015625 
z
" id="DejaVuSans-110"/>
      <path d="M 37.109375 75.984375 
L 37.109375 68.5 
L 28.515625 68.5 
Q 23.6875 68.5 21.796875 66.546875 
Q 19.921875 64.59375 19.921875 59.515625 
L 19.921875 54.6875 
L 34.71875 54.6875 
L 34.71875 47.703125 
L 19.921875 47.703125 
L 19.921875 0 
L 10.890625 0 
L 10.890625 47.703125 
L 2.296875 47.703125 
L 2.296875 54.6875 
L 10.890625 54.6875 
L 10.890625 58.5 
Q 10.890625 67.625 15.140625 71.796875 
Q 19.390625 75.984375 28.609375 75.984375 
z
" id="DejaVuSans-102"/>
      <path d="M 52 44.1875 
Q 55.375 50.25 60.0625 53.125 
Q 64.75 56 71.09375 56 
Q 79.640625 56 84.28125 50.015625 
Q 88.921875 44.046875 88.921875 33.015625 
L 88.921875 0 
L 79.890625 0 
L 79.890625 32.71875 
Q 79.890625 40.578125 77.09375 44.375 
Q 74.3125 48.1875 68.609375 48.1875 
Q 61.625 48.1875 57.5625 43.546875 
Q 53.515625 38.921875 53.515625 30.90625 
L 53.515625 0 
L 44.484375 0 
L 44.484375 32.71875 
Q 44.484375 40.625 41.703125 44.40625 
Q 38.921875 48.1875 33.109375 48.1875 
Q 26.21875 48.1875 22.15625 43.53125 
Q 18.109375 38.875 18.109375 30.90625 
L 18.109375 0 
L 9.078125 0 
L 9.078125 54.6875 
L 18.109375 54.6875 
L 18.109375 46.1875 
Q 21.1875 51.21875 25.484375 53.609375 
Q 29.78125 56 35.6875 56 
Q 41.65625 56 45.828125 52.96875 
Q 50 49.953125 52 44.1875 
z
" id="DejaVuSans-109"/>
      <path d="M 45.40625 46.390625 
L 45.40625 75.984375 
L 54.390625 75.984375 
L 54.390625 0 
L 45.40625 0 
L 45.40625 8.203125 
Q 42.578125 3.328125 38.25 0.953125 
Q 33.9375 -1.421875 27.875 -1.421875 
Q 17.96875 -1.421875 11.734375 6.484375 
Q 5.515625 14.40625 5.515625 27.296875 
Q 5.515625 40.1875 11.734375 48.09375 
Q 17.96875 56 27.875 56 
Q 33.9375 56 38.25 53.625 
Q 42.578125 51.265625 45.40625 46.390625 
z
M 14.796875 27.296875 
Q 14.796875 17.390625 18.875 11.75 
Q 22.953125 6.109375 30.078125 6.109375 
Q 37.203125 6.109375 41.296875 11.75 
Q 45.40625 17.390625 45.40625 27.296875 
Q 45.40625 37.203125 41.296875 42.84375 
Q 37.203125 48.484375 30.078125 48.484375 
Q 22.953125 48.484375 18.875 42.84375 
Q 14.796875 37.203125 14.796875 27.296875 
z
" id="DejaVuSans-100"/>
     </defs>
     <g style="fill:#262626;" transform="translate(63.33 98.830094)scale(0.088 -0.088)">
      <use xlink:href="#DejaVuSans-67"/>
      <use x="69.824219" xlink:href="#DejaVuSans-111"/>
      <use x="131.005859" xlink:href="#DejaVuSans-110"/>
      <use x="194.384766" xlink:href="#DejaVuSans-102"/>
      <use x="229.589844" xlink:href="#DejaVuSans-105"/>
      <use x="257.373047" xlink:href="#DejaVuSans-114"/>
      <use x="296.736328" xlink:href="#DejaVuSans-109"/>
      <use x="394.148438" xlink:href="#DejaVuSans-101"/>
      <use x="455.671875" xlink:href="#DejaVuSans-100"/>
      <use x="519.148438" xlink:href="#DejaVuSans-32"/>
      <use x="550.935547" xlink:href="#DejaVuSans-67"/>
      <use x="620.759766" xlink:href="#DejaVuSans-97"/>
      <use x="682.039062" xlink:href="#DejaVuSans-115"/>
      <use x="734.138672" xlink:href="#DejaVuSans-101"/>
      <use x="795.662109" xlink:href="#DejaVuSans-115"/>
     </g>
    </g>
    <g id="line2d_42">
     <path d="M 38.69 108.666844 
L 56.29 108.666844 
" style="fill:none;stroke:#008000;stroke-linecap:round;stroke-width:2;"/>
    </g>
    <g id="line2d_43">
     <g>
      <use style="fill:#008000;stroke:#ffffff;stroke-linejoin:miter;stroke-width:0.25;" x="47.49" xlink:href="#md8cfaddf31" y="108.666844"/>
     </g>
    </g>
    <g id="text_20">
     <!-- Recoveries -->
     <g style="fill:#262626;" transform="translate(63.33 111.746844)scale(0.088 -0.088)">
      <use xlink:href="#DejaVuSans-82"/>
      <use x="64.982422" xlink:href="#DejaVuSans-101"/>
      <use x="126.505859" xlink:href="#DejaVuSans-99"/>
      <use x="181.486328" xlink:href="#DejaVuSans-111"/>
      <use x="242.667969" xlink:href="#DejaVuSans-118"/>
      <use x="301.847656" xlink:href="#DejaVuSans-101"/>
      <use x="363.371094" xlink:href="#DejaVuSans-114"/>
      <use x="404.484375" xlink:href="#DejaVuSans-105"/>
      <use x="432.267578" xlink:href="#DejaVuSans-101"/>
      <use x="493.791016" xlink:href="#DejaVuSans-115"/>
     </g>
    </g>
    <g id="line2d_44">
     <path d="M 38.69 121.583594 
L 56.29 121.583594 
" style="fill:none;stroke:#ff0000;stroke-linecap:round;stroke-width:2;"/>
    </g>
    <g id="line2d_45">
     <g>
      <use style="fill:#ff0000;stroke:#ffffff;stroke-linejoin:miter;stroke-width:0.25;" x="47.49" xlink:href="#mf9833be970" y="121.583594"/>
     </g>
    </g>
    <g id="text_21">
     <!-- Deaths -->
     <g style="fill:#262626;" transform="translate(63.33 124.663594)scale(0.088 -0.088)">
      <use xlink:href="#DejaVuSans-68"/>
      <use x="77.001953" xlink:href="#DejaVuSans-101"/>
      <use x="138.525391" xlink:href="#DejaVuSans-97"/>
      <use x="199.804688" xlink:href="#DejaVuSans-116"/>
      <use x="239.013672" xlink:href="#DejaVuSans-104"/>
      <use x="302.392578" xlink:href="#DejaVuSans-115"/>
     </g>
    </g>
   </g>
  </g>
 </g>
 <defs>
  <clipPath id="pea6bb6a7b1">
   <rect height="178.56" width="357.12" x="30.77" y="20.038594"/>
  </clipPath>
 </defs>
</svg>
