<?xml version="1.0" encoding="utf-8" standalone="no"?>
<!DOCTYPE svg PUBLIC "-//W3C//DTD SVG 1.1//EN"
  "http://www.w3.org/Graphics/SVG/1.1/DTD/svg11.dtd">
<!-- Created with matplotlib (https://matplotlib.org/) -->
<svg height="214.137656pt" version="1.1" viewBox="0 0 376.32 214.137656" width="376.32pt" xmlns="http://www.w3.org/2000/svg" xmlns:xlink="http://www.w3.org/1999/xlink">
 <defs>
  <style type="text/css">
*{stroke-linecap:butt;stroke-linejoin:round;}
  </style>
 </defs>
 <g id="figure_1">
  <g id="patch_1">
   <path d="M 0 214.137656 
L 376.32 214.137656 
L 376.32 0 
L 0 0 
z
" style="fill:#ffffff;"/>
  </g>
  <g id="axes_1">
   <g id="patch_2">
    <path d="M 12 198.598594 
L 369.12 198.598594 
L 369.12 20.038594 
L 12 20.038594 
z
" style="fill:#ffffff;"/>
   </g>
   <g id="matplotlib.axis_1">
    <g id="xtick_1">
     <g id="line2d_1">
      <path clip-path="url(#p3ef6c782a6)" d="M 58.017548 198.598594 
L 58.017548 20.038594 
" style="fill:none;stroke:#f3f3f3;stroke-dasharray:0.5,0.825;stroke-dashoffset:0;stroke-width:0.5;"/>
     </g>
     <g id="line2d_2">
      <defs>
       <path d="M 0 0 
L 0 -3 
" id="m5ef712530e" style="stroke:#262626;stroke-width:0.5;"/>
      </defs>
      <g>
       <use style="fill:#262626;stroke:#262626;stroke-width:0.5;" x="58.017548" xlink:href="#m5ef712530e" y="198.598594"/>
      </g>
     </g>
     <g id="text_1">
      <!-- 01 Feb -->
      <defs>
       <path d="M 31.78125 66.40625 
Q 24.171875 66.40625 20.328125 58.90625 
Q 16.5 51.421875 16.5 36.375 
Q 16.5 21.390625 20.328125 13.890625 
Q 24.171875 6.390625 31.78125 6.390625 
Q 39.453125 6.390625 43.28125 13.890625 
Q 47.125 21.390625 47.125 36.375 
Q 47.125 51.421875 43.28125 58.90625 
Q 39.453125 66.40625 31.78125 66.40625 
z
M 31.78125 74.21875 
Q 44.046875 74.21875 50.515625 64.515625 
Q 56.984375 54.828125 56.984375 36.375 
Q 56.984375 17.96875 50.515625 8.265625 
Q 44.046875 -1.421875 31.78125 -1.421875 
Q 19.53125 -1.421875 13.0625 8.265625 
Q 6.59375 17.96875 6.59375 36.375 
Q 6.59375 54.828125 13.0625 64.515625 
Q 19.53125 74.21875 31.78125 74.21875 
z
" id="DejaVuSans-48"/>
       <path d="M 12.40625 8.296875 
L 28.515625 8.296875 
L 28.515625 63.921875 
L 10.984375 60.40625 
L 10.984375 69.390625 
L 28.421875 72.90625 
L 38.28125 72.90625 
L 38.28125 8.296875 
L 54.390625 8.296875 
L 54.390625 0 
L 12.40625 0 
z
" id="DejaVuSans-49"/>
       <path id="DejaVuSans-32"/>
       <path d="M 9.8125 72.90625 
L 51.703125 72.90625 
L 51.703125 64.59375 
L 19.671875 64.59375 
L 19.671875 43.109375 
L 48.578125 43.109375 
L 48.578125 34.8125 
L 19.671875 34.8125 
L 19.671875 0 
L 9.8125 0 
z
" id="DejaVuSans-70"/>
       <path d="M 56.203125 29.59375 
L 56.203125 25.203125 
L 14.890625 25.203125 
Q 15.484375 15.921875 20.484375 11.0625 
Q 25.484375 6.203125 34.421875 6.203125 
Q 39.59375 6.203125 44.453125 7.46875 
Q 49.3125 8.734375 54.109375 11.28125 
L 54.109375 2.78125 
Q 49.265625 0.734375 44.1875 -0.34375 
Q 39.109375 -1.421875 33.890625 -1.421875 
Q 20.796875 -1.421875 13.15625 6.1875 
Q 5.515625 13.8125 5.515625 26.8125 
Q 5.515625 40.234375 12.765625 48.109375 
Q 20.015625 56 32.328125 56 
Q 43.359375 56 49.78125 48.890625 
Q 56.203125 41.796875 56.203125 29.59375 
z
M 47.21875 32.234375 
Q 47.125 39.59375 43.09375 43.984375 
Q 39.0625 48.390625 32.421875 48.390625 
Q 24.90625 48.390625 20.390625 44.140625 
Q 15.875 39.890625 15.1875 32.171875 
z
" id="DejaVuSans-101"/>
       <path d="M 48.6875 27.296875 
Q 48.6875 37.203125 44.609375 42.84375 
Q 40.53125 48.484375 33.40625 48.484375 
Q 26.265625 48.484375 22.1875 42.84375 
Q 18.109375 37.203125 18.109375 27.296875 
Q 18.109375 17.390625 22.1875 11.75 
Q 26.265625 6.109375 33.40625 6.109375 
Q 40.53125 6.109375 44.609375 11.75 
Q 48.6875 17.390625 48.6875 27.296875 
z
M 18.109375 46.390625 
Q 20.953125 51.265625 25.265625 53.625 
Q 29.59375 56 35.59375 56 
Q 45.5625 56 51.78125 48.09375 
Q 58.015625 40.1875 58.015625 27.296875 
Q 58.015625 14.40625 51.78125 6.484375 
Q 45.5625 -1.421875 35.59375 -1.421875 
Q 29.59375 -1.421875 25.265625 0.953125 
Q 20.953125 3.328125 18.109375 8.203125 
L 18.109375 0 
L 9.078125 0 
L 9.078125 75.984375 
L 18.109375 75.984375 
z
" id="DejaVuSans-98"/>
      </defs>
      <g style="fill:#262626;" transform="translate(49.615985 205.897812)scale(0.05 -0.05)">
       <use xlink:href="#DejaVuSans-48"/>
       <use x="63.623047" xlink:href="#DejaVuSans-49"/>
       <use x="127.246094" xlink:href="#DejaVuSans-32"/>
       <use x="159.033203" xlink:href="#DejaVuSans-70"/>
       <use x="211.052734" xlink:href="#DejaVuSans-101"/>
       <use x="272.576172" xlink:href="#DejaVuSans-98"/>
      </g>
     </g>
    </g>
    <g id="xtick_2">
     <g id="line2d_3">
      <path clip-path="url(#p3ef6c782a6)" d="M 99.716297 198.598594 
L 99.716297 20.038594 
" style="fill:none;stroke:#f3f3f3;stroke-dasharray:0.5,0.825;stroke-dashoffset:0;stroke-width:0.5;"/>
     </g>
     <g id="line2d_4">
      <g>
       <use style="fill:#262626;stroke:#262626;stroke-width:0.5;" x="99.716297" xlink:href="#m5ef712530e" y="198.598594"/>
      </g>
     </g>
     <g id="text_2">
      <!-- 15 Feb -->
      <defs>
       <path d="M 10.796875 72.90625 
L 49.515625 72.90625 
L 49.515625 64.59375 
L 19.828125 64.59375 
L 19.828125 46.734375 
Q 21.96875 47.46875 24.109375 47.828125 
Q 26.265625 48.1875 28.421875 48.1875 
Q 40.625 48.1875 47.75 41.5 
Q 54.890625 34.8125 54.890625 23.390625 
Q 54.890625 11.625 47.5625 5.09375 
Q 40.234375 -1.421875 26.90625 -1.421875 
Q 22.3125 -1.421875 17.546875 -0.640625 
Q 12.796875 0.140625 7.71875 1.703125 
L 7.71875 11.625 
Q 12.109375 9.234375 16.796875 8.0625 
Q 21.484375 6.890625 26.703125 6.890625 
Q 35.15625 6.890625 40.078125 11.328125 
Q 45.015625 15.765625 45.015625 23.390625 
Q 45.015625 31 40.078125 35.4375 
Q 35.15625 39.890625 26.703125 39.890625 
Q 22.75 39.890625 18.8125 39.015625 
Q 14.890625 38.140625 10.796875 36.28125 
z
" id="DejaVuSans-53"/>
      </defs>
      <g style="fill:#262626;" transform="translate(91.314734 205.897812)scale(0.05 -0.05)">
       <use xlink:href="#DejaVuSans-49"/>
       <use x="63.623047" xlink:href="#DejaVuSans-53"/>
       <use x="127.246094" xlink:href="#DejaVuSans-32"/>
       <use x="159.033203" xlink:href="#DejaVuSans-70"/>
       <use x="211.052734" xlink:href="#DejaVuSans-101"/>
       <use x="272.576172" xlink:href="#DejaVuSans-98"/>
      </g>
     </g>
    </g>
    <g id="xtick_3">
     <g id="line2d_5">
      <path clip-path="url(#p3ef6c782a6)" d="M 144.393528 198.598594 
L 144.393528 20.038594 
" style="fill:none;stroke:#f3f3f3;stroke-dasharray:0.5,0.825;stroke-dashoffset:0;stroke-width:0.5;"/>
     </g>
     <g id="line2d_6">
      <g>
       <use style="fill:#262626;stroke:#262626;stroke-width:0.5;" x="144.393528" xlink:href="#m5ef712530e" y="198.598594"/>
      </g>
     </g>
     <g id="text_3">
      <!-- 01 Mar -->
      <defs>
       <path d="M 9.8125 72.90625 
L 24.515625 72.90625 
L 43.109375 23.296875 
L 61.8125 72.90625 
L 76.515625 72.90625 
L 76.515625 0 
L 66.890625 0 
L 66.890625 64.015625 
L 48.09375 14.015625 
L 38.1875 14.015625 
L 19.390625 64.015625 
L 19.390625 0 
L 9.8125 0 
z
" id="DejaVuSans-77"/>
       <path d="M 34.28125 27.484375 
Q 23.390625 27.484375 19.1875 25 
Q 14.984375 22.515625 14.984375 16.5 
Q 14.984375 11.71875 18.140625 8.90625 
Q 21.296875 6.109375 26.703125 6.109375 
Q 34.1875 6.109375 38.703125 11.40625 
Q 43.21875 16.703125 43.21875 25.484375 
L 43.21875 27.484375 
z
M 52.203125 31.203125 
L 52.203125 0 
L 43.21875 0 
L 43.21875 8.296875 
Q 40.140625 3.328125 35.546875 0.953125 
Q 30.953125 -1.421875 24.3125 -1.421875 
Q 15.921875 -1.421875 10.953125 3.296875 
Q 6 8.015625 6 15.921875 
Q 6 25.140625 12.171875 29.828125 
Q 18.359375 34.515625 30.609375 34.515625 
L 43.21875 34.515625 
L 43.21875 35.40625 
Q 43.21875 41.609375 39.140625 45 
Q 35.0625 48.390625 27.6875 48.390625 
Q 23 48.390625 18.546875 47.265625 
Q 14.109375 46.140625 10.015625 43.890625 
L 10.015625 52.203125 
Q 14.9375 54.109375 19.578125 55.046875 
Q 24.21875 56 28.609375 56 
Q 40.484375 56 46.34375 49.84375 
Q 52.203125 43.703125 52.203125 31.203125 
z
" id="DejaVuSans-97"/>
       <path d="M 41.109375 46.296875 
Q 39.59375 47.171875 37.8125 47.578125 
Q 36.03125 48 33.890625 48 
Q 26.265625 48 22.1875 43.046875 
Q 18.109375 38.09375 18.109375 28.8125 
L 18.109375 0 
L 9.078125 0 
L 9.078125 54.6875 
L 18.109375 54.6875 
L 18.109375 46.1875 
Q 20.953125 51.171875 25.484375 53.578125 
Q 30.03125 56 36.53125 56 
Q 37.453125 56 38.578125 55.875 
Q 39.703125 55.765625 41.0625 55.515625 
z
" id="DejaVuSans-114"/>
      </defs>
      <g style="fill:#262626;" transform="translate(135.70095 205.897812)scale(0.05 -0.05)">
       <use xlink:href="#DejaVuSans-48"/>
       <use x="63.623047" xlink:href="#DejaVuSans-49"/>
       <use x="127.246094" xlink:href="#DejaVuSans-32"/>
       <use x="159.033203" xlink:href="#DejaVuSans-77"/>
       <use x="245.3125" xlink:href="#DejaVuSans-97"/>
       <use x="306.591797" xlink:href="#DejaVuSans-114"/>
      </g>
     </g>
    </g>
    <g id="xtick_4">
     <g id="line2d_7">
      <path clip-path="url(#p3ef6c782a6)" d="M 186.092277 198.598594 
L 186.092277 20.038594 
" style="fill:none;stroke:#f3f3f3;stroke-dasharray:0.5,0.825;stroke-dashoffset:0;stroke-width:0.5;"/>
     </g>
     <g id="line2d_8">
      <g>
       <use style="fill:#262626;stroke:#262626;stroke-width:0.5;" x="186.092277" xlink:href="#m5ef712530e" y="198.598594"/>
      </g>
     </g>
     <g id="text_4">
      <!-- 15 Mar -->
      <g style="fill:#262626;" transform="translate(177.399699 205.897812)scale(0.05 -0.05)">
       <use xlink:href="#DejaVuSans-49"/>
       <use x="63.623047" xlink:href="#DejaVuSans-53"/>
       <use x="127.246094" xlink:href="#DejaVuSans-32"/>
       <use x="159.033203" xlink:href="#DejaVuSans-77"/>
       <use x="245.3125" xlink:href="#DejaVuSans-97"/>
       <use x="306.591797" xlink:href="#DejaVuSans-114"/>
      </g>
     </g>
    </g>
    <g id="xtick_5">
     <g id="line2d_9">
      <path clip-path="url(#p3ef6c782a6)" d="M 236.726472 198.598594 
L 236.726472 20.038594 
" style="fill:none;stroke:#f3f3f3;stroke-dasharray:0.5,0.825;stroke-dashoffset:0;stroke-width:0.5;"/>
     </g>
     <g id="line2d_10">
      <g>
       <use style="fill:#262626;stroke:#262626;stroke-width:0.5;" x="236.726472" xlink:href="#m5ef712530e" y="198.598594"/>
      </g>
     </g>
     <g id="text_5">
      <!-- 01 Apr -->
      <defs>
       <path d="M 34.1875 63.1875 
L 20.796875 26.90625 
L 47.609375 26.90625 
z
M 28.609375 72.90625 
L 39.796875 72.90625 
L 67.578125 0 
L 57.328125 0 
L 50.6875 18.703125 
L 17.828125 18.703125 
L 11.1875 0 
L 0.78125 0 
z
" id="DejaVuSans-65"/>
       <path d="M 18.109375 8.203125 
L 18.109375 -20.796875 
L 9.078125 -20.796875 
L 9.078125 54.6875 
L 18.109375 54.6875 
L 18.109375 46.390625 
Q 20.953125 51.265625 25.265625 53.625 
Q 29.59375 56 35.59375 56 
Q 45.5625 56 51.78125 48.09375 
Q 58.015625 40.1875 58.015625 27.296875 
Q 58.015625 14.40625 51.78125 6.484375 
Q 45.5625 -1.421875 35.59375 -1.421875 
Q 29.59375 -1.421875 25.265625 0.953125 
Q 20.953125 3.328125 18.109375 8.203125 
z
M 48.6875 27.296875 
Q 48.6875 37.203125 44.609375 42.84375 
Q 40.53125 48.484375 33.40625 48.484375 
Q 26.265625 48.484375 22.1875 42.84375 
Q 18.109375 37.203125 18.109375 27.296875 
Q 18.109375 17.390625 22.1875 11.75 
Q 26.265625 6.109375 33.40625 6.109375 
Q 40.53125 6.109375 44.609375 11.75 
Q 48.6875 17.390625 48.6875 27.296875 
z
" id="DejaVuSans-112"/>
      </defs>
      <g style="fill:#262626;" transform="translate(228.425691 205.897812)scale(0.05 -0.05)">
       <use xlink:href="#DejaVuSans-48"/>
       <use x="63.623047" xlink:href="#DejaVuSans-49"/>
       <use x="127.246094" xlink:href="#DejaVuSans-32"/>
       <use x="159.033203" xlink:href="#DejaVuSans-65"/>
       <use x="227.441406" xlink:href="#DejaVuSans-112"/>
       <use x="290.917969" xlink:href="#DejaVuSans-114"/>
      </g>
     </g>
    </g>
    <g id="xtick_6">
     <g id="line2d_11">
      <path clip-path="url(#p3ef6c782a6)" d="M 278.425221 198.598594 
L 278.425221 20.038594 
" style="fill:none;stroke:#f3f3f3;stroke-dasharray:0.5,0.825;stroke-dashoffset:0;stroke-width:0.5;"/>
     </g>
     <g id="line2d_12">
      <g>
       <use style="fill:#262626;stroke:#262626;stroke-width:0.5;" x="278.425221" xlink:href="#m5ef712530e" y="198.598594"/>
      </g>
     </g>
     <g id="text_6">
      <!-- 15 Apr -->
      <g style="fill:#262626;" transform="translate(270.12444 205.897812)scale(0.05 -0.05)">
       <use xlink:href="#DejaVuSans-49"/>
       <use x="63.623047" xlink:href="#DejaVuSans-53"/>
       <use x="127.246094" xlink:href="#DejaVuSans-32"/>
       <use x="159.033203" xlink:href="#DejaVuSans-65"/>
       <use x="227.441406" xlink:href="#DejaVuSans-112"/>
       <use x="290.917969" xlink:href="#DejaVuSans-114"/>
      </g>
     </g>
    </g>
    <g id="xtick_7">
     <g id="line2d_13">
      <path clip-path="url(#p3ef6c782a6)" d="M 326.080934 198.598594 
L 326.080934 20.038594 
" style="fill:none;stroke:#f3f3f3;stroke-dasharray:0.5,0.825;stroke-dashoffset:0;stroke-width:0.5;"/>
     </g>
     <g id="line2d_14">
      <g>
       <use style="fill:#262626;stroke:#262626;stroke-width:0.5;" x="326.080934" xlink:href="#m5ef712530e" y="198.598594"/>
      </g>
     </g>
     <g id="text_7">
      <!-- 01 May -->
      <defs>
       <path d="M 32.171875 -5.078125 
Q 28.375 -14.84375 24.75 -17.8125 
Q 21.140625 -20.796875 15.09375 -20.796875 
L 7.90625 -20.796875 
L 7.90625 -13.28125 
L 13.1875 -13.28125 
Q 16.890625 -13.28125 18.9375 -11.515625 
Q 21 -9.765625 23.484375 -3.21875 
L 25.09375 0.875 
L 2.984375 54.6875 
L 12.5 54.6875 
L 29.59375 11.921875 
L 46.6875 54.6875 
L 56.203125 54.6875 
z
" id="DejaVuSans-121"/>
      </defs>
      <g style="fill:#262626;" transform="translate(316.936403 205.897812)scale(0.05 -0.05)">
       <use xlink:href="#DejaVuSans-48"/>
       <use x="63.623047" xlink:href="#DejaVuSans-49"/>
       <use x="127.246094" xlink:href="#DejaVuSans-32"/>
       <use x="159.033203" xlink:href="#DejaVuSans-77"/>
       <use x="245.3125" xlink:href="#DejaVuSans-97"/>
       <use x="306.591797" xlink:href="#DejaVuSans-121"/>
      </g>
     </g>
    </g>
    <g id="xtick_8">
     <g id="line2d_15">
      <path clip-path="url(#p3ef6c782a6)" d="M 352.887273 198.598594 
L 352.887273 20.038594 
" style="fill:none;stroke:#f3f3f3;stroke-dasharray:0.5,0.825;stroke-dashoffset:0;stroke-width:0.5;"/>
     </g>
     <g id="line2d_16">
      <g>
       <use style="fill:#262626;stroke:#262626;stroke-width:0.5;" x="352.887273" xlink:href="#m5ef712530e" y="198.598594"/>
      </g>
     </g>
     <g id="text_8">
      <!-- 10 May -->
      <g style="fill:#262626;" transform="translate(343.742741 205.897812)scale(0.05 -0.05)">
       <use xlink:href="#DejaVuSans-49"/>
       <use x="63.623047" xlink:href="#DejaVuSans-48"/>
       <use x="127.246094" xlink:href="#DejaVuSans-32"/>
       <use x="159.033203" xlink:href="#DejaVuSans-77"/>
       <use x="245.3125" xlink:href="#DejaVuSans-97"/>
       <use x="306.591797" xlink:href="#DejaVuSans-121"/>
      </g>
     </g>
    </g>
   </g>
   <g id="line2d_17">
    <path clip-path="url(#p3ef6c782a6)" d="M 28.232727 190.48223 
L 31.211209 190.48223 
L 34.189691 190.48223 
L 37.168173 190.48223 
L 40.146656 190.48223 
L 43.125138 190.48223 
L 46.10362 190.48223 
L 49.082102 190.48223 
L 52.060584 190.479651 
L 55.039066 190.479651 
L 58.017548 190.479651 
L 60.99603 190.477072 
L 63.974512 190.474493 
L 66.952994 190.474493 
L 69.931476 190.474493 
L 72.909958 190.474493 
L 75.88844 190.474493 
L 78.866922 190.474493 
L 81.845405 190.474493 
L 84.823887 190.474493 
L 87.802369 190.474493 
L 90.780851 190.474493 
L 93.759333 190.474493 
L 96.737815 190.474493 
L 99.716297 190.474493 
L 102.694779 190.474493 
L 105.673261 190.474493 
L 108.651743 190.474493 
L 111.630225 190.474493 
L 114.608707 190.474493 
L 117.587189 190.474493 
L 120.565671 190.474493 
L 123.544153 190.474493 
L 126.522636 190.474493 
L 129.501118 190.474493 
L 132.4796 190.474493 
L 135.458082 190.474493 
L 138.436564 190.474493 
L 141.415046 190.474493 
L 144.393528 190.474493 
L 147.37201 190.469335 
L 150.350492 190.469335 
L 153.328974 190.410015 
L 156.307456 190.404856 
L 159.285938 190.402277 
L 162.26442 190.39454 
L 165.242902 190.381644 
L 168.221384 190.371328 
L 171.199867 190.337799 
L 174.178349 190.322325 
L 177.156831 190.293954 
L 180.135313 190.270742 
L 183.113795 190.21916 
L 186.092277 190.190789 
L 189.070759 190.175315 
L 192.049241 190.115995 
L 195.027723 190.079887 
L 198.006205 189.981881 
L 200.984687 189.852925 
L 203.963169 189.63112 
L 206.941651 189.460898 
L 209.920133 189.195249 
L 212.898616 189.099821 
L 215.877098 188.787748 
L 218.85558 188.607209 
L 221.834062 188.19455 
L 224.812544 187.936638 
L 227.791026 187.841211 
L 230.769508 187.25575 
L 233.74799 186.879199 
L 236.726472 185.329147 
L 239.704954 183.923526 
L 242.683436 183.861627 
L 245.661918 182.53338 
L 248.6404 181.228345 
L 251.618882 178.159192 
L 254.597364 176.78452 
L 257.575847 175.224153 
L 260.554329 173.137644 
L 263.532811 170.886072 
L 266.511293 168.698977 
L 269.489775 166.741425 
L 272.468257 163.522682 
L 275.446739 160.855872 
L 278.425221 158.702306 
L 281.403703 155.84464 
L 284.382185 153.466691 
L 287.360667 149.933296 
L 290.339149 145.05102 
L 293.317631 142.667913 
L 296.296113 138.693488 
L 299.274595 135.366422 
L 302.253078 130.963864 
L 305.23156 127.216401 
L 308.210042 122.695203 
L 311.188524 118.550556 
L 314.167006 114.524549 
L 317.145488 109.693856 
L 320.12397 105.211344 
L 323.102452 100.566348 
L 326.080934 94.391933 
L 329.059416 88.093721 
L 332.037898 80.856708 
L 335.01638 70.715606 
L 337.994862 63.073671 
L 340.973344 53.822366 
L 343.951827 45.146204 
L 346.930309 36.521625 
L 349.908791 28.492822 
L 352.887273 28.154957 
" style="fill:none;stroke:#ffa500;stroke-linecap:round;stroke-width:1.5;"/>
    <defs>
     <path d="M 0 1.5 
C 0.397805 1.5 0.77937 1.341951 1.06066 1.06066 
C 1.341951 0.77937 1.5 0.397805 1.5 0 
C 1.5 -0.397805 1.341951 -0.77937 1.06066 -1.06066 
C 0.77937 -1.341951 0.397805 -1.5 0 -1.5 
C -0.397805 -1.5 -0.77937 -1.341951 -1.06066 -1.06066 
C -1.341951 -0.77937 -1.5 -0.397805 -1.5 0 
C -1.5 0.397805 -1.341951 0.77937 -1.06066 1.06066 
C -0.77937 1.341951 -0.397805 1.5 0 1.5 
z
" id="m8ead0ae48b" style="stroke:#ffffff;stroke-width:0.25;"/>
    </defs>
    <g clip-path="url(#p3ef6c782a6)">
     <use style="fill:#ffa500;stroke:#ffffff;stroke-width:0.25;" x="28.232727" xlink:href="#m8ead0ae48b" y="190.48223"/>
     <use style="fill:#ffa500;stroke:#ffffff;stroke-width:0.25;" x="31.211209" xlink:href="#m8ead0ae48b" y="190.48223"/>
     <use style="fill:#ffa500;stroke:#ffffff;stroke-width:0.25;" x="34.189691" xlink:href="#m8ead0ae48b" y="190.48223"/>
     <use style="fill:#ffa500;stroke:#ffffff;stroke-width:0.25;" x="37.168173" xlink:href="#m8ead0ae48b" y="190.48223"/>
     <use style="fill:#ffa500;stroke:#ffffff;stroke-width:0.25;" x="40.146656" xlink:href="#m8ead0ae48b" y="190.48223"/>
     <use style="fill:#ffa500;stroke:#ffffff;stroke-width:0.25;" x="43.125138" xlink:href="#m8ead0ae48b" y="190.48223"/>
     <use style="fill:#ffa500;stroke:#ffffff;stroke-width:0.25;" x="46.10362" xlink:href="#m8ead0ae48b" y="190.48223"/>
     <use style="fill:#ffa500;stroke:#ffffff;stroke-width:0.25;" x="49.082102" xlink:href="#m8ead0ae48b" y="190.48223"/>
     <use style="fill:#ffa500;stroke:#ffffff;stroke-width:0.25;" x="52.060584" xlink:href="#m8ead0ae48b" y="190.479651"/>
     <use style="fill:#ffa500;stroke:#ffffff;stroke-width:0.25;" x="55.039066" xlink:href="#m8ead0ae48b" y="190.479651"/>
     <use style="fill:#ffa500;stroke:#ffffff;stroke-width:0.25;" x="58.017548" xlink:href="#m8ead0ae48b" y="190.479651"/>
     <use style="fill:#ffa500;stroke:#ffffff;stroke-width:0.25;" x="60.99603" xlink:href="#m8ead0ae48b" y="190.477072"/>
     <use style="fill:#ffa500;stroke:#ffffff;stroke-width:0.25;" x="63.974512" xlink:href="#m8ead0ae48b" y="190.474493"/>
     <use style="fill:#ffa500;stroke:#ffffff;stroke-width:0.25;" x="66.952994" xlink:href="#m8ead0ae48b" y="190.474493"/>
     <use style="fill:#ffa500;stroke:#ffffff;stroke-width:0.25;" x="69.931476" xlink:href="#m8ead0ae48b" y="190.474493"/>
     <use style="fill:#ffa500;stroke:#ffffff;stroke-width:0.25;" x="72.909958" xlink:href="#m8ead0ae48b" y="190.474493"/>
     <use style="fill:#ffa500;stroke:#ffffff;stroke-width:0.25;" x="75.88844" xlink:href="#m8ead0ae48b" y="190.474493"/>
     <use style="fill:#ffa500;stroke:#ffffff;stroke-width:0.25;" x="78.866922" xlink:href="#m8ead0ae48b" y="190.474493"/>
     <use style="fill:#ffa500;stroke:#ffffff;stroke-width:0.25;" x="81.845405" xlink:href="#m8ead0ae48b" y="190.474493"/>
     <use style="fill:#ffa500;stroke:#ffffff;stroke-width:0.25;" x="84.823887" xlink:href="#m8ead0ae48b" y="190.474493"/>
     <use style="fill:#ffa500;stroke:#ffffff;stroke-width:0.25;" x="87.802369" xlink:href="#m8ead0ae48b" y="190.474493"/>
     <use style="fill:#ffa500;stroke:#ffffff;stroke-width:0.25;" x="90.780851" xlink:href="#m8ead0ae48b" y="190.474493"/>
     <use style="fill:#ffa500;stroke:#ffffff;stroke-width:0.25;" x="93.759333" xlink:href="#m8ead0ae48b" y="190.474493"/>
     <use style="fill:#ffa500;stroke:#ffffff;stroke-width:0.25;" x="96.737815" xlink:href="#m8ead0ae48b" y="190.474493"/>
     <use style="fill:#ffa500;stroke:#ffffff;stroke-width:0.25;" x="99.716297" xlink:href="#m8ead0ae48b" y="190.474493"/>
     <use style="fill:#ffa500;stroke:#ffffff;stroke-width:0.25;" x="102.694779" xlink:href="#m8ead0ae48b" y="190.474493"/>
     <use style="fill:#ffa500;stroke:#ffffff;stroke-width:0.25;" x="105.673261" xlink:href="#m8ead0ae48b" y="190.474493"/>
     <use style="fill:#ffa500;stroke:#ffffff;stroke-width:0.25;" x="108.651743" xlink:href="#m8ead0ae48b" y="190.474493"/>
     <use style="fill:#ffa500;stroke:#ffffff;stroke-width:0.25;" x="111.630225" xlink:href="#m8ead0ae48b" y="190.474493"/>
     <use style="fill:#ffa500;stroke:#ffffff;stroke-width:0.25;" x="114.608707" xlink:href="#m8ead0ae48b" y="190.474493"/>
     <use style="fill:#ffa500;stroke:#ffffff;stroke-width:0.25;" x="117.587189" xlink:href="#m8ead0ae48b" y="190.474493"/>
     <use style="fill:#ffa500;stroke:#ffffff;stroke-width:0.25;" x="120.565671" xlink:href="#m8ead0ae48b" y="190.474493"/>
     <use style="fill:#ffa500;stroke:#ffffff;stroke-width:0.25;" x="123.544153" xlink:href="#m8ead0ae48b" y="190.474493"/>
     <use style="fill:#ffa500;stroke:#ffffff;stroke-width:0.25;" x="126.522636" xlink:href="#m8ead0ae48b" y="190.474493"/>
     <use style="fill:#ffa500;stroke:#ffffff;stroke-width:0.25;" x="129.501118" xlink:href="#m8ead0ae48b" y="190.474493"/>
     <use style="fill:#ffa500;stroke:#ffffff;stroke-width:0.25;" x="132.4796" xlink:href="#m8ead0ae48b" y="190.474493"/>
     <use style="fill:#ffa500;stroke:#ffffff;stroke-width:0.25;" x="135.458082" xlink:href="#m8ead0ae48b" y="190.474493"/>
     <use style="fill:#ffa500;stroke:#ffffff;stroke-width:0.25;" x="138.436564" xlink:href="#m8ead0ae48b" y="190.474493"/>
     <use style="fill:#ffa500;stroke:#ffffff;stroke-width:0.25;" x="141.415046" xlink:href="#m8ead0ae48b" y="190.474493"/>
     <use style="fill:#ffa500;stroke:#ffffff;stroke-width:0.25;" x="144.393528" xlink:href="#m8ead0ae48b" y="190.474493"/>
     <use style="fill:#ffa500;stroke:#ffffff;stroke-width:0.25;" x="147.37201" xlink:href="#m8ead0ae48b" y="190.469335"/>
     <use style="fill:#ffa500;stroke:#ffffff;stroke-width:0.25;" x="150.350492" xlink:href="#m8ead0ae48b" y="190.469335"/>
     <use style="fill:#ffa500;stroke:#ffffff;stroke-width:0.25;" x="153.328974" xlink:href="#m8ead0ae48b" y="190.410015"/>
     <use style="fill:#ffa500;stroke:#ffffff;stroke-width:0.25;" x="156.307456" xlink:href="#m8ead0ae48b" y="190.404856"/>
     <use style="fill:#ffa500;stroke:#ffffff;stroke-width:0.25;" x="159.285938" xlink:href="#m8ead0ae48b" y="190.402277"/>
     <use style="fill:#ffa500;stroke:#ffffff;stroke-width:0.25;" x="162.26442" xlink:href="#m8ead0ae48b" y="190.39454"/>
     <use style="fill:#ffa500;stroke:#ffffff;stroke-width:0.25;" x="165.242902" xlink:href="#m8ead0ae48b" y="190.381644"/>
     <use style="fill:#ffa500;stroke:#ffffff;stroke-width:0.25;" x="168.221384" xlink:href="#m8ead0ae48b" y="190.371328"/>
     <use style="fill:#ffa500;stroke:#ffffff;stroke-width:0.25;" x="171.199867" xlink:href="#m8ead0ae48b" y="190.337799"/>
     <use style="fill:#ffa500;stroke:#ffffff;stroke-width:0.25;" x="174.178349" xlink:href="#m8ead0ae48b" y="190.322325"/>
     <use style="fill:#ffa500;stroke:#ffffff;stroke-width:0.25;" x="177.156831" xlink:href="#m8ead0ae48b" y="190.293954"/>
     <use style="fill:#ffa500;stroke:#ffffff;stroke-width:0.25;" x="180.135313" xlink:href="#m8ead0ae48b" y="190.270742"/>
     <use style="fill:#ffa500;stroke:#ffffff;stroke-width:0.25;" x="183.113795" xlink:href="#m8ead0ae48b" y="190.21916"/>
     <use style="fill:#ffa500;stroke:#ffffff;stroke-width:0.25;" x="186.092277" xlink:href="#m8ead0ae48b" y="190.190789"/>
     <use style="fill:#ffa500;stroke:#ffffff;stroke-width:0.25;" x="189.070759" xlink:href="#m8ead0ae48b" y="190.175315"/>
     <use style="fill:#ffa500;stroke:#ffffff;stroke-width:0.25;" x="192.049241" xlink:href="#m8ead0ae48b" y="190.115995"/>
     <use style="fill:#ffa500;stroke:#ffffff;stroke-width:0.25;" x="195.027723" xlink:href="#m8ead0ae48b" y="190.079887"/>
     <use style="fill:#ffa500;stroke:#ffffff;stroke-width:0.25;" x="198.006205" xlink:href="#m8ead0ae48b" y="189.981881"/>
     <use style="fill:#ffa500;stroke:#ffffff;stroke-width:0.25;" x="200.984687" xlink:href="#m8ead0ae48b" y="189.852925"/>
     <use style="fill:#ffa500;stroke:#ffffff;stroke-width:0.25;" x="203.963169" xlink:href="#m8ead0ae48b" y="189.63112"/>
     <use style="fill:#ffa500;stroke:#ffffff;stroke-width:0.25;" x="206.941651" xlink:href="#m8ead0ae48b" y="189.460898"/>
     <use style="fill:#ffa500;stroke:#ffffff;stroke-width:0.25;" x="209.920133" xlink:href="#m8ead0ae48b" y="189.195249"/>
     <use style="fill:#ffa500;stroke:#ffffff;stroke-width:0.25;" x="212.898616" xlink:href="#m8ead0ae48b" y="189.099821"/>
     <use style="fill:#ffa500;stroke:#ffffff;stroke-width:0.25;" x="215.877098" xlink:href="#m8ead0ae48b" y="188.787748"/>
     <use style="fill:#ffa500;stroke:#ffffff;stroke-width:0.25;" x="218.85558" xlink:href="#m8ead0ae48b" y="188.607209"/>
     <use style="fill:#ffa500;stroke:#ffffff;stroke-width:0.25;" x="221.834062" xlink:href="#m8ead0ae48b" y="188.19455"/>
     <use style="fill:#ffa500;stroke:#ffffff;stroke-width:0.25;" x="224.812544" xlink:href="#m8ead0ae48b" y="187.936638"/>
     <use style="fill:#ffa500;stroke:#ffffff;stroke-width:0.25;" x="227.791026" xlink:href="#m8ead0ae48b" y="187.841211"/>
     <use style="fill:#ffa500;stroke:#ffffff;stroke-width:0.25;" x="230.769508" xlink:href="#m8ead0ae48b" y="187.25575"/>
     <use style="fill:#ffa500;stroke:#ffffff;stroke-width:0.25;" x="233.74799" xlink:href="#m8ead0ae48b" y="186.879199"/>
     <use style="fill:#ffa500;stroke:#ffffff;stroke-width:0.25;" x="236.726472" xlink:href="#m8ead0ae48b" y="185.329147"/>
     <use style="fill:#ffa500;stroke:#ffffff;stroke-width:0.25;" x="239.704954" xlink:href="#m8ead0ae48b" y="183.923526"/>
     <use style="fill:#ffa500;stroke:#ffffff;stroke-width:0.25;" x="242.683436" xlink:href="#m8ead0ae48b" y="183.861627"/>
     <use style="fill:#ffa500;stroke:#ffffff;stroke-width:0.25;" x="245.661918" xlink:href="#m8ead0ae48b" y="182.53338"/>
     <use style="fill:#ffa500;stroke:#ffffff;stroke-width:0.25;" x="248.6404" xlink:href="#m8ead0ae48b" y="181.228345"/>
     <use style="fill:#ffa500;stroke:#ffffff;stroke-width:0.25;" x="251.618882" xlink:href="#m8ead0ae48b" y="178.159192"/>
     <use style="fill:#ffa500;stroke:#ffffff;stroke-width:0.25;" x="254.597364" xlink:href="#m8ead0ae48b" y="176.78452"/>
     <use style="fill:#ffa500;stroke:#ffffff;stroke-width:0.25;" x="257.575847" xlink:href="#m8ead0ae48b" y="175.224153"/>
     <use style="fill:#ffa500;stroke:#ffffff;stroke-width:0.25;" x="260.554329" xlink:href="#m8ead0ae48b" y="173.137644"/>
     <use style="fill:#ffa500;stroke:#ffffff;stroke-width:0.25;" x="263.532811" xlink:href="#m8ead0ae48b" y="170.886072"/>
     <use style="fill:#ffa500;stroke:#ffffff;stroke-width:0.25;" x="266.511293" xlink:href="#m8ead0ae48b" y="168.698977"/>
     <use style="fill:#ffa500;stroke:#ffffff;stroke-width:0.25;" x="269.489775" xlink:href="#m8ead0ae48b" y="166.741425"/>
     <use style="fill:#ffa500;stroke:#ffffff;stroke-width:0.25;" x="272.468257" xlink:href="#m8ead0ae48b" y="163.522682"/>
     <use style="fill:#ffa500;stroke:#ffffff;stroke-width:0.25;" x="275.446739" xlink:href="#m8ead0ae48b" y="160.855872"/>
     <use style="fill:#ffa500;stroke:#ffffff;stroke-width:0.25;" x="278.425221" xlink:href="#m8ead0ae48b" y="158.702306"/>
     <use style="fill:#ffa500;stroke:#ffffff;stroke-width:0.25;" x="281.403703" xlink:href="#m8ead0ae48b" y="155.84464"/>
     <use style="fill:#ffa500;stroke:#ffffff;stroke-width:0.25;" x="284.382185" xlink:href="#m8ead0ae48b" y="153.466691"/>
     <use style="fill:#ffa500;stroke:#ffffff;stroke-width:0.25;" x="287.360667" xlink:href="#m8ead0ae48b" y="149.933296"/>
     <use style="fill:#ffa500;stroke:#ffffff;stroke-width:0.25;" x="290.339149" xlink:href="#m8ead0ae48b" y="145.05102"/>
     <use style="fill:#ffa500;stroke:#ffffff;stroke-width:0.25;" x="293.317631" xlink:href="#m8ead0ae48b" y="142.667913"/>
     <use style="fill:#ffa500;stroke:#ffffff;stroke-width:0.25;" x="296.296113" xlink:href="#m8ead0ae48b" y="138.693488"/>
     <use style="fill:#ffa500;stroke:#ffffff;stroke-width:0.25;" x="299.274595" xlink:href="#m8ead0ae48b" y="135.366422"/>
     <use style="fill:#ffa500;stroke:#ffffff;stroke-width:0.25;" x="302.253078" xlink:href="#m8ead0ae48b" y="130.963864"/>
     <use style="fill:#ffa500;stroke:#ffffff;stroke-width:0.25;" x="305.23156" xlink:href="#m8ead0ae48b" y="127.216401"/>
     <use style="fill:#ffa500;stroke:#ffffff;stroke-width:0.25;" x="308.210042" xlink:href="#m8ead0ae48b" y="122.695203"/>
     <use style="fill:#ffa500;stroke:#ffffff;stroke-width:0.25;" x="311.188524" xlink:href="#m8ead0ae48b" y="118.550556"/>
     <use style="fill:#ffa500;stroke:#ffffff;stroke-width:0.25;" x="314.167006" xlink:href="#m8ead0ae48b" y="114.524549"/>
     <use style="fill:#ffa500;stroke:#ffffff;stroke-width:0.25;" x="317.145488" xlink:href="#m8ead0ae48b" y="109.693856"/>
     <use style="fill:#ffa500;stroke:#ffffff;stroke-width:0.25;" x="320.12397" xlink:href="#m8ead0ae48b" y="105.211344"/>
     <use style="fill:#ffa500;stroke:#ffffff;stroke-width:0.25;" x="323.102452" xlink:href="#m8ead0ae48b" y="100.566348"/>
     <use style="fill:#ffa500;stroke:#ffffff;stroke-width:0.25;" x="326.080934" xlink:href="#m8ead0ae48b" y="94.391933"/>
     <use style="fill:#ffa500;stroke:#ffffff;stroke-width:0.25;" x="329.059416" xlink:href="#m8ead0ae48b" y="88.093721"/>
     <use style="fill:#ffa500;stroke:#ffffff;stroke-width:0.25;" x="332.037898" xlink:href="#m8ead0ae48b" y="80.856708"/>
     <use style="fill:#ffa500;stroke:#ffffff;stroke-width:0.25;" x="335.01638" xlink:href="#m8ead0ae48b" y="70.715606"/>
     <use style="fill:#ffa500;stroke:#ffffff;stroke-width:0.25;" x="337.994862" xlink:href="#m8ead0ae48b" y="63.073671"/>
     <use style="fill:#ffa500;stroke:#ffffff;stroke-width:0.25;" x="340.973344" xlink:href="#m8ead0ae48b" y="53.822366"/>
     <use style="fill:#ffa500;stroke:#ffffff;stroke-width:0.25;" x="343.951827" xlink:href="#m8ead0ae48b" y="45.146204"/>
     <use style="fill:#ffa500;stroke:#ffffff;stroke-width:0.25;" x="346.930309" xlink:href="#m8ead0ae48b" y="36.521625"/>
     <use style="fill:#ffa500;stroke:#ffffff;stroke-width:0.25;" x="349.908791" xlink:href="#m8ead0ae48b" y="28.492822"/>
     <use style="fill:#ffa500;stroke:#ffffff;stroke-width:0.25;" x="352.887273" xlink:href="#m8ead0ae48b" y="28.154957"/>
    </g>
   </g>
   <g id="line2d_18">
    <path clip-path="url(#p3ef6c782a6)" d="M 28.232727 190.48223 
L 31.211209 190.48223 
L 34.189691 190.48223 
L 37.168173 190.48223 
L 40.146656 190.48223 
L 43.125138 190.48223 
L 46.10362 190.48223 
L 49.082102 190.48223 
L 52.060584 190.48223 
L 55.039066 190.48223 
L 58.017548 190.48223 
L 60.99603 190.48223 
L 63.974512 190.48223 
L 66.952994 190.48223 
L 69.931476 190.48223 
L 72.909958 190.48223 
L 75.88844 190.48223 
L 78.866922 190.48223 
L 81.845405 190.48223 
L 84.823887 190.48223 
L 87.802369 190.48223 
L 90.780851 190.48223 
L 93.759333 190.48223 
L 96.737815 190.48223 
L 99.716297 190.48223 
L 102.694779 190.474493 
L 105.673261 190.474493 
L 108.651743 190.474493 
L 111.630225 190.474493 
L 114.608707 190.474493 
L 117.587189 190.474493 
L 120.565671 190.474493 
L 123.544153 190.474493 
L 126.522636 190.474493 
L 129.501118 190.474493 
L 132.4796 190.474493 
L 135.458082 190.474493 
L 138.436564 190.474493 
L 141.415046 190.474493 
L 144.393528 190.474493 
L 147.37201 190.474493 
L 150.350492 190.474493 
L 153.328974 190.474493 
L 156.307456 190.474493 
L 159.285938 190.474493 
L 162.26442 190.474493 
L 165.242902 190.474493 
L 168.221384 190.474493 
L 171.199867 190.471914 
L 174.178349 190.471914 
L 177.156831 190.471914 
L 180.135313 190.471914 
L 183.113795 190.471914 
L 186.092277 190.448702 
L 189.070759 190.448702 
L 192.049241 190.446122 
L 195.027723 190.446122 
L 198.006205 190.443543 
L 200.984687 190.430648 
L 203.963169 190.42291 
L 206.941651 190.412594 
L 209.920133 190.412594 
L 212.898616 190.379065 
L 215.877098 190.371328 
L 218.85558 190.36617 
L 221.834062 190.293954 
L 224.812544 190.265584 
L 227.791026 190.237214 
L 230.769508 190.21916 
L 233.74799 190.164998 
L 236.726472 190.10052 
L 239.704954 189.989618 
L 242.683436 189.987039 
L 245.661918 189.891611 
L 248.6404 189.891611 
L 251.618882 189.51506 
L 254.597364 189.39642 
L 257.575847 189.177195 
L 260.554329 188.883175 
L 263.532811 188.485991 
L 266.511293 187.983062 
L 269.489775 187.69678 
L 272.468257 187.436289 
L 275.446739 186.977205 
L 278.425221 186.788929 
L 281.403703 185.922345 
L 284.382185 185.218245 
L 287.360667 184.129856 
L 290.339149 183.12142 
L 293.317631 182.040768 
L 296.296113 180.230226 
L 299.274595 179.211473 
L 302.253078 177.555678 
L 305.23156 176.302225 
L 308.210042 175.164833 
L 311.188524 173.658626 
L 314.167006 172.075046 
L 317.145488 170.501783 
L 320.12397 168.722189 
L 323.102452 167.094764 
L 326.080934 164.67297 
L 329.059416 162.578724 
L 332.037898 160.113085 
L 335.01638 157.348268 
L 337.994862 154.008306 
L 340.973344 150.941732 
L 343.951827 147.214903 
L 346.930309 144.3495 
L 349.908791 140.702623 
L 352.887273 140.555613 
" style="fill:none;stroke:#008000;stroke-linecap:round;stroke-width:1.5;"/>
    <defs>
     <path d="M -0 2.12132 
L 1.272792 0 
L 0 -2.12132 
L -1.272792 -0 
z
" id="m172afab9c6" style="stroke:#ffffff;stroke-linejoin:miter;stroke-width:0.25;"/>
    </defs>
    <g clip-path="url(#p3ef6c782a6)">
     <use style="fill:#008000;stroke:#ffffff;stroke-linejoin:miter;stroke-width:0.25;" x="28.232727" xlink:href="#m172afab9c6" y="190.48223"/>
     <use style="fill:#008000;stroke:#ffffff;stroke-linejoin:miter;stroke-width:0.25;" x="31.211209" xlink:href="#m172afab9c6" y="190.48223"/>
     <use style="fill:#008000;stroke:#ffffff;stroke-linejoin:miter;stroke-width:0.25;" x="34.189691" xlink:href="#m172afab9c6" y="190.48223"/>
     <use style="fill:#008000;stroke:#ffffff;stroke-linejoin:miter;stroke-width:0.25;" x="37.168173" xlink:href="#m172afab9c6" y="190.48223"/>
     <use style="fill:#008000;stroke:#ffffff;stroke-linejoin:miter;stroke-width:0.25;" x="40.146656" xlink:href="#m172afab9c6" y="190.48223"/>
     <use style="fill:#008000;stroke:#ffffff;stroke-linejoin:miter;stroke-width:0.25;" x="43.125138" xlink:href="#m172afab9c6" y="190.48223"/>
     <use style="fill:#008000;stroke:#ffffff;stroke-linejoin:miter;stroke-width:0.25;" x="46.10362" xlink:href="#m172afab9c6" y="190.48223"/>
     <use style="fill:#008000;stroke:#ffffff;stroke-linejoin:miter;stroke-width:0.25;" x="49.082102" xlink:href="#m172afab9c6" y="190.48223"/>
     <use style="fill:#008000;stroke:#ffffff;stroke-linejoin:miter;stroke-width:0.25;" x="52.060584" xlink:href="#m172afab9c6" y="190.48223"/>
     <use style="fill:#008000;stroke:#ffffff;stroke-linejoin:miter;stroke-width:0.25;" x="55.039066" xlink:href="#m172afab9c6" y="190.48223"/>
     <use style="fill:#008000;stroke:#ffffff;stroke-linejoin:miter;stroke-width:0.25;" x="58.017548" xlink:href="#m172afab9c6" y="190.48223"/>
     <use style="fill:#008000;stroke:#ffffff;stroke-linejoin:miter;stroke-width:0.25;" x="60.99603" xlink:href="#m172afab9c6" y="190.48223"/>
     <use style="fill:#008000;stroke:#ffffff;stroke-linejoin:miter;stroke-width:0.25;" x="63.974512" xlink:href="#m172afab9c6" y="190.48223"/>
     <use style="fill:#008000;stroke:#ffffff;stroke-linejoin:miter;stroke-width:0.25;" x="66.952994" xlink:href="#m172afab9c6" y="190.48223"/>
     <use style="fill:#008000;stroke:#ffffff;stroke-linejoin:miter;stroke-width:0.25;" x="69.931476" xlink:href="#m172afab9c6" y="190.48223"/>
     <use style="fill:#008000;stroke:#ffffff;stroke-linejoin:miter;stroke-width:0.25;" x="72.909958" xlink:href="#m172afab9c6" y="190.48223"/>
     <use style="fill:#008000;stroke:#ffffff;stroke-linejoin:miter;stroke-width:0.25;" x="75.88844" xlink:href="#m172afab9c6" y="190.48223"/>
     <use style="fill:#008000;stroke:#ffffff;stroke-linejoin:miter;stroke-width:0.25;" x="78.866922" xlink:href="#m172afab9c6" y="190.48223"/>
     <use style="fill:#008000;stroke:#ffffff;stroke-linejoin:miter;stroke-width:0.25;" x="81.845405" xlink:href="#m172afab9c6" y="190.48223"/>
     <use style="fill:#008000;stroke:#ffffff;stroke-linejoin:miter;stroke-width:0.25;" x="84.823887" xlink:href="#m172afab9c6" y="190.48223"/>
     <use style="fill:#008000;stroke:#ffffff;stroke-linejoin:miter;stroke-width:0.25;" x="87.802369" xlink:href="#m172afab9c6" y="190.48223"/>
     <use style="fill:#008000;stroke:#ffffff;stroke-linejoin:miter;stroke-width:0.25;" x="90.780851" xlink:href="#m172afab9c6" y="190.48223"/>
     <use style="fill:#008000;stroke:#ffffff;stroke-linejoin:miter;stroke-width:0.25;" x="93.759333" xlink:href="#m172afab9c6" y="190.48223"/>
     <use style="fill:#008000;stroke:#ffffff;stroke-linejoin:miter;stroke-width:0.25;" x="96.737815" xlink:href="#m172afab9c6" y="190.48223"/>
     <use style="fill:#008000;stroke:#ffffff;stroke-linejoin:miter;stroke-width:0.25;" x="99.716297" xlink:href="#m172afab9c6" y="190.48223"/>
     <use style="fill:#008000;stroke:#ffffff;stroke-linejoin:miter;stroke-width:0.25;" x="102.694779" xlink:href="#m172afab9c6" y="190.474493"/>
     <use style="fill:#008000;stroke:#ffffff;stroke-linejoin:miter;stroke-width:0.25;" x="105.673261" xlink:href="#m172afab9c6" y="190.474493"/>
     <use style="fill:#008000;stroke:#ffffff;stroke-linejoin:miter;stroke-width:0.25;" x="108.651743" xlink:href="#m172afab9c6" y="190.474493"/>
     <use style="fill:#008000;stroke:#ffffff;stroke-linejoin:miter;stroke-width:0.25;" x="111.630225" xlink:href="#m172afab9c6" y="190.474493"/>
     <use style="fill:#008000;stroke:#ffffff;stroke-linejoin:miter;stroke-width:0.25;" x="114.608707" xlink:href="#m172afab9c6" y="190.474493"/>
     <use style="fill:#008000;stroke:#ffffff;stroke-linejoin:miter;stroke-width:0.25;" x="117.587189" xlink:href="#m172afab9c6" y="190.474493"/>
     <use style="fill:#008000;stroke:#ffffff;stroke-linejoin:miter;stroke-width:0.25;" x="120.565671" xlink:href="#m172afab9c6" y="190.474493"/>
     <use style="fill:#008000;stroke:#ffffff;stroke-linejoin:miter;stroke-width:0.25;" x="123.544153" xlink:href="#m172afab9c6" y="190.474493"/>
     <use style="fill:#008000;stroke:#ffffff;stroke-linejoin:miter;stroke-width:0.25;" x="126.522636" xlink:href="#m172afab9c6" y="190.474493"/>
     <use style="fill:#008000;stroke:#ffffff;stroke-linejoin:miter;stroke-width:0.25;" x="129.501118" xlink:href="#m172afab9c6" y="190.474493"/>
     <use style="fill:#008000;stroke:#ffffff;stroke-linejoin:miter;stroke-width:0.25;" x="132.4796" xlink:href="#m172afab9c6" y="190.474493"/>
     <use style="fill:#008000;stroke:#ffffff;stroke-linejoin:miter;stroke-width:0.25;" x="135.458082" xlink:href="#m172afab9c6" y="190.474493"/>
     <use style="fill:#008000;stroke:#ffffff;stroke-linejoin:miter;stroke-width:0.25;" x="138.436564" xlink:href="#m172afab9c6" y="190.474493"/>
     <use style="fill:#008000;stroke:#ffffff;stroke-linejoin:miter;stroke-width:0.25;" x="141.415046" xlink:href="#m172afab9c6" y="190.474493"/>
     <use style="fill:#008000;stroke:#ffffff;stroke-linejoin:miter;stroke-width:0.25;" x="144.393528" xlink:href="#m172afab9c6" y="190.474493"/>
     <use style="fill:#008000;stroke:#ffffff;stroke-linejoin:miter;stroke-width:0.25;" x="147.37201" xlink:href="#m172afab9c6" y="190.474493"/>
     <use style="fill:#008000;stroke:#ffffff;stroke-linejoin:miter;stroke-width:0.25;" x="150.350492" xlink:href="#m172afab9c6" y="190.474493"/>
     <use style="fill:#008000;stroke:#ffffff;stroke-linejoin:miter;stroke-width:0.25;" x="153.328974" xlink:href="#m172afab9c6" y="190.474493"/>
     <use style="fill:#008000;stroke:#ffffff;stroke-linejoin:miter;stroke-width:0.25;" x="156.307456" xlink:href="#m172afab9c6" y="190.474493"/>
     <use style="fill:#008000;stroke:#ffffff;stroke-linejoin:miter;stroke-width:0.25;" x="159.285938" xlink:href="#m172afab9c6" y="190.474493"/>
     <use style="fill:#008000;stroke:#ffffff;stroke-linejoin:miter;stroke-width:0.25;" x="162.26442" xlink:href="#m172afab9c6" y="190.474493"/>
     <use style="fill:#008000;stroke:#ffffff;stroke-linejoin:miter;stroke-width:0.25;" x="165.242902" xlink:href="#m172afab9c6" y="190.474493"/>
     <use style="fill:#008000;stroke:#ffffff;stroke-linejoin:miter;stroke-width:0.25;" x="168.221384" xlink:href="#m172afab9c6" y="190.474493"/>
     <use style="fill:#008000;stroke:#ffffff;stroke-linejoin:miter;stroke-width:0.25;" x="171.199867" xlink:href="#m172afab9c6" y="190.471914"/>
     <use style="fill:#008000;stroke:#ffffff;stroke-linejoin:miter;stroke-width:0.25;" x="174.178349" xlink:href="#m172afab9c6" y="190.471914"/>
     <use style="fill:#008000;stroke:#ffffff;stroke-linejoin:miter;stroke-width:0.25;" x="177.156831" xlink:href="#m172afab9c6" y="190.471914"/>
     <use style="fill:#008000;stroke:#ffffff;stroke-linejoin:miter;stroke-width:0.25;" x="180.135313" xlink:href="#m172afab9c6" y="190.471914"/>
     <use style="fill:#008000;stroke:#ffffff;stroke-linejoin:miter;stroke-width:0.25;" x="183.113795" xlink:href="#m172afab9c6" y="190.471914"/>
     <use style="fill:#008000;stroke:#ffffff;stroke-linejoin:miter;stroke-width:0.25;" x="186.092277" xlink:href="#m172afab9c6" y="190.448702"/>
     <use style="fill:#008000;stroke:#ffffff;stroke-linejoin:miter;stroke-width:0.25;" x="189.070759" xlink:href="#m172afab9c6" y="190.448702"/>
     <use style="fill:#008000;stroke:#ffffff;stroke-linejoin:miter;stroke-width:0.25;" x="192.049241" xlink:href="#m172afab9c6" y="190.446122"/>
     <use style="fill:#008000;stroke:#ffffff;stroke-linejoin:miter;stroke-width:0.25;" x="195.027723" xlink:href="#m172afab9c6" y="190.446122"/>
     <use style="fill:#008000;stroke:#ffffff;stroke-linejoin:miter;stroke-width:0.25;" x="198.006205" xlink:href="#m172afab9c6" y="190.443543"/>
     <use style="fill:#008000;stroke:#ffffff;stroke-linejoin:miter;stroke-width:0.25;" x="200.984687" xlink:href="#m172afab9c6" y="190.430648"/>
     <use style="fill:#008000;stroke:#ffffff;stroke-linejoin:miter;stroke-width:0.25;" x="203.963169" xlink:href="#m172afab9c6" y="190.42291"/>
     <use style="fill:#008000;stroke:#ffffff;stroke-linejoin:miter;stroke-width:0.25;" x="206.941651" xlink:href="#m172afab9c6" y="190.412594"/>
     <use style="fill:#008000;stroke:#ffffff;stroke-linejoin:miter;stroke-width:0.25;" x="209.920133" xlink:href="#m172afab9c6" y="190.412594"/>
     <use style="fill:#008000;stroke:#ffffff;stroke-linejoin:miter;stroke-width:0.25;" x="212.898616" xlink:href="#m172afab9c6" y="190.379065"/>
     <use style="fill:#008000;stroke:#ffffff;stroke-linejoin:miter;stroke-width:0.25;" x="215.877098" xlink:href="#m172afab9c6" y="190.371328"/>
     <use style="fill:#008000;stroke:#ffffff;stroke-linejoin:miter;stroke-width:0.25;" x="218.85558" xlink:href="#m172afab9c6" y="190.36617"/>
     <use style="fill:#008000;stroke:#ffffff;stroke-linejoin:miter;stroke-width:0.25;" x="221.834062" xlink:href="#m172afab9c6" y="190.293954"/>
     <use style="fill:#008000;stroke:#ffffff;stroke-linejoin:miter;stroke-width:0.25;" x="224.812544" xlink:href="#m172afab9c6" y="190.265584"/>
     <use style="fill:#008000;stroke:#ffffff;stroke-linejoin:miter;stroke-width:0.25;" x="227.791026" xlink:href="#m172afab9c6" y="190.237214"/>
     <use style="fill:#008000;stroke:#ffffff;stroke-linejoin:miter;stroke-width:0.25;" x="230.769508" xlink:href="#m172afab9c6" y="190.21916"/>
     <use style="fill:#008000;stroke:#ffffff;stroke-linejoin:miter;stroke-width:0.25;" x="233.74799" xlink:href="#m172afab9c6" y="190.164998"/>
     <use style="fill:#008000;stroke:#ffffff;stroke-linejoin:miter;stroke-width:0.25;" x="236.726472" xlink:href="#m172afab9c6" y="190.10052"/>
     <use style="fill:#008000;stroke:#ffffff;stroke-linejoin:miter;stroke-width:0.25;" x="239.704954" xlink:href="#m172afab9c6" y="189.989618"/>
     <use style="fill:#008000;stroke:#ffffff;stroke-linejoin:miter;stroke-width:0.25;" x="242.683436" xlink:href="#m172afab9c6" y="189.987039"/>
     <use style="fill:#008000;stroke:#ffffff;stroke-linejoin:miter;stroke-width:0.25;" x="245.661918" xlink:href="#m172afab9c6" y="189.891611"/>
     <use style="fill:#008000;stroke:#ffffff;stroke-linejoin:miter;stroke-width:0.25;" x="248.6404" xlink:href="#m172afab9c6" y="189.891611"/>
     <use style="fill:#008000;stroke:#ffffff;stroke-linejoin:miter;stroke-width:0.25;" x="251.618882" xlink:href="#m172afab9c6" y="189.51506"/>
     <use style="fill:#008000;stroke:#ffffff;stroke-linejoin:miter;stroke-width:0.25;" x="254.597364" xlink:href="#m172afab9c6" y="189.39642"/>
     <use style="fill:#008000;stroke:#ffffff;stroke-linejoin:miter;stroke-width:0.25;" x="257.575847" xlink:href="#m172afab9c6" y="189.177195"/>
     <use style="fill:#008000;stroke:#ffffff;stroke-linejoin:miter;stroke-width:0.25;" x="260.554329" xlink:href="#m172afab9c6" y="188.883175"/>
     <use style="fill:#008000;stroke:#ffffff;stroke-linejoin:miter;stroke-width:0.25;" x="263.532811" xlink:href="#m172afab9c6" y="188.485991"/>
     <use style="fill:#008000;stroke:#ffffff;stroke-linejoin:miter;stroke-width:0.25;" x="266.511293" xlink:href="#m172afab9c6" y="187.983062"/>
     <use style="fill:#008000;stroke:#ffffff;stroke-linejoin:miter;stroke-width:0.25;" x="269.489775" xlink:href="#m172afab9c6" y="187.69678"/>
     <use style="fill:#008000;stroke:#ffffff;stroke-linejoin:miter;stroke-width:0.25;" x="272.468257" xlink:href="#m172afab9c6" y="187.436289"/>
     <use style="fill:#008000;stroke:#ffffff;stroke-linejoin:miter;stroke-width:0.25;" x="275.446739" xlink:href="#m172afab9c6" y="186.977205"/>
     <use style="fill:#008000;stroke:#ffffff;stroke-linejoin:miter;stroke-width:0.25;" x="278.425221" xlink:href="#m172afab9c6" y="186.788929"/>
     <use style="fill:#008000;stroke:#ffffff;stroke-linejoin:miter;stroke-width:0.25;" x="281.403703" xlink:href="#m172afab9c6" y="185.922345"/>
     <use style="fill:#008000;stroke:#ffffff;stroke-linejoin:miter;stroke-width:0.25;" x="284.382185" xlink:href="#m172afab9c6" y="185.218245"/>
     <use style="fill:#008000;stroke:#ffffff;stroke-linejoin:miter;stroke-width:0.25;" x="287.360667" xlink:href="#m172afab9c6" y="184.129856"/>
     <use style="fill:#008000;stroke:#ffffff;stroke-linejoin:miter;stroke-width:0.25;" x="290.339149" xlink:href="#m172afab9c6" y="183.12142"/>
     <use style="fill:#008000;stroke:#ffffff;stroke-linejoin:miter;stroke-width:0.25;" x="293.317631" xlink:href="#m172afab9c6" y="182.040768"/>
     <use style="fill:#008000;stroke:#ffffff;stroke-linejoin:miter;stroke-width:0.25;" x="296.296113" xlink:href="#m172afab9c6" y="180.230226"/>
     <use style="fill:#008000;stroke:#ffffff;stroke-linejoin:miter;stroke-width:0.25;" x="299.274595" xlink:href="#m172afab9c6" y="179.211473"/>
     <use style="fill:#008000;stroke:#ffffff;stroke-linejoin:miter;stroke-width:0.25;" x="302.253078" xlink:href="#m172afab9c6" y="177.555678"/>
     <use style="fill:#008000;stroke:#ffffff;stroke-linejoin:miter;stroke-width:0.25;" x="305.23156" xlink:href="#m172afab9c6" y="176.302225"/>
     <use style="fill:#008000;stroke:#ffffff;stroke-linejoin:miter;stroke-width:0.25;" x="308.210042" xlink:href="#m172afab9c6" y="175.164833"/>
     <use style="fill:#008000;stroke:#ffffff;stroke-linejoin:miter;stroke-width:0.25;" x="311.188524" xlink:href="#m172afab9c6" y="173.658626"/>
     <use style="fill:#008000;stroke:#ffffff;stroke-linejoin:miter;stroke-width:0.25;" x="314.167006" xlink:href="#m172afab9c6" y="172.075046"/>
     <use style="fill:#008000;stroke:#ffffff;stroke-linejoin:miter;stroke-width:0.25;" x="317.145488" xlink:href="#m172afab9c6" y="170.501783"/>
     <use style="fill:#008000;stroke:#ffffff;stroke-linejoin:miter;stroke-width:0.25;" x="320.12397" xlink:href="#m172afab9c6" y="168.722189"/>
     <use style="fill:#008000;stroke:#ffffff;stroke-linejoin:miter;stroke-width:0.25;" x="323.102452" xlink:href="#m172afab9c6" y="167.094764"/>
     <use style="fill:#008000;stroke:#ffffff;stroke-linejoin:miter;stroke-width:0.25;" x="326.080934" xlink:href="#m172afab9c6" y="164.67297"/>
     <use style="fill:#008000;stroke:#ffffff;stroke-linejoin:miter;stroke-width:0.25;" x="329.059416" xlink:href="#m172afab9c6" y="162.578724"/>
     <use style="fill:#008000;stroke:#ffffff;stroke-linejoin:miter;stroke-width:0.25;" x="332.037898" xlink:href="#m172afab9c6" y="160.113085"/>
     <use style="fill:#008000;stroke:#ffffff;stroke-linejoin:miter;stroke-width:0.25;" x="335.01638" xlink:href="#m172afab9c6" y="157.348268"/>
     <use style="fill:#008000;stroke:#ffffff;stroke-linejoin:miter;stroke-width:0.25;" x="337.994862" xlink:href="#m172afab9c6" y="154.008306"/>
     <use style="fill:#008000;stroke:#ffffff;stroke-linejoin:miter;stroke-width:0.25;" x="340.973344" xlink:href="#m172afab9c6" y="150.941732"/>
     <use style="fill:#008000;stroke:#ffffff;stroke-linejoin:miter;stroke-width:0.25;" x="343.951827" xlink:href="#m172afab9c6" y="147.214903"/>
     <use style="fill:#008000;stroke:#ffffff;stroke-linejoin:miter;stroke-width:0.25;" x="346.930309" xlink:href="#m172afab9c6" y="144.3495"/>
     <use style="fill:#008000;stroke:#ffffff;stroke-linejoin:miter;stroke-width:0.25;" x="349.908791" xlink:href="#m172afab9c6" y="140.702623"/>
     <use style="fill:#008000;stroke:#ffffff;stroke-linejoin:miter;stroke-width:0.25;" x="352.887273" xlink:href="#m172afab9c6" y="140.555613"/>
    </g>
   </g>
   <g id="line2d_19">
    <path clip-path="url(#p3ef6c782a6)" d="M 28.232727 190.48223 
L 31.211209 190.48223 
L 34.189691 190.48223 
L 37.168173 190.48223 
L 40.146656 190.48223 
L 43.125138 190.48223 
L 46.10362 190.48223 
L 49.082102 190.48223 
L 52.060584 190.48223 
L 55.039066 190.48223 
L 58.017548 190.48223 
L 60.99603 190.48223 
L 63.974512 190.48223 
L 66.952994 190.48223 
L 69.931476 190.48223 
L 72.909958 190.48223 
L 75.88844 190.48223 
L 78.866922 190.48223 
L 81.845405 190.48223 
L 84.823887 190.48223 
L 87.802369 190.48223 
L 90.780851 190.48223 
L 93.759333 190.48223 
L 96.737815 190.48223 
L 99.716297 190.48223 
L 102.694779 190.48223 
L 105.673261 190.48223 
L 108.651743 190.48223 
L 111.630225 190.48223 
L 114.608707 190.48223 
L 117.587189 190.48223 
L 120.565671 190.48223 
L 123.544153 190.48223 
L 126.522636 190.48223 
L 129.501118 190.48223 
L 132.4796 190.48223 
L 135.458082 190.48223 
L 138.436564 190.48223 
L 141.415046 190.48223 
L 144.393528 190.48223 
L 147.37201 190.48223 
L 150.350492 190.48223 
L 153.328974 190.48223 
L 156.307456 190.48223 
L 159.285938 190.48223 
L 162.26442 190.48223 
L 165.242902 190.48223 
L 168.221384 190.48223 
L 171.199867 190.48223 
L 174.178349 190.479651 
L 177.156831 190.479651 
L 180.135313 190.477072 
L 183.113795 190.477072 
L 186.092277 190.477072 
L 189.070759 190.477072 
L 192.049241 190.474493 
L 195.027723 190.474493 
L 198.006205 190.471914 
L 200.984687 190.469335 
L 203.963169 190.471914 
L 206.941651 190.464176 
L 209.920133 190.456439 
L 212.898616 190.456439 
L 215.877098 190.451281 
L 218.85558 190.430648 
L 221.834062 190.430648 
L 224.812544 190.420331 
L 227.791026 190.412594 
L 230.769508 190.399698 
L 233.74799 190.391961 
L 236.726472 190.332641 
L 239.704954 190.296533 
L 242.683436 190.296533 
L 245.661918 190.260426 
L 248.6404 190.226897 
L 251.618882 190.13147 
L 254.597364 190.095362 
L 257.575847 190.023147 
L 260.554329 189.899349 
L 263.532811 189.847766 
L 266.511293 189.739443 
L 269.489775 189.628541 
L 272.468257 189.558905 
L 275.446739 189.468636 
L 278.425221 189.437686 
L 281.403703 189.326784 
L 284.382185 189.228777 
L 287.360667 189.138508 
L 290.339149 189.040502 
L 293.317631 188.955391 
L 296.296113 188.818697 
L 299.274595 188.725849 
L 302.253078 188.622684 
L 305.23156 188.470516 
L 308.210042 188.354456 
L 311.188524 188.210025 
L 314.167006 188.060436 
L 317.145488 187.882477 
L 320.12397 187.699359 
L 323.102452 187.505925 
L 326.080934 187.327966 
L 329.059416 187.070054 
L 332.037898 186.894673 
L 335.01638 186.443327 
L 337.994862 186.115779 
L 340.973344 185.8785 
L 343.951827 185.610271 
L 346.930309 185.362676 
L 349.908791 185.063498 
L 352.887273 185.042865 
" style="fill:none;stroke:#ff0000;stroke-linecap:round;stroke-width:1.5;"/>
    <defs>
     <path d="M -0.75 1.5 
L 0 0.75 
L 0.75 1.5 
L 1.5 0.75 
L 0.75 0 
L 1.5 -0.75 
L 0.75 -1.5 
L 0 -0.75 
L -0.75 -1.5 
L -1.5 -0.75 
L -0.75 0 
L -1.5 0.75 
z
" id="m44fc003a27" style="stroke:#ffffff;stroke-linejoin:miter;stroke-width:0.25;"/>
    </defs>
    <g clip-path="url(#p3ef6c782a6)">
     <use style="fill:#ff0000;stroke:#ffffff;stroke-linejoin:miter;stroke-width:0.25;" x="28.232727" xlink:href="#m44fc003a27" y="190.48223"/>
     <use style="fill:#ff0000;stroke:#ffffff;stroke-linejoin:miter;stroke-width:0.25;" x="31.211209" xlink:href="#m44fc003a27" y="190.48223"/>
     <use style="fill:#ff0000;stroke:#ffffff;stroke-linejoin:miter;stroke-width:0.25;" x="34.189691" xlink:href="#m44fc003a27" y="190.48223"/>
     <use style="fill:#ff0000;stroke:#ffffff;stroke-linejoin:miter;stroke-width:0.25;" x="37.168173" xlink:href="#m44fc003a27" y="190.48223"/>
     <use style="fill:#ff0000;stroke:#ffffff;stroke-linejoin:miter;stroke-width:0.25;" x="40.146656" xlink:href="#m44fc003a27" y="190.48223"/>
     <use style="fill:#ff0000;stroke:#ffffff;stroke-linejoin:miter;stroke-width:0.25;" x="43.125138" xlink:href="#m44fc003a27" y="190.48223"/>
     <use style="fill:#ff0000;stroke:#ffffff;stroke-linejoin:miter;stroke-width:0.25;" x="46.10362" xlink:href="#m44fc003a27" y="190.48223"/>
     <use style="fill:#ff0000;stroke:#ffffff;stroke-linejoin:miter;stroke-width:0.25;" x="49.082102" xlink:href="#m44fc003a27" y="190.48223"/>
     <use style="fill:#ff0000;stroke:#ffffff;stroke-linejoin:miter;stroke-width:0.25;" x="52.060584" xlink:href="#m44fc003a27" y="190.48223"/>
     <use style="fill:#ff0000;stroke:#ffffff;stroke-linejoin:miter;stroke-width:0.25;" x="55.039066" xlink:href="#m44fc003a27" y="190.48223"/>
     <use style="fill:#ff0000;stroke:#ffffff;stroke-linejoin:miter;stroke-width:0.25;" x="58.017548" xlink:href="#m44fc003a27" y="190.48223"/>
     <use style="fill:#ff0000;stroke:#ffffff;stroke-linejoin:miter;stroke-width:0.25;" x="60.99603" xlink:href="#m44fc003a27" y="190.48223"/>
     <use style="fill:#ff0000;stroke:#ffffff;stroke-linejoin:miter;stroke-width:0.25;" x="63.974512" xlink:href="#m44fc003a27" y="190.48223"/>
     <use style="fill:#ff0000;stroke:#ffffff;stroke-linejoin:miter;stroke-width:0.25;" x="66.952994" xlink:href="#m44fc003a27" y="190.48223"/>
     <use style="fill:#ff0000;stroke:#ffffff;stroke-linejoin:miter;stroke-width:0.25;" x="69.931476" xlink:href="#m44fc003a27" y="190.48223"/>
     <use style="fill:#ff0000;stroke:#ffffff;stroke-linejoin:miter;stroke-width:0.25;" x="72.909958" xlink:href="#m44fc003a27" y="190.48223"/>
     <use style="fill:#ff0000;stroke:#ffffff;stroke-linejoin:miter;stroke-width:0.25;" x="75.88844" xlink:href="#m44fc003a27" y="190.48223"/>
     <use style="fill:#ff0000;stroke:#ffffff;stroke-linejoin:miter;stroke-width:0.25;" x="78.866922" xlink:href="#m44fc003a27" y="190.48223"/>
     <use style="fill:#ff0000;stroke:#ffffff;stroke-linejoin:miter;stroke-width:0.25;" x="81.845405" xlink:href="#m44fc003a27" y="190.48223"/>
     <use style="fill:#ff0000;stroke:#ffffff;stroke-linejoin:miter;stroke-width:0.25;" x="84.823887" xlink:href="#m44fc003a27" y="190.48223"/>
     <use style="fill:#ff0000;stroke:#ffffff;stroke-linejoin:miter;stroke-width:0.25;" x="87.802369" xlink:href="#m44fc003a27" y="190.48223"/>
     <use style="fill:#ff0000;stroke:#ffffff;stroke-linejoin:miter;stroke-width:0.25;" x="90.780851" xlink:href="#m44fc003a27" y="190.48223"/>
     <use style="fill:#ff0000;stroke:#ffffff;stroke-linejoin:miter;stroke-width:0.25;" x="93.759333" xlink:href="#m44fc003a27" y="190.48223"/>
     <use style="fill:#ff0000;stroke:#ffffff;stroke-linejoin:miter;stroke-width:0.25;" x="96.737815" xlink:href="#m44fc003a27" y="190.48223"/>
     <use style="fill:#ff0000;stroke:#ffffff;stroke-linejoin:miter;stroke-width:0.25;" x="99.716297" xlink:href="#m44fc003a27" y="190.48223"/>
     <use style="fill:#ff0000;stroke:#ffffff;stroke-linejoin:miter;stroke-width:0.25;" x="102.694779" xlink:href="#m44fc003a27" y="190.48223"/>
     <use style="fill:#ff0000;stroke:#ffffff;stroke-linejoin:miter;stroke-width:0.25;" x="105.673261" xlink:href="#m44fc003a27" y="190.48223"/>
     <use style="fill:#ff0000;stroke:#ffffff;stroke-linejoin:miter;stroke-width:0.25;" x="108.651743" xlink:href="#m44fc003a27" y="190.48223"/>
     <use style="fill:#ff0000;stroke:#ffffff;stroke-linejoin:miter;stroke-width:0.25;" x="111.630225" xlink:href="#m44fc003a27" y="190.48223"/>
     <use style="fill:#ff0000;stroke:#ffffff;stroke-linejoin:miter;stroke-width:0.25;" x="114.608707" xlink:href="#m44fc003a27" y="190.48223"/>
     <use style="fill:#ff0000;stroke:#ffffff;stroke-linejoin:miter;stroke-width:0.25;" x="117.587189" xlink:href="#m44fc003a27" y="190.48223"/>
     <use style="fill:#ff0000;stroke:#ffffff;stroke-linejoin:miter;stroke-width:0.25;" x="120.565671" xlink:href="#m44fc003a27" y="190.48223"/>
     <use style="fill:#ff0000;stroke:#ffffff;stroke-linejoin:miter;stroke-width:0.25;" x="123.544153" xlink:href="#m44fc003a27" y="190.48223"/>
     <use style="fill:#ff0000;stroke:#ffffff;stroke-linejoin:miter;stroke-width:0.25;" x="126.522636" xlink:href="#m44fc003a27" y="190.48223"/>
     <use style="fill:#ff0000;stroke:#ffffff;stroke-linejoin:miter;stroke-width:0.25;" x="129.501118" xlink:href="#m44fc003a27" y="190.48223"/>
     <use style="fill:#ff0000;stroke:#ffffff;stroke-linejoin:miter;stroke-width:0.25;" x="132.4796" xlink:href="#m44fc003a27" y="190.48223"/>
     <use style="fill:#ff0000;stroke:#ffffff;stroke-linejoin:miter;stroke-width:0.25;" x="135.458082" xlink:href="#m44fc003a27" y="190.48223"/>
     <use style="fill:#ff0000;stroke:#ffffff;stroke-linejoin:miter;stroke-width:0.25;" x="138.436564" xlink:href="#m44fc003a27" y="190.48223"/>
     <use style="fill:#ff0000;stroke:#ffffff;stroke-linejoin:miter;stroke-width:0.25;" x="141.415046" xlink:href="#m44fc003a27" y="190.48223"/>
     <use style="fill:#ff0000;stroke:#ffffff;stroke-linejoin:miter;stroke-width:0.25;" x="144.393528" xlink:href="#m44fc003a27" y="190.48223"/>
     <use style="fill:#ff0000;stroke:#ffffff;stroke-linejoin:miter;stroke-width:0.25;" x="147.37201" xlink:href="#m44fc003a27" y="190.48223"/>
     <use style="fill:#ff0000;stroke:#ffffff;stroke-linejoin:miter;stroke-width:0.25;" x="150.350492" xlink:href="#m44fc003a27" y="190.48223"/>
     <use style="fill:#ff0000;stroke:#ffffff;stroke-linejoin:miter;stroke-width:0.25;" x="153.328974" xlink:href="#m44fc003a27" y="190.48223"/>
     <use style="fill:#ff0000;stroke:#ffffff;stroke-linejoin:miter;stroke-width:0.25;" x="156.307456" xlink:href="#m44fc003a27" y="190.48223"/>
     <use style="fill:#ff0000;stroke:#ffffff;stroke-linejoin:miter;stroke-width:0.25;" x="159.285938" xlink:href="#m44fc003a27" y="190.48223"/>
     <use style="fill:#ff0000;stroke:#ffffff;stroke-linejoin:miter;stroke-width:0.25;" x="162.26442" xlink:href="#m44fc003a27" y="190.48223"/>
     <use style="fill:#ff0000;stroke:#ffffff;stroke-linejoin:miter;stroke-width:0.25;" x="165.242902" xlink:href="#m44fc003a27" y="190.48223"/>
     <use style="fill:#ff0000;stroke:#ffffff;stroke-linejoin:miter;stroke-width:0.25;" x="168.221384" xlink:href="#m44fc003a27" y="190.48223"/>
     <use style="fill:#ff0000;stroke:#ffffff;stroke-linejoin:miter;stroke-width:0.25;" x="171.199867" xlink:href="#m44fc003a27" y="190.48223"/>
     <use style="fill:#ff0000;stroke:#ffffff;stroke-linejoin:miter;stroke-width:0.25;" x="174.178349" xlink:href="#m44fc003a27" y="190.479651"/>
     <use style="fill:#ff0000;stroke:#ffffff;stroke-linejoin:miter;stroke-width:0.25;" x="177.156831" xlink:href="#m44fc003a27" y="190.479651"/>
     <use style="fill:#ff0000;stroke:#ffffff;stroke-linejoin:miter;stroke-width:0.25;" x="180.135313" xlink:href="#m44fc003a27" y="190.477072"/>
     <use style="fill:#ff0000;stroke:#ffffff;stroke-linejoin:miter;stroke-width:0.25;" x="183.113795" xlink:href="#m44fc003a27" y="190.477072"/>
     <use style="fill:#ff0000;stroke:#ffffff;stroke-linejoin:miter;stroke-width:0.25;" x="186.092277" xlink:href="#m44fc003a27" y="190.477072"/>
     <use style="fill:#ff0000;stroke:#ffffff;stroke-linejoin:miter;stroke-width:0.25;" x="189.070759" xlink:href="#m44fc003a27" y="190.477072"/>
     <use style="fill:#ff0000;stroke:#ffffff;stroke-linejoin:miter;stroke-width:0.25;" x="192.049241" xlink:href="#m44fc003a27" y="190.474493"/>
     <use style="fill:#ff0000;stroke:#ffffff;stroke-linejoin:miter;stroke-width:0.25;" x="195.027723" xlink:href="#m44fc003a27" y="190.474493"/>
     <use style="fill:#ff0000;stroke:#ffffff;stroke-linejoin:miter;stroke-width:0.25;" x="198.006205" xlink:href="#m44fc003a27" y="190.471914"/>
     <use style="fill:#ff0000;stroke:#ffffff;stroke-linejoin:miter;stroke-width:0.25;" x="200.984687" xlink:href="#m44fc003a27" y="190.469335"/>
     <use style="fill:#ff0000;stroke:#ffffff;stroke-linejoin:miter;stroke-width:0.25;" x="203.963169" xlink:href="#m44fc003a27" y="190.471914"/>
     <use style="fill:#ff0000;stroke:#ffffff;stroke-linejoin:miter;stroke-width:0.25;" x="206.941651" xlink:href="#m44fc003a27" y="190.464176"/>
     <use style="fill:#ff0000;stroke:#ffffff;stroke-linejoin:miter;stroke-width:0.25;" x="209.920133" xlink:href="#m44fc003a27" y="190.456439"/>
     <use style="fill:#ff0000;stroke:#ffffff;stroke-linejoin:miter;stroke-width:0.25;" x="212.898616" xlink:href="#m44fc003a27" y="190.456439"/>
     <use style="fill:#ff0000;stroke:#ffffff;stroke-linejoin:miter;stroke-width:0.25;" x="215.877098" xlink:href="#m44fc003a27" y="190.451281"/>
     <use style="fill:#ff0000;stroke:#ffffff;stroke-linejoin:miter;stroke-width:0.25;" x="218.85558" xlink:href="#m44fc003a27" y="190.430648"/>
     <use style="fill:#ff0000;stroke:#ffffff;stroke-linejoin:miter;stroke-width:0.25;" x="221.834062" xlink:href="#m44fc003a27" y="190.430648"/>
     <use style="fill:#ff0000;stroke:#ffffff;stroke-linejoin:miter;stroke-width:0.25;" x="224.812544" xlink:href="#m44fc003a27" y="190.420331"/>
     <use style="fill:#ff0000;stroke:#ffffff;stroke-linejoin:miter;stroke-width:0.25;" x="227.791026" xlink:href="#m44fc003a27" y="190.412594"/>
     <use style="fill:#ff0000;stroke:#ffffff;stroke-linejoin:miter;stroke-width:0.25;" x="230.769508" xlink:href="#m44fc003a27" y="190.399698"/>
     <use style="fill:#ff0000;stroke:#ffffff;stroke-linejoin:miter;stroke-width:0.25;" x="233.74799" xlink:href="#m44fc003a27" y="190.391961"/>
     <use style="fill:#ff0000;stroke:#ffffff;stroke-linejoin:miter;stroke-width:0.25;" x="236.726472" xlink:href="#m44fc003a27" y="190.332641"/>
     <use style="fill:#ff0000;stroke:#ffffff;stroke-linejoin:miter;stroke-width:0.25;" x="239.704954" xlink:href="#m44fc003a27" y="190.296533"/>
     <use style="fill:#ff0000;stroke:#ffffff;stroke-linejoin:miter;stroke-width:0.25;" x="242.683436" xlink:href="#m44fc003a27" y="190.296533"/>
     <use style="fill:#ff0000;stroke:#ffffff;stroke-linejoin:miter;stroke-width:0.25;" x="245.661918" xlink:href="#m44fc003a27" y="190.260426"/>
     <use style="fill:#ff0000;stroke:#ffffff;stroke-linejoin:miter;stroke-width:0.25;" x="248.6404" xlink:href="#m44fc003a27" y="190.226897"/>
     <use style="fill:#ff0000;stroke:#ffffff;stroke-linejoin:miter;stroke-width:0.25;" x="251.618882" xlink:href="#m44fc003a27" y="190.13147"/>
     <use style="fill:#ff0000;stroke:#ffffff;stroke-linejoin:miter;stroke-width:0.25;" x="254.597364" xlink:href="#m44fc003a27" y="190.095362"/>
     <use style="fill:#ff0000;stroke:#ffffff;stroke-linejoin:miter;stroke-width:0.25;" x="257.575847" xlink:href="#m44fc003a27" y="190.023147"/>
     <use style="fill:#ff0000;stroke:#ffffff;stroke-linejoin:miter;stroke-width:0.25;" x="260.554329" xlink:href="#m44fc003a27" y="189.899349"/>
     <use style="fill:#ff0000;stroke:#ffffff;stroke-linejoin:miter;stroke-width:0.25;" x="263.532811" xlink:href="#m44fc003a27" y="189.847766"/>
     <use style="fill:#ff0000;stroke:#ffffff;stroke-linejoin:miter;stroke-width:0.25;" x="266.511293" xlink:href="#m44fc003a27" y="189.739443"/>
     <use style="fill:#ff0000;stroke:#ffffff;stroke-linejoin:miter;stroke-width:0.25;" x="269.489775" xlink:href="#m44fc003a27" y="189.628541"/>
     <use style="fill:#ff0000;stroke:#ffffff;stroke-linejoin:miter;stroke-width:0.25;" x="272.468257" xlink:href="#m44fc003a27" y="189.558905"/>
     <use style="fill:#ff0000;stroke:#ffffff;stroke-linejoin:miter;stroke-width:0.25;" x="275.446739" xlink:href="#m44fc003a27" y="189.468636"/>
     <use style="fill:#ff0000;stroke:#ffffff;stroke-linejoin:miter;stroke-width:0.25;" x="278.425221" xlink:href="#m44fc003a27" y="189.437686"/>
     <use style="fill:#ff0000;stroke:#ffffff;stroke-linejoin:miter;stroke-width:0.25;" x="281.403703" xlink:href="#m44fc003a27" y="189.326784"/>
     <use style="fill:#ff0000;stroke:#ffffff;stroke-linejoin:miter;stroke-width:0.25;" x="284.382185" xlink:href="#m44fc003a27" y="189.228777"/>
     <use style="fill:#ff0000;stroke:#ffffff;stroke-linejoin:miter;stroke-width:0.25;" x="287.360667" xlink:href="#m44fc003a27" y="189.138508"/>
     <use style="fill:#ff0000;stroke:#ffffff;stroke-linejoin:miter;stroke-width:0.25;" x="290.339149" xlink:href="#m44fc003a27" y="189.040502"/>
     <use style="fill:#ff0000;stroke:#ffffff;stroke-linejoin:miter;stroke-width:0.25;" x="293.317631" xlink:href="#m44fc003a27" y="188.955391"/>
     <use style="fill:#ff0000;stroke:#ffffff;stroke-linejoin:miter;stroke-width:0.25;" x="296.296113" xlink:href="#m44fc003a27" y="188.818697"/>
     <use style="fill:#ff0000;stroke:#ffffff;stroke-linejoin:miter;stroke-width:0.25;" x="299.274595" xlink:href="#m44fc003a27" y="188.725849"/>
     <use style="fill:#ff0000;stroke:#ffffff;stroke-linejoin:miter;stroke-width:0.25;" x="302.253078" xlink:href="#m44fc003a27" y="188.622684"/>
     <use style="fill:#ff0000;stroke:#ffffff;stroke-linejoin:miter;stroke-width:0.25;" x="305.23156" xlink:href="#m44fc003a27" y="188.470516"/>
     <use style="fill:#ff0000;stroke:#ffffff;stroke-linejoin:miter;stroke-width:0.25;" x="308.210042" xlink:href="#m44fc003a27" y="188.354456"/>
     <use style="fill:#ff0000;stroke:#ffffff;stroke-linejoin:miter;stroke-width:0.25;" x="311.188524" xlink:href="#m44fc003a27" y="188.210025"/>
     <use style="fill:#ff0000;stroke:#ffffff;stroke-linejoin:miter;stroke-width:0.25;" x="314.167006" xlink:href="#m44fc003a27" y="188.060436"/>
     <use style="fill:#ff0000;stroke:#ffffff;stroke-linejoin:miter;stroke-width:0.25;" x="317.145488" xlink:href="#m44fc003a27" y="187.882477"/>
     <use style="fill:#ff0000;stroke:#ffffff;stroke-linejoin:miter;stroke-width:0.25;" x="320.12397" xlink:href="#m44fc003a27" y="187.699359"/>
     <use style="fill:#ff0000;stroke:#ffffff;stroke-linejoin:miter;stroke-width:0.25;" x="323.102452" xlink:href="#m44fc003a27" y="187.505925"/>
     <use style="fill:#ff0000;stroke:#ffffff;stroke-linejoin:miter;stroke-width:0.25;" x="326.080934" xlink:href="#m44fc003a27" y="187.327966"/>
     <use style="fill:#ff0000;stroke:#ffffff;stroke-linejoin:miter;stroke-width:0.25;" x="329.059416" xlink:href="#m44fc003a27" y="187.070054"/>
     <use style="fill:#ff0000;stroke:#ffffff;stroke-linejoin:miter;stroke-width:0.25;" x="332.037898" xlink:href="#m44fc003a27" y="186.894673"/>
     <use style="fill:#ff0000;stroke:#ffffff;stroke-linejoin:miter;stroke-width:0.25;" x="335.01638" xlink:href="#m44fc003a27" y="186.443327"/>
     <use style="fill:#ff0000;stroke:#ffffff;stroke-linejoin:miter;stroke-width:0.25;" x="337.994862" xlink:href="#m44fc003a27" y="186.115779"/>
     <use style="fill:#ff0000;stroke:#ffffff;stroke-linejoin:miter;stroke-width:0.25;" x="340.973344" xlink:href="#m44fc003a27" y="185.8785"/>
     <use style="fill:#ff0000;stroke:#ffffff;stroke-linejoin:miter;stroke-width:0.25;" x="343.951827" xlink:href="#m44fc003a27" y="185.610271"/>
     <use style="fill:#ff0000;stroke:#ffffff;stroke-linejoin:miter;stroke-width:0.25;" x="346.930309" xlink:href="#m44fc003a27" y="185.362676"/>
     <use style="fill:#ff0000;stroke:#ffffff;stroke-linejoin:miter;stroke-width:0.25;" x="349.908791" xlink:href="#m44fc003a27" y="185.063498"/>
     <use style="fill:#ff0000;stroke:#ffffff;stroke-linejoin:miter;stroke-width:0.25;" x="352.887273" xlink:href="#m44fc003a27" y="185.042865"/>
    </g>
   </g>
   <g id="line2d_20"/>
   <g id="line2d_21"/>
   <g id="line2d_22"/>
   <g id="line2d_23"/>
   <g id="line2d_24">
    <path clip-path="url(#p3ef6c782a6)" d="M 12 28.154957 
L 369.12 28.154957 
" style="fill:none;stroke:#4c72b0;stroke-dasharray:0.5,0.825;stroke-dashoffset:0;stroke-width:0.5;"/>
   </g>
   <g id="line2d_25">
    <path clip-path="url(#p3ef6c782a6)" d="M 12 185.042865 
L 369.12 185.042865 
" style="fill:none;stroke:#4c72b0;stroke-dasharray:0.5,0.825;stroke-dashoffset:0;stroke-width:0.5;"/>
   </g>
   <g id="line2d_26">
    <path clip-path="url(#p3ef6c782a6)" d="M 12 140.555613 
L 369.12 140.555613 
" style="fill:none;stroke:#4c72b0;stroke-dasharray:0.5,0.825;stroke-dashoffset:0;stroke-width:0.5;"/>
   </g>
   <g id="line2d_27">
    <path clip-path="url(#p3ef6c782a6)" d="M 352.887273 198.598594 
L 352.887273 20.038594 
" style="fill:none;stroke:#4c72b0;stroke-dasharray:0.5,0.825;stroke-dashoffset:0;stroke-width:0.5;"/>
   </g>
   <g id="patch_3">
    <path d="M 12 198.598594 
L 12 20.038594 
" style="fill:none;stroke:#262626;stroke-linecap:square;stroke-linejoin:miter;stroke-width:0.5;"/>
   </g>
   <g id="patch_4">
    <path d="M 12 198.598594 
L 369.12 198.598594 
" style="fill:none;stroke:#262626;stroke-linecap:square;stroke-linejoin:miter;stroke-width:0.5;"/>
   </g>
   <g id="text_9">
    <!-- 62939 -->
    <defs>
     <path d="M 33.015625 40.375 
Q 26.375 40.375 22.484375 35.828125 
Q 18.609375 31.296875 18.609375 23.390625 
Q 18.609375 15.53125 22.484375 10.953125 
Q 26.375 6.390625 33.015625 6.390625 
Q 39.65625 6.390625 43.53125 10.953125 
Q 47.40625 15.53125 47.40625 23.390625 
Q 47.40625 31.296875 43.53125 35.828125 
Q 39.65625 40.375 33.015625 40.375 
z
M 52.59375 71.296875 
L 52.59375 62.3125 
Q 48.875 64.0625 45.09375 64.984375 
Q 41.3125 65.921875 37.59375 65.921875 
Q 27.828125 65.921875 22.671875 59.328125 
Q 17.53125 52.734375 16.796875 39.40625 
Q 19.671875 43.65625 24.015625 45.921875 
Q 28.375 48.1875 33.59375 48.1875 
Q 44.578125 48.1875 50.953125 41.515625 
Q 57.328125 34.859375 57.328125 23.390625 
Q 57.328125 12.15625 50.6875 5.359375 
Q 44.046875 -1.421875 33.015625 -1.421875 
Q 20.359375 -1.421875 13.671875 8.265625 
Q 6.984375 17.96875 6.984375 36.375 
Q 6.984375 53.65625 15.1875 63.9375 
Q 23.390625 74.21875 37.203125 74.21875 
Q 40.921875 74.21875 44.703125 73.484375 
Q 48.484375 72.75 52.59375 71.296875 
z
" id="DejaVuSans-54"/>
     <path d="M 19.1875 8.296875 
L 53.609375 8.296875 
L 53.609375 0 
L 7.328125 0 
L 7.328125 8.296875 
Q 12.9375 14.109375 22.625 23.890625 
Q 32.328125 33.6875 34.8125 36.53125 
Q 39.546875 41.84375 41.421875 45.53125 
Q 43.3125 49.21875 43.3125 52.78125 
Q 43.3125 58.59375 39.234375 62.25 
Q 35.15625 65.921875 28.609375 65.921875 
Q 23.96875 65.921875 18.8125 64.3125 
Q 13.671875 62.703125 7.8125 59.421875 
L 7.8125 69.390625 
Q 13.765625 71.78125 18.9375 73 
Q 24.125 74.21875 28.421875 74.21875 
Q 39.75 74.21875 46.484375 68.546875 
Q 53.21875 62.890625 53.21875 53.421875 
Q 53.21875 48.921875 51.53125 44.890625 
Q 49.859375 40.875 45.40625 35.40625 
Q 44.1875 33.984375 37.640625 27.21875 
Q 31.109375 20.453125 19.1875 8.296875 
z
" id="DejaVuSans-50"/>
     <path d="M 10.984375 1.515625 
L 10.984375 10.5 
Q 14.703125 8.734375 18.5 7.8125 
Q 22.3125 6.890625 25.984375 6.890625 
Q 35.75 6.890625 40.890625 13.453125 
Q 46.046875 20.015625 46.78125 33.40625 
Q 43.953125 29.203125 39.59375 26.953125 
Q 35.25 24.703125 29.984375 24.703125 
Q 19.046875 24.703125 12.671875 31.3125 
Q 6.296875 37.9375 6.296875 49.421875 
Q 6.296875 60.640625 12.9375 67.421875 
Q 19.578125 74.21875 30.609375 74.21875 
Q 43.265625 74.21875 49.921875 64.515625 
Q 56.59375 54.828125 56.59375 36.375 
Q 56.59375 19.140625 48.40625 8.859375 
Q 40.234375 -1.421875 26.421875 -1.421875 
Q 22.703125 -1.421875 18.890625 -0.6875 
Q 15.09375 0.046875 10.984375 1.515625 
z
M 30.609375 32.421875 
Q 37.25 32.421875 41.125 36.953125 
Q 45.015625 41.5 45.015625 49.421875 
Q 45.015625 57.28125 41.125 61.84375 
Q 37.25 66.40625 30.609375 66.40625 
Q 23.96875 66.40625 20.09375 61.84375 
Q 16.21875 57.28125 16.21875 49.421875 
Q 16.21875 41.5 20.09375 36.953125 
Q 23.96875 32.421875 30.609375 32.421875 
z
" id="DejaVuSans-57"/>
     <path d="M 40.578125 39.3125 
Q 47.65625 37.796875 51.625 33 
Q 55.609375 28.21875 55.609375 21.1875 
Q 55.609375 10.40625 48.1875 4.484375 
Q 40.765625 -1.421875 27.09375 -1.421875 
Q 22.515625 -1.421875 17.65625 -0.515625 
Q 12.796875 0.390625 7.625 2.203125 
L 7.625 11.71875 
Q 11.71875 9.328125 16.59375 8.109375 
Q 21.484375 6.890625 26.8125 6.890625 
Q 36.078125 6.890625 40.9375 10.546875 
Q 45.796875 14.203125 45.796875 21.1875 
Q 45.796875 27.640625 41.28125 31.265625 
Q 36.765625 34.90625 28.71875 34.90625 
L 20.21875 34.90625 
L 20.21875 43.015625 
L 29.109375 43.015625 
Q 36.375 43.015625 40.234375 45.921875 
Q 44.09375 48.828125 44.09375 54.296875 
Q 44.09375 59.90625 40.109375 62.90625 
Q 36.140625 65.921875 28.71875 65.921875 
Q 24.65625 65.921875 20.015625 65.03125 
Q 15.375 64.15625 9.8125 62.3125 
L 9.8125 71.09375 
Q 15.4375 72.65625 20.34375 73.4375 
Q 25.25 74.21875 29.59375 74.21875 
Q 40.828125 74.21875 47.359375 69.109375 
Q 53.90625 64.015625 53.90625 55.328125 
Q 53.90625 49.265625 50.4375 45.09375 
Q 46.96875 40.921875 40.578125 39.3125 
z
" id="DejaVuSans-51"/>
    </defs>
    <g style="fill:#ff0000;" transform="translate(15.5712 26.491207)scale(0.08 -0.08)">
     <use xlink:href="#DejaVuSans-54"/>
     <use x="63.623047" xlink:href="#DejaVuSans-50"/>
     <use x="127.246094" xlink:href="#DejaVuSans-57"/>
     <use x="190.869141" xlink:href="#DejaVuSans-51"/>
     <use x="254.492188" xlink:href="#DejaVuSans-57"/>
    </g>
   </g>
   <g id="text_10">
    <!-- 2109 -->
    <g style="fill:#ff0000;" transform="translate(15.5712 183.379115)scale(0.08 -0.08)">
     <use xlink:href="#DejaVuSans-50"/>
     <use x="63.623047" xlink:href="#DejaVuSans-49"/>
     <use x="127.246094" xlink:href="#DejaVuSans-48"/>
     <use x="190.869141" xlink:href="#DejaVuSans-57"/>
    </g>
   </g>
   <g id="text_11">
    <!-- 19358 -->
    <defs>
     <path d="M 31.78125 34.625 
Q 24.75 34.625 20.71875 30.859375 
Q 16.703125 27.09375 16.703125 20.515625 
Q 16.703125 13.921875 20.71875 10.15625 
Q 24.75 6.390625 31.78125 6.390625 
Q 38.8125 6.390625 42.859375 10.171875 
Q 46.921875 13.96875 46.921875 20.515625 
Q 46.921875 27.09375 42.890625 30.859375 
Q 38.875 34.625 31.78125 34.625 
z
M 21.921875 38.8125 
Q 15.578125 40.375 12.03125 44.71875 
Q 8.5 49.078125 8.5 55.328125 
Q 8.5 64.0625 14.71875 69.140625 
Q 20.953125 74.21875 31.78125 74.21875 
Q 42.671875 74.21875 48.875 69.140625 
Q 55.078125 64.0625 55.078125 55.328125 
Q 55.078125 49.078125 51.53125 44.71875 
Q 48 40.375 41.703125 38.8125 
Q 48.828125 37.15625 52.796875 32.3125 
Q 56.78125 27.484375 56.78125 20.515625 
Q 56.78125 9.90625 50.3125 4.234375 
Q 43.84375 -1.421875 31.78125 -1.421875 
Q 19.734375 -1.421875 13.25 4.234375 
Q 6.78125 9.90625 6.78125 20.515625 
Q 6.78125 27.484375 10.78125 32.3125 
Q 14.796875 37.15625 21.921875 38.8125 
z
M 18.3125 54.390625 
Q 18.3125 48.734375 21.84375 45.5625 
Q 25.390625 42.390625 31.78125 42.390625 
Q 38.140625 42.390625 41.71875 45.5625 
Q 45.3125 48.734375 45.3125 54.390625 
Q 45.3125 60.0625 41.71875 63.234375 
Q 38.140625 66.40625 31.78125 66.40625 
Q 25.390625 66.40625 21.84375 63.234375 
Q 18.3125 60.0625 18.3125 54.390625 
z
" id="DejaVuSans-56"/>
    </defs>
    <g style="fill:#008000;" transform="translate(15.5712 138.891863)scale(0.08 -0.08)">
     <use xlink:href="#DejaVuSans-49"/>
     <use x="63.623047" xlink:href="#DejaVuSans-57"/>
     <use x="127.246094" xlink:href="#DejaVuSans-51"/>
     <use x="190.869141" xlink:href="#DejaVuSans-53"/>
     <use x="254.492188" xlink:href="#DejaVuSans-56"/>
    </g>
   </g>
   <g id="text_12">
    <!-- COVID-19 Cases, Recoveries &amp; Deaths Graph -->
    <defs>
     <path d="M 64.40625 67.28125 
L 64.40625 56.890625 
Q 59.421875 61.53125 53.78125 63.8125 
Q 48.140625 66.109375 41.796875 66.109375 
Q 29.296875 66.109375 22.65625 58.46875 
Q 16.015625 50.828125 16.015625 36.375 
Q 16.015625 21.96875 22.65625 14.328125 
Q 29.296875 6.6875 41.796875 6.6875 
Q 48.140625 6.6875 53.78125 8.984375 
Q 59.421875 11.28125 64.40625 15.921875 
L 64.40625 5.609375 
Q 59.234375 2.09375 53.4375 0.328125 
Q 47.65625 -1.421875 41.21875 -1.421875 
Q 24.65625 -1.421875 15.125 8.703125 
Q 5.609375 18.84375 5.609375 36.375 
Q 5.609375 53.953125 15.125 64.078125 
Q 24.65625 74.21875 41.21875 74.21875 
Q 47.75 74.21875 53.53125 72.484375 
Q 59.328125 70.75 64.40625 67.28125 
z
" id="DejaVuSans-67"/>
     <path d="M 39.40625 66.21875 
Q 28.65625 66.21875 22.328125 58.203125 
Q 16.015625 50.203125 16.015625 36.375 
Q 16.015625 22.609375 22.328125 14.59375 
Q 28.65625 6.59375 39.40625 6.59375 
Q 50.140625 6.59375 56.421875 14.59375 
Q 62.703125 22.609375 62.703125 36.375 
Q 62.703125 50.203125 56.421875 58.203125 
Q 50.140625 66.21875 39.40625 66.21875 
z
M 39.40625 74.21875 
Q 54.734375 74.21875 63.90625 63.9375 
Q 73.09375 53.65625 73.09375 36.375 
Q 73.09375 19.140625 63.90625 8.859375 
Q 54.734375 -1.421875 39.40625 -1.421875 
Q 24.03125 -1.421875 14.8125 8.828125 
Q 5.609375 19.09375 5.609375 36.375 
Q 5.609375 53.65625 14.8125 63.9375 
Q 24.03125 74.21875 39.40625 74.21875 
z
" id="DejaVuSans-79"/>
     <path d="M 28.609375 0 
L 0.78125 72.90625 
L 11.078125 72.90625 
L 34.1875 11.53125 
L 57.328125 72.90625 
L 67.578125 72.90625 
L 39.796875 0 
z
" id="DejaVuSans-86"/>
     <path d="M 9.8125 72.90625 
L 19.671875 72.90625 
L 19.671875 0 
L 9.8125 0 
z
" id="DejaVuSans-73"/>
     <path d="M 19.671875 64.796875 
L 19.671875 8.109375 
L 31.59375 8.109375 
Q 46.6875 8.109375 53.6875 14.9375 
Q 60.6875 21.78125 60.6875 36.53125 
Q 60.6875 51.171875 53.6875 57.984375 
Q 46.6875 64.796875 31.59375 64.796875 
z
M 9.8125 72.90625 
L 30.078125 72.90625 
Q 51.265625 72.90625 61.171875 64.09375 
Q 71.09375 55.28125 71.09375 36.53125 
Q 71.09375 17.671875 61.125 8.828125 
Q 51.171875 0 30.078125 0 
L 9.8125 0 
z
" id="DejaVuSans-68"/>
     <path d="M 4.890625 31.390625 
L 31.203125 31.390625 
L 31.203125 23.390625 
L 4.890625 23.390625 
z
" id="DejaVuSans-45"/>
     <path d="M 44.28125 53.078125 
L 44.28125 44.578125 
Q 40.484375 46.53125 36.375 47.5 
Q 32.28125 48.484375 27.875 48.484375 
Q 21.1875 48.484375 17.84375 46.4375 
Q 14.5 44.390625 14.5 40.28125 
Q 14.5 37.15625 16.890625 35.375 
Q 19.28125 33.59375 26.515625 31.984375 
L 29.59375 31.296875 
Q 39.15625 29.25 43.1875 25.515625 
Q 47.21875 21.78125 47.21875 15.09375 
Q 47.21875 7.46875 41.1875 3.015625 
Q 35.15625 -1.421875 24.609375 -1.421875 
Q 20.21875 -1.421875 15.453125 -0.5625 
Q 10.6875 0.296875 5.421875 2 
L 5.421875 11.28125 
Q 10.40625 8.6875 15.234375 7.390625 
Q 20.0625 6.109375 24.8125 6.109375 
Q 31.15625 6.109375 34.5625 8.28125 
Q 37.984375 10.453125 37.984375 14.40625 
Q 37.984375 18.0625 35.515625 20.015625 
Q 33.0625 21.96875 24.703125 23.78125 
L 21.578125 24.515625 
Q 13.234375 26.265625 9.515625 29.90625 
Q 5.8125 33.546875 5.8125 39.890625 
Q 5.8125 47.609375 11.28125 51.796875 
Q 16.75 56 26.8125 56 
Q 31.78125 56 36.171875 55.265625 
Q 40.578125 54.546875 44.28125 53.078125 
z
" id="DejaVuSans-115"/>
     <path d="M 11.71875 12.40625 
L 22.015625 12.40625 
L 22.015625 4 
L 14.015625 -11.625 
L 7.71875 -11.625 
L 11.71875 4 
z
" id="DejaVuSans-44"/>
     <path d="M 44.390625 34.1875 
Q 47.5625 33.109375 50.5625 29.59375 
Q 53.5625 26.078125 56.59375 19.921875 
L 66.609375 0 
L 56 0 
L 46.6875 18.703125 
Q 43.0625 26.03125 39.671875 28.421875 
Q 36.28125 30.8125 30.421875 30.8125 
L 19.671875 30.8125 
L 19.671875 0 
L 9.8125 0 
L 9.8125 72.90625 
L 32.078125 72.90625 
Q 44.578125 72.90625 50.734375 67.671875 
Q 56.890625 62.453125 56.890625 51.90625 
Q 56.890625 45.015625 53.6875 40.46875 
Q 50.484375 35.9375 44.390625 34.1875 
z
M 19.671875 64.796875 
L 19.671875 38.921875 
L 32.078125 38.921875 
Q 39.203125 38.921875 42.84375 42.21875 
Q 46.484375 45.515625 46.484375 51.90625 
Q 46.484375 58.296875 42.84375 61.546875 
Q 39.203125 64.796875 32.078125 64.796875 
z
" id="DejaVuSans-82"/>
     <path d="M 48.78125 52.59375 
L 48.78125 44.1875 
Q 44.96875 46.296875 41.140625 47.34375 
Q 37.3125 48.390625 33.40625 48.390625 
Q 24.65625 48.390625 19.8125 42.84375 
Q 14.984375 37.3125 14.984375 27.296875 
Q 14.984375 17.28125 19.8125 11.734375 
Q 24.65625 6.203125 33.40625 6.203125 
Q 37.3125 6.203125 41.140625 7.25 
Q 44.96875 8.296875 48.78125 10.40625 
L 48.78125 2.09375 
Q 45.015625 0.34375 40.984375 -0.53125 
Q 36.96875 -1.421875 32.421875 -1.421875 
Q 20.0625 -1.421875 12.78125 6.34375 
Q 5.515625 14.109375 5.515625 27.296875 
Q 5.515625 40.671875 12.859375 48.328125 
Q 20.21875 56 33.015625 56 
Q 37.15625 56 41.109375 55.140625 
Q 45.0625 54.296875 48.78125 52.59375 
z
" id="DejaVuSans-99"/>
     <path d="M 30.609375 48.390625 
Q 23.390625 48.390625 19.1875 42.75 
Q 14.984375 37.109375 14.984375 27.296875 
Q 14.984375 17.484375 19.15625 11.84375 
Q 23.34375 6.203125 30.609375 6.203125 
Q 37.796875 6.203125 41.984375 11.859375 
Q 46.1875 17.53125 46.1875 27.296875 
Q 46.1875 37.015625 41.984375 42.703125 
Q 37.796875 48.390625 30.609375 48.390625 
z
M 30.609375 56 
Q 42.328125 56 49.015625 48.375 
Q 55.71875 40.765625 55.71875 27.296875 
Q 55.71875 13.875 49.015625 6.21875 
Q 42.328125 -1.421875 30.609375 -1.421875 
Q 18.84375 -1.421875 12.171875 6.21875 
Q 5.515625 13.875 5.515625 27.296875 
Q 5.515625 40.765625 12.171875 48.375 
Q 18.84375 56 30.609375 56 
z
" id="DejaVuSans-111"/>
     <path d="M 2.984375 54.6875 
L 12.5 54.6875 
L 29.59375 8.796875 
L 46.6875 54.6875 
L 56.203125 54.6875 
L 35.6875 0 
L 23.484375 0 
z
" id="DejaVuSans-118"/>
     <path d="M 9.421875 54.6875 
L 18.40625 54.6875 
L 18.40625 0 
L 9.421875 0 
z
M 9.421875 75.984375 
L 18.40625 75.984375 
L 18.40625 64.59375 
L 9.421875 64.59375 
z
" id="DejaVuSans-105"/>
     <path d="M 24.3125 39.203125 
Q 19.875 35.25 17.796875 31.3125 
Q 15.71875 27.390625 15.71875 23.09375 
Q 15.71875 15.96875 20.890625 11.234375 
Q 26.078125 6.5 33.890625 6.5 
Q 38.53125 6.5 42.578125 8.03125 
Q 46.625 9.578125 50.203125 12.703125 
z
M 31.203125 44.671875 
L 56 19.28125 
Q 58.890625 23.640625 60.5 28.59375 
Q 62.109375 33.546875 62.40625 39.109375 
L 71.484375 39.109375 
Q 70.90625 32.671875 68.359375 26.359375 
Q 65.828125 20.0625 61.28125 13.921875 
L 74.90625 0 
L 62.59375 0 
L 55.609375 7.171875 
Q 50.53125 2.828125 44.96875 0.703125 
Q 39.40625 -1.421875 33.015625 -1.421875 
Q 21.234375 -1.421875 13.765625 5.296875 
Q 6.296875 12.015625 6.296875 22.515625 
Q 6.296875 28.765625 9.5625 34.25 
Q 12.84375 39.75 19.390625 44.578125 
Q 17.046875 47.65625 15.8125 50.703125 
Q 14.59375 53.765625 14.59375 56.6875 
Q 14.59375 64.59375 20.015625 69.40625 
Q 25.4375 74.21875 34.421875 74.21875 
Q 38.484375 74.21875 42.5 73.34375 
Q 46.53125 72.46875 50.6875 70.703125 
L 50.6875 61.8125 
Q 46.4375 64.109375 42.578125 65.296875 
Q 38.71875 66.5 35.40625 66.5 
Q 30.28125 66.5 27.078125 63.78125 
Q 23.875 61.078125 23.875 56.78125 
Q 23.875 54.296875 25.3125 51.78125 
Q 26.765625 49.265625 31.203125 44.671875 
z
" id="DejaVuSans-38"/>
     <path d="M 18.3125 70.21875 
L 18.3125 54.6875 
L 36.8125 54.6875 
L 36.8125 47.703125 
L 18.3125 47.703125 
L 18.3125 18.015625 
Q 18.3125 11.328125 20.140625 9.421875 
Q 21.96875 7.515625 27.59375 7.515625 
L 36.8125 7.515625 
L 36.8125 0 
L 27.59375 0 
Q 17.1875 0 13.234375 3.875 
Q 9.28125 7.765625 9.28125 18.015625 
L 9.28125 47.703125 
L 2.6875 47.703125 
L 2.6875 54.6875 
L 9.28125 54.6875 
L 9.28125 70.21875 
z
" id="DejaVuSans-116"/>
     <path d="M 54.890625 33.015625 
L 54.890625 0 
L 45.90625 0 
L 45.90625 32.71875 
Q 45.90625 40.484375 42.875 44.328125 
Q 39.84375 48.1875 33.796875 48.1875 
Q 26.515625 48.1875 22.3125 43.546875 
Q 18.109375 38.921875 18.109375 30.90625 
L 18.109375 0 
L 9.078125 0 
L 9.078125 75.984375 
L 18.109375 75.984375 
L 18.109375 46.1875 
Q 21.34375 51.125 25.703125 53.5625 
Q 30.078125 56 35.796875 56 
Q 45.21875 56 50.046875 50.171875 
Q 54.890625 44.34375 54.890625 33.015625 
z
" id="DejaVuSans-104"/>
     <path d="M 59.515625 10.40625 
L 59.515625 29.984375 
L 43.40625 29.984375 
L 43.40625 38.09375 
L 69.28125 38.09375 
L 69.28125 6.78125 
Q 63.578125 2.734375 56.6875 0.65625 
Q 49.8125 -1.421875 42 -1.421875 
Q 24.90625 -1.421875 15.25 8.5625 
Q 5.609375 18.5625 5.609375 36.375 
Q 5.609375 54.25 15.25 64.234375 
Q 24.90625 74.21875 42 74.21875 
Q 49.125 74.21875 55.546875 72.453125 
Q 61.96875 70.703125 67.390625 67.28125 
L 67.390625 56.78125 
Q 61.921875 61.421875 55.765625 63.765625 
Q 49.609375 66.109375 42.828125 66.109375 
Q 29.4375 66.109375 22.71875 58.640625 
Q 16.015625 51.171875 16.015625 36.375 
Q 16.015625 21.625 22.71875 14.15625 
Q 29.4375 6.6875 42.828125 6.6875 
Q 48.046875 6.6875 52.140625 7.59375 
Q 56.25 8.5 59.515625 10.40625 
z
" id="DejaVuSans-71"/>
    </defs>
    <g style="fill:#262626;" transform="translate(88.964766 14.038594)scale(0.09 -0.09)">
     <use xlink:href="#DejaVuSans-67"/>
     <use x="69.824219" xlink:href="#DejaVuSans-79"/>
     <use x="146.785156" xlink:href="#DejaVuSans-86"/>
     <use x="215.193359" xlink:href="#DejaVuSans-73"/>
     <use x="244.685547" xlink:href="#DejaVuSans-68"/>
     <use x="321.6875" xlink:href="#DejaVuSans-45"/>
     <use x="357.771484" xlink:href="#DejaVuSans-49"/>
     <use x="421.394531" xlink:href="#DejaVuSans-57"/>
     <use x="485.017578" xlink:href="#DejaVuSans-32"/>
     <use x="516.804688" xlink:href="#DejaVuSans-67"/>
     <use x="586.628906" xlink:href="#DejaVuSans-97"/>
     <use x="647.908203" xlink:href="#DejaVuSans-115"/>
     <use x="700.007812" xlink:href="#DejaVuSans-101"/>
     <use x="761.53125" xlink:href="#DejaVuSans-115"/>
     <use x="813.630859" xlink:href="#DejaVuSans-44"/>
     <use x="845.417969" xlink:href="#DejaVuSans-32"/>
     <use x="877.205078" xlink:href="#DejaVuSans-82"/>
     <use x="942.1875" xlink:href="#DejaVuSans-101"/>
     <use x="1003.710938" xlink:href="#DejaVuSans-99"/>
     <use x="1058.691406" xlink:href="#DejaVuSans-111"/>
     <use x="1119.873047" xlink:href="#DejaVuSans-118"/>
     <use x="1179.052734" xlink:href="#DejaVuSans-101"/>
     <use x="1240.576172" xlink:href="#DejaVuSans-114"/>
     <use x="1281.689453" xlink:href="#DejaVuSans-105"/>
     <use x="1309.472656" xlink:href="#DejaVuSans-101"/>
     <use x="1370.996094" xlink:href="#DejaVuSans-115"/>
     <use x="1423.095703" xlink:href="#DejaVuSans-32"/>
     <use x="1454.882812" xlink:href="#DejaVuSans-38"/>
     <use x="1532.861328" xlink:href="#DejaVuSans-32"/>
     <use x="1564.648438" xlink:href="#DejaVuSans-68"/>
     <use x="1641.650391" xlink:href="#DejaVuSans-101"/>
     <use x="1703.173828" xlink:href="#DejaVuSans-97"/>
     <use x="1764.453125" xlink:href="#DejaVuSans-116"/>
     <use x="1803.662109" xlink:href="#DejaVuSans-104"/>
     <use x="1867.041016" xlink:href="#DejaVuSans-115"/>
     <use x="1919.140625" xlink:href="#DejaVuSans-32"/>
     <use x="1950.927734" xlink:href="#DejaVuSans-71"/>
     <use x="2028.417969" xlink:href="#DejaVuSans-114"/>
     <use x="2069.53125" xlink:href="#DejaVuSans-97"/>
     <use x="2130.810547" xlink:href="#DejaVuSans-112"/>
     <use x="2194.287109" xlink:href="#DejaVuSans-104"/>
    </g>
   </g>
   <g id="legend_1">
    <g id="line2d_28">
     <path d="M 19.92 95.750094 
L 37.52 95.750094 
" style="fill:none;stroke:#ffa500;stroke-linecap:round;stroke-width:1.5;"/>
    </g>
    <g id="line2d_29">
     <g>
      <use style="fill:#ffa500;stroke:#ffffff;stroke-width:0.25;" x="28.72" xlink:href="#m8ead0ae48b" y="95.750094"/>
     </g>
    </g>
    <g id="text_13">
     <!-- Confirmed Cases -->
     <defs>
      <path d="M 54.890625 33.015625 
L 54.890625 0 
L 45.90625 0 
L 45.90625 32.71875 
Q 45.90625 40.484375 42.875 44.328125 
Q 39.84375 48.1875 33.796875 48.1875 
Q 26.515625 48.1875 22.3125 43.546875 
Q 18.109375 38.921875 18.109375 30.90625 
L 18.109375 0 
L 9.078125 0 
L 9.078125 54.6875 
L 18.109375 54.6875 
L 18.109375 46.1875 
Q 21.34375 51.125 25.703125 53.5625 
Q 30.078125 56 35.796875 56 
Q 45.21875 56 50.046875 50.171875 
Q 54.890625 44.34375 54.890625 33.015625 
z
" id="DejaVuSans-110"/>
      <path d="M 37.109375 75.984375 
L 37.109375 68.5 
L 28.515625 68.5 
Q 23.6875 68.5 21.796875 66.546875 
Q 19.921875 64.59375 19.921875 59.515625 
L 19.921875 54.6875 
L 34.71875 54.6875 
L 34.71875 47.703125 
L 19.921875 47.703125 
L 19.921875 0 
L 10.890625 0 
L 10.890625 47.703125 
L 2.296875 47.703125 
L 2.296875 54.6875 
L 10.890625 54.6875 
L 10.890625 58.5 
Q 10.890625 67.625 15.140625 71.796875 
Q 19.390625 75.984375 28.609375 75.984375 
z
" id="DejaVuSans-102"/>
      <path d="M 52 44.1875 
Q 55.375 50.25 60.0625 53.125 
Q 64.75 56 71.09375 56 
Q 79.640625 56 84.28125 50.015625 
Q 88.921875 44.046875 88.921875 33.015625 
L 88.921875 0 
L 79.890625 0 
L 79.890625 32.71875 
Q 79.890625 40.578125 77.09375 44.375 
Q 74.3125 48.1875 68.609375 48.1875 
Q 61.625 48.1875 57.5625 43.546875 
Q 53.515625 38.921875 53.515625 30.90625 
L 53.515625 0 
L 44.484375 0 
L 44.484375 32.71875 
Q 44.484375 40.625 41.703125 44.40625 
Q 38.921875 48.1875 33.109375 48.1875 
Q 26.21875 48.1875 22.15625 43.53125 
Q 18.109375 38.875 18.109375 30.90625 
L 18.109375 0 
L 9.078125 0 
L 9.078125 54.6875 
L 18.109375 54.6875 
L 18.109375 46.1875 
Q 21.1875 51.21875 25.484375 53.609375 
Q 29.78125 56 35.6875 56 
Q 41.65625 56 45.828125 52.96875 
Q 50 49.953125 52 44.1875 
z
" id="DejaVuSans-109"/>
      <path d="M 45.40625 46.390625 
L 45.40625 75.984375 
L 54.390625 75.984375 
L 54.390625 0 
L 45.40625 0 
L 45.40625 8.203125 
Q 42.578125 3.328125 38.25 0.953125 
Q 33.9375 -1.421875 27.875 -1.421875 
Q 17.96875 -1.421875 11.734375 6.484375 
Q 5.515625 14.40625 5.515625 27.296875 
Q 5.515625 40.1875 11.734375 48.09375 
Q 17.96875 56 27.875 56 
Q 33.9375 56 38.25 53.625 
Q 42.578125 51.265625 45.40625 46.390625 
z
M 14.796875 27.296875 
Q 14.796875 17.390625 18.875 11.75 
Q 22.953125 6.109375 30.078125 6.109375 
Q 37.203125 6.109375 41.296875 11.75 
Q 45.40625 17.390625 45.40625 27.296875 
Q 45.40625 37.203125 41.296875 42.84375 
Q 37.203125 48.484375 30.078125 48.484375 
Q 22.953125 48.484375 18.875 42.84375 
Q 14.796875 37.203125 14.796875 27.296875 
z
" id="DejaVuSans-100"/>
     </defs>
     <g style="fill:#262626;" transform="translate(44.56 98.830094)scale(0.088 -0.088)">
      <use xlink:href="#DejaVuSans-67"/>
      <use x="69.824219" xlink:href="#DejaVuSans-111"/>
      <use x="131.005859" xlink:href="#DejaVuSans-110"/>
      <use x="194.384766" xlink:href="#DejaVuSans-102"/>
      <use x="229.589844" xlink:href="#DejaVuSans-105"/>
      <use x="257.373047" xlink:href="#DejaVuSans-114"/>
      <use x="296.736328" xlink:href="#DejaVuSans-109"/>
      <use x="394.148438" xlink:href="#DejaVuSans-101"/>
      <use x="455.671875" xlink:href="#DejaVuSans-100"/>
      <use x="519.148438" xlink:href="#DejaVuSans-32"/>
      <use x="550.935547" xlink:href="#DejaVuSans-67"/>
      <use x="620.759766" xlink:href="#DejaVuSans-97"/>
      <use x="682.039062" xlink:href="#DejaVuSans-115"/>
      <use x="734.138672" xlink:href="#DejaVuSans-101"/>
      <use x="795.662109" xlink:href="#DejaVuSans-115"/>
     </g>
    </g>
    <g id="line2d_30">
     <path d="M 19.92 108.666844 
L 37.52 108.666844 
" style="fill:none;stroke:#008000;stroke-linecap:round;stroke-width:1.5;"/>
    </g>
    <g id="line2d_31">
     <g>
      <use style="fill:#008000;stroke:#ffffff;stroke-linejoin:miter;stroke-width:0.25;" x="28.72" xlink:href="#m172afab9c6" y="108.666844"/>
     </g>
    </g>
    <g id="text_14">
     <!-- Recoveries -->
     <g style="fill:#262626;" transform="translate(44.56 111.746844)scale(0.088 -0.088)">
      <use xlink:href="#DejaVuSans-82"/>
      <use x="64.982422" xlink:href="#DejaVuSans-101"/>
      <use x="126.505859" xlink:href="#DejaVuSans-99"/>
      <use x="181.486328" xlink:href="#DejaVuSans-111"/>
      <use x="242.667969" xlink:href="#DejaVuSans-118"/>
      <use x="301.847656" xlink:href="#DejaVuSans-101"/>
      <use x="363.371094" xlink:href="#DejaVuSans-114"/>
      <use x="404.484375" xlink:href="#DejaVuSans-105"/>
      <use x="432.267578" xlink:href="#DejaVuSans-101"/>
      <use x="493.791016" xlink:href="#DejaVuSans-115"/>
     </g>
    </g>
    <g id="line2d_32">
     <path d="M 19.92 121.583594 
L 37.52 121.583594 
" style="fill:none;stroke:#ff0000;stroke-linecap:round;stroke-width:1.5;"/>
    </g>
    <g id="line2d_33">
     <g>
      <use style="fill:#ff0000;stroke:#ffffff;stroke-linejoin:miter;stroke-width:0.25;" x="28.72" xlink:href="#m44fc003a27" y="121.583594"/>
     </g>
    </g>
    <g id="text_15">
     <!-- Deaths -->
     <g style="fill:#262626;" transform="translate(44.56 124.663594)scale(0.088 -0.088)">
      <use xlink:href="#DejaVuSans-68"/>
      <use x="77.001953" xlink:href="#DejaVuSans-101"/>
      <use x="138.525391" xlink:href="#DejaVuSans-97"/>
      <use x="199.804688" xlink:href="#DejaVuSans-116"/>
      <use x="239.013672" xlink:href="#DejaVuSans-104"/>
      <use x="302.392578" xlink:href="#DejaVuSans-115"/>
     </g>
    </g>
   </g>
  </g>
 </g>
 <defs>
  <clipPath id="p3ef6c782a6">
   <rect height="178.56" width="357.12" x="12" y="20.038594"/>
  </clipPath>
 </defs>
</svg>
