<?xml version="1.0" encoding="utf-8" standalone="no"?>
<!DOCTYPE svg PUBLIC "-//W3C//DTD SVG 1.1//EN"
  "http://www.w3.org/Graphics/SVG/1.1/DTD/svg11.dtd">
<!-- Created with matplotlib (https://matplotlib.org/) -->
<svg height="244.969593pt" version="1.1" viewBox="0 0 395.09 244.969593" width="395.09pt" xmlns="http://www.w3.org/2000/svg" xmlns:xlink="http://www.w3.org/1999/xlink">
 <defs>
  <style type="text/css">
*{stroke-linecap:butt;stroke-linejoin:round;}
  </style>
 </defs>
 <g id="figure_1">
  <g id="patch_1">
   <path d="M 0 244.969593 
L 395.09 244.969593 
L 395.09 0 
L 0 0 
z
" style="fill:#ffffff;"/>
  </g>
  <g id="axes_1">
   <g id="patch_2">
    <path d="M 30.77 198.598594 
L 387.89 198.598594 
L 387.89 20.038594 
L 30.77 20.038594 
z
" style="fill:#ffffff;"/>
   </g>
   <g id="matplotlib.axis_1">
    <g id="xtick_1">
     <g id="line2d_1">
      <path clip-path="url(#pad44ea610c)" d="M 89.720431 198.598594 
L 89.720431 20.038594 
" style="fill:none;stroke:#f3f3f3;stroke-dasharray:0.5,0.825;stroke-dashoffset:0;stroke-width:0.5;"/>
     </g>
     <g id="line2d_2">
      <defs>
       <path d="M 0 0 
L 0 4.8 
" id="mab622634e1" style="stroke:#262626;"/>
      </defs>
      <g>
       <use style="fill:#262626;stroke:#262626;" x="89.720431" xlink:href="#mab622634e1" y="198.598594"/>
      </g>
     </g>
     <g id="text_1">
      <!-- 01 Feb 20 -->
      <defs>
       <path d="M 31.78125 66.40625 
Q 24.171875 66.40625 20.328125 58.90625 
Q 16.5 51.421875 16.5 36.375 
Q 16.5 21.390625 20.328125 13.890625 
Q 24.171875 6.390625 31.78125 6.390625 
Q 39.453125 6.390625 43.28125 13.890625 
Q 47.125 21.390625 47.125 36.375 
Q 47.125 51.421875 43.28125 58.90625 
Q 39.453125 66.40625 31.78125 66.40625 
z
M 31.78125 74.21875 
Q 44.046875 74.21875 50.515625 64.515625 
Q 56.984375 54.828125 56.984375 36.375 
Q 56.984375 17.96875 50.515625 8.265625 
Q 44.046875 -1.421875 31.78125 -1.421875 
Q 19.53125 -1.421875 13.0625 8.265625 
Q 6.59375 17.96875 6.59375 36.375 
Q 6.59375 54.828125 13.0625 64.515625 
Q 19.53125 74.21875 31.78125 74.21875 
z
" id="DejaVuSans-48"/>
       <path d="M 12.40625 8.296875 
L 28.515625 8.296875 
L 28.515625 63.921875 
L 10.984375 60.40625 
L 10.984375 69.390625 
L 28.421875 72.90625 
L 38.28125 72.90625 
L 38.28125 8.296875 
L 54.390625 8.296875 
L 54.390625 0 
L 12.40625 0 
z
" id="DejaVuSans-49"/>
       <path id="DejaVuSans-32"/>
       <path d="M 9.8125 72.90625 
L 51.703125 72.90625 
L 51.703125 64.59375 
L 19.671875 64.59375 
L 19.671875 43.109375 
L 48.578125 43.109375 
L 48.578125 34.8125 
L 19.671875 34.8125 
L 19.671875 0 
L 9.8125 0 
z
" id="DejaVuSans-70"/>
       <path d="M 56.203125 29.59375 
L 56.203125 25.203125 
L 14.890625 25.203125 
Q 15.484375 15.921875 20.484375 11.0625 
Q 25.484375 6.203125 34.421875 6.203125 
Q 39.59375 6.203125 44.453125 7.46875 
Q 49.3125 8.734375 54.109375 11.28125 
L 54.109375 2.78125 
Q 49.265625 0.734375 44.1875 -0.34375 
Q 39.109375 -1.421875 33.890625 -1.421875 
Q 20.796875 -1.421875 13.15625 6.1875 
Q 5.515625 13.8125 5.515625 26.8125 
Q 5.515625 40.234375 12.765625 48.109375 
Q 20.015625 56 32.328125 56 
Q 43.359375 56 49.78125 48.890625 
Q 56.203125 41.796875 56.203125 29.59375 
z
M 47.21875 32.234375 
Q 47.125 39.59375 43.09375 43.984375 
Q 39.0625 48.390625 32.421875 48.390625 
Q 24.90625 48.390625 20.390625 44.140625 
Q 15.875 39.890625 15.1875 32.171875 
z
" id="DejaVuSans-101"/>
       <path d="M 48.6875 27.296875 
Q 48.6875 37.203125 44.609375 42.84375 
Q 40.53125 48.484375 33.40625 48.484375 
Q 26.265625 48.484375 22.1875 42.84375 
Q 18.109375 37.203125 18.109375 27.296875 
Q 18.109375 17.390625 22.1875 11.75 
Q 26.265625 6.109375 33.40625 6.109375 
Q 40.53125 6.109375 44.609375 11.75 
Q 48.6875 17.390625 48.6875 27.296875 
z
M 18.109375 46.390625 
Q 20.953125 51.265625 25.265625 53.625 
Q 29.59375 56 35.59375 56 
Q 45.5625 56 51.78125 48.09375 
Q 58.015625 40.1875 58.015625 27.296875 
Q 58.015625 14.40625 51.78125 6.484375 
Q 45.5625 -1.421875 35.59375 -1.421875 
Q 29.59375 -1.421875 25.265625 0.953125 
Q 20.953125 3.328125 18.109375 8.203125 
L 18.109375 0 
L 9.078125 0 
L 9.078125 75.984375 
L 18.109375 75.984375 
z
" id="DejaVuSans-98"/>
       <path d="M 19.1875 8.296875 
L 53.609375 8.296875 
L 53.609375 0 
L 7.328125 0 
L 7.328125 8.296875 
Q 12.9375 14.109375 22.625 23.890625 
Q 32.328125 33.6875 34.8125 36.53125 
Q 39.546875 41.84375 41.421875 45.53125 
Q 43.3125 49.21875 43.3125 52.78125 
Q 43.3125 58.59375 39.234375 62.25 
Q 35.15625 65.921875 28.609375 65.921875 
Q 23.96875 65.921875 18.8125 64.3125 
Q 13.671875 62.703125 7.8125 59.421875 
L 7.8125 69.390625 
Q 13.765625 71.78125 18.9375 73 
Q 24.125 74.21875 28.421875 74.21875 
Q 39.75 74.21875 46.484375 68.546875 
Q 53.21875 62.890625 53.21875 53.421875 
Q 53.21875 48.921875 51.53125 44.890625 
Q 49.859375 40.875 45.40625 35.40625 
Q 44.1875 33.984375 37.640625 27.21875 
Q 31.109375 20.453125 19.1875 8.296875 
z
" id="DejaVuSans-50"/>
      </defs>
      <g style="fill:#262626;" transform="translate(87.475451 236.771996)rotate(-75)scale(0.06 -0.06)">
       <use xlink:href="#DejaVuSans-48"/>
       <use x="63.623047" xlink:href="#DejaVuSans-49"/>
       <use x="127.246094" xlink:href="#DejaVuSans-32"/>
       <use x="159.033203" xlink:href="#DejaVuSans-70"/>
       <use x="211.052734" xlink:href="#DejaVuSans-101"/>
       <use x="272.576172" xlink:href="#DejaVuSans-98"/>
       <use x="336.052734" xlink:href="#DejaVuSans-32"/>
       <use x="367.839844" xlink:href="#DejaVuSans-50"/>
       <use x="431.462891" xlink:href="#DejaVuSans-48"/>
      </g>
     </g>
    </g>
    <g id="xtick_2">
     <g id="line2d_3">
      <path clip-path="url(#pad44ea610c)" d="M 149.525215 198.598594 
L 149.525215 20.038594 
" style="fill:none;stroke:#f3f3f3;stroke-dasharray:0.5,0.825;stroke-dashoffset:0;stroke-width:0.5;"/>
     </g>
     <g id="line2d_4">
      <g>
       <use style="fill:#262626;stroke:#262626;" x="149.525215" xlink:href="#mab622634e1" y="198.598594"/>
      </g>
     </g>
     <g id="text_2">
      <!-- 15 Feb 20 -->
      <defs>
       <path d="M 10.796875 72.90625 
L 49.515625 72.90625 
L 49.515625 64.59375 
L 19.828125 64.59375 
L 19.828125 46.734375 
Q 21.96875 47.46875 24.109375 47.828125 
Q 26.265625 48.1875 28.421875 48.1875 
Q 40.625 48.1875 47.75 41.5 
Q 54.890625 34.8125 54.890625 23.390625 
Q 54.890625 11.625 47.5625 5.09375 
Q 40.234375 -1.421875 26.90625 -1.421875 
Q 22.3125 -1.421875 17.546875 -0.640625 
Q 12.796875 0.140625 7.71875 1.703125 
L 7.71875 11.625 
Q 12.109375 9.234375 16.796875 8.0625 
Q 21.484375 6.890625 26.703125 6.890625 
Q 35.15625 6.890625 40.078125 11.328125 
Q 45.015625 15.765625 45.015625 23.390625 
Q 45.015625 31 40.078125 35.4375 
Q 35.15625 39.890625 26.703125 39.890625 
Q 22.75 39.890625 18.8125 39.015625 
Q 14.890625 38.140625 10.796875 36.28125 
z
" id="DejaVuSans-53"/>
      </defs>
      <g style="fill:#262626;" transform="translate(147.280236 236.771996)rotate(-75)scale(0.06 -0.06)">
       <use xlink:href="#DejaVuSans-49"/>
       <use x="63.623047" xlink:href="#DejaVuSans-53"/>
       <use x="127.246094" xlink:href="#DejaVuSans-32"/>
       <use x="159.033203" xlink:href="#DejaVuSans-70"/>
       <use x="211.052734" xlink:href="#DejaVuSans-101"/>
       <use x="272.576172" xlink:href="#DejaVuSans-98"/>
       <use x="336.052734" xlink:href="#DejaVuSans-32"/>
       <use x="367.839844" xlink:href="#DejaVuSans-50"/>
       <use x="431.462891" xlink:href="#DejaVuSans-48"/>
      </g>
     </g>
    </g>
    <g id="xtick_3">
     <g id="line2d_5">
      <path clip-path="url(#pad44ea610c)" d="M 213.60177 198.598594 
L 213.60177 20.038594 
" style="fill:none;stroke:#f3f3f3;stroke-dasharray:0.5,0.825;stroke-dashoffset:0;stroke-width:0.5;"/>
     </g>
     <g id="line2d_6">
      <g>
       <use style="fill:#262626;stroke:#262626;" x="213.60177" xlink:href="#mab622634e1" y="198.598594"/>
      </g>
     </g>
     <g id="text_3">
      <!-- 01 Mar 20 -->
      <defs>
       <path d="M 9.8125 72.90625 
L 24.515625 72.90625 
L 43.109375 23.296875 
L 61.8125 72.90625 
L 76.515625 72.90625 
L 76.515625 0 
L 66.890625 0 
L 66.890625 64.015625 
L 48.09375 14.015625 
L 38.1875 14.015625 
L 19.390625 64.015625 
L 19.390625 0 
L 9.8125 0 
z
" id="DejaVuSans-77"/>
       <path d="M 34.28125 27.484375 
Q 23.390625 27.484375 19.1875 25 
Q 14.984375 22.515625 14.984375 16.5 
Q 14.984375 11.71875 18.140625 8.90625 
Q 21.296875 6.109375 26.703125 6.109375 
Q 34.1875 6.109375 38.703125 11.40625 
Q 43.21875 16.703125 43.21875 25.484375 
L 43.21875 27.484375 
z
M 52.203125 31.203125 
L 52.203125 0 
L 43.21875 0 
L 43.21875 8.296875 
Q 40.140625 3.328125 35.546875 0.953125 
Q 30.953125 -1.421875 24.3125 -1.421875 
Q 15.921875 -1.421875 10.953125 3.296875 
Q 6 8.015625 6 15.921875 
Q 6 25.140625 12.171875 29.828125 
Q 18.359375 34.515625 30.609375 34.515625 
L 43.21875 34.515625 
L 43.21875 35.40625 
Q 43.21875 41.609375 39.140625 45 
Q 35.0625 48.390625 27.6875 48.390625 
Q 23 48.390625 18.546875 47.265625 
Q 14.109375 46.140625 10.015625 43.890625 
L 10.015625 52.203125 
Q 14.9375 54.109375 19.578125 55.046875 
Q 24.21875 56 28.609375 56 
Q 40.484375 56 46.34375 49.84375 
Q 52.203125 43.703125 52.203125 31.203125 
z
" id="DejaVuSans-97"/>
       <path d="M 41.109375 46.296875 
Q 39.59375 47.171875 37.8125 47.578125 
Q 36.03125 48 33.890625 48 
Q 26.265625 48 22.1875 43.046875 
Q 18.109375 38.09375 18.109375 28.8125 
L 18.109375 0 
L 9.078125 0 
L 9.078125 54.6875 
L 18.109375 54.6875 
L 18.109375 46.1875 
Q 20.953125 51.171875 25.484375 53.578125 
Q 30.03125 56 36.53125 56 
Q 37.453125 56 38.578125 55.875 
Q 39.703125 55.765625 41.0625 55.515625 
z
" id="DejaVuSans-114"/>
      </defs>
      <g style="fill:#262626;" transform="translate(211.266406 237.446635)rotate(-75)scale(0.06 -0.06)">
       <use xlink:href="#DejaVuSans-48"/>
       <use x="63.623047" xlink:href="#DejaVuSans-49"/>
       <use x="127.246094" xlink:href="#DejaVuSans-32"/>
       <use x="159.033203" xlink:href="#DejaVuSans-77"/>
       <use x="245.3125" xlink:href="#DejaVuSans-97"/>
       <use x="306.591797" xlink:href="#DejaVuSans-114"/>
       <use x="347.705078" xlink:href="#DejaVuSans-32"/>
       <use x="379.492188" xlink:href="#DejaVuSans-50"/>
       <use x="443.115234" xlink:href="#DejaVuSans-48"/>
      </g>
     </g>
    </g>
    <g id="xtick_4">
     <g id="line2d_7">
      <path clip-path="url(#pad44ea610c)" d="M 273.406555 198.598594 
L 273.406555 20.038594 
" style="fill:none;stroke:#f3f3f3;stroke-dasharray:0.5,0.825;stroke-dashoffset:0;stroke-width:0.5;"/>
     </g>
     <g id="line2d_8">
      <g>
       <use style="fill:#262626;stroke:#262626;" x="273.406555" xlink:href="#mab622634e1" y="198.598594"/>
      </g>
     </g>
     <g id="text_4">
      <!-- 15 Mar 20 -->
      <g style="fill:#262626;" transform="translate(271.071191 237.446635)rotate(-75)scale(0.06 -0.06)">
       <use xlink:href="#DejaVuSans-49"/>
       <use x="63.623047" xlink:href="#DejaVuSans-53"/>
       <use x="127.246094" xlink:href="#DejaVuSans-32"/>
       <use x="159.033203" xlink:href="#DejaVuSans-77"/>
       <use x="245.3125" xlink:href="#DejaVuSans-97"/>
       <use x="306.591797" xlink:href="#DejaVuSans-114"/>
       <use x="347.705078" xlink:href="#DejaVuSans-32"/>
       <use x="379.492188" xlink:href="#DejaVuSans-50"/>
       <use x="443.115234" xlink:href="#DejaVuSans-48"/>
      </g>
     </g>
    </g>
    <g id="xtick_5">
     <g id="line2d_9">
      <path clip-path="url(#pad44ea610c)" d="M 346.026651 198.598594 
L 346.026651 20.038594 
" style="fill:none;stroke:#f3f3f3;stroke-dasharray:0.5,0.825;stroke-dashoffset:0;stroke-width:0.5;"/>
     </g>
     <g id="line2d_10">
      <g>
       <use style="fill:#262626;stroke:#262626;" x="346.026651" xlink:href="#mab622634e1" y="198.598594"/>
      </g>
     </g>
     <g id="text_5">
      <!-- 01 Apr 20 -->
      <defs>
       <path d="M 34.1875 63.1875 
L 20.796875 26.90625 
L 47.609375 26.90625 
z
M 28.609375 72.90625 
L 39.796875 72.90625 
L 67.578125 0 
L 57.328125 0 
L 50.6875 18.703125 
L 17.828125 18.703125 
L 11.1875 0 
L 0.78125 0 
z
" id="DejaVuSans-65"/>
       <path d="M 18.109375 8.203125 
L 18.109375 -20.796875 
L 9.078125 -20.796875 
L 9.078125 54.6875 
L 18.109375 54.6875 
L 18.109375 46.390625 
Q 20.953125 51.265625 25.265625 53.625 
Q 29.59375 56 35.59375 56 
Q 45.5625 56 51.78125 48.09375 
Q 58.015625 40.1875 58.015625 27.296875 
Q 58.015625 14.40625 51.78125 6.484375 
Q 45.5625 -1.421875 35.59375 -1.421875 
Q 29.59375 -1.421875 25.265625 0.953125 
Q 20.953125 3.328125 18.109375 8.203125 
z
M 48.6875 27.296875 
Q 48.6875 37.203125 44.609375 42.84375 
Q 40.53125 48.484375 33.40625 48.484375 
Q 26.265625 48.484375 22.1875 42.84375 
Q 18.109375 37.203125 18.109375 27.296875 
Q 18.109375 17.390625 22.1875 11.75 
Q 26.265625 6.109375 33.40625 6.109375 
Q 40.53125 6.109375 44.609375 11.75 
Q 48.6875 17.390625 48.6875 27.296875 
z
" id="DejaVuSans-112"/>
      </defs>
      <g style="fill:#262626;" transform="translate(343.812972 236.538363)rotate(-75)scale(0.06 -0.06)">
       <use xlink:href="#DejaVuSans-48"/>
       <use x="63.623047" xlink:href="#DejaVuSans-49"/>
       <use x="127.246094" xlink:href="#DejaVuSans-32"/>
       <use x="159.033203" xlink:href="#DejaVuSans-65"/>
       <use x="227.441406" xlink:href="#DejaVuSans-112"/>
       <use x="290.917969" xlink:href="#DejaVuSans-114"/>
       <use x="332.03125" xlink:href="#DejaVuSans-32"/>
       <use x="363.818359" xlink:href="#DejaVuSans-50"/>
       <use x="427.441406" xlink:href="#DejaVuSans-48"/>
      </g>
     </g>
    </g>
    <g id="xtick_6">
     <g id="line2d_11">
      <path clip-path="url(#pad44ea610c)" d="M 371.657273 198.598594 
L 371.657273 20.038594 
" style="fill:none;stroke:#f3f3f3;stroke-dasharray:0.5,0.825;stroke-dashoffset:0;stroke-width:0.5;"/>
     </g>
     <g id="line2d_12">
      <g>
       <use style="fill:#262626;stroke:#262626;" x="371.657273" xlink:href="#mab622634e1" y="198.598594"/>
      </g>
     </g>
     <g id="text_6">
      <!-- 07 Apr 20 -->
      <defs>
       <path d="M 8.203125 72.90625 
L 55.078125 72.90625 
L 55.078125 68.703125 
L 28.609375 0 
L 18.3125 0 
L 43.21875 64.59375 
L 8.203125 64.59375 
z
" id="DejaVuSans-55"/>
      </defs>
      <g style="fill:#262626;" transform="translate(369.443594 236.538363)rotate(-75)scale(0.06 -0.06)">
       <use xlink:href="#DejaVuSans-48"/>
       <use x="63.623047" xlink:href="#DejaVuSans-55"/>
       <use x="127.246094" xlink:href="#DejaVuSans-32"/>
       <use x="159.033203" xlink:href="#DejaVuSans-65"/>
       <use x="227.441406" xlink:href="#DejaVuSans-112"/>
       <use x="290.917969" xlink:href="#DejaVuSans-114"/>
       <use x="332.03125" xlink:href="#DejaVuSans-32"/>
       <use x="363.818359" xlink:href="#DejaVuSans-50"/>
       <use x="427.441406" xlink:href="#DejaVuSans-48"/>
      </g>
     </g>
    </g>
   </g>
   <g id="matplotlib.axis_2">
    <g id="ytick_1">
     <g id="line2d_13">
      <path clip-path="url(#pad44ea610c)" d="M 30.77 190.48223 
L 387.89 190.48223 
" style="fill:none;stroke:#f3f3f3;stroke-dasharray:0.5,0.825;stroke-dashoffset:0;stroke-width:0.5;"/>
     </g>
     <g id="line2d_14">
      <defs>
       <path d="M 0 0 
L -4.8 0 
" id="m4de7beaaa1" style="stroke:#262626;"/>
      </defs>
      <g>
       <use style="fill:#262626;stroke:#262626;" x="30.77" xlink:href="#m4de7beaaa1" y="190.48223"/>
      </g>
     </g>
     <g id="text_7">
      <!-- 0 -->
      <g style="fill:#262626;" transform="translate(18.6525 192.761761)scale(0.06 -0.06)">
       <use xlink:href="#DejaVuSans-48"/>
      </g>
     </g>
    </g>
    <g id="ytick_2">
     <g id="line2d_15">
      <path clip-path="url(#pad44ea610c)" d="M 30.77 159.917878 
L 387.89 159.917878 
" style="fill:none;stroke:#f3f3f3;stroke-dasharray:0.5,0.825;stroke-dashoffset:0;stroke-width:0.5;"/>
     </g>
     <g id="line2d_16">
      <g>
       <use style="fill:#262626;stroke:#262626;" x="30.77" xlink:href="#m4de7beaaa1" y="159.917878"/>
      </g>
     </g>
     <g id="text_8">
      <!-- 1000 -->
      <g style="fill:#262626;" transform="translate(7.2 162.19741)scale(0.06 -0.06)">
       <use xlink:href="#DejaVuSans-49"/>
       <use x="63.623047" xlink:href="#DejaVuSans-48"/>
       <use x="127.246094" xlink:href="#DejaVuSans-48"/>
       <use x="190.869141" xlink:href="#DejaVuSans-48"/>
      </g>
     </g>
    </g>
    <g id="ytick_3">
     <g id="line2d_17">
      <path clip-path="url(#pad44ea610c)" d="M 30.77 129.353526 
L 387.89 129.353526 
" style="fill:none;stroke:#f3f3f3;stroke-dasharray:0.5,0.825;stroke-dashoffset:0;stroke-width:0.5;"/>
     </g>
     <g id="line2d_18">
      <g>
       <use style="fill:#262626;stroke:#262626;" x="30.77" xlink:href="#m4de7beaaa1" y="129.353526"/>
      </g>
     </g>
     <g id="text_9">
      <!-- 2000 -->
      <g style="fill:#262626;" transform="translate(7.2 131.633058)scale(0.06 -0.06)">
       <use xlink:href="#DejaVuSans-50"/>
       <use x="63.623047" xlink:href="#DejaVuSans-48"/>
       <use x="127.246094" xlink:href="#DejaVuSans-48"/>
       <use x="190.869141" xlink:href="#DejaVuSans-48"/>
      </g>
     </g>
    </g>
    <g id="ytick_4">
     <g id="line2d_19">
      <path clip-path="url(#pad44ea610c)" d="M 30.77 98.789175 
L 387.89 98.789175 
" style="fill:none;stroke:#f3f3f3;stroke-dasharray:0.5,0.825;stroke-dashoffset:0;stroke-width:0.5;"/>
     </g>
     <g id="line2d_20">
      <g>
       <use style="fill:#262626;stroke:#262626;" x="30.77" xlink:href="#m4de7beaaa1" y="98.789175"/>
      </g>
     </g>
     <g id="text_10">
      <!-- 3000 -->
      <defs>
       <path d="M 40.578125 39.3125 
Q 47.65625 37.796875 51.625 33 
Q 55.609375 28.21875 55.609375 21.1875 
Q 55.609375 10.40625 48.1875 4.484375 
Q 40.765625 -1.421875 27.09375 -1.421875 
Q 22.515625 -1.421875 17.65625 -0.515625 
Q 12.796875 0.390625 7.625 2.203125 
L 7.625 11.71875 
Q 11.71875 9.328125 16.59375 8.109375 
Q 21.484375 6.890625 26.8125 6.890625 
Q 36.078125 6.890625 40.9375 10.546875 
Q 45.796875 14.203125 45.796875 21.1875 
Q 45.796875 27.640625 41.28125 31.265625 
Q 36.765625 34.90625 28.71875 34.90625 
L 20.21875 34.90625 
L 20.21875 43.015625 
L 29.109375 43.015625 
Q 36.375 43.015625 40.234375 45.921875 
Q 44.09375 48.828125 44.09375 54.296875 
Q 44.09375 59.90625 40.109375 62.90625 
Q 36.140625 65.921875 28.71875 65.921875 
Q 24.65625 65.921875 20.015625 65.03125 
Q 15.375 64.15625 9.8125 62.3125 
L 9.8125 71.09375 
Q 15.4375 72.65625 20.34375 73.4375 
Q 25.25 74.21875 29.59375 74.21875 
Q 40.828125 74.21875 47.359375 69.109375 
Q 53.90625 64.015625 53.90625 55.328125 
Q 53.90625 49.265625 50.4375 45.09375 
Q 46.96875 40.921875 40.578125 39.3125 
z
" id="DejaVuSans-51"/>
      </defs>
      <g style="fill:#262626;" transform="translate(7.2 101.068706)scale(0.06 -0.06)">
       <use xlink:href="#DejaVuSans-51"/>
       <use x="63.623047" xlink:href="#DejaVuSans-48"/>
       <use x="127.246094" xlink:href="#DejaVuSans-48"/>
       <use x="190.869141" xlink:href="#DejaVuSans-48"/>
      </g>
     </g>
    </g>
    <g id="ytick_5">
     <g id="line2d_21">
      <path clip-path="url(#pad44ea610c)" d="M 30.77 68.224823 
L 387.89 68.224823 
" style="fill:none;stroke:#f3f3f3;stroke-dasharray:0.5,0.825;stroke-dashoffset:0;stroke-width:0.5;"/>
     </g>
     <g id="line2d_22">
      <g>
       <use style="fill:#262626;stroke:#262626;" x="30.77" xlink:href="#m4de7beaaa1" y="68.224823"/>
      </g>
     </g>
     <g id="text_11">
      <!-- 4000 -->
      <defs>
       <path d="M 37.796875 64.3125 
L 12.890625 25.390625 
L 37.796875 25.390625 
z
M 35.203125 72.90625 
L 47.609375 72.90625 
L 47.609375 25.390625 
L 58.015625 25.390625 
L 58.015625 17.1875 
L 47.609375 17.1875 
L 47.609375 0 
L 37.796875 0 
L 37.796875 17.1875 
L 4.890625 17.1875 
L 4.890625 26.703125 
z
" id="DejaVuSans-52"/>
      </defs>
      <g style="fill:#262626;" transform="translate(7.2 70.504354)scale(0.06 -0.06)">
       <use xlink:href="#DejaVuSans-52"/>
       <use x="63.623047" xlink:href="#DejaVuSans-48"/>
       <use x="127.246094" xlink:href="#DejaVuSans-48"/>
       <use x="190.869141" xlink:href="#DejaVuSans-48"/>
      </g>
     </g>
    </g>
    <g id="ytick_6">
     <g id="line2d_23">
      <path clip-path="url(#pad44ea610c)" d="M 30.77 37.660471 
L 387.89 37.660471 
" style="fill:none;stroke:#f3f3f3;stroke-dasharray:0.5,0.825;stroke-dashoffset:0;stroke-width:0.5;"/>
     </g>
     <g id="line2d_24">
      <g>
       <use style="fill:#262626;stroke:#262626;" x="30.77" xlink:href="#m4de7beaaa1" y="37.660471"/>
      </g>
     </g>
     <g id="text_12">
      <!-- 5000 -->
      <g style="fill:#262626;" transform="translate(7.2 39.940002)scale(0.06 -0.06)">
       <use xlink:href="#DejaVuSans-53"/>
       <use x="63.623047" xlink:href="#DejaVuSans-48"/>
       <use x="127.246094" xlink:href="#DejaVuSans-48"/>
       <use x="190.869141" xlink:href="#DejaVuSans-48"/>
      </g>
     </g>
    </g>
   </g>
   <g id="line2d_25">
    <path clip-path="url(#pad44ea610c)" d="M 47.002727 190.48223 
L 51.274498 190.48223 
L 55.546268 190.48223 
L 59.818038 190.48223 
L 64.089809 190.48223 
L 68.361579 190.48223 
L 72.633349 190.48223 
L 76.90512 190.48223 
L 81.17689 190.451666 
L 85.44866 190.451666 
L 89.720431 190.451666 
L 93.992201 190.421101 
L 98.263971 190.390537 
L 102.535742 190.390537 
L 106.807512 190.390537 
L 111.079282 190.390537 
L 115.351053 190.390537 
L 119.622823 190.390537 
L 123.894593 190.390537 
L 128.166364 190.390537 
L 132.438134 190.390537 
L 136.709904 190.390537 
L 140.981675 190.390537 
L 145.253445 190.390537 
L 149.525215 190.390537 
L 153.796986 190.390537 
L 158.068756 190.390537 
L 162.340526 190.390537 
L 166.612297 190.390537 
L 170.884067 190.390537 
L 175.155837 190.390537 
L 179.427608 190.390537 
L 183.699378 190.390537 
L 187.971148 190.390537 
L 192.242919 190.390537 
L 196.514689 190.390537 
L 200.786459 190.390537 
L 205.05823 190.390537 
L 209.33 190.390537 
L 213.60177 190.390537 
L 217.873541 190.329408 
L 222.145311 190.329408 
L 226.417081 189.626428 
L 230.688852 189.5653 
L 234.960622 189.534735 
L 239.232392 189.443042 
L 243.504163 189.29022 
L 247.775933 189.167963 
L 252.047703 188.770626 
L 256.319474 188.58724 
L 260.591244 188.251032 
L 264.863014 187.975953 
L 269.134785 187.364666 
L 273.406555 187.028458 
L 277.678325 186.845072 
L 281.950096 186.142092 
L 286.221866 185.714191 
L 290.493636 184.552746 
L 294.765407 183.024528 
L 299.037177 180.395994 
L 303.308947 178.378747 
L 307.580718 175.230619 
L 311.852488 174.099738 
L 316.124258 170.401451 
L 320.396029 168.261946 
L 324.667799 163.37165 
L 328.939569 160.315215 
L 333.21134 159.184334 
L 337.48311 152.246226 
L 341.75488 147.783831 
L 346.026651 129.414655 
L 350.298421 112.757083 
L 354.570191 112.023539 
L 358.841962 96.282898 
L 363.113732 80.817336 
L 367.385502 44.445757 
L 371.657273 28.154957 
" style="fill:none;stroke:#ffa500;stroke-linecap:round;stroke-width:2;"/>
    <defs>
     <path d="M 0 2 
C 0.530406 2 1.03916 1.789267 1.414214 1.414214 
C 1.789267 1.03916 2 0.530406 2 0 
C 2 -0.530406 1.789267 -1.03916 1.414214 -1.414214 
C 1.03916 -1.789267 0.530406 -2 0 -2 
C -0.530406 -2 -1.03916 -1.789267 -1.414214 -1.414214 
C -1.789267 -1.03916 -2 -0.530406 -2 0 
C -2 0.530406 -1.789267 1.03916 -1.414214 1.414214 
C -1.03916 1.789267 -0.530406 2 0 2 
z
" id="maeb432d164" style="stroke:#ffffff;stroke-width:0.25;"/>
    </defs>
    <g clip-path="url(#pad44ea610c)">
     <use style="fill:#ffa500;stroke:#ffffff;stroke-width:0.25;" x="47.002727" xlink:href="#maeb432d164" y="190.48223"/>
     <use style="fill:#ffa500;stroke:#ffffff;stroke-width:0.25;" x="51.274498" xlink:href="#maeb432d164" y="190.48223"/>
     <use style="fill:#ffa500;stroke:#ffffff;stroke-width:0.25;" x="55.546268" xlink:href="#maeb432d164" y="190.48223"/>
     <use style="fill:#ffa500;stroke:#ffffff;stroke-width:0.25;" x="59.818038" xlink:href="#maeb432d164" y="190.48223"/>
     <use style="fill:#ffa500;stroke:#ffffff;stroke-width:0.25;" x="64.089809" xlink:href="#maeb432d164" y="190.48223"/>
     <use style="fill:#ffa500;stroke:#ffffff;stroke-width:0.25;" x="68.361579" xlink:href="#maeb432d164" y="190.48223"/>
     <use style="fill:#ffa500;stroke:#ffffff;stroke-width:0.25;" x="72.633349" xlink:href="#maeb432d164" y="190.48223"/>
     <use style="fill:#ffa500;stroke:#ffffff;stroke-width:0.25;" x="76.90512" xlink:href="#maeb432d164" y="190.48223"/>
     <use style="fill:#ffa500;stroke:#ffffff;stroke-width:0.25;" x="81.17689" xlink:href="#maeb432d164" y="190.451666"/>
     <use style="fill:#ffa500;stroke:#ffffff;stroke-width:0.25;" x="85.44866" xlink:href="#maeb432d164" y="190.451666"/>
     <use style="fill:#ffa500;stroke:#ffffff;stroke-width:0.25;" x="89.720431" xlink:href="#maeb432d164" y="190.451666"/>
     <use style="fill:#ffa500;stroke:#ffffff;stroke-width:0.25;" x="93.992201" xlink:href="#maeb432d164" y="190.421101"/>
     <use style="fill:#ffa500;stroke:#ffffff;stroke-width:0.25;" x="98.263971" xlink:href="#maeb432d164" y="190.390537"/>
     <use style="fill:#ffa500;stroke:#ffffff;stroke-width:0.25;" x="102.535742" xlink:href="#maeb432d164" y="190.390537"/>
     <use style="fill:#ffa500;stroke:#ffffff;stroke-width:0.25;" x="106.807512" xlink:href="#maeb432d164" y="190.390537"/>
     <use style="fill:#ffa500;stroke:#ffffff;stroke-width:0.25;" x="111.079282" xlink:href="#maeb432d164" y="190.390537"/>
     <use style="fill:#ffa500;stroke:#ffffff;stroke-width:0.25;" x="115.351053" xlink:href="#maeb432d164" y="190.390537"/>
     <use style="fill:#ffa500;stroke:#ffffff;stroke-width:0.25;" x="119.622823" xlink:href="#maeb432d164" y="190.390537"/>
     <use style="fill:#ffa500;stroke:#ffffff;stroke-width:0.25;" x="123.894593" xlink:href="#maeb432d164" y="190.390537"/>
     <use style="fill:#ffa500;stroke:#ffffff;stroke-width:0.25;" x="128.166364" xlink:href="#maeb432d164" y="190.390537"/>
     <use style="fill:#ffa500;stroke:#ffffff;stroke-width:0.25;" x="132.438134" xlink:href="#maeb432d164" y="190.390537"/>
     <use style="fill:#ffa500;stroke:#ffffff;stroke-width:0.25;" x="136.709904" xlink:href="#maeb432d164" y="190.390537"/>
     <use style="fill:#ffa500;stroke:#ffffff;stroke-width:0.25;" x="140.981675" xlink:href="#maeb432d164" y="190.390537"/>
     <use style="fill:#ffa500;stroke:#ffffff;stroke-width:0.25;" x="145.253445" xlink:href="#maeb432d164" y="190.390537"/>
     <use style="fill:#ffa500;stroke:#ffffff;stroke-width:0.25;" x="149.525215" xlink:href="#maeb432d164" y="190.390537"/>
     <use style="fill:#ffa500;stroke:#ffffff;stroke-width:0.25;" x="153.796986" xlink:href="#maeb432d164" y="190.390537"/>
     <use style="fill:#ffa500;stroke:#ffffff;stroke-width:0.25;" x="158.068756" xlink:href="#maeb432d164" y="190.390537"/>
     <use style="fill:#ffa500;stroke:#ffffff;stroke-width:0.25;" x="162.340526" xlink:href="#maeb432d164" y="190.390537"/>
     <use style="fill:#ffa500;stroke:#ffffff;stroke-width:0.25;" x="166.612297" xlink:href="#maeb432d164" y="190.390537"/>
     <use style="fill:#ffa500;stroke:#ffffff;stroke-width:0.25;" x="170.884067" xlink:href="#maeb432d164" y="190.390537"/>
     <use style="fill:#ffa500;stroke:#ffffff;stroke-width:0.25;" x="175.155837" xlink:href="#maeb432d164" y="190.390537"/>
     <use style="fill:#ffa500;stroke:#ffffff;stroke-width:0.25;" x="179.427608" xlink:href="#maeb432d164" y="190.390537"/>
     <use style="fill:#ffa500;stroke:#ffffff;stroke-width:0.25;" x="183.699378" xlink:href="#maeb432d164" y="190.390537"/>
     <use style="fill:#ffa500;stroke:#ffffff;stroke-width:0.25;" x="187.971148" xlink:href="#maeb432d164" y="190.390537"/>
     <use style="fill:#ffa500;stroke:#ffffff;stroke-width:0.25;" x="192.242919" xlink:href="#maeb432d164" y="190.390537"/>
     <use style="fill:#ffa500;stroke:#ffffff;stroke-width:0.25;" x="196.514689" xlink:href="#maeb432d164" y="190.390537"/>
     <use style="fill:#ffa500;stroke:#ffffff;stroke-width:0.25;" x="200.786459" xlink:href="#maeb432d164" y="190.390537"/>
     <use style="fill:#ffa500;stroke:#ffffff;stroke-width:0.25;" x="205.05823" xlink:href="#maeb432d164" y="190.390537"/>
     <use style="fill:#ffa500;stroke:#ffffff;stroke-width:0.25;" x="209.33" xlink:href="#maeb432d164" y="190.390537"/>
     <use style="fill:#ffa500;stroke:#ffffff;stroke-width:0.25;" x="213.60177" xlink:href="#maeb432d164" y="190.390537"/>
     <use style="fill:#ffa500;stroke:#ffffff;stroke-width:0.25;" x="217.873541" xlink:href="#maeb432d164" y="190.329408"/>
     <use style="fill:#ffa500;stroke:#ffffff;stroke-width:0.25;" x="222.145311" xlink:href="#maeb432d164" y="190.329408"/>
     <use style="fill:#ffa500;stroke:#ffffff;stroke-width:0.25;" x="226.417081" xlink:href="#maeb432d164" y="189.626428"/>
     <use style="fill:#ffa500;stroke:#ffffff;stroke-width:0.25;" x="230.688852" xlink:href="#maeb432d164" y="189.5653"/>
     <use style="fill:#ffa500;stroke:#ffffff;stroke-width:0.25;" x="234.960622" xlink:href="#maeb432d164" y="189.534735"/>
     <use style="fill:#ffa500;stroke:#ffffff;stroke-width:0.25;" x="239.232392" xlink:href="#maeb432d164" y="189.443042"/>
     <use style="fill:#ffa500;stroke:#ffffff;stroke-width:0.25;" x="243.504163" xlink:href="#maeb432d164" y="189.29022"/>
     <use style="fill:#ffa500;stroke:#ffffff;stroke-width:0.25;" x="247.775933" xlink:href="#maeb432d164" y="189.167963"/>
     <use style="fill:#ffa500;stroke:#ffffff;stroke-width:0.25;" x="252.047703" xlink:href="#maeb432d164" y="188.770626"/>
     <use style="fill:#ffa500;stroke:#ffffff;stroke-width:0.25;" x="256.319474" xlink:href="#maeb432d164" y="188.58724"/>
     <use style="fill:#ffa500;stroke:#ffffff;stroke-width:0.25;" x="260.591244" xlink:href="#maeb432d164" y="188.251032"/>
     <use style="fill:#ffa500;stroke:#ffffff;stroke-width:0.25;" x="264.863014" xlink:href="#maeb432d164" y="187.975953"/>
     <use style="fill:#ffa500;stroke:#ffffff;stroke-width:0.25;" x="269.134785" xlink:href="#maeb432d164" y="187.364666"/>
     <use style="fill:#ffa500;stroke:#ffffff;stroke-width:0.25;" x="273.406555" xlink:href="#maeb432d164" y="187.028458"/>
     <use style="fill:#ffa500;stroke:#ffffff;stroke-width:0.25;" x="277.678325" xlink:href="#maeb432d164" y="186.845072"/>
     <use style="fill:#ffa500;stroke:#ffffff;stroke-width:0.25;" x="281.950096" xlink:href="#maeb432d164" y="186.142092"/>
     <use style="fill:#ffa500;stroke:#ffffff;stroke-width:0.25;" x="286.221866" xlink:href="#maeb432d164" y="185.714191"/>
     <use style="fill:#ffa500;stroke:#ffffff;stroke-width:0.25;" x="290.493636" xlink:href="#maeb432d164" y="184.552746"/>
     <use style="fill:#ffa500;stroke:#ffffff;stroke-width:0.25;" x="294.765407" xlink:href="#maeb432d164" y="183.024528"/>
     <use style="fill:#ffa500;stroke:#ffffff;stroke-width:0.25;" x="299.037177" xlink:href="#maeb432d164" y="180.395994"/>
     <use style="fill:#ffa500;stroke:#ffffff;stroke-width:0.25;" x="303.308947" xlink:href="#maeb432d164" y="178.378747"/>
     <use style="fill:#ffa500;stroke:#ffffff;stroke-width:0.25;" x="307.580718" xlink:href="#maeb432d164" y="175.230619"/>
     <use style="fill:#ffa500;stroke:#ffffff;stroke-width:0.25;" x="311.852488" xlink:href="#maeb432d164" y="174.099738"/>
     <use style="fill:#ffa500;stroke:#ffffff;stroke-width:0.25;" x="316.124258" xlink:href="#maeb432d164" y="170.401451"/>
     <use style="fill:#ffa500;stroke:#ffffff;stroke-width:0.25;" x="320.396029" xlink:href="#maeb432d164" y="168.261946"/>
     <use style="fill:#ffa500;stroke:#ffffff;stroke-width:0.25;" x="324.667799" xlink:href="#maeb432d164" y="163.37165"/>
     <use style="fill:#ffa500;stroke:#ffffff;stroke-width:0.25;" x="328.939569" xlink:href="#maeb432d164" y="160.315215"/>
     <use style="fill:#ffa500;stroke:#ffffff;stroke-width:0.25;" x="333.21134" xlink:href="#maeb432d164" y="159.184334"/>
     <use style="fill:#ffa500;stroke:#ffffff;stroke-width:0.25;" x="337.48311" xlink:href="#maeb432d164" y="152.246226"/>
     <use style="fill:#ffa500;stroke:#ffffff;stroke-width:0.25;" x="341.75488" xlink:href="#maeb432d164" y="147.783831"/>
     <use style="fill:#ffa500;stroke:#ffffff;stroke-width:0.25;" x="346.026651" xlink:href="#maeb432d164" y="129.414655"/>
     <use style="fill:#ffa500;stroke:#ffffff;stroke-width:0.25;" x="350.298421" xlink:href="#maeb432d164" y="112.757083"/>
     <use style="fill:#ffa500;stroke:#ffffff;stroke-width:0.25;" x="354.570191" xlink:href="#maeb432d164" y="112.023539"/>
     <use style="fill:#ffa500;stroke:#ffffff;stroke-width:0.25;" x="358.841962" xlink:href="#maeb432d164" y="96.282898"/>
     <use style="fill:#ffa500;stroke:#ffffff;stroke-width:0.25;" x="363.113732" xlink:href="#maeb432d164" y="80.817336"/>
     <use style="fill:#ffa500;stroke:#ffffff;stroke-width:0.25;" x="367.385502" xlink:href="#maeb432d164" y="44.445757"/>
     <use style="fill:#ffa500;stroke:#ffffff;stroke-width:0.25;" x="371.657273" xlink:href="#maeb432d164" y="28.154957"/>
    </g>
   </g>
   <g id="line2d_26">
    <path clip-path="url(#pad44ea610c)" d="M 47.002727 190.48223 
L 51.274498 190.48223 
L 55.546268 190.48223 
L 59.818038 190.48223 
L 64.089809 190.48223 
L 68.361579 190.48223 
L 72.633349 190.48223 
L 76.90512 190.48223 
L 81.17689 190.48223 
L 85.44866 190.48223 
L 89.720431 190.48223 
L 93.992201 190.48223 
L 98.263971 190.48223 
L 102.535742 190.48223 
L 106.807512 190.48223 
L 111.079282 190.48223 
L 115.351053 190.48223 
L 119.622823 190.48223 
L 123.894593 190.48223 
L 128.166364 190.48223 
L 132.438134 190.48223 
L 136.709904 190.48223 
L 140.981675 190.48223 
L 145.253445 190.48223 
L 149.525215 190.48223 
L 153.796986 190.390537 
L 158.068756 190.390537 
L 162.340526 190.390537 
L 166.612297 190.390537 
L 170.884067 190.390537 
L 175.155837 190.390537 
L 179.427608 190.390537 
L 183.699378 190.390537 
L 187.971148 190.390537 
L 192.242919 190.390537 
L 196.514689 190.390537 
L 200.786459 190.390537 
L 205.05823 190.390537 
L 209.33 190.390537 
L 213.60177 190.390537 
L 217.873541 190.390537 
L 222.145311 190.390537 
L 226.417081 190.390537 
L 230.688852 190.390537 
L 234.960622 190.390537 
L 239.232392 190.390537 
L 243.504163 190.390537 
L 247.775933 190.390537 
L 252.047703 190.359973 
L 256.319474 190.359973 
L 260.591244 190.359973 
L 264.863014 190.359973 
L 269.134785 190.359973 
L 273.406555 190.084894 
L 277.678325 190.084894 
L 281.950096 190.054329 
L 286.221866 190.054329 
L 290.493636 190.023765 
L 294.765407 189.870943 
L 299.037177 189.77925 
L 303.308947 189.656993 
L 307.580718 189.656993 
L 311.852488 189.259656 
L 316.124258 189.167963 
L 320.396029 189.106834 
L 324.667799 188.251032 
L 328.939569 187.914825 
L 333.21134 187.578617 
L 337.48311 187.364666 
L 341.75488 186.722815 
L 346.026651 185.958706 
L 350.298421 184.644439 
L 354.570191 184.613875 
L 358.841962 183.482994 
L 363.113732 183.482994 
L 367.385502 179.020598 
L 371.657273 177.614638 
" style="fill:none;stroke:#008000;stroke-linecap:round;stroke-width:2;"/>
    <defs>
     <path d="M -0 2.828427 
L 1.697056 0 
L 0 -2.828427 
L -1.697056 -0 
z
" id="mfd5c467dcc" style="stroke:#ffffff;stroke-linejoin:miter;stroke-width:0.25;"/>
    </defs>
    <g clip-path="url(#pad44ea610c)">
     <use style="fill:#008000;stroke:#ffffff;stroke-linejoin:miter;stroke-width:0.25;" x="47.002727" xlink:href="#mfd5c467dcc" y="190.48223"/>
     <use style="fill:#008000;stroke:#ffffff;stroke-linejoin:miter;stroke-width:0.25;" x="51.274498" xlink:href="#mfd5c467dcc" y="190.48223"/>
     <use style="fill:#008000;stroke:#ffffff;stroke-linejoin:miter;stroke-width:0.25;" x="55.546268" xlink:href="#mfd5c467dcc" y="190.48223"/>
     <use style="fill:#008000;stroke:#ffffff;stroke-linejoin:miter;stroke-width:0.25;" x="59.818038" xlink:href="#mfd5c467dcc" y="190.48223"/>
     <use style="fill:#008000;stroke:#ffffff;stroke-linejoin:miter;stroke-width:0.25;" x="64.089809" xlink:href="#mfd5c467dcc" y="190.48223"/>
     <use style="fill:#008000;stroke:#ffffff;stroke-linejoin:miter;stroke-width:0.25;" x="68.361579" xlink:href="#mfd5c467dcc" y="190.48223"/>
     <use style="fill:#008000;stroke:#ffffff;stroke-linejoin:miter;stroke-width:0.25;" x="72.633349" xlink:href="#mfd5c467dcc" y="190.48223"/>
     <use style="fill:#008000;stroke:#ffffff;stroke-linejoin:miter;stroke-width:0.25;" x="76.90512" xlink:href="#mfd5c467dcc" y="190.48223"/>
     <use style="fill:#008000;stroke:#ffffff;stroke-linejoin:miter;stroke-width:0.25;" x="81.17689" xlink:href="#mfd5c467dcc" y="190.48223"/>
     <use style="fill:#008000;stroke:#ffffff;stroke-linejoin:miter;stroke-width:0.25;" x="85.44866" xlink:href="#mfd5c467dcc" y="190.48223"/>
     <use style="fill:#008000;stroke:#ffffff;stroke-linejoin:miter;stroke-width:0.25;" x="89.720431" xlink:href="#mfd5c467dcc" y="190.48223"/>
     <use style="fill:#008000;stroke:#ffffff;stroke-linejoin:miter;stroke-width:0.25;" x="93.992201" xlink:href="#mfd5c467dcc" y="190.48223"/>
     <use style="fill:#008000;stroke:#ffffff;stroke-linejoin:miter;stroke-width:0.25;" x="98.263971" xlink:href="#mfd5c467dcc" y="190.48223"/>
     <use style="fill:#008000;stroke:#ffffff;stroke-linejoin:miter;stroke-width:0.25;" x="102.535742" xlink:href="#mfd5c467dcc" y="190.48223"/>
     <use style="fill:#008000;stroke:#ffffff;stroke-linejoin:miter;stroke-width:0.25;" x="106.807512" xlink:href="#mfd5c467dcc" y="190.48223"/>
     <use style="fill:#008000;stroke:#ffffff;stroke-linejoin:miter;stroke-width:0.25;" x="111.079282" xlink:href="#mfd5c467dcc" y="190.48223"/>
     <use style="fill:#008000;stroke:#ffffff;stroke-linejoin:miter;stroke-width:0.25;" x="115.351053" xlink:href="#mfd5c467dcc" y="190.48223"/>
     <use style="fill:#008000;stroke:#ffffff;stroke-linejoin:miter;stroke-width:0.25;" x="119.622823" xlink:href="#mfd5c467dcc" y="190.48223"/>
     <use style="fill:#008000;stroke:#ffffff;stroke-linejoin:miter;stroke-width:0.25;" x="123.894593" xlink:href="#mfd5c467dcc" y="190.48223"/>
     <use style="fill:#008000;stroke:#ffffff;stroke-linejoin:miter;stroke-width:0.25;" x="128.166364" xlink:href="#mfd5c467dcc" y="190.48223"/>
     <use style="fill:#008000;stroke:#ffffff;stroke-linejoin:miter;stroke-width:0.25;" x="132.438134" xlink:href="#mfd5c467dcc" y="190.48223"/>
     <use style="fill:#008000;stroke:#ffffff;stroke-linejoin:miter;stroke-width:0.25;" x="136.709904" xlink:href="#mfd5c467dcc" y="190.48223"/>
     <use style="fill:#008000;stroke:#ffffff;stroke-linejoin:miter;stroke-width:0.25;" x="140.981675" xlink:href="#mfd5c467dcc" y="190.48223"/>
     <use style="fill:#008000;stroke:#ffffff;stroke-linejoin:miter;stroke-width:0.25;" x="145.253445" xlink:href="#mfd5c467dcc" y="190.48223"/>
     <use style="fill:#008000;stroke:#ffffff;stroke-linejoin:miter;stroke-width:0.25;" x="149.525215" xlink:href="#mfd5c467dcc" y="190.48223"/>
     <use style="fill:#008000;stroke:#ffffff;stroke-linejoin:miter;stroke-width:0.25;" x="153.796986" xlink:href="#mfd5c467dcc" y="190.390537"/>
     <use style="fill:#008000;stroke:#ffffff;stroke-linejoin:miter;stroke-width:0.25;" x="158.068756" xlink:href="#mfd5c467dcc" y="190.390537"/>
     <use style="fill:#008000;stroke:#ffffff;stroke-linejoin:miter;stroke-width:0.25;" x="162.340526" xlink:href="#mfd5c467dcc" y="190.390537"/>
     <use style="fill:#008000;stroke:#ffffff;stroke-linejoin:miter;stroke-width:0.25;" x="166.612297" xlink:href="#mfd5c467dcc" y="190.390537"/>
     <use style="fill:#008000;stroke:#ffffff;stroke-linejoin:miter;stroke-width:0.25;" x="170.884067" xlink:href="#mfd5c467dcc" y="190.390537"/>
     <use style="fill:#008000;stroke:#ffffff;stroke-linejoin:miter;stroke-width:0.25;" x="175.155837" xlink:href="#mfd5c467dcc" y="190.390537"/>
     <use style="fill:#008000;stroke:#ffffff;stroke-linejoin:miter;stroke-width:0.25;" x="179.427608" xlink:href="#mfd5c467dcc" y="190.390537"/>
     <use style="fill:#008000;stroke:#ffffff;stroke-linejoin:miter;stroke-width:0.25;" x="183.699378" xlink:href="#mfd5c467dcc" y="190.390537"/>
     <use style="fill:#008000;stroke:#ffffff;stroke-linejoin:miter;stroke-width:0.25;" x="187.971148" xlink:href="#mfd5c467dcc" y="190.390537"/>
     <use style="fill:#008000;stroke:#ffffff;stroke-linejoin:miter;stroke-width:0.25;" x="192.242919" xlink:href="#mfd5c467dcc" y="190.390537"/>
     <use style="fill:#008000;stroke:#ffffff;stroke-linejoin:miter;stroke-width:0.25;" x="196.514689" xlink:href="#mfd5c467dcc" y="190.390537"/>
     <use style="fill:#008000;stroke:#ffffff;stroke-linejoin:miter;stroke-width:0.25;" x="200.786459" xlink:href="#mfd5c467dcc" y="190.390537"/>
     <use style="fill:#008000;stroke:#ffffff;stroke-linejoin:miter;stroke-width:0.25;" x="205.05823" xlink:href="#mfd5c467dcc" y="190.390537"/>
     <use style="fill:#008000;stroke:#ffffff;stroke-linejoin:miter;stroke-width:0.25;" x="209.33" xlink:href="#mfd5c467dcc" y="190.390537"/>
     <use style="fill:#008000;stroke:#ffffff;stroke-linejoin:miter;stroke-width:0.25;" x="213.60177" xlink:href="#mfd5c467dcc" y="190.390537"/>
     <use style="fill:#008000;stroke:#ffffff;stroke-linejoin:miter;stroke-width:0.25;" x="217.873541" xlink:href="#mfd5c467dcc" y="190.390537"/>
     <use style="fill:#008000;stroke:#ffffff;stroke-linejoin:miter;stroke-width:0.25;" x="222.145311" xlink:href="#mfd5c467dcc" y="190.390537"/>
     <use style="fill:#008000;stroke:#ffffff;stroke-linejoin:miter;stroke-width:0.25;" x="226.417081" xlink:href="#mfd5c467dcc" y="190.390537"/>
     <use style="fill:#008000;stroke:#ffffff;stroke-linejoin:miter;stroke-width:0.25;" x="230.688852" xlink:href="#mfd5c467dcc" y="190.390537"/>
     <use style="fill:#008000;stroke:#ffffff;stroke-linejoin:miter;stroke-width:0.25;" x="234.960622" xlink:href="#mfd5c467dcc" y="190.390537"/>
     <use style="fill:#008000;stroke:#ffffff;stroke-linejoin:miter;stroke-width:0.25;" x="239.232392" xlink:href="#mfd5c467dcc" y="190.390537"/>
     <use style="fill:#008000;stroke:#ffffff;stroke-linejoin:miter;stroke-width:0.25;" x="243.504163" xlink:href="#mfd5c467dcc" y="190.390537"/>
     <use style="fill:#008000;stroke:#ffffff;stroke-linejoin:miter;stroke-width:0.25;" x="247.775933" xlink:href="#mfd5c467dcc" y="190.390537"/>
     <use style="fill:#008000;stroke:#ffffff;stroke-linejoin:miter;stroke-width:0.25;" x="252.047703" xlink:href="#mfd5c467dcc" y="190.359973"/>
     <use style="fill:#008000;stroke:#ffffff;stroke-linejoin:miter;stroke-width:0.25;" x="256.319474" xlink:href="#mfd5c467dcc" y="190.359973"/>
     <use style="fill:#008000;stroke:#ffffff;stroke-linejoin:miter;stroke-width:0.25;" x="260.591244" xlink:href="#mfd5c467dcc" y="190.359973"/>
     <use style="fill:#008000;stroke:#ffffff;stroke-linejoin:miter;stroke-width:0.25;" x="264.863014" xlink:href="#mfd5c467dcc" y="190.359973"/>
     <use style="fill:#008000;stroke:#ffffff;stroke-linejoin:miter;stroke-width:0.25;" x="269.134785" xlink:href="#mfd5c467dcc" y="190.359973"/>
     <use style="fill:#008000;stroke:#ffffff;stroke-linejoin:miter;stroke-width:0.25;" x="273.406555" xlink:href="#mfd5c467dcc" y="190.084894"/>
     <use style="fill:#008000;stroke:#ffffff;stroke-linejoin:miter;stroke-width:0.25;" x="277.678325" xlink:href="#mfd5c467dcc" y="190.084894"/>
     <use style="fill:#008000;stroke:#ffffff;stroke-linejoin:miter;stroke-width:0.25;" x="281.950096" xlink:href="#mfd5c467dcc" y="190.054329"/>
     <use style="fill:#008000;stroke:#ffffff;stroke-linejoin:miter;stroke-width:0.25;" x="286.221866" xlink:href="#mfd5c467dcc" y="190.054329"/>
     <use style="fill:#008000;stroke:#ffffff;stroke-linejoin:miter;stroke-width:0.25;" x="290.493636" xlink:href="#mfd5c467dcc" y="190.023765"/>
     <use style="fill:#008000;stroke:#ffffff;stroke-linejoin:miter;stroke-width:0.25;" x="294.765407" xlink:href="#mfd5c467dcc" y="189.870943"/>
     <use style="fill:#008000;stroke:#ffffff;stroke-linejoin:miter;stroke-width:0.25;" x="299.037177" xlink:href="#mfd5c467dcc" y="189.77925"/>
     <use style="fill:#008000;stroke:#ffffff;stroke-linejoin:miter;stroke-width:0.25;" x="303.308947" xlink:href="#mfd5c467dcc" y="189.656993"/>
     <use style="fill:#008000;stroke:#ffffff;stroke-linejoin:miter;stroke-width:0.25;" x="307.580718" xlink:href="#mfd5c467dcc" y="189.656993"/>
     <use style="fill:#008000;stroke:#ffffff;stroke-linejoin:miter;stroke-width:0.25;" x="311.852488" xlink:href="#mfd5c467dcc" y="189.259656"/>
     <use style="fill:#008000;stroke:#ffffff;stroke-linejoin:miter;stroke-width:0.25;" x="316.124258" xlink:href="#mfd5c467dcc" y="189.167963"/>
     <use style="fill:#008000;stroke:#ffffff;stroke-linejoin:miter;stroke-width:0.25;" x="320.396029" xlink:href="#mfd5c467dcc" y="189.106834"/>
     <use style="fill:#008000;stroke:#ffffff;stroke-linejoin:miter;stroke-width:0.25;" x="324.667799" xlink:href="#mfd5c467dcc" y="188.251032"/>
     <use style="fill:#008000;stroke:#ffffff;stroke-linejoin:miter;stroke-width:0.25;" x="328.939569" xlink:href="#mfd5c467dcc" y="187.914825"/>
     <use style="fill:#008000;stroke:#ffffff;stroke-linejoin:miter;stroke-width:0.25;" x="333.21134" xlink:href="#mfd5c467dcc" y="187.578617"/>
     <use style="fill:#008000;stroke:#ffffff;stroke-linejoin:miter;stroke-width:0.25;" x="337.48311" xlink:href="#mfd5c467dcc" y="187.364666"/>
     <use style="fill:#008000;stroke:#ffffff;stroke-linejoin:miter;stroke-width:0.25;" x="341.75488" xlink:href="#mfd5c467dcc" y="186.722815"/>
     <use style="fill:#008000;stroke:#ffffff;stroke-linejoin:miter;stroke-width:0.25;" x="346.026651" xlink:href="#mfd5c467dcc" y="185.958706"/>
     <use style="fill:#008000;stroke:#ffffff;stroke-linejoin:miter;stroke-width:0.25;" x="350.298421" xlink:href="#mfd5c467dcc" y="184.644439"/>
     <use style="fill:#008000;stroke:#ffffff;stroke-linejoin:miter;stroke-width:0.25;" x="354.570191" xlink:href="#mfd5c467dcc" y="184.613875"/>
     <use style="fill:#008000;stroke:#ffffff;stroke-linejoin:miter;stroke-width:0.25;" x="358.841962" xlink:href="#mfd5c467dcc" y="183.482994"/>
     <use style="fill:#008000;stroke:#ffffff;stroke-linejoin:miter;stroke-width:0.25;" x="363.113732" xlink:href="#mfd5c467dcc" y="183.482994"/>
     <use style="fill:#008000;stroke:#ffffff;stroke-linejoin:miter;stroke-width:0.25;" x="367.385502" xlink:href="#mfd5c467dcc" y="179.020598"/>
     <use style="fill:#008000;stroke:#ffffff;stroke-linejoin:miter;stroke-width:0.25;" x="371.657273" xlink:href="#mfd5c467dcc" y="177.614638"/>
    </g>
   </g>
   <g id="line2d_27">
    <path clip-path="url(#pad44ea610c)" d="M 47.002727 190.48223 
L 51.274498 190.48223 
L 55.546268 190.48223 
L 59.818038 190.48223 
L 64.089809 190.48223 
L 68.361579 190.48223 
L 72.633349 190.48223 
L 76.90512 190.48223 
L 81.17689 190.48223 
L 85.44866 190.48223 
L 89.720431 190.48223 
L 93.992201 190.48223 
L 98.263971 190.48223 
L 102.535742 190.48223 
L 106.807512 190.48223 
L 111.079282 190.48223 
L 115.351053 190.48223 
L 119.622823 190.48223 
L 123.894593 190.48223 
L 128.166364 190.48223 
L 132.438134 190.48223 
L 136.709904 190.48223 
L 140.981675 190.48223 
L 145.253445 190.48223 
L 149.525215 190.48223 
L 153.796986 190.48223 
L 158.068756 190.48223 
L 162.340526 190.48223 
L 166.612297 190.48223 
L 170.884067 190.48223 
L 175.155837 190.48223 
L 179.427608 190.48223 
L 183.699378 190.48223 
L 187.971148 190.48223 
L 192.242919 190.48223 
L 196.514689 190.48223 
L 200.786459 190.48223 
L 205.05823 190.48223 
L 209.33 190.48223 
L 213.60177 190.48223 
L 217.873541 190.48223 
L 222.145311 190.48223 
L 226.417081 190.48223 
L 230.688852 190.48223 
L 234.960622 190.48223 
L 239.232392 190.48223 
L 243.504163 190.48223 
L 247.775933 190.48223 
L 252.047703 190.48223 
L 256.319474 190.451666 
L 260.591244 190.451666 
L 264.863014 190.421101 
L 269.134785 190.421101 
L 273.406555 190.421101 
L 277.678325 190.421101 
L 281.950096 190.390537 
L 286.221866 190.390537 
L 290.493636 190.359973 
L 294.765407 190.329408 
L 299.037177 190.359973 
L 303.308947 190.26828 
L 307.580718 190.176587 
L 311.852488 190.176587 
L 316.124258 190.115458 
L 320.396029 189.870943 
L 324.667799 189.870943 
L 328.939569 189.748686 
L 333.21134 189.656993 
L 337.48311 189.504171 
L 341.75488 189.412478 
L 346.026651 188.709498 
L 350.298421 188.281597 
L 354.570191 188.281597 
L 358.841962 187.853696 
L 363.113732 187.456359 
L 367.385502 186.325478 
L 371.657273 185.897577 
" style="fill:none;stroke:#ff0000;stroke-linecap:round;stroke-width:2;"/>
    <defs>
     <path d="M -1 2 
L 0 1 
L 1 2 
L 2 1 
L 1 0 
L 2 -1 
L 1 -2 
L 0 -1 
L -1 -2 
L -2 -1 
L -1 0 
L -2 1 
z
" id="mdf942c27a5" style="stroke:#ffffff;stroke-linejoin:miter;stroke-width:0.25;"/>
    </defs>
    <g clip-path="url(#pad44ea610c)">
     <use style="fill:#ff0000;stroke:#ffffff;stroke-linejoin:miter;stroke-width:0.25;" x="47.002727" xlink:href="#mdf942c27a5" y="190.48223"/>
     <use style="fill:#ff0000;stroke:#ffffff;stroke-linejoin:miter;stroke-width:0.25;" x="51.274498" xlink:href="#mdf942c27a5" y="190.48223"/>
     <use style="fill:#ff0000;stroke:#ffffff;stroke-linejoin:miter;stroke-width:0.25;" x="55.546268" xlink:href="#mdf942c27a5" y="190.48223"/>
     <use style="fill:#ff0000;stroke:#ffffff;stroke-linejoin:miter;stroke-width:0.25;" x="59.818038" xlink:href="#mdf942c27a5" y="190.48223"/>
     <use style="fill:#ff0000;stroke:#ffffff;stroke-linejoin:miter;stroke-width:0.25;" x="64.089809" xlink:href="#mdf942c27a5" y="190.48223"/>
     <use style="fill:#ff0000;stroke:#ffffff;stroke-linejoin:miter;stroke-width:0.25;" x="68.361579" xlink:href="#mdf942c27a5" y="190.48223"/>
     <use style="fill:#ff0000;stroke:#ffffff;stroke-linejoin:miter;stroke-width:0.25;" x="72.633349" xlink:href="#mdf942c27a5" y="190.48223"/>
     <use style="fill:#ff0000;stroke:#ffffff;stroke-linejoin:miter;stroke-width:0.25;" x="76.90512" xlink:href="#mdf942c27a5" y="190.48223"/>
     <use style="fill:#ff0000;stroke:#ffffff;stroke-linejoin:miter;stroke-width:0.25;" x="81.17689" xlink:href="#mdf942c27a5" y="190.48223"/>
     <use style="fill:#ff0000;stroke:#ffffff;stroke-linejoin:miter;stroke-width:0.25;" x="85.44866" xlink:href="#mdf942c27a5" y="190.48223"/>
     <use style="fill:#ff0000;stroke:#ffffff;stroke-linejoin:miter;stroke-width:0.25;" x="89.720431" xlink:href="#mdf942c27a5" y="190.48223"/>
     <use style="fill:#ff0000;stroke:#ffffff;stroke-linejoin:miter;stroke-width:0.25;" x="93.992201" xlink:href="#mdf942c27a5" y="190.48223"/>
     <use style="fill:#ff0000;stroke:#ffffff;stroke-linejoin:miter;stroke-width:0.25;" x="98.263971" xlink:href="#mdf942c27a5" y="190.48223"/>
     <use style="fill:#ff0000;stroke:#ffffff;stroke-linejoin:miter;stroke-width:0.25;" x="102.535742" xlink:href="#mdf942c27a5" y="190.48223"/>
     <use style="fill:#ff0000;stroke:#ffffff;stroke-linejoin:miter;stroke-width:0.25;" x="106.807512" xlink:href="#mdf942c27a5" y="190.48223"/>
     <use style="fill:#ff0000;stroke:#ffffff;stroke-linejoin:miter;stroke-width:0.25;" x="111.079282" xlink:href="#mdf942c27a5" y="190.48223"/>
     <use style="fill:#ff0000;stroke:#ffffff;stroke-linejoin:miter;stroke-width:0.25;" x="115.351053" xlink:href="#mdf942c27a5" y="190.48223"/>
     <use style="fill:#ff0000;stroke:#ffffff;stroke-linejoin:miter;stroke-width:0.25;" x="119.622823" xlink:href="#mdf942c27a5" y="190.48223"/>
     <use style="fill:#ff0000;stroke:#ffffff;stroke-linejoin:miter;stroke-width:0.25;" x="123.894593" xlink:href="#mdf942c27a5" y="190.48223"/>
     <use style="fill:#ff0000;stroke:#ffffff;stroke-linejoin:miter;stroke-width:0.25;" x="128.166364" xlink:href="#mdf942c27a5" y="190.48223"/>
     <use style="fill:#ff0000;stroke:#ffffff;stroke-linejoin:miter;stroke-width:0.25;" x="132.438134" xlink:href="#mdf942c27a5" y="190.48223"/>
     <use style="fill:#ff0000;stroke:#ffffff;stroke-linejoin:miter;stroke-width:0.25;" x="136.709904" xlink:href="#mdf942c27a5" y="190.48223"/>
     <use style="fill:#ff0000;stroke:#ffffff;stroke-linejoin:miter;stroke-width:0.25;" x="140.981675" xlink:href="#mdf942c27a5" y="190.48223"/>
     <use style="fill:#ff0000;stroke:#ffffff;stroke-linejoin:miter;stroke-width:0.25;" x="145.253445" xlink:href="#mdf942c27a5" y="190.48223"/>
     <use style="fill:#ff0000;stroke:#ffffff;stroke-linejoin:miter;stroke-width:0.25;" x="149.525215" xlink:href="#mdf942c27a5" y="190.48223"/>
     <use style="fill:#ff0000;stroke:#ffffff;stroke-linejoin:miter;stroke-width:0.25;" x="153.796986" xlink:href="#mdf942c27a5" y="190.48223"/>
     <use style="fill:#ff0000;stroke:#ffffff;stroke-linejoin:miter;stroke-width:0.25;" x="158.068756" xlink:href="#mdf942c27a5" y="190.48223"/>
     <use style="fill:#ff0000;stroke:#ffffff;stroke-linejoin:miter;stroke-width:0.25;" x="162.340526" xlink:href="#mdf942c27a5" y="190.48223"/>
     <use style="fill:#ff0000;stroke:#ffffff;stroke-linejoin:miter;stroke-width:0.25;" x="166.612297" xlink:href="#mdf942c27a5" y="190.48223"/>
     <use style="fill:#ff0000;stroke:#ffffff;stroke-linejoin:miter;stroke-width:0.25;" x="170.884067" xlink:href="#mdf942c27a5" y="190.48223"/>
     <use style="fill:#ff0000;stroke:#ffffff;stroke-linejoin:miter;stroke-width:0.25;" x="175.155837" xlink:href="#mdf942c27a5" y="190.48223"/>
     <use style="fill:#ff0000;stroke:#ffffff;stroke-linejoin:miter;stroke-width:0.25;" x="179.427608" xlink:href="#mdf942c27a5" y="190.48223"/>
     <use style="fill:#ff0000;stroke:#ffffff;stroke-linejoin:miter;stroke-width:0.25;" x="183.699378" xlink:href="#mdf942c27a5" y="190.48223"/>
     <use style="fill:#ff0000;stroke:#ffffff;stroke-linejoin:miter;stroke-width:0.25;" x="187.971148" xlink:href="#mdf942c27a5" y="190.48223"/>
     <use style="fill:#ff0000;stroke:#ffffff;stroke-linejoin:miter;stroke-width:0.25;" x="192.242919" xlink:href="#mdf942c27a5" y="190.48223"/>
     <use style="fill:#ff0000;stroke:#ffffff;stroke-linejoin:miter;stroke-width:0.25;" x="196.514689" xlink:href="#mdf942c27a5" y="190.48223"/>
     <use style="fill:#ff0000;stroke:#ffffff;stroke-linejoin:miter;stroke-width:0.25;" x="200.786459" xlink:href="#mdf942c27a5" y="190.48223"/>
     <use style="fill:#ff0000;stroke:#ffffff;stroke-linejoin:miter;stroke-width:0.25;" x="205.05823" xlink:href="#mdf942c27a5" y="190.48223"/>
     <use style="fill:#ff0000;stroke:#ffffff;stroke-linejoin:miter;stroke-width:0.25;" x="209.33" xlink:href="#mdf942c27a5" y="190.48223"/>
     <use style="fill:#ff0000;stroke:#ffffff;stroke-linejoin:miter;stroke-width:0.25;" x="213.60177" xlink:href="#mdf942c27a5" y="190.48223"/>
     <use style="fill:#ff0000;stroke:#ffffff;stroke-linejoin:miter;stroke-width:0.25;" x="217.873541" xlink:href="#mdf942c27a5" y="190.48223"/>
     <use style="fill:#ff0000;stroke:#ffffff;stroke-linejoin:miter;stroke-width:0.25;" x="222.145311" xlink:href="#mdf942c27a5" y="190.48223"/>
     <use style="fill:#ff0000;stroke:#ffffff;stroke-linejoin:miter;stroke-width:0.25;" x="226.417081" xlink:href="#mdf942c27a5" y="190.48223"/>
     <use style="fill:#ff0000;stroke:#ffffff;stroke-linejoin:miter;stroke-width:0.25;" x="230.688852" xlink:href="#mdf942c27a5" y="190.48223"/>
     <use style="fill:#ff0000;stroke:#ffffff;stroke-linejoin:miter;stroke-width:0.25;" x="234.960622" xlink:href="#mdf942c27a5" y="190.48223"/>
     <use style="fill:#ff0000;stroke:#ffffff;stroke-linejoin:miter;stroke-width:0.25;" x="239.232392" xlink:href="#mdf942c27a5" y="190.48223"/>
     <use style="fill:#ff0000;stroke:#ffffff;stroke-linejoin:miter;stroke-width:0.25;" x="243.504163" xlink:href="#mdf942c27a5" y="190.48223"/>
     <use style="fill:#ff0000;stroke:#ffffff;stroke-linejoin:miter;stroke-width:0.25;" x="247.775933" xlink:href="#mdf942c27a5" y="190.48223"/>
     <use style="fill:#ff0000;stroke:#ffffff;stroke-linejoin:miter;stroke-width:0.25;" x="252.047703" xlink:href="#mdf942c27a5" y="190.48223"/>
     <use style="fill:#ff0000;stroke:#ffffff;stroke-linejoin:miter;stroke-width:0.25;" x="256.319474" xlink:href="#mdf942c27a5" y="190.451666"/>
     <use style="fill:#ff0000;stroke:#ffffff;stroke-linejoin:miter;stroke-width:0.25;" x="260.591244" xlink:href="#mdf942c27a5" y="190.451666"/>
     <use style="fill:#ff0000;stroke:#ffffff;stroke-linejoin:miter;stroke-width:0.25;" x="264.863014" xlink:href="#mdf942c27a5" y="190.421101"/>
     <use style="fill:#ff0000;stroke:#ffffff;stroke-linejoin:miter;stroke-width:0.25;" x="269.134785" xlink:href="#mdf942c27a5" y="190.421101"/>
     <use style="fill:#ff0000;stroke:#ffffff;stroke-linejoin:miter;stroke-width:0.25;" x="273.406555" xlink:href="#mdf942c27a5" y="190.421101"/>
     <use style="fill:#ff0000;stroke:#ffffff;stroke-linejoin:miter;stroke-width:0.25;" x="277.678325" xlink:href="#mdf942c27a5" y="190.421101"/>
     <use style="fill:#ff0000;stroke:#ffffff;stroke-linejoin:miter;stroke-width:0.25;" x="281.950096" xlink:href="#mdf942c27a5" y="190.390537"/>
     <use style="fill:#ff0000;stroke:#ffffff;stroke-linejoin:miter;stroke-width:0.25;" x="286.221866" xlink:href="#mdf942c27a5" y="190.390537"/>
     <use style="fill:#ff0000;stroke:#ffffff;stroke-linejoin:miter;stroke-width:0.25;" x="290.493636" xlink:href="#mdf942c27a5" y="190.359973"/>
     <use style="fill:#ff0000;stroke:#ffffff;stroke-linejoin:miter;stroke-width:0.25;" x="294.765407" xlink:href="#mdf942c27a5" y="190.329408"/>
     <use style="fill:#ff0000;stroke:#ffffff;stroke-linejoin:miter;stroke-width:0.25;" x="299.037177" xlink:href="#mdf942c27a5" y="190.359973"/>
     <use style="fill:#ff0000;stroke:#ffffff;stroke-linejoin:miter;stroke-width:0.25;" x="303.308947" xlink:href="#mdf942c27a5" y="190.26828"/>
     <use style="fill:#ff0000;stroke:#ffffff;stroke-linejoin:miter;stroke-width:0.25;" x="307.580718" xlink:href="#mdf942c27a5" y="190.176587"/>
     <use style="fill:#ff0000;stroke:#ffffff;stroke-linejoin:miter;stroke-width:0.25;" x="311.852488" xlink:href="#mdf942c27a5" y="190.176587"/>
     <use style="fill:#ff0000;stroke:#ffffff;stroke-linejoin:miter;stroke-width:0.25;" x="316.124258" xlink:href="#mdf942c27a5" y="190.115458"/>
     <use style="fill:#ff0000;stroke:#ffffff;stroke-linejoin:miter;stroke-width:0.25;" x="320.396029" xlink:href="#mdf942c27a5" y="189.870943"/>
     <use style="fill:#ff0000;stroke:#ffffff;stroke-linejoin:miter;stroke-width:0.25;" x="324.667799" xlink:href="#mdf942c27a5" y="189.870943"/>
     <use style="fill:#ff0000;stroke:#ffffff;stroke-linejoin:miter;stroke-width:0.25;" x="328.939569" xlink:href="#mdf942c27a5" y="189.748686"/>
     <use style="fill:#ff0000;stroke:#ffffff;stroke-linejoin:miter;stroke-width:0.25;" x="333.21134" xlink:href="#mdf942c27a5" y="189.656993"/>
     <use style="fill:#ff0000;stroke:#ffffff;stroke-linejoin:miter;stroke-width:0.25;" x="337.48311" xlink:href="#mdf942c27a5" y="189.504171"/>
     <use style="fill:#ff0000;stroke:#ffffff;stroke-linejoin:miter;stroke-width:0.25;" x="341.75488" xlink:href="#mdf942c27a5" y="189.412478"/>
     <use style="fill:#ff0000;stroke:#ffffff;stroke-linejoin:miter;stroke-width:0.25;" x="346.026651" xlink:href="#mdf942c27a5" y="188.709498"/>
     <use style="fill:#ff0000;stroke:#ffffff;stroke-linejoin:miter;stroke-width:0.25;" x="350.298421" xlink:href="#mdf942c27a5" y="188.281597"/>
     <use style="fill:#ff0000;stroke:#ffffff;stroke-linejoin:miter;stroke-width:0.25;" x="354.570191" xlink:href="#mdf942c27a5" y="188.281597"/>
     <use style="fill:#ff0000;stroke:#ffffff;stroke-linejoin:miter;stroke-width:0.25;" x="358.841962" xlink:href="#mdf942c27a5" y="187.853696"/>
     <use style="fill:#ff0000;stroke:#ffffff;stroke-linejoin:miter;stroke-width:0.25;" x="363.113732" xlink:href="#mdf942c27a5" y="187.456359"/>
     <use style="fill:#ff0000;stroke:#ffffff;stroke-linejoin:miter;stroke-width:0.25;" x="367.385502" xlink:href="#mdf942c27a5" y="186.325478"/>
     <use style="fill:#ff0000;stroke:#ffffff;stroke-linejoin:miter;stroke-width:0.25;" x="371.657273" xlink:href="#mdf942c27a5" y="185.897577"/>
    </g>
   </g>
   <g id="line2d_28"/>
   <g id="line2d_29"/>
   <g id="line2d_30"/>
   <g id="line2d_31"/>
   <g id="line2d_32">
    <path clip-path="url(#pad44ea610c)" d="M 30.77 28.154957 
L 387.89 28.154957 
" style="fill:none;stroke:#4c72b0;stroke-dasharray:0.5,0.825;stroke-dashoffset:0;stroke-width:0.5;"/>
   </g>
   <g id="line2d_33">
    <path clip-path="url(#pad44ea610c)" d="M 30.77 185.897577 
L 387.89 185.897577 
" style="fill:none;stroke:#4c72b0;stroke-dasharray:0.5,0.825;stroke-dashoffset:0;stroke-width:0.5;"/>
   </g>
   <g id="line2d_34">
    <path clip-path="url(#pad44ea610c)" d="M 30.77 177.614638 
L 387.89 177.614638 
" style="fill:none;stroke:#4c72b0;stroke-dasharray:0.5,0.825;stroke-dashoffset:0;stroke-width:0.5;"/>
   </g>
   <g id="line2d_35">
    <path clip-path="url(#pad44ea610c)" d="M 371.657273 198.598594 
L 371.657273 20.038594 
" style="fill:none;stroke:#4c72b0;stroke-dasharray:0.5,0.825;stroke-dashoffset:0;stroke-width:0.5;"/>
   </g>
   <g id="patch_3">
    <path d="M 30.77 198.598594 
L 30.77 20.038594 
" style="fill:none;stroke:#262626;stroke-linecap:square;stroke-linejoin:miter;"/>
   </g>
   <g id="patch_4">
    <path d="M 387.89 198.598594 
L 387.89 20.038594 
" style="fill:none;stroke:#262626;stroke-linecap:square;stroke-linejoin:miter;"/>
   </g>
   <g id="patch_5">
    <path d="M 30.77 198.598594 
L 387.89 198.598594 
" style="fill:none;stroke:#262626;stroke-linecap:square;stroke-linejoin:miter;"/>
   </g>
   <g id="patch_6">
    <path d="M 30.77 20.038594 
L 387.89 20.038594 
" style="fill:none;stroke:#262626;stroke-linecap:square;stroke-linejoin:miter;"/>
   </g>
   <g id="text_13">
    <!-- 5311 -->
    <g style="fill:#ff0000;" transform="translate(34.3412 26.491207)scale(0.08 -0.08)">
     <use xlink:href="#DejaVuSans-53"/>
     <use x="63.623047" xlink:href="#DejaVuSans-51"/>
     <use x="127.246094" xlink:href="#DejaVuSans-49"/>
     <use x="190.869141" xlink:href="#DejaVuSans-49"/>
    </g>
   </g>
   <g id="text_14">
    <!-- 150 -->
    <g style="fill:#ff0000;" transform="translate(34.3412 184.233827)scale(0.08 -0.08)">
     <use xlink:href="#DejaVuSans-49"/>
     <use x="63.623047" xlink:href="#DejaVuSans-53"/>
     <use x="127.246094" xlink:href="#DejaVuSans-48"/>
    </g>
   </g>
   <g id="text_15">
    <!-- 421 -->
    <g style="fill:#008000;" transform="translate(34.3412 175.950888)scale(0.08 -0.08)">
     <use xlink:href="#DejaVuSans-52"/>
     <use x="63.623047" xlink:href="#DejaVuSans-50"/>
     <use x="127.246094" xlink:href="#DejaVuSans-49"/>
    </g>
   </g>
   <g id="text_16">
    <!-- COVID-19 Cases, Recoveries &amp; Deaths Graph -->
    <defs>
     <path d="M 64.40625 67.28125 
L 64.40625 56.890625 
Q 59.421875 61.53125 53.78125 63.8125 
Q 48.140625 66.109375 41.796875 66.109375 
Q 29.296875 66.109375 22.65625 58.46875 
Q 16.015625 50.828125 16.015625 36.375 
Q 16.015625 21.96875 22.65625 14.328125 
Q 29.296875 6.6875 41.796875 6.6875 
Q 48.140625 6.6875 53.78125 8.984375 
Q 59.421875 11.28125 64.40625 15.921875 
L 64.40625 5.609375 
Q 59.234375 2.09375 53.4375 0.328125 
Q 47.65625 -1.421875 41.21875 -1.421875 
Q 24.65625 -1.421875 15.125 8.703125 
Q 5.609375 18.84375 5.609375 36.375 
Q 5.609375 53.953125 15.125 64.078125 
Q 24.65625 74.21875 41.21875 74.21875 
Q 47.75 74.21875 53.53125 72.484375 
Q 59.328125 70.75 64.40625 67.28125 
z
" id="DejaVuSans-67"/>
     <path d="M 39.40625 66.21875 
Q 28.65625 66.21875 22.328125 58.203125 
Q 16.015625 50.203125 16.015625 36.375 
Q 16.015625 22.609375 22.328125 14.59375 
Q 28.65625 6.59375 39.40625 6.59375 
Q 50.140625 6.59375 56.421875 14.59375 
Q 62.703125 22.609375 62.703125 36.375 
Q 62.703125 50.203125 56.421875 58.203125 
Q 50.140625 66.21875 39.40625 66.21875 
z
M 39.40625 74.21875 
Q 54.734375 74.21875 63.90625 63.9375 
Q 73.09375 53.65625 73.09375 36.375 
Q 73.09375 19.140625 63.90625 8.859375 
Q 54.734375 -1.421875 39.40625 -1.421875 
Q 24.03125 -1.421875 14.8125 8.828125 
Q 5.609375 19.09375 5.609375 36.375 
Q 5.609375 53.65625 14.8125 63.9375 
Q 24.03125 74.21875 39.40625 74.21875 
z
" id="DejaVuSans-79"/>
     <path d="M 28.609375 0 
L 0.78125 72.90625 
L 11.078125 72.90625 
L 34.1875 11.53125 
L 57.328125 72.90625 
L 67.578125 72.90625 
L 39.796875 0 
z
" id="DejaVuSans-86"/>
     <path d="M 9.8125 72.90625 
L 19.671875 72.90625 
L 19.671875 0 
L 9.8125 0 
z
" id="DejaVuSans-73"/>
     <path d="M 19.671875 64.796875 
L 19.671875 8.109375 
L 31.59375 8.109375 
Q 46.6875 8.109375 53.6875 14.9375 
Q 60.6875 21.78125 60.6875 36.53125 
Q 60.6875 51.171875 53.6875 57.984375 
Q 46.6875 64.796875 31.59375 64.796875 
z
M 9.8125 72.90625 
L 30.078125 72.90625 
Q 51.265625 72.90625 61.171875 64.09375 
Q 71.09375 55.28125 71.09375 36.53125 
Q 71.09375 17.671875 61.125 8.828125 
Q 51.171875 0 30.078125 0 
L 9.8125 0 
z
" id="DejaVuSans-68"/>
     <path d="M 4.890625 31.390625 
L 31.203125 31.390625 
L 31.203125 23.390625 
L 4.890625 23.390625 
z
" id="DejaVuSans-45"/>
     <path d="M 10.984375 1.515625 
L 10.984375 10.5 
Q 14.703125 8.734375 18.5 7.8125 
Q 22.3125 6.890625 25.984375 6.890625 
Q 35.75 6.890625 40.890625 13.453125 
Q 46.046875 20.015625 46.78125 33.40625 
Q 43.953125 29.203125 39.59375 26.953125 
Q 35.25 24.703125 29.984375 24.703125 
Q 19.046875 24.703125 12.671875 31.3125 
Q 6.296875 37.9375 6.296875 49.421875 
Q 6.296875 60.640625 12.9375 67.421875 
Q 19.578125 74.21875 30.609375 74.21875 
Q 43.265625 74.21875 49.921875 64.515625 
Q 56.59375 54.828125 56.59375 36.375 
Q 56.59375 19.140625 48.40625 8.859375 
Q 40.234375 -1.421875 26.421875 -1.421875 
Q 22.703125 -1.421875 18.890625 -0.6875 
Q 15.09375 0.046875 10.984375 1.515625 
z
M 30.609375 32.421875 
Q 37.25 32.421875 41.125 36.953125 
Q 45.015625 41.5 45.015625 49.421875 
Q 45.015625 57.28125 41.125 61.84375 
Q 37.25 66.40625 30.609375 66.40625 
Q 23.96875 66.40625 20.09375 61.84375 
Q 16.21875 57.28125 16.21875 49.421875 
Q 16.21875 41.5 20.09375 36.953125 
Q 23.96875 32.421875 30.609375 32.421875 
z
" id="DejaVuSans-57"/>
     <path d="M 44.28125 53.078125 
L 44.28125 44.578125 
Q 40.484375 46.53125 36.375 47.5 
Q 32.28125 48.484375 27.875 48.484375 
Q 21.1875 48.484375 17.84375 46.4375 
Q 14.5 44.390625 14.5 40.28125 
Q 14.5 37.15625 16.890625 35.375 
Q 19.28125 33.59375 26.515625 31.984375 
L 29.59375 31.296875 
Q 39.15625 29.25 43.1875 25.515625 
Q 47.21875 21.78125 47.21875 15.09375 
Q 47.21875 7.46875 41.1875 3.015625 
Q 35.15625 -1.421875 24.609375 -1.421875 
Q 20.21875 -1.421875 15.453125 -0.5625 
Q 10.6875 0.296875 5.421875 2 
L 5.421875 11.28125 
Q 10.40625 8.6875 15.234375 7.390625 
Q 20.0625 6.109375 24.8125 6.109375 
Q 31.15625 6.109375 34.5625 8.28125 
Q 37.984375 10.453125 37.984375 14.40625 
Q 37.984375 18.0625 35.515625 20.015625 
Q 33.0625 21.96875 24.703125 23.78125 
L 21.578125 24.515625 
Q 13.234375 26.265625 9.515625 29.90625 
Q 5.8125 33.546875 5.8125 39.890625 
Q 5.8125 47.609375 11.28125 51.796875 
Q 16.75 56 26.8125 56 
Q 31.78125 56 36.171875 55.265625 
Q 40.578125 54.546875 44.28125 53.078125 
z
" id="DejaVuSans-115"/>
     <path d="M 11.71875 12.40625 
L 22.015625 12.40625 
L 22.015625 4 
L 14.015625 -11.625 
L 7.71875 -11.625 
L 11.71875 4 
z
" id="DejaVuSans-44"/>
     <path d="M 44.390625 34.1875 
Q 47.5625 33.109375 50.5625 29.59375 
Q 53.5625 26.078125 56.59375 19.921875 
L 66.609375 0 
L 56 0 
L 46.6875 18.703125 
Q 43.0625 26.03125 39.671875 28.421875 
Q 36.28125 30.8125 30.421875 30.8125 
L 19.671875 30.8125 
L 19.671875 0 
L 9.8125 0 
L 9.8125 72.90625 
L 32.078125 72.90625 
Q 44.578125 72.90625 50.734375 67.671875 
Q 56.890625 62.453125 56.890625 51.90625 
Q 56.890625 45.015625 53.6875 40.46875 
Q 50.484375 35.9375 44.390625 34.1875 
z
M 19.671875 64.796875 
L 19.671875 38.921875 
L 32.078125 38.921875 
Q 39.203125 38.921875 42.84375 42.21875 
Q 46.484375 45.515625 46.484375 51.90625 
Q 46.484375 58.296875 42.84375 61.546875 
Q 39.203125 64.796875 32.078125 64.796875 
z
" id="DejaVuSans-82"/>
     <path d="M 48.78125 52.59375 
L 48.78125 44.1875 
Q 44.96875 46.296875 41.140625 47.34375 
Q 37.3125 48.390625 33.40625 48.390625 
Q 24.65625 48.390625 19.8125 42.84375 
Q 14.984375 37.3125 14.984375 27.296875 
Q 14.984375 17.28125 19.8125 11.734375 
Q 24.65625 6.203125 33.40625 6.203125 
Q 37.3125 6.203125 41.140625 7.25 
Q 44.96875 8.296875 48.78125 10.40625 
L 48.78125 2.09375 
Q 45.015625 0.34375 40.984375 -0.53125 
Q 36.96875 -1.421875 32.421875 -1.421875 
Q 20.0625 -1.421875 12.78125 6.34375 
Q 5.515625 14.109375 5.515625 27.296875 
Q 5.515625 40.671875 12.859375 48.328125 
Q 20.21875 56 33.015625 56 
Q 37.15625 56 41.109375 55.140625 
Q 45.0625 54.296875 48.78125 52.59375 
z
" id="DejaVuSans-99"/>
     <path d="M 30.609375 48.390625 
Q 23.390625 48.390625 19.1875 42.75 
Q 14.984375 37.109375 14.984375 27.296875 
Q 14.984375 17.484375 19.15625 11.84375 
Q 23.34375 6.203125 30.609375 6.203125 
Q 37.796875 6.203125 41.984375 11.859375 
Q 46.1875 17.53125 46.1875 27.296875 
Q 46.1875 37.015625 41.984375 42.703125 
Q 37.796875 48.390625 30.609375 48.390625 
z
M 30.609375 56 
Q 42.328125 56 49.015625 48.375 
Q 55.71875 40.765625 55.71875 27.296875 
Q 55.71875 13.875 49.015625 6.21875 
Q 42.328125 -1.421875 30.609375 -1.421875 
Q 18.84375 -1.421875 12.171875 6.21875 
Q 5.515625 13.875 5.515625 27.296875 
Q 5.515625 40.765625 12.171875 48.375 
Q 18.84375 56 30.609375 56 
z
" id="DejaVuSans-111"/>
     <path d="M 2.984375 54.6875 
L 12.5 54.6875 
L 29.59375 8.796875 
L 46.6875 54.6875 
L 56.203125 54.6875 
L 35.6875 0 
L 23.484375 0 
z
" id="DejaVuSans-118"/>
     <path d="M 9.421875 54.6875 
L 18.40625 54.6875 
L 18.40625 0 
L 9.421875 0 
z
M 9.421875 75.984375 
L 18.40625 75.984375 
L 18.40625 64.59375 
L 9.421875 64.59375 
z
" id="DejaVuSans-105"/>
     <path d="M 24.3125 39.203125 
Q 19.875 35.25 17.796875 31.3125 
Q 15.71875 27.390625 15.71875 23.09375 
Q 15.71875 15.96875 20.890625 11.234375 
Q 26.078125 6.5 33.890625 6.5 
Q 38.53125 6.5 42.578125 8.03125 
Q 46.625 9.578125 50.203125 12.703125 
z
M 31.203125 44.671875 
L 56 19.28125 
Q 58.890625 23.640625 60.5 28.59375 
Q 62.109375 33.546875 62.40625 39.109375 
L 71.484375 39.109375 
Q 70.90625 32.671875 68.359375 26.359375 
Q 65.828125 20.0625 61.28125 13.921875 
L 74.90625 0 
L 62.59375 0 
L 55.609375 7.171875 
Q 50.53125 2.828125 44.96875 0.703125 
Q 39.40625 -1.421875 33.015625 -1.421875 
Q 21.234375 -1.421875 13.765625 5.296875 
Q 6.296875 12.015625 6.296875 22.515625 
Q 6.296875 28.765625 9.5625 34.25 
Q 12.84375 39.75 19.390625 44.578125 
Q 17.046875 47.65625 15.8125 50.703125 
Q 14.59375 53.765625 14.59375 56.6875 
Q 14.59375 64.59375 20.015625 69.40625 
Q 25.4375 74.21875 34.421875 74.21875 
Q 38.484375 74.21875 42.5 73.34375 
Q 46.53125 72.46875 50.6875 70.703125 
L 50.6875 61.8125 
Q 46.4375 64.109375 42.578125 65.296875 
Q 38.71875 66.5 35.40625 66.5 
Q 30.28125 66.5 27.078125 63.78125 
Q 23.875 61.078125 23.875 56.78125 
Q 23.875 54.296875 25.3125 51.78125 
Q 26.765625 49.265625 31.203125 44.671875 
z
" id="DejaVuSans-38"/>
     <path d="M 18.3125 70.21875 
L 18.3125 54.6875 
L 36.8125 54.6875 
L 36.8125 47.703125 
L 18.3125 47.703125 
L 18.3125 18.015625 
Q 18.3125 11.328125 20.140625 9.421875 
Q 21.96875 7.515625 27.59375 7.515625 
L 36.8125 7.515625 
L 36.8125 0 
L 27.59375 0 
Q 17.1875 0 13.234375 3.875 
Q 9.28125 7.765625 9.28125 18.015625 
L 9.28125 47.703125 
L 2.6875 47.703125 
L 2.6875 54.6875 
L 9.28125 54.6875 
L 9.28125 70.21875 
z
" id="DejaVuSans-116"/>
     <path d="M 54.890625 33.015625 
L 54.890625 0 
L 45.90625 0 
L 45.90625 32.71875 
Q 45.90625 40.484375 42.875 44.328125 
Q 39.84375 48.1875 33.796875 48.1875 
Q 26.515625 48.1875 22.3125 43.546875 
Q 18.109375 38.921875 18.109375 30.90625 
L 18.109375 0 
L 9.078125 0 
L 9.078125 75.984375 
L 18.109375 75.984375 
L 18.109375 46.1875 
Q 21.34375 51.125 25.703125 53.5625 
Q 30.078125 56 35.796875 56 
Q 45.21875 56 50.046875 50.171875 
Q 54.890625 44.34375 54.890625 33.015625 
z
" id="DejaVuSans-104"/>
     <path d="M 59.515625 10.40625 
L 59.515625 29.984375 
L 43.40625 29.984375 
L 43.40625 38.09375 
L 69.28125 38.09375 
L 69.28125 6.78125 
Q 63.578125 2.734375 56.6875 0.65625 
Q 49.8125 -1.421875 42 -1.421875 
Q 24.90625 -1.421875 15.25 8.5625 
Q 5.609375 18.5625 5.609375 36.375 
Q 5.609375 54.25 15.25 64.234375 
Q 24.90625 74.21875 42 74.21875 
Q 49.125 74.21875 55.546875 72.453125 
Q 61.96875 70.703125 67.390625 67.28125 
L 67.390625 56.78125 
Q 61.921875 61.421875 55.765625 63.765625 
Q 49.609375 66.109375 42.828125 66.109375 
Q 29.4375 66.109375 22.71875 58.640625 
Q 16.015625 51.171875 16.015625 36.375 
Q 16.015625 21.625 22.71875 14.15625 
Q 29.4375 6.6875 42.828125 6.6875 
Q 48.046875 6.6875 52.140625 7.59375 
Q 56.25 8.5 59.515625 10.40625 
z
" id="DejaVuSans-71"/>
    </defs>
    <g style="fill:#262626;" transform="translate(107.734766 14.038594)scale(0.09 -0.09)">
     <use xlink:href="#DejaVuSans-67"/>
     <use x="69.824219" xlink:href="#DejaVuSans-79"/>
     <use x="146.785156" xlink:href="#DejaVuSans-86"/>
     <use x="215.193359" xlink:href="#DejaVuSans-73"/>
     <use x="244.685547" xlink:href="#DejaVuSans-68"/>
     <use x="321.6875" xlink:href="#DejaVuSans-45"/>
     <use x="357.771484" xlink:href="#DejaVuSans-49"/>
     <use x="421.394531" xlink:href="#DejaVuSans-57"/>
     <use x="485.017578" xlink:href="#DejaVuSans-32"/>
     <use x="516.804688" xlink:href="#DejaVuSans-67"/>
     <use x="586.628906" xlink:href="#DejaVuSans-97"/>
     <use x="647.908203" xlink:href="#DejaVuSans-115"/>
     <use x="700.007812" xlink:href="#DejaVuSans-101"/>
     <use x="761.53125" xlink:href="#DejaVuSans-115"/>
     <use x="813.630859" xlink:href="#DejaVuSans-44"/>
     <use x="845.417969" xlink:href="#DejaVuSans-32"/>
     <use x="877.205078" xlink:href="#DejaVuSans-82"/>
     <use x="942.1875" xlink:href="#DejaVuSans-101"/>
     <use x="1003.710938" xlink:href="#DejaVuSans-99"/>
     <use x="1058.691406" xlink:href="#DejaVuSans-111"/>
     <use x="1119.873047" xlink:href="#DejaVuSans-118"/>
     <use x="1179.052734" xlink:href="#DejaVuSans-101"/>
     <use x="1240.576172" xlink:href="#DejaVuSans-114"/>
     <use x="1281.689453" xlink:href="#DejaVuSans-105"/>
     <use x="1309.472656" xlink:href="#DejaVuSans-101"/>
     <use x="1370.996094" xlink:href="#DejaVuSans-115"/>
     <use x="1423.095703" xlink:href="#DejaVuSans-32"/>
     <use x="1454.882812" xlink:href="#DejaVuSans-38"/>
     <use x="1532.861328" xlink:href="#DejaVuSans-32"/>
     <use x="1564.648438" xlink:href="#DejaVuSans-68"/>
     <use x="1641.650391" xlink:href="#DejaVuSans-101"/>
     <use x="1703.173828" xlink:href="#DejaVuSans-97"/>
     <use x="1764.453125" xlink:href="#DejaVuSans-116"/>
     <use x="1803.662109" xlink:href="#DejaVuSans-104"/>
     <use x="1867.041016" xlink:href="#DejaVuSans-115"/>
     <use x="1919.140625" xlink:href="#DejaVuSans-32"/>
     <use x="1950.927734" xlink:href="#DejaVuSans-71"/>
     <use x="2028.417969" xlink:href="#DejaVuSans-114"/>
     <use x="2069.53125" xlink:href="#DejaVuSans-97"/>
     <use x="2130.810547" xlink:href="#DejaVuSans-112"/>
     <use x="2194.287109" xlink:href="#DejaVuSans-104"/>
    </g>
   </g>
   <g id="legend_1">
    <g id="line2d_36">
     <path d="M 38.69 95.750094 
L 56.29 95.750094 
" style="fill:none;stroke:#ffa500;stroke-linecap:round;stroke-width:2;"/>
    </g>
    <g id="line2d_37">
     <g>
      <use style="fill:#ffa500;stroke:#ffffff;stroke-width:0.25;" x="47.49" xlink:href="#maeb432d164" y="95.750094"/>
     </g>
    </g>
    <g id="text_17">
     <!-- Confirmed Cases -->
     <defs>
      <path d="M 54.890625 33.015625 
L 54.890625 0 
L 45.90625 0 
L 45.90625 32.71875 
Q 45.90625 40.484375 42.875 44.328125 
Q 39.84375 48.1875 33.796875 48.1875 
Q 26.515625 48.1875 22.3125 43.546875 
Q 18.109375 38.921875 18.109375 30.90625 
L 18.109375 0 
L 9.078125 0 
L 9.078125 54.6875 
L 18.109375 54.6875 
L 18.109375 46.1875 
Q 21.34375 51.125 25.703125 53.5625 
Q 30.078125 56 35.796875 56 
Q 45.21875 56 50.046875 50.171875 
Q 54.890625 44.34375 54.890625 33.015625 
z
" id="DejaVuSans-110"/>
      <path d="M 37.109375 75.984375 
L 37.109375 68.5 
L 28.515625 68.5 
Q 23.6875 68.5 21.796875 66.546875 
Q 19.921875 64.59375 19.921875 59.515625 
L 19.921875 54.6875 
L 34.71875 54.6875 
L 34.71875 47.703125 
L 19.921875 47.703125 
L 19.921875 0 
L 10.890625 0 
L 10.890625 47.703125 
L 2.296875 47.703125 
L 2.296875 54.6875 
L 10.890625 54.6875 
L 10.890625 58.5 
Q 10.890625 67.625 15.140625 71.796875 
Q 19.390625 75.984375 28.609375 75.984375 
z
" id="DejaVuSans-102"/>
      <path d="M 52 44.1875 
Q 55.375 50.25 60.0625 53.125 
Q 64.75 56 71.09375 56 
Q 79.640625 56 84.28125 50.015625 
Q 88.921875 44.046875 88.921875 33.015625 
L 88.921875 0 
L 79.890625 0 
L 79.890625 32.71875 
Q 79.890625 40.578125 77.09375 44.375 
Q 74.3125 48.1875 68.609375 48.1875 
Q 61.625 48.1875 57.5625 43.546875 
Q 53.515625 38.921875 53.515625 30.90625 
L 53.515625 0 
L 44.484375 0 
L 44.484375 32.71875 
Q 44.484375 40.625 41.703125 44.40625 
Q 38.921875 48.1875 33.109375 48.1875 
Q 26.21875 48.1875 22.15625 43.53125 
Q 18.109375 38.875 18.109375 30.90625 
L 18.109375 0 
L 9.078125 0 
L 9.078125 54.6875 
L 18.109375 54.6875 
L 18.109375 46.1875 
Q 21.1875 51.21875 25.484375 53.609375 
Q 29.78125 56 35.6875 56 
Q 41.65625 56 45.828125 52.96875 
Q 50 49.953125 52 44.1875 
z
" id="DejaVuSans-109"/>
      <path d="M 45.40625 46.390625 
L 45.40625 75.984375 
L 54.390625 75.984375 
L 54.390625 0 
L 45.40625 0 
L 45.40625 8.203125 
Q 42.578125 3.328125 38.25 0.953125 
Q 33.9375 -1.421875 27.875 -1.421875 
Q 17.96875 -1.421875 11.734375 6.484375 
Q 5.515625 14.40625 5.515625 27.296875 
Q 5.515625 40.1875 11.734375 48.09375 
Q 17.96875 56 27.875 56 
Q 33.9375 56 38.25 53.625 
Q 42.578125 51.265625 45.40625 46.390625 
z
M 14.796875 27.296875 
Q 14.796875 17.390625 18.875 11.75 
Q 22.953125 6.109375 30.078125 6.109375 
Q 37.203125 6.109375 41.296875 11.75 
Q 45.40625 17.390625 45.40625 27.296875 
Q 45.40625 37.203125 41.296875 42.84375 
Q 37.203125 48.484375 30.078125 48.484375 
Q 22.953125 48.484375 18.875 42.84375 
Q 14.796875 37.203125 14.796875 27.296875 
z
" id="DejaVuSans-100"/>
     </defs>
     <g style="fill:#262626;" transform="translate(63.33 98.830094)scale(0.088 -0.088)">
      <use xlink:href="#DejaVuSans-67"/>
      <use x="69.824219" xlink:href="#DejaVuSans-111"/>
      <use x="131.005859" xlink:href="#DejaVuSans-110"/>
      <use x="194.384766" xlink:href="#DejaVuSans-102"/>
      <use x="229.589844" xlink:href="#DejaVuSans-105"/>
      <use x="257.373047" xlink:href="#DejaVuSans-114"/>
      <use x="296.736328" xlink:href="#DejaVuSans-109"/>
      <use x="394.148438" xlink:href="#DejaVuSans-101"/>
      <use x="455.671875" xlink:href="#DejaVuSans-100"/>
      <use x="519.148438" xlink:href="#DejaVuSans-32"/>
      <use x="550.935547" xlink:href="#DejaVuSans-67"/>
      <use x="620.759766" xlink:href="#DejaVuSans-97"/>
      <use x="682.039062" xlink:href="#DejaVuSans-115"/>
      <use x="734.138672" xlink:href="#DejaVuSans-101"/>
      <use x="795.662109" xlink:href="#DejaVuSans-115"/>
     </g>
    </g>
    <g id="line2d_38">
     <path d="M 38.69 108.666844 
L 56.29 108.666844 
" style="fill:none;stroke:#008000;stroke-linecap:round;stroke-width:2;"/>
    </g>
    <g id="line2d_39">
     <g>
      <use style="fill:#008000;stroke:#ffffff;stroke-linejoin:miter;stroke-width:0.25;" x="47.49" xlink:href="#mfd5c467dcc" y="108.666844"/>
     </g>
    </g>
    <g id="text_18">
     <!-- Recoveries -->
     <g style="fill:#262626;" transform="translate(63.33 111.746844)scale(0.088 -0.088)">
      <use xlink:href="#DejaVuSans-82"/>
      <use x="64.982422" xlink:href="#DejaVuSans-101"/>
      <use x="126.505859" xlink:href="#DejaVuSans-99"/>
      <use x="181.486328" xlink:href="#DejaVuSans-111"/>
      <use x="242.667969" xlink:href="#DejaVuSans-118"/>
      <use x="301.847656" xlink:href="#DejaVuSans-101"/>
      <use x="363.371094" xlink:href="#DejaVuSans-114"/>
      <use x="404.484375" xlink:href="#DejaVuSans-105"/>
      <use x="432.267578" xlink:href="#DejaVuSans-101"/>
      <use x="493.791016" xlink:href="#DejaVuSans-115"/>
     </g>
    </g>
    <g id="line2d_40">
     <path d="M 38.69 121.583594 
L 56.29 121.583594 
" style="fill:none;stroke:#ff0000;stroke-linecap:round;stroke-width:2;"/>
    </g>
    <g id="line2d_41">
     <g>
      <use style="fill:#ff0000;stroke:#ffffff;stroke-linejoin:miter;stroke-width:0.25;" x="47.49" xlink:href="#mdf942c27a5" y="121.583594"/>
     </g>
    </g>
    <g id="text_19">
     <!-- Deaths -->
     <g style="fill:#262626;" transform="translate(63.33 124.663594)scale(0.088 -0.088)">
      <use xlink:href="#DejaVuSans-68"/>
      <use x="77.001953" xlink:href="#DejaVuSans-101"/>
      <use x="138.525391" xlink:href="#DejaVuSans-97"/>
      <use x="199.804688" xlink:href="#DejaVuSans-116"/>
      <use x="239.013672" xlink:href="#DejaVuSans-104"/>
      <use x="302.392578" xlink:href="#DejaVuSans-115"/>
     </g>
    </g>
   </g>
  </g>
 </g>
 <defs>
  <clipPath id="pad44ea610c">
   <rect height="178.56" width="357.12" x="30.77" y="20.038594"/>
  </clipPath>
 </defs>
</svg>
