<?xml version="1.0" encoding="utf-8" standalone="no"?>
<!DOCTYPE svg PUBLIC "-//W3C//DTD SVG 1.1//EN"
  "http://www.w3.org/Graphics/SVG/1.1/DTD/svg11.dtd">
<!-- Created with matplotlib (https://matplotlib.org/) -->
<svg height="234.762378pt" version="1.1" viewBox="0 0 376.32 234.762378" width="376.32pt" xmlns="http://www.w3.org/2000/svg" xmlns:xlink="http://www.w3.org/1999/xlink">
 <defs>
  <style type="text/css">
*{stroke-linecap:butt;stroke-linejoin:round;}
  </style>
 </defs>
 <g id="figure_1">
  <g id="patch_1">
   <path d="M 0 234.762378 
L 376.32 234.762378 
L 376.32 0 
L 0 0 
z
" style="fill:#ffffff;"/>
  </g>
  <g id="axes_1">
   <g id="patch_2">
    <path d="M 12 198.598594 
L 369.12 198.598594 
L 369.12 20.038594 
L 12 20.038594 
z
" style="fill:#ffffff;"/>
   </g>
   <g id="matplotlib.axis_1">
    <g id="xtick_1">
     <g id="line2d_1">
      <path clip-path="url(#p788f4a91ff)" d="M 66.42738 198.598594 
L 66.42738 20.038594 
" style="fill:none;stroke:#f3f3f3;stroke-dasharray:0.5,0.825;stroke-dashoffset:0;stroke-width:0.5;"/>
     </g>
     <g id="line2d_2">
      <defs>
       <path d="M 0 0 
L 0 -3 
" id="m34045cac85" style="stroke:#262626;stroke-width:0.5;"/>
      </defs>
      <g>
       <use style="fill:#262626;stroke:#262626;stroke-width:0.5;" x="66.42738" xlink:href="#m34045cac85" y="198.598594"/>
      </g>
     </g>
     <g id="text_1">
      <!-- 01 Feb 20 -->
      <defs>
       <path d="M 31.78125 66.40625 
Q 24.171875 66.40625 20.328125 58.90625 
Q 16.5 51.421875 16.5 36.375 
Q 16.5 21.390625 20.328125 13.890625 
Q 24.171875 6.390625 31.78125 6.390625 
Q 39.453125 6.390625 43.28125 13.890625 
Q 47.125 21.390625 47.125 36.375 
Q 47.125 51.421875 43.28125 58.90625 
Q 39.453125 66.40625 31.78125 66.40625 
z
M 31.78125 74.21875 
Q 44.046875 74.21875 50.515625 64.515625 
Q 56.984375 54.828125 56.984375 36.375 
Q 56.984375 17.96875 50.515625 8.265625 
Q 44.046875 -1.421875 31.78125 -1.421875 
Q 19.53125 -1.421875 13.0625 8.265625 
Q 6.59375 17.96875 6.59375 36.375 
Q 6.59375 54.828125 13.0625 64.515625 
Q 19.53125 74.21875 31.78125 74.21875 
z
" id="DejaVuSans-48"/>
       <path d="M 12.40625 8.296875 
L 28.515625 8.296875 
L 28.515625 63.921875 
L 10.984375 60.40625 
L 10.984375 69.390625 
L 28.421875 72.90625 
L 38.28125 72.90625 
L 38.28125 8.296875 
L 54.390625 8.296875 
L 54.390625 0 
L 12.40625 0 
z
" id="DejaVuSans-49"/>
       <path id="DejaVuSans-32"/>
       <path d="M 9.8125 72.90625 
L 51.703125 72.90625 
L 51.703125 64.59375 
L 19.671875 64.59375 
L 19.671875 43.109375 
L 48.578125 43.109375 
L 48.578125 34.8125 
L 19.671875 34.8125 
L 19.671875 0 
L 9.8125 0 
z
" id="DejaVuSans-70"/>
       <path d="M 56.203125 29.59375 
L 56.203125 25.203125 
L 14.890625 25.203125 
Q 15.484375 15.921875 20.484375 11.0625 
Q 25.484375 6.203125 34.421875 6.203125 
Q 39.59375 6.203125 44.453125 7.46875 
Q 49.3125 8.734375 54.109375 11.28125 
L 54.109375 2.78125 
Q 49.265625 0.734375 44.1875 -0.34375 
Q 39.109375 -1.421875 33.890625 -1.421875 
Q 20.796875 -1.421875 13.15625 6.1875 
Q 5.515625 13.8125 5.515625 26.8125 
Q 5.515625 40.234375 12.765625 48.109375 
Q 20.015625 56 32.328125 56 
Q 43.359375 56 49.78125 48.890625 
Q 56.203125 41.796875 56.203125 29.59375 
z
M 47.21875 32.234375 
Q 47.125 39.59375 43.09375 43.984375 
Q 39.0625 48.390625 32.421875 48.390625 
Q 24.90625 48.390625 20.390625 44.140625 
Q 15.875 39.890625 15.1875 32.171875 
z
" id="DejaVuSans-101"/>
       <path d="M 48.6875 27.296875 
Q 48.6875 37.203125 44.609375 42.84375 
Q 40.53125 48.484375 33.40625 48.484375 
Q 26.265625 48.484375 22.1875 42.84375 
Q 18.109375 37.203125 18.109375 27.296875 
Q 18.109375 17.390625 22.1875 11.75 
Q 26.265625 6.109375 33.40625 6.109375 
Q 40.53125 6.109375 44.609375 11.75 
Q 48.6875 17.390625 48.6875 27.296875 
z
M 18.109375 46.390625 
Q 20.953125 51.265625 25.265625 53.625 
Q 29.59375 56 35.59375 56 
Q 45.5625 56 51.78125 48.09375 
Q 58.015625 40.1875 58.015625 27.296875 
Q 58.015625 14.40625 51.78125 6.484375 
Q 45.5625 -1.421875 35.59375 -1.421875 
Q 29.59375 -1.421875 25.265625 0.953125 
Q 20.953125 3.328125 18.109375 8.203125 
L 18.109375 0 
L 9.078125 0 
L 9.078125 75.984375 
L 18.109375 75.984375 
z
" id="DejaVuSans-98"/>
       <path d="M 19.1875 8.296875 
L 53.609375 8.296875 
L 53.609375 0 
L 7.328125 0 
L 7.328125 8.296875 
Q 12.9375 14.109375 22.625 23.890625 
Q 32.328125 33.6875 34.8125 36.53125 
Q 39.546875 41.84375 41.421875 45.53125 
Q 43.3125 49.21875 43.3125 52.78125 
Q 43.3125 58.59375 39.234375 62.25 
Q 35.15625 65.921875 28.609375 65.921875 
Q 23.96875 65.921875 18.8125 64.3125 
Q 13.671875 62.703125 7.8125 59.421875 
L 7.8125 69.390625 
Q 13.765625 71.78125 18.9375 73 
Q 24.125 74.21875 28.421875 74.21875 
Q 39.75 74.21875 46.484375 68.546875 
Q 53.21875 62.890625 53.21875 53.421875 
Q 53.21875 48.921875 51.53125 44.890625 
Q 49.859375 40.875 45.40625 35.40625 
Q 44.1875 33.984375 37.640625 27.21875 
Q 31.109375 20.453125 19.1875 8.296875 
z
" id="DejaVuSans-50"/>
      </defs>
      <g style="fill:#262626;" transform="translate(63.490561 226.6598)rotate(-70)scale(0.05 -0.05)">
       <use xlink:href="#DejaVuSans-48"/>
       <use x="63.623047" xlink:href="#DejaVuSans-49"/>
       <use x="127.246094" xlink:href="#DejaVuSans-32"/>
       <use x="159.033203" xlink:href="#DejaVuSans-70"/>
       <use x="211.052734" xlink:href="#DejaVuSans-101"/>
       <use x="272.576172" xlink:href="#DejaVuSans-98"/>
       <use x="336.052734" xlink:href="#DejaVuSans-32"/>
       <use x="367.839844" xlink:href="#DejaVuSans-50"/>
       <use x="431.462891" xlink:href="#DejaVuSans-48"/>
      </g>
     </g>
    </g>
    <g id="xtick_2">
     <g id="line2d_3">
      <path clip-path="url(#p788f4a91ff)" d="M 119.899893 198.598594 
L 119.899893 20.038594 
" style="fill:none;stroke:#f3f3f3;stroke-dasharray:0.5,0.825;stroke-dashoffset:0;stroke-width:0.5;"/>
     </g>
     <g id="line2d_4">
      <g>
       <use style="fill:#262626;stroke:#262626;stroke-width:0.5;" x="119.899893" xlink:href="#m34045cac85" y="198.598594"/>
      </g>
     </g>
     <g id="text_2">
      <!-- 15 Feb 20 -->
      <defs>
       <path d="M 10.796875 72.90625 
L 49.515625 72.90625 
L 49.515625 64.59375 
L 19.828125 64.59375 
L 19.828125 46.734375 
Q 21.96875 47.46875 24.109375 47.828125 
Q 26.265625 48.1875 28.421875 48.1875 
Q 40.625 48.1875 47.75 41.5 
Q 54.890625 34.8125 54.890625 23.390625 
Q 54.890625 11.625 47.5625 5.09375 
Q 40.234375 -1.421875 26.90625 -1.421875 
Q 22.3125 -1.421875 17.546875 -0.640625 
Q 12.796875 0.140625 7.71875 1.703125 
L 7.71875 11.625 
Q 12.109375 9.234375 16.796875 8.0625 
Q 21.484375 6.890625 26.703125 6.890625 
Q 35.15625 6.890625 40.078125 11.328125 
Q 45.015625 15.765625 45.015625 23.390625 
Q 45.015625 31 40.078125 35.4375 
Q 35.15625 39.890625 26.703125 39.890625 
Q 22.75 39.890625 18.8125 39.015625 
Q 14.890625 38.140625 10.796875 36.28125 
z
" id="DejaVuSans-53"/>
      </defs>
      <g style="fill:#262626;" transform="translate(116.963074 226.6598)rotate(-70)scale(0.05 -0.05)">
       <use xlink:href="#DejaVuSans-49"/>
       <use x="63.623047" xlink:href="#DejaVuSans-53"/>
       <use x="127.246094" xlink:href="#DejaVuSans-32"/>
       <use x="159.033203" xlink:href="#DejaVuSans-70"/>
       <use x="211.052734" xlink:href="#DejaVuSans-101"/>
       <use x="272.576172" xlink:href="#DejaVuSans-98"/>
       <use x="336.052734" xlink:href="#DejaVuSans-32"/>
       <use x="367.839844" xlink:href="#DejaVuSans-50"/>
       <use x="431.462891" xlink:href="#DejaVuSans-48"/>
      </g>
     </g>
    </g>
    <g id="xtick_3">
     <g id="line2d_5">
      <path clip-path="url(#p788f4a91ff)" d="M 177.191872 198.598594 
L 177.191872 20.038594 
" style="fill:none;stroke:#f3f3f3;stroke-dasharray:0.5,0.825;stroke-dashoffset:0;stroke-width:0.5;"/>
     </g>
     <g id="line2d_6">
      <g>
       <use style="fill:#262626;stroke:#262626;stroke-width:0.5;" x="177.191872" xlink:href="#m34045cac85" y="198.598594"/>
      </g>
     </g>
     <g id="text_3">
      <!-- 01 Mar 20 -->
      <defs>
       <path d="M 9.8125 72.90625 
L 24.515625 72.90625 
L 43.109375 23.296875 
L 61.8125 72.90625 
L 76.515625 72.90625 
L 76.515625 0 
L 66.890625 0 
L 66.890625 64.015625 
L 48.09375 14.015625 
L 38.1875 14.015625 
L 19.390625 64.015625 
L 19.390625 0 
L 9.8125 0 
z
" id="DejaVuSans-77"/>
       <path d="M 34.28125 27.484375 
Q 23.390625 27.484375 19.1875 25 
Q 14.984375 22.515625 14.984375 16.5 
Q 14.984375 11.71875 18.140625 8.90625 
Q 21.296875 6.109375 26.703125 6.109375 
Q 34.1875 6.109375 38.703125 11.40625 
Q 43.21875 16.703125 43.21875 25.484375 
L 43.21875 27.484375 
z
M 52.203125 31.203125 
L 52.203125 0 
L 43.21875 0 
L 43.21875 8.296875 
Q 40.140625 3.328125 35.546875 0.953125 
Q 30.953125 -1.421875 24.3125 -1.421875 
Q 15.921875 -1.421875 10.953125 3.296875 
Q 6 8.015625 6 15.921875 
Q 6 25.140625 12.171875 29.828125 
Q 18.359375 34.515625 30.609375 34.515625 
L 43.21875 34.515625 
L 43.21875 35.40625 
Q 43.21875 41.609375 39.140625 45 
Q 35.0625 48.390625 27.6875 48.390625 
Q 23 48.390625 18.546875 47.265625 
Q 14.109375 46.140625 10.015625 43.890625 
L 10.015625 52.203125 
Q 14.9375 54.109375 19.578125 55.046875 
Q 24.21875 56 28.609375 56 
Q 40.484375 56 46.34375 49.84375 
Q 52.203125 43.703125 52.203125 31.203125 
z
" id="DejaVuSans-97"/>
       <path d="M 41.109375 46.296875 
Q 39.59375 47.171875 37.8125 47.578125 
Q 36.03125 48 33.890625 48 
Q 26.265625 48 22.1875 43.046875 
Q 18.109375 38.09375 18.109375 28.8125 
L 18.109375 0 
L 9.078125 0 
L 9.078125 54.6875 
L 18.109375 54.6875 
L 18.109375 46.1875 
Q 20.953125 51.171875 25.484375 53.578125 
Q 30.03125 56 36.53125 56 
Q 37.453125 56 38.578125 55.875 
Q 39.703125 55.765625 41.0625 55.515625 
z
" id="DejaVuSans-114"/>
      </defs>
      <g style="fill:#262626;" transform="translate(174.15552 227.206731)rotate(-70)scale(0.05 -0.05)">
       <use xlink:href="#DejaVuSans-48"/>
       <use x="63.623047" xlink:href="#DejaVuSans-49"/>
       <use x="127.246094" xlink:href="#DejaVuSans-32"/>
       <use x="159.033203" xlink:href="#DejaVuSans-77"/>
       <use x="245.3125" xlink:href="#DejaVuSans-97"/>
       <use x="306.591797" xlink:href="#DejaVuSans-114"/>
       <use x="347.705078" xlink:href="#DejaVuSans-32"/>
       <use x="379.492188" xlink:href="#DejaVuSans-50"/>
       <use x="443.115234" xlink:href="#DejaVuSans-48"/>
      </g>
     </g>
    </g>
    <g id="xtick_4">
     <g id="line2d_7">
      <path clip-path="url(#p788f4a91ff)" d="M 230.664385 198.598594 
L 230.664385 20.038594 
" style="fill:none;stroke:#f3f3f3;stroke-dasharray:0.5,0.825;stroke-dashoffset:0;stroke-width:0.5;"/>
     </g>
     <g id="line2d_8">
      <g>
       <use style="fill:#262626;stroke:#262626;stroke-width:0.5;" x="230.664385" xlink:href="#m34045cac85" y="198.598594"/>
      </g>
     </g>
     <g id="text_4">
      <!-- 15 Mar 20 -->
      <g style="fill:#262626;" transform="translate(227.628033 227.206731)rotate(-70)scale(0.05 -0.05)">
       <use xlink:href="#DejaVuSans-49"/>
       <use x="63.623047" xlink:href="#DejaVuSans-53"/>
       <use x="127.246094" xlink:href="#DejaVuSans-32"/>
       <use x="159.033203" xlink:href="#DejaVuSans-77"/>
       <use x="245.3125" xlink:href="#DejaVuSans-97"/>
       <use x="306.591797" xlink:href="#DejaVuSans-114"/>
       <use x="347.705078" xlink:href="#DejaVuSans-32"/>
       <use x="379.492188" xlink:href="#DejaVuSans-50"/>
       <use x="443.115234" xlink:href="#DejaVuSans-48"/>
      </g>
     </g>
    </g>
    <g id="xtick_5">
     <g id="line2d_9">
      <path clip-path="url(#p788f4a91ff)" d="M 295.595294 198.598594 
L 295.595294 20.038594 
" style="fill:none;stroke:#f3f3f3;stroke-dasharray:0.5,0.825;stroke-dashoffset:0;stroke-width:0.5;"/>
     </g>
     <g id="line2d_10">
      <g>
       <use style="fill:#262626;stroke:#262626;stroke-width:0.5;" x="295.595294" xlink:href="#m34045cac85" y="198.598594"/>
      </g>
     </g>
     <g id="text_5">
      <!-- 01 Apr 20 -->
      <defs>
       <path d="M 34.1875 63.1875 
L 20.796875 26.90625 
L 47.609375 26.90625 
z
M 28.609375 72.90625 
L 39.796875 72.90625 
L 67.578125 0 
L 57.328125 0 
L 50.6875 18.703125 
L 17.828125 18.703125 
L 11.1875 0 
L 0.78125 0 
z
" id="DejaVuSans-65"/>
       <path d="M 18.109375 8.203125 
L 18.109375 -20.796875 
L 9.078125 -20.796875 
L 9.078125 54.6875 
L 18.109375 54.6875 
L 18.109375 46.390625 
Q 20.953125 51.265625 25.265625 53.625 
Q 29.59375 56 35.59375 56 
Q 45.5625 56 51.78125 48.09375 
Q 58.015625 40.1875 58.015625 27.296875 
Q 58.015625 14.40625 51.78125 6.484375 
Q 45.5625 -1.421875 35.59375 -1.421875 
Q 29.59375 -1.421875 25.265625 0.953125 
Q 20.953125 3.328125 18.109375 8.203125 
z
M 48.6875 27.296875 
Q 48.6875 37.203125 44.609375 42.84375 
Q 40.53125 48.484375 33.40625 48.484375 
Q 26.265625 48.484375 22.1875 42.84375 
Q 18.109375 37.203125 18.109375 27.296875 
Q 18.109375 17.390625 22.1875 11.75 
Q 26.265625 6.109375 33.40625 6.109375 
Q 40.53125 6.109375 44.609375 11.75 
Q 48.6875 17.390625 48.6875 27.296875 
z
" id="DejaVuSans-112"/>
      </defs>
      <g style="fill:#262626;" transform="translate(292.692945 226.470393)rotate(-70)scale(0.05 -0.05)">
       <use xlink:href="#DejaVuSans-48"/>
       <use x="63.623047" xlink:href="#DejaVuSans-49"/>
       <use x="127.246094" xlink:href="#DejaVuSans-32"/>
       <use x="159.033203" xlink:href="#DejaVuSans-65"/>
       <use x="227.441406" xlink:href="#DejaVuSans-112"/>
       <use x="290.917969" xlink:href="#DejaVuSans-114"/>
       <use x="332.03125" xlink:href="#DejaVuSans-32"/>
       <use x="363.818359" xlink:href="#DejaVuSans-50"/>
       <use x="427.441406" xlink:href="#DejaVuSans-48"/>
      </g>
     </g>
    </g>
    <g id="xtick_6">
     <g id="line2d_11">
      <path clip-path="url(#p788f4a91ff)" d="M 352.887273 198.598594 
L 352.887273 20.038594 
" style="fill:none;stroke:#f3f3f3;stroke-dasharray:0.5,0.825;stroke-dashoffset:0;stroke-width:0.5;"/>
     </g>
     <g id="line2d_12">
      <g>
       <use style="fill:#262626;stroke:#262626;stroke-width:0.5;" x="352.887273" xlink:href="#m34045cac85" y="198.598594"/>
      </g>
     </g>
     <g id="text_6">
      <!-- 16 Apr 20 -->
      <defs>
       <path d="M 33.015625 40.375 
Q 26.375 40.375 22.484375 35.828125 
Q 18.609375 31.296875 18.609375 23.390625 
Q 18.609375 15.53125 22.484375 10.953125 
Q 26.375 6.390625 33.015625 6.390625 
Q 39.65625 6.390625 43.53125 10.953125 
Q 47.40625 15.53125 47.40625 23.390625 
Q 47.40625 31.296875 43.53125 35.828125 
Q 39.65625 40.375 33.015625 40.375 
z
M 52.59375 71.296875 
L 52.59375 62.3125 
Q 48.875 64.0625 45.09375 64.984375 
Q 41.3125 65.921875 37.59375 65.921875 
Q 27.828125 65.921875 22.671875 59.328125 
Q 17.53125 52.734375 16.796875 39.40625 
Q 19.671875 43.65625 24.015625 45.921875 
Q 28.375 48.1875 33.59375 48.1875 
Q 44.578125 48.1875 50.953125 41.515625 
Q 57.328125 34.859375 57.328125 23.390625 
Q 57.328125 12.15625 50.6875 5.359375 
Q 44.046875 -1.421875 33.015625 -1.421875 
Q 20.359375 -1.421875 13.671875 8.265625 
Q 6.984375 17.96875 6.984375 36.375 
Q 6.984375 53.65625 15.1875 63.9375 
Q 23.390625 74.21875 37.203125 74.21875 
Q 40.921875 74.21875 44.703125 73.484375 
Q 48.484375 72.75 52.59375 71.296875 
z
" id="DejaVuSans-54"/>
      </defs>
      <g style="fill:#262626;" transform="translate(349.984923 226.470393)rotate(-70)scale(0.05 -0.05)">
       <use xlink:href="#DejaVuSans-49"/>
       <use x="63.623047" xlink:href="#DejaVuSans-54"/>
       <use x="127.246094" xlink:href="#DejaVuSans-32"/>
       <use x="159.033203" xlink:href="#DejaVuSans-65"/>
       <use x="227.441406" xlink:href="#DejaVuSans-112"/>
       <use x="290.917969" xlink:href="#DejaVuSans-114"/>
       <use x="332.03125" xlink:href="#DejaVuSans-32"/>
       <use x="363.818359" xlink:href="#DejaVuSans-50"/>
       <use x="427.441406" xlink:href="#DejaVuSans-48"/>
      </g>
     </g>
    </g>
   </g>
   <g id="line2d_13">
    <path clip-path="url(#p788f4a91ff)" d="M 28.232727 190.48223 
L 32.052193 190.48223 
L 35.871658 190.48223 
L 39.691123 190.48223 
L 43.510588 190.48223 
L 47.330053 190.48223 
L 51.149519 190.48223 
L 54.968984 190.48223 
L 58.788449 190.470143 
L 62.607914 190.470143 
L 66.42738 190.470143 
L 70.246845 190.458056 
L 74.06631 190.445969 
L 77.885775 190.445969 
L 81.705241 190.445969 
L 85.524706 190.445969 
L 89.344171 190.445969 
L 93.163636 190.445969 
L 96.983102 190.445969 
L 100.802567 190.445969 
L 104.622032 190.445969 
L 108.441497 190.445969 
L 112.260963 190.445969 
L 116.080428 190.445969 
L 119.899893 190.445969 
L 123.719358 190.445969 
L 127.538824 190.445969 
L 131.358289 190.445969 
L 135.177754 190.445969 
L 138.997219 190.445969 
L 142.816684 190.445969 
L 146.63615 190.445969 
L 150.455615 190.445969 
L 154.27508 190.445969 
L 158.094545 190.445969 
L 161.914011 190.445969 
L 165.733476 190.445969 
L 169.552941 190.445969 
L 173.372406 190.445969 
L 177.191872 190.445969 
L 181.011337 190.421796 
L 184.830802 190.421796 
L 188.650267 190.143796 
L 192.469733 190.119623 
L 196.289198 190.107536 
L 200.108663 190.071275 
L 203.928128 190.01084 
L 207.747594 189.962493 
L 211.567059 189.805363 
L 215.386524 189.732841 
L 219.205989 189.599885 
L 223.025455 189.491103 
L 226.84492 189.249365 
L 230.664385 189.116409 
L 234.48385 189.043887 
L 238.303316 188.765888 
L 242.122781 188.596671 
L 245.942246 188.137369 
L 249.761711 187.533023 
L 253.581176 186.493548 
L 257.400642 185.695812 
L 261.220107 184.450859 
L 265.039572 184.003644 
L 268.859037 182.541127 
L 272.678503 181.695043 
L 276.497968 179.761136 
L 280.317433 178.552445 
L 284.136898 178.105229 
L 287.956364 175.361499 
L 291.775829 173.596809 
L 295.595294 166.332573 
L 299.414759 159.745204 
L 303.234225 159.455118 
L 307.05369 153.230357 
L 310.873155 147.114378 
L 314.69262 132.730949 
L 318.512086 126.288623 
L 322.331551 118.976039 
L 326.151016 109.197725 
L 329.970481 98.645848 
L 333.789947 88.396143 
L 337.609412 79.222175 
L 341.428877 64.137704 
L 345.248342 51.639834 
L 349.067807 41.54726 
L 352.887273 28.154957 
" style="fill:none;stroke:#ffa500;stroke-linecap:round;stroke-width:1.5;"/>
    <defs>
     <path d="M 0 1.5 
C 0.397805 1.5 0.77937 1.341951 1.06066 1.06066 
C 1.341951 0.77937 1.5 0.397805 1.5 0 
C 1.5 -0.397805 1.341951 -0.77937 1.06066 -1.06066 
C 0.77937 -1.341951 0.397805 -1.5 0 -1.5 
C -0.397805 -1.5 -0.77937 -1.341951 -1.06066 -1.06066 
C -1.341951 -0.77937 -1.5 -0.397805 -1.5 0 
C -1.5 0.397805 -1.341951 0.77937 -1.06066 1.06066 
C -0.77937 1.341951 -0.397805 1.5 0 1.5 
z
" id="mc40e45cc75" style="stroke:#ffffff;stroke-width:0.25;"/>
    </defs>
    <g clip-path="url(#p788f4a91ff)">
     <use style="fill:#ffa500;stroke:#ffffff;stroke-width:0.25;" x="28.232727" xlink:href="#mc40e45cc75" y="190.48223"/>
     <use style="fill:#ffa500;stroke:#ffffff;stroke-width:0.25;" x="32.052193" xlink:href="#mc40e45cc75" y="190.48223"/>
     <use style="fill:#ffa500;stroke:#ffffff;stroke-width:0.25;" x="35.871658" xlink:href="#mc40e45cc75" y="190.48223"/>
     <use style="fill:#ffa500;stroke:#ffffff;stroke-width:0.25;" x="39.691123" xlink:href="#mc40e45cc75" y="190.48223"/>
     <use style="fill:#ffa500;stroke:#ffffff;stroke-width:0.25;" x="43.510588" xlink:href="#mc40e45cc75" y="190.48223"/>
     <use style="fill:#ffa500;stroke:#ffffff;stroke-width:0.25;" x="47.330053" xlink:href="#mc40e45cc75" y="190.48223"/>
     <use style="fill:#ffa500;stroke:#ffffff;stroke-width:0.25;" x="51.149519" xlink:href="#mc40e45cc75" y="190.48223"/>
     <use style="fill:#ffa500;stroke:#ffffff;stroke-width:0.25;" x="54.968984" xlink:href="#mc40e45cc75" y="190.48223"/>
     <use style="fill:#ffa500;stroke:#ffffff;stroke-width:0.25;" x="58.788449" xlink:href="#mc40e45cc75" y="190.470143"/>
     <use style="fill:#ffa500;stroke:#ffffff;stroke-width:0.25;" x="62.607914" xlink:href="#mc40e45cc75" y="190.470143"/>
     <use style="fill:#ffa500;stroke:#ffffff;stroke-width:0.25;" x="66.42738" xlink:href="#mc40e45cc75" y="190.470143"/>
     <use style="fill:#ffa500;stroke:#ffffff;stroke-width:0.25;" x="70.246845" xlink:href="#mc40e45cc75" y="190.458056"/>
     <use style="fill:#ffa500;stroke:#ffffff;stroke-width:0.25;" x="74.06631" xlink:href="#mc40e45cc75" y="190.445969"/>
     <use style="fill:#ffa500;stroke:#ffffff;stroke-width:0.25;" x="77.885775" xlink:href="#mc40e45cc75" y="190.445969"/>
     <use style="fill:#ffa500;stroke:#ffffff;stroke-width:0.25;" x="81.705241" xlink:href="#mc40e45cc75" y="190.445969"/>
     <use style="fill:#ffa500;stroke:#ffffff;stroke-width:0.25;" x="85.524706" xlink:href="#mc40e45cc75" y="190.445969"/>
     <use style="fill:#ffa500;stroke:#ffffff;stroke-width:0.25;" x="89.344171" xlink:href="#mc40e45cc75" y="190.445969"/>
     <use style="fill:#ffa500;stroke:#ffffff;stroke-width:0.25;" x="93.163636" xlink:href="#mc40e45cc75" y="190.445969"/>
     <use style="fill:#ffa500;stroke:#ffffff;stroke-width:0.25;" x="96.983102" xlink:href="#mc40e45cc75" y="190.445969"/>
     <use style="fill:#ffa500;stroke:#ffffff;stroke-width:0.25;" x="100.802567" xlink:href="#mc40e45cc75" y="190.445969"/>
     <use style="fill:#ffa500;stroke:#ffffff;stroke-width:0.25;" x="104.622032" xlink:href="#mc40e45cc75" y="190.445969"/>
     <use style="fill:#ffa500;stroke:#ffffff;stroke-width:0.25;" x="108.441497" xlink:href="#mc40e45cc75" y="190.445969"/>
     <use style="fill:#ffa500;stroke:#ffffff;stroke-width:0.25;" x="112.260963" xlink:href="#mc40e45cc75" y="190.445969"/>
     <use style="fill:#ffa500;stroke:#ffffff;stroke-width:0.25;" x="116.080428" xlink:href="#mc40e45cc75" y="190.445969"/>
     <use style="fill:#ffa500;stroke:#ffffff;stroke-width:0.25;" x="119.899893" xlink:href="#mc40e45cc75" y="190.445969"/>
     <use style="fill:#ffa500;stroke:#ffffff;stroke-width:0.25;" x="123.719358" xlink:href="#mc40e45cc75" y="190.445969"/>
     <use style="fill:#ffa500;stroke:#ffffff;stroke-width:0.25;" x="127.538824" xlink:href="#mc40e45cc75" y="190.445969"/>
     <use style="fill:#ffa500;stroke:#ffffff;stroke-width:0.25;" x="131.358289" xlink:href="#mc40e45cc75" y="190.445969"/>
     <use style="fill:#ffa500;stroke:#ffffff;stroke-width:0.25;" x="135.177754" xlink:href="#mc40e45cc75" y="190.445969"/>
     <use style="fill:#ffa500;stroke:#ffffff;stroke-width:0.25;" x="138.997219" xlink:href="#mc40e45cc75" y="190.445969"/>
     <use style="fill:#ffa500;stroke:#ffffff;stroke-width:0.25;" x="142.816684" xlink:href="#mc40e45cc75" y="190.445969"/>
     <use style="fill:#ffa500;stroke:#ffffff;stroke-width:0.25;" x="146.63615" xlink:href="#mc40e45cc75" y="190.445969"/>
     <use style="fill:#ffa500;stroke:#ffffff;stroke-width:0.25;" x="150.455615" xlink:href="#mc40e45cc75" y="190.445969"/>
     <use style="fill:#ffa500;stroke:#ffffff;stroke-width:0.25;" x="154.27508" xlink:href="#mc40e45cc75" y="190.445969"/>
     <use style="fill:#ffa500;stroke:#ffffff;stroke-width:0.25;" x="158.094545" xlink:href="#mc40e45cc75" y="190.445969"/>
     <use style="fill:#ffa500;stroke:#ffffff;stroke-width:0.25;" x="161.914011" xlink:href="#mc40e45cc75" y="190.445969"/>
     <use style="fill:#ffa500;stroke:#ffffff;stroke-width:0.25;" x="165.733476" xlink:href="#mc40e45cc75" y="190.445969"/>
     <use style="fill:#ffa500;stroke:#ffffff;stroke-width:0.25;" x="169.552941" xlink:href="#mc40e45cc75" y="190.445969"/>
     <use style="fill:#ffa500;stroke:#ffffff;stroke-width:0.25;" x="173.372406" xlink:href="#mc40e45cc75" y="190.445969"/>
     <use style="fill:#ffa500;stroke:#ffffff;stroke-width:0.25;" x="177.191872" xlink:href="#mc40e45cc75" y="190.445969"/>
     <use style="fill:#ffa500;stroke:#ffffff;stroke-width:0.25;" x="181.011337" xlink:href="#mc40e45cc75" y="190.421796"/>
     <use style="fill:#ffa500;stroke:#ffffff;stroke-width:0.25;" x="184.830802" xlink:href="#mc40e45cc75" y="190.421796"/>
     <use style="fill:#ffa500;stroke:#ffffff;stroke-width:0.25;" x="188.650267" xlink:href="#mc40e45cc75" y="190.143796"/>
     <use style="fill:#ffa500;stroke:#ffffff;stroke-width:0.25;" x="192.469733" xlink:href="#mc40e45cc75" y="190.119623"/>
     <use style="fill:#ffa500;stroke:#ffffff;stroke-width:0.25;" x="196.289198" xlink:href="#mc40e45cc75" y="190.107536"/>
     <use style="fill:#ffa500;stroke:#ffffff;stroke-width:0.25;" x="200.108663" xlink:href="#mc40e45cc75" y="190.071275"/>
     <use style="fill:#ffa500;stroke:#ffffff;stroke-width:0.25;" x="203.928128" xlink:href="#mc40e45cc75" y="190.01084"/>
     <use style="fill:#ffa500;stroke:#ffffff;stroke-width:0.25;" x="207.747594" xlink:href="#mc40e45cc75" y="189.962493"/>
     <use style="fill:#ffa500;stroke:#ffffff;stroke-width:0.25;" x="211.567059" xlink:href="#mc40e45cc75" y="189.805363"/>
     <use style="fill:#ffa500;stroke:#ffffff;stroke-width:0.25;" x="215.386524" xlink:href="#mc40e45cc75" y="189.732841"/>
     <use style="fill:#ffa500;stroke:#ffffff;stroke-width:0.25;" x="219.205989" xlink:href="#mc40e45cc75" y="189.599885"/>
     <use style="fill:#ffa500;stroke:#ffffff;stroke-width:0.25;" x="223.025455" xlink:href="#mc40e45cc75" y="189.491103"/>
     <use style="fill:#ffa500;stroke:#ffffff;stroke-width:0.25;" x="226.84492" xlink:href="#mc40e45cc75" y="189.249365"/>
     <use style="fill:#ffa500;stroke:#ffffff;stroke-width:0.25;" x="230.664385" xlink:href="#mc40e45cc75" y="189.116409"/>
     <use style="fill:#ffa500;stroke:#ffffff;stroke-width:0.25;" x="234.48385" xlink:href="#mc40e45cc75" y="189.043887"/>
     <use style="fill:#ffa500;stroke:#ffffff;stroke-width:0.25;" x="238.303316" xlink:href="#mc40e45cc75" y="188.765888"/>
     <use style="fill:#ffa500;stroke:#ffffff;stroke-width:0.25;" x="242.122781" xlink:href="#mc40e45cc75" y="188.596671"/>
     <use style="fill:#ffa500;stroke:#ffffff;stroke-width:0.25;" x="245.942246" xlink:href="#mc40e45cc75" y="188.137369"/>
     <use style="fill:#ffa500;stroke:#ffffff;stroke-width:0.25;" x="249.761711" xlink:href="#mc40e45cc75" y="187.533023"/>
     <use style="fill:#ffa500;stroke:#ffffff;stroke-width:0.25;" x="253.581176" xlink:href="#mc40e45cc75" y="186.493548"/>
     <use style="fill:#ffa500;stroke:#ffffff;stroke-width:0.25;" x="257.400642" xlink:href="#mc40e45cc75" y="185.695812"/>
     <use style="fill:#ffa500;stroke:#ffffff;stroke-width:0.25;" x="261.220107" xlink:href="#mc40e45cc75" y="184.450859"/>
     <use style="fill:#ffa500;stroke:#ffffff;stroke-width:0.25;" x="265.039572" xlink:href="#mc40e45cc75" y="184.003644"/>
     <use style="fill:#ffa500;stroke:#ffffff;stroke-width:0.25;" x="268.859037" xlink:href="#mc40e45cc75" y="182.541127"/>
     <use style="fill:#ffa500;stroke:#ffffff;stroke-width:0.25;" x="272.678503" xlink:href="#mc40e45cc75" y="181.695043"/>
     <use style="fill:#ffa500;stroke:#ffffff;stroke-width:0.25;" x="276.497968" xlink:href="#mc40e45cc75" y="179.761136"/>
     <use style="fill:#ffa500;stroke:#ffffff;stroke-width:0.25;" x="280.317433" xlink:href="#mc40e45cc75" y="178.552445"/>
     <use style="fill:#ffa500;stroke:#ffffff;stroke-width:0.25;" x="284.136898" xlink:href="#mc40e45cc75" y="178.105229"/>
     <use style="fill:#ffa500;stroke:#ffffff;stroke-width:0.25;" x="287.956364" xlink:href="#mc40e45cc75" y="175.361499"/>
     <use style="fill:#ffa500;stroke:#ffffff;stroke-width:0.25;" x="291.775829" xlink:href="#mc40e45cc75" y="173.596809"/>
     <use style="fill:#ffa500;stroke:#ffffff;stroke-width:0.25;" x="295.595294" xlink:href="#mc40e45cc75" y="166.332573"/>
     <use style="fill:#ffa500;stroke:#ffffff;stroke-width:0.25;" x="299.414759" xlink:href="#mc40e45cc75" y="159.745204"/>
     <use style="fill:#ffa500;stroke:#ffffff;stroke-width:0.25;" x="303.234225" xlink:href="#mc40e45cc75" y="159.455118"/>
     <use style="fill:#ffa500;stroke:#ffffff;stroke-width:0.25;" x="307.05369" xlink:href="#mc40e45cc75" y="153.230357"/>
     <use style="fill:#ffa500;stroke:#ffffff;stroke-width:0.25;" x="310.873155" xlink:href="#mc40e45cc75" y="147.114378"/>
     <use style="fill:#ffa500;stroke:#ffffff;stroke-width:0.25;" x="314.69262" xlink:href="#mc40e45cc75" y="132.730949"/>
     <use style="fill:#ffa500;stroke:#ffffff;stroke-width:0.25;" x="318.512086" xlink:href="#mc40e45cc75" y="126.288623"/>
     <use style="fill:#ffa500;stroke:#ffffff;stroke-width:0.25;" x="322.331551" xlink:href="#mc40e45cc75" y="118.976039"/>
     <use style="fill:#ffa500;stroke:#ffffff;stroke-width:0.25;" x="326.151016" xlink:href="#mc40e45cc75" y="109.197725"/>
     <use style="fill:#ffa500;stroke:#ffffff;stroke-width:0.25;" x="329.970481" xlink:href="#mc40e45cc75" y="98.645848"/>
     <use style="fill:#ffa500;stroke:#ffffff;stroke-width:0.25;" x="333.789947" xlink:href="#mc40e45cc75" y="88.396143"/>
     <use style="fill:#ffa500;stroke:#ffffff;stroke-width:0.25;" x="337.609412" xlink:href="#mc40e45cc75" y="79.222175"/>
     <use style="fill:#ffa500;stroke:#ffffff;stroke-width:0.25;" x="341.428877" xlink:href="#mc40e45cc75" y="64.137704"/>
     <use style="fill:#ffa500;stroke:#ffffff;stroke-width:0.25;" x="345.248342" xlink:href="#mc40e45cc75" y="51.639834"/>
     <use style="fill:#ffa500;stroke:#ffffff;stroke-width:0.25;" x="349.067807" xlink:href="#mc40e45cc75" y="41.54726"/>
     <use style="fill:#ffa500;stroke:#ffffff;stroke-width:0.25;" x="352.887273" xlink:href="#mc40e45cc75" y="28.154957"/>
    </g>
   </g>
   <g id="line2d_14">
    <path clip-path="url(#p788f4a91ff)" d="M 28.232727 190.48223 
L 32.052193 190.48223 
L 35.871658 190.48223 
L 39.691123 190.48223 
L 43.510588 190.48223 
L 47.330053 190.48223 
L 51.149519 190.48223 
L 54.968984 190.48223 
L 58.788449 190.48223 
L 62.607914 190.48223 
L 66.42738 190.48223 
L 70.246845 190.48223 
L 74.06631 190.48223 
L 77.885775 190.48223 
L 81.705241 190.48223 
L 85.524706 190.48223 
L 89.344171 190.48223 
L 93.163636 190.48223 
L 96.983102 190.48223 
L 100.802567 190.48223 
L 104.622032 190.48223 
L 108.441497 190.48223 
L 112.260963 190.48223 
L 116.080428 190.48223 
L 119.899893 190.48223 
L 123.719358 190.445969 
L 127.538824 190.445969 
L 131.358289 190.445969 
L 135.177754 190.445969 
L 138.997219 190.445969 
L 142.816684 190.445969 
L 146.63615 190.445969 
L 150.455615 190.445969 
L 154.27508 190.445969 
L 158.094545 190.445969 
L 161.914011 190.445969 
L 165.733476 190.445969 
L 169.552941 190.445969 
L 173.372406 190.445969 
L 177.191872 190.445969 
L 181.011337 190.445969 
L 184.830802 190.445969 
L 188.650267 190.445969 
L 192.469733 190.445969 
L 196.289198 190.445969 
L 200.108663 190.445969 
L 203.928128 190.445969 
L 207.747594 190.445969 
L 211.567059 190.433882 
L 215.386524 190.433882 
L 219.205989 190.433882 
L 223.025455 190.433882 
L 226.84492 190.433882 
L 230.664385 190.3251 
L 234.48385 190.3251 
L 238.303316 190.313013 
L 242.122781 190.313013 
L 245.942246 190.300926 
L 249.761711 190.240492 
L 253.581176 190.204231 
L 257.400642 190.155883 
L 261.220107 190.155883 
L 265.039572 189.998754 
L 268.859037 189.962493 
L 272.678503 189.938319 
L 276.497968 189.599885 
L 280.317433 189.466929 
L 284.136898 189.333973 
L 287.956364 189.249365 
L 291.775829 188.99554 
L 295.595294 188.693367 
L 299.414759 188.173629 
L 303.234225 188.161542 
L 307.05369 187.714327 
L 310.873155 187.714327 
L 314.69262 185.949637 
L 318.512086 185.393639 
L 322.331551 184.366251 
L 326.151016 182.988343 
L 329.970481 181.126958 
L 333.789947 178.770009 
L 337.609412 177.428362 
L 341.428877 176.207583 
L 345.248342 174.056112 
L 349.067807 173.173767 
L 352.887273 169.112564 
" style="fill:none;stroke:#008000;stroke-linecap:round;stroke-width:1.5;"/>
    <defs>
     <path d="M -0 2.12132 
L 1.272792 0 
L 0 -2.12132 
L -1.272792 -0 
z
" id="m1b909d3858" style="stroke:#ffffff;stroke-linejoin:miter;stroke-width:0.25;"/>
    </defs>
    <g clip-path="url(#p788f4a91ff)">
     <use style="fill:#008000;stroke:#ffffff;stroke-linejoin:miter;stroke-width:0.25;" x="28.232727" xlink:href="#m1b909d3858" y="190.48223"/>
     <use style="fill:#008000;stroke:#ffffff;stroke-linejoin:miter;stroke-width:0.25;" x="32.052193" xlink:href="#m1b909d3858" y="190.48223"/>
     <use style="fill:#008000;stroke:#ffffff;stroke-linejoin:miter;stroke-width:0.25;" x="35.871658" xlink:href="#m1b909d3858" y="190.48223"/>
     <use style="fill:#008000;stroke:#ffffff;stroke-linejoin:miter;stroke-width:0.25;" x="39.691123" xlink:href="#m1b909d3858" y="190.48223"/>
     <use style="fill:#008000;stroke:#ffffff;stroke-linejoin:miter;stroke-width:0.25;" x="43.510588" xlink:href="#m1b909d3858" y="190.48223"/>
     <use style="fill:#008000;stroke:#ffffff;stroke-linejoin:miter;stroke-width:0.25;" x="47.330053" xlink:href="#m1b909d3858" y="190.48223"/>
     <use style="fill:#008000;stroke:#ffffff;stroke-linejoin:miter;stroke-width:0.25;" x="51.149519" xlink:href="#m1b909d3858" y="190.48223"/>
     <use style="fill:#008000;stroke:#ffffff;stroke-linejoin:miter;stroke-width:0.25;" x="54.968984" xlink:href="#m1b909d3858" y="190.48223"/>
     <use style="fill:#008000;stroke:#ffffff;stroke-linejoin:miter;stroke-width:0.25;" x="58.788449" xlink:href="#m1b909d3858" y="190.48223"/>
     <use style="fill:#008000;stroke:#ffffff;stroke-linejoin:miter;stroke-width:0.25;" x="62.607914" xlink:href="#m1b909d3858" y="190.48223"/>
     <use style="fill:#008000;stroke:#ffffff;stroke-linejoin:miter;stroke-width:0.25;" x="66.42738" xlink:href="#m1b909d3858" y="190.48223"/>
     <use style="fill:#008000;stroke:#ffffff;stroke-linejoin:miter;stroke-width:0.25;" x="70.246845" xlink:href="#m1b909d3858" y="190.48223"/>
     <use style="fill:#008000;stroke:#ffffff;stroke-linejoin:miter;stroke-width:0.25;" x="74.06631" xlink:href="#m1b909d3858" y="190.48223"/>
     <use style="fill:#008000;stroke:#ffffff;stroke-linejoin:miter;stroke-width:0.25;" x="77.885775" xlink:href="#m1b909d3858" y="190.48223"/>
     <use style="fill:#008000;stroke:#ffffff;stroke-linejoin:miter;stroke-width:0.25;" x="81.705241" xlink:href="#m1b909d3858" y="190.48223"/>
     <use style="fill:#008000;stroke:#ffffff;stroke-linejoin:miter;stroke-width:0.25;" x="85.524706" xlink:href="#m1b909d3858" y="190.48223"/>
     <use style="fill:#008000;stroke:#ffffff;stroke-linejoin:miter;stroke-width:0.25;" x="89.344171" xlink:href="#m1b909d3858" y="190.48223"/>
     <use style="fill:#008000;stroke:#ffffff;stroke-linejoin:miter;stroke-width:0.25;" x="93.163636" xlink:href="#m1b909d3858" y="190.48223"/>
     <use style="fill:#008000;stroke:#ffffff;stroke-linejoin:miter;stroke-width:0.25;" x="96.983102" xlink:href="#m1b909d3858" y="190.48223"/>
     <use style="fill:#008000;stroke:#ffffff;stroke-linejoin:miter;stroke-width:0.25;" x="100.802567" xlink:href="#m1b909d3858" y="190.48223"/>
     <use style="fill:#008000;stroke:#ffffff;stroke-linejoin:miter;stroke-width:0.25;" x="104.622032" xlink:href="#m1b909d3858" y="190.48223"/>
     <use style="fill:#008000;stroke:#ffffff;stroke-linejoin:miter;stroke-width:0.25;" x="108.441497" xlink:href="#m1b909d3858" y="190.48223"/>
     <use style="fill:#008000;stroke:#ffffff;stroke-linejoin:miter;stroke-width:0.25;" x="112.260963" xlink:href="#m1b909d3858" y="190.48223"/>
     <use style="fill:#008000;stroke:#ffffff;stroke-linejoin:miter;stroke-width:0.25;" x="116.080428" xlink:href="#m1b909d3858" y="190.48223"/>
     <use style="fill:#008000;stroke:#ffffff;stroke-linejoin:miter;stroke-width:0.25;" x="119.899893" xlink:href="#m1b909d3858" y="190.48223"/>
     <use style="fill:#008000;stroke:#ffffff;stroke-linejoin:miter;stroke-width:0.25;" x="123.719358" xlink:href="#m1b909d3858" y="190.445969"/>
     <use style="fill:#008000;stroke:#ffffff;stroke-linejoin:miter;stroke-width:0.25;" x="127.538824" xlink:href="#m1b909d3858" y="190.445969"/>
     <use style="fill:#008000;stroke:#ffffff;stroke-linejoin:miter;stroke-width:0.25;" x="131.358289" xlink:href="#m1b909d3858" y="190.445969"/>
     <use style="fill:#008000;stroke:#ffffff;stroke-linejoin:miter;stroke-width:0.25;" x="135.177754" xlink:href="#m1b909d3858" y="190.445969"/>
     <use style="fill:#008000;stroke:#ffffff;stroke-linejoin:miter;stroke-width:0.25;" x="138.997219" xlink:href="#m1b909d3858" y="190.445969"/>
     <use style="fill:#008000;stroke:#ffffff;stroke-linejoin:miter;stroke-width:0.25;" x="142.816684" xlink:href="#m1b909d3858" y="190.445969"/>
     <use style="fill:#008000;stroke:#ffffff;stroke-linejoin:miter;stroke-width:0.25;" x="146.63615" xlink:href="#m1b909d3858" y="190.445969"/>
     <use style="fill:#008000;stroke:#ffffff;stroke-linejoin:miter;stroke-width:0.25;" x="150.455615" xlink:href="#m1b909d3858" y="190.445969"/>
     <use style="fill:#008000;stroke:#ffffff;stroke-linejoin:miter;stroke-width:0.25;" x="154.27508" xlink:href="#m1b909d3858" y="190.445969"/>
     <use style="fill:#008000;stroke:#ffffff;stroke-linejoin:miter;stroke-width:0.25;" x="158.094545" xlink:href="#m1b909d3858" y="190.445969"/>
     <use style="fill:#008000;stroke:#ffffff;stroke-linejoin:miter;stroke-width:0.25;" x="161.914011" xlink:href="#m1b909d3858" y="190.445969"/>
     <use style="fill:#008000;stroke:#ffffff;stroke-linejoin:miter;stroke-width:0.25;" x="165.733476" xlink:href="#m1b909d3858" y="190.445969"/>
     <use style="fill:#008000;stroke:#ffffff;stroke-linejoin:miter;stroke-width:0.25;" x="169.552941" xlink:href="#m1b909d3858" y="190.445969"/>
     <use style="fill:#008000;stroke:#ffffff;stroke-linejoin:miter;stroke-width:0.25;" x="173.372406" xlink:href="#m1b909d3858" y="190.445969"/>
     <use style="fill:#008000;stroke:#ffffff;stroke-linejoin:miter;stroke-width:0.25;" x="177.191872" xlink:href="#m1b909d3858" y="190.445969"/>
     <use style="fill:#008000;stroke:#ffffff;stroke-linejoin:miter;stroke-width:0.25;" x="181.011337" xlink:href="#m1b909d3858" y="190.445969"/>
     <use style="fill:#008000;stroke:#ffffff;stroke-linejoin:miter;stroke-width:0.25;" x="184.830802" xlink:href="#m1b909d3858" y="190.445969"/>
     <use style="fill:#008000;stroke:#ffffff;stroke-linejoin:miter;stroke-width:0.25;" x="188.650267" xlink:href="#m1b909d3858" y="190.445969"/>
     <use style="fill:#008000;stroke:#ffffff;stroke-linejoin:miter;stroke-width:0.25;" x="192.469733" xlink:href="#m1b909d3858" y="190.445969"/>
     <use style="fill:#008000;stroke:#ffffff;stroke-linejoin:miter;stroke-width:0.25;" x="196.289198" xlink:href="#m1b909d3858" y="190.445969"/>
     <use style="fill:#008000;stroke:#ffffff;stroke-linejoin:miter;stroke-width:0.25;" x="200.108663" xlink:href="#m1b909d3858" y="190.445969"/>
     <use style="fill:#008000;stroke:#ffffff;stroke-linejoin:miter;stroke-width:0.25;" x="203.928128" xlink:href="#m1b909d3858" y="190.445969"/>
     <use style="fill:#008000;stroke:#ffffff;stroke-linejoin:miter;stroke-width:0.25;" x="207.747594" xlink:href="#m1b909d3858" y="190.445969"/>
     <use style="fill:#008000;stroke:#ffffff;stroke-linejoin:miter;stroke-width:0.25;" x="211.567059" xlink:href="#m1b909d3858" y="190.433882"/>
     <use style="fill:#008000;stroke:#ffffff;stroke-linejoin:miter;stroke-width:0.25;" x="215.386524" xlink:href="#m1b909d3858" y="190.433882"/>
     <use style="fill:#008000;stroke:#ffffff;stroke-linejoin:miter;stroke-width:0.25;" x="219.205989" xlink:href="#m1b909d3858" y="190.433882"/>
     <use style="fill:#008000;stroke:#ffffff;stroke-linejoin:miter;stroke-width:0.25;" x="223.025455" xlink:href="#m1b909d3858" y="190.433882"/>
     <use style="fill:#008000;stroke:#ffffff;stroke-linejoin:miter;stroke-width:0.25;" x="226.84492" xlink:href="#m1b909d3858" y="190.433882"/>
     <use style="fill:#008000;stroke:#ffffff;stroke-linejoin:miter;stroke-width:0.25;" x="230.664385" xlink:href="#m1b909d3858" y="190.3251"/>
     <use style="fill:#008000;stroke:#ffffff;stroke-linejoin:miter;stroke-width:0.25;" x="234.48385" xlink:href="#m1b909d3858" y="190.3251"/>
     <use style="fill:#008000;stroke:#ffffff;stroke-linejoin:miter;stroke-width:0.25;" x="238.303316" xlink:href="#m1b909d3858" y="190.313013"/>
     <use style="fill:#008000;stroke:#ffffff;stroke-linejoin:miter;stroke-width:0.25;" x="242.122781" xlink:href="#m1b909d3858" y="190.313013"/>
     <use style="fill:#008000;stroke:#ffffff;stroke-linejoin:miter;stroke-width:0.25;" x="245.942246" xlink:href="#m1b909d3858" y="190.300926"/>
     <use style="fill:#008000;stroke:#ffffff;stroke-linejoin:miter;stroke-width:0.25;" x="249.761711" xlink:href="#m1b909d3858" y="190.240492"/>
     <use style="fill:#008000;stroke:#ffffff;stroke-linejoin:miter;stroke-width:0.25;" x="253.581176" xlink:href="#m1b909d3858" y="190.204231"/>
     <use style="fill:#008000;stroke:#ffffff;stroke-linejoin:miter;stroke-width:0.25;" x="257.400642" xlink:href="#m1b909d3858" y="190.155883"/>
     <use style="fill:#008000;stroke:#ffffff;stroke-linejoin:miter;stroke-width:0.25;" x="261.220107" xlink:href="#m1b909d3858" y="190.155883"/>
     <use style="fill:#008000;stroke:#ffffff;stroke-linejoin:miter;stroke-width:0.25;" x="265.039572" xlink:href="#m1b909d3858" y="189.998754"/>
     <use style="fill:#008000;stroke:#ffffff;stroke-linejoin:miter;stroke-width:0.25;" x="268.859037" xlink:href="#m1b909d3858" y="189.962493"/>
     <use style="fill:#008000;stroke:#ffffff;stroke-linejoin:miter;stroke-width:0.25;" x="272.678503" xlink:href="#m1b909d3858" y="189.938319"/>
     <use style="fill:#008000;stroke:#ffffff;stroke-linejoin:miter;stroke-width:0.25;" x="276.497968" xlink:href="#m1b909d3858" y="189.599885"/>
     <use style="fill:#008000;stroke:#ffffff;stroke-linejoin:miter;stroke-width:0.25;" x="280.317433" xlink:href="#m1b909d3858" y="189.466929"/>
     <use style="fill:#008000;stroke:#ffffff;stroke-linejoin:miter;stroke-width:0.25;" x="284.136898" xlink:href="#m1b909d3858" y="189.333973"/>
     <use style="fill:#008000;stroke:#ffffff;stroke-linejoin:miter;stroke-width:0.25;" x="287.956364" xlink:href="#m1b909d3858" y="189.249365"/>
     <use style="fill:#008000;stroke:#ffffff;stroke-linejoin:miter;stroke-width:0.25;" x="291.775829" xlink:href="#m1b909d3858" y="188.99554"/>
     <use style="fill:#008000;stroke:#ffffff;stroke-linejoin:miter;stroke-width:0.25;" x="295.595294" xlink:href="#m1b909d3858" y="188.693367"/>
     <use style="fill:#008000;stroke:#ffffff;stroke-linejoin:miter;stroke-width:0.25;" x="299.414759" xlink:href="#m1b909d3858" y="188.173629"/>
     <use style="fill:#008000;stroke:#ffffff;stroke-linejoin:miter;stroke-width:0.25;" x="303.234225" xlink:href="#m1b909d3858" y="188.161542"/>
     <use style="fill:#008000;stroke:#ffffff;stroke-linejoin:miter;stroke-width:0.25;" x="307.05369" xlink:href="#m1b909d3858" y="187.714327"/>
     <use style="fill:#008000;stroke:#ffffff;stroke-linejoin:miter;stroke-width:0.25;" x="310.873155" xlink:href="#m1b909d3858" y="187.714327"/>
     <use style="fill:#008000;stroke:#ffffff;stroke-linejoin:miter;stroke-width:0.25;" x="314.69262" xlink:href="#m1b909d3858" y="185.949637"/>
     <use style="fill:#008000;stroke:#ffffff;stroke-linejoin:miter;stroke-width:0.25;" x="318.512086" xlink:href="#m1b909d3858" y="185.393639"/>
     <use style="fill:#008000;stroke:#ffffff;stroke-linejoin:miter;stroke-width:0.25;" x="322.331551" xlink:href="#m1b909d3858" y="184.366251"/>
     <use style="fill:#008000;stroke:#ffffff;stroke-linejoin:miter;stroke-width:0.25;" x="326.151016" xlink:href="#m1b909d3858" y="182.988343"/>
     <use style="fill:#008000;stroke:#ffffff;stroke-linejoin:miter;stroke-width:0.25;" x="329.970481" xlink:href="#m1b909d3858" y="181.126958"/>
     <use style="fill:#008000;stroke:#ffffff;stroke-linejoin:miter;stroke-width:0.25;" x="333.789947" xlink:href="#m1b909d3858" y="178.770009"/>
     <use style="fill:#008000;stroke:#ffffff;stroke-linejoin:miter;stroke-width:0.25;" x="337.609412" xlink:href="#m1b909d3858" y="177.428362"/>
     <use style="fill:#008000;stroke:#ffffff;stroke-linejoin:miter;stroke-width:0.25;" x="341.428877" xlink:href="#m1b909d3858" y="176.207583"/>
     <use style="fill:#008000;stroke:#ffffff;stroke-linejoin:miter;stroke-width:0.25;" x="345.248342" xlink:href="#m1b909d3858" y="174.056112"/>
     <use style="fill:#008000;stroke:#ffffff;stroke-linejoin:miter;stroke-width:0.25;" x="349.067807" xlink:href="#m1b909d3858" y="173.173767"/>
     <use style="fill:#008000;stroke:#ffffff;stroke-linejoin:miter;stroke-width:0.25;" x="352.887273" xlink:href="#m1b909d3858" y="169.112564"/>
    </g>
   </g>
   <g id="line2d_15">
    <path clip-path="url(#p788f4a91ff)" d="M 28.232727 190.48223 
L 32.052193 190.48223 
L 35.871658 190.48223 
L 39.691123 190.48223 
L 43.510588 190.48223 
L 47.330053 190.48223 
L 51.149519 190.48223 
L 54.968984 190.48223 
L 58.788449 190.48223 
L 62.607914 190.48223 
L 66.42738 190.48223 
L 70.246845 190.48223 
L 74.06631 190.48223 
L 77.885775 190.48223 
L 81.705241 190.48223 
L 85.524706 190.48223 
L 89.344171 190.48223 
L 93.163636 190.48223 
L 96.983102 190.48223 
L 100.802567 190.48223 
L 104.622032 190.48223 
L 108.441497 190.48223 
L 112.260963 190.48223 
L 116.080428 190.48223 
L 119.899893 190.48223 
L 123.719358 190.48223 
L 127.538824 190.48223 
L 131.358289 190.48223 
L 135.177754 190.48223 
L 138.997219 190.48223 
L 142.816684 190.48223 
L 146.63615 190.48223 
L 150.455615 190.48223 
L 154.27508 190.48223 
L 158.094545 190.48223 
L 161.914011 190.48223 
L 165.733476 190.48223 
L 169.552941 190.48223 
L 173.372406 190.48223 
L 177.191872 190.48223 
L 181.011337 190.48223 
L 184.830802 190.48223 
L 188.650267 190.48223 
L 192.469733 190.48223 
L 196.289198 190.48223 
L 200.108663 190.48223 
L 203.928128 190.48223 
L 207.747594 190.48223 
L 211.567059 190.48223 
L 215.386524 190.470143 
L 219.205989 190.470143 
L 223.025455 190.458056 
L 226.84492 190.458056 
L 230.664385 190.458056 
L 234.48385 190.458056 
L 238.303316 190.445969 
L 242.122781 190.445969 
L 245.942246 190.433882 
L 249.761711 190.421796 
L 253.581176 190.433882 
L 257.400642 190.397622 
L 261.220107 190.361361 
L 265.039572 190.361361 
L 268.859037 190.337187 
L 272.678503 190.240492 
L 276.497968 190.240492 
L 280.317433 190.192144 
L 284.136898 190.155883 
L 287.956364 190.095449 
L 291.775829 190.059188 
L 295.595294 189.781189 
L 299.414759 189.611972 
L 303.234225 189.611972 
L 307.05369 189.442755 
L 310.873155 189.285625 
L 314.69262 188.83841 
L 318.512086 188.669193 
L 322.331551 188.330759 
L 326.151016 187.750587 
L 329.970481 187.508849 
L 333.789947 187.001199 
L 337.609412 186.481461 
L 341.428877 186.155114 
L 345.248342 185.732072 
L 349.067807 185.587029 
L 352.887273 185.067292 
" style="fill:none;stroke:#ff0000;stroke-linecap:round;stroke-width:1.5;"/>
    <defs>
     <path d="M -0.75 1.5 
L 0 0.75 
L 0.75 1.5 
L 1.5 0.75 
L 0.75 0 
L 1.5 -0.75 
L 0.75 -1.5 
L 0 -0.75 
L -0.75 -1.5 
L -1.5 -0.75 
L -0.75 0 
L -1.5 0.75 
z
" id="m13960bed7c" style="stroke:#ffffff;stroke-linejoin:miter;stroke-width:0.25;"/>
    </defs>
    <g clip-path="url(#p788f4a91ff)">
     <use style="fill:#ff0000;stroke:#ffffff;stroke-linejoin:miter;stroke-width:0.25;" x="28.232727" xlink:href="#m13960bed7c" y="190.48223"/>
     <use style="fill:#ff0000;stroke:#ffffff;stroke-linejoin:miter;stroke-width:0.25;" x="32.052193" xlink:href="#m13960bed7c" y="190.48223"/>
     <use style="fill:#ff0000;stroke:#ffffff;stroke-linejoin:miter;stroke-width:0.25;" x="35.871658" xlink:href="#m13960bed7c" y="190.48223"/>
     <use style="fill:#ff0000;stroke:#ffffff;stroke-linejoin:miter;stroke-width:0.25;" x="39.691123" xlink:href="#m13960bed7c" y="190.48223"/>
     <use style="fill:#ff0000;stroke:#ffffff;stroke-linejoin:miter;stroke-width:0.25;" x="43.510588" xlink:href="#m13960bed7c" y="190.48223"/>
     <use style="fill:#ff0000;stroke:#ffffff;stroke-linejoin:miter;stroke-width:0.25;" x="47.330053" xlink:href="#m13960bed7c" y="190.48223"/>
     <use style="fill:#ff0000;stroke:#ffffff;stroke-linejoin:miter;stroke-width:0.25;" x="51.149519" xlink:href="#m13960bed7c" y="190.48223"/>
     <use style="fill:#ff0000;stroke:#ffffff;stroke-linejoin:miter;stroke-width:0.25;" x="54.968984" xlink:href="#m13960bed7c" y="190.48223"/>
     <use style="fill:#ff0000;stroke:#ffffff;stroke-linejoin:miter;stroke-width:0.25;" x="58.788449" xlink:href="#m13960bed7c" y="190.48223"/>
     <use style="fill:#ff0000;stroke:#ffffff;stroke-linejoin:miter;stroke-width:0.25;" x="62.607914" xlink:href="#m13960bed7c" y="190.48223"/>
     <use style="fill:#ff0000;stroke:#ffffff;stroke-linejoin:miter;stroke-width:0.25;" x="66.42738" xlink:href="#m13960bed7c" y="190.48223"/>
     <use style="fill:#ff0000;stroke:#ffffff;stroke-linejoin:miter;stroke-width:0.25;" x="70.246845" xlink:href="#m13960bed7c" y="190.48223"/>
     <use style="fill:#ff0000;stroke:#ffffff;stroke-linejoin:miter;stroke-width:0.25;" x="74.06631" xlink:href="#m13960bed7c" y="190.48223"/>
     <use style="fill:#ff0000;stroke:#ffffff;stroke-linejoin:miter;stroke-width:0.25;" x="77.885775" xlink:href="#m13960bed7c" y="190.48223"/>
     <use style="fill:#ff0000;stroke:#ffffff;stroke-linejoin:miter;stroke-width:0.25;" x="81.705241" xlink:href="#m13960bed7c" y="190.48223"/>
     <use style="fill:#ff0000;stroke:#ffffff;stroke-linejoin:miter;stroke-width:0.25;" x="85.524706" xlink:href="#m13960bed7c" y="190.48223"/>
     <use style="fill:#ff0000;stroke:#ffffff;stroke-linejoin:miter;stroke-width:0.25;" x="89.344171" xlink:href="#m13960bed7c" y="190.48223"/>
     <use style="fill:#ff0000;stroke:#ffffff;stroke-linejoin:miter;stroke-width:0.25;" x="93.163636" xlink:href="#m13960bed7c" y="190.48223"/>
     <use style="fill:#ff0000;stroke:#ffffff;stroke-linejoin:miter;stroke-width:0.25;" x="96.983102" xlink:href="#m13960bed7c" y="190.48223"/>
     <use style="fill:#ff0000;stroke:#ffffff;stroke-linejoin:miter;stroke-width:0.25;" x="100.802567" xlink:href="#m13960bed7c" y="190.48223"/>
     <use style="fill:#ff0000;stroke:#ffffff;stroke-linejoin:miter;stroke-width:0.25;" x="104.622032" xlink:href="#m13960bed7c" y="190.48223"/>
     <use style="fill:#ff0000;stroke:#ffffff;stroke-linejoin:miter;stroke-width:0.25;" x="108.441497" xlink:href="#m13960bed7c" y="190.48223"/>
     <use style="fill:#ff0000;stroke:#ffffff;stroke-linejoin:miter;stroke-width:0.25;" x="112.260963" xlink:href="#m13960bed7c" y="190.48223"/>
     <use style="fill:#ff0000;stroke:#ffffff;stroke-linejoin:miter;stroke-width:0.25;" x="116.080428" xlink:href="#m13960bed7c" y="190.48223"/>
     <use style="fill:#ff0000;stroke:#ffffff;stroke-linejoin:miter;stroke-width:0.25;" x="119.899893" xlink:href="#m13960bed7c" y="190.48223"/>
     <use style="fill:#ff0000;stroke:#ffffff;stroke-linejoin:miter;stroke-width:0.25;" x="123.719358" xlink:href="#m13960bed7c" y="190.48223"/>
     <use style="fill:#ff0000;stroke:#ffffff;stroke-linejoin:miter;stroke-width:0.25;" x="127.538824" xlink:href="#m13960bed7c" y="190.48223"/>
     <use style="fill:#ff0000;stroke:#ffffff;stroke-linejoin:miter;stroke-width:0.25;" x="131.358289" xlink:href="#m13960bed7c" y="190.48223"/>
     <use style="fill:#ff0000;stroke:#ffffff;stroke-linejoin:miter;stroke-width:0.25;" x="135.177754" xlink:href="#m13960bed7c" y="190.48223"/>
     <use style="fill:#ff0000;stroke:#ffffff;stroke-linejoin:miter;stroke-width:0.25;" x="138.997219" xlink:href="#m13960bed7c" y="190.48223"/>
     <use style="fill:#ff0000;stroke:#ffffff;stroke-linejoin:miter;stroke-width:0.25;" x="142.816684" xlink:href="#m13960bed7c" y="190.48223"/>
     <use style="fill:#ff0000;stroke:#ffffff;stroke-linejoin:miter;stroke-width:0.25;" x="146.63615" xlink:href="#m13960bed7c" y="190.48223"/>
     <use style="fill:#ff0000;stroke:#ffffff;stroke-linejoin:miter;stroke-width:0.25;" x="150.455615" xlink:href="#m13960bed7c" y="190.48223"/>
     <use style="fill:#ff0000;stroke:#ffffff;stroke-linejoin:miter;stroke-width:0.25;" x="154.27508" xlink:href="#m13960bed7c" y="190.48223"/>
     <use style="fill:#ff0000;stroke:#ffffff;stroke-linejoin:miter;stroke-width:0.25;" x="158.094545" xlink:href="#m13960bed7c" y="190.48223"/>
     <use style="fill:#ff0000;stroke:#ffffff;stroke-linejoin:miter;stroke-width:0.25;" x="161.914011" xlink:href="#m13960bed7c" y="190.48223"/>
     <use style="fill:#ff0000;stroke:#ffffff;stroke-linejoin:miter;stroke-width:0.25;" x="165.733476" xlink:href="#m13960bed7c" y="190.48223"/>
     <use style="fill:#ff0000;stroke:#ffffff;stroke-linejoin:miter;stroke-width:0.25;" x="169.552941" xlink:href="#m13960bed7c" y="190.48223"/>
     <use style="fill:#ff0000;stroke:#ffffff;stroke-linejoin:miter;stroke-width:0.25;" x="173.372406" xlink:href="#m13960bed7c" y="190.48223"/>
     <use style="fill:#ff0000;stroke:#ffffff;stroke-linejoin:miter;stroke-width:0.25;" x="177.191872" xlink:href="#m13960bed7c" y="190.48223"/>
     <use style="fill:#ff0000;stroke:#ffffff;stroke-linejoin:miter;stroke-width:0.25;" x="181.011337" xlink:href="#m13960bed7c" y="190.48223"/>
     <use style="fill:#ff0000;stroke:#ffffff;stroke-linejoin:miter;stroke-width:0.25;" x="184.830802" xlink:href="#m13960bed7c" y="190.48223"/>
     <use style="fill:#ff0000;stroke:#ffffff;stroke-linejoin:miter;stroke-width:0.25;" x="188.650267" xlink:href="#m13960bed7c" y="190.48223"/>
     <use style="fill:#ff0000;stroke:#ffffff;stroke-linejoin:miter;stroke-width:0.25;" x="192.469733" xlink:href="#m13960bed7c" y="190.48223"/>
     <use style="fill:#ff0000;stroke:#ffffff;stroke-linejoin:miter;stroke-width:0.25;" x="196.289198" xlink:href="#m13960bed7c" y="190.48223"/>
     <use style="fill:#ff0000;stroke:#ffffff;stroke-linejoin:miter;stroke-width:0.25;" x="200.108663" xlink:href="#m13960bed7c" y="190.48223"/>
     <use style="fill:#ff0000;stroke:#ffffff;stroke-linejoin:miter;stroke-width:0.25;" x="203.928128" xlink:href="#m13960bed7c" y="190.48223"/>
     <use style="fill:#ff0000;stroke:#ffffff;stroke-linejoin:miter;stroke-width:0.25;" x="207.747594" xlink:href="#m13960bed7c" y="190.48223"/>
     <use style="fill:#ff0000;stroke:#ffffff;stroke-linejoin:miter;stroke-width:0.25;" x="211.567059" xlink:href="#m13960bed7c" y="190.48223"/>
     <use style="fill:#ff0000;stroke:#ffffff;stroke-linejoin:miter;stroke-width:0.25;" x="215.386524" xlink:href="#m13960bed7c" y="190.470143"/>
     <use style="fill:#ff0000;stroke:#ffffff;stroke-linejoin:miter;stroke-width:0.25;" x="219.205989" xlink:href="#m13960bed7c" y="190.470143"/>
     <use style="fill:#ff0000;stroke:#ffffff;stroke-linejoin:miter;stroke-width:0.25;" x="223.025455" xlink:href="#m13960bed7c" y="190.458056"/>
     <use style="fill:#ff0000;stroke:#ffffff;stroke-linejoin:miter;stroke-width:0.25;" x="226.84492" xlink:href="#m13960bed7c" y="190.458056"/>
     <use style="fill:#ff0000;stroke:#ffffff;stroke-linejoin:miter;stroke-width:0.25;" x="230.664385" xlink:href="#m13960bed7c" y="190.458056"/>
     <use style="fill:#ff0000;stroke:#ffffff;stroke-linejoin:miter;stroke-width:0.25;" x="234.48385" xlink:href="#m13960bed7c" y="190.458056"/>
     <use style="fill:#ff0000;stroke:#ffffff;stroke-linejoin:miter;stroke-width:0.25;" x="238.303316" xlink:href="#m13960bed7c" y="190.445969"/>
     <use style="fill:#ff0000;stroke:#ffffff;stroke-linejoin:miter;stroke-width:0.25;" x="242.122781" xlink:href="#m13960bed7c" y="190.445969"/>
     <use style="fill:#ff0000;stroke:#ffffff;stroke-linejoin:miter;stroke-width:0.25;" x="245.942246" xlink:href="#m13960bed7c" y="190.433882"/>
     <use style="fill:#ff0000;stroke:#ffffff;stroke-linejoin:miter;stroke-width:0.25;" x="249.761711" xlink:href="#m13960bed7c" y="190.421796"/>
     <use style="fill:#ff0000;stroke:#ffffff;stroke-linejoin:miter;stroke-width:0.25;" x="253.581176" xlink:href="#m13960bed7c" y="190.433882"/>
     <use style="fill:#ff0000;stroke:#ffffff;stroke-linejoin:miter;stroke-width:0.25;" x="257.400642" xlink:href="#m13960bed7c" y="190.397622"/>
     <use style="fill:#ff0000;stroke:#ffffff;stroke-linejoin:miter;stroke-width:0.25;" x="261.220107" xlink:href="#m13960bed7c" y="190.361361"/>
     <use style="fill:#ff0000;stroke:#ffffff;stroke-linejoin:miter;stroke-width:0.25;" x="265.039572" xlink:href="#m13960bed7c" y="190.361361"/>
     <use style="fill:#ff0000;stroke:#ffffff;stroke-linejoin:miter;stroke-width:0.25;" x="268.859037" xlink:href="#m13960bed7c" y="190.337187"/>
     <use style="fill:#ff0000;stroke:#ffffff;stroke-linejoin:miter;stroke-width:0.25;" x="272.678503" xlink:href="#m13960bed7c" y="190.240492"/>
     <use style="fill:#ff0000;stroke:#ffffff;stroke-linejoin:miter;stroke-width:0.25;" x="276.497968" xlink:href="#m13960bed7c" y="190.240492"/>
     <use style="fill:#ff0000;stroke:#ffffff;stroke-linejoin:miter;stroke-width:0.25;" x="280.317433" xlink:href="#m13960bed7c" y="190.192144"/>
     <use style="fill:#ff0000;stroke:#ffffff;stroke-linejoin:miter;stroke-width:0.25;" x="284.136898" xlink:href="#m13960bed7c" y="190.155883"/>
     <use style="fill:#ff0000;stroke:#ffffff;stroke-linejoin:miter;stroke-width:0.25;" x="287.956364" xlink:href="#m13960bed7c" y="190.095449"/>
     <use style="fill:#ff0000;stroke:#ffffff;stroke-linejoin:miter;stroke-width:0.25;" x="291.775829" xlink:href="#m13960bed7c" y="190.059188"/>
     <use style="fill:#ff0000;stroke:#ffffff;stroke-linejoin:miter;stroke-width:0.25;" x="295.595294" xlink:href="#m13960bed7c" y="189.781189"/>
     <use style="fill:#ff0000;stroke:#ffffff;stroke-linejoin:miter;stroke-width:0.25;" x="299.414759" xlink:href="#m13960bed7c" y="189.611972"/>
     <use style="fill:#ff0000;stroke:#ffffff;stroke-linejoin:miter;stroke-width:0.25;" x="303.234225" xlink:href="#m13960bed7c" y="189.611972"/>
     <use style="fill:#ff0000;stroke:#ffffff;stroke-linejoin:miter;stroke-width:0.25;" x="307.05369" xlink:href="#m13960bed7c" y="189.442755"/>
     <use style="fill:#ff0000;stroke:#ffffff;stroke-linejoin:miter;stroke-width:0.25;" x="310.873155" xlink:href="#m13960bed7c" y="189.285625"/>
     <use style="fill:#ff0000;stroke:#ffffff;stroke-linejoin:miter;stroke-width:0.25;" x="314.69262" xlink:href="#m13960bed7c" y="188.83841"/>
     <use style="fill:#ff0000;stroke:#ffffff;stroke-linejoin:miter;stroke-width:0.25;" x="318.512086" xlink:href="#m13960bed7c" y="188.669193"/>
     <use style="fill:#ff0000;stroke:#ffffff;stroke-linejoin:miter;stroke-width:0.25;" x="322.331551" xlink:href="#m13960bed7c" y="188.330759"/>
     <use style="fill:#ff0000;stroke:#ffffff;stroke-linejoin:miter;stroke-width:0.25;" x="326.151016" xlink:href="#m13960bed7c" y="187.750587"/>
     <use style="fill:#ff0000;stroke:#ffffff;stroke-linejoin:miter;stroke-width:0.25;" x="329.970481" xlink:href="#m13960bed7c" y="187.508849"/>
     <use style="fill:#ff0000;stroke:#ffffff;stroke-linejoin:miter;stroke-width:0.25;" x="333.789947" xlink:href="#m13960bed7c" y="187.001199"/>
     <use style="fill:#ff0000;stroke:#ffffff;stroke-linejoin:miter;stroke-width:0.25;" x="337.609412" xlink:href="#m13960bed7c" y="186.481461"/>
     <use style="fill:#ff0000;stroke:#ffffff;stroke-linejoin:miter;stroke-width:0.25;" x="341.428877" xlink:href="#m13960bed7c" y="186.155114"/>
     <use style="fill:#ff0000;stroke:#ffffff;stroke-linejoin:miter;stroke-width:0.25;" x="345.248342" xlink:href="#m13960bed7c" y="185.732072"/>
     <use style="fill:#ff0000;stroke:#ffffff;stroke-linejoin:miter;stroke-width:0.25;" x="349.067807" xlink:href="#m13960bed7c" y="185.587029"/>
     <use style="fill:#ff0000;stroke:#ffffff;stroke-linejoin:miter;stroke-width:0.25;" x="352.887273" xlink:href="#m13960bed7c" y="185.067292"/>
    </g>
   </g>
   <g id="line2d_16"/>
   <g id="line2d_17"/>
   <g id="line2d_18"/>
   <g id="line2d_19"/>
   <g id="line2d_20">
    <path clip-path="url(#p788f4a91ff)" d="M 12 28.154957 
L 369.12 28.154957 
" style="fill:none;stroke:#4c72b0;stroke-dasharray:0.5,0.825;stroke-dashoffset:0;stroke-width:0.5;"/>
   </g>
   <g id="line2d_21">
    <path clip-path="url(#p788f4a91ff)" d="M 12 185.067292 
L 369.12 185.067292 
" style="fill:none;stroke:#4c72b0;stroke-dasharray:0.5,0.825;stroke-dashoffset:0;stroke-width:0.5;"/>
   </g>
   <g id="line2d_22">
    <path clip-path="url(#p788f4a91ff)" d="M 12 169.112564 
L 369.12 169.112564 
" style="fill:none;stroke:#4c72b0;stroke-dasharray:0.5,0.825;stroke-dashoffset:0;stroke-width:0.5;"/>
   </g>
   <g id="line2d_23">
    <path clip-path="url(#p788f4a91ff)" d="M 352.887273 198.598594 
L 352.887273 20.038594 
" style="fill:none;stroke:#4c72b0;stroke-dasharray:0.5,0.825;stroke-dashoffset:0;stroke-width:0.5;"/>
   </g>
   <g id="patch_3">
    <path d="M 12 198.598594 
L 12 20.038594 
" style="fill:none;stroke:#262626;stroke-linecap:square;stroke-linejoin:miter;stroke-width:0.5;"/>
   </g>
   <g id="patch_4">
    <path d="M 12 198.598594 
L 369.12 198.598594 
" style="fill:none;stroke:#262626;stroke-linecap:square;stroke-linejoin:miter;stroke-width:0.5;"/>
   </g>
   <g id="text_7">
    <!-- 13430 -->
    <defs>
     <path d="M 40.578125 39.3125 
Q 47.65625 37.796875 51.625 33 
Q 55.609375 28.21875 55.609375 21.1875 
Q 55.609375 10.40625 48.1875 4.484375 
Q 40.765625 -1.421875 27.09375 -1.421875 
Q 22.515625 -1.421875 17.65625 -0.515625 
Q 12.796875 0.390625 7.625 2.203125 
L 7.625 11.71875 
Q 11.71875 9.328125 16.59375 8.109375 
Q 21.484375 6.890625 26.8125 6.890625 
Q 36.078125 6.890625 40.9375 10.546875 
Q 45.796875 14.203125 45.796875 21.1875 
Q 45.796875 27.640625 41.28125 31.265625 
Q 36.765625 34.90625 28.71875 34.90625 
L 20.21875 34.90625 
L 20.21875 43.015625 
L 29.109375 43.015625 
Q 36.375 43.015625 40.234375 45.921875 
Q 44.09375 48.828125 44.09375 54.296875 
Q 44.09375 59.90625 40.109375 62.90625 
Q 36.140625 65.921875 28.71875 65.921875 
Q 24.65625 65.921875 20.015625 65.03125 
Q 15.375 64.15625 9.8125 62.3125 
L 9.8125 71.09375 
Q 15.4375 72.65625 20.34375 73.4375 
Q 25.25 74.21875 29.59375 74.21875 
Q 40.828125 74.21875 47.359375 69.109375 
Q 53.90625 64.015625 53.90625 55.328125 
Q 53.90625 49.265625 50.4375 45.09375 
Q 46.96875 40.921875 40.578125 39.3125 
z
" id="DejaVuSans-51"/>
     <path d="M 37.796875 64.3125 
L 12.890625 25.390625 
L 37.796875 25.390625 
z
M 35.203125 72.90625 
L 47.609375 72.90625 
L 47.609375 25.390625 
L 58.015625 25.390625 
L 58.015625 17.1875 
L 47.609375 17.1875 
L 47.609375 0 
L 37.796875 0 
L 37.796875 17.1875 
L 4.890625 17.1875 
L 4.890625 26.703125 
z
" id="DejaVuSans-52"/>
    </defs>
    <g style="fill:#ff0000;" transform="translate(15.5712 26.491207)scale(0.08 -0.08)">
     <use xlink:href="#DejaVuSans-49"/>
     <use x="63.623047" xlink:href="#DejaVuSans-51"/>
     <use x="127.246094" xlink:href="#DejaVuSans-52"/>
     <use x="190.869141" xlink:href="#DejaVuSans-51"/>
     <use x="254.492188" xlink:href="#DejaVuSans-48"/>
    </g>
   </g>
   <g id="text_8">
    <!-- 448 -->
    <defs>
     <path d="M 31.78125 34.625 
Q 24.75 34.625 20.71875 30.859375 
Q 16.703125 27.09375 16.703125 20.515625 
Q 16.703125 13.921875 20.71875 10.15625 
Q 24.75 6.390625 31.78125 6.390625 
Q 38.8125 6.390625 42.859375 10.171875 
Q 46.921875 13.96875 46.921875 20.515625 
Q 46.921875 27.09375 42.890625 30.859375 
Q 38.875 34.625 31.78125 34.625 
z
M 21.921875 38.8125 
Q 15.578125 40.375 12.03125 44.71875 
Q 8.5 49.078125 8.5 55.328125 
Q 8.5 64.0625 14.71875 69.140625 
Q 20.953125 74.21875 31.78125 74.21875 
Q 42.671875 74.21875 48.875 69.140625 
Q 55.078125 64.0625 55.078125 55.328125 
Q 55.078125 49.078125 51.53125 44.71875 
Q 48 40.375 41.703125 38.8125 
Q 48.828125 37.15625 52.796875 32.3125 
Q 56.78125 27.484375 56.78125 20.515625 
Q 56.78125 9.90625 50.3125 4.234375 
Q 43.84375 -1.421875 31.78125 -1.421875 
Q 19.734375 -1.421875 13.25 4.234375 
Q 6.78125 9.90625 6.78125 20.515625 
Q 6.78125 27.484375 10.78125 32.3125 
Q 14.796875 37.15625 21.921875 38.8125 
z
M 18.3125 54.390625 
Q 18.3125 48.734375 21.84375 45.5625 
Q 25.390625 42.390625 31.78125 42.390625 
Q 38.140625 42.390625 41.71875 45.5625 
Q 45.3125 48.734375 45.3125 54.390625 
Q 45.3125 60.0625 41.71875 63.234375 
Q 38.140625 66.40625 31.78125 66.40625 
Q 25.390625 66.40625 21.84375 63.234375 
Q 18.3125 60.0625 18.3125 54.390625 
z
" id="DejaVuSans-56"/>
    </defs>
    <g style="fill:#ff0000;" transform="translate(15.5712 183.403542)scale(0.08 -0.08)">
     <use xlink:href="#DejaVuSans-52"/>
     <use x="63.623047" xlink:href="#DejaVuSans-52"/>
     <use x="127.246094" xlink:href="#DejaVuSans-56"/>
    </g>
   </g>
   <g id="text_9">
    <!-- 1768 -->
    <defs>
     <path d="M 8.203125 72.90625 
L 55.078125 72.90625 
L 55.078125 68.703125 
L 28.609375 0 
L 18.3125 0 
L 43.21875 64.59375 
L 8.203125 64.59375 
z
" id="DejaVuSans-55"/>
    </defs>
    <g style="fill:#008000;" transform="translate(15.5712 167.448814)scale(0.08 -0.08)">
     <use xlink:href="#DejaVuSans-49"/>
     <use x="63.623047" xlink:href="#DejaVuSans-55"/>
     <use x="127.246094" xlink:href="#DejaVuSans-54"/>
     <use x="190.869141" xlink:href="#DejaVuSans-56"/>
    </g>
   </g>
   <g id="text_10">
    <!-- COVID-19 Cases, Recoveries &amp; Deaths Graph -->
    <defs>
     <path d="M 64.40625 67.28125 
L 64.40625 56.890625 
Q 59.421875 61.53125 53.78125 63.8125 
Q 48.140625 66.109375 41.796875 66.109375 
Q 29.296875 66.109375 22.65625 58.46875 
Q 16.015625 50.828125 16.015625 36.375 
Q 16.015625 21.96875 22.65625 14.328125 
Q 29.296875 6.6875 41.796875 6.6875 
Q 48.140625 6.6875 53.78125 8.984375 
Q 59.421875 11.28125 64.40625 15.921875 
L 64.40625 5.609375 
Q 59.234375 2.09375 53.4375 0.328125 
Q 47.65625 -1.421875 41.21875 -1.421875 
Q 24.65625 -1.421875 15.125 8.703125 
Q 5.609375 18.84375 5.609375 36.375 
Q 5.609375 53.953125 15.125 64.078125 
Q 24.65625 74.21875 41.21875 74.21875 
Q 47.75 74.21875 53.53125 72.484375 
Q 59.328125 70.75 64.40625 67.28125 
z
" id="DejaVuSans-67"/>
     <path d="M 39.40625 66.21875 
Q 28.65625 66.21875 22.328125 58.203125 
Q 16.015625 50.203125 16.015625 36.375 
Q 16.015625 22.609375 22.328125 14.59375 
Q 28.65625 6.59375 39.40625 6.59375 
Q 50.140625 6.59375 56.421875 14.59375 
Q 62.703125 22.609375 62.703125 36.375 
Q 62.703125 50.203125 56.421875 58.203125 
Q 50.140625 66.21875 39.40625 66.21875 
z
M 39.40625 74.21875 
Q 54.734375 74.21875 63.90625 63.9375 
Q 73.09375 53.65625 73.09375 36.375 
Q 73.09375 19.140625 63.90625 8.859375 
Q 54.734375 -1.421875 39.40625 -1.421875 
Q 24.03125 -1.421875 14.8125 8.828125 
Q 5.609375 19.09375 5.609375 36.375 
Q 5.609375 53.65625 14.8125 63.9375 
Q 24.03125 74.21875 39.40625 74.21875 
z
" id="DejaVuSans-79"/>
     <path d="M 28.609375 0 
L 0.78125 72.90625 
L 11.078125 72.90625 
L 34.1875 11.53125 
L 57.328125 72.90625 
L 67.578125 72.90625 
L 39.796875 0 
z
" id="DejaVuSans-86"/>
     <path d="M 9.8125 72.90625 
L 19.671875 72.90625 
L 19.671875 0 
L 9.8125 0 
z
" id="DejaVuSans-73"/>
     <path d="M 19.671875 64.796875 
L 19.671875 8.109375 
L 31.59375 8.109375 
Q 46.6875 8.109375 53.6875 14.9375 
Q 60.6875 21.78125 60.6875 36.53125 
Q 60.6875 51.171875 53.6875 57.984375 
Q 46.6875 64.796875 31.59375 64.796875 
z
M 9.8125 72.90625 
L 30.078125 72.90625 
Q 51.265625 72.90625 61.171875 64.09375 
Q 71.09375 55.28125 71.09375 36.53125 
Q 71.09375 17.671875 61.125 8.828125 
Q 51.171875 0 30.078125 0 
L 9.8125 0 
z
" id="DejaVuSans-68"/>
     <path d="M 4.890625 31.390625 
L 31.203125 31.390625 
L 31.203125 23.390625 
L 4.890625 23.390625 
z
" id="DejaVuSans-45"/>
     <path d="M 10.984375 1.515625 
L 10.984375 10.5 
Q 14.703125 8.734375 18.5 7.8125 
Q 22.3125 6.890625 25.984375 6.890625 
Q 35.75 6.890625 40.890625 13.453125 
Q 46.046875 20.015625 46.78125 33.40625 
Q 43.953125 29.203125 39.59375 26.953125 
Q 35.25 24.703125 29.984375 24.703125 
Q 19.046875 24.703125 12.671875 31.3125 
Q 6.296875 37.9375 6.296875 49.421875 
Q 6.296875 60.640625 12.9375 67.421875 
Q 19.578125 74.21875 30.609375 74.21875 
Q 43.265625 74.21875 49.921875 64.515625 
Q 56.59375 54.828125 56.59375 36.375 
Q 56.59375 19.140625 48.40625 8.859375 
Q 40.234375 -1.421875 26.421875 -1.421875 
Q 22.703125 -1.421875 18.890625 -0.6875 
Q 15.09375 0.046875 10.984375 1.515625 
z
M 30.609375 32.421875 
Q 37.25 32.421875 41.125 36.953125 
Q 45.015625 41.5 45.015625 49.421875 
Q 45.015625 57.28125 41.125 61.84375 
Q 37.25 66.40625 30.609375 66.40625 
Q 23.96875 66.40625 20.09375 61.84375 
Q 16.21875 57.28125 16.21875 49.421875 
Q 16.21875 41.5 20.09375 36.953125 
Q 23.96875 32.421875 30.609375 32.421875 
z
" id="DejaVuSans-57"/>
     <path d="M 44.28125 53.078125 
L 44.28125 44.578125 
Q 40.484375 46.53125 36.375 47.5 
Q 32.28125 48.484375 27.875 48.484375 
Q 21.1875 48.484375 17.84375 46.4375 
Q 14.5 44.390625 14.5 40.28125 
Q 14.5 37.15625 16.890625 35.375 
Q 19.28125 33.59375 26.515625 31.984375 
L 29.59375 31.296875 
Q 39.15625 29.25 43.1875 25.515625 
Q 47.21875 21.78125 47.21875 15.09375 
Q 47.21875 7.46875 41.1875 3.015625 
Q 35.15625 -1.421875 24.609375 -1.421875 
Q 20.21875 -1.421875 15.453125 -0.5625 
Q 10.6875 0.296875 5.421875 2 
L 5.421875 11.28125 
Q 10.40625 8.6875 15.234375 7.390625 
Q 20.0625 6.109375 24.8125 6.109375 
Q 31.15625 6.109375 34.5625 8.28125 
Q 37.984375 10.453125 37.984375 14.40625 
Q 37.984375 18.0625 35.515625 20.015625 
Q 33.0625 21.96875 24.703125 23.78125 
L 21.578125 24.515625 
Q 13.234375 26.265625 9.515625 29.90625 
Q 5.8125 33.546875 5.8125 39.890625 
Q 5.8125 47.609375 11.28125 51.796875 
Q 16.75 56 26.8125 56 
Q 31.78125 56 36.171875 55.265625 
Q 40.578125 54.546875 44.28125 53.078125 
z
" id="DejaVuSans-115"/>
     <path d="M 11.71875 12.40625 
L 22.015625 12.40625 
L 22.015625 4 
L 14.015625 -11.625 
L 7.71875 -11.625 
L 11.71875 4 
z
" id="DejaVuSans-44"/>
     <path d="M 44.390625 34.1875 
Q 47.5625 33.109375 50.5625 29.59375 
Q 53.5625 26.078125 56.59375 19.921875 
L 66.609375 0 
L 56 0 
L 46.6875 18.703125 
Q 43.0625 26.03125 39.671875 28.421875 
Q 36.28125 30.8125 30.421875 30.8125 
L 19.671875 30.8125 
L 19.671875 0 
L 9.8125 0 
L 9.8125 72.90625 
L 32.078125 72.90625 
Q 44.578125 72.90625 50.734375 67.671875 
Q 56.890625 62.453125 56.890625 51.90625 
Q 56.890625 45.015625 53.6875 40.46875 
Q 50.484375 35.9375 44.390625 34.1875 
z
M 19.671875 64.796875 
L 19.671875 38.921875 
L 32.078125 38.921875 
Q 39.203125 38.921875 42.84375 42.21875 
Q 46.484375 45.515625 46.484375 51.90625 
Q 46.484375 58.296875 42.84375 61.546875 
Q 39.203125 64.796875 32.078125 64.796875 
z
" id="DejaVuSans-82"/>
     <path d="M 48.78125 52.59375 
L 48.78125 44.1875 
Q 44.96875 46.296875 41.140625 47.34375 
Q 37.3125 48.390625 33.40625 48.390625 
Q 24.65625 48.390625 19.8125 42.84375 
Q 14.984375 37.3125 14.984375 27.296875 
Q 14.984375 17.28125 19.8125 11.734375 
Q 24.65625 6.203125 33.40625 6.203125 
Q 37.3125 6.203125 41.140625 7.25 
Q 44.96875 8.296875 48.78125 10.40625 
L 48.78125 2.09375 
Q 45.015625 0.34375 40.984375 -0.53125 
Q 36.96875 -1.421875 32.421875 -1.421875 
Q 20.0625 -1.421875 12.78125 6.34375 
Q 5.515625 14.109375 5.515625 27.296875 
Q 5.515625 40.671875 12.859375 48.328125 
Q 20.21875 56 33.015625 56 
Q 37.15625 56 41.109375 55.140625 
Q 45.0625 54.296875 48.78125 52.59375 
z
" id="DejaVuSans-99"/>
     <path d="M 30.609375 48.390625 
Q 23.390625 48.390625 19.1875 42.75 
Q 14.984375 37.109375 14.984375 27.296875 
Q 14.984375 17.484375 19.15625 11.84375 
Q 23.34375 6.203125 30.609375 6.203125 
Q 37.796875 6.203125 41.984375 11.859375 
Q 46.1875 17.53125 46.1875 27.296875 
Q 46.1875 37.015625 41.984375 42.703125 
Q 37.796875 48.390625 30.609375 48.390625 
z
M 30.609375 56 
Q 42.328125 56 49.015625 48.375 
Q 55.71875 40.765625 55.71875 27.296875 
Q 55.71875 13.875 49.015625 6.21875 
Q 42.328125 -1.421875 30.609375 -1.421875 
Q 18.84375 -1.421875 12.171875 6.21875 
Q 5.515625 13.875 5.515625 27.296875 
Q 5.515625 40.765625 12.171875 48.375 
Q 18.84375 56 30.609375 56 
z
" id="DejaVuSans-111"/>
     <path d="M 2.984375 54.6875 
L 12.5 54.6875 
L 29.59375 8.796875 
L 46.6875 54.6875 
L 56.203125 54.6875 
L 35.6875 0 
L 23.484375 0 
z
" id="DejaVuSans-118"/>
     <path d="M 9.421875 54.6875 
L 18.40625 54.6875 
L 18.40625 0 
L 9.421875 0 
z
M 9.421875 75.984375 
L 18.40625 75.984375 
L 18.40625 64.59375 
L 9.421875 64.59375 
z
" id="DejaVuSans-105"/>
     <path d="M 24.3125 39.203125 
Q 19.875 35.25 17.796875 31.3125 
Q 15.71875 27.390625 15.71875 23.09375 
Q 15.71875 15.96875 20.890625 11.234375 
Q 26.078125 6.5 33.890625 6.5 
Q 38.53125 6.5 42.578125 8.03125 
Q 46.625 9.578125 50.203125 12.703125 
z
M 31.203125 44.671875 
L 56 19.28125 
Q 58.890625 23.640625 60.5 28.59375 
Q 62.109375 33.546875 62.40625 39.109375 
L 71.484375 39.109375 
Q 70.90625 32.671875 68.359375 26.359375 
Q 65.828125 20.0625 61.28125 13.921875 
L 74.90625 0 
L 62.59375 0 
L 55.609375 7.171875 
Q 50.53125 2.828125 44.96875 0.703125 
Q 39.40625 -1.421875 33.015625 -1.421875 
Q 21.234375 -1.421875 13.765625 5.296875 
Q 6.296875 12.015625 6.296875 22.515625 
Q 6.296875 28.765625 9.5625 34.25 
Q 12.84375 39.75 19.390625 44.578125 
Q 17.046875 47.65625 15.8125 50.703125 
Q 14.59375 53.765625 14.59375 56.6875 
Q 14.59375 64.59375 20.015625 69.40625 
Q 25.4375 74.21875 34.421875 74.21875 
Q 38.484375 74.21875 42.5 73.34375 
Q 46.53125 72.46875 50.6875 70.703125 
L 50.6875 61.8125 
Q 46.4375 64.109375 42.578125 65.296875 
Q 38.71875 66.5 35.40625 66.5 
Q 30.28125 66.5 27.078125 63.78125 
Q 23.875 61.078125 23.875 56.78125 
Q 23.875 54.296875 25.3125 51.78125 
Q 26.765625 49.265625 31.203125 44.671875 
z
" id="DejaVuSans-38"/>
     <path d="M 18.3125 70.21875 
L 18.3125 54.6875 
L 36.8125 54.6875 
L 36.8125 47.703125 
L 18.3125 47.703125 
L 18.3125 18.015625 
Q 18.3125 11.328125 20.140625 9.421875 
Q 21.96875 7.515625 27.59375 7.515625 
L 36.8125 7.515625 
L 36.8125 0 
L 27.59375 0 
Q 17.1875 0 13.234375 3.875 
Q 9.28125 7.765625 9.28125 18.015625 
L 9.28125 47.703125 
L 2.6875 47.703125 
L 2.6875 54.6875 
L 9.28125 54.6875 
L 9.28125 70.21875 
z
" id="DejaVuSans-116"/>
     <path d="M 54.890625 33.015625 
L 54.890625 0 
L 45.90625 0 
L 45.90625 32.71875 
Q 45.90625 40.484375 42.875 44.328125 
Q 39.84375 48.1875 33.796875 48.1875 
Q 26.515625 48.1875 22.3125 43.546875 
Q 18.109375 38.921875 18.109375 30.90625 
L 18.109375 0 
L 9.078125 0 
L 9.078125 75.984375 
L 18.109375 75.984375 
L 18.109375 46.1875 
Q 21.34375 51.125 25.703125 53.5625 
Q 30.078125 56 35.796875 56 
Q 45.21875 56 50.046875 50.171875 
Q 54.890625 44.34375 54.890625 33.015625 
z
" id="DejaVuSans-104"/>
     <path d="M 59.515625 10.40625 
L 59.515625 29.984375 
L 43.40625 29.984375 
L 43.40625 38.09375 
L 69.28125 38.09375 
L 69.28125 6.78125 
Q 63.578125 2.734375 56.6875 0.65625 
Q 49.8125 -1.421875 42 -1.421875 
Q 24.90625 -1.421875 15.25 8.5625 
Q 5.609375 18.5625 5.609375 36.375 
Q 5.609375 54.25 15.25 64.234375 
Q 24.90625 74.21875 42 74.21875 
Q 49.125 74.21875 55.546875 72.453125 
Q 61.96875 70.703125 67.390625 67.28125 
L 67.390625 56.78125 
Q 61.921875 61.421875 55.765625 63.765625 
Q 49.609375 66.109375 42.828125 66.109375 
Q 29.4375 66.109375 22.71875 58.640625 
Q 16.015625 51.171875 16.015625 36.375 
Q 16.015625 21.625 22.71875 14.15625 
Q 29.4375 6.6875 42.828125 6.6875 
Q 48.046875 6.6875 52.140625 7.59375 
Q 56.25 8.5 59.515625 10.40625 
z
" id="DejaVuSans-71"/>
    </defs>
    <g style="fill:#262626;" transform="translate(88.964766 14.038594)scale(0.09 -0.09)">
     <use xlink:href="#DejaVuSans-67"/>
     <use x="69.824219" xlink:href="#DejaVuSans-79"/>
     <use x="146.785156" xlink:href="#DejaVuSans-86"/>
     <use x="215.193359" xlink:href="#DejaVuSans-73"/>
     <use x="244.685547" xlink:href="#DejaVuSans-68"/>
     <use x="321.6875" xlink:href="#DejaVuSans-45"/>
     <use x="357.771484" xlink:href="#DejaVuSans-49"/>
     <use x="421.394531" xlink:href="#DejaVuSans-57"/>
     <use x="485.017578" xlink:href="#DejaVuSans-32"/>
     <use x="516.804688" xlink:href="#DejaVuSans-67"/>
     <use x="586.628906" xlink:href="#DejaVuSans-97"/>
     <use x="647.908203" xlink:href="#DejaVuSans-115"/>
     <use x="700.007812" xlink:href="#DejaVuSans-101"/>
     <use x="761.53125" xlink:href="#DejaVuSans-115"/>
     <use x="813.630859" xlink:href="#DejaVuSans-44"/>
     <use x="845.417969" xlink:href="#DejaVuSans-32"/>
     <use x="877.205078" xlink:href="#DejaVuSans-82"/>
     <use x="942.1875" xlink:href="#DejaVuSans-101"/>
     <use x="1003.710938" xlink:href="#DejaVuSans-99"/>
     <use x="1058.691406" xlink:href="#DejaVuSans-111"/>
     <use x="1119.873047" xlink:href="#DejaVuSans-118"/>
     <use x="1179.052734" xlink:href="#DejaVuSans-101"/>
     <use x="1240.576172" xlink:href="#DejaVuSans-114"/>
     <use x="1281.689453" xlink:href="#DejaVuSans-105"/>
     <use x="1309.472656" xlink:href="#DejaVuSans-101"/>
     <use x="1370.996094" xlink:href="#DejaVuSans-115"/>
     <use x="1423.095703" xlink:href="#DejaVuSans-32"/>
     <use x="1454.882812" xlink:href="#DejaVuSans-38"/>
     <use x="1532.861328" xlink:href="#DejaVuSans-32"/>
     <use x="1564.648438" xlink:href="#DejaVuSans-68"/>
     <use x="1641.650391" xlink:href="#DejaVuSans-101"/>
     <use x="1703.173828" xlink:href="#DejaVuSans-97"/>
     <use x="1764.453125" xlink:href="#DejaVuSans-116"/>
     <use x="1803.662109" xlink:href="#DejaVuSans-104"/>
     <use x="1867.041016" xlink:href="#DejaVuSans-115"/>
     <use x="1919.140625" xlink:href="#DejaVuSans-32"/>
     <use x="1950.927734" xlink:href="#DejaVuSans-71"/>
     <use x="2028.417969" xlink:href="#DejaVuSans-114"/>
     <use x="2069.53125" xlink:href="#DejaVuSans-97"/>
     <use x="2130.810547" xlink:href="#DejaVuSans-112"/>
     <use x="2194.287109" xlink:href="#DejaVuSans-104"/>
    </g>
   </g>
   <g id="legend_1">
    <g id="line2d_24">
     <path d="M 19.92 95.750094 
L 37.52 95.750094 
" style="fill:none;stroke:#ffa500;stroke-linecap:round;stroke-width:1.5;"/>
    </g>
    <g id="line2d_25">
     <g>
      <use style="fill:#ffa500;stroke:#ffffff;stroke-width:0.25;" x="28.72" xlink:href="#mc40e45cc75" y="95.750094"/>
     </g>
    </g>
    <g id="text_11">
     <!-- Confirmed Cases -->
     <defs>
      <path d="M 54.890625 33.015625 
L 54.890625 0 
L 45.90625 0 
L 45.90625 32.71875 
Q 45.90625 40.484375 42.875 44.328125 
Q 39.84375 48.1875 33.796875 48.1875 
Q 26.515625 48.1875 22.3125 43.546875 
Q 18.109375 38.921875 18.109375 30.90625 
L 18.109375 0 
L 9.078125 0 
L 9.078125 54.6875 
L 18.109375 54.6875 
L 18.109375 46.1875 
Q 21.34375 51.125 25.703125 53.5625 
Q 30.078125 56 35.796875 56 
Q 45.21875 56 50.046875 50.171875 
Q 54.890625 44.34375 54.890625 33.015625 
z
" id="DejaVuSans-110"/>
      <path d="M 37.109375 75.984375 
L 37.109375 68.5 
L 28.515625 68.5 
Q 23.6875 68.5 21.796875 66.546875 
Q 19.921875 64.59375 19.921875 59.515625 
L 19.921875 54.6875 
L 34.71875 54.6875 
L 34.71875 47.703125 
L 19.921875 47.703125 
L 19.921875 0 
L 10.890625 0 
L 10.890625 47.703125 
L 2.296875 47.703125 
L 2.296875 54.6875 
L 10.890625 54.6875 
L 10.890625 58.5 
Q 10.890625 67.625 15.140625 71.796875 
Q 19.390625 75.984375 28.609375 75.984375 
z
" id="DejaVuSans-102"/>
      <path d="M 52 44.1875 
Q 55.375 50.25 60.0625 53.125 
Q 64.75 56 71.09375 56 
Q 79.640625 56 84.28125 50.015625 
Q 88.921875 44.046875 88.921875 33.015625 
L 88.921875 0 
L 79.890625 0 
L 79.890625 32.71875 
Q 79.890625 40.578125 77.09375 44.375 
Q 74.3125 48.1875 68.609375 48.1875 
Q 61.625 48.1875 57.5625 43.546875 
Q 53.515625 38.921875 53.515625 30.90625 
L 53.515625 0 
L 44.484375 0 
L 44.484375 32.71875 
Q 44.484375 40.625 41.703125 44.40625 
Q 38.921875 48.1875 33.109375 48.1875 
Q 26.21875 48.1875 22.15625 43.53125 
Q 18.109375 38.875 18.109375 30.90625 
L 18.109375 0 
L 9.078125 0 
L 9.078125 54.6875 
L 18.109375 54.6875 
L 18.109375 46.1875 
Q 21.1875 51.21875 25.484375 53.609375 
Q 29.78125 56 35.6875 56 
Q 41.65625 56 45.828125 52.96875 
Q 50 49.953125 52 44.1875 
z
" id="DejaVuSans-109"/>
      <path d="M 45.40625 46.390625 
L 45.40625 75.984375 
L 54.390625 75.984375 
L 54.390625 0 
L 45.40625 0 
L 45.40625 8.203125 
Q 42.578125 3.328125 38.25 0.953125 
Q 33.9375 -1.421875 27.875 -1.421875 
Q 17.96875 -1.421875 11.734375 6.484375 
Q 5.515625 14.40625 5.515625 27.296875 
Q 5.515625 40.1875 11.734375 48.09375 
Q 17.96875 56 27.875 56 
Q 33.9375 56 38.25 53.625 
Q 42.578125 51.265625 45.40625 46.390625 
z
M 14.796875 27.296875 
Q 14.796875 17.390625 18.875 11.75 
Q 22.953125 6.109375 30.078125 6.109375 
Q 37.203125 6.109375 41.296875 11.75 
Q 45.40625 17.390625 45.40625 27.296875 
Q 45.40625 37.203125 41.296875 42.84375 
Q 37.203125 48.484375 30.078125 48.484375 
Q 22.953125 48.484375 18.875 42.84375 
Q 14.796875 37.203125 14.796875 27.296875 
z
" id="DejaVuSans-100"/>
     </defs>
     <g style="fill:#262626;" transform="translate(44.56 98.830094)scale(0.088 -0.088)">
      <use xlink:href="#DejaVuSans-67"/>
      <use x="69.824219" xlink:href="#DejaVuSans-111"/>
      <use x="131.005859" xlink:href="#DejaVuSans-110"/>
      <use x="194.384766" xlink:href="#DejaVuSans-102"/>
      <use x="229.589844" xlink:href="#DejaVuSans-105"/>
      <use x="257.373047" xlink:href="#DejaVuSans-114"/>
      <use x="296.736328" xlink:href="#DejaVuSans-109"/>
      <use x="394.148438" xlink:href="#DejaVuSans-101"/>
      <use x="455.671875" xlink:href="#DejaVuSans-100"/>
      <use x="519.148438" xlink:href="#DejaVuSans-32"/>
      <use x="550.935547" xlink:href="#DejaVuSans-67"/>
      <use x="620.759766" xlink:href="#DejaVuSans-97"/>
      <use x="682.039062" xlink:href="#DejaVuSans-115"/>
      <use x="734.138672" xlink:href="#DejaVuSans-101"/>
      <use x="795.662109" xlink:href="#DejaVuSans-115"/>
     </g>
    </g>
    <g id="line2d_26">
     <path d="M 19.92 108.666844 
L 37.52 108.666844 
" style="fill:none;stroke:#008000;stroke-linecap:round;stroke-width:1.5;"/>
    </g>
    <g id="line2d_27">
     <g>
      <use style="fill:#008000;stroke:#ffffff;stroke-linejoin:miter;stroke-width:0.25;" x="28.72" xlink:href="#m1b909d3858" y="108.666844"/>
     </g>
    </g>
    <g id="text_12">
     <!-- Recoveries -->
     <g style="fill:#262626;" transform="translate(44.56 111.746844)scale(0.088 -0.088)">
      <use xlink:href="#DejaVuSans-82"/>
      <use x="64.982422" xlink:href="#DejaVuSans-101"/>
      <use x="126.505859" xlink:href="#DejaVuSans-99"/>
      <use x="181.486328" xlink:href="#DejaVuSans-111"/>
      <use x="242.667969" xlink:href="#DejaVuSans-118"/>
      <use x="301.847656" xlink:href="#DejaVuSans-101"/>
      <use x="363.371094" xlink:href="#DejaVuSans-114"/>
      <use x="404.484375" xlink:href="#DejaVuSans-105"/>
      <use x="432.267578" xlink:href="#DejaVuSans-101"/>
      <use x="493.791016" xlink:href="#DejaVuSans-115"/>
     </g>
    </g>
    <g id="line2d_28">
     <path d="M 19.92 121.583594 
L 37.52 121.583594 
" style="fill:none;stroke:#ff0000;stroke-linecap:round;stroke-width:1.5;"/>
    </g>
    <g id="line2d_29">
     <g>
      <use style="fill:#ff0000;stroke:#ffffff;stroke-linejoin:miter;stroke-width:0.25;" x="28.72" xlink:href="#m13960bed7c" y="121.583594"/>
     </g>
    </g>
    <g id="text_13">
     <!-- Deaths -->
     <g style="fill:#262626;" transform="translate(44.56 124.663594)scale(0.088 -0.088)">
      <use xlink:href="#DejaVuSans-68"/>
      <use x="77.001953" xlink:href="#DejaVuSans-101"/>
      <use x="138.525391" xlink:href="#DejaVuSans-97"/>
      <use x="199.804688" xlink:href="#DejaVuSans-116"/>
      <use x="239.013672" xlink:href="#DejaVuSans-104"/>
      <use x="302.392578" xlink:href="#DejaVuSans-115"/>
     </g>
    </g>
   </g>
  </g>
 </g>
 <defs>
  <clipPath id="p788f4a91ff">
   <rect height="178.56" width="357.12" x="12" y="20.038594"/>
  </clipPath>
 </defs>
</svg>
