<?xml version="1.0" encoding="utf-8" standalone="no"?>
<!DOCTYPE svg PUBLIC "-//W3C//DTD SVG 1.1//EN"
  "http://www.w3.org/Graphics/SVG/1.1/DTD/svg11.dtd">
<!-- Created with matplotlib (https://matplotlib.org/) -->
<svg height="214.137656pt" version="1.1" viewBox="0 0 376.32 214.137656" width="376.32pt" xmlns="http://www.w3.org/2000/svg" xmlns:xlink="http://www.w3.org/1999/xlink">
 <defs>
  <style type="text/css">
*{stroke-linecap:butt;stroke-linejoin:round;}
  </style>
 </defs>
 <g id="figure_1">
  <g id="patch_1">
   <path d="M 0 214.137656 
L 376.32 214.137656 
L 376.32 0 
L 0 0 
z
" style="fill:#ffffff;"/>
  </g>
  <g id="axes_1">
   <g id="patch_2">
    <path d="M 12 198.598594 
L 369.12 198.598594 
L 369.12 20.038594 
L 12 20.038594 
z
" style="fill:#ffffff;"/>
   </g>
   <g id="matplotlib.axis_1">
    <g id="xtick_1">
     <g id="line2d_1">
      <path clip-path="url(#p9c52d29a49)" d="M 62.050909 198.598594 
L 62.050909 20.038594 
" style="fill:none;stroke:#f3f3f3;stroke-dasharray:0.5,0.825;stroke-dashoffset:0;stroke-width:0.5;"/>
     </g>
     <g id="line2d_2">
      <defs>
       <path d="M 0 0 
L 0 -3 
" id="m5cf5e7647b" style="stroke:#262626;stroke-width:0.5;"/>
      </defs>
      <g>
       <use style="fill:#262626;stroke:#262626;stroke-width:0.5;" x="62.050909" xlink:href="#m5cf5e7647b" y="198.598594"/>
      </g>
     </g>
     <g id="text_1">
      <!-- 01 Feb -->
      <defs>
       <path d="M 31.78125 66.40625 
Q 24.171875 66.40625 20.328125 58.90625 
Q 16.5 51.421875 16.5 36.375 
Q 16.5 21.390625 20.328125 13.890625 
Q 24.171875 6.390625 31.78125 6.390625 
Q 39.453125 6.390625 43.28125 13.890625 
Q 47.125 21.390625 47.125 36.375 
Q 47.125 51.421875 43.28125 58.90625 
Q 39.453125 66.40625 31.78125 66.40625 
z
M 31.78125 74.21875 
Q 44.046875 74.21875 50.515625 64.515625 
Q 56.984375 54.828125 56.984375 36.375 
Q 56.984375 17.96875 50.515625 8.265625 
Q 44.046875 -1.421875 31.78125 -1.421875 
Q 19.53125 -1.421875 13.0625 8.265625 
Q 6.59375 17.96875 6.59375 36.375 
Q 6.59375 54.828125 13.0625 64.515625 
Q 19.53125 74.21875 31.78125 74.21875 
z
" id="DejaVuSans-48"/>
       <path d="M 12.40625 8.296875 
L 28.515625 8.296875 
L 28.515625 63.921875 
L 10.984375 60.40625 
L 10.984375 69.390625 
L 28.421875 72.90625 
L 38.28125 72.90625 
L 38.28125 8.296875 
L 54.390625 8.296875 
L 54.390625 0 
L 12.40625 0 
z
" id="DejaVuSans-49"/>
       <path id="DejaVuSans-32"/>
       <path d="M 9.8125 72.90625 
L 51.703125 72.90625 
L 51.703125 64.59375 
L 19.671875 64.59375 
L 19.671875 43.109375 
L 48.578125 43.109375 
L 48.578125 34.8125 
L 19.671875 34.8125 
L 19.671875 0 
L 9.8125 0 
z
" id="DejaVuSans-70"/>
       <path d="M 56.203125 29.59375 
L 56.203125 25.203125 
L 14.890625 25.203125 
Q 15.484375 15.921875 20.484375 11.0625 
Q 25.484375 6.203125 34.421875 6.203125 
Q 39.59375 6.203125 44.453125 7.46875 
Q 49.3125 8.734375 54.109375 11.28125 
L 54.109375 2.78125 
Q 49.265625 0.734375 44.1875 -0.34375 
Q 39.109375 -1.421875 33.890625 -1.421875 
Q 20.796875 -1.421875 13.15625 6.1875 
Q 5.515625 13.8125 5.515625 26.8125 
Q 5.515625 40.234375 12.765625 48.109375 
Q 20.015625 56 32.328125 56 
Q 43.359375 56 49.78125 48.890625 
Q 56.203125 41.796875 56.203125 29.59375 
z
M 47.21875 32.234375 
Q 47.125 39.59375 43.09375 43.984375 
Q 39.0625 48.390625 32.421875 48.390625 
Q 24.90625 48.390625 20.390625 44.140625 
Q 15.875 39.890625 15.1875 32.171875 
z
" id="DejaVuSans-101"/>
       <path d="M 48.6875 27.296875 
Q 48.6875 37.203125 44.609375 42.84375 
Q 40.53125 48.484375 33.40625 48.484375 
Q 26.265625 48.484375 22.1875 42.84375 
Q 18.109375 37.203125 18.109375 27.296875 
Q 18.109375 17.390625 22.1875 11.75 
Q 26.265625 6.109375 33.40625 6.109375 
Q 40.53125 6.109375 44.609375 11.75 
Q 48.6875 17.390625 48.6875 27.296875 
z
M 18.109375 46.390625 
Q 20.953125 51.265625 25.265625 53.625 
Q 29.59375 56 35.59375 56 
Q 45.5625 56 51.78125 48.09375 
Q 58.015625 40.1875 58.015625 27.296875 
Q 58.015625 14.40625 51.78125 6.484375 
Q 45.5625 -1.421875 35.59375 -1.421875 
Q 29.59375 -1.421875 25.265625 0.953125 
Q 20.953125 3.328125 18.109375 8.203125 
L 18.109375 0 
L 9.078125 0 
L 9.078125 75.984375 
L 18.109375 75.984375 
z
" id="DejaVuSans-98"/>
      </defs>
      <g style="fill:#262626;" transform="translate(53.649347 205.897812)scale(0.05 -0.05)">
       <use xlink:href="#DejaVuSans-48"/>
       <use x="63.623047" xlink:href="#DejaVuSans-49"/>
       <use x="127.246094" xlink:href="#DejaVuSans-32"/>
       <use x="159.033203" xlink:href="#DejaVuSans-70"/>
       <use x="211.052734" xlink:href="#DejaVuSans-101"/>
       <use x="272.576172" xlink:href="#DejaVuSans-98"/>
      </g>
     </g>
    </g>
    <g id="xtick_2">
     <g id="line2d_3">
      <path clip-path="url(#p9c52d29a49)" d="M 109.396364 198.598594 
L 109.396364 20.038594 
" style="fill:none;stroke:#f3f3f3;stroke-dasharray:0.5,0.825;stroke-dashoffset:0;stroke-width:0.5;"/>
     </g>
     <g id="line2d_4">
      <g>
       <use style="fill:#262626;stroke:#262626;stroke-width:0.5;" x="109.396364" xlink:href="#m5cf5e7647b" y="198.598594"/>
      </g>
     </g>
     <g id="text_2">
      <!-- 15 Feb -->
      <defs>
       <path d="M 10.796875 72.90625 
L 49.515625 72.90625 
L 49.515625 64.59375 
L 19.828125 64.59375 
L 19.828125 46.734375 
Q 21.96875 47.46875 24.109375 47.828125 
Q 26.265625 48.1875 28.421875 48.1875 
Q 40.625 48.1875 47.75 41.5 
Q 54.890625 34.8125 54.890625 23.390625 
Q 54.890625 11.625 47.5625 5.09375 
Q 40.234375 -1.421875 26.90625 -1.421875 
Q 22.3125 -1.421875 17.546875 -0.640625 
Q 12.796875 0.140625 7.71875 1.703125 
L 7.71875 11.625 
Q 12.109375 9.234375 16.796875 8.0625 
Q 21.484375 6.890625 26.703125 6.890625 
Q 35.15625 6.890625 40.078125 11.328125 
Q 45.015625 15.765625 45.015625 23.390625 
Q 45.015625 31 40.078125 35.4375 
Q 35.15625 39.890625 26.703125 39.890625 
Q 22.75 39.890625 18.8125 39.015625 
Q 14.890625 38.140625 10.796875 36.28125 
z
" id="DejaVuSans-53"/>
      </defs>
      <g style="fill:#262626;" transform="translate(100.994801 205.897812)scale(0.05 -0.05)">
       <use xlink:href="#DejaVuSans-49"/>
       <use x="63.623047" xlink:href="#DejaVuSans-53"/>
       <use x="127.246094" xlink:href="#DejaVuSans-32"/>
       <use x="159.033203" xlink:href="#DejaVuSans-70"/>
       <use x="211.052734" xlink:href="#DejaVuSans-101"/>
       <use x="272.576172" xlink:href="#DejaVuSans-98"/>
      </g>
     </g>
    </g>
    <g id="xtick_3">
     <g id="line2d_5">
      <path clip-path="url(#p9c52d29a49)" d="M 160.123636 198.598594 
L 160.123636 20.038594 
" style="fill:none;stroke:#f3f3f3;stroke-dasharray:0.5,0.825;stroke-dashoffset:0;stroke-width:0.5;"/>
     </g>
     <g id="line2d_6">
      <g>
       <use style="fill:#262626;stroke:#262626;stroke-width:0.5;" x="160.123636" xlink:href="#m5cf5e7647b" y="198.598594"/>
      </g>
     </g>
     <g id="text_3">
      <!-- 01 Mar -->
      <defs>
       <path d="M 9.8125 72.90625 
L 24.515625 72.90625 
L 43.109375 23.296875 
L 61.8125 72.90625 
L 76.515625 72.90625 
L 76.515625 0 
L 66.890625 0 
L 66.890625 64.015625 
L 48.09375 14.015625 
L 38.1875 14.015625 
L 19.390625 64.015625 
L 19.390625 0 
L 9.8125 0 
z
" id="DejaVuSans-77"/>
       <path d="M 34.28125 27.484375 
Q 23.390625 27.484375 19.1875 25 
Q 14.984375 22.515625 14.984375 16.5 
Q 14.984375 11.71875 18.140625 8.90625 
Q 21.296875 6.109375 26.703125 6.109375 
Q 34.1875 6.109375 38.703125 11.40625 
Q 43.21875 16.703125 43.21875 25.484375 
L 43.21875 27.484375 
z
M 52.203125 31.203125 
L 52.203125 0 
L 43.21875 0 
L 43.21875 8.296875 
Q 40.140625 3.328125 35.546875 0.953125 
Q 30.953125 -1.421875 24.3125 -1.421875 
Q 15.921875 -1.421875 10.953125 3.296875 
Q 6 8.015625 6 15.921875 
Q 6 25.140625 12.171875 29.828125 
Q 18.359375 34.515625 30.609375 34.515625 
L 43.21875 34.515625 
L 43.21875 35.40625 
Q 43.21875 41.609375 39.140625 45 
Q 35.0625 48.390625 27.6875 48.390625 
Q 23 48.390625 18.546875 47.265625 
Q 14.109375 46.140625 10.015625 43.890625 
L 10.015625 52.203125 
Q 14.9375 54.109375 19.578125 55.046875 
Q 24.21875 56 28.609375 56 
Q 40.484375 56 46.34375 49.84375 
Q 52.203125 43.703125 52.203125 31.203125 
z
" id="DejaVuSans-97"/>
       <path d="M 41.109375 46.296875 
Q 39.59375 47.171875 37.8125 47.578125 
Q 36.03125 48 33.890625 48 
Q 26.265625 48 22.1875 43.046875 
Q 18.109375 38.09375 18.109375 28.8125 
L 18.109375 0 
L 9.078125 0 
L 9.078125 54.6875 
L 18.109375 54.6875 
L 18.109375 46.1875 
Q 20.953125 51.171875 25.484375 53.578125 
Q 30.03125 56 36.53125 56 
Q 37.453125 56 38.578125 55.875 
Q 39.703125 55.765625 41.0625 55.515625 
z
" id="DejaVuSans-114"/>
      </defs>
      <g style="fill:#262626;" transform="translate(151.431058 205.897812)scale(0.05 -0.05)">
       <use xlink:href="#DejaVuSans-48"/>
       <use x="63.623047" xlink:href="#DejaVuSans-49"/>
       <use x="127.246094" xlink:href="#DejaVuSans-32"/>
       <use x="159.033203" xlink:href="#DejaVuSans-77"/>
       <use x="245.3125" xlink:href="#DejaVuSans-97"/>
       <use x="306.591797" xlink:href="#DejaVuSans-114"/>
      </g>
     </g>
    </g>
    <g id="xtick_4">
     <g id="line2d_7">
      <path clip-path="url(#p9c52d29a49)" d="M 207.469091 198.598594 
L 207.469091 20.038594 
" style="fill:none;stroke:#f3f3f3;stroke-dasharray:0.5,0.825;stroke-dashoffset:0;stroke-width:0.5;"/>
     </g>
     <g id="line2d_8">
      <g>
       <use style="fill:#262626;stroke:#262626;stroke-width:0.5;" x="207.469091" xlink:href="#m5cf5e7647b" y="198.598594"/>
      </g>
     </g>
     <g id="text_4">
      <!-- 15 Mar -->
      <g style="fill:#262626;" transform="translate(198.776513 205.897812)scale(0.05 -0.05)">
       <use xlink:href="#DejaVuSans-49"/>
       <use x="63.623047" xlink:href="#DejaVuSans-53"/>
       <use x="127.246094" xlink:href="#DejaVuSans-32"/>
       <use x="159.033203" xlink:href="#DejaVuSans-77"/>
       <use x="245.3125" xlink:href="#DejaVuSans-97"/>
       <use x="306.591797" xlink:href="#DejaVuSans-114"/>
      </g>
     </g>
    </g>
    <g id="xtick_5">
     <g id="line2d_9">
      <path clip-path="url(#p9c52d29a49)" d="M 264.96 198.598594 
L 264.96 20.038594 
" style="fill:none;stroke:#f3f3f3;stroke-dasharray:0.5,0.825;stroke-dashoffset:0;stroke-width:0.5;"/>
     </g>
     <g id="line2d_10">
      <g>
       <use style="fill:#262626;stroke:#262626;stroke-width:0.5;" x="264.96" xlink:href="#m5cf5e7647b" y="198.598594"/>
      </g>
     </g>
     <g id="text_5">
      <!-- 01 Apr -->
      <defs>
       <path d="M 34.1875 63.1875 
L 20.796875 26.90625 
L 47.609375 26.90625 
z
M 28.609375 72.90625 
L 39.796875 72.90625 
L 67.578125 0 
L 57.328125 0 
L 50.6875 18.703125 
L 17.828125 18.703125 
L 11.1875 0 
L 0.78125 0 
z
" id="DejaVuSans-65"/>
       <path d="M 18.109375 8.203125 
L 18.109375 -20.796875 
L 9.078125 -20.796875 
L 9.078125 54.6875 
L 18.109375 54.6875 
L 18.109375 46.390625 
Q 20.953125 51.265625 25.265625 53.625 
Q 29.59375 56 35.59375 56 
Q 45.5625 56 51.78125 48.09375 
Q 58.015625 40.1875 58.015625 27.296875 
Q 58.015625 14.40625 51.78125 6.484375 
Q 45.5625 -1.421875 35.59375 -1.421875 
Q 29.59375 -1.421875 25.265625 0.953125 
Q 20.953125 3.328125 18.109375 8.203125 
z
M 48.6875 27.296875 
Q 48.6875 37.203125 44.609375 42.84375 
Q 40.53125 48.484375 33.40625 48.484375 
Q 26.265625 48.484375 22.1875 42.84375 
Q 18.109375 37.203125 18.109375 27.296875 
Q 18.109375 17.390625 22.1875 11.75 
Q 26.265625 6.109375 33.40625 6.109375 
Q 40.53125 6.109375 44.609375 11.75 
Q 48.6875 17.390625 48.6875 27.296875 
z
" id="DejaVuSans-112"/>
      </defs>
      <g style="fill:#262626;" transform="translate(256.659219 205.897812)scale(0.05 -0.05)">
       <use xlink:href="#DejaVuSans-48"/>
       <use x="63.623047" xlink:href="#DejaVuSans-49"/>
       <use x="127.246094" xlink:href="#DejaVuSans-32"/>
       <use x="159.033203" xlink:href="#DejaVuSans-65"/>
       <use x="227.441406" xlink:href="#DejaVuSans-112"/>
       <use x="290.917969" xlink:href="#DejaVuSans-114"/>
      </g>
     </g>
    </g>
    <g id="xtick_6">
     <g id="line2d_11">
      <path clip-path="url(#p9c52d29a49)" d="M 312.305455 198.598594 
L 312.305455 20.038594 
" style="fill:none;stroke:#f3f3f3;stroke-dasharray:0.5,0.825;stroke-dashoffset:0;stroke-width:0.5;"/>
     </g>
     <g id="line2d_12">
      <g>
       <use style="fill:#262626;stroke:#262626;stroke-width:0.5;" x="312.305455" xlink:href="#m5cf5e7647b" y="198.598594"/>
      </g>
     </g>
     <g id="text_6">
      <!-- 15 Apr -->
      <g style="fill:#262626;" transform="translate(304.004673 205.897812)scale(0.05 -0.05)">
       <use xlink:href="#DejaVuSans-49"/>
       <use x="63.623047" xlink:href="#DejaVuSans-53"/>
       <use x="127.246094" xlink:href="#DejaVuSans-32"/>
       <use x="159.033203" xlink:href="#DejaVuSans-65"/>
       <use x="227.441406" xlink:href="#DejaVuSans-112"/>
       <use x="290.917969" xlink:href="#DejaVuSans-114"/>
      </g>
     </g>
    </g>
    <g id="xtick_7">
     <g id="line2d_13">
      <path clip-path="url(#p9c52d29a49)" d="M 352.887273 198.598594 
L 352.887273 20.038594 
" style="fill:none;stroke:#f3f3f3;stroke-dasharray:0.5,0.825;stroke-dashoffset:0;stroke-width:0.5;"/>
     </g>
     <g id="line2d_14">
      <g>
       <use style="fill:#262626;stroke:#262626;stroke-width:0.5;" x="352.887273" xlink:href="#m5cf5e7647b" y="198.598594"/>
      </g>
     </g>
     <g id="text_7">
      <!-- 27 Apr -->
      <defs>
       <path d="M 19.1875 8.296875 
L 53.609375 8.296875 
L 53.609375 0 
L 7.328125 0 
L 7.328125 8.296875 
Q 12.9375 14.109375 22.625 23.890625 
Q 32.328125 33.6875 34.8125 36.53125 
Q 39.546875 41.84375 41.421875 45.53125 
Q 43.3125 49.21875 43.3125 52.78125 
Q 43.3125 58.59375 39.234375 62.25 
Q 35.15625 65.921875 28.609375 65.921875 
Q 23.96875 65.921875 18.8125 64.3125 
Q 13.671875 62.703125 7.8125 59.421875 
L 7.8125 69.390625 
Q 13.765625 71.78125 18.9375 73 
Q 24.125 74.21875 28.421875 74.21875 
Q 39.75 74.21875 46.484375 68.546875 
Q 53.21875 62.890625 53.21875 53.421875 
Q 53.21875 48.921875 51.53125 44.890625 
Q 49.859375 40.875 45.40625 35.40625 
Q 44.1875 33.984375 37.640625 27.21875 
Q 31.109375 20.453125 19.1875 8.296875 
z
" id="DejaVuSans-50"/>
       <path d="M 8.203125 72.90625 
L 55.078125 72.90625 
L 55.078125 68.703125 
L 28.609375 0 
L 18.3125 0 
L 43.21875 64.59375 
L 8.203125 64.59375 
z
" id="DejaVuSans-55"/>
      </defs>
      <g style="fill:#262626;" transform="translate(344.586491 205.897812)scale(0.05 -0.05)">
       <use xlink:href="#DejaVuSans-50"/>
       <use x="63.623047" xlink:href="#DejaVuSans-55"/>
       <use x="127.246094" xlink:href="#DejaVuSans-32"/>
       <use x="159.033203" xlink:href="#DejaVuSans-65"/>
       <use x="227.441406" xlink:href="#DejaVuSans-112"/>
       <use x="290.917969" xlink:href="#DejaVuSans-114"/>
      </g>
     </g>
    </g>
   </g>
   <g id="line2d_15">
    <path clip-path="url(#p9c52d29a49)" d="M 28.232727 190.48223 
L 31.614545 190.48223 
L 34.996364 190.48223 
L 38.378182 190.48223 
L 41.76 190.48223 
L 45.141818 190.48223 
L 48.523636 190.48223 
L 51.905455 190.48223 
L 55.287273 190.476718 
L 58.669091 190.476718 
L 62.050909 190.476718 
L 65.432727 190.471207 
L 68.814545 190.465695 
L 72.196364 190.465695 
L 75.578182 190.465695 
L 78.96 190.465695 
L 82.341818 190.465695 
L 85.723636 190.465695 
L 89.105455 190.465695 
L 92.487273 190.465695 
L 95.869091 190.465695 
L 99.250909 190.465695 
L 102.632727 190.465695 
L 106.014545 190.465695 
L 109.396364 190.465695 
L 112.778182 190.465695 
L 116.16 190.465695 
L 119.541818 190.465695 
L 122.923636 190.465695 
L 126.305455 190.465695 
L 129.687273 190.465695 
L 133.069091 190.465695 
L 136.450909 190.465695 
L 139.832727 190.465695 
L 143.214545 190.465695 
L 146.596364 190.465695 
L 149.978182 190.465695 
L 153.36 190.465695 
L 156.741818 190.465695 
L 160.123636 190.465695 
L 163.505455 190.454671 
L 166.887273 190.454671 
L 170.269091 190.3279 
L 173.650909 190.316877 
L 177.032727 190.311365 
L 180.414545 190.29483 
L 183.796364 190.267271 
L 187.178182 190.245224 
L 190.56 190.173571 
L 193.941818 190.1405 
L 197.323636 190.079871 
L 200.705455 190.030265 
L 204.087273 189.920029 
L 207.469091 189.8594 
L 210.850909 189.826329 
L 214.232727 189.699558 
L 217.614545 189.622393 
L 220.996364 189.412946 
L 224.378182 189.137357 
L 227.76 188.663345 
L 231.141818 188.299567 
L 234.523636 187.731855 
L 237.905455 187.527919 
L 241.287273 186.860994 
L 244.669091 186.47517 
L 248.050909 185.593286 
L 251.432727 185.042109 
L 254.814545 184.838173 
L 258.196364 183.587 
L 261.578182 182.782281 
L 264.96 179.469705 
L 268.341818 176.465787 
L 271.723636 176.333505 
L 275.105455 173.494941 
L 278.487273 170.705983 
L 281.869091 164.146971 
L 285.250909 161.209195 
L 288.632727 157.874572 
L 292.014545 153.415546 
L 295.396364 148.603767 
L 298.778182 143.929782 
L 302.16 139.746345 
L 305.541818 132.867651 
L 308.923636 127.168476 
L 312.305455 122.566144 
L 315.687273 116.459098 
L 319.069091 111.377242 
L 322.450909 103.82611 
L 325.832727 93.392321 
L 329.214545 88.299441 
L 332.596364 79.805797 
L 335.978182 72.695608 
L 339.36 63.287008 
L 342.741818 55.2784 
L 346.123636 45.616259 
L 349.505455 36.758837 
L 352.887273 28.154957 
" style="fill:none;stroke:#ffa500;stroke-linecap:round;stroke-width:1.5;"/>
    <defs>
     <path d="M 0 1.5 
C 0.397805 1.5 0.77937 1.341951 1.06066 1.06066 
C 1.341951 0.77937 1.5 0.397805 1.5 0 
C 1.5 -0.397805 1.341951 -0.77937 1.06066 -1.06066 
C 0.77937 -1.341951 0.397805 -1.5 0 -1.5 
C -0.397805 -1.5 -0.77937 -1.341951 -1.06066 -1.06066 
C -1.341951 -0.77937 -1.5 -0.397805 -1.5 0 
C -1.5 0.397805 -1.341951 0.77937 -1.06066 1.06066 
C -0.77937 1.341951 -0.397805 1.5 0 1.5 
z
" id="m094da971dd" style="stroke:#ffffff;stroke-width:0.25;"/>
    </defs>
    <g clip-path="url(#p9c52d29a49)">
     <use style="fill:#ffa500;stroke:#ffffff;stroke-width:0.25;" x="28.232727" xlink:href="#m094da971dd" y="190.48223"/>
     <use style="fill:#ffa500;stroke:#ffffff;stroke-width:0.25;" x="31.614545" xlink:href="#m094da971dd" y="190.48223"/>
     <use style="fill:#ffa500;stroke:#ffffff;stroke-width:0.25;" x="34.996364" xlink:href="#m094da971dd" y="190.48223"/>
     <use style="fill:#ffa500;stroke:#ffffff;stroke-width:0.25;" x="38.378182" xlink:href="#m094da971dd" y="190.48223"/>
     <use style="fill:#ffa500;stroke:#ffffff;stroke-width:0.25;" x="41.76" xlink:href="#m094da971dd" y="190.48223"/>
     <use style="fill:#ffa500;stroke:#ffffff;stroke-width:0.25;" x="45.141818" xlink:href="#m094da971dd" y="190.48223"/>
     <use style="fill:#ffa500;stroke:#ffffff;stroke-width:0.25;" x="48.523636" xlink:href="#m094da971dd" y="190.48223"/>
     <use style="fill:#ffa500;stroke:#ffffff;stroke-width:0.25;" x="51.905455" xlink:href="#m094da971dd" y="190.48223"/>
     <use style="fill:#ffa500;stroke:#ffffff;stroke-width:0.25;" x="55.287273" xlink:href="#m094da971dd" y="190.476718"/>
     <use style="fill:#ffa500;stroke:#ffffff;stroke-width:0.25;" x="58.669091" xlink:href="#m094da971dd" y="190.476718"/>
     <use style="fill:#ffa500;stroke:#ffffff;stroke-width:0.25;" x="62.050909" xlink:href="#m094da971dd" y="190.476718"/>
     <use style="fill:#ffa500;stroke:#ffffff;stroke-width:0.25;" x="65.432727" xlink:href="#m094da971dd" y="190.471207"/>
     <use style="fill:#ffa500;stroke:#ffffff;stroke-width:0.25;" x="68.814545" xlink:href="#m094da971dd" y="190.465695"/>
     <use style="fill:#ffa500;stroke:#ffffff;stroke-width:0.25;" x="72.196364" xlink:href="#m094da971dd" y="190.465695"/>
     <use style="fill:#ffa500;stroke:#ffffff;stroke-width:0.25;" x="75.578182" xlink:href="#m094da971dd" y="190.465695"/>
     <use style="fill:#ffa500;stroke:#ffffff;stroke-width:0.25;" x="78.96" xlink:href="#m094da971dd" y="190.465695"/>
     <use style="fill:#ffa500;stroke:#ffffff;stroke-width:0.25;" x="82.341818" xlink:href="#m094da971dd" y="190.465695"/>
     <use style="fill:#ffa500;stroke:#ffffff;stroke-width:0.25;" x="85.723636" xlink:href="#m094da971dd" y="190.465695"/>
     <use style="fill:#ffa500;stroke:#ffffff;stroke-width:0.25;" x="89.105455" xlink:href="#m094da971dd" y="190.465695"/>
     <use style="fill:#ffa500;stroke:#ffffff;stroke-width:0.25;" x="92.487273" xlink:href="#m094da971dd" y="190.465695"/>
     <use style="fill:#ffa500;stroke:#ffffff;stroke-width:0.25;" x="95.869091" xlink:href="#m094da971dd" y="190.465695"/>
     <use style="fill:#ffa500;stroke:#ffffff;stroke-width:0.25;" x="99.250909" xlink:href="#m094da971dd" y="190.465695"/>
     <use style="fill:#ffa500;stroke:#ffffff;stroke-width:0.25;" x="102.632727" xlink:href="#m094da971dd" y="190.465695"/>
     <use style="fill:#ffa500;stroke:#ffffff;stroke-width:0.25;" x="106.014545" xlink:href="#m094da971dd" y="190.465695"/>
     <use style="fill:#ffa500;stroke:#ffffff;stroke-width:0.25;" x="109.396364" xlink:href="#m094da971dd" y="190.465695"/>
     <use style="fill:#ffa500;stroke:#ffffff;stroke-width:0.25;" x="112.778182" xlink:href="#m094da971dd" y="190.465695"/>
     <use style="fill:#ffa500;stroke:#ffffff;stroke-width:0.25;" x="116.16" xlink:href="#m094da971dd" y="190.465695"/>
     <use style="fill:#ffa500;stroke:#ffffff;stroke-width:0.25;" x="119.541818" xlink:href="#m094da971dd" y="190.465695"/>
     <use style="fill:#ffa500;stroke:#ffffff;stroke-width:0.25;" x="122.923636" xlink:href="#m094da971dd" y="190.465695"/>
     <use style="fill:#ffa500;stroke:#ffffff;stroke-width:0.25;" x="126.305455" xlink:href="#m094da971dd" y="190.465695"/>
     <use style="fill:#ffa500;stroke:#ffffff;stroke-width:0.25;" x="129.687273" xlink:href="#m094da971dd" y="190.465695"/>
     <use style="fill:#ffa500;stroke:#ffffff;stroke-width:0.25;" x="133.069091" xlink:href="#m094da971dd" y="190.465695"/>
     <use style="fill:#ffa500;stroke:#ffffff;stroke-width:0.25;" x="136.450909" xlink:href="#m094da971dd" y="190.465695"/>
     <use style="fill:#ffa500;stroke:#ffffff;stroke-width:0.25;" x="139.832727" xlink:href="#m094da971dd" y="190.465695"/>
     <use style="fill:#ffa500;stroke:#ffffff;stroke-width:0.25;" x="143.214545" xlink:href="#m094da971dd" y="190.465695"/>
     <use style="fill:#ffa500;stroke:#ffffff;stroke-width:0.25;" x="146.596364" xlink:href="#m094da971dd" y="190.465695"/>
     <use style="fill:#ffa500;stroke:#ffffff;stroke-width:0.25;" x="149.978182" xlink:href="#m094da971dd" y="190.465695"/>
     <use style="fill:#ffa500;stroke:#ffffff;stroke-width:0.25;" x="153.36" xlink:href="#m094da971dd" y="190.465695"/>
     <use style="fill:#ffa500;stroke:#ffffff;stroke-width:0.25;" x="156.741818" xlink:href="#m094da971dd" y="190.465695"/>
     <use style="fill:#ffa500;stroke:#ffffff;stroke-width:0.25;" x="160.123636" xlink:href="#m094da971dd" y="190.465695"/>
     <use style="fill:#ffa500;stroke:#ffffff;stroke-width:0.25;" x="163.505455" xlink:href="#m094da971dd" y="190.454671"/>
     <use style="fill:#ffa500;stroke:#ffffff;stroke-width:0.25;" x="166.887273" xlink:href="#m094da971dd" y="190.454671"/>
     <use style="fill:#ffa500;stroke:#ffffff;stroke-width:0.25;" x="170.269091" xlink:href="#m094da971dd" y="190.3279"/>
     <use style="fill:#ffa500;stroke:#ffffff;stroke-width:0.25;" x="173.650909" xlink:href="#m094da971dd" y="190.316877"/>
     <use style="fill:#ffa500;stroke:#ffffff;stroke-width:0.25;" x="177.032727" xlink:href="#m094da971dd" y="190.311365"/>
     <use style="fill:#ffa500;stroke:#ffffff;stroke-width:0.25;" x="180.414545" xlink:href="#m094da971dd" y="190.29483"/>
     <use style="fill:#ffa500;stroke:#ffffff;stroke-width:0.25;" x="183.796364" xlink:href="#m094da971dd" y="190.267271"/>
     <use style="fill:#ffa500;stroke:#ffffff;stroke-width:0.25;" x="187.178182" xlink:href="#m094da971dd" y="190.245224"/>
     <use style="fill:#ffa500;stroke:#ffffff;stroke-width:0.25;" x="190.56" xlink:href="#m094da971dd" y="190.173571"/>
     <use style="fill:#ffa500;stroke:#ffffff;stroke-width:0.25;" x="193.941818" xlink:href="#m094da971dd" y="190.1405"/>
     <use style="fill:#ffa500;stroke:#ffffff;stroke-width:0.25;" x="197.323636" xlink:href="#m094da971dd" y="190.079871"/>
     <use style="fill:#ffa500;stroke:#ffffff;stroke-width:0.25;" x="200.705455" xlink:href="#m094da971dd" y="190.030265"/>
     <use style="fill:#ffa500;stroke:#ffffff;stroke-width:0.25;" x="204.087273" xlink:href="#m094da971dd" y="189.920029"/>
     <use style="fill:#ffa500;stroke:#ffffff;stroke-width:0.25;" x="207.469091" xlink:href="#m094da971dd" y="189.8594"/>
     <use style="fill:#ffa500;stroke:#ffffff;stroke-width:0.25;" x="210.850909" xlink:href="#m094da971dd" y="189.826329"/>
     <use style="fill:#ffa500;stroke:#ffffff;stroke-width:0.25;" x="214.232727" xlink:href="#m094da971dd" y="189.699558"/>
     <use style="fill:#ffa500;stroke:#ffffff;stroke-width:0.25;" x="217.614545" xlink:href="#m094da971dd" y="189.622393"/>
     <use style="fill:#ffa500;stroke:#ffffff;stroke-width:0.25;" x="220.996364" xlink:href="#m094da971dd" y="189.412946"/>
     <use style="fill:#ffa500;stroke:#ffffff;stroke-width:0.25;" x="224.378182" xlink:href="#m094da971dd" y="189.137357"/>
     <use style="fill:#ffa500;stroke:#ffffff;stroke-width:0.25;" x="227.76" xlink:href="#m094da971dd" y="188.663345"/>
     <use style="fill:#ffa500;stroke:#ffffff;stroke-width:0.25;" x="231.141818" xlink:href="#m094da971dd" y="188.299567"/>
     <use style="fill:#ffa500;stroke:#ffffff;stroke-width:0.25;" x="234.523636" xlink:href="#m094da971dd" y="187.731855"/>
     <use style="fill:#ffa500;stroke:#ffffff;stroke-width:0.25;" x="237.905455" xlink:href="#m094da971dd" y="187.527919"/>
     <use style="fill:#ffa500;stroke:#ffffff;stroke-width:0.25;" x="241.287273" xlink:href="#m094da971dd" y="186.860994"/>
     <use style="fill:#ffa500;stroke:#ffffff;stroke-width:0.25;" x="244.669091" xlink:href="#m094da971dd" y="186.47517"/>
     <use style="fill:#ffa500;stroke:#ffffff;stroke-width:0.25;" x="248.050909" xlink:href="#m094da971dd" y="185.593286"/>
     <use style="fill:#ffa500;stroke:#ffffff;stroke-width:0.25;" x="251.432727" xlink:href="#m094da971dd" y="185.042109"/>
     <use style="fill:#ffa500;stroke:#ffffff;stroke-width:0.25;" x="254.814545" xlink:href="#m094da971dd" y="184.838173"/>
     <use style="fill:#ffa500;stroke:#ffffff;stroke-width:0.25;" x="258.196364" xlink:href="#m094da971dd" y="183.587"/>
     <use style="fill:#ffa500;stroke:#ffffff;stroke-width:0.25;" x="261.578182" xlink:href="#m094da971dd" y="182.782281"/>
     <use style="fill:#ffa500;stroke:#ffffff;stroke-width:0.25;" x="264.96" xlink:href="#m094da971dd" y="179.469705"/>
     <use style="fill:#ffa500;stroke:#ffffff;stroke-width:0.25;" x="268.341818" xlink:href="#m094da971dd" y="176.465787"/>
     <use style="fill:#ffa500;stroke:#ffffff;stroke-width:0.25;" x="271.723636" xlink:href="#m094da971dd" y="176.333505"/>
     <use style="fill:#ffa500;stroke:#ffffff;stroke-width:0.25;" x="275.105455" xlink:href="#m094da971dd" y="173.494941"/>
     <use style="fill:#ffa500;stroke:#ffffff;stroke-width:0.25;" x="278.487273" xlink:href="#m094da971dd" y="170.705983"/>
     <use style="fill:#ffa500;stroke:#ffffff;stroke-width:0.25;" x="281.869091" xlink:href="#m094da971dd" y="164.146971"/>
     <use style="fill:#ffa500;stroke:#ffffff;stroke-width:0.25;" x="285.250909" xlink:href="#m094da971dd" y="161.209195"/>
     <use style="fill:#ffa500;stroke:#ffffff;stroke-width:0.25;" x="288.632727" xlink:href="#m094da971dd" y="157.874572"/>
     <use style="fill:#ffa500;stroke:#ffffff;stroke-width:0.25;" x="292.014545" xlink:href="#m094da971dd" y="153.415546"/>
     <use style="fill:#ffa500;stroke:#ffffff;stroke-width:0.25;" x="295.396364" xlink:href="#m094da971dd" y="148.603767"/>
     <use style="fill:#ffa500;stroke:#ffffff;stroke-width:0.25;" x="298.778182" xlink:href="#m094da971dd" y="143.929782"/>
     <use style="fill:#ffa500;stroke:#ffffff;stroke-width:0.25;" x="302.16" xlink:href="#m094da971dd" y="139.746345"/>
     <use style="fill:#ffa500;stroke:#ffffff;stroke-width:0.25;" x="305.541818" xlink:href="#m094da971dd" y="132.867651"/>
     <use style="fill:#ffa500;stroke:#ffffff;stroke-width:0.25;" x="308.923636" xlink:href="#m094da971dd" y="127.168476"/>
     <use style="fill:#ffa500;stroke:#ffffff;stroke-width:0.25;" x="312.305455" xlink:href="#m094da971dd" y="122.566144"/>
     <use style="fill:#ffa500;stroke:#ffffff;stroke-width:0.25;" x="315.687273" xlink:href="#m094da971dd" y="116.459098"/>
     <use style="fill:#ffa500;stroke:#ffffff;stroke-width:0.25;" x="319.069091" xlink:href="#m094da971dd" y="111.377242"/>
     <use style="fill:#ffa500;stroke:#ffffff;stroke-width:0.25;" x="322.450909" xlink:href="#m094da971dd" y="103.82611"/>
     <use style="fill:#ffa500;stroke:#ffffff;stroke-width:0.25;" x="325.832727" xlink:href="#m094da971dd" y="93.392321"/>
     <use style="fill:#ffa500;stroke:#ffffff;stroke-width:0.25;" x="329.214545" xlink:href="#m094da971dd" y="88.299441"/>
     <use style="fill:#ffa500;stroke:#ffffff;stroke-width:0.25;" x="332.596364" xlink:href="#m094da971dd" y="79.805797"/>
     <use style="fill:#ffa500;stroke:#ffffff;stroke-width:0.25;" x="335.978182" xlink:href="#m094da971dd" y="72.695608"/>
     <use style="fill:#ffa500;stroke:#ffffff;stroke-width:0.25;" x="339.36" xlink:href="#m094da971dd" y="63.287008"/>
     <use style="fill:#ffa500;stroke:#ffffff;stroke-width:0.25;" x="342.741818" xlink:href="#m094da971dd" y="55.2784"/>
     <use style="fill:#ffa500;stroke:#ffffff;stroke-width:0.25;" x="346.123636" xlink:href="#m094da971dd" y="45.616259"/>
     <use style="fill:#ffa500;stroke:#ffffff;stroke-width:0.25;" x="349.505455" xlink:href="#m094da971dd" y="36.758837"/>
     <use style="fill:#ffa500;stroke:#ffffff;stroke-width:0.25;" x="352.887273" xlink:href="#m094da971dd" y="28.154957"/>
    </g>
   </g>
   <g id="line2d_16">
    <path clip-path="url(#p9c52d29a49)" d="M 28.232727 190.48223 
L 31.614545 190.48223 
L 34.996364 190.48223 
L 38.378182 190.48223 
L 41.76 190.48223 
L 45.141818 190.48223 
L 48.523636 190.48223 
L 51.905455 190.48223 
L 55.287273 190.48223 
L 58.669091 190.48223 
L 62.050909 190.48223 
L 65.432727 190.48223 
L 68.814545 190.48223 
L 72.196364 190.48223 
L 75.578182 190.48223 
L 78.96 190.48223 
L 82.341818 190.48223 
L 85.723636 190.48223 
L 89.105455 190.48223 
L 92.487273 190.48223 
L 95.869091 190.48223 
L 99.250909 190.48223 
L 102.632727 190.48223 
L 106.014545 190.48223 
L 109.396364 190.48223 
L 112.778182 190.465695 
L 116.16 190.465695 
L 119.541818 190.465695 
L 122.923636 190.465695 
L 126.305455 190.465695 
L 129.687273 190.465695 
L 133.069091 190.465695 
L 136.450909 190.465695 
L 139.832727 190.465695 
L 143.214545 190.465695 
L 146.596364 190.465695 
L 149.978182 190.465695 
L 153.36 190.465695 
L 156.741818 190.465695 
L 160.123636 190.465695 
L 163.505455 190.465695 
L 166.887273 190.465695 
L 170.269091 190.465695 
L 173.650909 190.465695 
L 177.032727 190.465695 
L 180.414545 190.465695 
L 183.796364 190.465695 
L 187.178182 190.465695 
L 190.56 190.460183 
L 193.941818 190.460183 
L 197.323636 190.460183 
L 200.705455 190.460183 
L 204.087273 190.460183 
L 207.469091 190.410577 
L 210.850909 190.410577 
L 214.232727 190.405065 
L 217.614545 190.405065 
L 220.996364 190.399553 
L 224.378182 190.371995 
L 227.76 190.355459 
L 231.141818 190.333412 
L 234.523636 190.333412 
L 237.905455 190.261759 
L 241.287273 190.245224 
L 244.669091 190.2342 
L 248.050909 190.079871 
L 251.432727 190.019241 
L 254.814545 189.958612 
L 258.196364 189.920029 
L 261.578182 189.804282 
L 264.96 189.666487 
L 268.341818 189.429481 
L 271.723636 189.423969 
L 275.105455 189.220034 
L 278.487273 189.220034 
L 281.869091 188.415315 
L 285.250909 188.161773 
L 288.632727 187.693272 
L 292.014545 187.06493 
L 295.396364 186.216117 
L 298.778182 185.141321 
L 302.16 184.529514 
L 305.541818 183.972824 
L 308.923636 182.991728 
L 312.305455 182.589369 
L 315.687273 180.737413 
L 319.069091 179.232698 
L 322.450909 176.906729 
L 325.832727 174.751626 
L 329.214545 172.442192 
L 332.596364 168.572926 
L 335.978182 166.395775 
L 339.36 162.857216 
L 342.741818 160.178494 
L 346.123636 157.747801 
L 349.505455 154.528925 
L 352.887273 151.144695 
" style="fill:none;stroke:#008000;stroke-linecap:round;stroke-width:1.5;"/>
    <defs>
     <path d="M -0 2.12132 
L 1.272792 0 
L 0 -2.12132 
L -1.272792 -0 
z
" id="mc838cf3fb9" style="stroke:#ffffff;stroke-linejoin:miter;stroke-width:0.25;"/>
    </defs>
    <g clip-path="url(#p9c52d29a49)">
     <use style="fill:#008000;stroke:#ffffff;stroke-linejoin:miter;stroke-width:0.25;" x="28.232727" xlink:href="#mc838cf3fb9" y="190.48223"/>
     <use style="fill:#008000;stroke:#ffffff;stroke-linejoin:miter;stroke-width:0.25;" x="31.614545" xlink:href="#mc838cf3fb9" y="190.48223"/>
     <use style="fill:#008000;stroke:#ffffff;stroke-linejoin:miter;stroke-width:0.25;" x="34.996364" xlink:href="#mc838cf3fb9" y="190.48223"/>
     <use style="fill:#008000;stroke:#ffffff;stroke-linejoin:miter;stroke-width:0.25;" x="38.378182" xlink:href="#mc838cf3fb9" y="190.48223"/>
     <use style="fill:#008000;stroke:#ffffff;stroke-linejoin:miter;stroke-width:0.25;" x="41.76" xlink:href="#mc838cf3fb9" y="190.48223"/>
     <use style="fill:#008000;stroke:#ffffff;stroke-linejoin:miter;stroke-width:0.25;" x="45.141818" xlink:href="#mc838cf3fb9" y="190.48223"/>
     <use style="fill:#008000;stroke:#ffffff;stroke-linejoin:miter;stroke-width:0.25;" x="48.523636" xlink:href="#mc838cf3fb9" y="190.48223"/>
     <use style="fill:#008000;stroke:#ffffff;stroke-linejoin:miter;stroke-width:0.25;" x="51.905455" xlink:href="#mc838cf3fb9" y="190.48223"/>
     <use style="fill:#008000;stroke:#ffffff;stroke-linejoin:miter;stroke-width:0.25;" x="55.287273" xlink:href="#mc838cf3fb9" y="190.48223"/>
     <use style="fill:#008000;stroke:#ffffff;stroke-linejoin:miter;stroke-width:0.25;" x="58.669091" xlink:href="#mc838cf3fb9" y="190.48223"/>
     <use style="fill:#008000;stroke:#ffffff;stroke-linejoin:miter;stroke-width:0.25;" x="62.050909" xlink:href="#mc838cf3fb9" y="190.48223"/>
     <use style="fill:#008000;stroke:#ffffff;stroke-linejoin:miter;stroke-width:0.25;" x="65.432727" xlink:href="#mc838cf3fb9" y="190.48223"/>
     <use style="fill:#008000;stroke:#ffffff;stroke-linejoin:miter;stroke-width:0.25;" x="68.814545" xlink:href="#mc838cf3fb9" y="190.48223"/>
     <use style="fill:#008000;stroke:#ffffff;stroke-linejoin:miter;stroke-width:0.25;" x="72.196364" xlink:href="#mc838cf3fb9" y="190.48223"/>
     <use style="fill:#008000;stroke:#ffffff;stroke-linejoin:miter;stroke-width:0.25;" x="75.578182" xlink:href="#mc838cf3fb9" y="190.48223"/>
     <use style="fill:#008000;stroke:#ffffff;stroke-linejoin:miter;stroke-width:0.25;" x="78.96" xlink:href="#mc838cf3fb9" y="190.48223"/>
     <use style="fill:#008000;stroke:#ffffff;stroke-linejoin:miter;stroke-width:0.25;" x="82.341818" xlink:href="#mc838cf3fb9" y="190.48223"/>
     <use style="fill:#008000;stroke:#ffffff;stroke-linejoin:miter;stroke-width:0.25;" x="85.723636" xlink:href="#mc838cf3fb9" y="190.48223"/>
     <use style="fill:#008000;stroke:#ffffff;stroke-linejoin:miter;stroke-width:0.25;" x="89.105455" xlink:href="#mc838cf3fb9" y="190.48223"/>
     <use style="fill:#008000;stroke:#ffffff;stroke-linejoin:miter;stroke-width:0.25;" x="92.487273" xlink:href="#mc838cf3fb9" y="190.48223"/>
     <use style="fill:#008000;stroke:#ffffff;stroke-linejoin:miter;stroke-width:0.25;" x="95.869091" xlink:href="#mc838cf3fb9" y="190.48223"/>
     <use style="fill:#008000;stroke:#ffffff;stroke-linejoin:miter;stroke-width:0.25;" x="99.250909" xlink:href="#mc838cf3fb9" y="190.48223"/>
     <use style="fill:#008000;stroke:#ffffff;stroke-linejoin:miter;stroke-width:0.25;" x="102.632727" xlink:href="#mc838cf3fb9" y="190.48223"/>
     <use style="fill:#008000;stroke:#ffffff;stroke-linejoin:miter;stroke-width:0.25;" x="106.014545" xlink:href="#mc838cf3fb9" y="190.48223"/>
     <use style="fill:#008000;stroke:#ffffff;stroke-linejoin:miter;stroke-width:0.25;" x="109.396364" xlink:href="#mc838cf3fb9" y="190.48223"/>
     <use style="fill:#008000;stroke:#ffffff;stroke-linejoin:miter;stroke-width:0.25;" x="112.778182" xlink:href="#mc838cf3fb9" y="190.465695"/>
     <use style="fill:#008000;stroke:#ffffff;stroke-linejoin:miter;stroke-width:0.25;" x="116.16" xlink:href="#mc838cf3fb9" y="190.465695"/>
     <use style="fill:#008000;stroke:#ffffff;stroke-linejoin:miter;stroke-width:0.25;" x="119.541818" xlink:href="#mc838cf3fb9" y="190.465695"/>
     <use style="fill:#008000;stroke:#ffffff;stroke-linejoin:miter;stroke-width:0.25;" x="122.923636" xlink:href="#mc838cf3fb9" y="190.465695"/>
     <use style="fill:#008000;stroke:#ffffff;stroke-linejoin:miter;stroke-width:0.25;" x="126.305455" xlink:href="#mc838cf3fb9" y="190.465695"/>
     <use style="fill:#008000;stroke:#ffffff;stroke-linejoin:miter;stroke-width:0.25;" x="129.687273" xlink:href="#mc838cf3fb9" y="190.465695"/>
     <use style="fill:#008000;stroke:#ffffff;stroke-linejoin:miter;stroke-width:0.25;" x="133.069091" xlink:href="#mc838cf3fb9" y="190.465695"/>
     <use style="fill:#008000;stroke:#ffffff;stroke-linejoin:miter;stroke-width:0.25;" x="136.450909" xlink:href="#mc838cf3fb9" y="190.465695"/>
     <use style="fill:#008000;stroke:#ffffff;stroke-linejoin:miter;stroke-width:0.25;" x="139.832727" xlink:href="#mc838cf3fb9" y="190.465695"/>
     <use style="fill:#008000;stroke:#ffffff;stroke-linejoin:miter;stroke-width:0.25;" x="143.214545" xlink:href="#mc838cf3fb9" y="190.465695"/>
     <use style="fill:#008000;stroke:#ffffff;stroke-linejoin:miter;stroke-width:0.25;" x="146.596364" xlink:href="#mc838cf3fb9" y="190.465695"/>
     <use style="fill:#008000;stroke:#ffffff;stroke-linejoin:miter;stroke-width:0.25;" x="149.978182" xlink:href="#mc838cf3fb9" y="190.465695"/>
     <use style="fill:#008000;stroke:#ffffff;stroke-linejoin:miter;stroke-width:0.25;" x="153.36" xlink:href="#mc838cf3fb9" y="190.465695"/>
     <use style="fill:#008000;stroke:#ffffff;stroke-linejoin:miter;stroke-width:0.25;" x="156.741818" xlink:href="#mc838cf3fb9" y="190.465695"/>
     <use style="fill:#008000;stroke:#ffffff;stroke-linejoin:miter;stroke-width:0.25;" x="160.123636" xlink:href="#mc838cf3fb9" y="190.465695"/>
     <use style="fill:#008000;stroke:#ffffff;stroke-linejoin:miter;stroke-width:0.25;" x="163.505455" xlink:href="#mc838cf3fb9" y="190.465695"/>
     <use style="fill:#008000;stroke:#ffffff;stroke-linejoin:miter;stroke-width:0.25;" x="166.887273" xlink:href="#mc838cf3fb9" y="190.465695"/>
     <use style="fill:#008000;stroke:#ffffff;stroke-linejoin:miter;stroke-width:0.25;" x="170.269091" xlink:href="#mc838cf3fb9" y="190.465695"/>
     <use style="fill:#008000;stroke:#ffffff;stroke-linejoin:miter;stroke-width:0.25;" x="173.650909" xlink:href="#mc838cf3fb9" y="190.465695"/>
     <use style="fill:#008000;stroke:#ffffff;stroke-linejoin:miter;stroke-width:0.25;" x="177.032727" xlink:href="#mc838cf3fb9" y="190.465695"/>
     <use style="fill:#008000;stroke:#ffffff;stroke-linejoin:miter;stroke-width:0.25;" x="180.414545" xlink:href="#mc838cf3fb9" y="190.465695"/>
     <use style="fill:#008000;stroke:#ffffff;stroke-linejoin:miter;stroke-width:0.25;" x="183.796364" xlink:href="#mc838cf3fb9" y="190.465695"/>
     <use style="fill:#008000;stroke:#ffffff;stroke-linejoin:miter;stroke-width:0.25;" x="187.178182" xlink:href="#mc838cf3fb9" y="190.465695"/>
     <use style="fill:#008000;stroke:#ffffff;stroke-linejoin:miter;stroke-width:0.25;" x="190.56" xlink:href="#mc838cf3fb9" y="190.460183"/>
     <use style="fill:#008000;stroke:#ffffff;stroke-linejoin:miter;stroke-width:0.25;" x="193.941818" xlink:href="#mc838cf3fb9" y="190.460183"/>
     <use style="fill:#008000;stroke:#ffffff;stroke-linejoin:miter;stroke-width:0.25;" x="197.323636" xlink:href="#mc838cf3fb9" y="190.460183"/>
     <use style="fill:#008000;stroke:#ffffff;stroke-linejoin:miter;stroke-width:0.25;" x="200.705455" xlink:href="#mc838cf3fb9" y="190.460183"/>
     <use style="fill:#008000;stroke:#ffffff;stroke-linejoin:miter;stroke-width:0.25;" x="204.087273" xlink:href="#mc838cf3fb9" y="190.460183"/>
     <use style="fill:#008000;stroke:#ffffff;stroke-linejoin:miter;stroke-width:0.25;" x="207.469091" xlink:href="#mc838cf3fb9" y="190.410577"/>
     <use style="fill:#008000;stroke:#ffffff;stroke-linejoin:miter;stroke-width:0.25;" x="210.850909" xlink:href="#mc838cf3fb9" y="190.410577"/>
     <use style="fill:#008000;stroke:#ffffff;stroke-linejoin:miter;stroke-width:0.25;" x="214.232727" xlink:href="#mc838cf3fb9" y="190.405065"/>
     <use style="fill:#008000;stroke:#ffffff;stroke-linejoin:miter;stroke-width:0.25;" x="217.614545" xlink:href="#mc838cf3fb9" y="190.405065"/>
     <use style="fill:#008000;stroke:#ffffff;stroke-linejoin:miter;stroke-width:0.25;" x="220.996364" xlink:href="#mc838cf3fb9" y="190.399553"/>
     <use style="fill:#008000;stroke:#ffffff;stroke-linejoin:miter;stroke-width:0.25;" x="224.378182" xlink:href="#mc838cf3fb9" y="190.371995"/>
     <use style="fill:#008000;stroke:#ffffff;stroke-linejoin:miter;stroke-width:0.25;" x="227.76" xlink:href="#mc838cf3fb9" y="190.355459"/>
     <use style="fill:#008000;stroke:#ffffff;stroke-linejoin:miter;stroke-width:0.25;" x="231.141818" xlink:href="#mc838cf3fb9" y="190.333412"/>
     <use style="fill:#008000;stroke:#ffffff;stroke-linejoin:miter;stroke-width:0.25;" x="234.523636" xlink:href="#mc838cf3fb9" y="190.333412"/>
     <use style="fill:#008000;stroke:#ffffff;stroke-linejoin:miter;stroke-width:0.25;" x="237.905455" xlink:href="#mc838cf3fb9" y="190.261759"/>
     <use style="fill:#008000;stroke:#ffffff;stroke-linejoin:miter;stroke-width:0.25;" x="241.287273" xlink:href="#mc838cf3fb9" y="190.245224"/>
     <use style="fill:#008000;stroke:#ffffff;stroke-linejoin:miter;stroke-width:0.25;" x="244.669091" xlink:href="#mc838cf3fb9" y="190.2342"/>
     <use style="fill:#008000;stroke:#ffffff;stroke-linejoin:miter;stroke-width:0.25;" x="248.050909" xlink:href="#mc838cf3fb9" y="190.079871"/>
     <use style="fill:#008000;stroke:#ffffff;stroke-linejoin:miter;stroke-width:0.25;" x="251.432727" xlink:href="#mc838cf3fb9" y="190.019241"/>
     <use style="fill:#008000;stroke:#ffffff;stroke-linejoin:miter;stroke-width:0.25;" x="254.814545" xlink:href="#mc838cf3fb9" y="189.958612"/>
     <use style="fill:#008000;stroke:#ffffff;stroke-linejoin:miter;stroke-width:0.25;" x="258.196364" xlink:href="#mc838cf3fb9" y="189.920029"/>
     <use style="fill:#008000;stroke:#ffffff;stroke-linejoin:miter;stroke-width:0.25;" x="261.578182" xlink:href="#mc838cf3fb9" y="189.804282"/>
     <use style="fill:#008000;stroke:#ffffff;stroke-linejoin:miter;stroke-width:0.25;" x="264.96" xlink:href="#mc838cf3fb9" y="189.666487"/>
     <use style="fill:#008000;stroke:#ffffff;stroke-linejoin:miter;stroke-width:0.25;" x="268.341818" xlink:href="#mc838cf3fb9" y="189.429481"/>
     <use style="fill:#008000;stroke:#ffffff;stroke-linejoin:miter;stroke-width:0.25;" x="271.723636" xlink:href="#mc838cf3fb9" y="189.423969"/>
     <use style="fill:#008000;stroke:#ffffff;stroke-linejoin:miter;stroke-width:0.25;" x="275.105455" xlink:href="#mc838cf3fb9" y="189.220034"/>
     <use style="fill:#008000;stroke:#ffffff;stroke-linejoin:miter;stroke-width:0.25;" x="278.487273" xlink:href="#mc838cf3fb9" y="189.220034"/>
     <use style="fill:#008000;stroke:#ffffff;stroke-linejoin:miter;stroke-width:0.25;" x="281.869091" xlink:href="#mc838cf3fb9" y="188.415315"/>
     <use style="fill:#008000;stroke:#ffffff;stroke-linejoin:miter;stroke-width:0.25;" x="285.250909" xlink:href="#mc838cf3fb9" y="188.161773"/>
     <use style="fill:#008000;stroke:#ffffff;stroke-linejoin:miter;stroke-width:0.25;" x="288.632727" xlink:href="#mc838cf3fb9" y="187.693272"/>
     <use style="fill:#008000;stroke:#ffffff;stroke-linejoin:miter;stroke-width:0.25;" x="292.014545" xlink:href="#mc838cf3fb9" y="187.06493"/>
     <use style="fill:#008000;stroke:#ffffff;stroke-linejoin:miter;stroke-width:0.25;" x="295.396364" xlink:href="#mc838cf3fb9" y="186.216117"/>
     <use style="fill:#008000;stroke:#ffffff;stroke-linejoin:miter;stroke-width:0.25;" x="298.778182" xlink:href="#mc838cf3fb9" y="185.141321"/>
     <use style="fill:#008000;stroke:#ffffff;stroke-linejoin:miter;stroke-width:0.25;" x="302.16" xlink:href="#mc838cf3fb9" y="184.529514"/>
     <use style="fill:#008000;stroke:#ffffff;stroke-linejoin:miter;stroke-width:0.25;" x="305.541818" xlink:href="#mc838cf3fb9" y="183.972824"/>
     <use style="fill:#008000;stroke:#ffffff;stroke-linejoin:miter;stroke-width:0.25;" x="308.923636" xlink:href="#mc838cf3fb9" y="182.991728"/>
     <use style="fill:#008000;stroke:#ffffff;stroke-linejoin:miter;stroke-width:0.25;" x="312.305455" xlink:href="#mc838cf3fb9" y="182.589369"/>
     <use style="fill:#008000;stroke:#ffffff;stroke-linejoin:miter;stroke-width:0.25;" x="315.687273" xlink:href="#mc838cf3fb9" y="180.737413"/>
     <use style="fill:#008000;stroke:#ffffff;stroke-linejoin:miter;stroke-width:0.25;" x="319.069091" xlink:href="#mc838cf3fb9" y="179.232698"/>
     <use style="fill:#008000;stroke:#ffffff;stroke-linejoin:miter;stroke-width:0.25;" x="322.450909" xlink:href="#mc838cf3fb9" y="176.906729"/>
     <use style="fill:#008000;stroke:#ffffff;stroke-linejoin:miter;stroke-width:0.25;" x="325.832727" xlink:href="#mc838cf3fb9" y="174.751626"/>
     <use style="fill:#008000;stroke:#ffffff;stroke-linejoin:miter;stroke-width:0.25;" x="329.214545" xlink:href="#mc838cf3fb9" y="172.442192"/>
     <use style="fill:#008000;stroke:#ffffff;stroke-linejoin:miter;stroke-width:0.25;" x="332.596364" xlink:href="#mc838cf3fb9" y="168.572926"/>
     <use style="fill:#008000;stroke:#ffffff;stroke-linejoin:miter;stroke-width:0.25;" x="335.978182" xlink:href="#mc838cf3fb9" y="166.395775"/>
     <use style="fill:#008000;stroke:#ffffff;stroke-linejoin:miter;stroke-width:0.25;" x="339.36" xlink:href="#mc838cf3fb9" y="162.857216"/>
     <use style="fill:#008000;stroke:#ffffff;stroke-linejoin:miter;stroke-width:0.25;" x="342.741818" xlink:href="#mc838cf3fb9" y="160.178494"/>
     <use style="fill:#008000;stroke:#ffffff;stroke-linejoin:miter;stroke-width:0.25;" x="346.123636" xlink:href="#mc838cf3fb9" y="157.747801"/>
     <use style="fill:#008000;stroke:#ffffff;stroke-linejoin:miter;stroke-width:0.25;" x="349.505455" xlink:href="#mc838cf3fb9" y="154.528925"/>
     <use style="fill:#008000;stroke:#ffffff;stroke-linejoin:miter;stroke-width:0.25;" x="352.887273" xlink:href="#mc838cf3fb9" y="151.144695"/>
    </g>
   </g>
   <g id="line2d_17">
    <path clip-path="url(#p9c52d29a49)" d="M 28.232727 190.48223 
L 31.614545 190.48223 
L 34.996364 190.48223 
L 38.378182 190.48223 
L 41.76 190.48223 
L 45.141818 190.48223 
L 48.523636 190.48223 
L 51.905455 190.48223 
L 55.287273 190.48223 
L 58.669091 190.48223 
L 62.050909 190.48223 
L 65.432727 190.48223 
L 68.814545 190.48223 
L 72.196364 190.48223 
L 75.578182 190.48223 
L 78.96 190.48223 
L 82.341818 190.48223 
L 85.723636 190.48223 
L 89.105455 190.48223 
L 92.487273 190.48223 
L 95.869091 190.48223 
L 99.250909 190.48223 
L 102.632727 190.48223 
L 106.014545 190.48223 
L 109.396364 190.48223 
L 112.778182 190.48223 
L 116.16 190.48223 
L 119.541818 190.48223 
L 122.923636 190.48223 
L 126.305455 190.48223 
L 129.687273 190.48223 
L 133.069091 190.48223 
L 136.450909 190.48223 
L 139.832727 190.48223 
L 143.214545 190.48223 
L 146.596364 190.48223 
L 149.978182 190.48223 
L 153.36 190.48223 
L 156.741818 190.48223 
L 160.123636 190.48223 
L 163.505455 190.48223 
L 166.887273 190.48223 
L 170.269091 190.48223 
L 173.650909 190.48223 
L 177.032727 190.48223 
L 180.414545 190.48223 
L 183.796364 190.48223 
L 187.178182 190.48223 
L 190.56 190.48223 
L 193.941818 190.476718 
L 197.323636 190.476718 
L 200.705455 190.471207 
L 204.087273 190.471207 
L 207.469091 190.471207 
L 210.850909 190.471207 
L 214.232727 190.465695 
L 217.614545 190.465695 
L 220.996364 190.460183 
L 224.378182 190.454671 
L 227.76 190.460183 
L 231.141818 190.443648 
L 234.523636 190.427112 
L 237.905455 190.427112 
L 241.287273 190.416089 
L 244.669091 190.371995 
L 248.050909 190.371995 
L 251.432727 190.349948 
L 254.814545 190.333412 
L 258.196364 190.305853 
L 261.578182 190.289318 
L 264.96 190.162547 
L 268.341818 190.085382 
L 271.723636 190.085382 
L 275.105455 190.008218 
L 278.487273 189.936564 
L 281.869091 189.732629 
L 285.250909 189.655464 
L 288.632727 189.501134 
L 292.014545 189.236569 
L 295.396364 189.126334 
L 298.778182 188.894839 
L 302.16 188.657833 
L 305.541818 188.509015 
L 308.923636 188.316103 
L 312.305455 188.249961 
L 315.687273 188.012955 
L 319.069091 187.803508 
L 322.450909 187.610596 
L 325.832727 187.401148 
L 329.214545 187.21926 
L 332.596364 186.927136 
L 335.978182 186.728712 
L 339.36 186.508241 
L 342.741818 186.183046 
L 346.123636 185.935016 
L 349.505455 185.626357 
L 352.887273 185.306674 
" style="fill:none;stroke:#ff0000;stroke-linecap:round;stroke-width:1.5;"/>
    <defs>
     <path d="M -0.75 1.5 
L 0 0.75 
L 0.75 1.5 
L 1.5 0.75 
L 0.75 0 
L 1.5 -0.75 
L 0.75 -1.5 
L 0 -0.75 
L -0.75 -1.5 
L -1.5 -0.75 
L -0.75 0 
L -1.5 0.75 
z
" id="maef27dbab6" style="stroke:#ffffff;stroke-linejoin:miter;stroke-width:0.25;"/>
    </defs>
    <g clip-path="url(#p9c52d29a49)">
     <use style="fill:#ff0000;stroke:#ffffff;stroke-linejoin:miter;stroke-width:0.25;" x="28.232727" xlink:href="#maef27dbab6" y="190.48223"/>
     <use style="fill:#ff0000;stroke:#ffffff;stroke-linejoin:miter;stroke-width:0.25;" x="31.614545" xlink:href="#maef27dbab6" y="190.48223"/>
     <use style="fill:#ff0000;stroke:#ffffff;stroke-linejoin:miter;stroke-width:0.25;" x="34.996364" xlink:href="#maef27dbab6" y="190.48223"/>
     <use style="fill:#ff0000;stroke:#ffffff;stroke-linejoin:miter;stroke-width:0.25;" x="38.378182" xlink:href="#maef27dbab6" y="190.48223"/>
     <use style="fill:#ff0000;stroke:#ffffff;stroke-linejoin:miter;stroke-width:0.25;" x="41.76" xlink:href="#maef27dbab6" y="190.48223"/>
     <use style="fill:#ff0000;stroke:#ffffff;stroke-linejoin:miter;stroke-width:0.25;" x="45.141818" xlink:href="#maef27dbab6" y="190.48223"/>
     <use style="fill:#ff0000;stroke:#ffffff;stroke-linejoin:miter;stroke-width:0.25;" x="48.523636" xlink:href="#maef27dbab6" y="190.48223"/>
     <use style="fill:#ff0000;stroke:#ffffff;stroke-linejoin:miter;stroke-width:0.25;" x="51.905455" xlink:href="#maef27dbab6" y="190.48223"/>
     <use style="fill:#ff0000;stroke:#ffffff;stroke-linejoin:miter;stroke-width:0.25;" x="55.287273" xlink:href="#maef27dbab6" y="190.48223"/>
     <use style="fill:#ff0000;stroke:#ffffff;stroke-linejoin:miter;stroke-width:0.25;" x="58.669091" xlink:href="#maef27dbab6" y="190.48223"/>
     <use style="fill:#ff0000;stroke:#ffffff;stroke-linejoin:miter;stroke-width:0.25;" x="62.050909" xlink:href="#maef27dbab6" y="190.48223"/>
     <use style="fill:#ff0000;stroke:#ffffff;stroke-linejoin:miter;stroke-width:0.25;" x="65.432727" xlink:href="#maef27dbab6" y="190.48223"/>
     <use style="fill:#ff0000;stroke:#ffffff;stroke-linejoin:miter;stroke-width:0.25;" x="68.814545" xlink:href="#maef27dbab6" y="190.48223"/>
     <use style="fill:#ff0000;stroke:#ffffff;stroke-linejoin:miter;stroke-width:0.25;" x="72.196364" xlink:href="#maef27dbab6" y="190.48223"/>
     <use style="fill:#ff0000;stroke:#ffffff;stroke-linejoin:miter;stroke-width:0.25;" x="75.578182" xlink:href="#maef27dbab6" y="190.48223"/>
     <use style="fill:#ff0000;stroke:#ffffff;stroke-linejoin:miter;stroke-width:0.25;" x="78.96" xlink:href="#maef27dbab6" y="190.48223"/>
     <use style="fill:#ff0000;stroke:#ffffff;stroke-linejoin:miter;stroke-width:0.25;" x="82.341818" xlink:href="#maef27dbab6" y="190.48223"/>
     <use style="fill:#ff0000;stroke:#ffffff;stroke-linejoin:miter;stroke-width:0.25;" x="85.723636" xlink:href="#maef27dbab6" y="190.48223"/>
     <use style="fill:#ff0000;stroke:#ffffff;stroke-linejoin:miter;stroke-width:0.25;" x="89.105455" xlink:href="#maef27dbab6" y="190.48223"/>
     <use style="fill:#ff0000;stroke:#ffffff;stroke-linejoin:miter;stroke-width:0.25;" x="92.487273" xlink:href="#maef27dbab6" y="190.48223"/>
     <use style="fill:#ff0000;stroke:#ffffff;stroke-linejoin:miter;stroke-width:0.25;" x="95.869091" xlink:href="#maef27dbab6" y="190.48223"/>
     <use style="fill:#ff0000;stroke:#ffffff;stroke-linejoin:miter;stroke-width:0.25;" x="99.250909" xlink:href="#maef27dbab6" y="190.48223"/>
     <use style="fill:#ff0000;stroke:#ffffff;stroke-linejoin:miter;stroke-width:0.25;" x="102.632727" xlink:href="#maef27dbab6" y="190.48223"/>
     <use style="fill:#ff0000;stroke:#ffffff;stroke-linejoin:miter;stroke-width:0.25;" x="106.014545" xlink:href="#maef27dbab6" y="190.48223"/>
     <use style="fill:#ff0000;stroke:#ffffff;stroke-linejoin:miter;stroke-width:0.25;" x="109.396364" xlink:href="#maef27dbab6" y="190.48223"/>
     <use style="fill:#ff0000;stroke:#ffffff;stroke-linejoin:miter;stroke-width:0.25;" x="112.778182" xlink:href="#maef27dbab6" y="190.48223"/>
     <use style="fill:#ff0000;stroke:#ffffff;stroke-linejoin:miter;stroke-width:0.25;" x="116.16" xlink:href="#maef27dbab6" y="190.48223"/>
     <use style="fill:#ff0000;stroke:#ffffff;stroke-linejoin:miter;stroke-width:0.25;" x="119.541818" xlink:href="#maef27dbab6" y="190.48223"/>
     <use style="fill:#ff0000;stroke:#ffffff;stroke-linejoin:miter;stroke-width:0.25;" x="122.923636" xlink:href="#maef27dbab6" y="190.48223"/>
     <use style="fill:#ff0000;stroke:#ffffff;stroke-linejoin:miter;stroke-width:0.25;" x="126.305455" xlink:href="#maef27dbab6" y="190.48223"/>
     <use style="fill:#ff0000;stroke:#ffffff;stroke-linejoin:miter;stroke-width:0.25;" x="129.687273" xlink:href="#maef27dbab6" y="190.48223"/>
     <use style="fill:#ff0000;stroke:#ffffff;stroke-linejoin:miter;stroke-width:0.25;" x="133.069091" xlink:href="#maef27dbab6" y="190.48223"/>
     <use style="fill:#ff0000;stroke:#ffffff;stroke-linejoin:miter;stroke-width:0.25;" x="136.450909" xlink:href="#maef27dbab6" y="190.48223"/>
     <use style="fill:#ff0000;stroke:#ffffff;stroke-linejoin:miter;stroke-width:0.25;" x="139.832727" xlink:href="#maef27dbab6" y="190.48223"/>
     <use style="fill:#ff0000;stroke:#ffffff;stroke-linejoin:miter;stroke-width:0.25;" x="143.214545" xlink:href="#maef27dbab6" y="190.48223"/>
     <use style="fill:#ff0000;stroke:#ffffff;stroke-linejoin:miter;stroke-width:0.25;" x="146.596364" xlink:href="#maef27dbab6" y="190.48223"/>
     <use style="fill:#ff0000;stroke:#ffffff;stroke-linejoin:miter;stroke-width:0.25;" x="149.978182" xlink:href="#maef27dbab6" y="190.48223"/>
     <use style="fill:#ff0000;stroke:#ffffff;stroke-linejoin:miter;stroke-width:0.25;" x="153.36" xlink:href="#maef27dbab6" y="190.48223"/>
     <use style="fill:#ff0000;stroke:#ffffff;stroke-linejoin:miter;stroke-width:0.25;" x="156.741818" xlink:href="#maef27dbab6" y="190.48223"/>
     <use style="fill:#ff0000;stroke:#ffffff;stroke-linejoin:miter;stroke-width:0.25;" x="160.123636" xlink:href="#maef27dbab6" y="190.48223"/>
     <use style="fill:#ff0000;stroke:#ffffff;stroke-linejoin:miter;stroke-width:0.25;" x="163.505455" xlink:href="#maef27dbab6" y="190.48223"/>
     <use style="fill:#ff0000;stroke:#ffffff;stroke-linejoin:miter;stroke-width:0.25;" x="166.887273" xlink:href="#maef27dbab6" y="190.48223"/>
     <use style="fill:#ff0000;stroke:#ffffff;stroke-linejoin:miter;stroke-width:0.25;" x="170.269091" xlink:href="#maef27dbab6" y="190.48223"/>
     <use style="fill:#ff0000;stroke:#ffffff;stroke-linejoin:miter;stroke-width:0.25;" x="173.650909" xlink:href="#maef27dbab6" y="190.48223"/>
     <use style="fill:#ff0000;stroke:#ffffff;stroke-linejoin:miter;stroke-width:0.25;" x="177.032727" xlink:href="#maef27dbab6" y="190.48223"/>
     <use style="fill:#ff0000;stroke:#ffffff;stroke-linejoin:miter;stroke-width:0.25;" x="180.414545" xlink:href="#maef27dbab6" y="190.48223"/>
     <use style="fill:#ff0000;stroke:#ffffff;stroke-linejoin:miter;stroke-width:0.25;" x="183.796364" xlink:href="#maef27dbab6" y="190.48223"/>
     <use style="fill:#ff0000;stroke:#ffffff;stroke-linejoin:miter;stroke-width:0.25;" x="187.178182" xlink:href="#maef27dbab6" y="190.48223"/>
     <use style="fill:#ff0000;stroke:#ffffff;stroke-linejoin:miter;stroke-width:0.25;" x="190.56" xlink:href="#maef27dbab6" y="190.48223"/>
     <use style="fill:#ff0000;stroke:#ffffff;stroke-linejoin:miter;stroke-width:0.25;" x="193.941818" xlink:href="#maef27dbab6" y="190.476718"/>
     <use style="fill:#ff0000;stroke:#ffffff;stroke-linejoin:miter;stroke-width:0.25;" x="197.323636" xlink:href="#maef27dbab6" y="190.476718"/>
     <use style="fill:#ff0000;stroke:#ffffff;stroke-linejoin:miter;stroke-width:0.25;" x="200.705455" xlink:href="#maef27dbab6" y="190.471207"/>
     <use style="fill:#ff0000;stroke:#ffffff;stroke-linejoin:miter;stroke-width:0.25;" x="204.087273" xlink:href="#maef27dbab6" y="190.471207"/>
     <use style="fill:#ff0000;stroke:#ffffff;stroke-linejoin:miter;stroke-width:0.25;" x="207.469091" xlink:href="#maef27dbab6" y="190.471207"/>
     <use style="fill:#ff0000;stroke:#ffffff;stroke-linejoin:miter;stroke-width:0.25;" x="210.850909" xlink:href="#maef27dbab6" y="190.471207"/>
     <use style="fill:#ff0000;stroke:#ffffff;stroke-linejoin:miter;stroke-width:0.25;" x="214.232727" xlink:href="#maef27dbab6" y="190.465695"/>
     <use style="fill:#ff0000;stroke:#ffffff;stroke-linejoin:miter;stroke-width:0.25;" x="217.614545" xlink:href="#maef27dbab6" y="190.465695"/>
     <use style="fill:#ff0000;stroke:#ffffff;stroke-linejoin:miter;stroke-width:0.25;" x="220.996364" xlink:href="#maef27dbab6" y="190.460183"/>
     <use style="fill:#ff0000;stroke:#ffffff;stroke-linejoin:miter;stroke-width:0.25;" x="224.378182" xlink:href="#maef27dbab6" y="190.454671"/>
     <use style="fill:#ff0000;stroke:#ffffff;stroke-linejoin:miter;stroke-width:0.25;" x="227.76" xlink:href="#maef27dbab6" y="190.460183"/>
     <use style="fill:#ff0000;stroke:#ffffff;stroke-linejoin:miter;stroke-width:0.25;" x="231.141818" xlink:href="#maef27dbab6" y="190.443648"/>
     <use style="fill:#ff0000;stroke:#ffffff;stroke-linejoin:miter;stroke-width:0.25;" x="234.523636" xlink:href="#maef27dbab6" y="190.427112"/>
     <use style="fill:#ff0000;stroke:#ffffff;stroke-linejoin:miter;stroke-width:0.25;" x="237.905455" xlink:href="#maef27dbab6" y="190.427112"/>
     <use style="fill:#ff0000;stroke:#ffffff;stroke-linejoin:miter;stroke-width:0.25;" x="241.287273" xlink:href="#maef27dbab6" y="190.416089"/>
     <use style="fill:#ff0000;stroke:#ffffff;stroke-linejoin:miter;stroke-width:0.25;" x="244.669091" xlink:href="#maef27dbab6" y="190.371995"/>
     <use style="fill:#ff0000;stroke:#ffffff;stroke-linejoin:miter;stroke-width:0.25;" x="248.050909" xlink:href="#maef27dbab6" y="190.371995"/>
     <use style="fill:#ff0000;stroke:#ffffff;stroke-linejoin:miter;stroke-width:0.25;" x="251.432727" xlink:href="#maef27dbab6" y="190.349948"/>
     <use style="fill:#ff0000;stroke:#ffffff;stroke-linejoin:miter;stroke-width:0.25;" x="254.814545" xlink:href="#maef27dbab6" y="190.333412"/>
     <use style="fill:#ff0000;stroke:#ffffff;stroke-linejoin:miter;stroke-width:0.25;" x="258.196364" xlink:href="#maef27dbab6" y="190.305853"/>
     <use style="fill:#ff0000;stroke:#ffffff;stroke-linejoin:miter;stroke-width:0.25;" x="261.578182" xlink:href="#maef27dbab6" y="190.289318"/>
     <use style="fill:#ff0000;stroke:#ffffff;stroke-linejoin:miter;stroke-width:0.25;" x="264.96" xlink:href="#maef27dbab6" y="190.162547"/>
     <use style="fill:#ff0000;stroke:#ffffff;stroke-linejoin:miter;stroke-width:0.25;" x="268.341818" xlink:href="#maef27dbab6" y="190.085382"/>
     <use style="fill:#ff0000;stroke:#ffffff;stroke-linejoin:miter;stroke-width:0.25;" x="271.723636" xlink:href="#maef27dbab6" y="190.085382"/>
     <use style="fill:#ff0000;stroke:#ffffff;stroke-linejoin:miter;stroke-width:0.25;" x="275.105455" xlink:href="#maef27dbab6" y="190.008218"/>
     <use style="fill:#ff0000;stroke:#ffffff;stroke-linejoin:miter;stroke-width:0.25;" x="278.487273" xlink:href="#maef27dbab6" y="189.936564"/>
     <use style="fill:#ff0000;stroke:#ffffff;stroke-linejoin:miter;stroke-width:0.25;" x="281.869091" xlink:href="#maef27dbab6" y="189.732629"/>
     <use style="fill:#ff0000;stroke:#ffffff;stroke-linejoin:miter;stroke-width:0.25;" x="285.250909" xlink:href="#maef27dbab6" y="189.655464"/>
     <use style="fill:#ff0000;stroke:#ffffff;stroke-linejoin:miter;stroke-width:0.25;" x="288.632727" xlink:href="#maef27dbab6" y="189.501134"/>
     <use style="fill:#ff0000;stroke:#ffffff;stroke-linejoin:miter;stroke-width:0.25;" x="292.014545" xlink:href="#maef27dbab6" y="189.236569"/>
     <use style="fill:#ff0000;stroke:#ffffff;stroke-linejoin:miter;stroke-width:0.25;" x="295.396364" xlink:href="#maef27dbab6" y="189.126334"/>
     <use style="fill:#ff0000;stroke:#ffffff;stroke-linejoin:miter;stroke-width:0.25;" x="298.778182" xlink:href="#maef27dbab6" y="188.894839"/>
     <use style="fill:#ff0000;stroke:#ffffff;stroke-linejoin:miter;stroke-width:0.25;" x="302.16" xlink:href="#maef27dbab6" y="188.657833"/>
     <use style="fill:#ff0000;stroke:#ffffff;stroke-linejoin:miter;stroke-width:0.25;" x="305.541818" xlink:href="#maef27dbab6" y="188.509015"/>
     <use style="fill:#ff0000;stroke:#ffffff;stroke-linejoin:miter;stroke-width:0.25;" x="308.923636" xlink:href="#maef27dbab6" y="188.316103"/>
     <use style="fill:#ff0000;stroke:#ffffff;stroke-linejoin:miter;stroke-width:0.25;" x="312.305455" xlink:href="#maef27dbab6" y="188.249961"/>
     <use style="fill:#ff0000;stroke:#ffffff;stroke-linejoin:miter;stroke-width:0.25;" x="315.687273" xlink:href="#maef27dbab6" y="188.012955"/>
     <use style="fill:#ff0000;stroke:#ffffff;stroke-linejoin:miter;stroke-width:0.25;" x="319.069091" xlink:href="#maef27dbab6" y="187.803508"/>
     <use style="fill:#ff0000;stroke:#ffffff;stroke-linejoin:miter;stroke-width:0.25;" x="322.450909" xlink:href="#maef27dbab6" y="187.610596"/>
     <use style="fill:#ff0000;stroke:#ffffff;stroke-linejoin:miter;stroke-width:0.25;" x="325.832727" xlink:href="#maef27dbab6" y="187.401148"/>
     <use style="fill:#ff0000;stroke:#ffffff;stroke-linejoin:miter;stroke-width:0.25;" x="329.214545" xlink:href="#maef27dbab6" y="187.21926"/>
     <use style="fill:#ff0000;stroke:#ffffff;stroke-linejoin:miter;stroke-width:0.25;" x="332.596364" xlink:href="#maef27dbab6" y="186.927136"/>
     <use style="fill:#ff0000;stroke:#ffffff;stroke-linejoin:miter;stroke-width:0.25;" x="335.978182" xlink:href="#maef27dbab6" y="186.728712"/>
     <use style="fill:#ff0000;stroke:#ffffff;stroke-linejoin:miter;stroke-width:0.25;" x="339.36" xlink:href="#maef27dbab6" y="186.508241"/>
     <use style="fill:#ff0000;stroke:#ffffff;stroke-linejoin:miter;stroke-width:0.25;" x="342.741818" xlink:href="#maef27dbab6" y="186.183046"/>
     <use style="fill:#ff0000;stroke:#ffffff;stroke-linejoin:miter;stroke-width:0.25;" x="346.123636" xlink:href="#maef27dbab6" y="185.935016"/>
     <use style="fill:#ff0000;stroke:#ffffff;stroke-linejoin:miter;stroke-width:0.25;" x="349.505455" xlink:href="#maef27dbab6" y="185.626357"/>
     <use style="fill:#ff0000;stroke:#ffffff;stroke-linejoin:miter;stroke-width:0.25;" x="352.887273" xlink:href="#maef27dbab6" y="185.306674"/>
    </g>
   </g>
   <g id="line2d_18"/>
   <g id="line2d_19"/>
   <g id="line2d_20"/>
   <g id="line2d_21"/>
   <g id="line2d_22">
    <path clip-path="url(#p9c52d29a49)" d="M 12 28.154957 
L 369.12 28.154957 
" style="fill:none;stroke:#4c72b0;stroke-dasharray:0.5,0.825;stroke-dashoffset:0;stroke-width:0.5;"/>
   </g>
   <g id="line2d_23">
    <path clip-path="url(#p9c52d29a49)" d="M 12 185.306674 
L 369.12 185.306674 
" style="fill:none;stroke:#4c72b0;stroke-dasharray:0.5,0.825;stroke-dashoffset:0;stroke-width:0.5;"/>
   </g>
   <g id="line2d_24">
    <path clip-path="url(#p9c52d29a49)" d="M 12 151.144695 
L 369.12 151.144695 
" style="fill:none;stroke:#4c72b0;stroke-dasharray:0.5,0.825;stroke-dashoffset:0;stroke-width:0.5;"/>
   </g>
   <g id="line2d_25">
    <path clip-path="url(#p9c52d29a49)" d="M 352.887273 198.598594 
L 352.887273 20.038594 
" style="fill:none;stroke:#4c72b0;stroke-dasharray:0.5,0.825;stroke-dashoffset:0;stroke-width:0.5;"/>
   </g>
   <g id="patch_3">
    <path d="M 12 198.598594 
L 12 20.038594 
" style="fill:none;stroke:#262626;stroke-linecap:square;stroke-linejoin:miter;stroke-width:0.5;"/>
   </g>
   <g id="patch_4">
    <path d="M 12 198.598594 
L 369.12 198.598594 
" style="fill:none;stroke:#262626;stroke-linecap:square;stroke-linejoin:miter;stroke-width:0.5;"/>
   </g>
   <g id="text_8">
    <!-- 29451 -->
    <defs>
     <path d="M 10.984375 1.515625 
L 10.984375 10.5 
Q 14.703125 8.734375 18.5 7.8125 
Q 22.3125 6.890625 25.984375 6.890625 
Q 35.75 6.890625 40.890625 13.453125 
Q 46.046875 20.015625 46.78125 33.40625 
Q 43.953125 29.203125 39.59375 26.953125 
Q 35.25 24.703125 29.984375 24.703125 
Q 19.046875 24.703125 12.671875 31.3125 
Q 6.296875 37.9375 6.296875 49.421875 
Q 6.296875 60.640625 12.9375 67.421875 
Q 19.578125 74.21875 30.609375 74.21875 
Q 43.265625 74.21875 49.921875 64.515625 
Q 56.59375 54.828125 56.59375 36.375 
Q 56.59375 19.140625 48.40625 8.859375 
Q 40.234375 -1.421875 26.421875 -1.421875 
Q 22.703125 -1.421875 18.890625 -0.6875 
Q 15.09375 0.046875 10.984375 1.515625 
z
M 30.609375 32.421875 
Q 37.25 32.421875 41.125 36.953125 
Q 45.015625 41.5 45.015625 49.421875 
Q 45.015625 57.28125 41.125 61.84375 
Q 37.25 66.40625 30.609375 66.40625 
Q 23.96875 66.40625 20.09375 61.84375 
Q 16.21875 57.28125 16.21875 49.421875 
Q 16.21875 41.5 20.09375 36.953125 
Q 23.96875 32.421875 30.609375 32.421875 
z
" id="DejaVuSans-57"/>
     <path d="M 37.796875 64.3125 
L 12.890625 25.390625 
L 37.796875 25.390625 
z
M 35.203125 72.90625 
L 47.609375 72.90625 
L 47.609375 25.390625 
L 58.015625 25.390625 
L 58.015625 17.1875 
L 47.609375 17.1875 
L 47.609375 0 
L 37.796875 0 
L 37.796875 17.1875 
L 4.890625 17.1875 
L 4.890625 26.703125 
z
" id="DejaVuSans-52"/>
    </defs>
    <g style="fill:#ff0000;" transform="translate(15.5712 26.491207)scale(0.08 -0.08)">
     <use xlink:href="#DejaVuSans-50"/>
     <use x="63.623047" xlink:href="#DejaVuSans-57"/>
     <use x="127.246094" xlink:href="#DejaVuSans-52"/>
     <use x="190.869141" xlink:href="#DejaVuSans-53"/>
     <use x="254.492188" xlink:href="#DejaVuSans-49"/>
    </g>
   </g>
   <g id="text_9">
    <!-- 939 -->
    <defs>
     <path d="M 40.578125 39.3125 
Q 47.65625 37.796875 51.625 33 
Q 55.609375 28.21875 55.609375 21.1875 
Q 55.609375 10.40625 48.1875 4.484375 
Q 40.765625 -1.421875 27.09375 -1.421875 
Q 22.515625 -1.421875 17.65625 -0.515625 
Q 12.796875 0.390625 7.625 2.203125 
L 7.625 11.71875 
Q 11.71875 9.328125 16.59375 8.109375 
Q 21.484375 6.890625 26.8125 6.890625 
Q 36.078125 6.890625 40.9375 10.546875 
Q 45.796875 14.203125 45.796875 21.1875 
Q 45.796875 27.640625 41.28125 31.265625 
Q 36.765625 34.90625 28.71875 34.90625 
L 20.21875 34.90625 
L 20.21875 43.015625 
L 29.109375 43.015625 
Q 36.375 43.015625 40.234375 45.921875 
Q 44.09375 48.828125 44.09375 54.296875 
Q 44.09375 59.90625 40.109375 62.90625 
Q 36.140625 65.921875 28.71875 65.921875 
Q 24.65625 65.921875 20.015625 65.03125 
Q 15.375 64.15625 9.8125 62.3125 
L 9.8125 71.09375 
Q 15.4375 72.65625 20.34375 73.4375 
Q 25.25 74.21875 29.59375 74.21875 
Q 40.828125 74.21875 47.359375 69.109375 
Q 53.90625 64.015625 53.90625 55.328125 
Q 53.90625 49.265625 50.4375 45.09375 
Q 46.96875 40.921875 40.578125 39.3125 
z
" id="DejaVuSans-51"/>
    </defs>
    <g style="fill:#ff0000;" transform="translate(15.5712 183.642924)scale(0.08 -0.08)">
     <use xlink:href="#DejaVuSans-57"/>
     <use x="63.623047" xlink:href="#DejaVuSans-51"/>
     <use x="127.246094" xlink:href="#DejaVuSans-57"/>
    </g>
   </g>
   <g id="text_10">
    <!-- 7137 -->
    <g style="fill:#008000;" transform="translate(15.5712 149.480945)scale(0.08 -0.08)">
     <use xlink:href="#DejaVuSans-55"/>
     <use x="63.623047" xlink:href="#DejaVuSans-49"/>
     <use x="127.246094" xlink:href="#DejaVuSans-51"/>
     <use x="190.869141" xlink:href="#DejaVuSans-55"/>
    </g>
   </g>
   <g id="text_11">
    <!-- COVID-19 Cases, Recoveries &amp; Deaths Graph -->
    <defs>
     <path d="M 64.40625 67.28125 
L 64.40625 56.890625 
Q 59.421875 61.53125 53.78125 63.8125 
Q 48.140625 66.109375 41.796875 66.109375 
Q 29.296875 66.109375 22.65625 58.46875 
Q 16.015625 50.828125 16.015625 36.375 
Q 16.015625 21.96875 22.65625 14.328125 
Q 29.296875 6.6875 41.796875 6.6875 
Q 48.140625 6.6875 53.78125 8.984375 
Q 59.421875 11.28125 64.40625 15.921875 
L 64.40625 5.609375 
Q 59.234375 2.09375 53.4375 0.328125 
Q 47.65625 -1.421875 41.21875 -1.421875 
Q 24.65625 -1.421875 15.125 8.703125 
Q 5.609375 18.84375 5.609375 36.375 
Q 5.609375 53.953125 15.125 64.078125 
Q 24.65625 74.21875 41.21875 74.21875 
Q 47.75 74.21875 53.53125 72.484375 
Q 59.328125 70.75 64.40625 67.28125 
z
" id="DejaVuSans-67"/>
     <path d="M 39.40625 66.21875 
Q 28.65625 66.21875 22.328125 58.203125 
Q 16.015625 50.203125 16.015625 36.375 
Q 16.015625 22.609375 22.328125 14.59375 
Q 28.65625 6.59375 39.40625 6.59375 
Q 50.140625 6.59375 56.421875 14.59375 
Q 62.703125 22.609375 62.703125 36.375 
Q 62.703125 50.203125 56.421875 58.203125 
Q 50.140625 66.21875 39.40625 66.21875 
z
M 39.40625 74.21875 
Q 54.734375 74.21875 63.90625 63.9375 
Q 73.09375 53.65625 73.09375 36.375 
Q 73.09375 19.140625 63.90625 8.859375 
Q 54.734375 -1.421875 39.40625 -1.421875 
Q 24.03125 -1.421875 14.8125 8.828125 
Q 5.609375 19.09375 5.609375 36.375 
Q 5.609375 53.65625 14.8125 63.9375 
Q 24.03125 74.21875 39.40625 74.21875 
z
" id="DejaVuSans-79"/>
     <path d="M 28.609375 0 
L 0.78125 72.90625 
L 11.078125 72.90625 
L 34.1875 11.53125 
L 57.328125 72.90625 
L 67.578125 72.90625 
L 39.796875 0 
z
" id="DejaVuSans-86"/>
     <path d="M 9.8125 72.90625 
L 19.671875 72.90625 
L 19.671875 0 
L 9.8125 0 
z
" id="DejaVuSans-73"/>
     <path d="M 19.671875 64.796875 
L 19.671875 8.109375 
L 31.59375 8.109375 
Q 46.6875 8.109375 53.6875 14.9375 
Q 60.6875 21.78125 60.6875 36.53125 
Q 60.6875 51.171875 53.6875 57.984375 
Q 46.6875 64.796875 31.59375 64.796875 
z
M 9.8125 72.90625 
L 30.078125 72.90625 
Q 51.265625 72.90625 61.171875 64.09375 
Q 71.09375 55.28125 71.09375 36.53125 
Q 71.09375 17.671875 61.125 8.828125 
Q 51.171875 0 30.078125 0 
L 9.8125 0 
z
" id="DejaVuSans-68"/>
     <path d="M 4.890625 31.390625 
L 31.203125 31.390625 
L 31.203125 23.390625 
L 4.890625 23.390625 
z
" id="DejaVuSans-45"/>
     <path d="M 44.28125 53.078125 
L 44.28125 44.578125 
Q 40.484375 46.53125 36.375 47.5 
Q 32.28125 48.484375 27.875 48.484375 
Q 21.1875 48.484375 17.84375 46.4375 
Q 14.5 44.390625 14.5 40.28125 
Q 14.5 37.15625 16.890625 35.375 
Q 19.28125 33.59375 26.515625 31.984375 
L 29.59375 31.296875 
Q 39.15625 29.25 43.1875 25.515625 
Q 47.21875 21.78125 47.21875 15.09375 
Q 47.21875 7.46875 41.1875 3.015625 
Q 35.15625 -1.421875 24.609375 -1.421875 
Q 20.21875 -1.421875 15.453125 -0.5625 
Q 10.6875 0.296875 5.421875 2 
L 5.421875 11.28125 
Q 10.40625 8.6875 15.234375 7.390625 
Q 20.0625 6.109375 24.8125 6.109375 
Q 31.15625 6.109375 34.5625 8.28125 
Q 37.984375 10.453125 37.984375 14.40625 
Q 37.984375 18.0625 35.515625 20.015625 
Q 33.0625 21.96875 24.703125 23.78125 
L 21.578125 24.515625 
Q 13.234375 26.265625 9.515625 29.90625 
Q 5.8125 33.546875 5.8125 39.890625 
Q 5.8125 47.609375 11.28125 51.796875 
Q 16.75 56 26.8125 56 
Q 31.78125 56 36.171875 55.265625 
Q 40.578125 54.546875 44.28125 53.078125 
z
" id="DejaVuSans-115"/>
     <path d="M 11.71875 12.40625 
L 22.015625 12.40625 
L 22.015625 4 
L 14.015625 -11.625 
L 7.71875 -11.625 
L 11.71875 4 
z
" id="DejaVuSans-44"/>
     <path d="M 44.390625 34.1875 
Q 47.5625 33.109375 50.5625 29.59375 
Q 53.5625 26.078125 56.59375 19.921875 
L 66.609375 0 
L 56 0 
L 46.6875 18.703125 
Q 43.0625 26.03125 39.671875 28.421875 
Q 36.28125 30.8125 30.421875 30.8125 
L 19.671875 30.8125 
L 19.671875 0 
L 9.8125 0 
L 9.8125 72.90625 
L 32.078125 72.90625 
Q 44.578125 72.90625 50.734375 67.671875 
Q 56.890625 62.453125 56.890625 51.90625 
Q 56.890625 45.015625 53.6875 40.46875 
Q 50.484375 35.9375 44.390625 34.1875 
z
M 19.671875 64.796875 
L 19.671875 38.921875 
L 32.078125 38.921875 
Q 39.203125 38.921875 42.84375 42.21875 
Q 46.484375 45.515625 46.484375 51.90625 
Q 46.484375 58.296875 42.84375 61.546875 
Q 39.203125 64.796875 32.078125 64.796875 
z
" id="DejaVuSans-82"/>
     <path d="M 48.78125 52.59375 
L 48.78125 44.1875 
Q 44.96875 46.296875 41.140625 47.34375 
Q 37.3125 48.390625 33.40625 48.390625 
Q 24.65625 48.390625 19.8125 42.84375 
Q 14.984375 37.3125 14.984375 27.296875 
Q 14.984375 17.28125 19.8125 11.734375 
Q 24.65625 6.203125 33.40625 6.203125 
Q 37.3125 6.203125 41.140625 7.25 
Q 44.96875 8.296875 48.78125 10.40625 
L 48.78125 2.09375 
Q 45.015625 0.34375 40.984375 -0.53125 
Q 36.96875 -1.421875 32.421875 -1.421875 
Q 20.0625 -1.421875 12.78125 6.34375 
Q 5.515625 14.109375 5.515625 27.296875 
Q 5.515625 40.671875 12.859375 48.328125 
Q 20.21875 56 33.015625 56 
Q 37.15625 56 41.109375 55.140625 
Q 45.0625 54.296875 48.78125 52.59375 
z
" id="DejaVuSans-99"/>
     <path d="M 30.609375 48.390625 
Q 23.390625 48.390625 19.1875 42.75 
Q 14.984375 37.109375 14.984375 27.296875 
Q 14.984375 17.484375 19.15625 11.84375 
Q 23.34375 6.203125 30.609375 6.203125 
Q 37.796875 6.203125 41.984375 11.859375 
Q 46.1875 17.53125 46.1875 27.296875 
Q 46.1875 37.015625 41.984375 42.703125 
Q 37.796875 48.390625 30.609375 48.390625 
z
M 30.609375 56 
Q 42.328125 56 49.015625 48.375 
Q 55.71875 40.765625 55.71875 27.296875 
Q 55.71875 13.875 49.015625 6.21875 
Q 42.328125 -1.421875 30.609375 -1.421875 
Q 18.84375 -1.421875 12.171875 6.21875 
Q 5.515625 13.875 5.515625 27.296875 
Q 5.515625 40.765625 12.171875 48.375 
Q 18.84375 56 30.609375 56 
z
" id="DejaVuSans-111"/>
     <path d="M 2.984375 54.6875 
L 12.5 54.6875 
L 29.59375 8.796875 
L 46.6875 54.6875 
L 56.203125 54.6875 
L 35.6875 0 
L 23.484375 0 
z
" id="DejaVuSans-118"/>
     <path d="M 9.421875 54.6875 
L 18.40625 54.6875 
L 18.40625 0 
L 9.421875 0 
z
M 9.421875 75.984375 
L 18.40625 75.984375 
L 18.40625 64.59375 
L 9.421875 64.59375 
z
" id="DejaVuSans-105"/>
     <path d="M 24.3125 39.203125 
Q 19.875 35.25 17.796875 31.3125 
Q 15.71875 27.390625 15.71875 23.09375 
Q 15.71875 15.96875 20.890625 11.234375 
Q 26.078125 6.5 33.890625 6.5 
Q 38.53125 6.5 42.578125 8.03125 
Q 46.625 9.578125 50.203125 12.703125 
z
M 31.203125 44.671875 
L 56 19.28125 
Q 58.890625 23.640625 60.5 28.59375 
Q 62.109375 33.546875 62.40625 39.109375 
L 71.484375 39.109375 
Q 70.90625 32.671875 68.359375 26.359375 
Q 65.828125 20.0625 61.28125 13.921875 
L 74.90625 0 
L 62.59375 0 
L 55.609375 7.171875 
Q 50.53125 2.828125 44.96875 0.703125 
Q 39.40625 -1.421875 33.015625 -1.421875 
Q 21.234375 -1.421875 13.765625 5.296875 
Q 6.296875 12.015625 6.296875 22.515625 
Q 6.296875 28.765625 9.5625 34.25 
Q 12.84375 39.75 19.390625 44.578125 
Q 17.046875 47.65625 15.8125 50.703125 
Q 14.59375 53.765625 14.59375 56.6875 
Q 14.59375 64.59375 20.015625 69.40625 
Q 25.4375 74.21875 34.421875 74.21875 
Q 38.484375 74.21875 42.5 73.34375 
Q 46.53125 72.46875 50.6875 70.703125 
L 50.6875 61.8125 
Q 46.4375 64.109375 42.578125 65.296875 
Q 38.71875 66.5 35.40625 66.5 
Q 30.28125 66.5 27.078125 63.78125 
Q 23.875 61.078125 23.875 56.78125 
Q 23.875 54.296875 25.3125 51.78125 
Q 26.765625 49.265625 31.203125 44.671875 
z
" id="DejaVuSans-38"/>
     <path d="M 18.3125 70.21875 
L 18.3125 54.6875 
L 36.8125 54.6875 
L 36.8125 47.703125 
L 18.3125 47.703125 
L 18.3125 18.015625 
Q 18.3125 11.328125 20.140625 9.421875 
Q 21.96875 7.515625 27.59375 7.515625 
L 36.8125 7.515625 
L 36.8125 0 
L 27.59375 0 
Q 17.1875 0 13.234375 3.875 
Q 9.28125 7.765625 9.28125 18.015625 
L 9.28125 47.703125 
L 2.6875 47.703125 
L 2.6875 54.6875 
L 9.28125 54.6875 
L 9.28125 70.21875 
z
" id="DejaVuSans-116"/>
     <path d="M 54.890625 33.015625 
L 54.890625 0 
L 45.90625 0 
L 45.90625 32.71875 
Q 45.90625 40.484375 42.875 44.328125 
Q 39.84375 48.1875 33.796875 48.1875 
Q 26.515625 48.1875 22.3125 43.546875 
Q 18.109375 38.921875 18.109375 30.90625 
L 18.109375 0 
L 9.078125 0 
L 9.078125 75.984375 
L 18.109375 75.984375 
L 18.109375 46.1875 
Q 21.34375 51.125 25.703125 53.5625 
Q 30.078125 56 35.796875 56 
Q 45.21875 56 50.046875 50.171875 
Q 54.890625 44.34375 54.890625 33.015625 
z
" id="DejaVuSans-104"/>
     <path d="M 59.515625 10.40625 
L 59.515625 29.984375 
L 43.40625 29.984375 
L 43.40625 38.09375 
L 69.28125 38.09375 
L 69.28125 6.78125 
Q 63.578125 2.734375 56.6875 0.65625 
Q 49.8125 -1.421875 42 -1.421875 
Q 24.90625 -1.421875 15.25 8.5625 
Q 5.609375 18.5625 5.609375 36.375 
Q 5.609375 54.25 15.25 64.234375 
Q 24.90625 74.21875 42 74.21875 
Q 49.125 74.21875 55.546875 72.453125 
Q 61.96875 70.703125 67.390625 67.28125 
L 67.390625 56.78125 
Q 61.921875 61.421875 55.765625 63.765625 
Q 49.609375 66.109375 42.828125 66.109375 
Q 29.4375 66.109375 22.71875 58.640625 
Q 16.015625 51.171875 16.015625 36.375 
Q 16.015625 21.625 22.71875 14.15625 
Q 29.4375 6.6875 42.828125 6.6875 
Q 48.046875 6.6875 52.140625 7.59375 
Q 56.25 8.5 59.515625 10.40625 
z
" id="DejaVuSans-71"/>
    </defs>
    <g style="fill:#262626;" transform="translate(88.964766 14.038594)scale(0.09 -0.09)">
     <use xlink:href="#DejaVuSans-67"/>
     <use x="69.824219" xlink:href="#DejaVuSans-79"/>
     <use x="146.785156" xlink:href="#DejaVuSans-86"/>
     <use x="215.193359" xlink:href="#DejaVuSans-73"/>
     <use x="244.685547" xlink:href="#DejaVuSans-68"/>
     <use x="321.6875" xlink:href="#DejaVuSans-45"/>
     <use x="357.771484" xlink:href="#DejaVuSans-49"/>
     <use x="421.394531" xlink:href="#DejaVuSans-57"/>
     <use x="485.017578" xlink:href="#DejaVuSans-32"/>
     <use x="516.804688" xlink:href="#DejaVuSans-67"/>
     <use x="586.628906" xlink:href="#DejaVuSans-97"/>
     <use x="647.908203" xlink:href="#DejaVuSans-115"/>
     <use x="700.007812" xlink:href="#DejaVuSans-101"/>
     <use x="761.53125" xlink:href="#DejaVuSans-115"/>
     <use x="813.630859" xlink:href="#DejaVuSans-44"/>
     <use x="845.417969" xlink:href="#DejaVuSans-32"/>
     <use x="877.205078" xlink:href="#DejaVuSans-82"/>
     <use x="942.1875" xlink:href="#DejaVuSans-101"/>
     <use x="1003.710938" xlink:href="#DejaVuSans-99"/>
     <use x="1058.691406" xlink:href="#DejaVuSans-111"/>
     <use x="1119.873047" xlink:href="#DejaVuSans-118"/>
     <use x="1179.052734" xlink:href="#DejaVuSans-101"/>
     <use x="1240.576172" xlink:href="#DejaVuSans-114"/>
     <use x="1281.689453" xlink:href="#DejaVuSans-105"/>
     <use x="1309.472656" xlink:href="#DejaVuSans-101"/>
     <use x="1370.996094" xlink:href="#DejaVuSans-115"/>
     <use x="1423.095703" xlink:href="#DejaVuSans-32"/>
     <use x="1454.882812" xlink:href="#DejaVuSans-38"/>
     <use x="1532.861328" xlink:href="#DejaVuSans-32"/>
     <use x="1564.648438" xlink:href="#DejaVuSans-68"/>
     <use x="1641.650391" xlink:href="#DejaVuSans-101"/>
     <use x="1703.173828" xlink:href="#DejaVuSans-97"/>
     <use x="1764.453125" xlink:href="#DejaVuSans-116"/>
     <use x="1803.662109" xlink:href="#DejaVuSans-104"/>
     <use x="1867.041016" xlink:href="#DejaVuSans-115"/>
     <use x="1919.140625" xlink:href="#DejaVuSans-32"/>
     <use x="1950.927734" xlink:href="#DejaVuSans-71"/>
     <use x="2028.417969" xlink:href="#DejaVuSans-114"/>
     <use x="2069.53125" xlink:href="#DejaVuSans-97"/>
     <use x="2130.810547" xlink:href="#DejaVuSans-112"/>
     <use x="2194.287109" xlink:href="#DejaVuSans-104"/>
    </g>
   </g>
   <g id="legend_1">
    <g id="line2d_26">
     <path d="M 19.92 95.750094 
L 37.52 95.750094 
" style="fill:none;stroke:#ffa500;stroke-linecap:round;stroke-width:1.5;"/>
    </g>
    <g id="line2d_27">
     <g>
      <use style="fill:#ffa500;stroke:#ffffff;stroke-width:0.25;" x="28.72" xlink:href="#m094da971dd" y="95.750094"/>
     </g>
    </g>
    <g id="text_12">
     <!-- Confirmed Cases -->
     <defs>
      <path d="M 54.890625 33.015625 
L 54.890625 0 
L 45.90625 0 
L 45.90625 32.71875 
Q 45.90625 40.484375 42.875 44.328125 
Q 39.84375 48.1875 33.796875 48.1875 
Q 26.515625 48.1875 22.3125 43.546875 
Q 18.109375 38.921875 18.109375 30.90625 
L 18.109375 0 
L 9.078125 0 
L 9.078125 54.6875 
L 18.109375 54.6875 
L 18.109375 46.1875 
Q 21.34375 51.125 25.703125 53.5625 
Q 30.078125 56 35.796875 56 
Q 45.21875 56 50.046875 50.171875 
Q 54.890625 44.34375 54.890625 33.015625 
z
" id="DejaVuSans-110"/>
      <path d="M 37.109375 75.984375 
L 37.109375 68.5 
L 28.515625 68.5 
Q 23.6875 68.5 21.796875 66.546875 
Q 19.921875 64.59375 19.921875 59.515625 
L 19.921875 54.6875 
L 34.71875 54.6875 
L 34.71875 47.703125 
L 19.921875 47.703125 
L 19.921875 0 
L 10.890625 0 
L 10.890625 47.703125 
L 2.296875 47.703125 
L 2.296875 54.6875 
L 10.890625 54.6875 
L 10.890625 58.5 
Q 10.890625 67.625 15.140625 71.796875 
Q 19.390625 75.984375 28.609375 75.984375 
z
" id="DejaVuSans-102"/>
      <path d="M 52 44.1875 
Q 55.375 50.25 60.0625 53.125 
Q 64.75 56 71.09375 56 
Q 79.640625 56 84.28125 50.015625 
Q 88.921875 44.046875 88.921875 33.015625 
L 88.921875 0 
L 79.890625 0 
L 79.890625 32.71875 
Q 79.890625 40.578125 77.09375 44.375 
Q 74.3125 48.1875 68.609375 48.1875 
Q 61.625 48.1875 57.5625 43.546875 
Q 53.515625 38.921875 53.515625 30.90625 
L 53.515625 0 
L 44.484375 0 
L 44.484375 32.71875 
Q 44.484375 40.625 41.703125 44.40625 
Q 38.921875 48.1875 33.109375 48.1875 
Q 26.21875 48.1875 22.15625 43.53125 
Q 18.109375 38.875 18.109375 30.90625 
L 18.109375 0 
L 9.078125 0 
L 9.078125 54.6875 
L 18.109375 54.6875 
L 18.109375 46.1875 
Q 21.1875 51.21875 25.484375 53.609375 
Q 29.78125 56 35.6875 56 
Q 41.65625 56 45.828125 52.96875 
Q 50 49.953125 52 44.1875 
z
" id="DejaVuSans-109"/>
      <path d="M 45.40625 46.390625 
L 45.40625 75.984375 
L 54.390625 75.984375 
L 54.390625 0 
L 45.40625 0 
L 45.40625 8.203125 
Q 42.578125 3.328125 38.25 0.953125 
Q 33.9375 -1.421875 27.875 -1.421875 
Q 17.96875 -1.421875 11.734375 6.484375 
Q 5.515625 14.40625 5.515625 27.296875 
Q 5.515625 40.1875 11.734375 48.09375 
Q 17.96875 56 27.875 56 
Q 33.9375 56 38.25 53.625 
Q 42.578125 51.265625 45.40625 46.390625 
z
M 14.796875 27.296875 
Q 14.796875 17.390625 18.875 11.75 
Q 22.953125 6.109375 30.078125 6.109375 
Q 37.203125 6.109375 41.296875 11.75 
Q 45.40625 17.390625 45.40625 27.296875 
Q 45.40625 37.203125 41.296875 42.84375 
Q 37.203125 48.484375 30.078125 48.484375 
Q 22.953125 48.484375 18.875 42.84375 
Q 14.796875 37.203125 14.796875 27.296875 
z
" id="DejaVuSans-100"/>
     </defs>
     <g style="fill:#262626;" transform="translate(44.56 98.830094)scale(0.088 -0.088)">
      <use xlink:href="#DejaVuSans-67"/>
      <use x="69.824219" xlink:href="#DejaVuSans-111"/>
      <use x="131.005859" xlink:href="#DejaVuSans-110"/>
      <use x="194.384766" xlink:href="#DejaVuSans-102"/>
      <use x="229.589844" xlink:href="#DejaVuSans-105"/>
      <use x="257.373047" xlink:href="#DejaVuSans-114"/>
      <use x="296.736328" xlink:href="#DejaVuSans-109"/>
      <use x="394.148438" xlink:href="#DejaVuSans-101"/>
      <use x="455.671875" xlink:href="#DejaVuSans-100"/>
      <use x="519.148438" xlink:href="#DejaVuSans-32"/>
      <use x="550.935547" xlink:href="#DejaVuSans-67"/>
      <use x="620.759766" xlink:href="#DejaVuSans-97"/>
      <use x="682.039062" xlink:href="#DejaVuSans-115"/>
      <use x="734.138672" xlink:href="#DejaVuSans-101"/>
      <use x="795.662109" xlink:href="#DejaVuSans-115"/>
     </g>
    </g>
    <g id="line2d_28">
     <path d="M 19.92 108.666844 
L 37.52 108.666844 
" style="fill:none;stroke:#008000;stroke-linecap:round;stroke-width:1.5;"/>
    </g>
    <g id="line2d_29">
     <g>
      <use style="fill:#008000;stroke:#ffffff;stroke-linejoin:miter;stroke-width:0.25;" x="28.72" xlink:href="#mc838cf3fb9" y="108.666844"/>
     </g>
    </g>
    <g id="text_13">
     <!-- Recoveries -->
     <g style="fill:#262626;" transform="translate(44.56 111.746844)scale(0.088 -0.088)">
      <use xlink:href="#DejaVuSans-82"/>
      <use x="64.982422" xlink:href="#DejaVuSans-101"/>
      <use x="126.505859" xlink:href="#DejaVuSans-99"/>
      <use x="181.486328" xlink:href="#DejaVuSans-111"/>
      <use x="242.667969" xlink:href="#DejaVuSans-118"/>
      <use x="301.847656" xlink:href="#DejaVuSans-101"/>
      <use x="363.371094" xlink:href="#DejaVuSans-114"/>
      <use x="404.484375" xlink:href="#DejaVuSans-105"/>
      <use x="432.267578" xlink:href="#DejaVuSans-101"/>
      <use x="493.791016" xlink:href="#DejaVuSans-115"/>
     </g>
    </g>
    <g id="line2d_30">
     <path d="M 19.92 121.583594 
L 37.52 121.583594 
" style="fill:none;stroke:#ff0000;stroke-linecap:round;stroke-width:1.5;"/>
    </g>
    <g id="line2d_31">
     <g>
      <use style="fill:#ff0000;stroke:#ffffff;stroke-linejoin:miter;stroke-width:0.25;" x="28.72" xlink:href="#maef27dbab6" y="121.583594"/>
     </g>
    </g>
    <g id="text_14">
     <!-- Deaths -->
     <g style="fill:#262626;" transform="translate(44.56 124.663594)scale(0.088 -0.088)">
      <use xlink:href="#DejaVuSans-68"/>
      <use x="77.001953" xlink:href="#DejaVuSans-101"/>
      <use x="138.525391" xlink:href="#DejaVuSans-97"/>
      <use x="199.804688" xlink:href="#DejaVuSans-116"/>
      <use x="239.013672" xlink:href="#DejaVuSans-104"/>
      <use x="302.392578" xlink:href="#DejaVuSans-115"/>
     </g>
    </g>
   </g>
  </g>
 </g>
 <defs>
  <clipPath id="p9c52d29a49">
   <rect height="178.56" width="357.12" x="12" y="20.038594"/>
  </clipPath>
 </defs>
</svg>
