<?xml version="1.0" encoding="utf-8" standalone="no"?>
<!DOCTYPE svg PUBLIC "-//W3C//DTD SVG 1.1//EN"
  "http://www.w3.org/Graphics/SVG/1.1/DTD/svg11.dtd">
<!-- Created with matplotlib (https://matplotlib.org/) -->
<svg height="214.137656pt" version="1.1" viewBox="0 0 376.32 214.137656" width="376.32pt" xmlns="http://www.w3.org/2000/svg" xmlns:xlink="http://www.w3.org/1999/xlink">
 <defs>
  <style type="text/css">
*{stroke-linecap:butt;stroke-linejoin:round;}
  </style>
 </defs>
 <g id="figure_1">
  <g id="patch_1">
   <path d="M 0 214.137656 
L 376.32 214.137656 
L 376.32 0 
L 0 0 
z
" style="fill:#ffffff;"/>
  </g>
  <g id="axes_1">
   <g id="patch_2">
    <path d="M 12 198.598594 
L 369.12 198.598594 
L 369.12 20.038594 
L 12 20.038594 
z
" style="fill:#ffffff;"/>
   </g>
   <g id="matplotlib.axis_1">
    <g id="xtick_1">
     <g id="line2d_1">
      <path clip-path="url(#p9576a7cb3c)" d="M 60.698182 198.598594 
L 60.698182 20.038594 
" style="fill:none;stroke:#f3f3f3;stroke-dasharray:0.5,0.825;stroke-dashoffset:0;stroke-width:0.5;"/>
     </g>
     <g id="line2d_2">
      <defs>
       <path d="M 0 0 
L 0 -3 
" id="mc6bf9132e3" style="stroke:#262626;stroke-width:0.5;"/>
      </defs>
      <g>
       <use style="fill:#262626;stroke:#262626;stroke-width:0.5;" x="60.698182" xlink:href="#mc6bf9132e3" y="198.598594"/>
      </g>
     </g>
     <g id="text_1">
      <!-- 01 Feb -->
      <defs>
       <path d="M 31.78125 66.40625 
Q 24.171875 66.40625 20.328125 58.90625 
Q 16.5 51.421875 16.5 36.375 
Q 16.5 21.390625 20.328125 13.890625 
Q 24.171875 6.390625 31.78125 6.390625 
Q 39.453125 6.390625 43.28125 13.890625 
Q 47.125 21.390625 47.125 36.375 
Q 47.125 51.421875 43.28125 58.90625 
Q 39.453125 66.40625 31.78125 66.40625 
z
M 31.78125 74.21875 
Q 44.046875 74.21875 50.515625 64.515625 
Q 56.984375 54.828125 56.984375 36.375 
Q 56.984375 17.96875 50.515625 8.265625 
Q 44.046875 -1.421875 31.78125 -1.421875 
Q 19.53125 -1.421875 13.0625 8.265625 
Q 6.59375 17.96875 6.59375 36.375 
Q 6.59375 54.828125 13.0625 64.515625 
Q 19.53125 74.21875 31.78125 74.21875 
z
" id="DejaVuSans-48"/>
       <path d="M 12.40625 8.296875 
L 28.515625 8.296875 
L 28.515625 63.921875 
L 10.984375 60.40625 
L 10.984375 69.390625 
L 28.421875 72.90625 
L 38.28125 72.90625 
L 38.28125 8.296875 
L 54.390625 8.296875 
L 54.390625 0 
L 12.40625 0 
z
" id="DejaVuSans-49"/>
       <path id="DejaVuSans-32"/>
       <path d="M 9.8125 72.90625 
L 51.703125 72.90625 
L 51.703125 64.59375 
L 19.671875 64.59375 
L 19.671875 43.109375 
L 48.578125 43.109375 
L 48.578125 34.8125 
L 19.671875 34.8125 
L 19.671875 0 
L 9.8125 0 
z
" id="DejaVuSans-70"/>
       <path d="M 56.203125 29.59375 
L 56.203125 25.203125 
L 14.890625 25.203125 
Q 15.484375 15.921875 20.484375 11.0625 
Q 25.484375 6.203125 34.421875 6.203125 
Q 39.59375 6.203125 44.453125 7.46875 
Q 49.3125 8.734375 54.109375 11.28125 
L 54.109375 2.78125 
Q 49.265625 0.734375 44.1875 -0.34375 
Q 39.109375 -1.421875 33.890625 -1.421875 
Q 20.796875 -1.421875 13.15625 6.1875 
Q 5.515625 13.8125 5.515625 26.8125 
Q 5.515625 40.234375 12.765625 48.109375 
Q 20.015625 56 32.328125 56 
Q 43.359375 56 49.78125 48.890625 
Q 56.203125 41.796875 56.203125 29.59375 
z
M 47.21875 32.234375 
Q 47.125 39.59375 43.09375 43.984375 
Q 39.0625 48.390625 32.421875 48.390625 
Q 24.90625 48.390625 20.390625 44.140625 
Q 15.875 39.890625 15.1875 32.171875 
z
" id="DejaVuSans-101"/>
       <path d="M 48.6875 27.296875 
Q 48.6875 37.203125 44.609375 42.84375 
Q 40.53125 48.484375 33.40625 48.484375 
Q 26.265625 48.484375 22.1875 42.84375 
Q 18.109375 37.203125 18.109375 27.296875 
Q 18.109375 17.390625 22.1875 11.75 
Q 26.265625 6.109375 33.40625 6.109375 
Q 40.53125 6.109375 44.609375 11.75 
Q 48.6875 17.390625 48.6875 27.296875 
z
M 18.109375 46.390625 
Q 20.953125 51.265625 25.265625 53.625 
Q 29.59375 56 35.59375 56 
Q 45.5625 56 51.78125 48.09375 
Q 58.015625 40.1875 58.015625 27.296875 
Q 58.015625 14.40625 51.78125 6.484375 
Q 45.5625 -1.421875 35.59375 -1.421875 
Q 29.59375 -1.421875 25.265625 0.953125 
Q 20.953125 3.328125 18.109375 8.203125 
L 18.109375 0 
L 9.078125 0 
L 9.078125 75.984375 
L 18.109375 75.984375 
z
" id="DejaVuSans-98"/>
      </defs>
      <g style="fill:#262626;" transform="translate(52.296619 205.897812)scale(0.05 -0.05)">
       <use xlink:href="#DejaVuSans-48"/>
       <use x="63.623047" xlink:href="#DejaVuSans-49"/>
       <use x="127.246094" xlink:href="#DejaVuSans-32"/>
       <use x="159.033203" xlink:href="#DejaVuSans-70"/>
       <use x="211.052734" xlink:href="#DejaVuSans-101"/>
       <use x="272.576172" xlink:href="#DejaVuSans-98"/>
      </g>
     </g>
    </g>
    <g id="xtick_2">
     <g id="line2d_3">
      <path clip-path="url(#p9576a7cb3c)" d="M 106.149818 198.598594 
L 106.149818 20.038594 
" style="fill:none;stroke:#f3f3f3;stroke-dasharray:0.5,0.825;stroke-dashoffset:0;stroke-width:0.5;"/>
     </g>
     <g id="line2d_4">
      <g>
       <use style="fill:#262626;stroke:#262626;stroke-width:0.5;" x="106.149818" xlink:href="#mc6bf9132e3" y="198.598594"/>
      </g>
     </g>
     <g id="text_2">
      <!-- 15 Feb -->
      <defs>
       <path d="M 10.796875 72.90625 
L 49.515625 72.90625 
L 49.515625 64.59375 
L 19.828125 64.59375 
L 19.828125 46.734375 
Q 21.96875 47.46875 24.109375 47.828125 
Q 26.265625 48.1875 28.421875 48.1875 
Q 40.625 48.1875 47.75 41.5 
Q 54.890625 34.8125 54.890625 23.390625 
Q 54.890625 11.625 47.5625 5.09375 
Q 40.234375 -1.421875 26.90625 -1.421875 
Q 22.3125 -1.421875 17.546875 -0.640625 
Q 12.796875 0.140625 7.71875 1.703125 
L 7.71875 11.625 
Q 12.109375 9.234375 16.796875 8.0625 
Q 21.484375 6.890625 26.703125 6.890625 
Q 35.15625 6.890625 40.078125 11.328125 
Q 45.015625 15.765625 45.015625 23.390625 
Q 45.015625 31 40.078125 35.4375 
Q 35.15625 39.890625 26.703125 39.890625 
Q 22.75 39.890625 18.8125 39.015625 
Q 14.890625 38.140625 10.796875 36.28125 
z
" id="DejaVuSans-53"/>
      </defs>
      <g style="fill:#262626;" transform="translate(97.748256 205.897812)scale(0.05 -0.05)">
       <use xlink:href="#DejaVuSans-49"/>
       <use x="63.623047" xlink:href="#DejaVuSans-53"/>
       <use x="127.246094" xlink:href="#DejaVuSans-32"/>
       <use x="159.033203" xlink:href="#DejaVuSans-70"/>
       <use x="211.052734" xlink:href="#DejaVuSans-101"/>
       <use x="272.576172" xlink:href="#DejaVuSans-98"/>
      </g>
     </g>
    </g>
    <g id="xtick_3">
     <g id="line2d_5">
      <path clip-path="url(#p9576a7cb3c)" d="M 154.848 198.598594 
L 154.848 20.038594 
" style="fill:none;stroke:#f3f3f3;stroke-dasharray:0.5,0.825;stroke-dashoffset:0;stroke-width:0.5;"/>
     </g>
     <g id="line2d_6">
      <g>
       <use style="fill:#262626;stroke:#262626;stroke-width:0.5;" x="154.848" xlink:href="#mc6bf9132e3" y="198.598594"/>
      </g>
     </g>
     <g id="text_3">
      <!-- 01 Mar -->
      <defs>
       <path d="M 9.8125 72.90625 
L 24.515625 72.90625 
L 43.109375 23.296875 
L 61.8125 72.90625 
L 76.515625 72.90625 
L 76.515625 0 
L 66.890625 0 
L 66.890625 64.015625 
L 48.09375 14.015625 
L 38.1875 14.015625 
L 19.390625 64.015625 
L 19.390625 0 
L 9.8125 0 
z
" id="DejaVuSans-77"/>
       <path d="M 34.28125 27.484375 
Q 23.390625 27.484375 19.1875 25 
Q 14.984375 22.515625 14.984375 16.5 
Q 14.984375 11.71875 18.140625 8.90625 
Q 21.296875 6.109375 26.703125 6.109375 
Q 34.1875 6.109375 38.703125 11.40625 
Q 43.21875 16.703125 43.21875 25.484375 
L 43.21875 27.484375 
z
M 52.203125 31.203125 
L 52.203125 0 
L 43.21875 0 
L 43.21875 8.296875 
Q 40.140625 3.328125 35.546875 0.953125 
Q 30.953125 -1.421875 24.3125 -1.421875 
Q 15.921875 -1.421875 10.953125 3.296875 
Q 6 8.015625 6 15.921875 
Q 6 25.140625 12.171875 29.828125 
Q 18.359375 34.515625 30.609375 34.515625 
L 43.21875 34.515625 
L 43.21875 35.40625 
Q 43.21875 41.609375 39.140625 45 
Q 35.0625 48.390625 27.6875 48.390625 
Q 23 48.390625 18.546875 47.265625 
Q 14.109375 46.140625 10.015625 43.890625 
L 10.015625 52.203125 
Q 14.9375 54.109375 19.578125 55.046875 
Q 24.21875 56 28.609375 56 
Q 40.484375 56 46.34375 49.84375 
Q 52.203125 43.703125 52.203125 31.203125 
z
" id="DejaVuSans-97"/>
       <path d="M 41.109375 46.296875 
Q 39.59375 47.171875 37.8125 47.578125 
Q 36.03125 48 33.890625 48 
Q 26.265625 48 22.1875 43.046875 
Q 18.109375 38.09375 18.109375 28.8125 
L 18.109375 0 
L 9.078125 0 
L 9.078125 54.6875 
L 18.109375 54.6875 
L 18.109375 46.1875 
Q 20.953125 51.171875 25.484375 53.578125 
Q 30.03125 56 36.53125 56 
Q 37.453125 56 38.578125 55.875 
Q 39.703125 55.765625 41.0625 55.515625 
z
" id="DejaVuSans-114"/>
      </defs>
      <g style="fill:#262626;" transform="translate(146.155422 205.897812)scale(0.05 -0.05)">
       <use xlink:href="#DejaVuSans-48"/>
       <use x="63.623047" xlink:href="#DejaVuSans-49"/>
       <use x="127.246094" xlink:href="#DejaVuSans-32"/>
       <use x="159.033203" xlink:href="#DejaVuSans-77"/>
       <use x="245.3125" xlink:href="#DejaVuSans-97"/>
       <use x="306.591797" xlink:href="#DejaVuSans-114"/>
      </g>
     </g>
    </g>
    <g id="xtick_4">
     <g id="line2d_7">
      <path clip-path="url(#p9576a7cb3c)" d="M 200.299636 198.598594 
L 200.299636 20.038594 
" style="fill:none;stroke:#f3f3f3;stroke-dasharray:0.5,0.825;stroke-dashoffset:0;stroke-width:0.5;"/>
     </g>
     <g id="line2d_8">
      <g>
       <use style="fill:#262626;stroke:#262626;stroke-width:0.5;" x="200.299636" xlink:href="#mc6bf9132e3" y="198.598594"/>
      </g>
     </g>
     <g id="text_4">
      <!-- 15 Mar -->
      <g style="fill:#262626;" transform="translate(191.607058 205.897812)scale(0.05 -0.05)">
       <use xlink:href="#DejaVuSans-49"/>
       <use x="63.623047" xlink:href="#DejaVuSans-53"/>
       <use x="127.246094" xlink:href="#DejaVuSans-32"/>
       <use x="159.033203" xlink:href="#DejaVuSans-77"/>
       <use x="245.3125" xlink:href="#DejaVuSans-97"/>
       <use x="306.591797" xlink:href="#DejaVuSans-114"/>
      </g>
     </g>
    </g>
    <g id="xtick_5">
     <g id="line2d_9">
      <path clip-path="url(#p9576a7cb3c)" d="M 255.490909 198.598594 
L 255.490909 20.038594 
" style="fill:none;stroke:#f3f3f3;stroke-dasharray:0.5,0.825;stroke-dashoffset:0;stroke-width:0.5;"/>
     </g>
     <g id="line2d_10">
      <g>
       <use style="fill:#262626;stroke:#262626;stroke-width:0.5;" x="255.490909" xlink:href="#mc6bf9132e3" y="198.598594"/>
      </g>
     </g>
     <g id="text_5">
      <!-- 01 Apr -->
      <defs>
       <path d="M 34.1875 63.1875 
L 20.796875 26.90625 
L 47.609375 26.90625 
z
M 28.609375 72.90625 
L 39.796875 72.90625 
L 67.578125 0 
L 57.328125 0 
L 50.6875 18.703125 
L 17.828125 18.703125 
L 11.1875 0 
L 0.78125 0 
z
" id="DejaVuSans-65"/>
       <path d="M 18.109375 8.203125 
L 18.109375 -20.796875 
L 9.078125 -20.796875 
L 9.078125 54.6875 
L 18.109375 54.6875 
L 18.109375 46.390625 
Q 20.953125 51.265625 25.265625 53.625 
Q 29.59375 56 35.59375 56 
Q 45.5625 56 51.78125 48.09375 
Q 58.015625 40.1875 58.015625 27.296875 
Q 58.015625 14.40625 51.78125 6.484375 
Q 45.5625 -1.421875 35.59375 -1.421875 
Q 29.59375 -1.421875 25.265625 0.953125 
Q 20.953125 3.328125 18.109375 8.203125 
z
M 48.6875 27.296875 
Q 48.6875 37.203125 44.609375 42.84375 
Q 40.53125 48.484375 33.40625 48.484375 
Q 26.265625 48.484375 22.1875 42.84375 
Q 18.109375 37.203125 18.109375 27.296875 
Q 18.109375 17.390625 22.1875 11.75 
Q 26.265625 6.109375 33.40625 6.109375 
Q 40.53125 6.109375 44.609375 11.75 
Q 48.6875 17.390625 48.6875 27.296875 
z
" id="DejaVuSans-112"/>
      </defs>
      <g style="fill:#262626;" transform="translate(247.190128 205.897812)scale(0.05 -0.05)">
       <use xlink:href="#DejaVuSans-48"/>
       <use x="63.623047" xlink:href="#DejaVuSans-49"/>
       <use x="127.246094" xlink:href="#DejaVuSans-32"/>
       <use x="159.033203" xlink:href="#DejaVuSans-65"/>
       <use x="227.441406" xlink:href="#DejaVuSans-112"/>
       <use x="290.917969" xlink:href="#DejaVuSans-114"/>
      </g>
     </g>
    </g>
    <g id="xtick_6">
     <g id="line2d_11">
      <path clip-path="url(#p9576a7cb3c)" d="M 300.942545 198.598594 
L 300.942545 20.038594 
" style="fill:none;stroke:#f3f3f3;stroke-dasharray:0.5,0.825;stroke-dashoffset:0;stroke-width:0.5;"/>
     </g>
     <g id="line2d_12">
      <g>
       <use style="fill:#262626;stroke:#262626;stroke-width:0.5;" x="300.942545" xlink:href="#mc6bf9132e3" y="198.598594"/>
      </g>
     </g>
     <g id="text_6">
      <!-- 15 Apr -->
      <g style="fill:#262626;" transform="translate(292.641764 205.897812)scale(0.05 -0.05)">
       <use xlink:href="#DejaVuSans-49"/>
       <use x="63.623047" xlink:href="#DejaVuSans-53"/>
       <use x="127.246094" xlink:href="#DejaVuSans-32"/>
       <use x="159.033203" xlink:href="#DejaVuSans-65"/>
       <use x="227.441406" xlink:href="#DejaVuSans-112"/>
       <use x="290.917969" xlink:href="#DejaVuSans-114"/>
      </g>
     </g>
    </g>
    <g id="xtick_7">
     <g id="line2d_13">
      <path clip-path="url(#p9576a7cb3c)" d="M 352.887273 198.598594 
L 352.887273 20.038594 
" style="fill:none;stroke:#f3f3f3;stroke-dasharray:0.5,0.825;stroke-dashoffset:0;stroke-width:0.5;"/>
     </g>
     <g id="line2d_14">
      <g>
       <use style="fill:#262626;stroke:#262626;stroke-width:0.5;" x="352.887273" xlink:href="#mc6bf9132e3" y="198.598594"/>
      </g>
     </g>
     <g id="text_7">
      <!-- 01 May -->
      <defs>
       <path d="M 32.171875 -5.078125 
Q 28.375 -14.84375 24.75 -17.8125 
Q 21.140625 -20.796875 15.09375 -20.796875 
L 7.90625 -20.796875 
L 7.90625 -13.28125 
L 13.1875 -13.28125 
Q 16.890625 -13.28125 18.9375 -11.515625 
Q 21 -9.765625 23.484375 -3.21875 
L 25.09375 0.875 
L 2.984375 54.6875 
L 12.5 54.6875 
L 29.59375 11.921875 
L 46.6875 54.6875 
L 56.203125 54.6875 
z
" id="DejaVuSans-121"/>
      </defs>
      <g style="fill:#262626;" transform="translate(343.742741 205.897812)scale(0.05 -0.05)">
       <use xlink:href="#DejaVuSans-48"/>
       <use x="63.623047" xlink:href="#DejaVuSans-49"/>
       <use x="127.246094" xlink:href="#DejaVuSans-32"/>
       <use x="159.033203" xlink:href="#DejaVuSans-77"/>
       <use x="245.3125" xlink:href="#DejaVuSans-97"/>
       <use x="306.591797" xlink:href="#DejaVuSans-121"/>
      </g>
     </g>
    </g>
   </g>
   <g id="line2d_15">
    <path clip-path="url(#p9576a7cb3c)" d="M 28.232727 190.48223 
L 31.479273 190.48223 
L 34.725818 190.48223 
L 37.972364 190.48223 
L 41.218909 190.48223 
L 44.465455 190.48223 
L 47.712 190.48223 
L 50.958545 190.48223 
L 54.205091 190.47736 
L 57.451636 190.47736 
L 60.698182 190.47736 
L 63.944727 190.47249 
L 67.191273 190.467619 
L 70.437818 190.467619 
L 73.684364 190.467619 
L 76.930909 190.467619 
L 80.177455 190.467619 
L 83.424 190.467619 
L 86.670545 190.467619 
L 89.917091 190.467619 
L 93.163636 190.467619 
L 96.410182 190.467619 
L 99.656727 190.467619 
L 102.903273 190.467619 
L 106.149818 190.467619 
L 109.396364 190.467619 
L 112.642909 190.467619 
L 115.889455 190.467619 
L 119.136 190.467619 
L 122.382545 190.467619 
L 125.629091 190.467619 
L 128.875636 190.467619 
L 132.122182 190.467619 
L 135.368727 190.467619 
L 138.615273 190.467619 
L 141.861818 190.467619 
L 145.108364 190.467619 
L 148.354909 190.467619 
L 151.601455 190.467619 
L 154.848 190.467619 
L 158.094545 190.457879 
L 161.341091 190.457879 
L 164.587636 190.345862 
L 167.834182 190.336121 
L 171.080727 190.331251 
L 174.327273 190.31664 
L 177.573818 190.292288 
L 180.820364 190.272807 
L 184.066909 190.209493 
L 187.313455 190.180271 
L 190.56 190.126698 
L 193.806545 190.082865 
L 197.053091 189.985459 
L 200.299636 189.931886 
L 203.546182 189.902664 
L 206.792727 189.790647 
L 210.039273 189.722463 
L 213.285818 189.537391 
L 216.532364 189.293876 
L 219.778909 188.875029 
L 223.025455 188.553589 
L 226.272 188.051948 
L 229.518545 187.871747 
L 232.765091 187.28244 
L 236.011636 186.941518 
L 239.258182 186.162269 
L 242.504727 185.675239 
L 245.751273 185.495038 
L 248.997818 184.389478 
L 252.244364 183.678414 
L 255.490909 180.75136 
L 258.737455 178.097044 
L 261.984 177.980157 
L 265.230545 175.471949 
L 268.477091 173.007575 
L 271.723636 167.211912 
L 274.970182 164.616039 
L 278.216727 161.669504 
L 281.463273 157.729428 
L 284.709818 153.477651 
L 287.956364 149.347632 
L 291.202909 145.651071 
L 294.449455 139.57293 
L 297.696 134.537034 
L 300.942545 130.470329 
L 304.189091 125.074031 
L 307.435636 120.58361 
L 310.682182 113.911292 
L 313.928727 104.691804 
L 317.175273 100.191642 
L 320.421818 92.686501 
L 323.668364 86.403808 
L 326.914909 78.090197 
L 330.161455 71.013643 
L 333.408 62.475998 
L 336.654545 54.649418 
L 339.901091 47.046871 
L 343.147636 37.92479 
L 346.394182 29.460199 
L 352.887273 28.154957 
" style="fill:none;stroke:#ffa500;stroke-linecap:round;stroke-width:1.5;"/>
    <defs>
     <path d="M 0 1.5 
C 0.397805 1.5 0.77937 1.341951 1.06066 1.06066 
C 1.341951 0.77937 1.5 0.397805 1.5 0 
C 1.5 -0.397805 1.341951 -0.77937 1.06066 -1.06066 
C 0.77937 -1.341951 0.397805 -1.5 0 -1.5 
C -0.397805 -1.5 -0.77937 -1.341951 -1.06066 -1.06066 
C -1.341951 -0.77937 -1.5 -0.397805 -1.5 0 
C -1.5 0.397805 -1.341951 0.77937 -1.06066 1.06066 
C -0.77937 1.341951 -0.397805 1.5 0 1.5 
z
" id="m50fc654269" style="stroke:#ffffff;stroke-width:0.25;"/>
    </defs>
    <g clip-path="url(#p9576a7cb3c)">
     <use style="fill:#ffa500;stroke:#ffffff;stroke-width:0.25;" x="28.232727" xlink:href="#m50fc654269" y="190.48223"/>
     <use style="fill:#ffa500;stroke:#ffffff;stroke-width:0.25;" x="31.479273" xlink:href="#m50fc654269" y="190.48223"/>
     <use style="fill:#ffa500;stroke:#ffffff;stroke-width:0.25;" x="34.725818" xlink:href="#m50fc654269" y="190.48223"/>
     <use style="fill:#ffa500;stroke:#ffffff;stroke-width:0.25;" x="37.972364" xlink:href="#m50fc654269" y="190.48223"/>
     <use style="fill:#ffa500;stroke:#ffffff;stroke-width:0.25;" x="41.218909" xlink:href="#m50fc654269" y="190.48223"/>
     <use style="fill:#ffa500;stroke:#ffffff;stroke-width:0.25;" x="44.465455" xlink:href="#m50fc654269" y="190.48223"/>
     <use style="fill:#ffa500;stroke:#ffffff;stroke-width:0.25;" x="47.712" xlink:href="#m50fc654269" y="190.48223"/>
     <use style="fill:#ffa500;stroke:#ffffff;stroke-width:0.25;" x="50.958545" xlink:href="#m50fc654269" y="190.48223"/>
     <use style="fill:#ffa500;stroke:#ffffff;stroke-width:0.25;" x="54.205091" xlink:href="#m50fc654269" y="190.47736"/>
     <use style="fill:#ffa500;stroke:#ffffff;stroke-width:0.25;" x="57.451636" xlink:href="#m50fc654269" y="190.47736"/>
     <use style="fill:#ffa500;stroke:#ffffff;stroke-width:0.25;" x="60.698182" xlink:href="#m50fc654269" y="190.47736"/>
     <use style="fill:#ffa500;stroke:#ffffff;stroke-width:0.25;" x="63.944727" xlink:href="#m50fc654269" y="190.47249"/>
     <use style="fill:#ffa500;stroke:#ffffff;stroke-width:0.25;" x="67.191273" xlink:href="#m50fc654269" y="190.467619"/>
     <use style="fill:#ffa500;stroke:#ffffff;stroke-width:0.25;" x="70.437818" xlink:href="#m50fc654269" y="190.467619"/>
     <use style="fill:#ffa500;stroke:#ffffff;stroke-width:0.25;" x="73.684364" xlink:href="#m50fc654269" y="190.467619"/>
     <use style="fill:#ffa500;stroke:#ffffff;stroke-width:0.25;" x="76.930909" xlink:href="#m50fc654269" y="190.467619"/>
     <use style="fill:#ffa500;stroke:#ffffff;stroke-width:0.25;" x="80.177455" xlink:href="#m50fc654269" y="190.467619"/>
     <use style="fill:#ffa500;stroke:#ffffff;stroke-width:0.25;" x="83.424" xlink:href="#m50fc654269" y="190.467619"/>
     <use style="fill:#ffa500;stroke:#ffffff;stroke-width:0.25;" x="86.670545" xlink:href="#m50fc654269" y="190.467619"/>
     <use style="fill:#ffa500;stroke:#ffffff;stroke-width:0.25;" x="89.917091" xlink:href="#m50fc654269" y="190.467619"/>
     <use style="fill:#ffa500;stroke:#ffffff;stroke-width:0.25;" x="93.163636" xlink:href="#m50fc654269" y="190.467619"/>
     <use style="fill:#ffa500;stroke:#ffffff;stroke-width:0.25;" x="96.410182" xlink:href="#m50fc654269" y="190.467619"/>
     <use style="fill:#ffa500;stroke:#ffffff;stroke-width:0.25;" x="99.656727" xlink:href="#m50fc654269" y="190.467619"/>
     <use style="fill:#ffa500;stroke:#ffffff;stroke-width:0.25;" x="102.903273" xlink:href="#m50fc654269" y="190.467619"/>
     <use style="fill:#ffa500;stroke:#ffffff;stroke-width:0.25;" x="106.149818" xlink:href="#m50fc654269" y="190.467619"/>
     <use style="fill:#ffa500;stroke:#ffffff;stroke-width:0.25;" x="109.396364" xlink:href="#m50fc654269" y="190.467619"/>
     <use style="fill:#ffa500;stroke:#ffffff;stroke-width:0.25;" x="112.642909" xlink:href="#m50fc654269" y="190.467619"/>
     <use style="fill:#ffa500;stroke:#ffffff;stroke-width:0.25;" x="115.889455" xlink:href="#m50fc654269" y="190.467619"/>
     <use style="fill:#ffa500;stroke:#ffffff;stroke-width:0.25;" x="119.136" xlink:href="#m50fc654269" y="190.467619"/>
     <use style="fill:#ffa500;stroke:#ffffff;stroke-width:0.25;" x="122.382545" xlink:href="#m50fc654269" y="190.467619"/>
     <use style="fill:#ffa500;stroke:#ffffff;stroke-width:0.25;" x="125.629091" xlink:href="#m50fc654269" y="190.467619"/>
     <use style="fill:#ffa500;stroke:#ffffff;stroke-width:0.25;" x="128.875636" xlink:href="#m50fc654269" y="190.467619"/>
     <use style="fill:#ffa500;stroke:#ffffff;stroke-width:0.25;" x="132.122182" xlink:href="#m50fc654269" y="190.467619"/>
     <use style="fill:#ffa500;stroke:#ffffff;stroke-width:0.25;" x="135.368727" xlink:href="#m50fc654269" y="190.467619"/>
     <use style="fill:#ffa500;stroke:#ffffff;stroke-width:0.25;" x="138.615273" xlink:href="#m50fc654269" y="190.467619"/>
     <use style="fill:#ffa500;stroke:#ffffff;stroke-width:0.25;" x="141.861818" xlink:href="#m50fc654269" y="190.467619"/>
     <use style="fill:#ffa500;stroke:#ffffff;stroke-width:0.25;" x="145.108364" xlink:href="#m50fc654269" y="190.467619"/>
     <use style="fill:#ffa500;stroke:#ffffff;stroke-width:0.25;" x="148.354909" xlink:href="#m50fc654269" y="190.467619"/>
     <use style="fill:#ffa500;stroke:#ffffff;stroke-width:0.25;" x="151.601455" xlink:href="#m50fc654269" y="190.467619"/>
     <use style="fill:#ffa500;stroke:#ffffff;stroke-width:0.25;" x="154.848" xlink:href="#m50fc654269" y="190.467619"/>
     <use style="fill:#ffa500;stroke:#ffffff;stroke-width:0.25;" x="158.094545" xlink:href="#m50fc654269" y="190.457879"/>
     <use style="fill:#ffa500;stroke:#ffffff;stroke-width:0.25;" x="161.341091" xlink:href="#m50fc654269" y="190.457879"/>
     <use style="fill:#ffa500;stroke:#ffffff;stroke-width:0.25;" x="164.587636" xlink:href="#m50fc654269" y="190.345862"/>
     <use style="fill:#ffa500;stroke:#ffffff;stroke-width:0.25;" x="167.834182" xlink:href="#m50fc654269" y="190.336121"/>
     <use style="fill:#ffa500;stroke:#ffffff;stroke-width:0.25;" x="171.080727" xlink:href="#m50fc654269" y="190.331251"/>
     <use style="fill:#ffa500;stroke:#ffffff;stroke-width:0.25;" x="174.327273" xlink:href="#m50fc654269" y="190.31664"/>
     <use style="fill:#ffa500;stroke:#ffffff;stroke-width:0.25;" x="177.573818" xlink:href="#m50fc654269" y="190.292288"/>
     <use style="fill:#ffa500;stroke:#ffffff;stroke-width:0.25;" x="180.820364" xlink:href="#m50fc654269" y="190.272807"/>
     <use style="fill:#ffa500;stroke:#ffffff;stroke-width:0.25;" x="184.066909" xlink:href="#m50fc654269" y="190.209493"/>
     <use style="fill:#ffa500;stroke:#ffffff;stroke-width:0.25;" x="187.313455" xlink:href="#m50fc654269" y="190.180271"/>
     <use style="fill:#ffa500;stroke:#ffffff;stroke-width:0.25;" x="190.56" xlink:href="#m50fc654269" y="190.126698"/>
     <use style="fill:#ffa500;stroke:#ffffff;stroke-width:0.25;" x="193.806545" xlink:href="#m50fc654269" y="190.082865"/>
     <use style="fill:#ffa500;stroke:#ffffff;stroke-width:0.25;" x="197.053091" xlink:href="#m50fc654269" y="189.985459"/>
     <use style="fill:#ffa500;stroke:#ffffff;stroke-width:0.25;" x="200.299636" xlink:href="#m50fc654269" y="189.931886"/>
     <use style="fill:#ffa500;stroke:#ffffff;stroke-width:0.25;" x="203.546182" xlink:href="#m50fc654269" y="189.902664"/>
     <use style="fill:#ffa500;stroke:#ffffff;stroke-width:0.25;" x="206.792727" xlink:href="#m50fc654269" y="189.790647"/>
     <use style="fill:#ffa500;stroke:#ffffff;stroke-width:0.25;" x="210.039273" xlink:href="#m50fc654269" y="189.722463"/>
     <use style="fill:#ffa500;stroke:#ffffff;stroke-width:0.25;" x="213.285818" xlink:href="#m50fc654269" y="189.537391"/>
     <use style="fill:#ffa500;stroke:#ffffff;stroke-width:0.25;" x="216.532364" xlink:href="#m50fc654269" y="189.293876"/>
     <use style="fill:#ffa500;stroke:#ffffff;stroke-width:0.25;" x="219.778909" xlink:href="#m50fc654269" y="188.875029"/>
     <use style="fill:#ffa500;stroke:#ffffff;stroke-width:0.25;" x="223.025455" xlink:href="#m50fc654269" y="188.553589"/>
     <use style="fill:#ffa500;stroke:#ffffff;stroke-width:0.25;" x="226.272" xlink:href="#m50fc654269" y="188.051948"/>
     <use style="fill:#ffa500;stroke:#ffffff;stroke-width:0.25;" x="229.518545" xlink:href="#m50fc654269" y="187.871747"/>
     <use style="fill:#ffa500;stroke:#ffffff;stroke-width:0.25;" x="232.765091" xlink:href="#m50fc654269" y="187.28244"/>
     <use style="fill:#ffa500;stroke:#ffffff;stroke-width:0.25;" x="236.011636" xlink:href="#m50fc654269" y="186.941518"/>
     <use style="fill:#ffa500;stroke:#ffffff;stroke-width:0.25;" x="239.258182" xlink:href="#m50fc654269" y="186.162269"/>
     <use style="fill:#ffa500;stroke:#ffffff;stroke-width:0.25;" x="242.504727" xlink:href="#m50fc654269" y="185.675239"/>
     <use style="fill:#ffa500;stroke:#ffffff;stroke-width:0.25;" x="245.751273" xlink:href="#m50fc654269" y="185.495038"/>
     <use style="fill:#ffa500;stroke:#ffffff;stroke-width:0.25;" x="248.997818" xlink:href="#m50fc654269" y="184.389478"/>
     <use style="fill:#ffa500;stroke:#ffffff;stroke-width:0.25;" x="252.244364" xlink:href="#m50fc654269" y="183.678414"/>
     <use style="fill:#ffa500;stroke:#ffffff;stroke-width:0.25;" x="255.490909" xlink:href="#m50fc654269" y="180.75136"/>
     <use style="fill:#ffa500;stroke:#ffffff;stroke-width:0.25;" x="258.737455" xlink:href="#m50fc654269" y="178.097044"/>
     <use style="fill:#ffa500;stroke:#ffffff;stroke-width:0.25;" x="261.984" xlink:href="#m50fc654269" y="177.980157"/>
     <use style="fill:#ffa500;stroke:#ffffff;stroke-width:0.25;" x="265.230545" xlink:href="#m50fc654269" y="175.471949"/>
     <use style="fill:#ffa500;stroke:#ffffff;stroke-width:0.25;" x="268.477091" xlink:href="#m50fc654269" y="173.007575"/>
     <use style="fill:#ffa500;stroke:#ffffff;stroke-width:0.25;" x="271.723636" xlink:href="#m50fc654269" y="167.211912"/>
     <use style="fill:#ffa500;stroke:#ffffff;stroke-width:0.25;" x="274.970182" xlink:href="#m50fc654269" y="164.616039"/>
     <use style="fill:#ffa500;stroke:#ffffff;stroke-width:0.25;" x="278.216727" xlink:href="#m50fc654269" y="161.669504"/>
     <use style="fill:#ffa500;stroke:#ffffff;stroke-width:0.25;" x="281.463273" xlink:href="#m50fc654269" y="157.729428"/>
     <use style="fill:#ffa500;stroke:#ffffff;stroke-width:0.25;" x="284.709818" xlink:href="#m50fc654269" y="153.477651"/>
     <use style="fill:#ffa500;stroke:#ffffff;stroke-width:0.25;" x="287.956364" xlink:href="#m50fc654269" y="149.347632"/>
     <use style="fill:#ffa500;stroke:#ffffff;stroke-width:0.25;" x="291.202909" xlink:href="#m50fc654269" y="145.651071"/>
     <use style="fill:#ffa500;stroke:#ffffff;stroke-width:0.25;" x="294.449455" xlink:href="#m50fc654269" y="139.57293"/>
     <use style="fill:#ffa500;stroke:#ffffff;stroke-width:0.25;" x="297.696" xlink:href="#m50fc654269" y="134.537034"/>
     <use style="fill:#ffa500;stroke:#ffffff;stroke-width:0.25;" x="300.942545" xlink:href="#m50fc654269" y="130.470329"/>
     <use style="fill:#ffa500;stroke:#ffffff;stroke-width:0.25;" x="304.189091" xlink:href="#m50fc654269" y="125.074031"/>
     <use style="fill:#ffa500;stroke:#ffffff;stroke-width:0.25;" x="307.435636" xlink:href="#m50fc654269" y="120.58361"/>
     <use style="fill:#ffa500;stroke:#ffffff;stroke-width:0.25;" x="310.682182" xlink:href="#m50fc654269" y="113.911292"/>
     <use style="fill:#ffa500;stroke:#ffffff;stroke-width:0.25;" x="313.928727" xlink:href="#m50fc654269" y="104.691804"/>
     <use style="fill:#ffa500;stroke:#ffffff;stroke-width:0.25;" x="317.175273" xlink:href="#m50fc654269" y="100.191642"/>
     <use style="fill:#ffa500;stroke:#ffffff;stroke-width:0.25;" x="320.421818" xlink:href="#m50fc654269" y="92.686501"/>
     <use style="fill:#ffa500;stroke:#ffffff;stroke-width:0.25;" x="323.668364" xlink:href="#m50fc654269" y="86.403808"/>
     <use style="fill:#ffa500;stroke:#ffffff;stroke-width:0.25;" x="326.914909" xlink:href="#m50fc654269" y="78.090197"/>
     <use style="fill:#ffa500;stroke:#ffffff;stroke-width:0.25;" x="330.161455" xlink:href="#m50fc654269" y="71.013643"/>
     <use style="fill:#ffa500;stroke:#ffffff;stroke-width:0.25;" x="333.408" xlink:href="#m50fc654269" y="62.475998"/>
     <use style="fill:#ffa500;stroke:#ffffff;stroke-width:0.25;" x="336.654545" xlink:href="#m50fc654269" y="54.649418"/>
     <use style="fill:#ffa500;stroke:#ffffff;stroke-width:0.25;" x="339.901091" xlink:href="#m50fc654269" y="47.046871"/>
     <use style="fill:#ffa500;stroke:#ffffff;stroke-width:0.25;" x="343.147636" xlink:href="#m50fc654269" y="37.92479"/>
     <use style="fill:#ffa500;stroke:#ffffff;stroke-width:0.25;" x="346.394182" xlink:href="#m50fc654269" y="29.460199"/>
     <use style="fill:#ffa500;stroke:#ffffff;stroke-width:0.25;" x="352.887273" xlink:href="#m50fc654269" y="28.154957"/>
    </g>
   </g>
   <g id="line2d_16">
    <path clip-path="url(#p9576a7cb3c)" d="M 28.232727 190.48223 
L 31.479273 190.48223 
L 34.725818 190.48223 
L 37.972364 190.48223 
L 41.218909 190.48223 
L 44.465455 190.48223 
L 47.712 190.48223 
L 50.958545 190.48223 
L 54.205091 190.48223 
L 57.451636 190.48223 
L 60.698182 190.48223 
L 63.944727 190.48223 
L 67.191273 190.48223 
L 70.437818 190.48223 
L 73.684364 190.48223 
L 76.930909 190.48223 
L 80.177455 190.48223 
L 83.424 190.48223 
L 86.670545 190.48223 
L 89.917091 190.48223 
L 93.163636 190.48223 
L 96.410182 190.48223 
L 99.656727 190.48223 
L 102.903273 190.48223 
L 106.149818 190.48223 
L 109.396364 190.467619 
L 112.642909 190.467619 
L 115.889455 190.467619 
L 119.136 190.467619 
L 122.382545 190.467619 
L 125.629091 190.467619 
L 128.875636 190.467619 
L 132.122182 190.467619 
L 135.368727 190.467619 
L 138.615273 190.467619 
L 141.861818 190.467619 
L 145.108364 190.467619 
L 148.354909 190.467619 
L 151.601455 190.467619 
L 154.848 190.467619 
L 158.094545 190.467619 
L 161.341091 190.467619 
L 164.587636 190.467619 
L 167.834182 190.467619 
L 171.080727 190.467619 
L 174.327273 190.467619 
L 177.573818 190.467619 
L 180.820364 190.467619 
L 184.066909 190.462749 
L 187.313455 190.462749 
L 190.56 190.462749 
L 193.806545 190.462749 
L 197.053091 190.462749 
L 200.299636 190.418916 
L 203.546182 190.418916 
L 206.792727 190.414046 
L 210.039273 190.414046 
L 213.285818 190.409176 
L 216.532364 190.384824 
L 219.778909 190.370213 
L 223.025455 190.350732 
L 226.272 190.350732 
L 229.518545 190.287418 
L 232.765091 190.272807 
L 236.011636 190.263066 
L 239.258182 190.126698 
L 242.504727 190.073124 
L 245.751273 190.019551 
L 248.997818 189.985459 
L 252.244364 189.883183 
L 255.490909 189.761425 
L 258.737455 189.552002 
L 261.984 189.547132 
L 265.230545 189.36693 
L 268.477091 189.36693 
L 271.723636 188.655866 
L 274.970182 188.431832 
L 278.216727 188.017856 
L 281.463273 187.462641 
L 284.709818 186.712614 
L 287.956364 185.762904 
L 291.202909 185.2223 
L 294.449455 184.7304 
L 297.696 183.863485 
L 300.942545 183.507953 
L 304.189091 181.87153 
L 307.435636 180.541937 
L 310.682182 178.486668 
L 313.928727 176.582379 
L 317.175273 174.541721 
L 320.421818 171.122767 
L 323.668364 169.198996 
L 326.914909 166.07226 
L 330.161455 163.705292 
L 333.408 161.557487 
L 336.654545 158.713229 
L 339.901091 155.722862 
L 343.147636 152.751976 
L 346.394182 149.391465 
" style="fill:none;stroke:#008000;stroke-linecap:round;stroke-width:1.5;"/>
    <defs>
     <path d="M -0 2.12132 
L 1.272792 0 
L 0 -2.12132 
L -1.272792 -0 
z
" id="mc99eac975d" style="stroke:#ffffff;stroke-linejoin:miter;stroke-width:0.25;"/>
    </defs>
    <g clip-path="url(#p9576a7cb3c)">
     <use style="fill:#008000;stroke:#ffffff;stroke-linejoin:miter;stroke-width:0.25;" x="28.232727" xlink:href="#mc99eac975d" y="190.48223"/>
     <use style="fill:#008000;stroke:#ffffff;stroke-linejoin:miter;stroke-width:0.25;" x="31.479273" xlink:href="#mc99eac975d" y="190.48223"/>
     <use style="fill:#008000;stroke:#ffffff;stroke-linejoin:miter;stroke-width:0.25;" x="34.725818" xlink:href="#mc99eac975d" y="190.48223"/>
     <use style="fill:#008000;stroke:#ffffff;stroke-linejoin:miter;stroke-width:0.25;" x="37.972364" xlink:href="#mc99eac975d" y="190.48223"/>
     <use style="fill:#008000;stroke:#ffffff;stroke-linejoin:miter;stroke-width:0.25;" x="41.218909" xlink:href="#mc99eac975d" y="190.48223"/>
     <use style="fill:#008000;stroke:#ffffff;stroke-linejoin:miter;stroke-width:0.25;" x="44.465455" xlink:href="#mc99eac975d" y="190.48223"/>
     <use style="fill:#008000;stroke:#ffffff;stroke-linejoin:miter;stroke-width:0.25;" x="47.712" xlink:href="#mc99eac975d" y="190.48223"/>
     <use style="fill:#008000;stroke:#ffffff;stroke-linejoin:miter;stroke-width:0.25;" x="50.958545" xlink:href="#mc99eac975d" y="190.48223"/>
     <use style="fill:#008000;stroke:#ffffff;stroke-linejoin:miter;stroke-width:0.25;" x="54.205091" xlink:href="#mc99eac975d" y="190.48223"/>
     <use style="fill:#008000;stroke:#ffffff;stroke-linejoin:miter;stroke-width:0.25;" x="57.451636" xlink:href="#mc99eac975d" y="190.48223"/>
     <use style="fill:#008000;stroke:#ffffff;stroke-linejoin:miter;stroke-width:0.25;" x="60.698182" xlink:href="#mc99eac975d" y="190.48223"/>
     <use style="fill:#008000;stroke:#ffffff;stroke-linejoin:miter;stroke-width:0.25;" x="63.944727" xlink:href="#mc99eac975d" y="190.48223"/>
     <use style="fill:#008000;stroke:#ffffff;stroke-linejoin:miter;stroke-width:0.25;" x="67.191273" xlink:href="#mc99eac975d" y="190.48223"/>
     <use style="fill:#008000;stroke:#ffffff;stroke-linejoin:miter;stroke-width:0.25;" x="70.437818" xlink:href="#mc99eac975d" y="190.48223"/>
     <use style="fill:#008000;stroke:#ffffff;stroke-linejoin:miter;stroke-width:0.25;" x="73.684364" xlink:href="#mc99eac975d" y="190.48223"/>
     <use style="fill:#008000;stroke:#ffffff;stroke-linejoin:miter;stroke-width:0.25;" x="76.930909" xlink:href="#mc99eac975d" y="190.48223"/>
     <use style="fill:#008000;stroke:#ffffff;stroke-linejoin:miter;stroke-width:0.25;" x="80.177455" xlink:href="#mc99eac975d" y="190.48223"/>
     <use style="fill:#008000;stroke:#ffffff;stroke-linejoin:miter;stroke-width:0.25;" x="83.424" xlink:href="#mc99eac975d" y="190.48223"/>
     <use style="fill:#008000;stroke:#ffffff;stroke-linejoin:miter;stroke-width:0.25;" x="86.670545" xlink:href="#mc99eac975d" y="190.48223"/>
     <use style="fill:#008000;stroke:#ffffff;stroke-linejoin:miter;stroke-width:0.25;" x="89.917091" xlink:href="#mc99eac975d" y="190.48223"/>
     <use style="fill:#008000;stroke:#ffffff;stroke-linejoin:miter;stroke-width:0.25;" x="93.163636" xlink:href="#mc99eac975d" y="190.48223"/>
     <use style="fill:#008000;stroke:#ffffff;stroke-linejoin:miter;stroke-width:0.25;" x="96.410182" xlink:href="#mc99eac975d" y="190.48223"/>
     <use style="fill:#008000;stroke:#ffffff;stroke-linejoin:miter;stroke-width:0.25;" x="99.656727" xlink:href="#mc99eac975d" y="190.48223"/>
     <use style="fill:#008000;stroke:#ffffff;stroke-linejoin:miter;stroke-width:0.25;" x="102.903273" xlink:href="#mc99eac975d" y="190.48223"/>
     <use style="fill:#008000;stroke:#ffffff;stroke-linejoin:miter;stroke-width:0.25;" x="106.149818" xlink:href="#mc99eac975d" y="190.48223"/>
     <use style="fill:#008000;stroke:#ffffff;stroke-linejoin:miter;stroke-width:0.25;" x="109.396364" xlink:href="#mc99eac975d" y="190.467619"/>
     <use style="fill:#008000;stroke:#ffffff;stroke-linejoin:miter;stroke-width:0.25;" x="112.642909" xlink:href="#mc99eac975d" y="190.467619"/>
     <use style="fill:#008000;stroke:#ffffff;stroke-linejoin:miter;stroke-width:0.25;" x="115.889455" xlink:href="#mc99eac975d" y="190.467619"/>
     <use style="fill:#008000;stroke:#ffffff;stroke-linejoin:miter;stroke-width:0.25;" x="119.136" xlink:href="#mc99eac975d" y="190.467619"/>
     <use style="fill:#008000;stroke:#ffffff;stroke-linejoin:miter;stroke-width:0.25;" x="122.382545" xlink:href="#mc99eac975d" y="190.467619"/>
     <use style="fill:#008000;stroke:#ffffff;stroke-linejoin:miter;stroke-width:0.25;" x="125.629091" xlink:href="#mc99eac975d" y="190.467619"/>
     <use style="fill:#008000;stroke:#ffffff;stroke-linejoin:miter;stroke-width:0.25;" x="128.875636" xlink:href="#mc99eac975d" y="190.467619"/>
     <use style="fill:#008000;stroke:#ffffff;stroke-linejoin:miter;stroke-width:0.25;" x="132.122182" xlink:href="#mc99eac975d" y="190.467619"/>
     <use style="fill:#008000;stroke:#ffffff;stroke-linejoin:miter;stroke-width:0.25;" x="135.368727" xlink:href="#mc99eac975d" y="190.467619"/>
     <use style="fill:#008000;stroke:#ffffff;stroke-linejoin:miter;stroke-width:0.25;" x="138.615273" xlink:href="#mc99eac975d" y="190.467619"/>
     <use style="fill:#008000;stroke:#ffffff;stroke-linejoin:miter;stroke-width:0.25;" x="141.861818" xlink:href="#mc99eac975d" y="190.467619"/>
     <use style="fill:#008000;stroke:#ffffff;stroke-linejoin:miter;stroke-width:0.25;" x="145.108364" xlink:href="#mc99eac975d" y="190.467619"/>
     <use style="fill:#008000;stroke:#ffffff;stroke-linejoin:miter;stroke-width:0.25;" x="148.354909" xlink:href="#mc99eac975d" y="190.467619"/>
     <use style="fill:#008000;stroke:#ffffff;stroke-linejoin:miter;stroke-width:0.25;" x="151.601455" xlink:href="#mc99eac975d" y="190.467619"/>
     <use style="fill:#008000;stroke:#ffffff;stroke-linejoin:miter;stroke-width:0.25;" x="154.848" xlink:href="#mc99eac975d" y="190.467619"/>
     <use style="fill:#008000;stroke:#ffffff;stroke-linejoin:miter;stroke-width:0.25;" x="158.094545" xlink:href="#mc99eac975d" y="190.467619"/>
     <use style="fill:#008000;stroke:#ffffff;stroke-linejoin:miter;stroke-width:0.25;" x="161.341091" xlink:href="#mc99eac975d" y="190.467619"/>
     <use style="fill:#008000;stroke:#ffffff;stroke-linejoin:miter;stroke-width:0.25;" x="164.587636" xlink:href="#mc99eac975d" y="190.467619"/>
     <use style="fill:#008000;stroke:#ffffff;stroke-linejoin:miter;stroke-width:0.25;" x="167.834182" xlink:href="#mc99eac975d" y="190.467619"/>
     <use style="fill:#008000;stroke:#ffffff;stroke-linejoin:miter;stroke-width:0.25;" x="171.080727" xlink:href="#mc99eac975d" y="190.467619"/>
     <use style="fill:#008000;stroke:#ffffff;stroke-linejoin:miter;stroke-width:0.25;" x="174.327273" xlink:href="#mc99eac975d" y="190.467619"/>
     <use style="fill:#008000;stroke:#ffffff;stroke-linejoin:miter;stroke-width:0.25;" x="177.573818" xlink:href="#mc99eac975d" y="190.467619"/>
     <use style="fill:#008000;stroke:#ffffff;stroke-linejoin:miter;stroke-width:0.25;" x="180.820364" xlink:href="#mc99eac975d" y="190.467619"/>
     <use style="fill:#008000;stroke:#ffffff;stroke-linejoin:miter;stroke-width:0.25;" x="184.066909" xlink:href="#mc99eac975d" y="190.462749"/>
     <use style="fill:#008000;stroke:#ffffff;stroke-linejoin:miter;stroke-width:0.25;" x="187.313455" xlink:href="#mc99eac975d" y="190.462749"/>
     <use style="fill:#008000;stroke:#ffffff;stroke-linejoin:miter;stroke-width:0.25;" x="190.56" xlink:href="#mc99eac975d" y="190.462749"/>
     <use style="fill:#008000;stroke:#ffffff;stroke-linejoin:miter;stroke-width:0.25;" x="193.806545" xlink:href="#mc99eac975d" y="190.462749"/>
     <use style="fill:#008000;stroke:#ffffff;stroke-linejoin:miter;stroke-width:0.25;" x="197.053091" xlink:href="#mc99eac975d" y="190.462749"/>
     <use style="fill:#008000;stroke:#ffffff;stroke-linejoin:miter;stroke-width:0.25;" x="200.299636" xlink:href="#mc99eac975d" y="190.418916"/>
     <use style="fill:#008000;stroke:#ffffff;stroke-linejoin:miter;stroke-width:0.25;" x="203.546182" xlink:href="#mc99eac975d" y="190.418916"/>
     <use style="fill:#008000;stroke:#ffffff;stroke-linejoin:miter;stroke-width:0.25;" x="206.792727" xlink:href="#mc99eac975d" y="190.414046"/>
     <use style="fill:#008000;stroke:#ffffff;stroke-linejoin:miter;stroke-width:0.25;" x="210.039273" xlink:href="#mc99eac975d" y="190.414046"/>
     <use style="fill:#008000;stroke:#ffffff;stroke-linejoin:miter;stroke-width:0.25;" x="213.285818" xlink:href="#mc99eac975d" y="190.409176"/>
     <use style="fill:#008000;stroke:#ffffff;stroke-linejoin:miter;stroke-width:0.25;" x="216.532364" xlink:href="#mc99eac975d" y="190.384824"/>
     <use style="fill:#008000;stroke:#ffffff;stroke-linejoin:miter;stroke-width:0.25;" x="219.778909" xlink:href="#mc99eac975d" y="190.370213"/>
     <use style="fill:#008000;stroke:#ffffff;stroke-linejoin:miter;stroke-width:0.25;" x="223.025455" xlink:href="#mc99eac975d" y="190.350732"/>
     <use style="fill:#008000;stroke:#ffffff;stroke-linejoin:miter;stroke-width:0.25;" x="226.272" xlink:href="#mc99eac975d" y="190.350732"/>
     <use style="fill:#008000;stroke:#ffffff;stroke-linejoin:miter;stroke-width:0.25;" x="229.518545" xlink:href="#mc99eac975d" y="190.287418"/>
     <use style="fill:#008000;stroke:#ffffff;stroke-linejoin:miter;stroke-width:0.25;" x="232.765091" xlink:href="#mc99eac975d" y="190.272807"/>
     <use style="fill:#008000;stroke:#ffffff;stroke-linejoin:miter;stroke-width:0.25;" x="236.011636" xlink:href="#mc99eac975d" y="190.263066"/>
     <use style="fill:#008000;stroke:#ffffff;stroke-linejoin:miter;stroke-width:0.25;" x="239.258182" xlink:href="#mc99eac975d" y="190.126698"/>
     <use style="fill:#008000;stroke:#ffffff;stroke-linejoin:miter;stroke-width:0.25;" x="242.504727" xlink:href="#mc99eac975d" y="190.073124"/>
     <use style="fill:#008000;stroke:#ffffff;stroke-linejoin:miter;stroke-width:0.25;" x="245.751273" xlink:href="#mc99eac975d" y="190.019551"/>
     <use style="fill:#008000;stroke:#ffffff;stroke-linejoin:miter;stroke-width:0.25;" x="248.997818" xlink:href="#mc99eac975d" y="189.985459"/>
     <use style="fill:#008000;stroke:#ffffff;stroke-linejoin:miter;stroke-width:0.25;" x="252.244364" xlink:href="#mc99eac975d" y="189.883183"/>
     <use style="fill:#008000;stroke:#ffffff;stroke-linejoin:miter;stroke-width:0.25;" x="255.490909" xlink:href="#mc99eac975d" y="189.761425"/>
     <use style="fill:#008000;stroke:#ffffff;stroke-linejoin:miter;stroke-width:0.25;" x="258.737455" xlink:href="#mc99eac975d" y="189.552002"/>
     <use style="fill:#008000;stroke:#ffffff;stroke-linejoin:miter;stroke-width:0.25;" x="261.984" xlink:href="#mc99eac975d" y="189.547132"/>
     <use style="fill:#008000;stroke:#ffffff;stroke-linejoin:miter;stroke-width:0.25;" x="265.230545" xlink:href="#mc99eac975d" y="189.36693"/>
     <use style="fill:#008000;stroke:#ffffff;stroke-linejoin:miter;stroke-width:0.25;" x="268.477091" xlink:href="#mc99eac975d" y="189.36693"/>
     <use style="fill:#008000;stroke:#ffffff;stroke-linejoin:miter;stroke-width:0.25;" x="271.723636" xlink:href="#mc99eac975d" y="188.655866"/>
     <use style="fill:#008000;stroke:#ffffff;stroke-linejoin:miter;stroke-width:0.25;" x="274.970182" xlink:href="#mc99eac975d" y="188.431832"/>
     <use style="fill:#008000;stroke:#ffffff;stroke-linejoin:miter;stroke-width:0.25;" x="278.216727" xlink:href="#mc99eac975d" y="188.017856"/>
     <use style="fill:#008000;stroke:#ffffff;stroke-linejoin:miter;stroke-width:0.25;" x="281.463273" xlink:href="#mc99eac975d" y="187.462641"/>
     <use style="fill:#008000;stroke:#ffffff;stroke-linejoin:miter;stroke-width:0.25;" x="284.709818" xlink:href="#mc99eac975d" y="186.712614"/>
     <use style="fill:#008000;stroke:#ffffff;stroke-linejoin:miter;stroke-width:0.25;" x="287.956364" xlink:href="#mc99eac975d" y="185.762904"/>
     <use style="fill:#008000;stroke:#ffffff;stroke-linejoin:miter;stroke-width:0.25;" x="291.202909" xlink:href="#mc99eac975d" y="185.2223"/>
     <use style="fill:#008000;stroke:#ffffff;stroke-linejoin:miter;stroke-width:0.25;" x="294.449455" xlink:href="#mc99eac975d" y="184.7304"/>
     <use style="fill:#008000;stroke:#ffffff;stroke-linejoin:miter;stroke-width:0.25;" x="297.696" xlink:href="#mc99eac975d" y="183.863485"/>
     <use style="fill:#008000;stroke:#ffffff;stroke-linejoin:miter;stroke-width:0.25;" x="300.942545" xlink:href="#mc99eac975d" y="183.507953"/>
     <use style="fill:#008000;stroke:#ffffff;stroke-linejoin:miter;stroke-width:0.25;" x="304.189091" xlink:href="#mc99eac975d" y="181.87153"/>
     <use style="fill:#008000;stroke:#ffffff;stroke-linejoin:miter;stroke-width:0.25;" x="307.435636" xlink:href="#mc99eac975d" y="180.541937"/>
     <use style="fill:#008000;stroke:#ffffff;stroke-linejoin:miter;stroke-width:0.25;" x="310.682182" xlink:href="#mc99eac975d" y="178.486668"/>
     <use style="fill:#008000;stroke:#ffffff;stroke-linejoin:miter;stroke-width:0.25;" x="313.928727" xlink:href="#mc99eac975d" y="176.582379"/>
     <use style="fill:#008000;stroke:#ffffff;stroke-linejoin:miter;stroke-width:0.25;" x="317.175273" xlink:href="#mc99eac975d" y="174.541721"/>
     <use style="fill:#008000;stroke:#ffffff;stroke-linejoin:miter;stroke-width:0.25;" x="320.421818" xlink:href="#mc99eac975d" y="171.122767"/>
     <use style="fill:#008000;stroke:#ffffff;stroke-linejoin:miter;stroke-width:0.25;" x="323.668364" xlink:href="#mc99eac975d" y="169.198996"/>
     <use style="fill:#008000;stroke:#ffffff;stroke-linejoin:miter;stroke-width:0.25;" x="326.914909" xlink:href="#mc99eac975d" y="166.07226"/>
     <use style="fill:#008000;stroke:#ffffff;stroke-linejoin:miter;stroke-width:0.25;" x="330.161455" xlink:href="#mc99eac975d" y="163.705292"/>
     <use style="fill:#008000;stroke:#ffffff;stroke-linejoin:miter;stroke-width:0.25;" x="333.408" xlink:href="#mc99eac975d" y="161.557487"/>
     <use style="fill:#008000;stroke:#ffffff;stroke-linejoin:miter;stroke-width:0.25;" x="336.654545" xlink:href="#mc99eac975d" y="158.713229"/>
     <use style="fill:#008000;stroke:#ffffff;stroke-linejoin:miter;stroke-width:0.25;" x="339.901091" xlink:href="#mc99eac975d" y="155.722862"/>
     <use style="fill:#008000;stroke:#ffffff;stroke-linejoin:miter;stroke-width:0.25;" x="343.147636" xlink:href="#mc99eac975d" y="152.751976"/>
     <use style="fill:#008000;stroke:#ffffff;stroke-linejoin:miter;stroke-width:0.25;" x="346.394182" xlink:href="#mc99eac975d" y="149.391465"/>
    </g>
   </g>
   <g id="line2d_17">
    <path clip-path="url(#p9576a7cb3c)" d="M 28.232727 190.48223 
L 31.479273 190.48223 
L 34.725818 190.48223 
L 37.972364 190.48223 
L 41.218909 190.48223 
L 44.465455 190.48223 
L 47.712 190.48223 
L 50.958545 190.48223 
L 54.205091 190.48223 
L 57.451636 190.48223 
L 60.698182 190.48223 
L 63.944727 190.48223 
L 67.191273 190.48223 
L 70.437818 190.48223 
L 73.684364 190.48223 
L 76.930909 190.48223 
L 80.177455 190.48223 
L 83.424 190.48223 
L 86.670545 190.48223 
L 89.917091 190.48223 
L 93.163636 190.48223 
L 96.410182 190.48223 
L 99.656727 190.48223 
L 102.903273 190.48223 
L 106.149818 190.48223 
L 109.396364 190.48223 
L 112.642909 190.48223 
L 115.889455 190.48223 
L 119.136 190.48223 
L 122.382545 190.48223 
L 125.629091 190.48223 
L 128.875636 190.48223 
L 132.122182 190.48223 
L 135.368727 190.48223 
L 138.615273 190.48223 
L 141.861818 190.48223 
L 145.108364 190.48223 
L 148.354909 190.48223 
L 151.601455 190.48223 
L 154.848 190.48223 
L 158.094545 190.48223 
L 161.341091 190.48223 
L 164.587636 190.48223 
L 167.834182 190.48223 
L 171.080727 190.48223 
L 174.327273 190.48223 
L 177.573818 190.48223 
L 180.820364 190.48223 
L 184.066909 190.48223 
L 187.313455 190.47736 
L 190.56 190.47736 
L 193.806545 190.47249 
L 197.053091 190.47249 
L 200.299636 190.47249 
L 203.546182 190.47249 
L 206.792727 190.467619 
L 210.039273 190.467619 
L 213.285818 190.462749 
L 216.532364 190.457879 
L 219.778909 190.462749 
L 223.025455 190.448138 
L 226.272 190.433527 
L 229.518545 190.433527 
L 232.765091 190.423786 
L 236.011636 190.384824 
L 239.258182 190.384824 
L 242.504727 190.365343 
L 245.751273 190.350732 
L 248.997818 190.32638 
L 252.244364 190.311769 
L 255.490909 190.199752 
L 258.737455 190.131568 
L 261.984 190.131568 
L 265.230545 190.063384 
L 268.477091 190.00007 
L 271.723636 189.819869 
L 274.970182 189.751684 
L 278.216727 189.615316 
L 281.463273 189.381541 
L 284.709818 189.284135 
L 287.956364 189.079582 
L 291.202909 188.870159 
L 294.449455 188.738661 
L 297.696 188.5682 
L 300.942545 188.509757 
L 304.189091 188.300333 
L 307.435636 188.115262 
L 310.682182 187.944801 
L 313.928727 187.759729 
L 317.175273 187.599009 
L 320.421818 187.340883 
L 323.668364 187.165552 
L 326.914909 186.97074 
L 330.161455 186.683392 
L 333.408 186.464228 
L 336.654545 186.191491 
L 339.901091 185.909014 
L 343.147636 185.572962 
L 346.394182 185.227171 
" style="fill:none;stroke:#ff0000;stroke-linecap:round;stroke-width:1.5;"/>
    <defs>
     <path d="M -0.75 1.5 
L 0 0.75 
L 0.75 1.5 
L 1.5 0.75 
L 0.75 0 
L 1.5 -0.75 
L 0.75 -1.5 
L 0 -0.75 
L -0.75 -1.5 
L -1.5 -0.75 
L -0.75 0 
L -1.5 0.75 
z
" id="m1652d39044" style="stroke:#ffffff;stroke-linejoin:miter;stroke-width:0.25;"/>
    </defs>
    <g clip-path="url(#p9576a7cb3c)">
     <use style="fill:#ff0000;stroke:#ffffff;stroke-linejoin:miter;stroke-width:0.25;" x="28.232727" xlink:href="#m1652d39044" y="190.48223"/>
     <use style="fill:#ff0000;stroke:#ffffff;stroke-linejoin:miter;stroke-width:0.25;" x="31.479273" xlink:href="#m1652d39044" y="190.48223"/>
     <use style="fill:#ff0000;stroke:#ffffff;stroke-linejoin:miter;stroke-width:0.25;" x="34.725818" xlink:href="#m1652d39044" y="190.48223"/>
     <use style="fill:#ff0000;stroke:#ffffff;stroke-linejoin:miter;stroke-width:0.25;" x="37.972364" xlink:href="#m1652d39044" y="190.48223"/>
     <use style="fill:#ff0000;stroke:#ffffff;stroke-linejoin:miter;stroke-width:0.25;" x="41.218909" xlink:href="#m1652d39044" y="190.48223"/>
     <use style="fill:#ff0000;stroke:#ffffff;stroke-linejoin:miter;stroke-width:0.25;" x="44.465455" xlink:href="#m1652d39044" y="190.48223"/>
     <use style="fill:#ff0000;stroke:#ffffff;stroke-linejoin:miter;stroke-width:0.25;" x="47.712" xlink:href="#m1652d39044" y="190.48223"/>
     <use style="fill:#ff0000;stroke:#ffffff;stroke-linejoin:miter;stroke-width:0.25;" x="50.958545" xlink:href="#m1652d39044" y="190.48223"/>
     <use style="fill:#ff0000;stroke:#ffffff;stroke-linejoin:miter;stroke-width:0.25;" x="54.205091" xlink:href="#m1652d39044" y="190.48223"/>
     <use style="fill:#ff0000;stroke:#ffffff;stroke-linejoin:miter;stroke-width:0.25;" x="57.451636" xlink:href="#m1652d39044" y="190.48223"/>
     <use style="fill:#ff0000;stroke:#ffffff;stroke-linejoin:miter;stroke-width:0.25;" x="60.698182" xlink:href="#m1652d39044" y="190.48223"/>
     <use style="fill:#ff0000;stroke:#ffffff;stroke-linejoin:miter;stroke-width:0.25;" x="63.944727" xlink:href="#m1652d39044" y="190.48223"/>
     <use style="fill:#ff0000;stroke:#ffffff;stroke-linejoin:miter;stroke-width:0.25;" x="67.191273" xlink:href="#m1652d39044" y="190.48223"/>
     <use style="fill:#ff0000;stroke:#ffffff;stroke-linejoin:miter;stroke-width:0.25;" x="70.437818" xlink:href="#m1652d39044" y="190.48223"/>
     <use style="fill:#ff0000;stroke:#ffffff;stroke-linejoin:miter;stroke-width:0.25;" x="73.684364" xlink:href="#m1652d39044" y="190.48223"/>
     <use style="fill:#ff0000;stroke:#ffffff;stroke-linejoin:miter;stroke-width:0.25;" x="76.930909" xlink:href="#m1652d39044" y="190.48223"/>
     <use style="fill:#ff0000;stroke:#ffffff;stroke-linejoin:miter;stroke-width:0.25;" x="80.177455" xlink:href="#m1652d39044" y="190.48223"/>
     <use style="fill:#ff0000;stroke:#ffffff;stroke-linejoin:miter;stroke-width:0.25;" x="83.424" xlink:href="#m1652d39044" y="190.48223"/>
     <use style="fill:#ff0000;stroke:#ffffff;stroke-linejoin:miter;stroke-width:0.25;" x="86.670545" xlink:href="#m1652d39044" y="190.48223"/>
     <use style="fill:#ff0000;stroke:#ffffff;stroke-linejoin:miter;stroke-width:0.25;" x="89.917091" xlink:href="#m1652d39044" y="190.48223"/>
     <use style="fill:#ff0000;stroke:#ffffff;stroke-linejoin:miter;stroke-width:0.25;" x="93.163636" xlink:href="#m1652d39044" y="190.48223"/>
     <use style="fill:#ff0000;stroke:#ffffff;stroke-linejoin:miter;stroke-width:0.25;" x="96.410182" xlink:href="#m1652d39044" y="190.48223"/>
     <use style="fill:#ff0000;stroke:#ffffff;stroke-linejoin:miter;stroke-width:0.25;" x="99.656727" xlink:href="#m1652d39044" y="190.48223"/>
     <use style="fill:#ff0000;stroke:#ffffff;stroke-linejoin:miter;stroke-width:0.25;" x="102.903273" xlink:href="#m1652d39044" y="190.48223"/>
     <use style="fill:#ff0000;stroke:#ffffff;stroke-linejoin:miter;stroke-width:0.25;" x="106.149818" xlink:href="#m1652d39044" y="190.48223"/>
     <use style="fill:#ff0000;stroke:#ffffff;stroke-linejoin:miter;stroke-width:0.25;" x="109.396364" xlink:href="#m1652d39044" y="190.48223"/>
     <use style="fill:#ff0000;stroke:#ffffff;stroke-linejoin:miter;stroke-width:0.25;" x="112.642909" xlink:href="#m1652d39044" y="190.48223"/>
     <use style="fill:#ff0000;stroke:#ffffff;stroke-linejoin:miter;stroke-width:0.25;" x="115.889455" xlink:href="#m1652d39044" y="190.48223"/>
     <use style="fill:#ff0000;stroke:#ffffff;stroke-linejoin:miter;stroke-width:0.25;" x="119.136" xlink:href="#m1652d39044" y="190.48223"/>
     <use style="fill:#ff0000;stroke:#ffffff;stroke-linejoin:miter;stroke-width:0.25;" x="122.382545" xlink:href="#m1652d39044" y="190.48223"/>
     <use style="fill:#ff0000;stroke:#ffffff;stroke-linejoin:miter;stroke-width:0.25;" x="125.629091" xlink:href="#m1652d39044" y="190.48223"/>
     <use style="fill:#ff0000;stroke:#ffffff;stroke-linejoin:miter;stroke-width:0.25;" x="128.875636" xlink:href="#m1652d39044" y="190.48223"/>
     <use style="fill:#ff0000;stroke:#ffffff;stroke-linejoin:miter;stroke-width:0.25;" x="132.122182" xlink:href="#m1652d39044" y="190.48223"/>
     <use style="fill:#ff0000;stroke:#ffffff;stroke-linejoin:miter;stroke-width:0.25;" x="135.368727" xlink:href="#m1652d39044" y="190.48223"/>
     <use style="fill:#ff0000;stroke:#ffffff;stroke-linejoin:miter;stroke-width:0.25;" x="138.615273" xlink:href="#m1652d39044" y="190.48223"/>
     <use style="fill:#ff0000;stroke:#ffffff;stroke-linejoin:miter;stroke-width:0.25;" x="141.861818" xlink:href="#m1652d39044" y="190.48223"/>
     <use style="fill:#ff0000;stroke:#ffffff;stroke-linejoin:miter;stroke-width:0.25;" x="145.108364" xlink:href="#m1652d39044" y="190.48223"/>
     <use style="fill:#ff0000;stroke:#ffffff;stroke-linejoin:miter;stroke-width:0.25;" x="148.354909" xlink:href="#m1652d39044" y="190.48223"/>
     <use style="fill:#ff0000;stroke:#ffffff;stroke-linejoin:miter;stroke-width:0.25;" x="151.601455" xlink:href="#m1652d39044" y="190.48223"/>
     <use style="fill:#ff0000;stroke:#ffffff;stroke-linejoin:miter;stroke-width:0.25;" x="154.848" xlink:href="#m1652d39044" y="190.48223"/>
     <use style="fill:#ff0000;stroke:#ffffff;stroke-linejoin:miter;stroke-width:0.25;" x="158.094545" xlink:href="#m1652d39044" y="190.48223"/>
     <use style="fill:#ff0000;stroke:#ffffff;stroke-linejoin:miter;stroke-width:0.25;" x="161.341091" xlink:href="#m1652d39044" y="190.48223"/>
     <use style="fill:#ff0000;stroke:#ffffff;stroke-linejoin:miter;stroke-width:0.25;" x="164.587636" xlink:href="#m1652d39044" y="190.48223"/>
     <use style="fill:#ff0000;stroke:#ffffff;stroke-linejoin:miter;stroke-width:0.25;" x="167.834182" xlink:href="#m1652d39044" y="190.48223"/>
     <use style="fill:#ff0000;stroke:#ffffff;stroke-linejoin:miter;stroke-width:0.25;" x="171.080727" xlink:href="#m1652d39044" y="190.48223"/>
     <use style="fill:#ff0000;stroke:#ffffff;stroke-linejoin:miter;stroke-width:0.25;" x="174.327273" xlink:href="#m1652d39044" y="190.48223"/>
     <use style="fill:#ff0000;stroke:#ffffff;stroke-linejoin:miter;stroke-width:0.25;" x="177.573818" xlink:href="#m1652d39044" y="190.48223"/>
     <use style="fill:#ff0000;stroke:#ffffff;stroke-linejoin:miter;stroke-width:0.25;" x="180.820364" xlink:href="#m1652d39044" y="190.48223"/>
     <use style="fill:#ff0000;stroke:#ffffff;stroke-linejoin:miter;stroke-width:0.25;" x="184.066909" xlink:href="#m1652d39044" y="190.48223"/>
     <use style="fill:#ff0000;stroke:#ffffff;stroke-linejoin:miter;stroke-width:0.25;" x="187.313455" xlink:href="#m1652d39044" y="190.47736"/>
     <use style="fill:#ff0000;stroke:#ffffff;stroke-linejoin:miter;stroke-width:0.25;" x="190.56" xlink:href="#m1652d39044" y="190.47736"/>
     <use style="fill:#ff0000;stroke:#ffffff;stroke-linejoin:miter;stroke-width:0.25;" x="193.806545" xlink:href="#m1652d39044" y="190.47249"/>
     <use style="fill:#ff0000;stroke:#ffffff;stroke-linejoin:miter;stroke-width:0.25;" x="197.053091" xlink:href="#m1652d39044" y="190.47249"/>
     <use style="fill:#ff0000;stroke:#ffffff;stroke-linejoin:miter;stroke-width:0.25;" x="200.299636" xlink:href="#m1652d39044" y="190.47249"/>
     <use style="fill:#ff0000;stroke:#ffffff;stroke-linejoin:miter;stroke-width:0.25;" x="203.546182" xlink:href="#m1652d39044" y="190.47249"/>
     <use style="fill:#ff0000;stroke:#ffffff;stroke-linejoin:miter;stroke-width:0.25;" x="206.792727" xlink:href="#m1652d39044" y="190.467619"/>
     <use style="fill:#ff0000;stroke:#ffffff;stroke-linejoin:miter;stroke-width:0.25;" x="210.039273" xlink:href="#m1652d39044" y="190.467619"/>
     <use style="fill:#ff0000;stroke:#ffffff;stroke-linejoin:miter;stroke-width:0.25;" x="213.285818" xlink:href="#m1652d39044" y="190.462749"/>
     <use style="fill:#ff0000;stroke:#ffffff;stroke-linejoin:miter;stroke-width:0.25;" x="216.532364" xlink:href="#m1652d39044" y="190.457879"/>
     <use style="fill:#ff0000;stroke:#ffffff;stroke-linejoin:miter;stroke-width:0.25;" x="219.778909" xlink:href="#m1652d39044" y="190.462749"/>
     <use style="fill:#ff0000;stroke:#ffffff;stroke-linejoin:miter;stroke-width:0.25;" x="223.025455" xlink:href="#m1652d39044" y="190.448138"/>
     <use style="fill:#ff0000;stroke:#ffffff;stroke-linejoin:miter;stroke-width:0.25;" x="226.272" xlink:href="#m1652d39044" y="190.433527"/>
     <use style="fill:#ff0000;stroke:#ffffff;stroke-linejoin:miter;stroke-width:0.25;" x="229.518545" xlink:href="#m1652d39044" y="190.433527"/>
     <use style="fill:#ff0000;stroke:#ffffff;stroke-linejoin:miter;stroke-width:0.25;" x="232.765091" xlink:href="#m1652d39044" y="190.423786"/>
     <use style="fill:#ff0000;stroke:#ffffff;stroke-linejoin:miter;stroke-width:0.25;" x="236.011636" xlink:href="#m1652d39044" y="190.384824"/>
     <use style="fill:#ff0000;stroke:#ffffff;stroke-linejoin:miter;stroke-width:0.25;" x="239.258182" xlink:href="#m1652d39044" y="190.384824"/>
     <use style="fill:#ff0000;stroke:#ffffff;stroke-linejoin:miter;stroke-width:0.25;" x="242.504727" xlink:href="#m1652d39044" y="190.365343"/>
     <use style="fill:#ff0000;stroke:#ffffff;stroke-linejoin:miter;stroke-width:0.25;" x="245.751273" xlink:href="#m1652d39044" y="190.350732"/>
     <use style="fill:#ff0000;stroke:#ffffff;stroke-linejoin:miter;stroke-width:0.25;" x="248.997818" xlink:href="#m1652d39044" y="190.32638"/>
     <use style="fill:#ff0000;stroke:#ffffff;stroke-linejoin:miter;stroke-width:0.25;" x="252.244364" xlink:href="#m1652d39044" y="190.311769"/>
     <use style="fill:#ff0000;stroke:#ffffff;stroke-linejoin:miter;stroke-width:0.25;" x="255.490909" xlink:href="#m1652d39044" y="190.199752"/>
     <use style="fill:#ff0000;stroke:#ffffff;stroke-linejoin:miter;stroke-width:0.25;" x="258.737455" xlink:href="#m1652d39044" y="190.131568"/>
     <use style="fill:#ff0000;stroke:#ffffff;stroke-linejoin:miter;stroke-width:0.25;" x="261.984" xlink:href="#m1652d39044" y="190.131568"/>
     <use style="fill:#ff0000;stroke:#ffffff;stroke-linejoin:miter;stroke-width:0.25;" x="265.230545" xlink:href="#m1652d39044" y="190.063384"/>
     <use style="fill:#ff0000;stroke:#ffffff;stroke-linejoin:miter;stroke-width:0.25;" x="268.477091" xlink:href="#m1652d39044" y="190.00007"/>
     <use style="fill:#ff0000;stroke:#ffffff;stroke-linejoin:miter;stroke-width:0.25;" x="271.723636" xlink:href="#m1652d39044" y="189.819869"/>
     <use style="fill:#ff0000;stroke:#ffffff;stroke-linejoin:miter;stroke-width:0.25;" x="274.970182" xlink:href="#m1652d39044" y="189.751684"/>
     <use style="fill:#ff0000;stroke:#ffffff;stroke-linejoin:miter;stroke-width:0.25;" x="278.216727" xlink:href="#m1652d39044" y="189.615316"/>
     <use style="fill:#ff0000;stroke:#ffffff;stroke-linejoin:miter;stroke-width:0.25;" x="281.463273" xlink:href="#m1652d39044" y="189.381541"/>
     <use style="fill:#ff0000;stroke:#ffffff;stroke-linejoin:miter;stroke-width:0.25;" x="284.709818" xlink:href="#m1652d39044" y="189.284135"/>
     <use style="fill:#ff0000;stroke:#ffffff;stroke-linejoin:miter;stroke-width:0.25;" x="287.956364" xlink:href="#m1652d39044" y="189.079582"/>
     <use style="fill:#ff0000;stroke:#ffffff;stroke-linejoin:miter;stroke-width:0.25;" x="291.202909" xlink:href="#m1652d39044" y="188.870159"/>
     <use style="fill:#ff0000;stroke:#ffffff;stroke-linejoin:miter;stroke-width:0.25;" x="294.449455" xlink:href="#m1652d39044" y="188.738661"/>
     <use style="fill:#ff0000;stroke:#ffffff;stroke-linejoin:miter;stroke-width:0.25;" x="297.696" xlink:href="#m1652d39044" y="188.5682"/>
     <use style="fill:#ff0000;stroke:#ffffff;stroke-linejoin:miter;stroke-width:0.25;" x="300.942545" xlink:href="#m1652d39044" y="188.509757"/>
     <use style="fill:#ff0000;stroke:#ffffff;stroke-linejoin:miter;stroke-width:0.25;" x="304.189091" xlink:href="#m1652d39044" y="188.300333"/>
     <use style="fill:#ff0000;stroke:#ffffff;stroke-linejoin:miter;stroke-width:0.25;" x="307.435636" xlink:href="#m1652d39044" y="188.115262"/>
     <use style="fill:#ff0000;stroke:#ffffff;stroke-linejoin:miter;stroke-width:0.25;" x="310.682182" xlink:href="#m1652d39044" y="187.944801"/>
     <use style="fill:#ff0000;stroke:#ffffff;stroke-linejoin:miter;stroke-width:0.25;" x="313.928727" xlink:href="#m1652d39044" y="187.759729"/>
     <use style="fill:#ff0000;stroke:#ffffff;stroke-linejoin:miter;stroke-width:0.25;" x="317.175273" xlink:href="#m1652d39044" y="187.599009"/>
     <use style="fill:#ff0000;stroke:#ffffff;stroke-linejoin:miter;stroke-width:0.25;" x="320.421818" xlink:href="#m1652d39044" y="187.340883"/>
     <use style="fill:#ff0000;stroke:#ffffff;stroke-linejoin:miter;stroke-width:0.25;" x="323.668364" xlink:href="#m1652d39044" y="187.165552"/>
     <use style="fill:#ff0000;stroke:#ffffff;stroke-linejoin:miter;stroke-width:0.25;" x="326.914909" xlink:href="#m1652d39044" y="186.97074"/>
     <use style="fill:#ff0000;stroke:#ffffff;stroke-linejoin:miter;stroke-width:0.25;" x="330.161455" xlink:href="#m1652d39044" y="186.683392"/>
     <use style="fill:#ff0000;stroke:#ffffff;stroke-linejoin:miter;stroke-width:0.25;" x="333.408" xlink:href="#m1652d39044" y="186.464228"/>
     <use style="fill:#ff0000;stroke:#ffffff;stroke-linejoin:miter;stroke-width:0.25;" x="336.654545" xlink:href="#m1652d39044" y="186.191491"/>
     <use style="fill:#ff0000;stroke:#ffffff;stroke-linejoin:miter;stroke-width:0.25;" x="339.901091" xlink:href="#m1652d39044" y="185.909014"/>
     <use style="fill:#ff0000;stroke:#ffffff;stroke-linejoin:miter;stroke-width:0.25;" x="343.147636" xlink:href="#m1652d39044" y="185.572962"/>
     <use style="fill:#ff0000;stroke:#ffffff;stroke-linejoin:miter;stroke-width:0.25;" x="346.394182" xlink:href="#m1652d39044" y="185.227171"/>
    </g>
   </g>
   <g id="line2d_18"/>
   <g id="line2d_19"/>
   <g id="line2d_20"/>
   <g id="line2d_21"/>
   <g id="line2d_22">
    <path clip-path="url(#p9576a7cb3c)" d="M 12 28.154957 
L 369.12 28.154957 
" style="fill:none;stroke:#4c72b0;stroke-dasharray:0.5,0.825;stroke-dashoffset:0;stroke-width:0.5;"/>
   </g>
   <g id="line2d_23">
    <path clip-path="url(#p9576a7cb3c)" d="M 12 185.227171 
L 369.12 185.227171 
" style="fill:none;stroke:#4c72b0;stroke-dasharray:0.5,0.825;stroke-dashoffset:0;stroke-width:0.5;"/>
   </g>
   <g id="line2d_24">
    <path clip-path="url(#p9576a7cb3c)" d="M 12 149.391465 
L 369.12 149.391465 
" style="fill:none;stroke:#4c72b0;stroke-dasharray:0.5,0.825;stroke-dashoffset:0;stroke-width:0.5;"/>
   </g>
   <g id="line2d_25">
    <path clip-path="url(#p9576a7cb3c)" d="M 352.887273 198.598594 
L 352.887273 20.038594 
" style="fill:none;stroke:#4c72b0;stroke-dasharray:0.5,0.825;stroke-dashoffset:0;stroke-width:0.5;"/>
   </g>
   <g id="patch_3">
    <path d="M 12 198.598594 
L 12 20.038594 
" style="fill:none;stroke:#262626;stroke-linecap:square;stroke-linejoin:miter;stroke-width:0.5;"/>
   </g>
   <g id="patch_4">
    <path d="M 12 198.598594 
L 369.12 198.598594 
" style="fill:none;stroke:#262626;stroke-linecap:square;stroke-linejoin:miter;stroke-width:0.5;"/>
   </g>
   <g id="text_8">
    <!-- 33330 -->
    <defs>
     <path d="M 40.578125 39.3125 
Q 47.65625 37.796875 51.625 33 
Q 55.609375 28.21875 55.609375 21.1875 
Q 55.609375 10.40625 48.1875 4.484375 
Q 40.765625 -1.421875 27.09375 -1.421875 
Q 22.515625 -1.421875 17.65625 -0.515625 
Q 12.796875 0.390625 7.625 2.203125 
L 7.625 11.71875 
Q 11.71875 9.328125 16.59375 8.109375 
Q 21.484375 6.890625 26.8125 6.890625 
Q 36.078125 6.890625 40.9375 10.546875 
Q 45.796875 14.203125 45.796875 21.1875 
Q 45.796875 27.640625 41.28125 31.265625 
Q 36.765625 34.90625 28.71875 34.90625 
L 20.21875 34.90625 
L 20.21875 43.015625 
L 29.109375 43.015625 
Q 36.375 43.015625 40.234375 45.921875 
Q 44.09375 48.828125 44.09375 54.296875 
Q 44.09375 59.90625 40.109375 62.90625 
Q 36.140625 65.921875 28.71875 65.921875 
Q 24.65625 65.921875 20.015625 65.03125 
Q 15.375 64.15625 9.8125 62.3125 
L 9.8125 71.09375 
Q 15.4375 72.65625 20.34375 73.4375 
Q 25.25 74.21875 29.59375 74.21875 
Q 40.828125 74.21875 47.359375 69.109375 
Q 53.90625 64.015625 53.90625 55.328125 
Q 53.90625 49.265625 50.4375 45.09375 
Q 46.96875 40.921875 40.578125 39.3125 
z
" id="DejaVuSans-51"/>
    </defs>
    <g style="fill:#ff0000;" transform="translate(15.5712 26.491207)scale(0.08 -0.08)">
     <use xlink:href="#DejaVuSans-51"/>
     <use x="63.623047" xlink:href="#DejaVuSans-51"/>
     <use x="127.246094" xlink:href="#DejaVuSans-51"/>
     <use x="190.869141" xlink:href="#DejaVuSans-51"/>
     <use x="254.492188" xlink:href="#DejaVuSans-48"/>
    </g>
   </g>
   <g id="text_9">
    <!-- 1079 -->
    <defs>
     <path d="M 8.203125 72.90625 
L 55.078125 72.90625 
L 55.078125 68.703125 
L 28.609375 0 
L 18.3125 0 
L 43.21875 64.59375 
L 8.203125 64.59375 
z
" id="DejaVuSans-55"/>
     <path d="M 10.984375 1.515625 
L 10.984375 10.5 
Q 14.703125 8.734375 18.5 7.8125 
Q 22.3125 6.890625 25.984375 6.890625 
Q 35.75 6.890625 40.890625 13.453125 
Q 46.046875 20.015625 46.78125 33.40625 
Q 43.953125 29.203125 39.59375 26.953125 
Q 35.25 24.703125 29.984375 24.703125 
Q 19.046875 24.703125 12.671875 31.3125 
Q 6.296875 37.9375 6.296875 49.421875 
Q 6.296875 60.640625 12.9375 67.421875 
Q 19.578125 74.21875 30.609375 74.21875 
Q 43.265625 74.21875 49.921875 64.515625 
Q 56.59375 54.828125 56.59375 36.375 
Q 56.59375 19.140625 48.40625 8.859375 
Q 40.234375 -1.421875 26.421875 -1.421875 
Q 22.703125 -1.421875 18.890625 -0.6875 
Q 15.09375 0.046875 10.984375 1.515625 
z
M 30.609375 32.421875 
Q 37.25 32.421875 41.125 36.953125 
Q 45.015625 41.5 45.015625 49.421875 
Q 45.015625 57.28125 41.125 61.84375 
Q 37.25 66.40625 30.609375 66.40625 
Q 23.96875 66.40625 20.09375 61.84375 
Q 16.21875 57.28125 16.21875 49.421875 
Q 16.21875 41.5 20.09375 36.953125 
Q 23.96875 32.421875 30.609375 32.421875 
z
" id="DejaVuSans-57"/>
    </defs>
    <g style="fill:#ff0000;" transform="translate(15.5712 183.563421)scale(0.08 -0.08)">
     <use xlink:href="#DejaVuSans-49"/>
     <use x="63.623047" xlink:href="#DejaVuSans-48"/>
     <use x="127.246094" xlink:href="#DejaVuSans-55"/>
     <use x="190.869141" xlink:href="#DejaVuSans-57"/>
    </g>
   </g>
   <g id="text_10">
    <!-- 8437 -->
    <defs>
     <path d="M 31.78125 34.625 
Q 24.75 34.625 20.71875 30.859375 
Q 16.703125 27.09375 16.703125 20.515625 
Q 16.703125 13.921875 20.71875 10.15625 
Q 24.75 6.390625 31.78125 6.390625 
Q 38.8125 6.390625 42.859375 10.171875 
Q 46.921875 13.96875 46.921875 20.515625 
Q 46.921875 27.09375 42.890625 30.859375 
Q 38.875 34.625 31.78125 34.625 
z
M 21.921875 38.8125 
Q 15.578125 40.375 12.03125 44.71875 
Q 8.5 49.078125 8.5 55.328125 
Q 8.5 64.0625 14.71875 69.140625 
Q 20.953125 74.21875 31.78125 74.21875 
Q 42.671875 74.21875 48.875 69.140625 
Q 55.078125 64.0625 55.078125 55.328125 
Q 55.078125 49.078125 51.53125 44.71875 
Q 48 40.375 41.703125 38.8125 
Q 48.828125 37.15625 52.796875 32.3125 
Q 56.78125 27.484375 56.78125 20.515625 
Q 56.78125 9.90625 50.3125 4.234375 
Q 43.84375 -1.421875 31.78125 -1.421875 
Q 19.734375 -1.421875 13.25 4.234375 
Q 6.78125 9.90625 6.78125 20.515625 
Q 6.78125 27.484375 10.78125 32.3125 
Q 14.796875 37.15625 21.921875 38.8125 
z
M 18.3125 54.390625 
Q 18.3125 48.734375 21.84375 45.5625 
Q 25.390625 42.390625 31.78125 42.390625 
Q 38.140625 42.390625 41.71875 45.5625 
Q 45.3125 48.734375 45.3125 54.390625 
Q 45.3125 60.0625 41.71875 63.234375 
Q 38.140625 66.40625 31.78125 66.40625 
Q 25.390625 66.40625 21.84375 63.234375 
Q 18.3125 60.0625 18.3125 54.390625 
z
" id="DejaVuSans-56"/>
     <path d="M 37.796875 64.3125 
L 12.890625 25.390625 
L 37.796875 25.390625 
z
M 35.203125 72.90625 
L 47.609375 72.90625 
L 47.609375 25.390625 
L 58.015625 25.390625 
L 58.015625 17.1875 
L 47.609375 17.1875 
L 47.609375 0 
L 37.796875 0 
L 37.796875 17.1875 
L 4.890625 17.1875 
L 4.890625 26.703125 
z
" id="DejaVuSans-52"/>
    </defs>
    <g style="fill:#008000;" transform="translate(15.5712 147.727715)scale(0.08 -0.08)">
     <use xlink:href="#DejaVuSans-56"/>
     <use x="63.623047" xlink:href="#DejaVuSans-52"/>
     <use x="127.246094" xlink:href="#DejaVuSans-51"/>
     <use x="190.869141" xlink:href="#DejaVuSans-55"/>
    </g>
   </g>
   <g id="text_11">
    <!-- COVID-19 Cases, Recoveries &amp; Deaths Graph -->
    <defs>
     <path d="M 64.40625 67.28125 
L 64.40625 56.890625 
Q 59.421875 61.53125 53.78125 63.8125 
Q 48.140625 66.109375 41.796875 66.109375 
Q 29.296875 66.109375 22.65625 58.46875 
Q 16.015625 50.828125 16.015625 36.375 
Q 16.015625 21.96875 22.65625 14.328125 
Q 29.296875 6.6875 41.796875 6.6875 
Q 48.140625 6.6875 53.78125 8.984375 
Q 59.421875 11.28125 64.40625 15.921875 
L 64.40625 5.609375 
Q 59.234375 2.09375 53.4375 0.328125 
Q 47.65625 -1.421875 41.21875 -1.421875 
Q 24.65625 -1.421875 15.125 8.703125 
Q 5.609375 18.84375 5.609375 36.375 
Q 5.609375 53.953125 15.125 64.078125 
Q 24.65625 74.21875 41.21875 74.21875 
Q 47.75 74.21875 53.53125 72.484375 
Q 59.328125 70.75 64.40625 67.28125 
z
" id="DejaVuSans-67"/>
     <path d="M 39.40625 66.21875 
Q 28.65625 66.21875 22.328125 58.203125 
Q 16.015625 50.203125 16.015625 36.375 
Q 16.015625 22.609375 22.328125 14.59375 
Q 28.65625 6.59375 39.40625 6.59375 
Q 50.140625 6.59375 56.421875 14.59375 
Q 62.703125 22.609375 62.703125 36.375 
Q 62.703125 50.203125 56.421875 58.203125 
Q 50.140625 66.21875 39.40625 66.21875 
z
M 39.40625 74.21875 
Q 54.734375 74.21875 63.90625 63.9375 
Q 73.09375 53.65625 73.09375 36.375 
Q 73.09375 19.140625 63.90625 8.859375 
Q 54.734375 -1.421875 39.40625 -1.421875 
Q 24.03125 -1.421875 14.8125 8.828125 
Q 5.609375 19.09375 5.609375 36.375 
Q 5.609375 53.65625 14.8125 63.9375 
Q 24.03125 74.21875 39.40625 74.21875 
z
" id="DejaVuSans-79"/>
     <path d="M 28.609375 0 
L 0.78125 72.90625 
L 11.078125 72.90625 
L 34.1875 11.53125 
L 57.328125 72.90625 
L 67.578125 72.90625 
L 39.796875 0 
z
" id="DejaVuSans-86"/>
     <path d="M 9.8125 72.90625 
L 19.671875 72.90625 
L 19.671875 0 
L 9.8125 0 
z
" id="DejaVuSans-73"/>
     <path d="M 19.671875 64.796875 
L 19.671875 8.109375 
L 31.59375 8.109375 
Q 46.6875 8.109375 53.6875 14.9375 
Q 60.6875 21.78125 60.6875 36.53125 
Q 60.6875 51.171875 53.6875 57.984375 
Q 46.6875 64.796875 31.59375 64.796875 
z
M 9.8125 72.90625 
L 30.078125 72.90625 
Q 51.265625 72.90625 61.171875 64.09375 
Q 71.09375 55.28125 71.09375 36.53125 
Q 71.09375 17.671875 61.125 8.828125 
Q 51.171875 0 30.078125 0 
L 9.8125 0 
z
" id="DejaVuSans-68"/>
     <path d="M 4.890625 31.390625 
L 31.203125 31.390625 
L 31.203125 23.390625 
L 4.890625 23.390625 
z
" id="DejaVuSans-45"/>
     <path d="M 44.28125 53.078125 
L 44.28125 44.578125 
Q 40.484375 46.53125 36.375 47.5 
Q 32.28125 48.484375 27.875 48.484375 
Q 21.1875 48.484375 17.84375 46.4375 
Q 14.5 44.390625 14.5 40.28125 
Q 14.5 37.15625 16.890625 35.375 
Q 19.28125 33.59375 26.515625 31.984375 
L 29.59375 31.296875 
Q 39.15625 29.25 43.1875 25.515625 
Q 47.21875 21.78125 47.21875 15.09375 
Q 47.21875 7.46875 41.1875 3.015625 
Q 35.15625 -1.421875 24.609375 -1.421875 
Q 20.21875 -1.421875 15.453125 -0.5625 
Q 10.6875 0.296875 5.421875 2 
L 5.421875 11.28125 
Q 10.40625 8.6875 15.234375 7.390625 
Q 20.0625 6.109375 24.8125 6.109375 
Q 31.15625 6.109375 34.5625 8.28125 
Q 37.984375 10.453125 37.984375 14.40625 
Q 37.984375 18.0625 35.515625 20.015625 
Q 33.0625 21.96875 24.703125 23.78125 
L 21.578125 24.515625 
Q 13.234375 26.265625 9.515625 29.90625 
Q 5.8125 33.546875 5.8125 39.890625 
Q 5.8125 47.609375 11.28125 51.796875 
Q 16.75 56 26.8125 56 
Q 31.78125 56 36.171875 55.265625 
Q 40.578125 54.546875 44.28125 53.078125 
z
" id="DejaVuSans-115"/>
     <path d="M 11.71875 12.40625 
L 22.015625 12.40625 
L 22.015625 4 
L 14.015625 -11.625 
L 7.71875 -11.625 
L 11.71875 4 
z
" id="DejaVuSans-44"/>
     <path d="M 44.390625 34.1875 
Q 47.5625 33.109375 50.5625 29.59375 
Q 53.5625 26.078125 56.59375 19.921875 
L 66.609375 0 
L 56 0 
L 46.6875 18.703125 
Q 43.0625 26.03125 39.671875 28.421875 
Q 36.28125 30.8125 30.421875 30.8125 
L 19.671875 30.8125 
L 19.671875 0 
L 9.8125 0 
L 9.8125 72.90625 
L 32.078125 72.90625 
Q 44.578125 72.90625 50.734375 67.671875 
Q 56.890625 62.453125 56.890625 51.90625 
Q 56.890625 45.015625 53.6875 40.46875 
Q 50.484375 35.9375 44.390625 34.1875 
z
M 19.671875 64.796875 
L 19.671875 38.921875 
L 32.078125 38.921875 
Q 39.203125 38.921875 42.84375 42.21875 
Q 46.484375 45.515625 46.484375 51.90625 
Q 46.484375 58.296875 42.84375 61.546875 
Q 39.203125 64.796875 32.078125 64.796875 
z
" id="DejaVuSans-82"/>
     <path d="M 48.78125 52.59375 
L 48.78125 44.1875 
Q 44.96875 46.296875 41.140625 47.34375 
Q 37.3125 48.390625 33.40625 48.390625 
Q 24.65625 48.390625 19.8125 42.84375 
Q 14.984375 37.3125 14.984375 27.296875 
Q 14.984375 17.28125 19.8125 11.734375 
Q 24.65625 6.203125 33.40625 6.203125 
Q 37.3125 6.203125 41.140625 7.25 
Q 44.96875 8.296875 48.78125 10.40625 
L 48.78125 2.09375 
Q 45.015625 0.34375 40.984375 -0.53125 
Q 36.96875 -1.421875 32.421875 -1.421875 
Q 20.0625 -1.421875 12.78125 6.34375 
Q 5.515625 14.109375 5.515625 27.296875 
Q 5.515625 40.671875 12.859375 48.328125 
Q 20.21875 56 33.015625 56 
Q 37.15625 56 41.109375 55.140625 
Q 45.0625 54.296875 48.78125 52.59375 
z
" id="DejaVuSans-99"/>
     <path d="M 30.609375 48.390625 
Q 23.390625 48.390625 19.1875 42.75 
Q 14.984375 37.109375 14.984375 27.296875 
Q 14.984375 17.484375 19.15625 11.84375 
Q 23.34375 6.203125 30.609375 6.203125 
Q 37.796875 6.203125 41.984375 11.859375 
Q 46.1875 17.53125 46.1875 27.296875 
Q 46.1875 37.015625 41.984375 42.703125 
Q 37.796875 48.390625 30.609375 48.390625 
z
M 30.609375 56 
Q 42.328125 56 49.015625 48.375 
Q 55.71875 40.765625 55.71875 27.296875 
Q 55.71875 13.875 49.015625 6.21875 
Q 42.328125 -1.421875 30.609375 -1.421875 
Q 18.84375 -1.421875 12.171875 6.21875 
Q 5.515625 13.875 5.515625 27.296875 
Q 5.515625 40.765625 12.171875 48.375 
Q 18.84375 56 30.609375 56 
z
" id="DejaVuSans-111"/>
     <path d="M 2.984375 54.6875 
L 12.5 54.6875 
L 29.59375 8.796875 
L 46.6875 54.6875 
L 56.203125 54.6875 
L 35.6875 0 
L 23.484375 0 
z
" id="DejaVuSans-118"/>
     <path d="M 9.421875 54.6875 
L 18.40625 54.6875 
L 18.40625 0 
L 9.421875 0 
z
M 9.421875 75.984375 
L 18.40625 75.984375 
L 18.40625 64.59375 
L 9.421875 64.59375 
z
" id="DejaVuSans-105"/>
     <path d="M 24.3125 39.203125 
Q 19.875 35.25 17.796875 31.3125 
Q 15.71875 27.390625 15.71875 23.09375 
Q 15.71875 15.96875 20.890625 11.234375 
Q 26.078125 6.5 33.890625 6.5 
Q 38.53125 6.5 42.578125 8.03125 
Q 46.625 9.578125 50.203125 12.703125 
z
M 31.203125 44.671875 
L 56 19.28125 
Q 58.890625 23.640625 60.5 28.59375 
Q 62.109375 33.546875 62.40625 39.109375 
L 71.484375 39.109375 
Q 70.90625 32.671875 68.359375 26.359375 
Q 65.828125 20.0625 61.28125 13.921875 
L 74.90625 0 
L 62.59375 0 
L 55.609375 7.171875 
Q 50.53125 2.828125 44.96875 0.703125 
Q 39.40625 -1.421875 33.015625 -1.421875 
Q 21.234375 -1.421875 13.765625 5.296875 
Q 6.296875 12.015625 6.296875 22.515625 
Q 6.296875 28.765625 9.5625 34.25 
Q 12.84375 39.75 19.390625 44.578125 
Q 17.046875 47.65625 15.8125 50.703125 
Q 14.59375 53.765625 14.59375 56.6875 
Q 14.59375 64.59375 20.015625 69.40625 
Q 25.4375 74.21875 34.421875 74.21875 
Q 38.484375 74.21875 42.5 73.34375 
Q 46.53125 72.46875 50.6875 70.703125 
L 50.6875 61.8125 
Q 46.4375 64.109375 42.578125 65.296875 
Q 38.71875 66.5 35.40625 66.5 
Q 30.28125 66.5 27.078125 63.78125 
Q 23.875 61.078125 23.875 56.78125 
Q 23.875 54.296875 25.3125 51.78125 
Q 26.765625 49.265625 31.203125 44.671875 
z
" id="DejaVuSans-38"/>
     <path d="M 18.3125 70.21875 
L 18.3125 54.6875 
L 36.8125 54.6875 
L 36.8125 47.703125 
L 18.3125 47.703125 
L 18.3125 18.015625 
Q 18.3125 11.328125 20.140625 9.421875 
Q 21.96875 7.515625 27.59375 7.515625 
L 36.8125 7.515625 
L 36.8125 0 
L 27.59375 0 
Q 17.1875 0 13.234375 3.875 
Q 9.28125 7.765625 9.28125 18.015625 
L 9.28125 47.703125 
L 2.6875 47.703125 
L 2.6875 54.6875 
L 9.28125 54.6875 
L 9.28125 70.21875 
z
" id="DejaVuSans-116"/>
     <path d="M 54.890625 33.015625 
L 54.890625 0 
L 45.90625 0 
L 45.90625 32.71875 
Q 45.90625 40.484375 42.875 44.328125 
Q 39.84375 48.1875 33.796875 48.1875 
Q 26.515625 48.1875 22.3125 43.546875 
Q 18.109375 38.921875 18.109375 30.90625 
L 18.109375 0 
L 9.078125 0 
L 9.078125 75.984375 
L 18.109375 75.984375 
L 18.109375 46.1875 
Q 21.34375 51.125 25.703125 53.5625 
Q 30.078125 56 35.796875 56 
Q 45.21875 56 50.046875 50.171875 
Q 54.890625 44.34375 54.890625 33.015625 
z
" id="DejaVuSans-104"/>
     <path d="M 59.515625 10.40625 
L 59.515625 29.984375 
L 43.40625 29.984375 
L 43.40625 38.09375 
L 69.28125 38.09375 
L 69.28125 6.78125 
Q 63.578125 2.734375 56.6875 0.65625 
Q 49.8125 -1.421875 42 -1.421875 
Q 24.90625 -1.421875 15.25 8.5625 
Q 5.609375 18.5625 5.609375 36.375 
Q 5.609375 54.25 15.25 64.234375 
Q 24.90625 74.21875 42 74.21875 
Q 49.125 74.21875 55.546875 72.453125 
Q 61.96875 70.703125 67.390625 67.28125 
L 67.390625 56.78125 
Q 61.921875 61.421875 55.765625 63.765625 
Q 49.609375 66.109375 42.828125 66.109375 
Q 29.4375 66.109375 22.71875 58.640625 
Q 16.015625 51.171875 16.015625 36.375 
Q 16.015625 21.625 22.71875 14.15625 
Q 29.4375 6.6875 42.828125 6.6875 
Q 48.046875 6.6875 52.140625 7.59375 
Q 56.25 8.5 59.515625 10.40625 
z
" id="DejaVuSans-71"/>
    </defs>
    <g style="fill:#262626;" transform="translate(88.964766 14.038594)scale(0.09 -0.09)">
     <use xlink:href="#DejaVuSans-67"/>
     <use x="69.824219" xlink:href="#DejaVuSans-79"/>
     <use x="146.785156" xlink:href="#DejaVuSans-86"/>
     <use x="215.193359" xlink:href="#DejaVuSans-73"/>
     <use x="244.685547" xlink:href="#DejaVuSans-68"/>
     <use x="321.6875" xlink:href="#DejaVuSans-45"/>
     <use x="357.771484" xlink:href="#DejaVuSans-49"/>
     <use x="421.394531" xlink:href="#DejaVuSans-57"/>
     <use x="485.017578" xlink:href="#DejaVuSans-32"/>
     <use x="516.804688" xlink:href="#DejaVuSans-67"/>
     <use x="586.628906" xlink:href="#DejaVuSans-97"/>
     <use x="647.908203" xlink:href="#DejaVuSans-115"/>
     <use x="700.007812" xlink:href="#DejaVuSans-101"/>
     <use x="761.53125" xlink:href="#DejaVuSans-115"/>
     <use x="813.630859" xlink:href="#DejaVuSans-44"/>
     <use x="845.417969" xlink:href="#DejaVuSans-32"/>
     <use x="877.205078" xlink:href="#DejaVuSans-82"/>
     <use x="942.1875" xlink:href="#DejaVuSans-101"/>
     <use x="1003.710938" xlink:href="#DejaVuSans-99"/>
     <use x="1058.691406" xlink:href="#DejaVuSans-111"/>
     <use x="1119.873047" xlink:href="#DejaVuSans-118"/>
     <use x="1179.052734" xlink:href="#DejaVuSans-101"/>
     <use x="1240.576172" xlink:href="#DejaVuSans-114"/>
     <use x="1281.689453" xlink:href="#DejaVuSans-105"/>
     <use x="1309.472656" xlink:href="#DejaVuSans-101"/>
     <use x="1370.996094" xlink:href="#DejaVuSans-115"/>
     <use x="1423.095703" xlink:href="#DejaVuSans-32"/>
     <use x="1454.882812" xlink:href="#DejaVuSans-38"/>
     <use x="1532.861328" xlink:href="#DejaVuSans-32"/>
     <use x="1564.648438" xlink:href="#DejaVuSans-68"/>
     <use x="1641.650391" xlink:href="#DejaVuSans-101"/>
     <use x="1703.173828" xlink:href="#DejaVuSans-97"/>
     <use x="1764.453125" xlink:href="#DejaVuSans-116"/>
     <use x="1803.662109" xlink:href="#DejaVuSans-104"/>
     <use x="1867.041016" xlink:href="#DejaVuSans-115"/>
     <use x="1919.140625" xlink:href="#DejaVuSans-32"/>
     <use x="1950.927734" xlink:href="#DejaVuSans-71"/>
     <use x="2028.417969" xlink:href="#DejaVuSans-114"/>
     <use x="2069.53125" xlink:href="#DejaVuSans-97"/>
     <use x="2130.810547" xlink:href="#DejaVuSans-112"/>
     <use x="2194.287109" xlink:href="#DejaVuSans-104"/>
    </g>
   </g>
   <g id="legend_1">
    <g id="line2d_26">
     <path d="M 19.92 95.750094 
L 37.52 95.750094 
" style="fill:none;stroke:#ffa500;stroke-linecap:round;stroke-width:1.5;"/>
    </g>
    <g id="line2d_27">
     <g>
      <use style="fill:#ffa500;stroke:#ffffff;stroke-width:0.25;" x="28.72" xlink:href="#m50fc654269" y="95.750094"/>
     </g>
    </g>
    <g id="text_12">
     <!-- Confirmed Cases -->
     <defs>
      <path d="M 54.890625 33.015625 
L 54.890625 0 
L 45.90625 0 
L 45.90625 32.71875 
Q 45.90625 40.484375 42.875 44.328125 
Q 39.84375 48.1875 33.796875 48.1875 
Q 26.515625 48.1875 22.3125 43.546875 
Q 18.109375 38.921875 18.109375 30.90625 
L 18.109375 0 
L 9.078125 0 
L 9.078125 54.6875 
L 18.109375 54.6875 
L 18.109375 46.1875 
Q 21.34375 51.125 25.703125 53.5625 
Q 30.078125 56 35.796875 56 
Q 45.21875 56 50.046875 50.171875 
Q 54.890625 44.34375 54.890625 33.015625 
z
" id="DejaVuSans-110"/>
      <path d="M 37.109375 75.984375 
L 37.109375 68.5 
L 28.515625 68.5 
Q 23.6875 68.5 21.796875 66.546875 
Q 19.921875 64.59375 19.921875 59.515625 
L 19.921875 54.6875 
L 34.71875 54.6875 
L 34.71875 47.703125 
L 19.921875 47.703125 
L 19.921875 0 
L 10.890625 0 
L 10.890625 47.703125 
L 2.296875 47.703125 
L 2.296875 54.6875 
L 10.890625 54.6875 
L 10.890625 58.5 
Q 10.890625 67.625 15.140625 71.796875 
Q 19.390625 75.984375 28.609375 75.984375 
z
" id="DejaVuSans-102"/>
      <path d="M 52 44.1875 
Q 55.375 50.25 60.0625 53.125 
Q 64.75 56 71.09375 56 
Q 79.640625 56 84.28125 50.015625 
Q 88.921875 44.046875 88.921875 33.015625 
L 88.921875 0 
L 79.890625 0 
L 79.890625 32.71875 
Q 79.890625 40.578125 77.09375 44.375 
Q 74.3125 48.1875 68.609375 48.1875 
Q 61.625 48.1875 57.5625 43.546875 
Q 53.515625 38.921875 53.515625 30.90625 
L 53.515625 0 
L 44.484375 0 
L 44.484375 32.71875 
Q 44.484375 40.625 41.703125 44.40625 
Q 38.921875 48.1875 33.109375 48.1875 
Q 26.21875 48.1875 22.15625 43.53125 
Q 18.109375 38.875 18.109375 30.90625 
L 18.109375 0 
L 9.078125 0 
L 9.078125 54.6875 
L 18.109375 54.6875 
L 18.109375 46.1875 
Q 21.1875 51.21875 25.484375 53.609375 
Q 29.78125 56 35.6875 56 
Q 41.65625 56 45.828125 52.96875 
Q 50 49.953125 52 44.1875 
z
" id="DejaVuSans-109"/>
      <path d="M 45.40625 46.390625 
L 45.40625 75.984375 
L 54.390625 75.984375 
L 54.390625 0 
L 45.40625 0 
L 45.40625 8.203125 
Q 42.578125 3.328125 38.25 0.953125 
Q 33.9375 -1.421875 27.875 -1.421875 
Q 17.96875 -1.421875 11.734375 6.484375 
Q 5.515625 14.40625 5.515625 27.296875 
Q 5.515625 40.1875 11.734375 48.09375 
Q 17.96875 56 27.875 56 
Q 33.9375 56 38.25 53.625 
Q 42.578125 51.265625 45.40625 46.390625 
z
M 14.796875 27.296875 
Q 14.796875 17.390625 18.875 11.75 
Q 22.953125 6.109375 30.078125 6.109375 
Q 37.203125 6.109375 41.296875 11.75 
Q 45.40625 17.390625 45.40625 27.296875 
Q 45.40625 37.203125 41.296875 42.84375 
Q 37.203125 48.484375 30.078125 48.484375 
Q 22.953125 48.484375 18.875 42.84375 
Q 14.796875 37.203125 14.796875 27.296875 
z
" id="DejaVuSans-100"/>
     </defs>
     <g style="fill:#262626;" transform="translate(44.56 98.830094)scale(0.088 -0.088)">
      <use xlink:href="#DejaVuSans-67"/>
      <use x="69.824219" xlink:href="#DejaVuSans-111"/>
      <use x="131.005859" xlink:href="#DejaVuSans-110"/>
      <use x="194.384766" xlink:href="#DejaVuSans-102"/>
      <use x="229.589844" xlink:href="#DejaVuSans-105"/>
      <use x="257.373047" xlink:href="#DejaVuSans-114"/>
      <use x="296.736328" xlink:href="#DejaVuSans-109"/>
      <use x="394.148438" xlink:href="#DejaVuSans-101"/>
      <use x="455.671875" xlink:href="#DejaVuSans-100"/>
      <use x="519.148438" xlink:href="#DejaVuSans-32"/>
      <use x="550.935547" xlink:href="#DejaVuSans-67"/>
      <use x="620.759766" xlink:href="#DejaVuSans-97"/>
      <use x="682.039062" xlink:href="#DejaVuSans-115"/>
      <use x="734.138672" xlink:href="#DejaVuSans-101"/>
      <use x="795.662109" xlink:href="#DejaVuSans-115"/>
     </g>
    </g>
    <g id="line2d_28">
     <path d="M 19.92 108.666844 
L 37.52 108.666844 
" style="fill:none;stroke:#008000;stroke-linecap:round;stroke-width:1.5;"/>
    </g>
    <g id="line2d_29">
     <g>
      <use style="fill:#008000;stroke:#ffffff;stroke-linejoin:miter;stroke-width:0.25;" x="28.72" xlink:href="#mc99eac975d" y="108.666844"/>
     </g>
    </g>
    <g id="text_13">
     <!-- Recoveries -->
     <g style="fill:#262626;" transform="translate(44.56 111.746844)scale(0.088 -0.088)">
      <use xlink:href="#DejaVuSans-82"/>
      <use x="64.982422" xlink:href="#DejaVuSans-101"/>
      <use x="126.505859" xlink:href="#DejaVuSans-99"/>
      <use x="181.486328" xlink:href="#DejaVuSans-111"/>
      <use x="242.667969" xlink:href="#DejaVuSans-118"/>
      <use x="301.847656" xlink:href="#DejaVuSans-101"/>
      <use x="363.371094" xlink:href="#DejaVuSans-114"/>
      <use x="404.484375" xlink:href="#DejaVuSans-105"/>
      <use x="432.267578" xlink:href="#DejaVuSans-101"/>
      <use x="493.791016" xlink:href="#DejaVuSans-115"/>
     </g>
    </g>
    <g id="line2d_30">
     <path d="M 19.92 121.583594 
L 37.52 121.583594 
" style="fill:none;stroke:#ff0000;stroke-linecap:round;stroke-width:1.5;"/>
    </g>
    <g id="line2d_31">
     <g>
      <use style="fill:#ff0000;stroke:#ffffff;stroke-linejoin:miter;stroke-width:0.25;" x="28.72" xlink:href="#m1652d39044" y="121.583594"/>
     </g>
    </g>
    <g id="text_14">
     <!-- Deaths -->
     <g style="fill:#262626;" transform="translate(44.56 124.663594)scale(0.088 -0.088)">
      <use xlink:href="#DejaVuSans-68"/>
      <use x="77.001953" xlink:href="#DejaVuSans-101"/>
      <use x="138.525391" xlink:href="#DejaVuSans-97"/>
      <use x="199.804688" xlink:href="#DejaVuSans-116"/>
      <use x="239.013672" xlink:href="#DejaVuSans-104"/>
      <use x="302.392578" xlink:href="#DejaVuSans-115"/>
     </g>
    </g>
   </g>
  </g>
 </g>
 <defs>
  <clipPath id="p9576a7cb3c">
   <rect height="178.56" width="357.12" x="12" y="20.038594"/>
  </clipPath>
 </defs>
</svg>
