<?xml version="1.0" encoding="utf-8" standalone="no"?>
<!DOCTYPE svg PUBLIC "-//W3C//DTD SVG 1.1//EN"
  "http://www.w3.org/Graphics/SVG/1.1/DTD/svg11.dtd">
<!-- Created with matplotlib (https://matplotlib.org/) -->
<svg height="244.969593pt" version="1.1" viewBox="0 0 400.011439 244.969593" width="400.011439pt" xmlns="http://www.w3.org/2000/svg" xmlns:xlink="http://www.w3.org/1999/xlink">
 <defs>
  <style type="text/css">
*{stroke-linecap:butt;stroke-linejoin:round;}
  </style>
 </defs>
 <g id="figure_1">
  <g id="patch_1">
   <path d="M 0 244.969593 
L 400.011439 244.969593 
L 400.011439 0 
L 0 0 
z
" style="fill:#ffffff;"/>
  </g>
  <g id="axes_1">
   <g id="patch_2">
    <path d="M 30.77 198.598594 
L 387.89 198.598594 
L 387.89 20.038594 
L 30.77 20.038594 
z
" style="fill:#ffffff;"/>
   </g>
   <g id="matplotlib.axis_1">
    <g id="xtick_1">
     <g id="line2d_1">
      <path clip-path="url(#pf7dadf3aa9)" d="M 95.45863 198.598594 
L 95.45863 20.038594 
" style="fill:none;stroke:#f3f3f3;stroke-dasharray:0.5,0.825;stroke-dashoffset:0;stroke-width:0.5;"/>
     </g>
     <g id="line2d_2">
      <defs>
       <path d="M 0 0 
L 0 4.8 
" id="m6c3e99fb45" style="stroke:#262626;"/>
      </defs>
      <g>
       <use style="fill:#262626;stroke:#262626;" x="95.45863" xlink:href="#m6c3e99fb45" y="198.598594"/>
      </g>
     </g>
     <g id="text_1">
      <!-- 01 Feb 20 -->
      <defs>
       <path d="M 31.78125 66.40625 
Q 24.171875 66.40625 20.328125 58.90625 
Q 16.5 51.421875 16.5 36.375 
Q 16.5 21.390625 20.328125 13.890625 
Q 24.171875 6.390625 31.78125 6.390625 
Q 39.453125 6.390625 43.28125 13.890625 
Q 47.125 21.390625 47.125 36.375 
Q 47.125 51.421875 43.28125 58.90625 
Q 39.453125 66.40625 31.78125 66.40625 
z
M 31.78125 74.21875 
Q 44.046875 74.21875 50.515625 64.515625 
Q 56.984375 54.828125 56.984375 36.375 
Q 56.984375 17.96875 50.515625 8.265625 
Q 44.046875 -1.421875 31.78125 -1.421875 
Q 19.53125 -1.421875 13.0625 8.265625 
Q 6.59375 17.96875 6.59375 36.375 
Q 6.59375 54.828125 13.0625 64.515625 
Q 19.53125 74.21875 31.78125 74.21875 
z
" id="DejaVuSans-48"/>
       <path d="M 12.40625 8.296875 
L 28.515625 8.296875 
L 28.515625 63.921875 
L 10.984375 60.40625 
L 10.984375 69.390625 
L 28.421875 72.90625 
L 38.28125 72.90625 
L 38.28125 8.296875 
L 54.390625 8.296875 
L 54.390625 0 
L 12.40625 0 
z
" id="DejaVuSans-49"/>
       <path id="DejaVuSans-32"/>
       <path d="M 9.8125 72.90625 
L 51.703125 72.90625 
L 51.703125 64.59375 
L 19.671875 64.59375 
L 19.671875 43.109375 
L 48.578125 43.109375 
L 48.578125 34.8125 
L 19.671875 34.8125 
L 19.671875 0 
L 9.8125 0 
z
" id="DejaVuSans-70"/>
       <path d="M 56.203125 29.59375 
L 56.203125 25.203125 
L 14.890625 25.203125 
Q 15.484375 15.921875 20.484375 11.0625 
Q 25.484375 6.203125 34.421875 6.203125 
Q 39.59375 6.203125 44.453125 7.46875 
Q 49.3125 8.734375 54.109375 11.28125 
L 54.109375 2.78125 
Q 49.265625 0.734375 44.1875 -0.34375 
Q 39.109375 -1.421875 33.890625 -1.421875 
Q 20.796875 -1.421875 13.15625 6.1875 
Q 5.515625 13.8125 5.515625 26.8125 
Q 5.515625 40.234375 12.765625 48.109375 
Q 20.015625 56 32.328125 56 
Q 43.359375 56 49.78125 48.890625 
Q 56.203125 41.796875 56.203125 29.59375 
z
M 47.21875 32.234375 
Q 47.125 39.59375 43.09375 43.984375 
Q 39.0625 48.390625 32.421875 48.390625 
Q 24.90625 48.390625 20.390625 44.140625 
Q 15.875 39.890625 15.1875 32.171875 
z
" id="DejaVuSans-101"/>
       <path d="M 48.6875 27.296875 
Q 48.6875 37.203125 44.609375 42.84375 
Q 40.53125 48.484375 33.40625 48.484375 
Q 26.265625 48.484375 22.1875 42.84375 
Q 18.109375 37.203125 18.109375 27.296875 
Q 18.109375 17.390625 22.1875 11.75 
Q 26.265625 6.109375 33.40625 6.109375 
Q 40.53125 6.109375 44.609375 11.75 
Q 48.6875 17.390625 48.6875 27.296875 
z
M 18.109375 46.390625 
Q 20.953125 51.265625 25.265625 53.625 
Q 29.59375 56 35.59375 56 
Q 45.5625 56 51.78125 48.09375 
Q 58.015625 40.1875 58.015625 27.296875 
Q 58.015625 14.40625 51.78125 6.484375 
Q 45.5625 -1.421875 35.59375 -1.421875 
Q 29.59375 -1.421875 25.265625 0.953125 
Q 20.953125 3.328125 18.109375 8.203125 
L 18.109375 0 
L 9.078125 0 
L 9.078125 75.984375 
L 18.109375 75.984375 
z
" id="DejaVuSans-98"/>
       <path d="M 19.1875 8.296875 
L 53.609375 8.296875 
L 53.609375 0 
L 7.328125 0 
L 7.328125 8.296875 
Q 12.9375 14.109375 22.625 23.890625 
Q 32.328125 33.6875 34.8125 36.53125 
Q 39.546875 41.84375 41.421875 45.53125 
Q 43.3125 49.21875 43.3125 52.78125 
Q 43.3125 58.59375 39.234375 62.25 
Q 35.15625 65.921875 28.609375 65.921875 
Q 23.96875 65.921875 18.8125 64.3125 
Q 13.671875 62.703125 7.8125 59.421875 
L 7.8125 69.390625 
Q 13.765625 71.78125 18.9375 73 
Q 24.125 74.21875 28.421875 74.21875 
Q 39.75 74.21875 46.484375 68.546875 
Q 53.21875 62.890625 53.21875 53.421875 
Q 53.21875 48.921875 51.53125 44.890625 
Q 49.859375 40.875 45.40625 35.40625 
Q 44.1875 33.984375 37.640625 27.21875 
Q 31.109375 20.453125 19.1875 8.296875 
z
" id="DejaVuSans-50"/>
      </defs>
      <g style="fill:#262626;" transform="translate(93.21365 236.771996)rotate(-75)scale(0.06 -0.06)">
       <use xlink:href="#DejaVuSans-48"/>
       <use x="63.623047" xlink:href="#DejaVuSans-49"/>
       <use x="127.246094" xlink:href="#DejaVuSans-32"/>
       <use x="159.033203" xlink:href="#DejaVuSans-70"/>
       <use x="211.052734" xlink:href="#DejaVuSans-101"/>
       <use x="272.576172" xlink:href="#DejaVuSans-98"/>
       <use x="336.052734" xlink:href="#DejaVuSans-32"/>
       <use x="367.839844" xlink:href="#DejaVuSans-50"/>
       <use x="431.462891" xlink:href="#DejaVuSans-48"/>
      </g>
     </g>
    </g>
    <g id="xtick_2">
     <g id="line2d_3">
      <path clip-path="url(#pf7dadf3aa9)" d="M 163.296893 198.598594 
L 163.296893 20.038594 
" style="fill:none;stroke:#f3f3f3;stroke-dasharray:0.5,0.825;stroke-dashoffset:0;stroke-width:0.5;"/>
     </g>
     <g id="line2d_4">
      <g>
       <use style="fill:#262626;stroke:#262626;" x="163.296893" xlink:href="#m6c3e99fb45" y="198.598594"/>
      </g>
     </g>
     <g id="text_2">
      <!-- 15 Feb 20 -->
      <defs>
       <path d="M 10.796875 72.90625 
L 49.515625 72.90625 
L 49.515625 64.59375 
L 19.828125 64.59375 
L 19.828125 46.734375 
Q 21.96875 47.46875 24.109375 47.828125 
Q 26.265625 48.1875 28.421875 48.1875 
Q 40.625 48.1875 47.75 41.5 
Q 54.890625 34.8125 54.890625 23.390625 
Q 54.890625 11.625 47.5625 5.09375 
Q 40.234375 -1.421875 26.90625 -1.421875 
Q 22.3125 -1.421875 17.546875 -0.640625 
Q 12.796875 0.140625 7.71875 1.703125 
L 7.71875 11.625 
Q 12.109375 9.234375 16.796875 8.0625 
Q 21.484375 6.890625 26.703125 6.890625 
Q 35.15625 6.890625 40.078125 11.328125 
Q 45.015625 15.765625 45.015625 23.390625 
Q 45.015625 31 40.078125 35.4375 
Q 35.15625 39.890625 26.703125 39.890625 
Q 22.75 39.890625 18.8125 39.015625 
Q 14.890625 38.140625 10.796875 36.28125 
z
" id="DejaVuSans-53"/>
      </defs>
      <g style="fill:#262626;" transform="translate(161.051913 236.771996)rotate(-75)scale(0.06 -0.06)">
       <use xlink:href="#DejaVuSans-49"/>
       <use x="63.623047" xlink:href="#DejaVuSans-53"/>
       <use x="127.246094" xlink:href="#DejaVuSans-32"/>
       <use x="159.033203" xlink:href="#DejaVuSans-70"/>
       <use x="211.052734" xlink:href="#DejaVuSans-101"/>
       <use x="272.576172" xlink:href="#DejaVuSans-98"/>
       <use x="336.052734" xlink:href="#DejaVuSans-32"/>
       <use x="367.839844" xlink:href="#DejaVuSans-50"/>
       <use x="431.462891" xlink:href="#DejaVuSans-48"/>
      </g>
     </g>
    </g>
    <g id="xtick_3">
     <g id="line2d_5">
      <path clip-path="url(#pf7dadf3aa9)" d="M 235.980746 198.598594 
L 235.980746 20.038594 
" style="fill:none;stroke:#f3f3f3;stroke-dasharray:0.5,0.825;stroke-dashoffset:0;stroke-width:0.5;"/>
     </g>
     <g id="line2d_6">
      <g>
       <use style="fill:#262626;stroke:#262626;" x="235.980746" xlink:href="#m6c3e99fb45" y="198.598594"/>
      </g>
     </g>
     <g id="text_3">
      <!-- 01 Mar 20 -->
      <defs>
       <path d="M 9.8125 72.90625 
L 24.515625 72.90625 
L 43.109375 23.296875 
L 61.8125 72.90625 
L 76.515625 72.90625 
L 76.515625 0 
L 66.890625 0 
L 66.890625 64.015625 
L 48.09375 14.015625 
L 38.1875 14.015625 
L 19.390625 64.015625 
L 19.390625 0 
L 9.8125 0 
z
" id="DejaVuSans-77"/>
       <path d="M 34.28125 27.484375 
Q 23.390625 27.484375 19.1875 25 
Q 14.984375 22.515625 14.984375 16.5 
Q 14.984375 11.71875 18.140625 8.90625 
Q 21.296875 6.109375 26.703125 6.109375 
Q 34.1875 6.109375 38.703125 11.40625 
Q 43.21875 16.703125 43.21875 25.484375 
L 43.21875 27.484375 
z
M 52.203125 31.203125 
L 52.203125 0 
L 43.21875 0 
L 43.21875 8.296875 
Q 40.140625 3.328125 35.546875 0.953125 
Q 30.953125 -1.421875 24.3125 -1.421875 
Q 15.921875 -1.421875 10.953125 3.296875 
Q 6 8.015625 6 15.921875 
Q 6 25.140625 12.171875 29.828125 
Q 18.359375 34.515625 30.609375 34.515625 
L 43.21875 34.515625 
L 43.21875 35.40625 
Q 43.21875 41.609375 39.140625 45 
Q 35.0625 48.390625 27.6875 48.390625 
Q 23 48.390625 18.546875 47.265625 
Q 14.109375 46.140625 10.015625 43.890625 
L 10.015625 52.203125 
Q 14.9375 54.109375 19.578125 55.046875 
Q 24.21875 56 28.609375 56 
Q 40.484375 56 46.34375 49.84375 
Q 52.203125 43.703125 52.203125 31.203125 
z
" id="DejaVuSans-97"/>
       <path d="M 41.109375 46.296875 
Q 39.59375 47.171875 37.8125 47.578125 
Q 36.03125 48 33.890625 48 
Q 26.265625 48 22.1875 43.046875 
Q 18.109375 38.09375 18.109375 28.8125 
L 18.109375 0 
L 9.078125 0 
L 9.078125 54.6875 
L 18.109375 54.6875 
L 18.109375 46.1875 
Q 20.953125 51.171875 25.484375 53.578125 
Q 30.03125 56 36.53125 56 
Q 37.453125 56 38.578125 55.875 
Q 39.703125 55.765625 41.0625 55.515625 
z
" id="DejaVuSans-114"/>
      </defs>
      <g style="fill:#262626;" transform="translate(233.645382 237.446635)rotate(-75)scale(0.06 -0.06)">
       <use xlink:href="#DejaVuSans-48"/>
       <use x="63.623047" xlink:href="#DejaVuSans-49"/>
       <use x="127.246094" xlink:href="#DejaVuSans-32"/>
       <use x="159.033203" xlink:href="#DejaVuSans-77"/>
       <use x="245.3125" xlink:href="#DejaVuSans-97"/>
       <use x="306.591797" xlink:href="#DejaVuSans-114"/>
       <use x="347.705078" xlink:href="#DejaVuSans-32"/>
       <use x="379.492188" xlink:href="#DejaVuSans-50"/>
       <use x="443.115234" xlink:href="#DejaVuSans-48"/>
      </g>
     </g>
    </g>
    <g id="xtick_4">
     <g id="line2d_7">
      <path clip-path="url(#pf7dadf3aa9)" d="M 303.819009 198.598594 
L 303.819009 20.038594 
" style="fill:none;stroke:#f3f3f3;stroke-dasharray:0.5,0.825;stroke-dashoffset:0;stroke-width:0.5;"/>
     </g>
     <g id="line2d_8">
      <g>
       <use style="fill:#262626;stroke:#262626;" x="303.819009" xlink:href="#m6c3e99fb45" y="198.598594"/>
      </g>
     </g>
     <g id="text_4">
      <!-- 15 Mar 20 -->
      <g style="fill:#262626;" transform="translate(301.483645 237.446635)rotate(-75)scale(0.06 -0.06)">
       <use xlink:href="#DejaVuSans-49"/>
       <use x="63.623047" xlink:href="#DejaVuSans-53"/>
       <use x="127.246094" xlink:href="#DejaVuSans-32"/>
       <use x="159.033203" xlink:href="#DejaVuSans-77"/>
       <use x="245.3125" xlink:href="#DejaVuSans-97"/>
       <use x="306.591797" xlink:href="#DejaVuSans-114"/>
       <use x="347.705078" xlink:href="#DejaVuSans-32"/>
       <use x="379.492188" xlink:href="#DejaVuSans-50"/>
       <use x="443.115234" xlink:href="#DejaVuSans-48"/>
      </g>
     </g>
    </g>
    <g id="xtick_5">
     <g id="line2d_9">
      <path clip-path="url(#pf7dadf3aa9)" d="M 386.194043 198.598594 
L 386.194043 20.038594 
" style="fill:none;stroke:#f3f3f3;stroke-dasharray:0.5,0.825;stroke-dashoffset:0;stroke-width:0.5;"/>
     </g>
     <g id="line2d_10">
      <g>
       <use style="fill:#262626;stroke:#262626;" x="386.194043" xlink:href="#m6c3e99fb45" y="198.598594"/>
      </g>
     </g>
     <g id="text_5">
      <!-- 01 Apr 20 -->
      <defs>
       <path d="M 34.1875 63.1875 
L 20.796875 26.90625 
L 47.609375 26.90625 
z
M 28.609375 72.90625 
L 39.796875 72.90625 
L 67.578125 0 
L 57.328125 0 
L 50.6875 18.703125 
L 17.828125 18.703125 
L 11.1875 0 
L 0.78125 0 
z
" id="DejaVuSans-65"/>
       <path d="M 18.109375 8.203125 
L 18.109375 -20.796875 
L 9.078125 -20.796875 
L 9.078125 54.6875 
L 18.109375 54.6875 
L 18.109375 46.390625 
Q 20.953125 51.265625 25.265625 53.625 
Q 29.59375 56 35.59375 56 
Q 45.5625 56 51.78125 48.09375 
Q 58.015625 40.1875 58.015625 27.296875 
Q 58.015625 14.40625 51.78125 6.484375 
Q 45.5625 -1.421875 35.59375 -1.421875 
Q 29.59375 -1.421875 25.265625 0.953125 
Q 20.953125 3.328125 18.109375 8.203125 
z
M 48.6875 27.296875 
Q 48.6875 37.203125 44.609375 42.84375 
Q 40.53125 48.484375 33.40625 48.484375 
Q 26.265625 48.484375 22.1875 42.84375 
Q 18.109375 37.203125 18.109375 27.296875 
Q 18.109375 17.390625 22.1875 11.75 
Q 26.265625 6.109375 33.40625 6.109375 
Q 40.53125 6.109375 44.609375 11.75 
Q 48.6875 17.390625 48.6875 27.296875 
z
" id="DejaVuSans-112"/>
      </defs>
      <g style="fill:#262626;" transform="translate(383.980365 236.538363)rotate(-75)scale(0.06 -0.06)">
       <use xlink:href="#DejaVuSans-48"/>
       <use x="63.623047" xlink:href="#DejaVuSans-49"/>
       <use x="127.246094" xlink:href="#DejaVuSans-32"/>
       <use x="159.033203" xlink:href="#DejaVuSans-65"/>
       <use x="227.441406" xlink:href="#DejaVuSans-112"/>
       <use x="290.917969" xlink:href="#DejaVuSans-114"/>
       <use x="332.03125" xlink:href="#DejaVuSans-32"/>
       <use x="363.818359" xlink:href="#DejaVuSans-50"/>
       <use x="427.441406" xlink:href="#DejaVuSans-48"/>
      </g>
     </g>
    </g>
    <g id="xtick_6">
     <g id="line2d_11">
      <path clip-path="url(#pf7dadf3aa9)" d="M 371.657273 198.598594 
L 371.657273 20.038594 
" style="fill:none;stroke:#f3f3f3;stroke-dasharray:0.5,0.825;stroke-dashoffset:0;stroke-width:0.5;"/>
     </g>
     <g id="line2d_12">
      <g>
       <use style="fill:#262626;stroke:#262626;" x="371.657273" xlink:href="#m6c3e99fb45" y="198.598594"/>
      </g>
     </g>
     <g id="text_6">
      <!-- 29 Mar 20 -->
      <defs>
       <path d="M 10.984375 1.515625 
L 10.984375 10.5 
Q 14.703125 8.734375 18.5 7.8125 
Q 22.3125 6.890625 25.984375 6.890625 
Q 35.75 6.890625 40.890625 13.453125 
Q 46.046875 20.015625 46.78125 33.40625 
Q 43.953125 29.203125 39.59375 26.953125 
Q 35.25 24.703125 29.984375 24.703125 
Q 19.046875 24.703125 12.671875 31.3125 
Q 6.296875 37.9375 6.296875 49.421875 
Q 6.296875 60.640625 12.9375 67.421875 
Q 19.578125 74.21875 30.609375 74.21875 
Q 43.265625 74.21875 49.921875 64.515625 
Q 56.59375 54.828125 56.59375 36.375 
Q 56.59375 19.140625 48.40625 8.859375 
Q 40.234375 -1.421875 26.421875 -1.421875 
Q 22.703125 -1.421875 18.890625 -0.6875 
Q 15.09375 0.046875 10.984375 1.515625 
z
M 30.609375 32.421875 
Q 37.25 32.421875 41.125 36.953125 
Q 45.015625 41.5 45.015625 49.421875 
Q 45.015625 57.28125 41.125 61.84375 
Q 37.25 66.40625 30.609375 66.40625 
Q 23.96875 66.40625 20.09375 61.84375 
Q 16.21875 57.28125 16.21875 49.421875 
Q 16.21875 41.5 20.09375 36.953125 
Q 23.96875 32.421875 30.609375 32.421875 
z
" id="DejaVuSans-57"/>
      </defs>
      <g style="fill:#262626;" transform="translate(369.321908 237.446635)rotate(-75)scale(0.06 -0.06)">
       <use xlink:href="#DejaVuSans-50"/>
       <use x="63.623047" xlink:href="#DejaVuSans-57"/>
       <use x="127.246094" xlink:href="#DejaVuSans-32"/>
       <use x="159.033203" xlink:href="#DejaVuSans-77"/>
       <use x="245.3125" xlink:href="#DejaVuSans-97"/>
       <use x="306.591797" xlink:href="#DejaVuSans-114"/>
       <use x="347.705078" xlink:href="#DejaVuSans-32"/>
       <use x="379.492188" xlink:href="#DejaVuSans-50"/>
       <use x="443.115234" xlink:href="#DejaVuSans-48"/>
      </g>
     </g>
    </g>
   </g>
   <g id="matplotlib.axis_2">
    <g id="ytick_1">
     <g id="line2d_13">
      <path clip-path="url(#pf7dadf3aa9)" d="M 30.77 190.48223 
L 387.89 190.48223 
" style="fill:none;stroke:#f3f3f3;stroke-dasharray:0.5,0.825;stroke-dashoffset:0;stroke-width:0.5;"/>
     </g>
     <g id="line2d_14">
      <defs>
       <path d="M 0 0 
L -4.8 0 
" id="m8d51295453" style="stroke:#262626;"/>
      </defs>
      <g>
       <use style="fill:#262626;stroke:#262626;" x="30.77" xlink:href="#m8d51295453" y="190.48223"/>
      </g>
     </g>
     <g id="text_7">
      <!-- 0 -->
      <g style="fill:#262626;" transform="translate(18.6525 192.761761)scale(0.06 -0.06)">
       <use xlink:href="#DejaVuSans-48"/>
      </g>
     </g>
    </g>
    <g id="ytick_2">
     <g id="line2d_15">
      <path clip-path="url(#pf7dadf3aa9)" d="M 30.77 158.777685 
L 387.89 158.777685 
" style="fill:none;stroke:#f3f3f3;stroke-dasharray:0.5,0.825;stroke-dashoffset:0;stroke-width:0.5;"/>
     </g>
     <g id="line2d_16">
      <g>
       <use style="fill:#262626;stroke:#262626;" x="30.77" xlink:href="#m8d51295453" y="158.777685"/>
      </g>
     </g>
     <g id="text_8">
      <!-- 200 -->
      <g style="fill:#262626;" transform="translate(11.0175 161.057216)scale(0.06 -0.06)">
       <use xlink:href="#DejaVuSans-50"/>
       <use x="63.623047" xlink:href="#DejaVuSans-48"/>
       <use x="127.246094" xlink:href="#DejaVuSans-48"/>
      </g>
     </g>
    </g>
    <g id="ytick_3">
     <g id="line2d_17">
      <path clip-path="url(#pf7dadf3aa9)" d="M 30.77 127.073139 
L 387.89 127.073139 
" style="fill:none;stroke:#f3f3f3;stroke-dasharray:0.5,0.825;stroke-dashoffset:0;stroke-width:0.5;"/>
     </g>
     <g id="line2d_18">
      <g>
       <use style="fill:#262626;stroke:#262626;" x="30.77" xlink:href="#m8d51295453" y="127.073139"/>
      </g>
     </g>
     <g id="text_9">
      <!-- 400 -->
      <defs>
       <path d="M 37.796875 64.3125 
L 12.890625 25.390625 
L 37.796875 25.390625 
z
M 35.203125 72.90625 
L 47.609375 72.90625 
L 47.609375 25.390625 
L 58.015625 25.390625 
L 58.015625 17.1875 
L 47.609375 17.1875 
L 47.609375 0 
L 37.796875 0 
L 37.796875 17.1875 
L 4.890625 17.1875 
L 4.890625 26.703125 
z
" id="DejaVuSans-52"/>
      </defs>
      <g style="fill:#262626;" transform="translate(11.0175 129.35267)scale(0.06 -0.06)">
       <use xlink:href="#DejaVuSans-52"/>
       <use x="63.623047" xlink:href="#DejaVuSans-48"/>
       <use x="127.246094" xlink:href="#DejaVuSans-48"/>
      </g>
     </g>
    </g>
    <g id="ytick_4">
     <g id="line2d_19">
      <path clip-path="url(#pf7dadf3aa9)" d="M 30.77 95.368594 
L 387.89 95.368594 
" style="fill:none;stroke:#f3f3f3;stroke-dasharray:0.5,0.825;stroke-dashoffset:0;stroke-width:0.5;"/>
     </g>
     <g id="line2d_20">
      <g>
       <use style="fill:#262626;stroke:#262626;" x="30.77" xlink:href="#m8d51295453" y="95.368594"/>
      </g>
     </g>
     <g id="text_10">
      <!-- 600 -->
      <defs>
       <path d="M 33.015625 40.375 
Q 26.375 40.375 22.484375 35.828125 
Q 18.609375 31.296875 18.609375 23.390625 
Q 18.609375 15.53125 22.484375 10.953125 
Q 26.375 6.390625 33.015625 6.390625 
Q 39.65625 6.390625 43.53125 10.953125 
Q 47.40625 15.53125 47.40625 23.390625 
Q 47.40625 31.296875 43.53125 35.828125 
Q 39.65625 40.375 33.015625 40.375 
z
M 52.59375 71.296875 
L 52.59375 62.3125 
Q 48.875 64.0625 45.09375 64.984375 
Q 41.3125 65.921875 37.59375 65.921875 
Q 27.828125 65.921875 22.671875 59.328125 
Q 17.53125 52.734375 16.796875 39.40625 
Q 19.671875 43.65625 24.015625 45.921875 
Q 28.375 48.1875 33.59375 48.1875 
Q 44.578125 48.1875 50.953125 41.515625 
Q 57.328125 34.859375 57.328125 23.390625 
Q 57.328125 12.15625 50.6875 5.359375 
Q 44.046875 -1.421875 33.015625 -1.421875 
Q 20.359375 -1.421875 13.671875 8.265625 
Q 6.984375 17.96875 6.984375 36.375 
Q 6.984375 53.65625 15.1875 63.9375 
Q 23.390625 74.21875 37.203125 74.21875 
Q 40.921875 74.21875 44.703125 73.484375 
Q 48.484375 72.75 52.59375 71.296875 
z
" id="DejaVuSans-54"/>
      </defs>
      <g style="fill:#262626;" transform="translate(11.0175 97.648125)scale(0.06 -0.06)">
       <use xlink:href="#DejaVuSans-54"/>
       <use x="63.623047" xlink:href="#DejaVuSans-48"/>
       <use x="127.246094" xlink:href="#DejaVuSans-48"/>
      </g>
     </g>
    </g>
    <g id="ytick_5">
     <g id="line2d_21">
      <path clip-path="url(#pf7dadf3aa9)" d="M 30.77 63.664048 
L 387.89 63.664048 
" style="fill:none;stroke:#f3f3f3;stroke-dasharray:0.5,0.825;stroke-dashoffset:0;stroke-width:0.5;"/>
     </g>
     <g id="line2d_22">
      <g>
       <use style="fill:#262626;stroke:#262626;" x="30.77" xlink:href="#m8d51295453" y="63.664048"/>
      </g>
     </g>
     <g id="text_11">
      <!-- 800 -->
      <defs>
       <path d="M 31.78125 34.625 
Q 24.75 34.625 20.71875 30.859375 
Q 16.703125 27.09375 16.703125 20.515625 
Q 16.703125 13.921875 20.71875 10.15625 
Q 24.75 6.390625 31.78125 6.390625 
Q 38.8125 6.390625 42.859375 10.171875 
Q 46.921875 13.96875 46.921875 20.515625 
Q 46.921875 27.09375 42.890625 30.859375 
Q 38.875 34.625 31.78125 34.625 
z
M 21.921875 38.8125 
Q 15.578125 40.375 12.03125 44.71875 
Q 8.5 49.078125 8.5 55.328125 
Q 8.5 64.0625 14.71875 69.140625 
Q 20.953125 74.21875 31.78125 74.21875 
Q 42.671875 74.21875 48.875 69.140625 
Q 55.078125 64.0625 55.078125 55.328125 
Q 55.078125 49.078125 51.53125 44.71875 
Q 48 40.375 41.703125 38.8125 
Q 48.828125 37.15625 52.796875 32.3125 
Q 56.78125 27.484375 56.78125 20.515625 
Q 56.78125 9.90625 50.3125 4.234375 
Q 43.84375 -1.421875 31.78125 -1.421875 
Q 19.734375 -1.421875 13.25 4.234375 
Q 6.78125 9.90625 6.78125 20.515625 
Q 6.78125 27.484375 10.78125 32.3125 
Q 14.796875 37.15625 21.921875 38.8125 
z
M 18.3125 54.390625 
Q 18.3125 48.734375 21.84375 45.5625 
Q 25.390625 42.390625 31.78125 42.390625 
Q 38.140625 42.390625 41.71875 45.5625 
Q 45.3125 48.734375 45.3125 54.390625 
Q 45.3125 60.0625 41.71875 63.234375 
Q 38.140625 66.40625 31.78125 66.40625 
Q 25.390625 66.40625 21.84375 63.234375 
Q 18.3125 60.0625 18.3125 54.390625 
z
" id="DejaVuSans-56"/>
      </defs>
      <g style="fill:#262626;" transform="translate(11.0175 65.94358)scale(0.06 -0.06)">
       <use xlink:href="#DejaVuSans-56"/>
       <use x="63.623047" xlink:href="#DejaVuSans-48"/>
       <use x="127.246094" xlink:href="#DejaVuSans-48"/>
      </g>
     </g>
    </g>
    <g id="ytick_6">
     <g id="line2d_23">
      <path clip-path="url(#pf7dadf3aa9)" d="M 30.77 31.959503 
L 387.89 31.959503 
" style="fill:none;stroke:#f3f3f3;stroke-dasharray:0.5,0.825;stroke-dashoffset:0;stroke-width:0.5;"/>
     </g>
     <g id="line2d_24">
      <g>
       <use style="fill:#262626;stroke:#262626;" x="30.77" xlink:href="#m8d51295453" y="31.959503"/>
      </g>
     </g>
     <g id="text_12">
      <!-- 1000 -->
      <g style="fill:#262626;" transform="translate(7.2 34.239034)scale(0.06 -0.06)">
       <use xlink:href="#DejaVuSans-49"/>
       <use x="63.623047" xlink:href="#DejaVuSans-48"/>
       <use x="127.246094" xlink:href="#DejaVuSans-48"/>
       <use x="190.869141" xlink:href="#DejaVuSans-48"/>
      </g>
     </g>
    </g>
   </g>
   <g id="line2d_25">
    <path clip-path="url(#pf7dadf3aa9)" d="M 47.002727 190.48223 
L 51.848318 190.48223 
L 56.693908 190.48223 
L 61.539498 190.48223 
L 66.385088 190.48223 
L 71.230678 190.48223 
L 76.076269 190.48223 
L 80.921859 190.48223 
L 85.767449 190.323707 
L 90.613039 190.323707 
L 95.45863 190.323707 
L 100.30422 190.165185 
L 105.14981 190.006662 
L 109.9954 190.006662 
L 114.840991 190.006662 
L 119.686581 190.006662 
L 124.532171 190.006662 
L 129.377761 190.006662 
L 134.223351 190.006662 
L 139.068942 190.006662 
L 143.914532 190.006662 
L 148.760122 190.006662 
L 153.605712 190.006662 
L 158.451303 190.006662 
L 163.296893 190.006662 
L 168.142483 190.006662 
L 172.988073 190.006662 
L 177.833664 190.006662 
L 182.679254 190.006662 
L 187.524844 190.006662 
L 192.370434 190.006662 
L 197.216024 190.006662 
L 202.061615 190.006662 
L 206.907205 190.006662 
L 211.752795 190.006662 
L 216.598385 190.006662 
L 221.443976 190.006662 
L 226.289566 190.006662 
L 231.135156 190.006662 
L 235.980746 190.006662 
L 240.826336 189.689616 
L 245.671927 189.689616 
L 250.517517 186.043594 
L 255.363107 185.726548 
L 260.208697 185.568026 
L 265.054288 185.092457 
L 269.899878 184.299844 
L 274.745468 183.665753 
L 279.591058 181.604957 
L 284.436649 180.653821 
L 289.282239 178.910071 
L 294.127829 177.483366 
L 298.973419 174.312912 
L 303.819009 172.569162 
L 308.6646 171.618026 
L 313.51019 167.972003 
L 318.35578 165.752685 
L 323.20137 159.728821 
L 328.046961 151.802685 
L 332.892551 138.16973 
L 337.738141 127.70723 
L 342.583731 111.379389 
L 347.429322 105.514048 
L 352.274912 86.332798 
L 357.120502 75.236207 
L 361.966092 49.872571 
L 366.811682 34.020298 
L 371.657273 28.154957 
" style="fill:none;stroke:#ffa500;stroke-linecap:round;stroke-width:2;"/>
    <defs>
     <path d="M 0 2 
C 0.530406 2 1.03916 1.789267 1.414214 1.414214 
C 1.789267 1.03916 2 0.530406 2 0 
C 2 -0.530406 1.789267 -1.03916 1.414214 -1.414214 
C 1.03916 -1.789267 0.530406 -2 0 -2 
C -0.530406 -2 -1.03916 -1.789267 -1.414214 -1.414214 
C -1.789267 -1.03916 -2 -0.530406 -2 0 
C -2 0.530406 -1.789267 1.03916 -1.414214 1.414214 
C -1.03916 1.789267 -0.530406 2 0 2 
z
" id="m615360b04f" style="stroke:#ffffff;stroke-width:0.25;"/>
    </defs>
    <g clip-path="url(#pf7dadf3aa9)">
     <use style="fill:#ffa500;stroke:#ffffff;stroke-width:0.25;" x="47.002727" xlink:href="#m615360b04f" y="190.48223"/>
     <use style="fill:#ffa500;stroke:#ffffff;stroke-width:0.25;" x="51.848318" xlink:href="#m615360b04f" y="190.48223"/>
     <use style="fill:#ffa500;stroke:#ffffff;stroke-width:0.25;" x="56.693908" xlink:href="#m615360b04f" y="190.48223"/>
     <use style="fill:#ffa500;stroke:#ffffff;stroke-width:0.25;" x="61.539498" xlink:href="#m615360b04f" y="190.48223"/>
     <use style="fill:#ffa500;stroke:#ffffff;stroke-width:0.25;" x="66.385088" xlink:href="#m615360b04f" y="190.48223"/>
     <use style="fill:#ffa500;stroke:#ffffff;stroke-width:0.25;" x="71.230678" xlink:href="#m615360b04f" y="190.48223"/>
     <use style="fill:#ffa500;stroke:#ffffff;stroke-width:0.25;" x="76.076269" xlink:href="#m615360b04f" y="190.48223"/>
     <use style="fill:#ffa500;stroke:#ffffff;stroke-width:0.25;" x="80.921859" xlink:href="#m615360b04f" y="190.48223"/>
     <use style="fill:#ffa500;stroke:#ffffff;stroke-width:0.25;" x="85.767449" xlink:href="#m615360b04f" y="190.323707"/>
     <use style="fill:#ffa500;stroke:#ffffff;stroke-width:0.25;" x="90.613039" xlink:href="#m615360b04f" y="190.323707"/>
     <use style="fill:#ffa500;stroke:#ffffff;stroke-width:0.25;" x="95.45863" xlink:href="#m615360b04f" y="190.323707"/>
     <use style="fill:#ffa500;stroke:#ffffff;stroke-width:0.25;" x="100.30422" xlink:href="#m615360b04f" y="190.165185"/>
     <use style="fill:#ffa500;stroke:#ffffff;stroke-width:0.25;" x="105.14981" xlink:href="#m615360b04f" y="190.006662"/>
     <use style="fill:#ffa500;stroke:#ffffff;stroke-width:0.25;" x="109.9954" xlink:href="#m615360b04f" y="190.006662"/>
     <use style="fill:#ffa500;stroke:#ffffff;stroke-width:0.25;" x="114.840991" xlink:href="#m615360b04f" y="190.006662"/>
     <use style="fill:#ffa500;stroke:#ffffff;stroke-width:0.25;" x="119.686581" xlink:href="#m615360b04f" y="190.006662"/>
     <use style="fill:#ffa500;stroke:#ffffff;stroke-width:0.25;" x="124.532171" xlink:href="#m615360b04f" y="190.006662"/>
     <use style="fill:#ffa500;stroke:#ffffff;stroke-width:0.25;" x="129.377761" xlink:href="#m615360b04f" y="190.006662"/>
     <use style="fill:#ffa500;stroke:#ffffff;stroke-width:0.25;" x="134.223351" xlink:href="#m615360b04f" y="190.006662"/>
     <use style="fill:#ffa500;stroke:#ffffff;stroke-width:0.25;" x="139.068942" xlink:href="#m615360b04f" y="190.006662"/>
     <use style="fill:#ffa500;stroke:#ffffff;stroke-width:0.25;" x="143.914532" xlink:href="#m615360b04f" y="190.006662"/>
     <use style="fill:#ffa500;stroke:#ffffff;stroke-width:0.25;" x="148.760122" xlink:href="#m615360b04f" y="190.006662"/>
     <use style="fill:#ffa500;stroke:#ffffff;stroke-width:0.25;" x="153.605712" xlink:href="#m615360b04f" y="190.006662"/>
     <use style="fill:#ffa500;stroke:#ffffff;stroke-width:0.25;" x="158.451303" xlink:href="#m615360b04f" y="190.006662"/>
     <use style="fill:#ffa500;stroke:#ffffff;stroke-width:0.25;" x="163.296893" xlink:href="#m615360b04f" y="190.006662"/>
     <use style="fill:#ffa500;stroke:#ffffff;stroke-width:0.25;" x="168.142483" xlink:href="#m615360b04f" y="190.006662"/>
     <use style="fill:#ffa500;stroke:#ffffff;stroke-width:0.25;" x="172.988073" xlink:href="#m615360b04f" y="190.006662"/>
     <use style="fill:#ffa500;stroke:#ffffff;stroke-width:0.25;" x="177.833664" xlink:href="#m615360b04f" y="190.006662"/>
     <use style="fill:#ffa500;stroke:#ffffff;stroke-width:0.25;" x="182.679254" xlink:href="#m615360b04f" y="190.006662"/>
     <use style="fill:#ffa500;stroke:#ffffff;stroke-width:0.25;" x="187.524844" xlink:href="#m615360b04f" y="190.006662"/>
     <use style="fill:#ffa500;stroke:#ffffff;stroke-width:0.25;" x="192.370434" xlink:href="#m615360b04f" y="190.006662"/>
     <use style="fill:#ffa500;stroke:#ffffff;stroke-width:0.25;" x="197.216024" xlink:href="#m615360b04f" y="190.006662"/>
     <use style="fill:#ffa500;stroke:#ffffff;stroke-width:0.25;" x="202.061615" xlink:href="#m615360b04f" y="190.006662"/>
     <use style="fill:#ffa500;stroke:#ffffff;stroke-width:0.25;" x="206.907205" xlink:href="#m615360b04f" y="190.006662"/>
     <use style="fill:#ffa500;stroke:#ffffff;stroke-width:0.25;" x="211.752795" xlink:href="#m615360b04f" y="190.006662"/>
     <use style="fill:#ffa500;stroke:#ffffff;stroke-width:0.25;" x="216.598385" xlink:href="#m615360b04f" y="190.006662"/>
     <use style="fill:#ffa500;stroke:#ffffff;stroke-width:0.25;" x="221.443976" xlink:href="#m615360b04f" y="190.006662"/>
     <use style="fill:#ffa500;stroke:#ffffff;stroke-width:0.25;" x="226.289566" xlink:href="#m615360b04f" y="190.006662"/>
     <use style="fill:#ffa500;stroke:#ffffff;stroke-width:0.25;" x="231.135156" xlink:href="#m615360b04f" y="190.006662"/>
     <use style="fill:#ffa500;stroke:#ffffff;stroke-width:0.25;" x="235.980746" xlink:href="#m615360b04f" y="190.006662"/>
     <use style="fill:#ffa500;stroke:#ffffff;stroke-width:0.25;" x="240.826336" xlink:href="#m615360b04f" y="189.689616"/>
     <use style="fill:#ffa500;stroke:#ffffff;stroke-width:0.25;" x="245.671927" xlink:href="#m615360b04f" y="189.689616"/>
     <use style="fill:#ffa500;stroke:#ffffff;stroke-width:0.25;" x="250.517517" xlink:href="#m615360b04f" y="186.043594"/>
     <use style="fill:#ffa500;stroke:#ffffff;stroke-width:0.25;" x="255.363107" xlink:href="#m615360b04f" y="185.726548"/>
     <use style="fill:#ffa500;stroke:#ffffff;stroke-width:0.25;" x="260.208697" xlink:href="#m615360b04f" y="185.568026"/>
     <use style="fill:#ffa500;stroke:#ffffff;stroke-width:0.25;" x="265.054288" xlink:href="#m615360b04f" y="185.092457"/>
     <use style="fill:#ffa500;stroke:#ffffff;stroke-width:0.25;" x="269.899878" xlink:href="#m615360b04f" y="184.299844"/>
     <use style="fill:#ffa500;stroke:#ffffff;stroke-width:0.25;" x="274.745468" xlink:href="#m615360b04f" y="183.665753"/>
     <use style="fill:#ffa500;stroke:#ffffff;stroke-width:0.25;" x="279.591058" xlink:href="#m615360b04f" y="181.604957"/>
     <use style="fill:#ffa500;stroke:#ffffff;stroke-width:0.25;" x="284.436649" xlink:href="#m615360b04f" y="180.653821"/>
     <use style="fill:#ffa500;stroke:#ffffff;stroke-width:0.25;" x="289.282239" xlink:href="#m615360b04f" y="178.910071"/>
     <use style="fill:#ffa500;stroke:#ffffff;stroke-width:0.25;" x="294.127829" xlink:href="#m615360b04f" y="177.483366"/>
     <use style="fill:#ffa500;stroke:#ffffff;stroke-width:0.25;" x="298.973419" xlink:href="#m615360b04f" y="174.312912"/>
     <use style="fill:#ffa500;stroke:#ffffff;stroke-width:0.25;" x="303.819009" xlink:href="#m615360b04f" y="172.569162"/>
     <use style="fill:#ffa500;stroke:#ffffff;stroke-width:0.25;" x="308.6646" xlink:href="#m615360b04f" y="171.618026"/>
     <use style="fill:#ffa500;stroke:#ffffff;stroke-width:0.25;" x="313.51019" xlink:href="#m615360b04f" y="167.972003"/>
     <use style="fill:#ffa500;stroke:#ffffff;stroke-width:0.25;" x="318.35578" xlink:href="#m615360b04f" y="165.752685"/>
     <use style="fill:#ffa500;stroke:#ffffff;stroke-width:0.25;" x="323.20137" xlink:href="#m615360b04f" y="159.728821"/>
     <use style="fill:#ffa500;stroke:#ffffff;stroke-width:0.25;" x="328.046961" xlink:href="#m615360b04f" y="151.802685"/>
     <use style="fill:#ffa500;stroke:#ffffff;stroke-width:0.25;" x="332.892551" xlink:href="#m615360b04f" y="138.16973"/>
     <use style="fill:#ffa500;stroke:#ffffff;stroke-width:0.25;" x="337.738141" xlink:href="#m615360b04f" y="127.70723"/>
     <use style="fill:#ffa500;stroke:#ffffff;stroke-width:0.25;" x="342.583731" xlink:href="#m615360b04f" y="111.379389"/>
     <use style="fill:#ffa500;stroke:#ffffff;stroke-width:0.25;" x="347.429322" xlink:href="#m615360b04f" y="105.514048"/>
     <use style="fill:#ffa500;stroke:#ffffff;stroke-width:0.25;" x="352.274912" xlink:href="#m615360b04f" y="86.332798"/>
     <use style="fill:#ffa500;stroke:#ffffff;stroke-width:0.25;" x="357.120502" xlink:href="#m615360b04f" y="75.236207"/>
     <use style="fill:#ffa500;stroke:#ffffff;stroke-width:0.25;" x="361.966092" xlink:href="#m615360b04f" y="49.872571"/>
     <use style="fill:#ffa500;stroke:#ffffff;stroke-width:0.25;" x="366.811682" xlink:href="#m615360b04f" y="34.020298"/>
     <use style="fill:#ffa500;stroke:#ffffff;stroke-width:0.25;" x="371.657273" xlink:href="#m615360b04f" y="28.154957"/>
    </g>
   </g>
   <g id="line2d_26">
    <path clip-path="url(#pf7dadf3aa9)" d="M 47.002727 190.48223 
L 51.848318 190.48223 
L 56.693908 190.48223 
L 61.539498 190.48223 
L 66.385088 190.48223 
L 71.230678 190.48223 
L 76.076269 190.48223 
L 80.921859 190.48223 
L 85.767449 190.48223 
L 90.613039 190.48223 
L 95.45863 190.48223 
L 100.30422 190.48223 
L 105.14981 190.48223 
L 109.9954 190.48223 
L 114.840991 190.48223 
L 119.686581 190.48223 
L 124.532171 190.48223 
L 129.377761 190.48223 
L 134.223351 190.48223 
L 139.068942 190.48223 
L 143.914532 190.48223 
L 148.760122 190.48223 
L 153.605712 190.48223 
L 158.451303 190.48223 
L 163.296893 190.48223 
L 168.142483 190.48223 
L 172.988073 190.48223 
L 177.833664 190.48223 
L 182.679254 190.48223 
L 187.524844 190.48223 
L 192.370434 190.48223 
L 197.216024 190.48223 
L 202.061615 190.48223 
L 206.907205 190.48223 
L 211.752795 190.48223 
L 216.598385 190.48223 
L 221.443976 190.48223 
L 226.289566 190.48223 
L 231.135156 190.48223 
L 235.980746 190.48223 
L 240.826336 190.48223 
L 245.671927 190.48223 
L 250.517517 190.48223 
L 255.363107 190.48223 
L 260.208697 190.48223 
L 265.054288 190.48223 
L 269.899878 190.48223 
L 274.745468 190.48223 
L 279.591058 190.48223 
L 284.436649 190.323707 
L 289.282239 190.323707 
L 294.127829 190.165185 
L 298.973419 190.165185 
L 303.819009 190.165185 
L 308.6646 190.165185 
L 313.51019 190.006662 
L 318.35578 190.006662 
L 323.20137 189.848139 
L 328.046961 189.689616 
L 332.892551 189.848139 
L 337.738141 189.372571 
L 342.583731 188.897003 
L 347.429322 188.897003 
L 352.274912 188.579957 
L 357.120502 187.311776 
L 361.966092 187.311776 
L 366.811682 186.677685 
L 371.657273 186.202116 
" style="fill:none;stroke:#ff0000;stroke-linecap:round;stroke-width:2;"/>
    <defs>
     <path d="M -1 2 
L 0 1 
L 1 2 
L 2 1 
L 1 0 
L 2 -1 
L 1 -2 
L 0 -1 
L -1 -2 
L -2 -1 
L -1 0 
L -2 1 
z
" id="m3ac3bf3a4e" style="stroke:#ffffff;stroke-linejoin:miter;stroke-width:0.25;"/>
    </defs>
    <g clip-path="url(#pf7dadf3aa9)">
     <use style="fill:#ff0000;stroke:#ffffff;stroke-linejoin:miter;stroke-width:0.25;" x="47.002727" xlink:href="#m3ac3bf3a4e" y="190.48223"/>
     <use style="fill:#ff0000;stroke:#ffffff;stroke-linejoin:miter;stroke-width:0.25;" x="51.848318" xlink:href="#m3ac3bf3a4e" y="190.48223"/>
     <use style="fill:#ff0000;stroke:#ffffff;stroke-linejoin:miter;stroke-width:0.25;" x="56.693908" xlink:href="#m3ac3bf3a4e" y="190.48223"/>
     <use style="fill:#ff0000;stroke:#ffffff;stroke-linejoin:miter;stroke-width:0.25;" x="61.539498" xlink:href="#m3ac3bf3a4e" y="190.48223"/>
     <use style="fill:#ff0000;stroke:#ffffff;stroke-linejoin:miter;stroke-width:0.25;" x="66.385088" xlink:href="#m3ac3bf3a4e" y="190.48223"/>
     <use style="fill:#ff0000;stroke:#ffffff;stroke-linejoin:miter;stroke-width:0.25;" x="71.230678" xlink:href="#m3ac3bf3a4e" y="190.48223"/>
     <use style="fill:#ff0000;stroke:#ffffff;stroke-linejoin:miter;stroke-width:0.25;" x="76.076269" xlink:href="#m3ac3bf3a4e" y="190.48223"/>
     <use style="fill:#ff0000;stroke:#ffffff;stroke-linejoin:miter;stroke-width:0.25;" x="80.921859" xlink:href="#m3ac3bf3a4e" y="190.48223"/>
     <use style="fill:#ff0000;stroke:#ffffff;stroke-linejoin:miter;stroke-width:0.25;" x="85.767449" xlink:href="#m3ac3bf3a4e" y="190.48223"/>
     <use style="fill:#ff0000;stroke:#ffffff;stroke-linejoin:miter;stroke-width:0.25;" x="90.613039" xlink:href="#m3ac3bf3a4e" y="190.48223"/>
     <use style="fill:#ff0000;stroke:#ffffff;stroke-linejoin:miter;stroke-width:0.25;" x="95.45863" xlink:href="#m3ac3bf3a4e" y="190.48223"/>
     <use style="fill:#ff0000;stroke:#ffffff;stroke-linejoin:miter;stroke-width:0.25;" x="100.30422" xlink:href="#m3ac3bf3a4e" y="190.48223"/>
     <use style="fill:#ff0000;stroke:#ffffff;stroke-linejoin:miter;stroke-width:0.25;" x="105.14981" xlink:href="#m3ac3bf3a4e" y="190.48223"/>
     <use style="fill:#ff0000;stroke:#ffffff;stroke-linejoin:miter;stroke-width:0.25;" x="109.9954" xlink:href="#m3ac3bf3a4e" y="190.48223"/>
     <use style="fill:#ff0000;stroke:#ffffff;stroke-linejoin:miter;stroke-width:0.25;" x="114.840991" xlink:href="#m3ac3bf3a4e" y="190.48223"/>
     <use style="fill:#ff0000;stroke:#ffffff;stroke-linejoin:miter;stroke-width:0.25;" x="119.686581" xlink:href="#m3ac3bf3a4e" y="190.48223"/>
     <use style="fill:#ff0000;stroke:#ffffff;stroke-linejoin:miter;stroke-width:0.25;" x="124.532171" xlink:href="#m3ac3bf3a4e" y="190.48223"/>
     <use style="fill:#ff0000;stroke:#ffffff;stroke-linejoin:miter;stroke-width:0.25;" x="129.377761" xlink:href="#m3ac3bf3a4e" y="190.48223"/>
     <use style="fill:#ff0000;stroke:#ffffff;stroke-linejoin:miter;stroke-width:0.25;" x="134.223351" xlink:href="#m3ac3bf3a4e" y="190.48223"/>
     <use style="fill:#ff0000;stroke:#ffffff;stroke-linejoin:miter;stroke-width:0.25;" x="139.068942" xlink:href="#m3ac3bf3a4e" y="190.48223"/>
     <use style="fill:#ff0000;stroke:#ffffff;stroke-linejoin:miter;stroke-width:0.25;" x="143.914532" xlink:href="#m3ac3bf3a4e" y="190.48223"/>
     <use style="fill:#ff0000;stroke:#ffffff;stroke-linejoin:miter;stroke-width:0.25;" x="148.760122" xlink:href="#m3ac3bf3a4e" y="190.48223"/>
     <use style="fill:#ff0000;stroke:#ffffff;stroke-linejoin:miter;stroke-width:0.25;" x="153.605712" xlink:href="#m3ac3bf3a4e" y="190.48223"/>
     <use style="fill:#ff0000;stroke:#ffffff;stroke-linejoin:miter;stroke-width:0.25;" x="158.451303" xlink:href="#m3ac3bf3a4e" y="190.48223"/>
     <use style="fill:#ff0000;stroke:#ffffff;stroke-linejoin:miter;stroke-width:0.25;" x="163.296893" xlink:href="#m3ac3bf3a4e" y="190.48223"/>
     <use style="fill:#ff0000;stroke:#ffffff;stroke-linejoin:miter;stroke-width:0.25;" x="168.142483" xlink:href="#m3ac3bf3a4e" y="190.48223"/>
     <use style="fill:#ff0000;stroke:#ffffff;stroke-linejoin:miter;stroke-width:0.25;" x="172.988073" xlink:href="#m3ac3bf3a4e" y="190.48223"/>
     <use style="fill:#ff0000;stroke:#ffffff;stroke-linejoin:miter;stroke-width:0.25;" x="177.833664" xlink:href="#m3ac3bf3a4e" y="190.48223"/>
     <use style="fill:#ff0000;stroke:#ffffff;stroke-linejoin:miter;stroke-width:0.25;" x="182.679254" xlink:href="#m3ac3bf3a4e" y="190.48223"/>
     <use style="fill:#ff0000;stroke:#ffffff;stroke-linejoin:miter;stroke-width:0.25;" x="187.524844" xlink:href="#m3ac3bf3a4e" y="190.48223"/>
     <use style="fill:#ff0000;stroke:#ffffff;stroke-linejoin:miter;stroke-width:0.25;" x="192.370434" xlink:href="#m3ac3bf3a4e" y="190.48223"/>
     <use style="fill:#ff0000;stroke:#ffffff;stroke-linejoin:miter;stroke-width:0.25;" x="197.216024" xlink:href="#m3ac3bf3a4e" y="190.48223"/>
     <use style="fill:#ff0000;stroke:#ffffff;stroke-linejoin:miter;stroke-width:0.25;" x="202.061615" xlink:href="#m3ac3bf3a4e" y="190.48223"/>
     <use style="fill:#ff0000;stroke:#ffffff;stroke-linejoin:miter;stroke-width:0.25;" x="206.907205" xlink:href="#m3ac3bf3a4e" y="190.48223"/>
     <use style="fill:#ff0000;stroke:#ffffff;stroke-linejoin:miter;stroke-width:0.25;" x="211.752795" xlink:href="#m3ac3bf3a4e" y="190.48223"/>
     <use style="fill:#ff0000;stroke:#ffffff;stroke-linejoin:miter;stroke-width:0.25;" x="216.598385" xlink:href="#m3ac3bf3a4e" y="190.48223"/>
     <use style="fill:#ff0000;stroke:#ffffff;stroke-linejoin:miter;stroke-width:0.25;" x="221.443976" xlink:href="#m3ac3bf3a4e" y="190.48223"/>
     <use style="fill:#ff0000;stroke:#ffffff;stroke-linejoin:miter;stroke-width:0.25;" x="226.289566" xlink:href="#m3ac3bf3a4e" y="190.48223"/>
     <use style="fill:#ff0000;stroke:#ffffff;stroke-linejoin:miter;stroke-width:0.25;" x="231.135156" xlink:href="#m3ac3bf3a4e" y="190.48223"/>
     <use style="fill:#ff0000;stroke:#ffffff;stroke-linejoin:miter;stroke-width:0.25;" x="235.980746" xlink:href="#m3ac3bf3a4e" y="190.48223"/>
     <use style="fill:#ff0000;stroke:#ffffff;stroke-linejoin:miter;stroke-width:0.25;" x="240.826336" xlink:href="#m3ac3bf3a4e" y="190.48223"/>
     <use style="fill:#ff0000;stroke:#ffffff;stroke-linejoin:miter;stroke-width:0.25;" x="245.671927" xlink:href="#m3ac3bf3a4e" y="190.48223"/>
     <use style="fill:#ff0000;stroke:#ffffff;stroke-linejoin:miter;stroke-width:0.25;" x="250.517517" xlink:href="#m3ac3bf3a4e" y="190.48223"/>
     <use style="fill:#ff0000;stroke:#ffffff;stroke-linejoin:miter;stroke-width:0.25;" x="255.363107" xlink:href="#m3ac3bf3a4e" y="190.48223"/>
     <use style="fill:#ff0000;stroke:#ffffff;stroke-linejoin:miter;stroke-width:0.25;" x="260.208697" xlink:href="#m3ac3bf3a4e" y="190.48223"/>
     <use style="fill:#ff0000;stroke:#ffffff;stroke-linejoin:miter;stroke-width:0.25;" x="265.054288" xlink:href="#m3ac3bf3a4e" y="190.48223"/>
     <use style="fill:#ff0000;stroke:#ffffff;stroke-linejoin:miter;stroke-width:0.25;" x="269.899878" xlink:href="#m3ac3bf3a4e" y="190.48223"/>
     <use style="fill:#ff0000;stroke:#ffffff;stroke-linejoin:miter;stroke-width:0.25;" x="274.745468" xlink:href="#m3ac3bf3a4e" y="190.48223"/>
     <use style="fill:#ff0000;stroke:#ffffff;stroke-linejoin:miter;stroke-width:0.25;" x="279.591058" xlink:href="#m3ac3bf3a4e" y="190.48223"/>
     <use style="fill:#ff0000;stroke:#ffffff;stroke-linejoin:miter;stroke-width:0.25;" x="284.436649" xlink:href="#m3ac3bf3a4e" y="190.323707"/>
     <use style="fill:#ff0000;stroke:#ffffff;stroke-linejoin:miter;stroke-width:0.25;" x="289.282239" xlink:href="#m3ac3bf3a4e" y="190.323707"/>
     <use style="fill:#ff0000;stroke:#ffffff;stroke-linejoin:miter;stroke-width:0.25;" x="294.127829" xlink:href="#m3ac3bf3a4e" y="190.165185"/>
     <use style="fill:#ff0000;stroke:#ffffff;stroke-linejoin:miter;stroke-width:0.25;" x="298.973419" xlink:href="#m3ac3bf3a4e" y="190.165185"/>
     <use style="fill:#ff0000;stroke:#ffffff;stroke-linejoin:miter;stroke-width:0.25;" x="303.819009" xlink:href="#m3ac3bf3a4e" y="190.165185"/>
     <use style="fill:#ff0000;stroke:#ffffff;stroke-linejoin:miter;stroke-width:0.25;" x="308.6646" xlink:href="#m3ac3bf3a4e" y="190.165185"/>
     <use style="fill:#ff0000;stroke:#ffffff;stroke-linejoin:miter;stroke-width:0.25;" x="313.51019" xlink:href="#m3ac3bf3a4e" y="190.006662"/>
     <use style="fill:#ff0000;stroke:#ffffff;stroke-linejoin:miter;stroke-width:0.25;" x="318.35578" xlink:href="#m3ac3bf3a4e" y="190.006662"/>
     <use style="fill:#ff0000;stroke:#ffffff;stroke-linejoin:miter;stroke-width:0.25;" x="323.20137" xlink:href="#m3ac3bf3a4e" y="189.848139"/>
     <use style="fill:#ff0000;stroke:#ffffff;stroke-linejoin:miter;stroke-width:0.25;" x="328.046961" xlink:href="#m3ac3bf3a4e" y="189.689616"/>
     <use style="fill:#ff0000;stroke:#ffffff;stroke-linejoin:miter;stroke-width:0.25;" x="332.892551" xlink:href="#m3ac3bf3a4e" y="189.848139"/>
     <use style="fill:#ff0000;stroke:#ffffff;stroke-linejoin:miter;stroke-width:0.25;" x="337.738141" xlink:href="#m3ac3bf3a4e" y="189.372571"/>
     <use style="fill:#ff0000;stroke:#ffffff;stroke-linejoin:miter;stroke-width:0.25;" x="342.583731" xlink:href="#m3ac3bf3a4e" y="188.897003"/>
     <use style="fill:#ff0000;stroke:#ffffff;stroke-linejoin:miter;stroke-width:0.25;" x="347.429322" xlink:href="#m3ac3bf3a4e" y="188.897003"/>
     <use style="fill:#ff0000;stroke:#ffffff;stroke-linejoin:miter;stroke-width:0.25;" x="352.274912" xlink:href="#m3ac3bf3a4e" y="188.579957"/>
     <use style="fill:#ff0000;stroke:#ffffff;stroke-linejoin:miter;stroke-width:0.25;" x="357.120502" xlink:href="#m3ac3bf3a4e" y="187.311776"/>
     <use style="fill:#ff0000;stroke:#ffffff;stroke-linejoin:miter;stroke-width:0.25;" x="361.966092" xlink:href="#m3ac3bf3a4e" y="187.311776"/>
     <use style="fill:#ff0000;stroke:#ffffff;stroke-linejoin:miter;stroke-width:0.25;" x="366.811682" xlink:href="#m3ac3bf3a4e" y="186.677685"/>
     <use style="fill:#ff0000;stroke:#ffffff;stroke-linejoin:miter;stroke-width:0.25;" x="371.657273" xlink:href="#m3ac3bf3a4e" y="186.202116"/>
    </g>
   </g>
   <g id="line2d_27"/>
   <g id="line2d_28"/>
   <g id="line2d_29"/>
   <g id="line2d_30">
    <path clip-path="url(#pf7dadf3aa9)" d="M 30.77 28.154957 
L 387.89 28.154957 
" style="fill:none;stroke:#4c72b0;stroke-dasharray:0.5,0.825;stroke-dashoffset:0;stroke-width:0.5;"/>
   </g>
   <g id="line2d_31">
    <path clip-path="url(#pf7dadf3aa9)" d="M 30.77 186.202116 
L 387.89 186.202116 
" style="fill:none;stroke:#4c72b0;stroke-dasharray:0.5,0.825;stroke-dashoffset:0;stroke-width:0.5;"/>
   </g>
   <g id="patch_3">
    <path d="M 30.77 198.598594 
L 30.77 20.038594 
" style="fill:none;stroke:#262626;stroke-linecap:square;stroke-linejoin:miter;"/>
   </g>
   <g id="patch_4">
    <path d="M 387.89 198.598594 
L 387.89 20.038594 
" style="fill:none;stroke:#262626;stroke-linecap:square;stroke-linejoin:miter;"/>
   </g>
   <g id="patch_5">
    <path d="M 30.77 198.598594 
L 387.89 198.598594 
" style="fill:none;stroke:#262626;stroke-linecap:square;stroke-linejoin:miter;"/>
   </g>
   <g id="patch_6">
    <path d="M 30.77 20.038594 
L 387.89 20.038594 
" style="fill:none;stroke:#262626;stroke-linecap:square;stroke-linejoin:miter;"/>
   </g>
   <g id="text_13">
    <!-- 1024 -->
    <g style="fill:#ff0000;" transform="translate(34.3412 26.491207)scale(0.08 -0.08)">
     <use xlink:href="#DejaVuSans-49"/>
     <use x="63.623047" xlink:href="#DejaVuSans-48"/>
     <use x="127.246094" xlink:href="#DejaVuSans-50"/>
     <use x="190.869141" xlink:href="#DejaVuSans-52"/>
    </g>
   </g>
   <g id="text_14">
    <!-- 27 -->
    <defs>
     <path d="M 8.203125 72.90625 
L 55.078125 72.90625 
L 55.078125 68.703125 
L 28.609375 0 
L 18.3125 0 
L 43.21875 64.59375 
L 8.203125 64.59375 
z
" id="DejaVuSans-55"/>
    </defs>
    <g style="fill:#ff0000;" transform="translate(34.3412 184.538366)scale(0.08 -0.08)">
     <use xlink:href="#DejaVuSans-50"/>
     <use x="63.623047" xlink:href="#DejaVuSans-55"/>
    </g>
   </g>
   <g id="text_15">
    <!-- COVID-19 Cases and Deaths Graph -->
    <defs>
     <path d="M 64.40625 67.28125 
L 64.40625 56.890625 
Q 59.421875 61.53125 53.78125 63.8125 
Q 48.140625 66.109375 41.796875 66.109375 
Q 29.296875 66.109375 22.65625 58.46875 
Q 16.015625 50.828125 16.015625 36.375 
Q 16.015625 21.96875 22.65625 14.328125 
Q 29.296875 6.6875 41.796875 6.6875 
Q 48.140625 6.6875 53.78125 8.984375 
Q 59.421875 11.28125 64.40625 15.921875 
L 64.40625 5.609375 
Q 59.234375 2.09375 53.4375 0.328125 
Q 47.65625 -1.421875 41.21875 -1.421875 
Q 24.65625 -1.421875 15.125 8.703125 
Q 5.609375 18.84375 5.609375 36.375 
Q 5.609375 53.953125 15.125 64.078125 
Q 24.65625 74.21875 41.21875 74.21875 
Q 47.75 74.21875 53.53125 72.484375 
Q 59.328125 70.75 64.40625 67.28125 
z
" id="DejaVuSans-67"/>
     <path d="M 39.40625 66.21875 
Q 28.65625 66.21875 22.328125 58.203125 
Q 16.015625 50.203125 16.015625 36.375 
Q 16.015625 22.609375 22.328125 14.59375 
Q 28.65625 6.59375 39.40625 6.59375 
Q 50.140625 6.59375 56.421875 14.59375 
Q 62.703125 22.609375 62.703125 36.375 
Q 62.703125 50.203125 56.421875 58.203125 
Q 50.140625 66.21875 39.40625 66.21875 
z
M 39.40625 74.21875 
Q 54.734375 74.21875 63.90625 63.9375 
Q 73.09375 53.65625 73.09375 36.375 
Q 73.09375 19.140625 63.90625 8.859375 
Q 54.734375 -1.421875 39.40625 -1.421875 
Q 24.03125 -1.421875 14.8125 8.828125 
Q 5.609375 19.09375 5.609375 36.375 
Q 5.609375 53.65625 14.8125 63.9375 
Q 24.03125 74.21875 39.40625 74.21875 
z
" id="DejaVuSans-79"/>
     <path d="M 28.609375 0 
L 0.78125 72.90625 
L 11.078125 72.90625 
L 34.1875 11.53125 
L 57.328125 72.90625 
L 67.578125 72.90625 
L 39.796875 0 
z
" id="DejaVuSans-86"/>
     <path d="M 9.8125 72.90625 
L 19.671875 72.90625 
L 19.671875 0 
L 9.8125 0 
z
" id="DejaVuSans-73"/>
     <path d="M 19.671875 64.796875 
L 19.671875 8.109375 
L 31.59375 8.109375 
Q 46.6875 8.109375 53.6875 14.9375 
Q 60.6875 21.78125 60.6875 36.53125 
Q 60.6875 51.171875 53.6875 57.984375 
Q 46.6875 64.796875 31.59375 64.796875 
z
M 9.8125 72.90625 
L 30.078125 72.90625 
Q 51.265625 72.90625 61.171875 64.09375 
Q 71.09375 55.28125 71.09375 36.53125 
Q 71.09375 17.671875 61.125 8.828125 
Q 51.171875 0 30.078125 0 
L 9.8125 0 
z
" id="DejaVuSans-68"/>
     <path d="M 4.890625 31.390625 
L 31.203125 31.390625 
L 31.203125 23.390625 
L 4.890625 23.390625 
z
" id="DejaVuSans-45"/>
     <path d="M 44.28125 53.078125 
L 44.28125 44.578125 
Q 40.484375 46.53125 36.375 47.5 
Q 32.28125 48.484375 27.875 48.484375 
Q 21.1875 48.484375 17.84375 46.4375 
Q 14.5 44.390625 14.5 40.28125 
Q 14.5 37.15625 16.890625 35.375 
Q 19.28125 33.59375 26.515625 31.984375 
L 29.59375 31.296875 
Q 39.15625 29.25 43.1875 25.515625 
Q 47.21875 21.78125 47.21875 15.09375 
Q 47.21875 7.46875 41.1875 3.015625 
Q 35.15625 -1.421875 24.609375 -1.421875 
Q 20.21875 -1.421875 15.453125 -0.5625 
Q 10.6875 0.296875 5.421875 2 
L 5.421875 11.28125 
Q 10.40625 8.6875 15.234375 7.390625 
Q 20.0625 6.109375 24.8125 6.109375 
Q 31.15625 6.109375 34.5625 8.28125 
Q 37.984375 10.453125 37.984375 14.40625 
Q 37.984375 18.0625 35.515625 20.015625 
Q 33.0625 21.96875 24.703125 23.78125 
L 21.578125 24.515625 
Q 13.234375 26.265625 9.515625 29.90625 
Q 5.8125 33.546875 5.8125 39.890625 
Q 5.8125 47.609375 11.28125 51.796875 
Q 16.75 56 26.8125 56 
Q 31.78125 56 36.171875 55.265625 
Q 40.578125 54.546875 44.28125 53.078125 
z
" id="DejaVuSans-115"/>
     <path d="M 54.890625 33.015625 
L 54.890625 0 
L 45.90625 0 
L 45.90625 32.71875 
Q 45.90625 40.484375 42.875 44.328125 
Q 39.84375 48.1875 33.796875 48.1875 
Q 26.515625 48.1875 22.3125 43.546875 
Q 18.109375 38.921875 18.109375 30.90625 
L 18.109375 0 
L 9.078125 0 
L 9.078125 54.6875 
L 18.109375 54.6875 
L 18.109375 46.1875 
Q 21.34375 51.125 25.703125 53.5625 
Q 30.078125 56 35.796875 56 
Q 45.21875 56 50.046875 50.171875 
Q 54.890625 44.34375 54.890625 33.015625 
z
" id="DejaVuSans-110"/>
     <path d="M 45.40625 46.390625 
L 45.40625 75.984375 
L 54.390625 75.984375 
L 54.390625 0 
L 45.40625 0 
L 45.40625 8.203125 
Q 42.578125 3.328125 38.25 0.953125 
Q 33.9375 -1.421875 27.875 -1.421875 
Q 17.96875 -1.421875 11.734375 6.484375 
Q 5.515625 14.40625 5.515625 27.296875 
Q 5.515625 40.1875 11.734375 48.09375 
Q 17.96875 56 27.875 56 
Q 33.9375 56 38.25 53.625 
Q 42.578125 51.265625 45.40625 46.390625 
z
M 14.796875 27.296875 
Q 14.796875 17.390625 18.875 11.75 
Q 22.953125 6.109375 30.078125 6.109375 
Q 37.203125 6.109375 41.296875 11.75 
Q 45.40625 17.390625 45.40625 27.296875 
Q 45.40625 37.203125 41.296875 42.84375 
Q 37.203125 48.484375 30.078125 48.484375 
Q 22.953125 48.484375 18.875 42.84375 
Q 14.796875 37.203125 14.796875 27.296875 
z
" id="DejaVuSans-100"/>
     <path d="M 18.3125 70.21875 
L 18.3125 54.6875 
L 36.8125 54.6875 
L 36.8125 47.703125 
L 18.3125 47.703125 
L 18.3125 18.015625 
Q 18.3125 11.328125 20.140625 9.421875 
Q 21.96875 7.515625 27.59375 7.515625 
L 36.8125 7.515625 
L 36.8125 0 
L 27.59375 0 
Q 17.1875 0 13.234375 3.875 
Q 9.28125 7.765625 9.28125 18.015625 
L 9.28125 47.703125 
L 2.6875 47.703125 
L 2.6875 54.6875 
L 9.28125 54.6875 
L 9.28125 70.21875 
z
" id="DejaVuSans-116"/>
     <path d="M 54.890625 33.015625 
L 54.890625 0 
L 45.90625 0 
L 45.90625 32.71875 
Q 45.90625 40.484375 42.875 44.328125 
Q 39.84375 48.1875 33.796875 48.1875 
Q 26.515625 48.1875 22.3125 43.546875 
Q 18.109375 38.921875 18.109375 30.90625 
L 18.109375 0 
L 9.078125 0 
L 9.078125 75.984375 
L 18.109375 75.984375 
L 18.109375 46.1875 
Q 21.34375 51.125 25.703125 53.5625 
Q 30.078125 56 35.796875 56 
Q 45.21875 56 50.046875 50.171875 
Q 54.890625 44.34375 54.890625 33.015625 
z
" id="DejaVuSans-104"/>
     <path d="M 59.515625 10.40625 
L 59.515625 29.984375 
L 43.40625 29.984375 
L 43.40625 38.09375 
L 69.28125 38.09375 
L 69.28125 6.78125 
Q 63.578125 2.734375 56.6875 0.65625 
Q 49.8125 -1.421875 42 -1.421875 
Q 24.90625 -1.421875 15.25 8.5625 
Q 5.609375 18.5625 5.609375 36.375 
Q 5.609375 54.25 15.25 64.234375 
Q 24.90625 74.21875 42 74.21875 
Q 49.125 74.21875 55.546875 72.453125 
Q 61.96875 70.703125 67.390625 67.28125 
L 67.390625 56.78125 
Q 61.921875 61.421875 55.765625 63.765625 
Q 49.609375 66.109375 42.828125 66.109375 
Q 29.4375 66.109375 22.71875 58.640625 
Q 16.015625 51.171875 16.015625 36.375 
Q 16.015625 21.625 22.71875 14.15625 
Q 29.4375 6.6875 42.828125 6.6875 
Q 48.046875 6.6875 52.140625 7.59375 
Q 56.25 8.5 59.515625 10.40625 
z
" id="DejaVuSans-71"/>
    </defs>
    <g style="fill:#262626;" transform="translate(130.204531 14.038594)scale(0.09 -0.09)">
     <use xlink:href="#DejaVuSans-67"/>
     <use x="69.824219" xlink:href="#DejaVuSans-79"/>
     <use x="146.785156" xlink:href="#DejaVuSans-86"/>
     <use x="215.193359" xlink:href="#DejaVuSans-73"/>
     <use x="244.685547" xlink:href="#DejaVuSans-68"/>
     <use x="321.6875" xlink:href="#DejaVuSans-45"/>
     <use x="357.771484" xlink:href="#DejaVuSans-49"/>
     <use x="421.394531" xlink:href="#DejaVuSans-57"/>
     <use x="485.017578" xlink:href="#DejaVuSans-32"/>
     <use x="516.804688" xlink:href="#DejaVuSans-67"/>
     <use x="586.628906" xlink:href="#DejaVuSans-97"/>
     <use x="647.908203" xlink:href="#DejaVuSans-115"/>
     <use x="700.007812" xlink:href="#DejaVuSans-101"/>
     <use x="761.53125" xlink:href="#DejaVuSans-115"/>
     <use x="813.630859" xlink:href="#DejaVuSans-32"/>
     <use x="845.417969" xlink:href="#DejaVuSans-97"/>
     <use x="906.697266" xlink:href="#DejaVuSans-110"/>
     <use x="970.076172" xlink:href="#DejaVuSans-100"/>
     <use x="1033.552734" xlink:href="#DejaVuSans-32"/>
     <use x="1065.339844" xlink:href="#DejaVuSans-68"/>
     <use x="1142.341797" xlink:href="#DejaVuSans-101"/>
     <use x="1203.865234" xlink:href="#DejaVuSans-97"/>
     <use x="1265.144531" xlink:href="#DejaVuSans-116"/>
     <use x="1304.353516" xlink:href="#DejaVuSans-104"/>
     <use x="1367.732422" xlink:href="#DejaVuSans-115"/>
     <use x="1419.832031" xlink:href="#DejaVuSans-32"/>
     <use x="1451.619141" xlink:href="#DejaVuSans-71"/>
     <use x="1529.109375" xlink:href="#DejaVuSans-114"/>
     <use x="1570.222656" xlink:href="#DejaVuSans-97"/>
     <use x="1631.501953" xlink:href="#DejaVuSans-112"/>
     <use x="1694.978516" xlink:href="#DejaVuSans-104"/>
    </g>
   </g>
   <g id="legend_1">
    <g id="patch_7">
     <path d="M 36.93 123.555344 
L 139.693375 123.555344 
Q 141.453375 123.555344 141.453375 121.795344 
L 141.453375 96.841844 
Q 141.453375 95.081844 139.693375 95.081844 
L 36.93 95.081844 
Q 35.17 95.081844 35.17 96.841844 
L 35.17 121.795344 
Q 35.17 123.555344 36.93 123.555344 
z
" style="fill:#ffffff;opacity:0.8;stroke:#cccccc;stroke-linejoin:miter;stroke-width:0.8;"/>
    </g>
    <g id="line2d_32">
     <path d="M 38.69 102.208469 
L 56.29 102.208469 
" style="fill:none;stroke:#ffa500;stroke-linecap:round;stroke-width:2;"/>
    </g>
    <g id="line2d_33">
     <g>
      <use style="fill:#ffa500;stroke:#ffffff;stroke-width:0.25;" x="47.49" xlink:href="#m615360b04f" y="102.208469"/>
     </g>
    </g>
    <g id="text_16">
     <!-- Confirmed Cases -->
     <defs>
      <path d="M 30.609375 48.390625 
Q 23.390625 48.390625 19.1875 42.75 
Q 14.984375 37.109375 14.984375 27.296875 
Q 14.984375 17.484375 19.15625 11.84375 
Q 23.34375 6.203125 30.609375 6.203125 
Q 37.796875 6.203125 41.984375 11.859375 
Q 46.1875 17.53125 46.1875 27.296875 
Q 46.1875 37.015625 41.984375 42.703125 
Q 37.796875 48.390625 30.609375 48.390625 
z
M 30.609375 56 
Q 42.328125 56 49.015625 48.375 
Q 55.71875 40.765625 55.71875 27.296875 
Q 55.71875 13.875 49.015625 6.21875 
Q 42.328125 -1.421875 30.609375 -1.421875 
Q 18.84375 -1.421875 12.171875 6.21875 
Q 5.515625 13.875 5.515625 27.296875 
Q 5.515625 40.765625 12.171875 48.375 
Q 18.84375 56 30.609375 56 
z
" id="DejaVuSans-111"/>
      <path d="M 37.109375 75.984375 
L 37.109375 68.5 
L 28.515625 68.5 
Q 23.6875 68.5 21.796875 66.546875 
Q 19.921875 64.59375 19.921875 59.515625 
L 19.921875 54.6875 
L 34.71875 54.6875 
L 34.71875 47.703125 
L 19.921875 47.703125 
L 19.921875 0 
L 10.890625 0 
L 10.890625 47.703125 
L 2.296875 47.703125 
L 2.296875 54.6875 
L 10.890625 54.6875 
L 10.890625 58.5 
Q 10.890625 67.625 15.140625 71.796875 
Q 19.390625 75.984375 28.609375 75.984375 
z
" id="DejaVuSans-102"/>
      <path d="M 9.421875 54.6875 
L 18.40625 54.6875 
L 18.40625 0 
L 9.421875 0 
z
M 9.421875 75.984375 
L 18.40625 75.984375 
L 18.40625 64.59375 
L 9.421875 64.59375 
z
" id="DejaVuSans-105"/>
      <path d="M 52 44.1875 
Q 55.375 50.25 60.0625 53.125 
Q 64.75 56 71.09375 56 
Q 79.640625 56 84.28125 50.015625 
Q 88.921875 44.046875 88.921875 33.015625 
L 88.921875 0 
L 79.890625 0 
L 79.890625 32.71875 
Q 79.890625 40.578125 77.09375 44.375 
Q 74.3125 48.1875 68.609375 48.1875 
Q 61.625 48.1875 57.5625 43.546875 
Q 53.515625 38.921875 53.515625 30.90625 
L 53.515625 0 
L 44.484375 0 
L 44.484375 32.71875 
Q 44.484375 40.625 41.703125 44.40625 
Q 38.921875 48.1875 33.109375 48.1875 
Q 26.21875 48.1875 22.15625 43.53125 
Q 18.109375 38.875 18.109375 30.90625 
L 18.109375 0 
L 9.078125 0 
L 9.078125 54.6875 
L 18.109375 54.6875 
L 18.109375 46.1875 
Q 21.1875 51.21875 25.484375 53.609375 
Q 29.78125 56 35.6875 56 
Q 41.65625 56 45.828125 52.96875 
Q 50 49.953125 52 44.1875 
z
" id="DejaVuSans-109"/>
     </defs>
     <g style="fill:#262626;" transform="translate(63.33 105.288469)scale(0.088 -0.088)">
      <use xlink:href="#DejaVuSans-67"/>
      <use x="69.824219" xlink:href="#DejaVuSans-111"/>
      <use x="131.005859" xlink:href="#DejaVuSans-110"/>
      <use x="194.384766" xlink:href="#DejaVuSans-102"/>
      <use x="229.589844" xlink:href="#DejaVuSans-105"/>
      <use x="257.373047" xlink:href="#DejaVuSans-114"/>
      <use x="296.736328" xlink:href="#DejaVuSans-109"/>
      <use x="394.148438" xlink:href="#DejaVuSans-101"/>
      <use x="455.671875" xlink:href="#DejaVuSans-100"/>
      <use x="519.148438" xlink:href="#DejaVuSans-32"/>
      <use x="550.935547" xlink:href="#DejaVuSans-67"/>
      <use x="620.759766" xlink:href="#DejaVuSans-97"/>
      <use x="682.039062" xlink:href="#DejaVuSans-115"/>
      <use x="734.138672" xlink:href="#DejaVuSans-101"/>
      <use x="795.662109" xlink:href="#DejaVuSans-115"/>
     </g>
    </g>
    <g id="line2d_34">
     <path d="M 38.69 115.125219 
L 56.29 115.125219 
" style="fill:none;stroke:#ff0000;stroke-linecap:round;stroke-width:2;"/>
    </g>
    <g id="line2d_35">
     <g>
      <use style="fill:#ff0000;stroke:#ffffff;stroke-linejoin:miter;stroke-width:0.25;" x="47.49" xlink:href="#m3ac3bf3a4e" y="115.125219"/>
     </g>
    </g>
    <g id="text_17">
     <!-- Deaths -->
     <g style="fill:#262626;" transform="translate(63.33 118.205219)scale(0.088 -0.088)">
      <use xlink:href="#DejaVuSans-68"/>
      <use x="77.001953" xlink:href="#DejaVuSans-101"/>
      <use x="138.525391" xlink:href="#DejaVuSans-97"/>
      <use x="199.804688" xlink:href="#DejaVuSans-116"/>
      <use x="239.013672" xlink:href="#DejaVuSans-104"/>
      <use x="302.392578" xlink:href="#DejaVuSans-115"/>
     </g>
    </g>
   </g>
  </g>
 </g>
 <defs>
  <clipPath id="pf7dadf3aa9">
   <rect height="178.56" width="357.12" x="30.77" y="20.038594"/>
  </clipPath>
 </defs>
</svg>
