<?xml version="1.0" encoding="utf-8" standalone="no"?>
<!DOCTYPE svg PUBLIC "-//W3C//DTD SVG 1.1//EN"
  "http://www.w3.org/Graphics/SVG/1.1/DTD/svg11.dtd">
<!-- Created with matplotlib (https://matplotlib.org/) -->
<svg height="214.137656pt" version="1.1" viewBox="0 0 376.32 214.137656" width="376.32pt" xmlns="http://www.w3.org/2000/svg" xmlns:xlink="http://www.w3.org/1999/xlink">
 <defs>
  <style type="text/css">
*{stroke-linecap:butt;stroke-linejoin:round;}
  </style>
 </defs>
 <g id="figure_1">
  <g id="patch_1">
   <path d="M 0 214.137656 
L 376.32 214.137656 
L 376.32 0 
L 0 0 
z
" style="fill:#ffffff;"/>
  </g>
  <g id="axes_1">
   <g id="patch_2">
    <path d="M 12 198.598594 
L 369.12 198.598594 
L 369.12 20.038594 
L 12 20.038594 
z
" style="fill:#ffffff;"/>
   </g>
   <g id="matplotlib.axis_1">
    <g id="xtick_1">
     <g id="line2d_1">
      <path clip-path="url(#pc3af3f00b5)" d="M 63.521265 198.598594 
L 63.521265 20.038594 
" style="fill:none;stroke:#f3f3f3;stroke-dasharray:0.5,0.825;stroke-dashoffset:0;stroke-width:0.5;"/>
     </g>
     <g id="line2d_2">
      <defs>
       <path d="M 0 0 
L 0 -3 
" id="mab9ad5da71" style="stroke:#262626;stroke-width:0.5;"/>
      </defs>
      <g>
       <use style="fill:#262626;stroke:#262626;stroke-width:0.5;" x="63.521265" xlink:href="#mab9ad5da71" y="198.598594"/>
      </g>
     </g>
     <g id="text_1">
      <!-- 01 Feb 20 -->
      <defs>
       <path d="M 31.78125 66.40625 
Q 24.171875 66.40625 20.328125 58.90625 
Q 16.5 51.421875 16.5 36.375 
Q 16.5 21.390625 20.328125 13.890625 
Q 24.171875 6.390625 31.78125 6.390625 
Q 39.453125 6.390625 43.28125 13.890625 
Q 47.125 21.390625 47.125 36.375 
Q 47.125 51.421875 43.28125 58.90625 
Q 39.453125 66.40625 31.78125 66.40625 
z
M 31.78125 74.21875 
Q 44.046875 74.21875 50.515625 64.515625 
Q 56.984375 54.828125 56.984375 36.375 
Q 56.984375 17.96875 50.515625 8.265625 
Q 44.046875 -1.421875 31.78125 -1.421875 
Q 19.53125 -1.421875 13.0625 8.265625 
Q 6.59375 17.96875 6.59375 36.375 
Q 6.59375 54.828125 13.0625 64.515625 
Q 19.53125 74.21875 31.78125 74.21875 
z
" id="DejaVuSans-48"/>
       <path d="M 12.40625 8.296875 
L 28.515625 8.296875 
L 28.515625 63.921875 
L 10.984375 60.40625 
L 10.984375 69.390625 
L 28.421875 72.90625 
L 38.28125 72.90625 
L 38.28125 8.296875 
L 54.390625 8.296875 
L 54.390625 0 
L 12.40625 0 
z
" id="DejaVuSans-49"/>
       <path id="DejaVuSans-32"/>
       <path d="M 9.8125 72.90625 
L 51.703125 72.90625 
L 51.703125 64.59375 
L 19.671875 64.59375 
L 19.671875 43.109375 
L 48.578125 43.109375 
L 48.578125 34.8125 
L 19.671875 34.8125 
L 19.671875 0 
L 9.8125 0 
z
" id="DejaVuSans-70"/>
       <path d="M 56.203125 29.59375 
L 56.203125 25.203125 
L 14.890625 25.203125 
Q 15.484375 15.921875 20.484375 11.0625 
Q 25.484375 6.203125 34.421875 6.203125 
Q 39.59375 6.203125 44.453125 7.46875 
Q 49.3125 8.734375 54.109375 11.28125 
L 54.109375 2.78125 
Q 49.265625 0.734375 44.1875 -0.34375 
Q 39.109375 -1.421875 33.890625 -1.421875 
Q 20.796875 -1.421875 13.15625 6.1875 
Q 5.515625 13.8125 5.515625 26.8125 
Q 5.515625 40.234375 12.765625 48.109375 
Q 20.015625 56 32.328125 56 
Q 43.359375 56 49.78125 48.890625 
Q 56.203125 41.796875 56.203125 29.59375 
z
M 47.21875 32.234375 
Q 47.125 39.59375 43.09375 43.984375 
Q 39.0625 48.390625 32.421875 48.390625 
Q 24.90625 48.390625 20.390625 44.140625 
Q 15.875 39.890625 15.1875 32.171875 
z
" id="DejaVuSans-101"/>
       <path d="M 48.6875 27.296875 
Q 48.6875 37.203125 44.609375 42.84375 
Q 40.53125 48.484375 33.40625 48.484375 
Q 26.265625 48.484375 22.1875 42.84375 
Q 18.109375 37.203125 18.109375 27.296875 
Q 18.109375 17.390625 22.1875 11.75 
Q 26.265625 6.109375 33.40625 6.109375 
Q 40.53125 6.109375 44.609375 11.75 
Q 48.6875 17.390625 48.6875 27.296875 
z
M 18.109375 46.390625 
Q 20.953125 51.265625 25.265625 53.625 
Q 29.59375 56 35.59375 56 
Q 45.5625 56 51.78125 48.09375 
Q 58.015625 40.1875 58.015625 27.296875 
Q 58.015625 14.40625 51.78125 6.484375 
Q 45.5625 -1.421875 35.59375 -1.421875 
Q 29.59375 -1.421875 25.265625 0.953125 
Q 20.953125 3.328125 18.109375 8.203125 
L 18.109375 0 
L 9.078125 0 
L 9.078125 75.984375 
L 18.109375 75.984375 
z
" id="DejaVuSans-98"/>
       <path d="M 19.1875 8.296875 
L 53.609375 8.296875 
L 53.609375 0 
L 7.328125 0 
L 7.328125 8.296875 
Q 12.9375 14.109375 22.625 23.890625 
Q 32.328125 33.6875 34.8125 36.53125 
Q 39.546875 41.84375 41.421875 45.53125 
Q 43.3125 49.21875 43.3125 52.78125 
Q 43.3125 58.59375 39.234375 62.25 
Q 35.15625 65.921875 28.609375 65.921875 
Q 23.96875 65.921875 18.8125 64.3125 
Q 13.671875 62.703125 7.8125 59.421875 
L 7.8125 69.390625 
Q 13.765625 71.78125 18.9375 73 
Q 24.125 74.21875 28.421875 74.21875 
Q 39.75 74.21875 46.484375 68.546875 
Q 53.21875 62.890625 53.21875 53.421875 
Q 53.21875 48.921875 51.53125 44.890625 
Q 49.859375 40.875 45.40625 35.40625 
Q 44.1875 33.984375 37.640625 27.21875 
Q 31.109375 20.453125 19.1875 8.296875 
z
" id="DejaVuSans-50"/>
      </defs>
      <g style="fill:#262626;" transform="translate(51.143921 205.897812)scale(0.05 -0.05)">
       <use xlink:href="#DejaVuSans-48"/>
       <use x="63.623047" xlink:href="#DejaVuSans-49"/>
       <use x="127.246094" xlink:href="#DejaVuSans-32"/>
       <use x="159.033203" xlink:href="#DejaVuSans-70"/>
       <use x="211.052734" xlink:href="#DejaVuSans-101"/>
       <use x="272.576172" xlink:href="#DejaVuSans-98"/>
       <use x="336.052734" xlink:href="#DejaVuSans-32"/>
       <use x="367.839844" xlink:href="#DejaVuSans-50"/>
       <use x="431.462891" xlink:href="#DejaVuSans-48"/>
      </g>
     </g>
    </g>
    <g id="xtick_2">
     <g id="line2d_3">
      <path clip-path="url(#pc3af3f00b5)" d="M 112.925217 198.598594 
L 112.925217 20.038594 
" style="fill:none;stroke:#f3f3f3;stroke-dasharray:0.5,0.825;stroke-dashoffset:0;stroke-width:0.5;"/>
     </g>
     <g id="line2d_4">
      <g>
       <use style="fill:#262626;stroke:#262626;stroke-width:0.5;" x="112.925217" xlink:href="#mab9ad5da71" y="198.598594"/>
      </g>
     </g>
     <g id="text_2">
      <!-- 15 Feb 20 -->
      <defs>
       <path d="M 10.796875 72.90625 
L 49.515625 72.90625 
L 49.515625 64.59375 
L 19.828125 64.59375 
L 19.828125 46.734375 
Q 21.96875 47.46875 24.109375 47.828125 
Q 26.265625 48.1875 28.421875 48.1875 
Q 40.625 48.1875 47.75 41.5 
Q 54.890625 34.8125 54.890625 23.390625 
Q 54.890625 11.625 47.5625 5.09375 
Q 40.234375 -1.421875 26.90625 -1.421875 
Q 22.3125 -1.421875 17.546875 -0.640625 
Q 12.796875 0.140625 7.71875 1.703125 
L 7.71875 11.625 
Q 12.109375 9.234375 16.796875 8.0625 
Q 21.484375 6.890625 26.703125 6.890625 
Q 35.15625 6.890625 40.078125 11.328125 
Q 45.015625 15.765625 45.015625 23.390625 
Q 45.015625 31 40.078125 35.4375 
Q 35.15625 39.890625 26.703125 39.890625 
Q 22.75 39.890625 18.8125 39.015625 
Q 14.890625 38.140625 10.796875 36.28125 
z
" id="DejaVuSans-53"/>
      </defs>
      <g style="fill:#262626;" transform="translate(100.547874 205.897812)scale(0.05 -0.05)">
       <use xlink:href="#DejaVuSans-49"/>
       <use x="63.623047" xlink:href="#DejaVuSans-53"/>
       <use x="127.246094" xlink:href="#DejaVuSans-32"/>
       <use x="159.033203" xlink:href="#DejaVuSans-70"/>
       <use x="211.052734" xlink:href="#DejaVuSans-101"/>
       <use x="272.576172" xlink:href="#DejaVuSans-98"/>
       <use x="336.052734" xlink:href="#DejaVuSans-32"/>
       <use x="367.839844" xlink:href="#DejaVuSans-50"/>
       <use x="431.462891" xlink:href="#DejaVuSans-48"/>
      </g>
     </g>
    </g>
    <g id="xtick_3">
     <g id="line2d_5">
      <path clip-path="url(#pc3af3f00b5)" d="M 165.858024 198.598594 
L 165.858024 20.038594 
" style="fill:none;stroke:#f3f3f3;stroke-dasharray:0.5,0.825;stroke-dashoffset:0;stroke-width:0.5;"/>
     </g>
     <g id="line2d_6">
      <g>
       <use style="fill:#262626;stroke:#262626;stroke-width:0.5;" x="165.858024" xlink:href="#mab9ad5da71" y="198.598594"/>
      </g>
     </g>
     <g id="text_3">
      <!-- 01 Mar 20 -->
      <defs>
       <path d="M 9.8125 72.90625 
L 24.515625 72.90625 
L 43.109375 23.296875 
L 61.8125 72.90625 
L 76.515625 72.90625 
L 76.515625 0 
L 66.890625 0 
L 66.890625 64.015625 
L 48.09375 14.015625 
L 38.1875 14.015625 
L 19.390625 64.015625 
L 19.390625 0 
L 9.8125 0 
z
" id="DejaVuSans-77"/>
       <path d="M 34.28125 27.484375 
Q 23.390625 27.484375 19.1875 25 
Q 14.984375 22.515625 14.984375 16.5 
Q 14.984375 11.71875 18.140625 8.90625 
Q 21.296875 6.109375 26.703125 6.109375 
Q 34.1875 6.109375 38.703125 11.40625 
Q 43.21875 16.703125 43.21875 25.484375 
L 43.21875 27.484375 
z
M 52.203125 31.203125 
L 52.203125 0 
L 43.21875 0 
L 43.21875 8.296875 
Q 40.140625 3.328125 35.546875 0.953125 
Q 30.953125 -1.421875 24.3125 -1.421875 
Q 15.921875 -1.421875 10.953125 3.296875 
Q 6 8.015625 6 15.921875 
Q 6 25.140625 12.171875 29.828125 
Q 18.359375 34.515625 30.609375 34.515625 
L 43.21875 34.515625 
L 43.21875 35.40625 
Q 43.21875 41.609375 39.140625 45 
Q 35.0625 48.390625 27.6875 48.390625 
Q 23 48.390625 18.546875 47.265625 
Q 14.109375 46.140625 10.015625 43.890625 
L 10.015625 52.203125 
Q 14.9375 54.109375 19.578125 55.046875 
Q 24.21875 56 28.609375 56 
Q 40.484375 56 46.34375 49.84375 
Q 52.203125 43.703125 52.203125 31.203125 
z
" id="DejaVuSans-97"/>
       <path d="M 41.109375 46.296875 
Q 39.59375 47.171875 37.8125 47.578125 
Q 36.03125 48 33.890625 48 
Q 26.265625 48 22.1875 43.046875 
Q 18.109375 38.09375 18.109375 28.8125 
L 18.109375 0 
L 9.078125 0 
L 9.078125 54.6875 
L 18.109375 54.6875 
L 18.109375 46.1875 
Q 20.953125 51.171875 25.484375 53.578125 
Q 30.03125 56 36.53125 56 
Q 37.453125 56 38.578125 55.875 
Q 39.703125 55.765625 41.0625 55.515625 
z
" id="DejaVuSans-114"/>
      </defs>
      <g style="fill:#262626;" transform="translate(153.189664 205.897812)scale(0.05 -0.05)">
       <use xlink:href="#DejaVuSans-48"/>
       <use x="63.623047" xlink:href="#DejaVuSans-49"/>
       <use x="127.246094" xlink:href="#DejaVuSans-32"/>
       <use x="159.033203" xlink:href="#DejaVuSans-77"/>
       <use x="245.3125" xlink:href="#DejaVuSans-97"/>
       <use x="306.591797" xlink:href="#DejaVuSans-114"/>
       <use x="347.705078" xlink:href="#DejaVuSans-32"/>
       <use x="379.492188" xlink:href="#DejaVuSans-50"/>
       <use x="443.115234" xlink:href="#DejaVuSans-48"/>
      </g>
     </g>
    </g>
    <g id="xtick_4">
     <g id="line2d_7">
      <path clip-path="url(#pc3af3f00b5)" d="M 215.261976 198.598594 
L 215.261976 20.038594 
" style="fill:none;stroke:#f3f3f3;stroke-dasharray:0.5,0.825;stroke-dashoffset:0;stroke-width:0.5;"/>
     </g>
     <g id="line2d_8">
      <g>
       <use style="fill:#262626;stroke:#262626;stroke-width:0.5;" x="215.261976" xlink:href="#mab9ad5da71" y="198.598594"/>
      </g>
     </g>
     <g id="text_4">
      <!-- 15 Mar 20 -->
      <g style="fill:#262626;" transform="translate(202.593617 205.897812)scale(0.05 -0.05)">
       <use xlink:href="#DejaVuSans-49"/>
       <use x="63.623047" xlink:href="#DejaVuSans-53"/>
       <use x="127.246094" xlink:href="#DejaVuSans-32"/>
       <use x="159.033203" xlink:href="#DejaVuSans-77"/>
       <use x="245.3125" xlink:href="#DejaVuSans-97"/>
       <use x="306.591797" xlink:href="#DejaVuSans-114"/>
       <use x="347.705078" xlink:href="#DejaVuSans-32"/>
       <use x="379.492188" xlink:href="#DejaVuSans-50"/>
       <use x="443.115234" xlink:href="#DejaVuSans-48"/>
      </g>
     </g>
    </g>
    <g id="xtick_5">
     <g id="line2d_9">
      <path clip-path="url(#pc3af3f00b5)" d="M 275.25249 198.598594 
L 275.25249 20.038594 
" style="fill:none;stroke:#f3f3f3;stroke-dasharray:0.5,0.825;stroke-dashoffset:0;stroke-width:0.5;"/>
     </g>
     <g id="line2d_10">
      <g>
       <use style="fill:#262626;stroke:#262626;stroke-width:0.5;" x="275.25249" xlink:href="#mab9ad5da71" y="198.598594"/>
      </g>
     </g>
     <g id="text_5">
      <!-- 01 Apr 20 -->
      <defs>
       <path d="M 34.1875 63.1875 
L 20.796875 26.90625 
L 47.609375 26.90625 
z
M 28.609375 72.90625 
L 39.796875 72.90625 
L 67.578125 0 
L 57.328125 0 
L 50.6875 18.703125 
L 17.828125 18.703125 
L 11.1875 0 
L 0.78125 0 
z
" id="DejaVuSans-65"/>
       <path d="M 18.109375 8.203125 
L 18.109375 -20.796875 
L 9.078125 -20.796875 
L 9.078125 54.6875 
L 18.109375 54.6875 
L 18.109375 46.390625 
Q 20.953125 51.265625 25.265625 53.625 
Q 29.59375 56 35.59375 56 
Q 45.5625 56 51.78125 48.09375 
Q 58.015625 40.1875 58.015625 27.296875 
Q 58.015625 14.40625 51.78125 6.484375 
Q 45.5625 -1.421875 35.59375 -1.421875 
Q 29.59375 -1.421875 25.265625 0.953125 
Q 20.953125 3.328125 18.109375 8.203125 
z
M 48.6875 27.296875 
Q 48.6875 37.203125 44.609375 42.84375 
Q 40.53125 48.484375 33.40625 48.484375 
Q 26.265625 48.484375 22.1875 42.84375 
Q 18.109375 37.203125 18.109375 27.296875 
Q 18.109375 17.390625 22.1875 11.75 
Q 26.265625 6.109375 33.40625 6.109375 
Q 40.53125 6.109375 44.609375 11.75 
Q 48.6875 17.390625 48.6875 27.296875 
z
" id="DejaVuSans-112"/>
      </defs>
      <g style="fill:#262626;" transform="translate(262.975928 205.897812)scale(0.05 -0.05)">
       <use xlink:href="#DejaVuSans-48"/>
       <use x="63.623047" xlink:href="#DejaVuSans-49"/>
       <use x="127.246094" xlink:href="#DejaVuSans-32"/>
       <use x="159.033203" xlink:href="#DejaVuSans-65"/>
       <use x="227.441406" xlink:href="#DejaVuSans-112"/>
       <use x="290.917969" xlink:href="#DejaVuSans-114"/>
       <use x="332.03125" xlink:href="#DejaVuSans-32"/>
       <use x="363.818359" xlink:href="#DejaVuSans-50"/>
       <use x="427.441406" xlink:href="#DejaVuSans-48"/>
      </g>
     </g>
    </g>
    <g id="xtick_6">
     <g id="line2d_11">
      <path clip-path="url(#pc3af3f00b5)" d="M 324.656443 198.598594 
L 324.656443 20.038594 
" style="fill:none;stroke:#f3f3f3;stroke-dasharray:0.5,0.825;stroke-dashoffset:0;stroke-width:0.5;"/>
     </g>
     <g id="line2d_12">
      <g>
       <use style="fill:#262626;stroke:#262626;stroke-width:0.5;" x="324.656443" xlink:href="#mab9ad5da71" y="198.598594"/>
      </g>
     </g>
     <g id="text_6">
      <!-- 15 Apr 20 -->
      <g style="fill:#262626;" transform="translate(312.37988 205.897812)scale(0.05 -0.05)">
       <use xlink:href="#DejaVuSans-49"/>
       <use x="63.623047" xlink:href="#DejaVuSans-53"/>
       <use x="127.246094" xlink:href="#DejaVuSans-32"/>
       <use x="159.033203" xlink:href="#DejaVuSans-65"/>
       <use x="227.441406" xlink:href="#DejaVuSans-112"/>
       <use x="290.917969" xlink:href="#DejaVuSans-114"/>
       <use x="332.03125" xlink:href="#DejaVuSans-32"/>
       <use x="363.818359" xlink:href="#DejaVuSans-50"/>
       <use x="427.441406" xlink:href="#DejaVuSans-48"/>
      </g>
     </g>
    </g>
    <g id="xtick_7">
     <g id="line2d_13">
      <path clip-path="url(#pc3af3f00b5)" d="M 352.887273 198.598594 
L 352.887273 20.038594 
" style="fill:none;stroke:#f3f3f3;stroke-dasharray:0.5,0.825;stroke-dashoffset:0;stroke-width:0.5;"/>
     </g>
     <g id="line2d_14">
      <g>
       <use style="fill:#262626;stroke:#262626;stroke-width:0.5;" x="352.887273" xlink:href="#mab9ad5da71" y="198.598594"/>
      </g>
     </g>
     <g id="text_7">
      <!-- 23 Apr 20 -->
      <defs>
       <path d="M 40.578125 39.3125 
Q 47.65625 37.796875 51.625 33 
Q 55.609375 28.21875 55.609375 21.1875 
Q 55.609375 10.40625 48.1875 4.484375 
Q 40.765625 -1.421875 27.09375 -1.421875 
Q 22.515625 -1.421875 17.65625 -0.515625 
Q 12.796875 0.390625 7.625 2.203125 
L 7.625 11.71875 
Q 11.71875 9.328125 16.59375 8.109375 
Q 21.484375 6.890625 26.8125 6.890625 
Q 36.078125 6.890625 40.9375 10.546875 
Q 45.796875 14.203125 45.796875 21.1875 
Q 45.796875 27.640625 41.28125 31.265625 
Q 36.765625 34.90625 28.71875 34.90625 
L 20.21875 34.90625 
L 20.21875 43.015625 
L 29.109375 43.015625 
Q 36.375 43.015625 40.234375 45.921875 
Q 44.09375 48.828125 44.09375 54.296875 
Q 44.09375 59.90625 40.109375 62.90625 
Q 36.140625 65.921875 28.71875 65.921875 
Q 24.65625 65.921875 20.015625 65.03125 
Q 15.375 64.15625 9.8125 62.3125 
L 9.8125 71.09375 
Q 15.4375 72.65625 20.34375 73.4375 
Q 25.25 74.21875 29.59375 74.21875 
Q 40.828125 74.21875 47.359375 69.109375 
Q 53.90625 64.015625 53.90625 55.328125 
Q 53.90625 49.265625 50.4375 45.09375 
Q 46.96875 40.921875 40.578125 39.3125 
z
" id="DejaVuSans-51"/>
      </defs>
      <g style="fill:#262626;" transform="translate(340.61071 205.897812)scale(0.05 -0.05)">
       <use xlink:href="#DejaVuSans-50"/>
       <use x="63.623047" xlink:href="#DejaVuSans-51"/>
       <use x="127.246094" xlink:href="#DejaVuSans-32"/>
       <use x="159.033203" xlink:href="#DejaVuSans-65"/>
       <use x="227.441406" xlink:href="#DejaVuSans-112"/>
       <use x="290.917969" xlink:href="#DejaVuSans-114"/>
       <use x="332.03125" xlink:href="#DejaVuSans-32"/>
       <use x="363.818359" xlink:href="#DejaVuSans-50"/>
       <use x="427.441406" xlink:href="#DejaVuSans-48"/>
      </g>
     </g>
    </g>
   </g>
   <g id="line2d_15">
    <path clip-path="url(#pc3af3f00b5)" d="M 28.232727 190.48223 
L 31.761581 190.48223 
L 35.290435 190.48223 
L 38.819289 190.48223 
L 42.348142 190.48223 
L 45.876996 190.48223 
L 49.40585 190.48223 
L 52.934704 190.48223 
L 56.463557 190.475196 
L 59.992411 190.475196 
L 63.521265 190.475196 
L 67.050119 190.468162 
L 70.578972 190.461128 
L 74.107826 190.461128 
L 77.63668 190.461128 
L 81.165534 190.461128 
L 84.694387 190.461128 
L 88.223241 190.461128 
L 91.752095 190.461128 
L 95.280949 190.461128 
L 98.809802 190.461128 
L 102.338656 190.461128 
L 105.86751 190.461128 
L 109.396364 190.461128 
L 112.925217 190.461128 
L 116.454071 190.461128 
L 119.982925 190.461128 
L 123.511779 190.461128 
L 127.040632 190.461128 
L 130.569486 190.461128 
L 134.09834 190.461128 
L 137.627194 190.461128 
L 141.156047 190.461128 
L 144.684901 190.461128 
L 148.213755 190.461128 
L 151.742609 190.461128 
L 155.271462 190.461128 
L 158.800316 190.461128 
L 162.32917 190.461128 
L 165.858024 190.461128 
L 169.386877 190.447059 
L 172.915731 190.447059 
L 176.444585 190.285274 
L 179.973439 190.271205 
L 183.502292 190.264171 
L 187.031146 190.243069 
L 190.56 190.207898 
L 194.088854 190.179761 
L 197.617708 190.088317 
L 201.146561 190.046112 
L 204.675415 189.968737 
L 208.204269 189.905429 
L 211.733123 189.764746 
L 215.261976 189.68737 
L 218.79083 189.645165 
L 222.319684 189.48338 
L 225.848538 189.384901 
L 229.377391 189.117603 
L 232.906245 188.765895 
L 236.435099 188.160958 
L 239.963953 187.696703 
L 243.492806 186.972185 
L 247.02166 186.711921 
L 250.550514 185.860788 
L 254.079368 185.368397 
L 257.608221 184.242932 
L 261.137075 183.539516 
L 264.665929 183.279252 
L 268.194783 181.682498 
L 271.723636 180.655511 
L 275.25249 176.427982 
L 278.781344 172.594365 
L 282.310198 172.425546 
L 285.839051 168.802954 
L 289.367905 165.24367 
L 292.896759 156.873021 
L 296.425613 153.123815 
L 299.954466 148.868149 
L 303.48332 143.177515 
L 307.012174 137.036695 
L 310.541028 131.071729 
L 314.069881 125.732802 
L 317.598735 116.954173 
L 321.127589 109.680853 
L 324.656443 103.807331 
L 328.185296 96.013483 
L 331.71415 89.527989 
L 335.243004 79.891192 
L 338.771858 66.57553 
L 342.300711 60.075968 
L 345.829565 49.23633 
L 349.358419 40.162266 
L 352.887273 28.154957 
" style="fill:none;stroke:#ffa500;stroke-linecap:round;stroke-width:1.5;"/>
    <defs>
     <path d="M 0 1.5 
C 0.397805 1.5 0.77937 1.341951 1.06066 1.06066 
C 1.341951 0.77937 1.5 0.397805 1.5 0 
C 1.5 -0.397805 1.341951 -0.77937 1.06066 -1.06066 
C 0.77937 -1.341951 0.397805 -1.5 0 -1.5 
C -0.397805 -1.5 -0.77937 -1.341951 -1.06066 -1.06066 
C -1.341951 -0.77937 -1.5 -0.397805 -1.5 0 
C -1.5 0.397805 -1.341951 0.77937 -1.06066 1.06066 
C -0.77937 1.341951 -0.397805 1.5 0 1.5 
z
" id="m0eb4023a07" style="stroke:#ffffff;stroke-width:0.25;"/>
    </defs>
    <g clip-path="url(#pc3af3f00b5)">
     <use style="fill:#ffa500;stroke:#ffffff;stroke-width:0.25;" x="28.232727" xlink:href="#m0eb4023a07" y="190.48223"/>
     <use style="fill:#ffa500;stroke:#ffffff;stroke-width:0.25;" x="31.761581" xlink:href="#m0eb4023a07" y="190.48223"/>
     <use style="fill:#ffa500;stroke:#ffffff;stroke-width:0.25;" x="35.290435" xlink:href="#m0eb4023a07" y="190.48223"/>
     <use style="fill:#ffa500;stroke:#ffffff;stroke-width:0.25;" x="38.819289" xlink:href="#m0eb4023a07" y="190.48223"/>
     <use style="fill:#ffa500;stroke:#ffffff;stroke-width:0.25;" x="42.348142" xlink:href="#m0eb4023a07" y="190.48223"/>
     <use style="fill:#ffa500;stroke:#ffffff;stroke-width:0.25;" x="45.876996" xlink:href="#m0eb4023a07" y="190.48223"/>
     <use style="fill:#ffa500;stroke:#ffffff;stroke-width:0.25;" x="49.40585" xlink:href="#m0eb4023a07" y="190.48223"/>
     <use style="fill:#ffa500;stroke:#ffffff;stroke-width:0.25;" x="52.934704" xlink:href="#m0eb4023a07" y="190.48223"/>
     <use style="fill:#ffa500;stroke:#ffffff;stroke-width:0.25;" x="56.463557" xlink:href="#m0eb4023a07" y="190.475196"/>
     <use style="fill:#ffa500;stroke:#ffffff;stroke-width:0.25;" x="59.992411" xlink:href="#m0eb4023a07" y="190.475196"/>
     <use style="fill:#ffa500;stroke:#ffffff;stroke-width:0.25;" x="63.521265" xlink:href="#m0eb4023a07" y="190.475196"/>
     <use style="fill:#ffa500;stroke:#ffffff;stroke-width:0.25;" x="67.050119" xlink:href="#m0eb4023a07" y="190.468162"/>
     <use style="fill:#ffa500;stroke:#ffffff;stroke-width:0.25;" x="70.578972" xlink:href="#m0eb4023a07" y="190.461128"/>
     <use style="fill:#ffa500;stroke:#ffffff;stroke-width:0.25;" x="74.107826" xlink:href="#m0eb4023a07" y="190.461128"/>
     <use style="fill:#ffa500;stroke:#ffffff;stroke-width:0.25;" x="77.63668" xlink:href="#m0eb4023a07" y="190.461128"/>
     <use style="fill:#ffa500;stroke:#ffffff;stroke-width:0.25;" x="81.165534" xlink:href="#m0eb4023a07" y="190.461128"/>
     <use style="fill:#ffa500;stroke:#ffffff;stroke-width:0.25;" x="84.694387" xlink:href="#m0eb4023a07" y="190.461128"/>
     <use style="fill:#ffa500;stroke:#ffffff;stroke-width:0.25;" x="88.223241" xlink:href="#m0eb4023a07" y="190.461128"/>
     <use style="fill:#ffa500;stroke:#ffffff;stroke-width:0.25;" x="91.752095" xlink:href="#m0eb4023a07" y="190.461128"/>
     <use style="fill:#ffa500;stroke:#ffffff;stroke-width:0.25;" x="95.280949" xlink:href="#m0eb4023a07" y="190.461128"/>
     <use style="fill:#ffa500;stroke:#ffffff;stroke-width:0.25;" x="98.809802" xlink:href="#m0eb4023a07" y="190.461128"/>
     <use style="fill:#ffa500;stroke:#ffffff;stroke-width:0.25;" x="102.338656" xlink:href="#m0eb4023a07" y="190.461128"/>
     <use style="fill:#ffa500;stroke:#ffffff;stroke-width:0.25;" x="105.86751" xlink:href="#m0eb4023a07" y="190.461128"/>
     <use style="fill:#ffa500;stroke:#ffffff;stroke-width:0.25;" x="109.396364" xlink:href="#m0eb4023a07" y="190.461128"/>
     <use style="fill:#ffa500;stroke:#ffffff;stroke-width:0.25;" x="112.925217" xlink:href="#m0eb4023a07" y="190.461128"/>
     <use style="fill:#ffa500;stroke:#ffffff;stroke-width:0.25;" x="116.454071" xlink:href="#m0eb4023a07" y="190.461128"/>
     <use style="fill:#ffa500;stroke:#ffffff;stroke-width:0.25;" x="119.982925" xlink:href="#m0eb4023a07" y="190.461128"/>
     <use style="fill:#ffa500;stroke:#ffffff;stroke-width:0.25;" x="123.511779" xlink:href="#m0eb4023a07" y="190.461128"/>
     <use style="fill:#ffa500;stroke:#ffffff;stroke-width:0.25;" x="127.040632" xlink:href="#m0eb4023a07" y="190.461128"/>
     <use style="fill:#ffa500;stroke:#ffffff;stroke-width:0.25;" x="130.569486" xlink:href="#m0eb4023a07" y="190.461128"/>
     <use style="fill:#ffa500;stroke:#ffffff;stroke-width:0.25;" x="134.09834" xlink:href="#m0eb4023a07" y="190.461128"/>
     <use style="fill:#ffa500;stroke:#ffffff;stroke-width:0.25;" x="137.627194" xlink:href="#m0eb4023a07" y="190.461128"/>
     <use style="fill:#ffa500;stroke:#ffffff;stroke-width:0.25;" x="141.156047" xlink:href="#m0eb4023a07" y="190.461128"/>
     <use style="fill:#ffa500;stroke:#ffffff;stroke-width:0.25;" x="144.684901" xlink:href="#m0eb4023a07" y="190.461128"/>
     <use style="fill:#ffa500;stroke:#ffffff;stroke-width:0.25;" x="148.213755" xlink:href="#m0eb4023a07" y="190.461128"/>
     <use style="fill:#ffa500;stroke:#ffffff;stroke-width:0.25;" x="151.742609" xlink:href="#m0eb4023a07" y="190.461128"/>
     <use style="fill:#ffa500;stroke:#ffffff;stroke-width:0.25;" x="155.271462" xlink:href="#m0eb4023a07" y="190.461128"/>
     <use style="fill:#ffa500;stroke:#ffffff;stroke-width:0.25;" x="158.800316" xlink:href="#m0eb4023a07" y="190.461128"/>
     <use style="fill:#ffa500;stroke:#ffffff;stroke-width:0.25;" x="162.32917" xlink:href="#m0eb4023a07" y="190.461128"/>
     <use style="fill:#ffa500;stroke:#ffffff;stroke-width:0.25;" x="165.858024" xlink:href="#m0eb4023a07" y="190.461128"/>
     <use style="fill:#ffa500;stroke:#ffffff;stroke-width:0.25;" x="169.386877" xlink:href="#m0eb4023a07" y="190.447059"/>
     <use style="fill:#ffa500;stroke:#ffffff;stroke-width:0.25;" x="172.915731" xlink:href="#m0eb4023a07" y="190.447059"/>
     <use style="fill:#ffa500;stroke:#ffffff;stroke-width:0.25;" x="176.444585" xlink:href="#m0eb4023a07" y="190.285274"/>
     <use style="fill:#ffa500;stroke:#ffffff;stroke-width:0.25;" x="179.973439" xlink:href="#m0eb4023a07" y="190.271205"/>
     <use style="fill:#ffa500;stroke:#ffffff;stroke-width:0.25;" x="183.502292" xlink:href="#m0eb4023a07" y="190.264171"/>
     <use style="fill:#ffa500;stroke:#ffffff;stroke-width:0.25;" x="187.031146" xlink:href="#m0eb4023a07" y="190.243069"/>
     <use style="fill:#ffa500;stroke:#ffffff;stroke-width:0.25;" x="190.56" xlink:href="#m0eb4023a07" y="190.207898"/>
     <use style="fill:#ffa500;stroke:#ffffff;stroke-width:0.25;" x="194.088854" xlink:href="#m0eb4023a07" y="190.179761"/>
     <use style="fill:#ffa500;stroke:#ffffff;stroke-width:0.25;" x="197.617708" xlink:href="#m0eb4023a07" y="190.088317"/>
     <use style="fill:#ffa500;stroke:#ffffff;stroke-width:0.25;" x="201.146561" xlink:href="#m0eb4023a07" y="190.046112"/>
     <use style="fill:#ffa500;stroke:#ffffff;stroke-width:0.25;" x="204.675415" xlink:href="#m0eb4023a07" y="189.968737"/>
     <use style="fill:#ffa500;stroke:#ffffff;stroke-width:0.25;" x="208.204269" xlink:href="#m0eb4023a07" y="189.905429"/>
     <use style="fill:#ffa500;stroke:#ffffff;stroke-width:0.25;" x="211.733123" xlink:href="#m0eb4023a07" y="189.764746"/>
     <use style="fill:#ffa500;stroke:#ffffff;stroke-width:0.25;" x="215.261976" xlink:href="#m0eb4023a07" y="189.68737"/>
     <use style="fill:#ffa500;stroke:#ffffff;stroke-width:0.25;" x="218.79083" xlink:href="#m0eb4023a07" y="189.645165"/>
     <use style="fill:#ffa500;stroke:#ffffff;stroke-width:0.25;" x="222.319684" xlink:href="#m0eb4023a07" y="189.48338"/>
     <use style="fill:#ffa500;stroke:#ffffff;stroke-width:0.25;" x="225.848538" xlink:href="#m0eb4023a07" y="189.384901"/>
     <use style="fill:#ffa500;stroke:#ffffff;stroke-width:0.25;" x="229.377391" xlink:href="#m0eb4023a07" y="189.117603"/>
     <use style="fill:#ffa500;stroke:#ffffff;stroke-width:0.25;" x="232.906245" xlink:href="#m0eb4023a07" y="188.765895"/>
     <use style="fill:#ffa500;stroke:#ffffff;stroke-width:0.25;" x="236.435099" xlink:href="#m0eb4023a07" y="188.160958"/>
     <use style="fill:#ffa500;stroke:#ffffff;stroke-width:0.25;" x="239.963953" xlink:href="#m0eb4023a07" y="187.696703"/>
     <use style="fill:#ffa500;stroke:#ffffff;stroke-width:0.25;" x="243.492806" xlink:href="#m0eb4023a07" y="186.972185"/>
     <use style="fill:#ffa500;stroke:#ffffff;stroke-width:0.25;" x="247.02166" xlink:href="#m0eb4023a07" y="186.711921"/>
     <use style="fill:#ffa500;stroke:#ffffff;stroke-width:0.25;" x="250.550514" xlink:href="#m0eb4023a07" y="185.860788"/>
     <use style="fill:#ffa500;stroke:#ffffff;stroke-width:0.25;" x="254.079368" xlink:href="#m0eb4023a07" y="185.368397"/>
     <use style="fill:#ffa500;stroke:#ffffff;stroke-width:0.25;" x="257.608221" xlink:href="#m0eb4023a07" y="184.242932"/>
     <use style="fill:#ffa500;stroke:#ffffff;stroke-width:0.25;" x="261.137075" xlink:href="#m0eb4023a07" y="183.539516"/>
     <use style="fill:#ffa500;stroke:#ffffff;stroke-width:0.25;" x="264.665929" xlink:href="#m0eb4023a07" y="183.279252"/>
     <use style="fill:#ffa500;stroke:#ffffff;stroke-width:0.25;" x="268.194783" xlink:href="#m0eb4023a07" y="181.682498"/>
     <use style="fill:#ffa500;stroke:#ffffff;stroke-width:0.25;" x="271.723636" xlink:href="#m0eb4023a07" y="180.655511"/>
     <use style="fill:#ffa500;stroke:#ffffff;stroke-width:0.25;" x="275.25249" xlink:href="#m0eb4023a07" y="176.427982"/>
     <use style="fill:#ffa500;stroke:#ffffff;stroke-width:0.25;" x="278.781344" xlink:href="#m0eb4023a07" y="172.594365"/>
     <use style="fill:#ffa500;stroke:#ffffff;stroke-width:0.25;" x="282.310198" xlink:href="#m0eb4023a07" y="172.425546"/>
     <use style="fill:#ffa500;stroke:#ffffff;stroke-width:0.25;" x="285.839051" xlink:href="#m0eb4023a07" y="168.802954"/>
     <use style="fill:#ffa500;stroke:#ffffff;stroke-width:0.25;" x="289.367905" xlink:href="#m0eb4023a07" y="165.24367"/>
     <use style="fill:#ffa500;stroke:#ffffff;stroke-width:0.25;" x="292.896759" xlink:href="#m0eb4023a07" y="156.873021"/>
     <use style="fill:#ffa500;stroke:#ffffff;stroke-width:0.25;" x="296.425613" xlink:href="#m0eb4023a07" y="153.123815"/>
     <use style="fill:#ffa500;stroke:#ffffff;stroke-width:0.25;" x="299.954466" xlink:href="#m0eb4023a07" y="148.868149"/>
     <use style="fill:#ffa500;stroke:#ffffff;stroke-width:0.25;" x="303.48332" xlink:href="#m0eb4023a07" y="143.177515"/>
     <use style="fill:#ffa500;stroke:#ffffff;stroke-width:0.25;" x="307.012174" xlink:href="#m0eb4023a07" y="137.036695"/>
     <use style="fill:#ffa500;stroke:#ffffff;stroke-width:0.25;" x="310.541028" xlink:href="#m0eb4023a07" y="131.071729"/>
     <use style="fill:#ffa500;stroke:#ffffff;stroke-width:0.25;" x="314.069881" xlink:href="#m0eb4023a07" y="125.732802"/>
     <use style="fill:#ffa500;stroke:#ffffff;stroke-width:0.25;" x="317.598735" xlink:href="#m0eb4023a07" y="116.954173"/>
     <use style="fill:#ffa500;stroke:#ffffff;stroke-width:0.25;" x="321.127589" xlink:href="#m0eb4023a07" y="109.680853"/>
     <use style="fill:#ffa500;stroke:#ffffff;stroke-width:0.25;" x="324.656443" xlink:href="#m0eb4023a07" y="103.807331"/>
     <use style="fill:#ffa500;stroke:#ffffff;stroke-width:0.25;" x="328.185296" xlink:href="#m0eb4023a07" y="96.013483"/>
     <use style="fill:#ffa500;stroke:#ffffff;stroke-width:0.25;" x="331.71415" xlink:href="#m0eb4023a07" y="89.527989"/>
     <use style="fill:#ffa500;stroke:#ffffff;stroke-width:0.25;" x="335.243004" xlink:href="#m0eb4023a07" y="79.891192"/>
     <use style="fill:#ffa500;stroke:#ffffff;stroke-width:0.25;" x="338.771858" xlink:href="#m0eb4023a07" y="66.57553"/>
     <use style="fill:#ffa500;stroke:#ffffff;stroke-width:0.25;" x="342.300711" xlink:href="#m0eb4023a07" y="60.075968"/>
     <use style="fill:#ffa500;stroke:#ffffff;stroke-width:0.25;" x="345.829565" xlink:href="#m0eb4023a07" y="49.23633"/>
     <use style="fill:#ffa500;stroke:#ffffff;stroke-width:0.25;" x="349.358419" xlink:href="#m0eb4023a07" y="40.162266"/>
     <use style="fill:#ffa500;stroke:#ffffff;stroke-width:0.25;" x="352.887273" xlink:href="#m0eb4023a07" y="28.154957"/>
    </g>
   </g>
   <g id="line2d_16">
    <path clip-path="url(#pc3af3f00b5)" d="M 28.232727 190.48223 
L 31.761581 190.48223 
L 35.290435 190.48223 
L 38.819289 190.48223 
L 42.348142 190.48223 
L 45.876996 190.48223 
L 49.40585 190.48223 
L 52.934704 190.48223 
L 56.463557 190.48223 
L 59.992411 190.48223 
L 63.521265 190.48223 
L 67.050119 190.48223 
L 70.578972 190.48223 
L 74.107826 190.48223 
L 77.63668 190.48223 
L 81.165534 190.48223 
L 84.694387 190.48223 
L 88.223241 190.48223 
L 91.752095 190.48223 
L 95.280949 190.48223 
L 98.809802 190.48223 
L 102.338656 190.48223 
L 105.86751 190.48223 
L 109.396364 190.48223 
L 112.925217 190.48223 
L 116.454071 190.461128 
L 119.982925 190.461128 
L 123.511779 190.461128 
L 127.040632 190.461128 
L 130.569486 190.461128 
L 134.09834 190.461128 
L 137.627194 190.461128 
L 141.156047 190.461128 
L 144.684901 190.461128 
L 148.213755 190.461128 
L 151.742609 190.461128 
L 155.271462 190.461128 
L 158.800316 190.461128 
L 162.32917 190.461128 
L 165.858024 190.461128 
L 169.386877 190.461128 
L 172.915731 190.461128 
L 176.444585 190.461128 
L 179.973439 190.461128 
L 183.502292 190.461128 
L 187.031146 190.461128 
L 190.56 190.461128 
L 194.088854 190.461128 
L 197.617708 190.454093 
L 201.146561 190.454093 
L 204.675415 190.454093 
L 208.204269 190.454093 
L 211.733123 190.454093 
L 215.261976 190.390786 
L 218.79083 190.390786 
L 222.319684 190.383752 
L 225.848538 190.383752 
L 229.377391 190.376718 
L 232.906245 190.341547 
L 236.435099 190.320444 
L 239.963953 190.292308 
L 243.492806 190.292308 
L 247.02166 190.200864 
L 250.550514 190.179761 
L 254.079368 190.165693 
L 257.608221 189.968737 
L 261.137075 189.891361 
L 264.665929 189.813985 
L 268.194783 189.764746 
L 271.723636 189.617029 
L 275.25249 189.441175 
L 278.781344 189.138706 
L 282.310198 189.131672 
L 285.839051 188.871408 
L 289.367905 188.871408 
L 292.896759 187.844421 
L 296.425613 187.520849 
L 299.954466 186.922946 
L 303.48332 186.121052 
L 307.012174 185.037792 
L 310.541028 183.666131 
L 314.069881 182.885339 
L 317.598735 182.174889 
L 321.127589 180.922809 
L 324.656443 180.409315 
L 328.185296 178.045838 
L 331.71415 176.125513 
L 335.243004 173.157098 
L 338.771858 170.406742 
L 342.300711 167.45943 
L 345.829565 162.521451 
L 349.358419 159.742958 
L 352.887273 155.227028 
" style="fill:none;stroke:#008000;stroke-linecap:round;stroke-width:1.5;"/>
    <defs>
     <path d="M -0 2.12132 
L 1.272792 0 
L 0 -2.12132 
L -1.272792 -0 
z
" id="mb475b4d168" style="stroke:#ffffff;stroke-linejoin:miter;stroke-width:0.25;"/>
    </defs>
    <g clip-path="url(#pc3af3f00b5)">
     <use style="fill:#008000;stroke:#ffffff;stroke-linejoin:miter;stroke-width:0.25;" x="28.232727" xlink:href="#mb475b4d168" y="190.48223"/>
     <use style="fill:#008000;stroke:#ffffff;stroke-linejoin:miter;stroke-width:0.25;" x="31.761581" xlink:href="#mb475b4d168" y="190.48223"/>
     <use style="fill:#008000;stroke:#ffffff;stroke-linejoin:miter;stroke-width:0.25;" x="35.290435" xlink:href="#mb475b4d168" y="190.48223"/>
     <use style="fill:#008000;stroke:#ffffff;stroke-linejoin:miter;stroke-width:0.25;" x="38.819289" xlink:href="#mb475b4d168" y="190.48223"/>
     <use style="fill:#008000;stroke:#ffffff;stroke-linejoin:miter;stroke-width:0.25;" x="42.348142" xlink:href="#mb475b4d168" y="190.48223"/>
     <use style="fill:#008000;stroke:#ffffff;stroke-linejoin:miter;stroke-width:0.25;" x="45.876996" xlink:href="#mb475b4d168" y="190.48223"/>
     <use style="fill:#008000;stroke:#ffffff;stroke-linejoin:miter;stroke-width:0.25;" x="49.40585" xlink:href="#mb475b4d168" y="190.48223"/>
     <use style="fill:#008000;stroke:#ffffff;stroke-linejoin:miter;stroke-width:0.25;" x="52.934704" xlink:href="#mb475b4d168" y="190.48223"/>
     <use style="fill:#008000;stroke:#ffffff;stroke-linejoin:miter;stroke-width:0.25;" x="56.463557" xlink:href="#mb475b4d168" y="190.48223"/>
     <use style="fill:#008000;stroke:#ffffff;stroke-linejoin:miter;stroke-width:0.25;" x="59.992411" xlink:href="#mb475b4d168" y="190.48223"/>
     <use style="fill:#008000;stroke:#ffffff;stroke-linejoin:miter;stroke-width:0.25;" x="63.521265" xlink:href="#mb475b4d168" y="190.48223"/>
     <use style="fill:#008000;stroke:#ffffff;stroke-linejoin:miter;stroke-width:0.25;" x="67.050119" xlink:href="#mb475b4d168" y="190.48223"/>
     <use style="fill:#008000;stroke:#ffffff;stroke-linejoin:miter;stroke-width:0.25;" x="70.578972" xlink:href="#mb475b4d168" y="190.48223"/>
     <use style="fill:#008000;stroke:#ffffff;stroke-linejoin:miter;stroke-width:0.25;" x="74.107826" xlink:href="#mb475b4d168" y="190.48223"/>
     <use style="fill:#008000;stroke:#ffffff;stroke-linejoin:miter;stroke-width:0.25;" x="77.63668" xlink:href="#mb475b4d168" y="190.48223"/>
     <use style="fill:#008000;stroke:#ffffff;stroke-linejoin:miter;stroke-width:0.25;" x="81.165534" xlink:href="#mb475b4d168" y="190.48223"/>
     <use style="fill:#008000;stroke:#ffffff;stroke-linejoin:miter;stroke-width:0.25;" x="84.694387" xlink:href="#mb475b4d168" y="190.48223"/>
     <use style="fill:#008000;stroke:#ffffff;stroke-linejoin:miter;stroke-width:0.25;" x="88.223241" xlink:href="#mb475b4d168" y="190.48223"/>
     <use style="fill:#008000;stroke:#ffffff;stroke-linejoin:miter;stroke-width:0.25;" x="91.752095" xlink:href="#mb475b4d168" y="190.48223"/>
     <use style="fill:#008000;stroke:#ffffff;stroke-linejoin:miter;stroke-width:0.25;" x="95.280949" xlink:href="#mb475b4d168" y="190.48223"/>
     <use style="fill:#008000;stroke:#ffffff;stroke-linejoin:miter;stroke-width:0.25;" x="98.809802" xlink:href="#mb475b4d168" y="190.48223"/>
     <use style="fill:#008000;stroke:#ffffff;stroke-linejoin:miter;stroke-width:0.25;" x="102.338656" xlink:href="#mb475b4d168" y="190.48223"/>
     <use style="fill:#008000;stroke:#ffffff;stroke-linejoin:miter;stroke-width:0.25;" x="105.86751" xlink:href="#mb475b4d168" y="190.48223"/>
     <use style="fill:#008000;stroke:#ffffff;stroke-linejoin:miter;stroke-width:0.25;" x="109.396364" xlink:href="#mb475b4d168" y="190.48223"/>
     <use style="fill:#008000;stroke:#ffffff;stroke-linejoin:miter;stroke-width:0.25;" x="112.925217" xlink:href="#mb475b4d168" y="190.48223"/>
     <use style="fill:#008000;stroke:#ffffff;stroke-linejoin:miter;stroke-width:0.25;" x="116.454071" xlink:href="#mb475b4d168" y="190.461128"/>
     <use style="fill:#008000;stroke:#ffffff;stroke-linejoin:miter;stroke-width:0.25;" x="119.982925" xlink:href="#mb475b4d168" y="190.461128"/>
     <use style="fill:#008000;stroke:#ffffff;stroke-linejoin:miter;stroke-width:0.25;" x="123.511779" xlink:href="#mb475b4d168" y="190.461128"/>
     <use style="fill:#008000;stroke:#ffffff;stroke-linejoin:miter;stroke-width:0.25;" x="127.040632" xlink:href="#mb475b4d168" y="190.461128"/>
     <use style="fill:#008000;stroke:#ffffff;stroke-linejoin:miter;stroke-width:0.25;" x="130.569486" xlink:href="#mb475b4d168" y="190.461128"/>
     <use style="fill:#008000;stroke:#ffffff;stroke-linejoin:miter;stroke-width:0.25;" x="134.09834" xlink:href="#mb475b4d168" y="190.461128"/>
     <use style="fill:#008000;stroke:#ffffff;stroke-linejoin:miter;stroke-width:0.25;" x="137.627194" xlink:href="#mb475b4d168" y="190.461128"/>
     <use style="fill:#008000;stroke:#ffffff;stroke-linejoin:miter;stroke-width:0.25;" x="141.156047" xlink:href="#mb475b4d168" y="190.461128"/>
     <use style="fill:#008000;stroke:#ffffff;stroke-linejoin:miter;stroke-width:0.25;" x="144.684901" xlink:href="#mb475b4d168" y="190.461128"/>
     <use style="fill:#008000;stroke:#ffffff;stroke-linejoin:miter;stroke-width:0.25;" x="148.213755" xlink:href="#mb475b4d168" y="190.461128"/>
     <use style="fill:#008000;stroke:#ffffff;stroke-linejoin:miter;stroke-width:0.25;" x="151.742609" xlink:href="#mb475b4d168" y="190.461128"/>
     <use style="fill:#008000;stroke:#ffffff;stroke-linejoin:miter;stroke-width:0.25;" x="155.271462" xlink:href="#mb475b4d168" y="190.461128"/>
     <use style="fill:#008000;stroke:#ffffff;stroke-linejoin:miter;stroke-width:0.25;" x="158.800316" xlink:href="#mb475b4d168" y="190.461128"/>
     <use style="fill:#008000;stroke:#ffffff;stroke-linejoin:miter;stroke-width:0.25;" x="162.32917" xlink:href="#mb475b4d168" y="190.461128"/>
     <use style="fill:#008000;stroke:#ffffff;stroke-linejoin:miter;stroke-width:0.25;" x="165.858024" xlink:href="#mb475b4d168" y="190.461128"/>
     <use style="fill:#008000;stroke:#ffffff;stroke-linejoin:miter;stroke-width:0.25;" x="169.386877" xlink:href="#mb475b4d168" y="190.461128"/>
     <use style="fill:#008000;stroke:#ffffff;stroke-linejoin:miter;stroke-width:0.25;" x="172.915731" xlink:href="#mb475b4d168" y="190.461128"/>
     <use style="fill:#008000;stroke:#ffffff;stroke-linejoin:miter;stroke-width:0.25;" x="176.444585" xlink:href="#mb475b4d168" y="190.461128"/>
     <use style="fill:#008000;stroke:#ffffff;stroke-linejoin:miter;stroke-width:0.25;" x="179.973439" xlink:href="#mb475b4d168" y="190.461128"/>
     <use style="fill:#008000;stroke:#ffffff;stroke-linejoin:miter;stroke-width:0.25;" x="183.502292" xlink:href="#mb475b4d168" y="190.461128"/>
     <use style="fill:#008000;stroke:#ffffff;stroke-linejoin:miter;stroke-width:0.25;" x="187.031146" xlink:href="#mb475b4d168" y="190.461128"/>
     <use style="fill:#008000;stroke:#ffffff;stroke-linejoin:miter;stroke-width:0.25;" x="190.56" xlink:href="#mb475b4d168" y="190.461128"/>
     <use style="fill:#008000;stroke:#ffffff;stroke-linejoin:miter;stroke-width:0.25;" x="194.088854" xlink:href="#mb475b4d168" y="190.461128"/>
     <use style="fill:#008000;stroke:#ffffff;stroke-linejoin:miter;stroke-width:0.25;" x="197.617708" xlink:href="#mb475b4d168" y="190.454093"/>
     <use style="fill:#008000;stroke:#ffffff;stroke-linejoin:miter;stroke-width:0.25;" x="201.146561" xlink:href="#mb475b4d168" y="190.454093"/>
     <use style="fill:#008000;stroke:#ffffff;stroke-linejoin:miter;stroke-width:0.25;" x="204.675415" xlink:href="#mb475b4d168" y="190.454093"/>
     <use style="fill:#008000;stroke:#ffffff;stroke-linejoin:miter;stroke-width:0.25;" x="208.204269" xlink:href="#mb475b4d168" y="190.454093"/>
     <use style="fill:#008000;stroke:#ffffff;stroke-linejoin:miter;stroke-width:0.25;" x="211.733123" xlink:href="#mb475b4d168" y="190.454093"/>
     <use style="fill:#008000;stroke:#ffffff;stroke-linejoin:miter;stroke-width:0.25;" x="215.261976" xlink:href="#mb475b4d168" y="190.390786"/>
     <use style="fill:#008000;stroke:#ffffff;stroke-linejoin:miter;stroke-width:0.25;" x="218.79083" xlink:href="#mb475b4d168" y="190.390786"/>
     <use style="fill:#008000;stroke:#ffffff;stroke-linejoin:miter;stroke-width:0.25;" x="222.319684" xlink:href="#mb475b4d168" y="190.383752"/>
     <use style="fill:#008000;stroke:#ffffff;stroke-linejoin:miter;stroke-width:0.25;" x="225.848538" xlink:href="#mb475b4d168" y="190.383752"/>
     <use style="fill:#008000;stroke:#ffffff;stroke-linejoin:miter;stroke-width:0.25;" x="229.377391" xlink:href="#mb475b4d168" y="190.376718"/>
     <use style="fill:#008000;stroke:#ffffff;stroke-linejoin:miter;stroke-width:0.25;" x="232.906245" xlink:href="#mb475b4d168" y="190.341547"/>
     <use style="fill:#008000;stroke:#ffffff;stroke-linejoin:miter;stroke-width:0.25;" x="236.435099" xlink:href="#mb475b4d168" y="190.320444"/>
     <use style="fill:#008000;stroke:#ffffff;stroke-linejoin:miter;stroke-width:0.25;" x="239.963953" xlink:href="#mb475b4d168" y="190.292308"/>
     <use style="fill:#008000;stroke:#ffffff;stroke-linejoin:miter;stroke-width:0.25;" x="243.492806" xlink:href="#mb475b4d168" y="190.292308"/>
     <use style="fill:#008000;stroke:#ffffff;stroke-linejoin:miter;stroke-width:0.25;" x="247.02166" xlink:href="#mb475b4d168" y="190.200864"/>
     <use style="fill:#008000;stroke:#ffffff;stroke-linejoin:miter;stroke-width:0.25;" x="250.550514" xlink:href="#mb475b4d168" y="190.179761"/>
     <use style="fill:#008000;stroke:#ffffff;stroke-linejoin:miter;stroke-width:0.25;" x="254.079368" xlink:href="#mb475b4d168" y="190.165693"/>
     <use style="fill:#008000;stroke:#ffffff;stroke-linejoin:miter;stroke-width:0.25;" x="257.608221" xlink:href="#mb475b4d168" y="189.968737"/>
     <use style="fill:#008000;stroke:#ffffff;stroke-linejoin:miter;stroke-width:0.25;" x="261.137075" xlink:href="#mb475b4d168" y="189.891361"/>
     <use style="fill:#008000;stroke:#ffffff;stroke-linejoin:miter;stroke-width:0.25;" x="264.665929" xlink:href="#mb475b4d168" y="189.813985"/>
     <use style="fill:#008000;stroke:#ffffff;stroke-linejoin:miter;stroke-width:0.25;" x="268.194783" xlink:href="#mb475b4d168" y="189.764746"/>
     <use style="fill:#008000;stroke:#ffffff;stroke-linejoin:miter;stroke-width:0.25;" x="271.723636" xlink:href="#mb475b4d168" y="189.617029"/>
     <use style="fill:#008000;stroke:#ffffff;stroke-linejoin:miter;stroke-width:0.25;" x="275.25249" xlink:href="#mb475b4d168" y="189.441175"/>
     <use style="fill:#008000;stroke:#ffffff;stroke-linejoin:miter;stroke-width:0.25;" x="278.781344" xlink:href="#mb475b4d168" y="189.138706"/>
     <use style="fill:#008000;stroke:#ffffff;stroke-linejoin:miter;stroke-width:0.25;" x="282.310198" xlink:href="#mb475b4d168" y="189.131672"/>
     <use style="fill:#008000;stroke:#ffffff;stroke-linejoin:miter;stroke-width:0.25;" x="285.839051" xlink:href="#mb475b4d168" y="188.871408"/>
     <use style="fill:#008000;stroke:#ffffff;stroke-linejoin:miter;stroke-width:0.25;" x="289.367905" xlink:href="#mb475b4d168" y="188.871408"/>
     <use style="fill:#008000;stroke:#ffffff;stroke-linejoin:miter;stroke-width:0.25;" x="292.896759" xlink:href="#mb475b4d168" y="187.844421"/>
     <use style="fill:#008000;stroke:#ffffff;stroke-linejoin:miter;stroke-width:0.25;" x="296.425613" xlink:href="#mb475b4d168" y="187.520849"/>
     <use style="fill:#008000;stroke:#ffffff;stroke-linejoin:miter;stroke-width:0.25;" x="299.954466" xlink:href="#mb475b4d168" y="186.922946"/>
     <use style="fill:#008000;stroke:#ffffff;stroke-linejoin:miter;stroke-width:0.25;" x="303.48332" xlink:href="#mb475b4d168" y="186.121052"/>
     <use style="fill:#008000;stroke:#ffffff;stroke-linejoin:miter;stroke-width:0.25;" x="307.012174" xlink:href="#mb475b4d168" y="185.037792"/>
     <use style="fill:#008000;stroke:#ffffff;stroke-linejoin:miter;stroke-width:0.25;" x="310.541028" xlink:href="#mb475b4d168" y="183.666131"/>
     <use style="fill:#008000;stroke:#ffffff;stroke-linejoin:miter;stroke-width:0.25;" x="314.069881" xlink:href="#mb475b4d168" y="182.885339"/>
     <use style="fill:#008000;stroke:#ffffff;stroke-linejoin:miter;stroke-width:0.25;" x="317.598735" xlink:href="#mb475b4d168" y="182.174889"/>
     <use style="fill:#008000;stroke:#ffffff;stroke-linejoin:miter;stroke-width:0.25;" x="321.127589" xlink:href="#mb475b4d168" y="180.922809"/>
     <use style="fill:#008000;stroke:#ffffff;stroke-linejoin:miter;stroke-width:0.25;" x="324.656443" xlink:href="#mb475b4d168" y="180.409315"/>
     <use style="fill:#008000;stroke:#ffffff;stroke-linejoin:miter;stroke-width:0.25;" x="328.185296" xlink:href="#mb475b4d168" y="178.045838"/>
     <use style="fill:#008000;stroke:#ffffff;stroke-linejoin:miter;stroke-width:0.25;" x="331.71415" xlink:href="#mb475b4d168" y="176.125513"/>
     <use style="fill:#008000;stroke:#ffffff;stroke-linejoin:miter;stroke-width:0.25;" x="335.243004" xlink:href="#mb475b4d168" y="173.157098"/>
     <use style="fill:#008000;stroke:#ffffff;stroke-linejoin:miter;stroke-width:0.25;" x="338.771858" xlink:href="#mb475b4d168" y="170.406742"/>
     <use style="fill:#008000;stroke:#ffffff;stroke-linejoin:miter;stroke-width:0.25;" x="342.300711" xlink:href="#mb475b4d168" y="167.45943"/>
     <use style="fill:#008000;stroke:#ffffff;stroke-linejoin:miter;stroke-width:0.25;" x="345.829565" xlink:href="#mb475b4d168" y="162.521451"/>
     <use style="fill:#008000;stroke:#ffffff;stroke-linejoin:miter;stroke-width:0.25;" x="349.358419" xlink:href="#mb475b4d168" y="159.742958"/>
     <use style="fill:#008000;stroke:#ffffff;stroke-linejoin:miter;stroke-width:0.25;" x="352.887273" xlink:href="#mb475b4d168" y="155.227028"/>
    </g>
   </g>
   <g id="line2d_17">
    <path clip-path="url(#pc3af3f00b5)" d="M 28.232727 190.48223 
L 31.761581 190.48223 
L 35.290435 190.48223 
L 38.819289 190.48223 
L 42.348142 190.48223 
L 45.876996 190.48223 
L 49.40585 190.48223 
L 52.934704 190.48223 
L 56.463557 190.48223 
L 59.992411 190.48223 
L 63.521265 190.48223 
L 67.050119 190.48223 
L 70.578972 190.48223 
L 74.107826 190.48223 
L 77.63668 190.48223 
L 81.165534 190.48223 
L 84.694387 190.48223 
L 88.223241 190.48223 
L 91.752095 190.48223 
L 95.280949 190.48223 
L 98.809802 190.48223 
L 102.338656 190.48223 
L 105.86751 190.48223 
L 109.396364 190.48223 
L 112.925217 190.48223 
L 116.454071 190.48223 
L 119.982925 190.48223 
L 123.511779 190.48223 
L 127.040632 190.48223 
L 130.569486 190.48223 
L 134.09834 190.48223 
L 137.627194 190.48223 
L 141.156047 190.48223 
L 144.684901 190.48223 
L 148.213755 190.48223 
L 151.742609 190.48223 
L 155.271462 190.48223 
L 158.800316 190.48223 
L 162.32917 190.48223 
L 165.858024 190.48223 
L 169.386877 190.48223 
L 172.915731 190.48223 
L 176.444585 190.48223 
L 179.973439 190.48223 
L 183.502292 190.48223 
L 187.031146 190.48223 
L 190.56 190.48223 
L 194.088854 190.48223 
L 197.617708 190.48223 
L 201.146561 190.475196 
L 204.675415 190.475196 
L 208.204269 190.468162 
L 211.733123 190.468162 
L 215.261976 190.468162 
L 218.79083 190.468162 
L 222.319684 190.461128 
L 225.848538 190.461128 
L 229.377391 190.454093 
L 232.906245 190.447059 
L 236.435099 190.454093 
L 239.963953 190.432991 
L 243.492806 190.411889 
L 247.02166 190.411889 
L 250.550514 190.39782 
L 254.079368 190.341547 
L 257.608221 190.341547 
L 261.137075 190.31341 
L 264.665929 190.292308 
L 268.194783 190.257137 
L 271.723636 190.236035 
L 275.25249 190.074249 
L 278.781344 189.975771 
L 282.310198 189.975771 
L 285.839051 189.877292 
L 289.367905 189.785848 
L 292.896759 189.525585 
L 296.425613 189.427106 
L 299.954466 189.23015 
L 303.48332 188.89251 
L 307.012174 188.751827 
L 310.541028 188.456393 
L 314.069881 188.153924 
L 317.598735 187.964001 
L 321.127589 187.717806 
L 324.656443 187.633396 
L 328.185296 187.330927 
L 331.71415 187.063629 
L 335.243004 186.817434 
L 338.771858 186.550136 
L 342.300711 186.318008 
L 345.829565 185.945198 
L 349.358419 185.691968 
L 352.887273 185.410602 
" style="fill:none;stroke:#ff0000;stroke-linecap:round;stroke-width:1.5;"/>
    <defs>
     <path d="M -0.75 1.5 
L 0 0.75 
L 0.75 1.5 
L 1.5 0.75 
L 0.75 0 
L 1.5 -0.75 
L 0.75 -1.5 
L 0 -0.75 
L -0.75 -1.5 
L -1.5 -0.75 
L -0.75 0 
L -1.5 0.75 
z
" id="m14faf205b4" style="stroke:#ffffff;stroke-linejoin:miter;stroke-width:0.25;"/>
    </defs>
    <g clip-path="url(#pc3af3f00b5)">
     <use style="fill:#ff0000;stroke:#ffffff;stroke-linejoin:miter;stroke-width:0.25;" x="28.232727" xlink:href="#m14faf205b4" y="190.48223"/>
     <use style="fill:#ff0000;stroke:#ffffff;stroke-linejoin:miter;stroke-width:0.25;" x="31.761581" xlink:href="#m14faf205b4" y="190.48223"/>
     <use style="fill:#ff0000;stroke:#ffffff;stroke-linejoin:miter;stroke-width:0.25;" x="35.290435" xlink:href="#m14faf205b4" y="190.48223"/>
     <use style="fill:#ff0000;stroke:#ffffff;stroke-linejoin:miter;stroke-width:0.25;" x="38.819289" xlink:href="#m14faf205b4" y="190.48223"/>
     <use style="fill:#ff0000;stroke:#ffffff;stroke-linejoin:miter;stroke-width:0.25;" x="42.348142" xlink:href="#m14faf205b4" y="190.48223"/>
     <use style="fill:#ff0000;stroke:#ffffff;stroke-linejoin:miter;stroke-width:0.25;" x="45.876996" xlink:href="#m14faf205b4" y="190.48223"/>
     <use style="fill:#ff0000;stroke:#ffffff;stroke-linejoin:miter;stroke-width:0.25;" x="49.40585" xlink:href="#m14faf205b4" y="190.48223"/>
     <use style="fill:#ff0000;stroke:#ffffff;stroke-linejoin:miter;stroke-width:0.25;" x="52.934704" xlink:href="#m14faf205b4" y="190.48223"/>
     <use style="fill:#ff0000;stroke:#ffffff;stroke-linejoin:miter;stroke-width:0.25;" x="56.463557" xlink:href="#m14faf205b4" y="190.48223"/>
     <use style="fill:#ff0000;stroke:#ffffff;stroke-linejoin:miter;stroke-width:0.25;" x="59.992411" xlink:href="#m14faf205b4" y="190.48223"/>
     <use style="fill:#ff0000;stroke:#ffffff;stroke-linejoin:miter;stroke-width:0.25;" x="63.521265" xlink:href="#m14faf205b4" y="190.48223"/>
     <use style="fill:#ff0000;stroke:#ffffff;stroke-linejoin:miter;stroke-width:0.25;" x="67.050119" xlink:href="#m14faf205b4" y="190.48223"/>
     <use style="fill:#ff0000;stroke:#ffffff;stroke-linejoin:miter;stroke-width:0.25;" x="70.578972" xlink:href="#m14faf205b4" y="190.48223"/>
     <use style="fill:#ff0000;stroke:#ffffff;stroke-linejoin:miter;stroke-width:0.25;" x="74.107826" xlink:href="#m14faf205b4" y="190.48223"/>
     <use style="fill:#ff0000;stroke:#ffffff;stroke-linejoin:miter;stroke-width:0.25;" x="77.63668" xlink:href="#m14faf205b4" y="190.48223"/>
     <use style="fill:#ff0000;stroke:#ffffff;stroke-linejoin:miter;stroke-width:0.25;" x="81.165534" xlink:href="#m14faf205b4" y="190.48223"/>
     <use style="fill:#ff0000;stroke:#ffffff;stroke-linejoin:miter;stroke-width:0.25;" x="84.694387" xlink:href="#m14faf205b4" y="190.48223"/>
     <use style="fill:#ff0000;stroke:#ffffff;stroke-linejoin:miter;stroke-width:0.25;" x="88.223241" xlink:href="#m14faf205b4" y="190.48223"/>
     <use style="fill:#ff0000;stroke:#ffffff;stroke-linejoin:miter;stroke-width:0.25;" x="91.752095" xlink:href="#m14faf205b4" y="190.48223"/>
     <use style="fill:#ff0000;stroke:#ffffff;stroke-linejoin:miter;stroke-width:0.25;" x="95.280949" xlink:href="#m14faf205b4" y="190.48223"/>
     <use style="fill:#ff0000;stroke:#ffffff;stroke-linejoin:miter;stroke-width:0.25;" x="98.809802" xlink:href="#m14faf205b4" y="190.48223"/>
     <use style="fill:#ff0000;stroke:#ffffff;stroke-linejoin:miter;stroke-width:0.25;" x="102.338656" xlink:href="#m14faf205b4" y="190.48223"/>
     <use style="fill:#ff0000;stroke:#ffffff;stroke-linejoin:miter;stroke-width:0.25;" x="105.86751" xlink:href="#m14faf205b4" y="190.48223"/>
     <use style="fill:#ff0000;stroke:#ffffff;stroke-linejoin:miter;stroke-width:0.25;" x="109.396364" xlink:href="#m14faf205b4" y="190.48223"/>
     <use style="fill:#ff0000;stroke:#ffffff;stroke-linejoin:miter;stroke-width:0.25;" x="112.925217" xlink:href="#m14faf205b4" y="190.48223"/>
     <use style="fill:#ff0000;stroke:#ffffff;stroke-linejoin:miter;stroke-width:0.25;" x="116.454071" xlink:href="#m14faf205b4" y="190.48223"/>
     <use style="fill:#ff0000;stroke:#ffffff;stroke-linejoin:miter;stroke-width:0.25;" x="119.982925" xlink:href="#m14faf205b4" y="190.48223"/>
     <use style="fill:#ff0000;stroke:#ffffff;stroke-linejoin:miter;stroke-width:0.25;" x="123.511779" xlink:href="#m14faf205b4" y="190.48223"/>
     <use style="fill:#ff0000;stroke:#ffffff;stroke-linejoin:miter;stroke-width:0.25;" x="127.040632" xlink:href="#m14faf205b4" y="190.48223"/>
     <use style="fill:#ff0000;stroke:#ffffff;stroke-linejoin:miter;stroke-width:0.25;" x="130.569486" xlink:href="#m14faf205b4" y="190.48223"/>
     <use style="fill:#ff0000;stroke:#ffffff;stroke-linejoin:miter;stroke-width:0.25;" x="134.09834" xlink:href="#m14faf205b4" y="190.48223"/>
     <use style="fill:#ff0000;stroke:#ffffff;stroke-linejoin:miter;stroke-width:0.25;" x="137.627194" xlink:href="#m14faf205b4" y="190.48223"/>
     <use style="fill:#ff0000;stroke:#ffffff;stroke-linejoin:miter;stroke-width:0.25;" x="141.156047" xlink:href="#m14faf205b4" y="190.48223"/>
     <use style="fill:#ff0000;stroke:#ffffff;stroke-linejoin:miter;stroke-width:0.25;" x="144.684901" xlink:href="#m14faf205b4" y="190.48223"/>
     <use style="fill:#ff0000;stroke:#ffffff;stroke-linejoin:miter;stroke-width:0.25;" x="148.213755" xlink:href="#m14faf205b4" y="190.48223"/>
     <use style="fill:#ff0000;stroke:#ffffff;stroke-linejoin:miter;stroke-width:0.25;" x="151.742609" xlink:href="#m14faf205b4" y="190.48223"/>
     <use style="fill:#ff0000;stroke:#ffffff;stroke-linejoin:miter;stroke-width:0.25;" x="155.271462" xlink:href="#m14faf205b4" y="190.48223"/>
     <use style="fill:#ff0000;stroke:#ffffff;stroke-linejoin:miter;stroke-width:0.25;" x="158.800316" xlink:href="#m14faf205b4" y="190.48223"/>
     <use style="fill:#ff0000;stroke:#ffffff;stroke-linejoin:miter;stroke-width:0.25;" x="162.32917" xlink:href="#m14faf205b4" y="190.48223"/>
     <use style="fill:#ff0000;stroke:#ffffff;stroke-linejoin:miter;stroke-width:0.25;" x="165.858024" xlink:href="#m14faf205b4" y="190.48223"/>
     <use style="fill:#ff0000;stroke:#ffffff;stroke-linejoin:miter;stroke-width:0.25;" x="169.386877" xlink:href="#m14faf205b4" y="190.48223"/>
     <use style="fill:#ff0000;stroke:#ffffff;stroke-linejoin:miter;stroke-width:0.25;" x="172.915731" xlink:href="#m14faf205b4" y="190.48223"/>
     <use style="fill:#ff0000;stroke:#ffffff;stroke-linejoin:miter;stroke-width:0.25;" x="176.444585" xlink:href="#m14faf205b4" y="190.48223"/>
     <use style="fill:#ff0000;stroke:#ffffff;stroke-linejoin:miter;stroke-width:0.25;" x="179.973439" xlink:href="#m14faf205b4" y="190.48223"/>
     <use style="fill:#ff0000;stroke:#ffffff;stroke-linejoin:miter;stroke-width:0.25;" x="183.502292" xlink:href="#m14faf205b4" y="190.48223"/>
     <use style="fill:#ff0000;stroke:#ffffff;stroke-linejoin:miter;stroke-width:0.25;" x="187.031146" xlink:href="#m14faf205b4" y="190.48223"/>
     <use style="fill:#ff0000;stroke:#ffffff;stroke-linejoin:miter;stroke-width:0.25;" x="190.56" xlink:href="#m14faf205b4" y="190.48223"/>
     <use style="fill:#ff0000;stroke:#ffffff;stroke-linejoin:miter;stroke-width:0.25;" x="194.088854" xlink:href="#m14faf205b4" y="190.48223"/>
     <use style="fill:#ff0000;stroke:#ffffff;stroke-linejoin:miter;stroke-width:0.25;" x="197.617708" xlink:href="#m14faf205b4" y="190.48223"/>
     <use style="fill:#ff0000;stroke:#ffffff;stroke-linejoin:miter;stroke-width:0.25;" x="201.146561" xlink:href="#m14faf205b4" y="190.475196"/>
     <use style="fill:#ff0000;stroke:#ffffff;stroke-linejoin:miter;stroke-width:0.25;" x="204.675415" xlink:href="#m14faf205b4" y="190.475196"/>
     <use style="fill:#ff0000;stroke:#ffffff;stroke-linejoin:miter;stroke-width:0.25;" x="208.204269" xlink:href="#m14faf205b4" y="190.468162"/>
     <use style="fill:#ff0000;stroke:#ffffff;stroke-linejoin:miter;stroke-width:0.25;" x="211.733123" xlink:href="#m14faf205b4" y="190.468162"/>
     <use style="fill:#ff0000;stroke:#ffffff;stroke-linejoin:miter;stroke-width:0.25;" x="215.261976" xlink:href="#m14faf205b4" y="190.468162"/>
     <use style="fill:#ff0000;stroke:#ffffff;stroke-linejoin:miter;stroke-width:0.25;" x="218.79083" xlink:href="#m14faf205b4" y="190.468162"/>
     <use style="fill:#ff0000;stroke:#ffffff;stroke-linejoin:miter;stroke-width:0.25;" x="222.319684" xlink:href="#m14faf205b4" y="190.461128"/>
     <use style="fill:#ff0000;stroke:#ffffff;stroke-linejoin:miter;stroke-width:0.25;" x="225.848538" xlink:href="#m14faf205b4" y="190.461128"/>
     <use style="fill:#ff0000;stroke:#ffffff;stroke-linejoin:miter;stroke-width:0.25;" x="229.377391" xlink:href="#m14faf205b4" y="190.454093"/>
     <use style="fill:#ff0000;stroke:#ffffff;stroke-linejoin:miter;stroke-width:0.25;" x="232.906245" xlink:href="#m14faf205b4" y="190.447059"/>
     <use style="fill:#ff0000;stroke:#ffffff;stroke-linejoin:miter;stroke-width:0.25;" x="236.435099" xlink:href="#m14faf205b4" y="190.454093"/>
     <use style="fill:#ff0000;stroke:#ffffff;stroke-linejoin:miter;stroke-width:0.25;" x="239.963953" xlink:href="#m14faf205b4" y="190.432991"/>
     <use style="fill:#ff0000;stroke:#ffffff;stroke-linejoin:miter;stroke-width:0.25;" x="243.492806" xlink:href="#m14faf205b4" y="190.411889"/>
     <use style="fill:#ff0000;stroke:#ffffff;stroke-linejoin:miter;stroke-width:0.25;" x="247.02166" xlink:href="#m14faf205b4" y="190.411889"/>
     <use style="fill:#ff0000;stroke:#ffffff;stroke-linejoin:miter;stroke-width:0.25;" x="250.550514" xlink:href="#m14faf205b4" y="190.39782"/>
     <use style="fill:#ff0000;stroke:#ffffff;stroke-linejoin:miter;stroke-width:0.25;" x="254.079368" xlink:href="#m14faf205b4" y="190.341547"/>
     <use style="fill:#ff0000;stroke:#ffffff;stroke-linejoin:miter;stroke-width:0.25;" x="257.608221" xlink:href="#m14faf205b4" y="190.341547"/>
     <use style="fill:#ff0000;stroke:#ffffff;stroke-linejoin:miter;stroke-width:0.25;" x="261.137075" xlink:href="#m14faf205b4" y="190.31341"/>
     <use style="fill:#ff0000;stroke:#ffffff;stroke-linejoin:miter;stroke-width:0.25;" x="264.665929" xlink:href="#m14faf205b4" y="190.292308"/>
     <use style="fill:#ff0000;stroke:#ffffff;stroke-linejoin:miter;stroke-width:0.25;" x="268.194783" xlink:href="#m14faf205b4" y="190.257137"/>
     <use style="fill:#ff0000;stroke:#ffffff;stroke-linejoin:miter;stroke-width:0.25;" x="271.723636" xlink:href="#m14faf205b4" y="190.236035"/>
     <use style="fill:#ff0000;stroke:#ffffff;stroke-linejoin:miter;stroke-width:0.25;" x="275.25249" xlink:href="#m14faf205b4" y="190.074249"/>
     <use style="fill:#ff0000;stroke:#ffffff;stroke-linejoin:miter;stroke-width:0.25;" x="278.781344" xlink:href="#m14faf205b4" y="189.975771"/>
     <use style="fill:#ff0000;stroke:#ffffff;stroke-linejoin:miter;stroke-width:0.25;" x="282.310198" xlink:href="#m14faf205b4" y="189.975771"/>
     <use style="fill:#ff0000;stroke:#ffffff;stroke-linejoin:miter;stroke-width:0.25;" x="285.839051" xlink:href="#m14faf205b4" y="189.877292"/>
     <use style="fill:#ff0000;stroke:#ffffff;stroke-linejoin:miter;stroke-width:0.25;" x="289.367905" xlink:href="#m14faf205b4" y="189.785848"/>
     <use style="fill:#ff0000;stroke:#ffffff;stroke-linejoin:miter;stroke-width:0.25;" x="292.896759" xlink:href="#m14faf205b4" y="189.525585"/>
     <use style="fill:#ff0000;stroke:#ffffff;stroke-linejoin:miter;stroke-width:0.25;" x="296.425613" xlink:href="#m14faf205b4" y="189.427106"/>
     <use style="fill:#ff0000;stroke:#ffffff;stroke-linejoin:miter;stroke-width:0.25;" x="299.954466" xlink:href="#m14faf205b4" y="189.23015"/>
     <use style="fill:#ff0000;stroke:#ffffff;stroke-linejoin:miter;stroke-width:0.25;" x="303.48332" xlink:href="#m14faf205b4" y="188.89251"/>
     <use style="fill:#ff0000;stroke:#ffffff;stroke-linejoin:miter;stroke-width:0.25;" x="307.012174" xlink:href="#m14faf205b4" y="188.751827"/>
     <use style="fill:#ff0000;stroke:#ffffff;stroke-linejoin:miter;stroke-width:0.25;" x="310.541028" xlink:href="#m14faf205b4" y="188.456393"/>
     <use style="fill:#ff0000;stroke:#ffffff;stroke-linejoin:miter;stroke-width:0.25;" x="314.069881" xlink:href="#m14faf205b4" y="188.153924"/>
     <use style="fill:#ff0000;stroke:#ffffff;stroke-linejoin:miter;stroke-width:0.25;" x="317.598735" xlink:href="#m14faf205b4" y="187.964001"/>
     <use style="fill:#ff0000;stroke:#ffffff;stroke-linejoin:miter;stroke-width:0.25;" x="321.127589" xlink:href="#m14faf205b4" y="187.717806"/>
     <use style="fill:#ff0000;stroke:#ffffff;stroke-linejoin:miter;stroke-width:0.25;" x="324.656443" xlink:href="#m14faf205b4" y="187.633396"/>
     <use style="fill:#ff0000;stroke:#ffffff;stroke-linejoin:miter;stroke-width:0.25;" x="328.185296" xlink:href="#m14faf205b4" y="187.330927"/>
     <use style="fill:#ff0000;stroke:#ffffff;stroke-linejoin:miter;stroke-width:0.25;" x="331.71415" xlink:href="#m14faf205b4" y="187.063629"/>
     <use style="fill:#ff0000;stroke:#ffffff;stroke-linejoin:miter;stroke-width:0.25;" x="335.243004" xlink:href="#m14faf205b4" y="186.817434"/>
     <use style="fill:#ff0000;stroke:#ffffff;stroke-linejoin:miter;stroke-width:0.25;" x="338.771858" xlink:href="#m14faf205b4" y="186.550136"/>
     <use style="fill:#ff0000;stroke:#ffffff;stroke-linejoin:miter;stroke-width:0.25;" x="342.300711" xlink:href="#m14faf205b4" y="186.318008"/>
     <use style="fill:#ff0000;stroke:#ffffff;stroke-linejoin:miter;stroke-width:0.25;" x="345.829565" xlink:href="#m14faf205b4" y="185.945198"/>
     <use style="fill:#ff0000;stroke:#ffffff;stroke-linejoin:miter;stroke-width:0.25;" x="349.358419" xlink:href="#m14faf205b4" y="185.691968"/>
     <use style="fill:#ff0000;stroke:#ffffff;stroke-linejoin:miter;stroke-width:0.25;" x="352.887273" xlink:href="#m14faf205b4" y="185.410602"/>
    </g>
   </g>
   <g id="line2d_18"/>
   <g id="line2d_19"/>
   <g id="line2d_20"/>
   <g id="line2d_21"/>
   <g id="line2d_22">
    <path clip-path="url(#pc3af3f00b5)" d="M 12 28.154957 
L 369.12 28.154957 
" style="fill:none;stroke:#4c72b0;stroke-dasharray:0.5,0.825;stroke-dashoffset:0;stroke-width:0.5;"/>
   </g>
   <g id="line2d_23">
    <path clip-path="url(#pc3af3f00b5)" d="M 12 185.410602 
L 369.12 185.410602 
" style="fill:none;stroke:#4c72b0;stroke-dasharray:0.5,0.825;stroke-dashoffset:0;stroke-width:0.5;"/>
   </g>
   <g id="line2d_24">
    <path clip-path="url(#pc3af3f00b5)" d="M 12 155.227028 
L 369.12 155.227028 
" style="fill:none;stroke:#4c72b0;stroke-dasharray:0.5,0.825;stroke-dashoffset:0;stroke-width:0.5;"/>
   </g>
   <g id="line2d_25">
    <path clip-path="url(#pc3af3f00b5)" d="M 352.887273 198.598594 
L 352.887273 20.038594 
" style="fill:none;stroke:#4c72b0;stroke-dasharray:0.5,0.825;stroke-dashoffset:0;stroke-width:0.5;"/>
   </g>
   <g id="patch_3">
    <path d="M 12 198.598594 
L 12 20.038594 
" style="fill:none;stroke:#262626;stroke-linecap:square;stroke-linejoin:miter;stroke-width:0.5;"/>
   </g>
   <g id="patch_4">
    <path d="M 12 198.598594 
L 369.12 198.598594 
" style="fill:none;stroke:#262626;stroke-linecap:square;stroke-linejoin:miter;stroke-width:0.5;"/>
   </g>
   <g id="text_8">
    <!-- 23077 -->
    <defs>
     <path d="M 8.203125 72.90625 
L 55.078125 72.90625 
L 55.078125 68.703125 
L 28.609375 0 
L 18.3125 0 
L 43.21875 64.59375 
L 8.203125 64.59375 
z
" id="DejaVuSans-55"/>
    </defs>
    <g style="fill:#ff0000;" transform="translate(15.5712 26.491207)scale(0.08 -0.08)">
     <use xlink:href="#DejaVuSans-50"/>
     <use x="63.623047" xlink:href="#DejaVuSans-51"/>
     <use x="127.246094" xlink:href="#DejaVuSans-48"/>
     <use x="190.869141" xlink:href="#DejaVuSans-55"/>
     <use x="254.492188" xlink:href="#DejaVuSans-55"/>
    </g>
   </g>
   <g id="text_9">
    <!-- 721 -->
    <g style="fill:#ff0000;" transform="translate(15.5712 183.746852)scale(0.08 -0.08)">
     <use xlink:href="#DejaVuSans-55"/>
     <use x="63.623047" xlink:href="#DejaVuSans-50"/>
     <use x="127.246094" xlink:href="#DejaVuSans-49"/>
    </g>
   </g>
   <g id="text_10">
    <!-- 5012 -->
    <g style="fill:#008000;" transform="translate(15.5712 153.563278)scale(0.08 -0.08)">
     <use xlink:href="#DejaVuSans-53"/>
     <use x="63.623047" xlink:href="#DejaVuSans-48"/>
     <use x="127.246094" xlink:href="#DejaVuSans-49"/>
     <use x="190.869141" xlink:href="#DejaVuSans-50"/>
    </g>
   </g>
   <g id="text_11">
    <!-- COVID-19 Cases, Recoveries &amp; Deaths Graph -->
    <defs>
     <path d="M 64.40625 67.28125 
L 64.40625 56.890625 
Q 59.421875 61.53125 53.78125 63.8125 
Q 48.140625 66.109375 41.796875 66.109375 
Q 29.296875 66.109375 22.65625 58.46875 
Q 16.015625 50.828125 16.015625 36.375 
Q 16.015625 21.96875 22.65625 14.328125 
Q 29.296875 6.6875 41.796875 6.6875 
Q 48.140625 6.6875 53.78125 8.984375 
Q 59.421875 11.28125 64.40625 15.921875 
L 64.40625 5.609375 
Q 59.234375 2.09375 53.4375 0.328125 
Q 47.65625 -1.421875 41.21875 -1.421875 
Q 24.65625 -1.421875 15.125 8.703125 
Q 5.609375 18.84375 5.609375 36.375 
Q 5.609375 53.953125 15.125 64.078125 
Q 24.65625 74.21875 41.21875 74.21875 
Q 47.75 74.21875 53.53125 72.484375 
Q 59.328125 70.75 64.40625 67.28125 
z
" id="DejaVuSans-67"/>
     <path d="M 39.40625 66.21875 
Q 28.65625 66.21875 22.328125 58.203125 
Q 16.015625 50.203125 16.015625 36.375 
Q 16.015625 22.609375 22.328125 14.59375 
Q 28.65625 6.59375 39.40625 6.59375 
Q 50.140625 6.59375 56.421875 14.59375 
Q 62.703125 22.609375 62.703125 36.375 
Q 62.703125 50.203125 56.421875 58.203125 
Q 50.140625 66.21875 39.40625 66.21875 
z
M 39.40625 74.21875 
Q 54.734375 74.21875 63.90625 63.9375 
Q 73.09375 53.65625 73.09375 36.375 
Q 73.09375 19.140625 63.90625 8.859375 
Q 54.734375 -1.421875 39.40625 -1.421875 
Q 24.03125 -1.421875 14.8125 8.828125 
Q 5.609375 19.09375 5.609375 36.375 
Q 5.609375 53.65625 14.8125 63.9375 
Q 24.03125 74.21875 39.40625 74.21875 
z
" id="DejaVuSans-79"/>
     <path d="M 28.609375 0 
L 0.78125 72.90625 
L 11.078125 72.90625 
L 34.1875 11.53125 
L 57.328125 72.90625 
L 67.578125 72.90625 
L 39.796875 0 
z
" id="DejaVuSans-86"/>
     <path d="M 9.8125 72.90625 
L 19.671875 72.90625 
L 19.671875 0 
L 9.8125 0 
z
" id="DejaVuSans-73"/>
     <path d="M 19.671875 64.796875 
L 19.671875 8.109375 
L 31.59375 8.109375 
Q 46.6875 8.109375 53.6875 14.9375 
Q 60.6875 21.78125 60.6875 36.53125 
Q 60.6875 51.171875 53.6875 57.984375 
Q 46.6875 64.796875 31.59375 64.796875 
z
M 9.8125 72.90625 
L 30.078125 72.90625 
Q 51.265625 72.90625 61.171875 64.09375 
Q 71.09375 55.28125 71.09375 36.53125 
Q 71.09375 17.671875 61.125 8.828125 
Q 51.171875 0 30.078125 0 
L 9.8125 0 
z
" id="DejaVuSans-68"/>
     <path d="M 4.890625 31.390625 
L 31.203125 31.390625 
L 31.203125 23.390625 
L 4.890625 23.390625 
z
" id="DejaVuSans-45"/>
     <path d="M 10.984375 1.515625 
L 10.984375 10.5 
Q 14.703125 8.734375 18.5 7.8125 
Q 22.3125 6.890625 25.984375 6.890625 
Q 35.75 6.890625 40.890625 13.453125 
Q 46.046875 20.015625 46.78125 33.40625 
Q 43.953125 29.203125 39.59375 26.953125 
Q 35.25 24.703125 29.984375 24.703125 
Q 19.046875 24.703125 12.671875 31.3125 
Q 6.296875 37.9375 6.296875 49.421875 
Q 6.296875 60.640625 12.9375 67.421875 
Q 19.578125 74.21875 30.609375 74.21875 
Q 43.265625 74.21875 49.921875 64.515625 
Q 56.59375 54.828125 56.59375 36.375 
Q 56.59375 19.140625 48.40625 8.859375 
Q 40.234375 -1.421875 26.421875 -1.421875 
Q 22.703125 -1.421875 18.890625 -0.6875 
Q 15.09375 0.046875 10.984375 1.515625 
z
M 30.609375 32.421875 
Q 37.25 32.421875 41.125 36.953125 
Q 45.015625 41.5 45.015625 49.421875 
Q 45.015625 57.28125 41.125 61.84375 
Q 37.25 66.40625 30.609375 66.40625 
Q 23.96875 66.40625 20.09375 61.84375 
Q 16.21875 57.28125 16.21875 49.421875 
Q 16.21875 41.5 20.09375 36.953125 
Q 23.96875 32.421875 30.609375 32.421875 
z
" id="DejaVuSans-57"/>
     <path d="M 44.28125 53.078125 
L 44.28125 44.578125 
Q 40.484375 46.53125 36.375 47.5 
Q 32.28125 48.484375 27.875 48.484375 
Q 21.1875 48.484375 17.84375 46.4375 
Q 14.5 44.390625 14.5 40.28125 
Q 14.5 37.15625 16.890625 35.375 
Q 19.28125 33.59375 26.515625 31.984375 
L 29.59375 31.296875 
Q 39.15625 29.25 43.1875 25.515625 
Q 47.21875 21.78125 47.21875 15.09375 
Q 47.21875 7.46875 41.1875 3.015625 
Q 35.15625 -1.421875 24.609375 -1.421875 
Q 20.21875 -1.421875 15.453125 -0.5625 
Q 10.6875 0.296875 5.421875 2 
L 5.421875 11.28125 
Q 10.40625 8.6875 15.234375 7.390625 
Q 20.0625 6.109375 24.8125 6.109375 
Q 31.15625 6.109375 34.5625 8.28125 
Q 37.984375 10.453125 37.984375 14.40625 
Q 37.984375 18.0625 35.515625 20.015625 
Q 33.0625 21.96875 24.703125 23.78125 
L 21.578125 24.515625 
Q 13.234375 26.265625 9.515625 29.90625 
Q 5.8125 33.546875 5.8125 39.890625 
Q 5.8125 47.609375 11.28125 51.796875 
Q 16.75 56 26.8125 56 
Q 31.78125 56 36.171875 55.265625 
Q 40.578125 54.546875 44.28125 53.078125 
z
" id="DejaVuSans-115"/>
     <path d="M 11.71875 12.40625 
L 22.015625 12.40625 
L 22.015625 4 
L 14.015625 -11.625 
L 7.71875 -11.625 
L 11.71875 4 
z
" id="DejaVuSans-44"/>
     <path d="M 44.390625 34.1875 
Q 47.5625 33.109375 50.5625 29.59375 
Q 53.5625 26.078125 56.59375 19.921875 
L 66.609375 0 
L 56 0 
L 46.6875 18.703125 
Q 43.0625 26.03125 39.671875 28.421875 
Q 36.28125 30.8125 30.421875 30.8125 
L 19.671875 30.8125 
L 19.671875 0 
L 9.8125 0 
L 9.8125 72.90625 
L 32.078125 72.90625 
Q 44.578125 72.90625 50.734375 67.671875 
Q 56.890625 62.453125 56.890625 51.90625 
Q 56.890625 45.015625 53.6875 40.46875 
Q 50.484375 35.9375 44.390625 34.1875 
z
M 19.671875 64.796875 
L 19.671875 38.921875 
L 32.078125 38.921875 
Q 39.203125 38.921875 42.84375 42.21875 
Q 46.484375 45.515625 46.484375 51.90625 
Q 46.484375 58.296875 42.84375 61.546875 
Q 39.203125 64.796875 32.078125 64.796875 
z
" id="DejaVuSans-82"/>
     <path d="M 48.78125 52.59375 
L 48.78125 44.1875 
Q 44.96875 46.296875 41.140625 47.34375 
Q 37.3125 48.390625 33.40625 48.390625 
Q 24.65625 48.390625 19.8125 42.84375 
Q 14.984375 37.3125 14.984375 27.296875 
Q 14.984375 17.28125 19.8125 11.734375 
Q 24.65625 6.203125 33.40625 6.203125 
Q 37.3125 6.203125 41.140625 7.25 
Q 44.96875 8.296875 48.78125 10.40625 
L 48.78125 2.09375 
Q 45.015625 0.34375 40.984375 -0.53125 
Q 36.96875 -1.421875 32.421875 -1.421875 
Q 20.0625 -1.421875 12.78125 6.34375 
Q 5.515625 14.109375 5.515625 27.296875 
Q 5.515625 40.671875 12.859375 48.328125 
Q 20.21875 56 33.015625 56 
Q 37.15625 56 41.109375 55.140625 
Q 45.0625 54.296875 48.78125 52.59375 
z
" id="DejaVuSans-99"/>
     <path d="M 30.609375 48.390625 
Q 23.390625 48.390625 19.1875 42.75 
Q 14.984375 37.109375 14.984375 27.296875 
Q 14.984375 17.484375 19.15625 11.84375 
Q 23.34375 6.203125 30.609375 6.203125 
Q 37.796875 6.203125 41.984375 11.859375 
Q 46.1875 17.53125 46.1875 27.296875 
Q 46.1875 37.015625 41.984375 42.703125 
Q 37.796875 48.390625 30.609375 48.390625 
z
M 30.609375 56 
Q 42.328125 56 49.015625 48.375 
Q 55.71875 40.765625 55.71875 27.296875 
Q 55.71875 13.875 49.015625 6.21875 
Q 42.328125 -1.421875 30.609375 -1.421875 
Q 18.84375 -1.421875 12.171875 6.21875 
Q 5.515625 13.875 5.515625 27.296875 
Q 5.515625 40.765625 12.171875 48.375 
Q 18.84375 56 30.609375 56 
z
" id="DejaVuSans-111"/>
     <path d="M 2.984375 54.6875 
L 12.5 54.6875 
L 29.59375 8.796875 
L 46.6875 54.6875 
L 56.203125 54.6875 
L 35.6875 0 
L 23.484375 0 
z
" id="DejaVuSans-118"/>
     <path d="M 9.421875 54.6875 
L 18.40625 54.6875 
L 18.40625 0 
L 9.421875 0 
z
M 9.421875 75.984375 
L 18.40625 75.984375 
L 18.40625 64.59375 
L 9.421875 64.59375 
z
" id="DejaVuSans-105"/>
     <path d="M 24.3125 39.203125 
Q 19.875 35.25 17.796875 31.3125 
Q 15.71875 27.390625 15.71875 23.09375 
Q 15.71875 15.96875 20.890625 11.234375 
Q 26.078125 6.5 33.890625 6.5 
Q 38.53125 6.5 42.578125 8.03125 
Q 46.625 9.578125 50.203125 12.703125 
z
M 31.203125 44.671875 
L 56 19.28125 
Q 58.890625 23.640625 60.5 28.59375 
Q 62.109375 33.546875 62.40625 39.109375 
L 71.484375 39.109375 
Q 70.90625 32.671875 68.359375 26.359375 
Q 65.828125 20.0625 61.28125 13.921875 
L 74.90625 0 
L 62.59375 0 
L 55.609375 7.171875 
Q 50.53125 2.828125 44.96875 0.703125 
Q 39.40625 -1.421875 33.015625 -1.421875 
Q 21.234375 -1.421875 13.765625 5.296875 
Q 6.296875 12.015625 6.296875 22.515625 
Q 6.296875 28.765625 9.5625 34.25 
Q 12.84375 39.75 19.390625 44.578125 
Q 17.046875 47.65625 15.8125 50.703125 
Q 14.59375 53.765625 14.59375 56.6875 
Q 14.59375 64.59375 20.015625 69.40625 
Q 25.4375 74.21875 34.421875 74.21875 
Q 38.484375 74.21875 42.5 73.34375 
Q 46.53125 72.46875 50.6875 70.703125 
L 50.6875 61.8125 
Q 46.4375 64.109375 42.578125 65.296875 
Q 38.71875 66.5 35.40625 66.5 
Q 30.28125 66.5 27.078125 63.78125 
Q 23.875 61.078125 23.875 56.78125 
Q 23.875 54.296875 25.3125 51.78125 
Q 26.765625 49.265625 31.203125 44.671875 
z
" id="DejaVuSans-38"/>
     <path d="M 18.3125 70.21875 
L 18.3125 54.6875 
L 36.8125 54.6875 
L 36.8125 47.703125 
L 18.3125 47.703125 
L 18.3125 18.015625 
Q 18.3125 11.328125 20.140625 9.421875 
Q 21.96875 7.515625 27.59375 7.515625 
L 36.8125 7.515625 
L 36.8125 0 
L 27.59375 0 
Q 17.1875 0 13.234375 3.875 
Q 9.28125 7.765625 9.28125 18.015625 
L 9.28125 47.703125 
L 2.6875 47.703125 
L 2.6875 54.6875 
L 9.28125 54.6875 
L 9.28125 70.21875 
z
" id="DejaVuSans-116"/>
     <path d="M 54.890625 33.015625 
L 54.890625 0 
L 45.90625 0 
L 45.90625 32.71875 
Q 45.90625 40.484375 42.875 44.328125 
Q 39.84375 48.1875 33.796875 48.1875 
Q 26.515625 48.1875 22.3125 43.546875 
Q 18.109375 38.921875 18.109375 30.90625 
L 18.109375 0 
L 9.078125 0 
L 9.078125 75.984375 
L 18.109375 75.984375 
L 18.109375 46.1875 
Q 21.34375 51.125 25.703125 53.5625 
Q 30.078125 56 35.796875 56 
Q 45.21875 56 50.046875 50.171875 
Q 54.890625 44.34375 54.890625 33.015625 
z
" id="DejaVuSans-104"/>
     <path d="M 59.515625 10.40625 
L 59.515625 29.984375 
L 43.40625 29.984375 
L 43.40625 38.09375 
L 69.28125 38.09375 
L 69.28125 6.78125 
Q 63.578125 2.734375 56.6875 0.65625 
Q 49.8125 -1.421875 42 -1.421875 
Q 24.90625 -1.421875 15.25 8.5625 
Q 5.609375 18.5625 5.609375 36.375 
Q 5.609375 54.25 15.25 64.234375 
Q 24.90625 74.21875 42 74.21875 
Q 49.125 74.21875 55.546875 72.453125 
Q 61.96875 70.703125 67.390625 67.28125 
L 67.390625 56.78125 
Q 61.921875 61.421875 55.765625 63.765625 
Q 49.609375 66.109375 42.828125 66.109375 
Q 29.4375 66.109375 22.71875 58.640625 
Q 16.015625 51.171875 16.015625 36.375 
Q 16.015625 21.625 22.71875 14.15625 
Q 29.4375 6.6875 42.828125 6.6875 
Q 48.046875 6.6875 52.140625 7.59375 
Q 56.25 8.5 59.515625 10.40625 
z
" id="DejaVuSans-71"/>
    </defs>
    <g style="fill:#262626;" transform="translate(88.964766 14.038594)scale(0.09 -0.09)">
     <use xlink:href="#DejaVuSans-67"/>
     <use x="69.824219" xlink:href="#DejaVuSans-79"/>
     <use x="146.785156" xlink:href="#DejaVuSans-86"/>
     <use x="215.193359" xlink:href="#DejaVuSans-73"/>
     <use x="244.685547" xlink:href="#DejaVuSans-68"/>
     <use x="321.6875" xlink:href="#DejaVuSans-45"/>
     <use x="357.771484" xlink:href="#DejaVuSans-49"/>
     <use x="421.394531" xlink:href="#DejaVuSans-57"/>
     <use x="485.017578" xlink:href="#DejaVuSans-32"/>
     <use x="516.804688" xlink:href="#DejaVuSans-67"/>
     <use x="586.628906" xlink:href="#DejaVuSans-97"/>
     <use x="647.908203" xlink:href="#DejaVuSans-115"/>
     <use x="700.007812" xlink:href="#DejaVuSans-101"/>
     <use x="761.53125" xlink:href="#DejaVuSans-115"/>
     <use x="813.630859" xlink:href="#DejaVuSans-44"/>
     <use x="845.417969" xlink:href="#DejaVuSans-32"/>
     <use x="877.205078" xlink:href="#DejaVuSans-82"/>
     <use x="942.1875" xlink:href="#DejaVuSans-101"/>
     <use x="1003.710938" xlink:href="#DejaVuSans-99"/>
     <use x="1058.691406" xlink:href="#DejaVuSans-111"/>
     <use x="1119.873047" xlink:href="#DejaVuSans-118"/>
     <use x="1179.052734" xlink:href="#DejaVuSans-101"/>
     <use x="1240.576172" xlink:href="#DejaVuSans-114"/>
     <use x="1281.689453" xlink:href="#DejaVuSans-105"/>
     <use x="1309.472656" xlink:href="#DejaVuSans-101"/>
     <use x="1370.996094" xlink:href="#DejaVuSans-115"/>
     <use x="1423.095703" xlink:href="#DejaVuSans-32"/>
     <use x="1454.882812" xlink:href="#DejaVuSans-38"/>
     <use x="1532.861328" xlink:href="#DejaVuSans-32"/>
     <use x="1564.648438" xlink:href="#DejaVuSans-68"/>
     <use x="1641.650391" xlink:href="#DejaVuSans-101"/>
     <use x="1703.173828" xlink:href="#DejaVuSans-97"/>
     <use x="1764.453125" xlink:href="#DejaVuSans-116"/>
     <use x="1803.662109" xlink:href="#DejaVuSans-104"/>
     <use x="1867.041016" xlink:href="#DejaVuSans-115"/>
     <use x="1919.140625" xlink:href="#DejaVuSans-32"/>
     <use x="1950.927734" xlink:href="#DejaVuSans-71"/>
     <use x="2028.417969" xlink:href="#DejaVuSans-114"/>
     <use x="2069.53125" xlink:href="#DejaVuSans-97"/>
     <use x="2130.810547" xlink:href="#DejaVuSans-112"/>
     <use x="2194.287109" xlink:href="#DejaVuSans-104"/>
    </g>
   </g>
   <g id="legend_1">
    <g id="line2d_26">
     <path d="M 19.92 95.750094 
L 37.52 95.750094 
" style="fill:none;stroke:#ffa500;stroke-linecap:round;stroke-width:1.5;"/>
    </g>
    <g id="line2d_27">
     <g>
      <use style="fill:#ffa500;stroke:#ffffff;stroke-width:0.25;" x="28.72" xlink:href="#m0eb4023a07" y="95.750094"/>
     </g>
    </g>
    <g id="text_12">
     <!-- Confirmed Cases -->
     <defs>
      <path d="M 54.890625 33.015625 
L 54.890625 0 
L 45.90625 0 
L 45.90625 32.71875 
Q 45.90625 40.484375 42.875 44.328125 
Q 39.84375 48.1875 33.796875 48.1875 
Q 26.515625 48.1875 22.3125 43.546875 
Q 18.109375 38.921875 18.109375 30.90625 
L 18.109375 0 
L 9.078125 0 
L 9.078125 54.6875 
L 18.109375 54.6875 
L 18.109375 46.1875 
Q 21.34375 51.125 25.703125 53.5625 
Q 30.078125 56 35.796875 56 
Q 45.21875 56 50.046875 50.171875 
Q 54.890625 44.34375 54.890625 33.015625 
z
" id="DejaVuSans-110"/>
      <path d="M 37.109375 75.984375 
L 37.109375 68.5 
L 28.515625 68.5 
Q 23.6875 68.5 21.796875 66.546875 
Q 19.921875 64.59375 19.921875 59.515625 
L 19.921875 54.6875 
L 34.71875 54.6875 
L 34.71875 47.703125 
L 19.921875 47.703125 
L 19.921875 0 
L 10.890625 0 
L 10.890625 47.703125 
L 2.296875 47.703125 
L 2.296875 54.6875 
L 10.890625 54.6875 
L 10.890625 58.5 
Q 10.890625 67.625 15.140625 71.796875 
Q 19.390625 75.984375 28.609375 75.984375 
z
" id="DejaVuSans-102"/>
      <path d="M 52 44.1875 
Q 55.375 50.25 60.0625 53.125 
Q 64.75 56 71.09375 56 
Q 79.640625 56 84.28125 50.015625 
Q 88.921875 44.046875 88.921875 33.015625 
L 88.921875 0 
L 79.890625 0 
L 79.890625 32.71875 
Q 79.890625 40.578125 77.09375 44.375 
Q 74.3125 48.1875 68.609375 48.1875 
Q 61.625 48.1875 57.5625 43.546875 
Q 53.515625 38.921875 53.515625 30.90625 
L 53.515625 0 
L 44.484375 0 
L 44.484375 32.71875 
Q 44.484375 40.625 41.703125 44.40625 
Q 38.921875 48.1875 33.109375 48.1875 
Q 26.21875 48.1875 22.15625 43.53125 
Q 18.109375 38.875 18.109375 30.90625 
L 18.109375 0 
L 9.078125 0 
L 9.078125 54.6875 
L 18.109375 54.6875 
L 18.109375 46.1875 
Q 21.1875 51.21875 25.484375 53.609375 
Q 29.78125 56 35.6875 56 
Q 41.65625 56 45.828125 52.96875 
Q 50 49.953125 52 44.1875 
z
" id="DejaVuSans-109"/>
      <path d="M 45.40625 46.390625 
L 45.40625 75.984375 
L 54.390625 75.984375 
L 54.390625 0 
L 45.40625 0 
L 45.40625 8.203125 
Q 42.578125 3.328125 38.25 0.953125 
Q 33.9375 -1.421875 27.875 -1.421875 
Q 17.96875 -1.421875 11.734375 6.484375 
Q 5.515625 14.40625 5.515625 27.296875 
Q 5.515625 40.1875 11.734375 48.09375 
Q 17.96875 56 27.875 56 
Q 33.9375 56 38.25 53.625 
Q 42.578125 51.265625 45.40625 46.390625 
z
M 14.796875 27.296875 
Q 14.796875 17.390625 18.875 11.75 
Q 22.953125 6.109375 30.078125 6.109375 
Q 37.203125 6.109375 41.296875 11.75 
Q 45.40625 17.390625 45.40625 27.296875 
Q 45.40625 37.203125 41.296875 42.84375 
Q 37.203125 48.484375 30.078125 48.484375 
Q 22.953125 48.484375 18.875 42.84375 
Q 14.796875 37.203125 14.796875 27.296875 
z
" id="DejaVuSans-100"/>
     </defs>
     <g style="fill:#262626;" transform="translate(44.56 98.830094)scale(0.088 -0.088)">
      <use xlink:href="#DejaVuSans-67"/>
      <use x="69.824219" xlink:href="#DejaVuSans-111"/>
      <use x="131.005859" xlink:href="#DejaVuSans-110"/>
      <use x="194.384766" xlink:href="#DejaVuSans-102"/>
      <use x="229.589844" xlink:href="#DejaVuSans-105"/>
      <use x="257.373047" xlink:href="#DejaVuSans-114"/>
      <use x="296.736328" xlink:href="#DejaVuSans-109"/>
      <use x="394.148438" xlink:href="#DejaVuSans-101"/>
      <use x="455.671875" xlink:href="#DejaVuSans-100"/>
      <use x="519.148438" xlink:href="#DejaVuSans-32"/>
      <use x="550.935547" xlink:href="#DejaVuSans-67"/>
      <use x="620.759766" xlink:href="#DejaVuSans-97"/>
      <use x="682.039062" xlink:href="#DejaVuSans-115"/>
      <use x="734.138672" xlink:href="#DejaVuSans-101"/>
      <use x="795.662109" xlink:href="#DejaVuSans-115"/>
     </g>
    </g>
    <g id="line2d_28">
     <path d="M 19.92 108.666844 
L 37.52 108.666844 
" style="fill:none;stroke:#008000;stroke-linecap:round;stroke-width:1.5;"/>
    </g>
    <g id="line2d_29">
     <g>
      <use style="fill:#008000;stroke:#ffffff;stroke-linejoin:miter;stroke-width:0.25;" x="28.72" xlink:href="#mb475b4d168" y="108.666844"/>
     </g>
    </g>
    <g id="text_13">
     <!-- Recoveries -->
     <g style="fill:#262626;" transform="translate(44.56 111.746844)scale(0.088 -0.088)">
      <use xlink:href="#DejaVuSans-82"/>
      <use x="64.982422" xlink:href="#DejaVuSans-101"/>
      <use x="126.505859" xlink:href="#DejaVuSans-99"/>
      <use x="181.486328" xlink:href="#DejaVuSans-111"/>
      <use x="242.667969" xlink:href="#DejaVuSans-118"/>
      <use x="301.847656" xlink:href="#DejaVuSans-101"/>
      <use x="363.371094" xlink:href="#DejaVuSans-114"/>
      <use x="404.484375" xlink:href="#DejaVuSans-105"/>
      <use x="432.267578" xlink:href="#DejaVuSans-101"/>
      <use x="493.791016" xlink:href="#DejaVuSans-115"/>
     </g>
    </g>
    <g id="line2d_30">
     <path d="M 19.92 121.583594 
L 37.52 121.583594 
" style="fill:none;stroke:#ff0000;stroke-linecap:round;stroke-width:1.5;"/>
    </g>
    <g id="line2d_31">
     <g>
      <use style="fill:#ff0000;stroke:#ffffff;stroke-linejoin:miter;stroke-width:0.25;" x="28.72" xlink:href="#m14faf205b4" y="121.583594"/>
     </g>
    </g>
    <g id="text_14">
     <!-- Deaths -->
     <g style="fill:#262626;" transform="translate(44.56 124.663594)scale(0.088 -0.088)">
      <use xlink:href="#DejaVuSans-68"/>
      <use x="77.001953" xlink:href="#DejaVuSans-101"/>
      <use x="138.525391" xlink:href="#DejaVuSans-97"/>
      <use x="199.804688" xlink:href="#DejaVuSans-116"/>
      <use x="239.013672" xlink:href="#DejaVuSans-104"/>
      <use x="302.392578" xlink:href="#DejaVuSans-115"/>
     </g>
    </g>
   </g>
  </g>
 </g>
 <defs>
  <clipPath id="pc3af3f00b5">
   <rect height="178.56" width="357.12" x="12" y="20.038594"/>
  </clipPath>
 </defs>
</svg>
