<?xml version="1.0" encoding="utf-8" standalone="no"?>
<!DOCTYPE svg PUBLIC "-//W3C//DTD SVG 1.1//EN"
  "http://www.w3.org/Graphics/SVG/1.1/DTD/svg11.dtd">
<!-- Created with matplotlib (https://matplotlib.org/) -->
<svg height="214.137656pt" version="1.1" viewBox="0 0 376.32 214.137656" width="376.32pt" xmlns="http://www.w3.org/2000/svg" xmlns:xlink="http://www.w3.org/1999/xlink">
 <defs>
  <style type="text/css">
*{stroke-linecap:butt;stroke-linejoin:round;}
  </style>
 </defs>
 <g id="figure_1">
  <g id="patch_1">
   <path d="M 0 214.137656 
L 376.32 214.137656 
L 376.32 0 
L 0 0 
z
" style="fill:#ffffff;"/>
  </g>
  <g id="axes_1">
   <g id="patch_2">
    <path d="M 12 198.598594 
L 369.12 198.598594 
L 369.12 20.038594 
L 12 20.038594 
z
" style="fill:#ffffff;"/>
   </g>
   <g id="matplotlib.axis_1">
    <g id="xtick_1">
     <g id="line2d_1">
      <path clip-path="url(#p9c07636285)" d="M 55.980979 198.598594 
L 55.980979 20.038594 
" style="fill:none;stroke:#f3f3f3;stroke-dasharray:0.5,0.825;stroke-dashoffset:0;stroke-width:0.5;"/>
     </g>
     <g id="line2d_2">
      <defs>
       <path d="M 0 0 
L 0 -3 
" id="med28b63c4f" style="stroke:#262626;stroke-width:0.5;"/>
      </defs>
      <g>
       <use style="fill:#262626;stroke:#262626;stroke-width:0.5;" x="55.980979" xlink:href="#med28b63c4f" y="198.598594"/>
      </g>
     </g>
     <g id="text_1">
      <!-- 01 Feb -->
      <defs>
       <path d="M 31.78125 66.40625 
Q 24.171875 66.40625 20.328125 58.90625 
Q 16.5 51.421875 16.5 36.375 
Q 16.5 21.390625 20.328125 13.890625 
Q 24.171875 6.390625 31.78125 6.390625 
Q 39.453125 6.390625 43.28125 13.890625 
Q 47.125 21.390625 47.125 36.375 
Q 47.125 51.421875 43.28125 58.90625 
Q 39.453125 66.40625 31.78125 66.40625 
z
M 31.78125 74.21875 
Q 44.046875 74.21875 50.515625 64.515625 
Q 56.984375 54.828125 56.984375 36.375 
Q 56.984375 17.96875 50.515625 8.265625 
Q 44.046875 -1.421875 31.78125 -1.421875 
Q 19.53125 -1.421875 13.0625 8.265625 
Q 6.59375 17.96875 6.59375 36.375 
Q 6.59375 54.828125 13.0625 64.515625 
Q 19.53125 74.21875 31.78125 74.21875 
z
" id="DejaVuSans-48"/>
       <path d="M 12.40625 8.296875 
L 28.515625 8.296875 
L 28.515625 63.921875 
L 10.984375 60.40625 
L 10.984375 69.390625 
L 28.421875 72.90625 
L 38.28125 72.90625 
L 38.28125 8.296875 
L 54.390625 8.296875 
L 54.390625 0 
L 12.40625 0 
z
" id="DejaVuSans-49"/>
       <path id="DejaVuSans-32"/>
       <path d="M 9.8125 72.90625 
L 51.703125 72.90625 
L 51.703125 64.59375 
L 19.671875 64.59375 
L 19.671875 43.109375 
L 48.578125 43.109375 
L 48.578125 34.8125 
L 19.671875 34.8125 
L 19.671875 0 
L 9.8125 0 
z
" id="DejaVuSans-70"/>
       <path d="M 56.203125 29.59375 
L 56.203125 25.203125 
L 14.890625 25.203125 
Q 15.484375 15.921875 20.484375 11.0625 
Q 25.484375 6.203125 34.421875 6.203125 
Q 39.59375 6.203125 44.453125 7.46875 
Q 49.3125 8.734375 54.109375 11.28125 
L 54.109375 2.78125 
Q 49.265625 0.734375 44.1875 -0.34375 
Q 39.109375 -1.421875 33.890625 -1.421875 
Q 20.796875 -1.421875 13.15625 6.1875 
Q 5.515625 13.8125 5.515625 26.8125 
Q 5.515625 40.234375 12.765625 48.109375 
Q 20.015625 56 32.328125 56 
Q 43.359375 56 49.78125 48.890625 
Q 56.203125 41.796875 56.203125 29.59375 
z
M 47.21875 32.234375 
Q 47.125 39.59375 43.09375 43.984375 
Q 39.0625 48.390625 32.421875 48.390625 
Q 24.90625 48.390625 20.390625 44.140625 
Q 15.875 39.890625 15.1875 32.171875 
z
" id="DejaVuSans-101"/>
       <path d="M 48.6875 27.296875 
Q 48.6875 37.203125 44.609375 42.84375 
Q 40.53125 48.484375 33.40625 48.484375 
Q 26.265625 48.484375 22.1875 42.84375 
Q 18.109375 37.203125 18.109375 27.296875 
Q 18.109375 17.390625 22.1875 11.75 
Q 26.265625 6.109375 33.40625 6.109375 
Q 40.53125 6.109375 44.609375 11.75 
Q 48.6875 17.390625 48.6875 27.296875 
z
M 18.109375 46.390625 
Q 20.953125 51.265625 25.265625 53.625 
Q 29.59375 56 35.59375 56 
Q 45.5625 56 51.78125 48.09375 
Q 58.015625 40.1875 58.015625 27.296875 
Q 58.015625 14.40625 51.78125 6.484375 
Q 45.5625 -1.421875 35.59375 -1.421875 
Q 29.59375 -1.421875 25.265625 0.953125 
Q 20.953125 3.328125 18.109375 8.203125 
L 18.109375 0 
L 9.078125 0 
L 9.078125 75.984375 
L 18.109375 75.984375 
z
" id="DejaVuSans-98"/>
      </defs>
      <g style="fill:#262626;" transform="translate(47.579417 205.897812)scale(0.05 -0.05)">
       <use xlink:href="#DejaVuSans-48"/>
       <use x="63.623047" xlink:href="#DejaVuSans-49"/>
       <use x="127.246094" xlink:href="#DejaVuSans-32"/>
       <use x="159.033203" xlink:href="#DejaVuSans-70"/>
       <use x="211.052734" xlink:href="#DejaVuSans-101"/>
       <use x="272.576172" xlink:href="#DejaVuSans-98"/>
      </g>
     </g>
    </g>
    <g id="xtick_2">
     <g id="line2d_3">
      <path clip-path="url(#p9c07636285)" d="M 94.828531 198.598594 
L 94.828531 20.038594 
" style="fill:none;stroke:#f3f3f3;stroke-dasharray:0.5,0.825;stroke-dashoffset:0;stroke-width:0.5;"/>
     </g>
     <g id="line2d_4">
      <g>
       <use style="fill:#262626;stroke:#262626;stroke-width:0.5;" x="94.828531" xlink:href="#med28b63c4f" y="198.598594"/>
      </g>
     </g>
     <g id="text_2">
      <!-- 15 Feb -->
      <defs>
       <path d="M 10.796875 72.90625 
L 49.515625 72.90625 
L 49.515625 64.59375 
L 19.828125 64.59375 
L 19.828125 46.734375 
Q 21.96875 47.46875 24.109375 47.828125 
Q 26.265625 48.1875 28.421875 48.1875 
Q 40.625 48.1875 47.75 41.5 
Q 54.890625 34.8125 54.890625 23.390625 
Q 54.890625 11.625 47.5625 5.09375 
Q 40.234375 -1.421875 26.90625 -1.421875 
Q 22.3125 -1.421875 17.546875 -0.640625 
Q 12.796875 0.140625 7.71875 1.703125 
L 7.71875 11.625 
Q 12.109375 9.234375 16.796875 8.0625 
Q 21.484375 6.890625 26.703125 6.890625 
Q 35.15625 6.890625 40.078125 11.328125 
Q 45.015625 15.765625 45.015625 23.390625 
Q 45.015625 31 40.078125 35.4375 
Q 35.15625 39.890625 26.703125 39.890625 
Q 22.75 39.890625 18.8125 39.015625 
Q 14.890625 38.140625 10.796875 36.28125 
z
" id="DejaVuSans-53"/>
      </defs>
      <g style="fill:#262626;" transform="translate(86.426969 205.897812)scale(0.05 -0.05)">
       <use xlink:href="#DejaVuSans-49"/>
       <use x="63.623047" xlink:href="#DejaVuSans-53"/>
       <use x="127.246094" xlink:href="#DejaVuSans-32"/>
       <use x="159.033203" xlink:href="#DejaVuSans-70"/>
       <use x="211.052734" xlink:href="#DejaVuSans-101"/>
       <use x="272.576172" xlink:href="#DejaVuSans-98"/>
      </g>
     </g>
    </g>
    <g id="xtick_3">
     <g id="line2d_5">
      <path clip-path="url(#p9c07636285)" d="M 136.450909 198.598594 
L 136.450909 20.038594 
" style="fill:none;stroke:#f3f3f3;stroke-dasharray:0.5,0.825;stroke-dashoffset:0;stroke-width:0.5;"/>
     </g>
     <g id="line2d_6">
      <g>
       <use style="fill:#262626;stroke:#262626;stroke-width:0.5;" x="136.450909" xlink:href="#med28b63c4f" y="198.598594"/>
      </g>
     </g>
     <g id="text_3">
      <!-- 01 Mar -->
      <defs>
       <path d="M 9.8125 72.90625 
L 24.515625 72.90625 
L 43.109375 23.296875 
L 61.8125 72.90625 
L 76.515625 72.90625 
L 76.515625 0 
L 66.890625 0 
L 66.890625 64.015625 
L 48.09375 14.015625 
L 38.1875 14.015625 
L 19.390625 64.015625 
L 19.390625 0 
L 9.8125 0 
z
" id="DejaVuSans-77"/>
       <path d="M 34.28125 27.484375 
Q 23.390625 27.484375 19.1875 25 
Q 14.984375 22.515625 14.984375 16.5 
Q 14.984375 11.71875 18.140625 8.90625 
Q 21.296875 6.109375 26.703125 6.109375 
Q 34.1875 6.109375 38.703125 11.40625 
Q 43.21875 16.703125 43.21875 25.484375 
L 43.21875 27.484375 
z
M 52.203125 31.203125 
L 52.203125 0 
L 43.21875 0 
L 43.21875 8.296875 
Q 40.140625 3.328125 35.546875 0.953125 
Q 30.953125 -1.421875 24.3125 -1.421875 
Q 15.921875 -1.421875 10.953125 3.296875 
Q 6 8.015625 6 15.921875 
Q 6 25.140625 12.171875 29.828125 
Q 18.359375 34.515625 30.609375 34.515625 
L 43.21875 34.515625 
L 43.21875 35.40625 
Q 43.21875 41.609375 39.140625 45 
Q 35.0625 48.390625 27.6875 48.390625 
Q 23 48.390625 18.546875 47.265625 
Q 14.109375 46.140625 10.015625 43.890625 
L 10.015625 52.203125 
Q 14.9375 54.109375 19.578125 55.046875 
Q 24.21875 56 28.609375 56 
Q 40.484375 56 46.34375 49.84375 
Q 52.203125 43.703125 52.203125 31.203125 
z
" id="DejaVuSans-97"/>
       <path d="M 41.109375 46.296875 
Q 39.59375 47.171875 37.8125 47.578125 
Q 36.03125 48 33.890625 48 
Q 26.265625 48 22.1875 43.046875 
Q 18.109375 38.09375 18.109375 28.8125 
L 18.109375 0 
L 9.078125 0 
L 9.078125 54.6875 
L 18.109375 54.6875 
L 18.109375 46.1875 
Q 20.953125 51.171875 25.484375 53.578125 
Q 30.03125 56 36.53125 56 
Q 37.453125 56 38.578125 55.875 
Q 39.703125 55.765625 41.0625 55.515625 
z
" id="DejaVuSans-114"/>
      </defs>
      <g style="fill:#262626;" transform="translate(127.758331 205.897812)scale(0.05 -0.05)">
       <use xlink:href="#DejaVuSans-48"/>
       <use x="63.623047" xlink:href="#DejaVuSans-49"/>
       <use x="127.246094" xlink:href="#DejaVuSans-32"/>
       <use x="159.033203" xlink:href="#DejaVuSans-77"/>
       <use x="245.3125" xlink:href="#DejaVuSans-97"/>
       <use x="306.591797" xlink:href="#DejaVuSans-114"/>
      </g>
     </g>
    </g>
    <g id="xtick_4">
     <g id="line2d_7">
      <path clip-path="url(#p9c07636285)" d="M 175.298462 198.598594 
L 175.298462 20.038594 
" style="fill:none;stroke:#f3f3f3;stroke-dasharray:0.5,0.825;stroke-dashoffset:0;stroke-width:0.5;"/>
     </g>
     <g id="line2d_8">
      <g>
       <use style="fill:#262626;stroke:#262626;stroke-width:0.5;" x="175.298462" xlink:href="#med28b63c4f" y="198.598594"/>
      </g>
     </g>
     <g id="text_4">
      <!-- 15 Mar -->
      <g style="fill:#262626;" transform="translate(166.605883 205.897812)scale(0.05 -0.05)">
       <use xlink:href="#DejaVuSans-49"/>
       <use x="63.623047" xlink:href="#DejaVuSans-53"/>
       <use x="127.246094" xlink:href="#DejaVuSans-32"/>
       <use x="159.033203" xlink:href="#DejaVuSans-77"/>
       <use x="245.3125" xlink:href="#DejaVuSans-97"/>
       <use x="306.591797" xlink:href="#DejaVuSans-114"/>
      </g>
     </g>
    </g>
    <g id="xtick_5">
     <g id="line2d_9">
      <path clip-path="url(#p9c07636285)" d="M 222.47049 198.598594 
L 222.47049 20.038594 
" style="fill:none;stroke:#f3f3f3;stroke-dasharray:0.5,0.825;stroke-dashoffset:0;stroke-width:0.5;"/>
     </g>
     <g id="line2d_10">
      <g>
       <use style="fill:#262626;stroke:#262626;stroke-width:0.5;" x="222.47049" xlink:href="#med28b63c4f" y="198.598594"/>
      </g>
     </g>
     <g id="text_5">
      <!-- 01 Apr -->
      <defs>
       <path d="M 34.1875 63.1875 
L 20.796875 26.90625 
L 47.609375 26.90625 
z
M 28.609375 72.90625 
L 39.796875 72.90625 
L 67.578125 0 
L 57.328125 0 
L 50.6875 18.703125 
L 17.828125 18.703125 
L 11.1875 0 
L 0.78125 0 
z
" id="DejaVuSans-65"/>
       <path d="M 18.109375 8.203125 
L 18.109375 -20.796875 
L 9.078125 -20.796875 
L 9.078125 54.6875 
L 18.109375 54.6875 
L 18.109375 46.390625 
Q 20.953125 51.265625 25.265625 53.625 
Q 29.59375 56 35.59375 56 
Q 45.5625 56 51.78125 48.09375 
Q 58.015625 40.1875 58.015625 27.296875 
Q 58.015625 14.40625 51.78125 6.484375 
Q 45.5625 -1.421875 35.59375 -1.421875 
Q 29.59375 -1.421875 25.265625 0.953125 
Q 20.953125 3.328125 18.109375 8.203125 
z
M 48.6875 27.296875 
Q 48.6875 37.203125 44.609375 42.84375 
Q 40.53125 48.484375 33.40625 48.484375 
Q 26.265625 48.484375 22.1875 42.84375 
Q 18.109375 37.203125 18.109375 27.296875 
Q 18.109375 17.390625 22.1875 11.75 
Q 26.265625 6.109375 33.40625 6.109375 
Q 40.53125 6.109375 44.609375 11.75 
Q 48.6875 17.390625 48.6875 27.296875 
z
" id="DejaVuSans-112"/>
      </defs>
      <g style="fill:#262626;" transform="translate(214.169708 205.897812)scale(0.05 -0.05)">
       <use xlink:href="#DejaVuSans-48"/>
       <use x="63.623047" xlink:href="#DejaVuSans-49"/>
       <use x="127.246094" xlink:href="#DejaVuSans-32"/>
       <use x="159.033203" xlink:href="#DejaVuSans-65"/>
       <use x="227.441406" xlink:href="#DejaVuSans-112"/>
       <use x="290.917969" xlink:href="#DejaVuSans-114"/>
      </g>
     </g>
    </g>
    <g id="xtick_6">
     <g id="line2d_11">
      <path clip-path="url(#p9c07636285)" d="M 261.318042 198.598594 
L 261.318042 20.038594 
" style="fill:none;stroke:#f3f3f3;stroke-dasharray:0.5,0.825;stroke-dashoffset:0;stroke-width:0.5;"/>
     </g>
     <g id="line2d_12">
      <g>
       <use style="fill:#262626;stroke:#262626;stroke-width:0.5;" x="261.318042" xlink:href="#med28b63c4f" y="198.598594"/>
      </g>
     </g>
     <g id="text_6">
      <!-- 15 Apr -->
      <g style="fill:#262626;" transform="translate(253.017261 205.897812)scale(0.05 -0.05)">
       <use xlink:href="#DejaVuSans-49"/>
       <use x="63.623047" xlink:href="#DejaVuSans-53"/>
       <use x="127.246094" xlink:href="#DejaVuSans-32"/>
       <use x="159.033203" xlink:href="#DejaVuSans-65"/>
       <use x="227.441406" xlink:href="#DejaVuSans-112"/>
       <use x="290.917969" xlink:href="#DejaVuSans-114"/>
      </g>
     </g>
    </g>
    <g id="xtick_7">
     <g id="line2d_13">
      <path clip-path="url(#p9c07636285)" d="M 305.715245 198.598594 
L 305.715245 20.038594 
" style="fill:none;stroke:#f3f3f3;stroke-dasharray:0.5,0.825;stroke-dashoffset:0;stroke-width:0.5;"/>
     </g>
     <g id="line2d_14">
      <g>
       <use style="fill:#262626;stroke:#262626;stroke-width:0.5;" x="305.715245" xlink:href="#med28b63c4f" y="198.598594"/>
      </g>
     </g>
     <g id="text_7">
      <!-- 01 May -->
      <defs>
       <path d="M 32.171875 -5.078125 
Q 28.375 -14.84375 24.75 -17.8125 
Q 21.140625 -20.796875 15.09375 -20.796875 
L 7.90625 -20.796875 
L 7.90625 -13.28125 
L 13.1875 -13.28125 
Q 16.890625 -13.28125 18.9375 -11.515625 
Q 21 -9.765625 23.484375 -3.21875 
L 25.09375 0.875 
L 2.984375 54.6875 
L 12.5 54.6875 
L 29.59375 11.921875 
L 46.6875 54.6875 
L 56.203125 54.6875 
z
" id="DejaVuSans-121"/>
      </defs>
      <g style="fill:#262626;" transform="translate(296.570714 205.897812)scale(0.05 -0.05)">
       <use xlink:href="#DejaVuSans-48"/>
       <use x="63.623047" xlink:href="#DejaVuSans-49"/>
       <use x="127.246094" xlink:href="#DejaVuSans-32"/>
       <use x="159.033203" xlink:href="#DejaVuSans-77"/>
       <use x="245.3125" xlink:href="#DejaVuSans-97"/>
       <use x="306.591797" xlink:href="#DejaVuSans-121"/>
      </g>
     </g>
    </g>
    <g id="xtick_8">
     <g id="line2d_15">
      <path clip-path="url(#p9c07636285)" d="M 352.887273 198.598594 
L 352.887273 20.038594 
" style="fill:none;stroke:#f3f3f3;stroke-dasharray:0.5,0.825;stroke-dashoffset:0;stroke-width:0.5;"/>
     </g>
     <g id="line2d_16">
      <g>
       <use style="fill:#262626;stroke:#262626;stroke-width:0.5;" x="352.887273" xlink:href="#med28b63c4f" y="198.598594"/>
      </g>
     </g>
     <g id="text_8">
      <!-- 18 May -->
      <defs>
       <path d="M 31.78125 34.625 
Q 24.75 34.625 20.71875 30.859375 
Q 16.703125 27.09375 16.703125 20.515625 
Q 16.703125 13.921875 20.71875 10.15625 
Q 24.75 6.390625 31.78125 6.390625 
Q 38.8125 6.390625 42.859375 10.171875 
Q 46.921875 13.96875 46.921875 20.515625 
Q 46.921875 27.09375 42.890625 30.859375 
Q 38.875 34.625 31.78125 34.625 
z
M 21.921875 38.8125 
Q 15.578125 40.375 12.03125 44.71875 
Q 8.5 49.078125 8.5 55.328125 
Q 8.5 64.0625 14.71875 69.140625 
Q 20.953125 74.21875 31.78125 74.21875 
Q 42.671875 74.21875 48.875 69.140625 
Q 55.078125 64.0625 55.078125 55.328125 
Q 55.078125 49.078125 51.53125 44.71875 
Q 48 40.375 41.703125 38.8125 
Q 48.828125 37.15625 52.796875 32.3125 
Q 56.78125 27.484375 56.78125 20.515625 
Q 56.78125 9.90625 50.3125 4.234375 
Q 43.84375 -1.421875 31.78125 -1.421875 
Q 19.734375 -1.421875 13.25 4.234375 
Q 6.78125 9.90625 6.78125 20.515625 
Q 6.78125 27.484375 10.78125 32.3125 
Q 14.796875 37.15625 21.921875 38.8125 
z
M 18.3125 54.390625 
Q 18.3125 48.734375 21.84375 45.5625 
Q 25.390625 42.390625 31.78125 42.390625 
Q 38.140625 42.390625 41.71875 45.5625 
Q 45.3125 48.734375 45.3125 54.390625 
Q 45.3125 60.0625 41.71875 63.234375 
Q 38.140625 66.40625 31.78125 66.40625 
Q 25.390625 66.40625 21.84375 63.234375 
Q 18.3125 60.0625 18.3125 54.390625 
z
" id="DejaVuSans-56"/>
      </defs>
      <g style="fill:#262626;" transform="translate(343.742741 205.897812)scale(0.05 -0.05)">
       <use xlink:href="#DejaVuSans-49"/>
       <use x="63.623047" xlink:href="#DejaVuSans-56"/>
       <use x="127.246094" xlink:href="#DejaVuSans-32"/>
       <use x="159.033203" xlink:href="#DejaVuSans-77"/>
       <use x="245.3125" xlink:href="#DejaVuSans-97"/>
       <use x="306.591797" xlink:href="#DejaVuSans-121"/>
      </g>
     </g>
    </g>
   </g>
   <g id="line2d_17">
    <path clip-path="url(#p9c07636285)" d="M 28.232727 190.48223 
L 31.007552 190.48223 
L 33.782378 190.48223 
L 36.557203 190.48223 
L 39.332028 190.48223 
L 42.106853 190.48223 
L 44.881678 190.48223 
L 47.656503 190.48223 
L 50.431329 190.480535 
L 53.206154 190.480535 
L 55.980979 190.480535 
L 58.755804 190.47884 
L 61.530629 190.477145 
L 64.305455 190.477145 
L 67.08028 190.477145 
L 69.855105 190.477145 
L 72.62993 190.477145 
L 75.404755 190.477145 
L 78.17958 190.477145 
L 80.954406 190.477145 
L 83.729231 190.477145 
L 86.504056 190.477145 
L 89.278881 190.477145 
L 92.053706 190.477145 
L 94.828531 190.477145 
L 97.603357 190.477145 
L 100.378182 190.477145 
L 103.153007 190.477145 
L 105.927832 190.477145 
L 108.702657 190.477145 
L 111.477483 190.477145 
L 114.252308 190.477145 
L 117.027133 190.477145 
L 119.801958 190.477145 
L 122.576783 190.477145 
L 125.351608 190.477145 
L 128.126434 190.477145 
L 130.901259 190.477145 
L 133.676084 190.477145 
L 136.450909 190.477145 
L 139.225734 190.473754 
L 142.000559 190.473754 
L 144.775385 190.434766 
L 147.55021 190.431375 
L 150.325035 190.42968 
L 153.09986 190.424595 
L 155.874685 190.416119 
L 158.64951 190.409338 
L 161.424336 190.387301 
L 164.199161 190.37713 
L 166.973986 190.358483 
L 169.748811 190.343227 
L 172.523636 190.309323 
L 175.298462 190.290677 
L 178.073287 190.280506 
L 180.848112 190.241517 
L 183.622937 190.217784 
L 186.397762 190.153368 
L 189.172587 190.06861 
L 191.947413 189.922826 
L 194.722238 189.810945 
L 197.497063 189.636343 
L 200.271888 189.573622 
L 203.046713 189.368507 
L 205.821538 189.249845 
L 208.596364 188.978619 
L 211.371189 188.809103 
L 214.146014 188.746382 
L 216.920839 188.361579 
L 219.695664 188.114085 
L 222.47049 187.095291 
L 225.245315 186.171426 
L 228.02014 186.130742 
L 230.794965 185.257733 
L 233.56979 184.399979 
L 236.344615 182.382733 
L 239.119441 181.479211 
L 241.894266 180.453636 
L 244.669091 179.082248 
L 247.443916 177.602369 
L 250.218741 176.164869 
L 252.993566 174.878239 
L 255.768392 172.762674 
L 258.543217 171.009874 
L 261.318042 169.594411 
L 264.092867 167.716169 
L 266.867692 166.153227 
L 269.642517 163.830851 
L 272.417343 160.621905 
L 275.192168 159.055572 
L 277.966993 156.443324 
L 280.741818 154.256561 
L 283.516643 151.362915 
L 286.291469 148.899841 
L 289.066294 145.928217 
L 291.841119 143.204088 
L 294.615944 140.557936 
L 297.390769 137.382892 
L 300.165594 134.436696 
L 302.94042 131.383705 
L 305.715245 127.32548 
L 308.49007 123.185888 
L 311.264895 118.429256 
L 314.03972 111.763869 
L 316.814545 106.741096 
L 319.589371 100.66054 
L 322.364196 94.958006 
L 325.139021 89.289376 
L 327.913846 84.012328 
L 330.688671 76.633276 
L 333.463497 70.518817 
L 336.238322 64.545057 
L 339.013147 58.166153 
L 341.787972 51.483813 
L 344.562797 45.064225 
L 347.337622 36.818944 
L 350.112448 28.258362 
L 352.887273 28.154957 
" style="fill:none;stroke:#ff0000;stroke-linecap:round;stroke-width:1.5;"/>
    <defs>
     <path d="M 0 1.5 
C 0.397805 1.5 0.77937 1.341951 1.06066 1.06066 
C 1.341951 0.77937 1.5 0.397805 1.5 0 
C 1.5 -0.397805 1.341951 -0.77937 1.06066 -1.06066 
C 0.77937 -1.341951 0.397805 -1.5 0 -1.5 
C -0.397805 -1.5 -0.77937 -1.341951 -1.06066 -1.06066 
C -1.341951 -0.77937 -1.5 -0.397805 -1.5 0 
C -1.5 0.397805 -1.341951 0.77937 -1.06066 1.06066 
C -0.77937 1.341951 -0.397805 1.5 0 1.5 
z
" id="m23a81dafbc" style="stroke:#ffffff;stroke-width:0.25;"/>
    </defs>
    <g clip-path="url(#p9c07636285)">
     <use style="fill:#ff0000;stroke:#ffffff;stroke-width:0.25;" x="28.232727" xlink:href="#m23a81dafbc" y="190.48223"/>
     <use style="fill:#ff0000;stroke:#ffffff;stroke-width:0.25;" x="31.007552" xlink:href="#m23a81dafbc" y="190.48223"/>
     <use style="fill:#ff0000;stroke:#ffffff;stroke-width:0.25;" x="33.782378" xlink:href="#m23a81dafbc" y="190.48223"/>
     <use style="fill:#ff0000;stroke:#ffffff;stroke-width:0.25;" x="36.557203" xlink:href="#m23a81dafbc" y="190.48223"/>
     <use style="fill:#ff0000;stroke:#ffffff;stroke-width:0.25;" x="39.332028" xlink:href="#m23a81dafbc" y="190.48223"/>
     <use style="fill:#ff0000;stroke:#ffffff;stroke-width:0.25;" x="42.106853" xlink:href="#m23a81dafbc" y="190.48223"/>
     <use style="fill:#ff0000;stroke:#ffffff;stroke-width:0.25;" x="44.881678" xlink:href="#m23a81dafbc" y="190.48223"/>
     <use style="fill:#ff0000;stroke:#ffffff;stroke-width:0.25;" x="47.656503" xlink:href="#m23a81dafbc" y="190.48223"/>
     <use style="fill:#ff0000;stroke:#ffffff;stroke-width:0.25;" x="50.431329" xlink:href="#m23a81dafbc" y="190.480535"/>
     <use style="fill:#ff0000;stroke:#ffffff;stroke-width:0.25;" x="53.206154" xlink:href="#m23a81dafbc" y="190.480535"/>
     <use style="fill:#ff0000;stroke:#ffffff;stroke-width:0.25;" x="55.980979" xlink:href="#m23a81dafbc" y="190.480535"/>
     <use style="fill:#ff0000;stroke:#ffffff;stroke-width:0.25;" x="58.755804" xlink:href="#m23a81dafbc" y="190.47884"/>
     <use style="fill:#ff0000;stroke:#ffffff;stroke-width:0.25;" x="61.530629" xlink:href="#m23a81dafbc" y="190.477145"/>
     <use style="fill:#ff0000;stroke:#ffffff;stroke-width:0.25;" x="64.305455" xlink:href="#m23a81dafbc" y="190.477145"/>
     <use style="fill:#ff0000;stroke:#ffffff;stroke-width:0.25;" x="67.08028" xlink:href="#m23a81dafbc" y="190.477145"/>
     <use style="fill:#ff0000;stroke:#ffffff;stroke-width:0.25;" x="69.855105" xlink:href="#m23a81dafbc" y="190.477145"/>
     <use style="fill:#ff0000;stroke:#ffffff;stroke-width:0.25;" x="72.62993" xlink:href="#m23a81dafbc" y="190.477145"/>
     <use style="fill:#ff0000;stroke:#ffffff;stroke-width:0.25;" x="75.404755" xlink:href="#m23a81dafbc" y="190.477145"/>
     <use style="fill:#ff0000;stroke:#ffffff;stroke-width:0.25;" x="78.17958" xlink:href="#m23a81dafbc" y="190.477145"/>
     <use style="fill:#ff0000;stroke:#ffffff;stroke-width:0.25;" x="80.954406" xlink:href="#m23a81dafbc" y="190.477145"/>
     <use style="fill:#ff0000;stroke:#ffffff;stroke-width:0.25;" x="83.729231" xlink:href="#m23a81dafbc" y="190.477145"/>
     <use style="fill:#ff0000;stroke:#ffffff;stroke-width:0.25;" x="86.504056" xlink:href="#m23a81dafbc" y="190.477145"/>
     <use style="fill:#ff0000;stroke:#ffffff;stroke-width:0.25;" x="89.278881" xlink:href="#m23a81dafbc" y="190.477145"/>
     <use style="fill:#ff0000;stroke:#ffffff;stroke-width:0.25;" x="92.053706" xlink:href="#m23a81dafbc" y="190.477145"/>
     <use style="fill:#ff0000;stroke:#ffffff;stroke-width:0.25;" x="94.828531" xlink:href="#m23a81dafbc" y="190.477145"/>
     <use style="fill:#ff0000;stroke:#ffffff;stroke-width:0.25;" x="97.603357" xlink:href="#m23a81dafbc" y="190.477145"/>
     <use style="fill:#ff0000;stroke:#ffffff;stroke-width:0.25;" x="100.378182" xlink:href="#m23a81dafbc" y="190.477145"/>
     <use style="fill:#ff0000;stroke:#ffffff;stroke-width:0.25;" x="103.153007" xlink:href="#m23a81dafbc" y="190.477145"/>
     <use style="fill:#ff0000;stroke:#ffffff;stroke-width:0.25;" x="105.927832" xlink:href="#m23a81dafbc" y="190.477145"/>
     <use style="fill:#ff0000;stroke:#ffffff;stroke-width:0.25;" x="108.702657" xlink:href="#m23a81dafbc" y="190.477145"/>
     <use style="fill:#ff0000;stroke:#ffffff;stroke-width:0.25;" x="111.477483" xlink:href="#m23a81dafbc" y="190.477145"/>
     <use style="fill:#ff0000;stroke:#ffffff;stroke-width:0.25;" x="114.252308" xlink:href="#m23a81dafbc" y="190.477145"/>
     <use style="fill:#ff0000;stroke:#ffffff;stroke-width:0.25;" x="117.027133" xlink:href="#m23a81dafbc" y="190.477145"/>
     <use style="fill:#ff0000;stroke:#ffffff;stroke-width:0.25;" x="119.801958" xlink:href="#m23a81dafbc" y="190.477145"/>
     <use style="fill:#ff0000;stroke:#ffffff;stroke-width:0.25;" x="122.576783" xlink:href="#m23a81dafbc" y="190.477145"/>
     <use style="fill:#ff0000;stroke:#ffffff;stroke-width:0.25;" x="125.351608" xlink:href="#m23a81dafbc" y="190.477145"/>
     <use style="fill:#ff0000;stroke:#ffffff;stroke-width:0.25;" x="128.126434" xlink:href="#m23a81dafbc" y="190.477145"/>
     <use style="fill:#ff0000;stroke:#ffffff;stroke-width:0.25;" x="130.901259" xlink:href="#m23a81dafbc" y="190.477145"/>
     <use style="fill:#ff0000;stroke:#ffffff;stroke-width:0.25;" x="133.676084" xlink:href="#m23a81dafbc" y="190.477145"/>
     <use style="fill:#ff0000;stroke:#ffffff;stroke-width:0.25;" x="136.450909" xlink:href="#m23a81dafbc" y="190.477145"/>
     <use style="fill:#ff0000;stroke:#ffffff;stroke-width:0.25;" x="139.225734" xlink:href="#m23a81dafbc" y="190.473754"/>
     <use style="fill:#ff0000;stroke:#ffffff;stroke-width:0.25;" x="142.000559" xlink:href="#m23a81dafbc" y="190.473754"/>
     <use style="fill:#ff0000;stroke:#ffffff;stroke-width:0.25;" x="144.775385" xlink:href="#m23a81dafbc" y="190.434766"/>
     <use style="fill:#ff0000;stroke:#ffffff;stroke-width:0.25;" x="147.55021" xlink:href="#m23a81dafbc" y="190.431375"/>
     <use style="fill:#ff0000;stroke:#ffffff;stroke-width:0.25;" x="150.325035" xlink:href="#m23a81dafbc" y="190.42968"/>
     <use style="fill:#ff0000;stroke:#ffffff;stroke-width:0.25;" x="153.09986" xlink:href="#m23a81dafbc" y="190.424595"/>
     <use style="fill:#ff0000;stroke:#ffffff;stroke-width:0.25;" x="155.874685" xlink:href="#m23a81dafbc" y="190.416119"/>
     <use style="fill:#ff0000;stroke:#ffffff;stroke-width:0.25;" x="158.64951" xlink:href="#m23a81dafbc" y="190.409338"/>
     <use style="fill:#ff0000;stroke:#ffffff;stroke-width:0.25;" x="161.424336" xlink:href="#m23a81dafbc" y="190.387301"/>
     <use style="fill:#ff0000;stroke:#ffffff;stroke-width:0.25;" x="164.199161" xlink:href="#m23a81dafbc" y="190.37713"/>
     <use style="fill:#ff0000;stroke:#ffffff;stroke-width:0.25;" x="166.973986" xlink:href="#m23a81dafbc" y="190.358483"/>
     <use style="fill:#ff0000;stroke:#ffffff;stroke-width:0.25;" x="169.748811" xlink:href="#m23a81dafbc" y="190.343227"/>
     <use style="fill:#ff0000;stroke:#ffffff;stroke-width:0.25;" x="172.523636" xlink:href="#m23a81dafbc" y="190.309323"/>
     <use style="fill:#ff0000;stroke:#ffffff;stroke-width:0.25;" x="175.298462" xlink:href="#m23a81dafbc" y="190.290677"/>
     <use style="fill:#ff0000;stroke:#ffffff;stroke-width:0.25;" x="178.073287" xlink:href="#m23a81dafbc" y="190.280506"/>
     <use style="fill:#ff0000;stroke:#ffffff;stroke-width:0.25;" x="180.848112" xlink:href="#m23a81dafbc" y="190.241517"/>
     <use style="fill:#ff0000;stroke:#ffffff;stroke-width:0.25;" x="183.622937" xlink:href="#m23a81dafbc" y="190.217784"/>
     <use style="fill:#ff0000;stroke:#ffffff;stroke-width:0.25;" x="186.397762" xlink:href="#m23a81dafbc" y="190.153368"/>
     <use style="fill:#ff0000;stroke:#ffffff;stroke-width:0.25;" x="189.172587" xlink:href="#m23a81dafbc" y="190.06861"/>
     <use style="fill:#ff0000;stroke:#ffffff;stroke-width:0.25;" x="191.947413" xlink:href="#m23a81dafbc" y="189.922826"/>
     <use style="fill:#ff0000;stroke:#ffffff;stroke-width:0.25;" x="194.722238" xlink:href="#m23a81dafbc" y="189.810945"/>
     <use style="fill:#ff0000;stroke:#ffffff;stroke-width:0.25;" x="197.497063" xlink:href="#m23a81dafbc" y="189.636343"/>
     <use style="fill:#ff0000;stroke:#ffffff;stroke-width:0.25;" x="200.271888" xlink:href="#m23a81dafbc" y="189.573622"/>
     <use style="fill:#ff0000;stroke:#ffffff;stroke-width:0.25;" x="203.046713" xlink:href="#m23a81dafbc" y="189.368507"/>
     <use style="fill:#ff0000;stroke:#ffffff;stroke-width:0.25;" x="205.821538" xlink:href="#m23a81dafbc" y="189.249845"/>
     <use style="fill:#ff0000;stroke:#ffffff;stroke-width:0.25;" x="208.596364" xlink:href="#m23a81dafbc" y="188.978619"/>
     <use style="fill:#ff0000;stroke:#ffffff;stroke-width:0.25;" x="211.371189" xlink:href="#m23a81dafbc" y="188.809103"/>
     <use style="fill:#ff0000;stroke:#ffffff;stroke-width:0.25;" x="214.146014" xlink:href="#m23a81dafbc" y="188.746382"/>
     <use style="fill:#ff0000;stroke:#ffffff;stroke-width:0.25;" x="216.920839" xlink:href="#m23a81dafbc" y="188.361579"/>
     <use style="fill:#ff0000;stroke:#ffffff;stroke-width:0.25;" x="219.695664" xlink:href="#m23a81dafbc" y="188.114085"/>
     <use style="fill:#ff0000;stroke:#ffffff;stroke-width:0.25;" x="222.47049" xlink:href="#m23a81dafbc" y="187.095291"/>
     <use style="fill:#ff0000;stroke:#ffffff;stroke-width:0.25;" x="225.245315" xlink:href="#m23a81dafbc" y="186.171426"/>
     <use style="fill:#ff0000;stroke:#ffffff;stroke-width:0.25;" x="228.02014" xlink:href="#m23a81dafbc" y="186.130742"/>
     <use style="fill:#ff0000;stroke:#ffffff;stroke-width:0.25;" x="230.794965" xlink:href="#m23a81dafbc" y="185.257733"/>
     <use style="fill:#ff0000;stroke:#ffffff;stroke-width:0.25;" x="233.56979" xlink:href="#m23a81dafbc" y="184.399979"/>
     <use style="fill:#ff0000;stroke:#ffffff;stroke-width:0.25;" x="236.344615" xlink:href="#m23a81dafbc" y="182.382733"/>
     <use style="fill:#ff0000;stroke:#ffffff;stroke-width:0.25;" x="239.119441" xlink:href="#m23a81dafbc" y="181.479211"/>
     <use style="fill:#ff0000;stroke:#ffffff;stroke-width:0.25;" x="241.894266" xlink:href="#m23a81dafbc" y="180.453636"/>
     <use style="fill:#ff0000;stroke:#ffffff;stroke-width:0.25;" x="244.669091" xlink:href="#m23a81dafbc" y="179.082248"/>
     <use style="fill:#ff0000;stroke:#ffffff;stroke-width:0.25;" x="247.443916" xlink:href="#m23a81dafbc" y="177.602369"/>
     <use style="fill:#ff0000;stroke:#ffffff;stroke-width:0.25;" x="250.218741" xlink:href="#m23a81dafbc" y="176.164869"/>
     <use style="fill:#ff0000;stroke:#ffffff;stroke-width:0.25;" x="252.993566" xlink:href="#m23a81dafbc" y="174.878239"/>
     <use style="fill:#ff0000;stroke:#ffffff;stroke-width:0.25;" x="255.768392" xlink:href="#m23a81dafbc" y="172.762674"/>
     <use style="fill:#ff0000;stroke:#ffffff;stroke-width:0.25;" x="258.543217" xlink:href="#m23a81dafbc" y="171.009874"/>
     <use style="fill:#ff0000;stroke:#ffffff;stroke-width:0.25;" x="261.318042" xlink:href="#m23a81dafbc" y="169.594411"/>
     <use style="fill:#ff0000;stroke:#ffffff;stroke-width:0.25;" x="264.092867" xlink:href="#m23a81dafbc" y="167.716169"/>
     <use style="fill:#ff0000;stroke:#ffffff;stroke-width:0.25;" x="266.867692" xlink:href="#m23a81dafbc" y="166.153227"/>
     <use style="fill:#ff0000;stroke:#ffffff;stroke-width:0.25;" x="269.642517" xlink:href="#m23a81dafbc" y="163.830851"/>
     <use style="fill:#ff0000;stroke:#ffffff;stroke-width:0.25;" x="272.417343" xlink:href="#m23a81dafbc" y="160.621905"/>
     <use style="fill:#ff0000;stroke:#ffffff;stroke-width:0.25;" x="275.192168" xlink:href="#m23a81dafbc" y="159.055572"/>
     <use style="fill:#ff0000;stroke:#ffffff;stroke-width:0.25;" x="277.966993" xlink:href="#m23a81dafbc" y="156.443324"/>
     <use style="fill:#ff0000;stroke:#ffffff;stroke-width:0.25;" x="280.741818" xlink:href="#m23a81dafbc" y="154.256561"/>
     <use style="fill:#ff0000;stroke:#ffffff;stroke-width:0.25;" x="283.516643" xlink:href="#m23a81dafbc" y="151.362915"/>
     <use style="fill:#ff0000;stroke:#ffffff;stroke-width:0.25;" x="286.291469" xlink:href="#m23a81dafbc" y="148.899841"/>
     <use style="fill:#ff0000;stroke:#ffffff;stroke-width:0.25;" x="289.066294" xlink:href="#m23a81dafbc" y="145.928217"/>
     <use style="fill:#ff0000;stroke:#ffffff;stroke-width:0.25;" x="291.841119" xlink:href="#m23a81dafbc" y="143.204088"/>
     <use style="fill:#ff0000;stroke:#ffffff;stroke-width:0.25;" x="294.615944" xlink:href="#m23a81dafbc" y="140.557936"/>
     <use style="fill:#ff0000;stroke:#ffffff;stroke-width:0.25;" x="297.390769" xlink:href="#m23a81dafbc" y="137.382892"/>
     <use style="fill:#ff0000;stroke:#ffffff;stroke-width:0.25;" x="300.165594" xlink:href="#m23a81dafbc" y="134.436696"/>
     <use style="fill:#ff0000;stroke:#ffffff;stroke-width:0.25;" x="302.94042" xlink:href="#m23a81dafbc" y="131.383705"/>
     <use style="fill:#ff0000;stroke:#ffffff;stroke-width:0.25;" x="305.715245" xlink:href="#m23a81dafbc" y="127.32548"/>
     <use style="fill:#ff0000;stroke:#ffffff;stroke-width:0.25;" x="308.49007" xlink:href="#m23a81dafbc" y="123.185888"/>
     <use style="fill:#ff0000;stroke:#ffffff;stroke-width:0.25;" x="311.264895" xlink:href="#m23a81dafbc" y="118.429256"/>
     <use style="fill:#ff0000;stroke:#ffffff;stroke-width:0.25;" x="314.03972" xlink:href="#m23a81dafbc" y="111.763869"/>
     <use style="fill:#ff0000;stroke:#ffffff;stroke-width:0.25;" x="316.814545" xlink:href="#m23a81dafbc" y="106.741096"/>
     <use style="fill:#ff0000;stroke:#ffffff;stroke-width:0.25;" x="319.589371" xlink:href="#m23a81dafbc" y="100.66054"/>
     <use style="fill:#ff0000;stroke:#ffffff;stroke-width:0.25;" x="322.364196" xlink:href="#m23a81dafbc" y="94.958006"/>
     <use style="fill:#ff0000;stroke:#ffffff;stroke-width:0.25;" x="325.139021" xlink:href="#m23a81dafbc" y="89.289376"/>
     <use style="fill:#ff0000;stroke:#ffffff;stroke-width:0.25;" x="327.913846" xlink:href="#m23a81dafbc" y="84.012328"/>
     <use style="fill:#ff0000;stroke:#ffffff;stroke-width:0.25;" x="330.688671" xlink:href="#m23a81dafbc" y="76.633276"/>
     <use style="fill:#ff0000;stroke:#ffffff;stroke-width:0.25;" x="333.463497" xlink:href="#m23a81dafbc" y="70.518817"/>
     <use style="fill:#ff0000;stroke:#ffffff;stroke-width:0.25;" x="336.238322" xlink:href="#m23a81dafbc" y="64.545057"/>
     <use style="fill:#ff0000;stroke:#ffffff;stroke-width:0.25;" x="339.013147" xlink:href="#m23a81dafbc" y="58.166153"/>
     <use style="fill:#ff0000;stroke:#ffffff;stroke-width:0.25;" x="341.787972" xlink:href="#m23a81dafbc" y="51.483813"/>
     <use style="fill:#ff0000;stroke:#ffffff;stroke-width:0.25;" x="344.562797" xlink:href="#m23a81dafbc" y="45.064225"/>
     <use style="fill:#ff0000;stroke:#ffffff;stroke-width:0.25;" x="347.337622" xlink:href="#m23a81dafbc" y="36.818944"/>
     <use style="fill:#ff0000;stroke:#ffffff;stroke-width:0.25;" x="350.112448" xlink:href="#m23a81dafbc" y="28.258362"/>
     <use style="fill:#ff0000;stroke:#ffffff;stroke-width:0.25;" x="352.887273" xlink:href="#m23a81dafbc" y="28.154957"/>
    </g>
   </g>
   <g id="line2d_18">
    <path clip-path="url(#p9c07636285)" d="M 28.232727 190.48223 
L 31.007552 190.48223 
L 33.782378 190.48223 
L 36.557203 190.48223 
L 39.332028 190.48223 
L 42.106853 190.48223 
L 44.881678 190.48223 
L 47.656503 190.48223 
L 50.431329 190.48223 
L 53.206154 190.48223 
L 55.980979 190.48223 
L 58.755804 190.48223 
L 61.530629 190.48223 
L 64.305455 190.48223 
L 67.08028 190.48223 
L 69.855105 190.48223 
L 72.62993 190.48223 
L 75.404755 190.48223 
L 78.17958 190.48223 
L 80.954406 190.48223 
L 83.729231 190.48223 
L 86.504056 190.48223 
L 89.278881 190.48223 
L 92.053706 190.48223 
L 94.828531 190.48223 
L 97.603357 190.477145 
L 100.378182 190.477145 
L 103.153007 190.477145 
L 105.927832 190.477145 
L 108.702657 190.477145 
L 111.477483 190.477145 
L 114.252308 190.477145 
L 117.027133 190.477145 
L 119.801958 190.477145 
L 122.576783 190.477145 
L 125.351608 190.477145 
L 128.126434 190.477145 
L 130.901259 190.477145 
L 133.676084 190.477145 
L 136.450909 190.477145 
L 139.225734 190.477145 
L 142.000559 190.477145 
L 144.775385 190.477145 
L 147.55021 190.477145 
L 150.325035 190.477145 
L 153.09986 190.477145 
L 155.874685 190.477145 
L 158.64951 190.477145 
L 161.424336 190.475449 
L 164.199161 190.475449 
L 166.973986 190.475449 
L 169.748811 190.475449 
L 172.523636 190.475449 
L 175.298462 190.460193 
L 178.073287 190.460193 
L 180.848112 190.458498 
L 183.622937 190.458498 
L 186.397762 190.456803 
L 189.172587 190.448327 
L 191.947413 190.443241 
L 194.722238 190.436461 
L 197.497063 190.436461 
L 200.271888 190.414424 
L 203.046713 190.409338 
L 205.821538 190.405948 
L 208.596364 190.358483 
L 211.371189 190.339836 
L 214.146014 190.321189 
L 216.920839 190.309323 
L 219.695664 190.273725 
L 222.47049 190.231346 
L 225.245315 190.158454 
L 228.02014 190.156758 
L 230.794965 190.094037 
L 233.56979 190.094037 
L 236.344615 189.846543 
L 239.119441 189.768566 
L 241.894266 189.624477 
L 244.669091 189.431228 
L 247.443916 189.170173 
L 250.218741 188.839616 
L 252.993566 188.651452 
L 255.768392 188.480241 
L 258.543217 188.178501 
L 261.318042 188.054754 
L 264.092867 187.485179 
L 266.867692 187.022399 
L 269.642517 186.30704 
L 272.417343 185.64423 
L 275.192168 184.933956 
L 277.966993 183.743951 
L 280.741818 183.074361 
L 283.516643 181.986065 
L 286.291469 181.162215 
L 289.066294 180.414647 
L 291.841119 179.424671 
L 294.615944 178.38384 
L 297.390769 177.349789 
L 300.165594 176.180126 
L 302.94042 175.110477 
L 305.715245 173.518717 
L 308.49007 172.142244 
L 311.264895 170.521666 
L 314.03972 168.70445 
L 316.814545 166.509211 
L 319.589371 164.493661 
L 322.364196 162.044148 
L 325.139021 160.16082 
L 327.913846 157.763857 
L 330.688671 154.936322 
L 333.463497 152.257962 
L 336.238322 149.086309 
L 339.013147 145.729883 
L 341.787972 143.07017 
L 344.562797 139.189938 
L 347.337622 132.466915 
L 350.112448 128.108646 
L 352.887273 128.059487 
" style="fill:none;stroke:#008000;stroke-linecap:round;stroke-width:1.5;"/>
    <defs>
     <path d="M -0 2.12132 
L 1.272792 0 
L 0 -2.12132 
L -1.272792 -0 
z
" id="m631c24a74b" style="stroke:#ffffff;stroke-linejoin:miter;stroke-width:0.25;"/>
    </defs>
    <g clip-path="url(#p9c07636285)">
     <use style="fill:#008000;stroke:#ffffff;stroke-linejoin:miter;stroke-width:0.25;" x="28.232727" xlink:href="#m631c24a74b" y="190.48223"/>
     <use style="fill:#008000;stroke:#ffffff;stroke-linejoin:miter;stroke-width:0.25;" x="31.007552" xlink:href="#m631c24a74b" y="190.48223"/>
     <use style="fill:#008000;stroke:#ffffff;stroke-linejoin:miter;stroke-width:0.25;" x="33.782378" xlink:href="#m631c24a74b" y="190.48223"/>
     <use style="fill:#008000;stroke:#ffffff;stroke-linejoin:miter;stroke-width:0.25;" x="36.557203" xlink:href="#m631c24a74b" y="190.48223"/>
     <use style="fill:#008000;stroke:#ffffff;stroke-linejoin:miter;stroke-width:0.25;" x="39.332028" xlink:href="#m631c24a74b" y="190.48223"/>
     <use style="fill:#008000;stroke:#ffffff;stroke-linejoin:miter;stroke-width:0.25;" x="42.106853" xlink:href="#m631c24a74b" y="190.48223"/>
     <use style="fill:#008000;stroke:#ffffff;stroke-linejoin:miter;stroke-width:0.25;" x="44.881678" xlink:href="#m631c24a74b" y="190.48223"/>
     <use style="fill:#008000;stroke:#ffffff;stroke-linejoin:miter;stroke-width:0.25;" x="47.656503" xlink:href="#m631c24a74b" y="190.48223"/>
     <use style="fill:#008000;stroke:#ffffff;stroke-linejoin:miter;stroke-width:0.25;" x="50.431329" xlink:href="#m631c24a74b" y="190.48223"/>
     <use style="fill:#008000;stroke:#ffffff;stroke-linejoin:miter;stroke-width:0.25;" x="53.206154" xlink:href="#m631c24a74b" y="190.48223"/>
     <use style="fill:#008000;stroke:#ffffff;stroke-linejoin:miter;stroke-width:0.25;" x="55.980979" xlink:href="#m631c24a74b" y="190.48223"/>
     <use style="fill:#008000;stroke:#ffffff;stroke-linejoin:miter;stroke-width:0.25;" x="58.755804" xlink:href="#m631c24a74b" y="190.48223"/>
     <use style="fill:#008000;stroke:#ffffff;stroke-linejoin:miter;stroke-width:0.25;" x="61.530629" xlink:href="#m631c24a74b" y="190.48223"/>
     <use style="fill:#008000;stroke:#ffffff;stroke-linejoin:miter;stroke-width:0.25;" x="64.305455" xlink:href="#m631c24a74b" y="190.48223"/>
     <use style="fill:#008000;stroke:#ffffff;stroke-linejoin:miter;stroke-width:0.25;" x="67.08028" xlink:href="#m631c24a74b" y="190.48223"/>
     <use style="fill:#008000;stroke:#ffffff;stroke-linejoin:miter;stroke-width:0.25;" x="69.855105" xlink:href="#m631c24a74b" y="190.48223"/>
     <use style="fill:#008000;stroke:#ffffff;stroke-linejoin:miter;stroke-width:0.25;" x="72.62993" xlink:href="#m631c24a74b" y="190.48223"/>
     <use style="fill:#008000;stroke:#ffffff;stroke-linejoin:miter;stroke-width:0.25;" x="75.404755" xlink:href="#m631c24a74b" y="190.48223"/>
     <use style="fill:#008000;stroke:#ffffff;stroke-linejoin:miter;stroke-width:0.25;" x="78.17958" xlink:href="#m631c24a74b" y="190.48223"/>
     <use style="fill:#008000;stroke:#ffffff;stroke-linejoin:miter;stroke-width:0.25;" x="80.954406" xlink:href="#m631c24a74b" y="190.48223"/>
     <use style="fill:#008000;stroke:#ffffff;stroke-linejoin:miter;stroke-width:0.25;" x="83.729231" xlink:href="#m631c24a74b" y="190.48223"/>
     <use style="fill:#008000;stroke:#ffffff;stroke-linejoin:miter;stroke-width:0.25;" x="86.504056" xlink:href="#m631c24a74b" y="190.48223"/>
     <use style="fill:#008000;stroke:#ffffff;stroke-linejoin:miter;stroke-width:0.25;" x="89.278881" xlink:href="#m631c24a74b" y="190.48223"/>
     <use style="fill:#008000;stroke:#ffffff;stroke-linejoin:miter;stroke-width:0.25;" x="92.053706" xlink:href="#m631c24a74b" y="190.48223"/>
     <use style="fill:#008000;stroke:#ffffff;stroke-linejoin:miter;stroke-width:0.25;" x="94.828531" xlink:href="#m631c24a74b" y="190.48223"/>
     <use style="fill:#008000;stroke:#ffffff;stroke-linejoin:miter;stroke-width:0.25;" x="97.603357" xlink:href="#m631c24a74b" y="190.477145"/>
     <use style="fill:#008000;stroke:#ffffff;stroke-linejoin:miter;stroke-width:0.25;" x="100.378182" xlink:href="#m631c24a74b" y="190.477145"/>
     <use style="fill:#008000;stroke:#ffffff;stroke-linejoin:miter;stroke-width:0.25;" x="103.153007" xlink:href="#m631c24a74b" y="190.477145"/>
     <use style="fill:#008000;stroke:#ffffff;stroke-linejoin:miter;stroke-width:0.25;" x="105.927832" xlink:href="#m631c24a74b" y="190.477145"/>
     <use style="fill:#008000;stroke:#ffffff;stroke-linejoin:miter;stroke-width:0.25;" x="108.702657" xlink:href="#m631c24a74b" y="190.477145"/>
     <use style="fill:#008000;stroke:#ffffff;stroke-linejoin:miter;stroke-width:0.25;" x="111.477483" xlink:href="#m631c24a74b" y="190.477145"/>
     <use style="fill:#008000;stroke:#ffffff;stroke-linejoin:miter;stroke-width:0.25;" x="114.252308" xlink:href="#m631c24a74b" y="190.477145"/>
     <use style="fill:#008000;stroke:#ffffff;stroke-linejoin:miter;stroke-width:0.25;" x="117.027133" xlink:href="#m631c24a74b" y="190.477145"/>
     <use style="fill:#008000;stroke:#ffffff;stroke-linejoin:miter;stroke-width:0.25;" x="119.801958" xlink:href="#m631c24a74b" y="190.477145"/>
     <use style="fill:#008000;stroke:#ffffff;stroke-linejoin:miter;stroke-width:0.25;" x="122.576783" xlink:href="#m631c24a74b" y="190.477145"/>
     <use style="fill:#008000;stroke:#ffffff;stroke-linejoin:miter;stroke-width:0.25;" x="125.351608" xlink:href="#m631c24a74b" y="190.477145"/>
     <use style="fill:#008000;stroke:#ffffff;stroke-linejoin:miter;stroke-width:0.25;" x="128.126434" xlink:href="#m631c24a74b" y="190.477145"/>
     <use style="fill:#008000;stroke:#ffffff;stroke-linejoin:miter;stroke-width:0.25;" x="130.901259" xlink:href="#m631c24a74b" y="190.477145"/>
     <use style="fill:#008000;stroke:#ffffff;stroke-linejoin:miter;stroke-width:0.25;" x="133.676084" xlink:href="#m631c24a74b" y="190.477145"/>
     <use style="fill:#008000;stroke:#ffffff;stroke-linejoin:miter;stroke-width:0.25;" x="136.450909" xlink:href="#m631c24a74b" y="190.477145"/>
     <use style="fill:#008000;stroke:#ffffff;stroke-linejoin:miter;stroke-width:0.25;" x="139.225734" xlink:href="#m631c24a74b" y="190.477145"/>
     <use style="fill:#008000;stroke:#ffffff;stroke-linejoin:miter;stroke-width:0.25;" x="142.000559" xlink:href="#m631c24a74b" y="190.477145"/>
     <use style="fill:#008000;stroke:#ffffff;stroke-linejoin:miter;stroke-width:0.25;" x="144.775385" xlink:href="#m631c24a74b" y="190.477145"/>
     <use style="fill:#008000;stroke:#ffffff;stroke-linejoin:miter;stroke-width:0.25;" x="147.55021" xlink:href="#m631c24a74b" y="190.477145"/>
     <use style="fill:#008000;stroke:#ffffff;stroke-linejoin:miter;stroke-width:0.25;" x="150.325035" xlink:href="#m631c24a74b" y="190.477145"/>
     <use style="fill:#008000;stroke:#ffffff;stroke-linejoin:miter;stroke-width:0.25;" x="153.09986" xlink:href="#m631c24a74b" y="190.477145"/>
     <use style="fill:#008000;stroke:#ffffff;stroke-linejoin:miter;stroke-width:0.25;" x="155.874685" xlink:href="#m631c24a74b" y="190.477145"/>
     <use style="fill:#008000;stroke:#ffffff;stroke-linejoin:miter;stroke-width:0.25;" x="158.64951" xlink:href="#m631c24a74b" y="190.477145"/>
     <use style="fill:#008000;stroke:#ffffff;stroke-linejoin:miter;stroke-width:0.25;" x="161.424336" xlink:href="#m631c24a74b" y="190.475449"/>
     <use style="fill:#008000;stroke:#ffffff;stroke-linejoin:miter;stroke-width:0.25;" x="164.199161" xlink:href="#m631c24a74b" y="190.475449"/>
     <use style="fill:#008000;stroke:#ffffff;stroke-linejoin:miter;stroke-width:0.25;" x="166.973986" xlink:href="#m631c24a74b" y="190.475449"/>
     <use style="fill:#008000;stroke:#ffffff;stroke-linejoin:miter;stroke-width:0.25;" x="169.748811" xlink:href="#m631c24a74b" y="190.475449"/>
     <use style="fill:#008000;stroke:#ffffff;stroke-linejoin:miter;stroke-width:0.25;" x="172.523636" xlink:href="#m631c24a74b" y="190.475449"/>
     <use style="fill:#008000;stroke:#ffffff;stroke-linejoin:miter;stroke-width:0.25;" x="175.298462" xlink:href="#m631c24a74b" y="190.460193"/>
     <use style="fill:#008000;stroke:#ffffff;stroke-linejoin:miter;stroke-width:0.25;" x="178.073287" xlink:href="#m631c24a74b" y="190.460193"/>
     <use style="fill:#008000;stroke:#ffffff;stroke-linejoin:miter;stroke-width:0.25;" x="180.848112" xlink:href="#m631c24a74b" y="190.458498"/>
     <use style="fill:#008000;stroke:#ffffff;stroke-linejoin:miter;stroke-width:0.25;" x="183.622937" xlink:href="#m631c24a74b" y="190.458498"/>
     <use style="fill:#008000;stroke:#ffffff;stroke-linejoin:miter;stroke-width:0.25;" x="186.397762" xlink:href="#m631c24a74b" y="190.456803"/>
     <use style="fill:#008000;stroke:#ffffff;stroke-linejoin:miter;stroke-width:0.25;" x="189.172587" xlink:href="#m631c24a74b" y="190.448327"/>
     <use style="fill:#008000;stroke:#ffffff;stroke-linejoin:miter;stroke-width:0.25;" x="191.947413" xlink:href="#m631c24a74b" y="190.443241"/>
     <use style="fill:#008000;stroke:#ffffff;stroke-linejoin:miter;stroke-width:0.25;" x="194.722238" xlink:href="#m631c24a74b" y="190.436461"/>
     <use style="fill:#008000;stroke:#ffffff;stroke-linejoin:miter;stroke-width:0.25;" x="197.497063" xlink:href="#m631c24a74b" y="190.436461"/>
     <use style="fill:#008000;stroke:#ffffff;stroke-linejoin:miter;stroke-width:0.25;" x="200.271888" xlink:href="#m631c24a74b" y="190.414424"/>
     <use style="fill:#008000;stroke:#ffffff;stroke-linejoin:miter;stroke-width:0.25;" x="203.046713" xlink:href="#m631c24a74b" y="190.409338"/>
     <use style="fill:#008000;stroke:#ffffff;stroke-linejoin:miter;stroke-width:0.25;" x="205.821538" xlink:href="#m631c24a74b" y="190.405948"/>
     <use style="fill:#008000;stroke:#ffffff;stroke-linejoin:miter;stroke-width:0.25;" x="208.596364" xlink:href="#m631c24a74b" y="190.358483"/>
     <use style="fill:#008000;stroke:#ffffff;stroke-linejoin:miter;stroke-width:0.25;" x="211.371189" xlink:href="#m631c24a74b" y="190.339836"/>
     <use style="fill:#008000;stroke:#ffffff;stroke-linejoin:miter;stroke-width:0.25;" x="214.146014" xlink:href="#m631c24a74b" y="190.321189"/>
     <use style="fill:#008000;stroke:#ffffff;stroke-linejoin:miter;stroke-width:0.25;" x="216.920839" xlink:href="#m631c24a74b" y="190.309323"/>
     <use style="fill:#008000;stroke:#ffffff;stroke-linejoin:miter;stroke-width:0.25;" x="219.695664" xlink:href="#m631c24a74b" y="190.273725"/>
     <use style="fill:#008000;stroke:#ffffff;stroke-linejoin:miter;stroke-width:0.25;" x="222.47049" xlink:href="#m631c24a74b" y="190.231346"/>
     <use style="fill:#008000;stroke:#ffffff;stroke-linejoin:miter;stroke-width:0.25;" x="225.245315" xlink:href="#m631c24a74b" y="190.158454"/>
     <use style="fill:#008000;stroke:#ffffff;stroke-linejoin:miter;stroke-width:0.25;" x="228.02014" xlink:href="#m631c24a74b" y="190.156758"/>
     <use style="fill:#008000;stroke:#ffffff;stroke-linejoin:miter;stroke-width:0.25;" x="230.794965" xlink:href="#m631c24a74b" y="190.094037"/>
     <use style="fill:#008000;stroke:#ffffff;stroke-linejoin:miter;stroke-width:0.25;" x="233.56979" xlink:href="#m631c24a74b" y="190.094037"/>
     <use style="fill:#008000;stroke:#ffffff;stroke-linejoin:miter;stroke-width:0.25;" x="236.344615" xlink:href="#m631c24a74b" y="189.846543"/>
     <use style="fill:#008000;stroke:#ffffff;stroke-linejoin:miter;stroke-width:0.25;" x="239.119441" xlink:href="#m631c24a74b" y="189.768566"/>
     <use style="fill:#008000;stroke:#ffffff;stroke-linejoin:miter;stroke-width:0.25;" x="241.894266" xlink:href="#m631c24a74b" y="189.624477"/>
     <use style="fill:#008000;stroke:#ffffff;stroke-linejoin:miter;stroke-width:0.25;" x="244.669091" xlink:href="#m631c24a74b" y="189.431228"/>
     <use style="fill:#008000;stroke:#ffffff;stroke-linejoin:miter;stroke-width:0.25;" x="247.443916" xlink:href="#m631c24a74b" y="189.170173"/>
     <use style="fill:#008000;stroke:#ffffff;stroke-linejoin:miter;stroke-width:0.25;" x="250.218741" xlink:href="#m631c24a74b" y="188.839616"/>
     <use style="fill:#008000;stroke:#ffffff;stroke-linejoin:miter;stroke-width:0.25;" x="252.993566" xlink:href="#m631c24a74b" y="188.651452"/>
     <use style="fill:#008000;stroke:#ffffff;stroke-linejoin:miter;stroke-width:0.25;" x="255.768392" xlink:href="#m631c24a74b" y="188.480241"/>
     <use style="fill:#008000;stroke:#ffffff;stroke-linejoin:miter;stroke-width:0.25;" x="258.543217" xlink:href="#m631c24a74b" y="188.178501"/>
     <use style="fill:#008000;stroke:#ffffff;stroke-linejoin:miter;stroke-width:0.25;" x="261.318042" xlink:href="#m631c24a74b" y="188.054754"/>
     <use style="fill:#008000;stroke:#ffffff;stroke-linejoin:miter;stroke-width:0.25;" x="264.092867" xlink:href="#m631c24a74b" y="187.485179"/>
     <use style="fill:#008000;stroke:#ffffff;stroke-linejoin:miter;stroke-width:0.25;" x="266.867692" xlink:href="#m631c24a74b" y="187.022399"/>
     <use style="fill:#008000;stroke:#ffffff;stroke-linejoin:miter;stroke-width:0.25;" x="269.642517" xlink:href="#m631c24a74b" y="186.30704"/>
     <use style="fill:#008000;stroke:#ffffff;stroke-linejoin:miter;stroke-width:0.25;" x="272.417343" xlink:href="#m631c24a74b" y="185.64423"/>
     <use style="fill:#008000;stroke:#ffffff;stroke-linejoin:miter;stroke-width:0.25;" x="275.192168" xlink:href="#m631c24a74b" y="184.933956"/>
     <use style="fill:#008000;stroke:#ffffff;stroke-linejoin:miter;stroke-width:0.25;" x="277.966993" xlink:href="#m631c24a74b" y="183.743951"/>
     <use style="fill:#008000;stroke:#ffffff;stroke-linejoin:miter;stroke-width:0.25;" x="280.741818" xlink:href="#m631c24a74b" y="183.074361"/>
     <use style="fill:#008000;stroke:#ffffff;stroke-linejoin:miter;stroke-width:0.25;" x="283.516643" xlink:href="#m631c24a74b" y="181.986065"/>
     <use style="fill:#008000;stroke:#ffffff;stroke-linejoin:miter;stroke-width:0.25;" x="286.291469" xlink:href="#m631c24a74b" y="181.162215"/>
     <use style="fill:#008000;stroke:#ffffff;stroke-linejoin:miter;stroke-width:0.25;" x="289.066294" xlink:href="#m631c24a74b" y="180.414647"/>
     <use style="fill:#008000;stroke:#ffffff;stroke-linejoin:miter;stroke-width:0.25;" x="291.841119" xlink:href="#m631c24a74b" y="179.424671"/>
     <use style="fill:#008000;stroke:#ffffff;stroke-linejoin:miter;stroke-width:0.25;" x="294.615944" xlink:href="#m631c24a74b" y="178.38384"/>
     <use style="fill:#008000;stroke:#ffffff;stroke-linejoin:miter;stroke-width:0.25;" x="297.390769" xlink:href="#m631c24a74b" y="177.349789"/>
     <use style="fill:#008000;stroke:#ffffff;stroke-linejoin:miter;stroke-width:0.25;" x="300.165594" xlink:href="#m631c24a74b" y="176.180126"/>
     <use style="fill:#008000;stroke:#ffffff;stroke-linejoin:miter;stroke-width:0.25;" x="302.94042" xlink:href="#m631c24a74b" y="175.110477"/>
     <use style="fill:#008000;stroke:#ffffff;stroke-linejoin:miter;stroke-width:0.25;" x="305.715245" xlink:href="#m631c24a74b" y="173.518717"/>
     <use style="fill:#008000;stroke:#ffffff;stroke-linejoin:miter;stroke-width:0.25;" x="308.49007" xlink:href="#m631c24a74b" y="172.142244"/>
     <use style="fill:#008000;stroke:#ffffff;stroke-linejoin:miter;stroke-width:0.25;" x="311.264895" xlink:href="#m631c24a74b" y="170.521666"/>
     <use style="fill:#008000;stroke:#ffffff;stroke-linejoin:miter;stroke-width:0.25;" x="314.03972" xlink:href="#m631c24a74b" y="168.70445"/>
     <use style="fill:#008000;stroke:#ffffff;stroke-linejoin:miter;stroke-width:0.25;" x="316.814545" xlink:href="#m631c24a74b" y="166.509211"/>
     <use style="fill:#008000;stroke:#ffffff;stroke-linejoin:miter;stroke-width:0.25;" x="319.589371" xlink:href="#m631c24a74b" y="164.493661"/>
     <use style="fill:#008000;stroke:#ffffff;stroke-linejoin:miter;stroke-width:0.25;" x="322.364196" xlink:href="#m631c24a74b" y="162.044148"/>
     <use style="fill:#008000;stroke:#ffffff;stroke-linejoin:miter;stroke-width:0.25;" x="325.139021" xlink:href="#m631c24a74b" y="160.16082"/>
     <use style="fill:#008000;stroke:#ffffff;stroke-linejoin:miter;stroke-width:0.25;" x="327.913846" xlink:href="#m631c24a74b" y="157.763857"/>
     <use style="fill:#008000;stroke:#ffffff;stroke-linejoin:miter;stroke-width:0.25;" x="330.688671" xlink:href="#m631c24a74b" y="154.936322"/>
     <use style="fill:#008000;stroke:#ffffff;stroke-linejoin:miter;stroke-width:0.25;" x="333.463497" xlink:href="#m631c24a74b" y="152.257962"/>
     <use style="fill:#008000;stroke:#ffffff;stroke-linejoin:miter;stroke-width:0.25;" x="336.238322" xlink:href="#m631c24a74b" y="149.086309"/>
     <use style="fill:#008000;stroke:#ffffff;stroke-linejoin:miter;stroke-width:0.25;" x="339.013147" xlink:href="#m631c24a74b" y="145.729883"/>
     <use style="fill:#008000;stroke:#ffffff;stroke-linejoin:miter;stroke-width:0.25;" x="341.787972" xlink:href="#m631c24a74b" y="143.07017"/>
     <use style="fill:#008000;stroke:#ffffff;stroke-linejoin:miter;stroke-width:0.25;" x="344.562797" xlink:href="#m631c24a74b" y="139.189938"/>
     <use style="fill:#008000;stroke:#ffffff;stroke-linejoin:miter;stroke-width:0.25;" x="347.337622" xlink:href="#m631c24a74b" y="132.466915"/>
     <use style="fill:#008000;stroke:#ffffff;stroke-linejoin:miter;stroke-width:0.25;" x="350.112448" xlink:href="#m631c24a74b" y="128.108646"/>
     <use style="fill:#008000;stroke:#ffffff;stroke-linejoin:miter;stroke-width:0.25;" x="352.887273" xlink:href="#m631c24a74b" y="128.059487"/>
    </g>
   </g>
   <g id="line2d_19">
    <path clip-path="url(#p9c07636285)" d="M 28.232727 190.48223 
L 31.007552 190.48223 
L 33.782378 190.48223 
L 36.557203 190.48223 
L 39.332028 190.48223 
L 42.106853 190.48223 
L 44.881678 190.48223 
L 47.656503 190.48223 
L 50.431329 190.48223 
L 53.206154 190.48223 
L 55.980979 190.48223 
L 58.755804 190.48223 
L 61.530629 190.48223 
L 64.305455 190.48223 
L 67.08028 190.48223 
L 69.855105 190.48223 
L 72.62993 190.48223 
L 75.404755 190.48223 
L 78.17958 190.48223 
L 80.954406 190.48223 
L 83.729231 190.48223 
L 86.504056 190.48223 
L 89.278881 190.48223 
L 92.053706 190.48223 
L 94.828531 190.48223 
L 97.603357 190.48223 
L 100.378182 190.48223 
L 103.153007 190.48223 
L 105.927832 190.48223 
L 108.702657 190.48223 
L 111.477483 190.48223 
L 114.252308 190.48223 
L 117.027133 190.48223 
L 119.801958 190.48223 
L 122.576783 190.48223 
L 125.351608 190.48223 
L 128.126434 190.48223 
L 130.901259 190.48223 
L 133.676084 190.48223 
L 136.450909 190.48223 
L 139.225734 190.48223 
L 142.000559 190.48223 
L 144.775385 190.48223 
L 147.55021 190.48223 
L 150.325035 190.48223 
L 153.09986 190.48223 
L 155.874685 190.48223 
L 158.64951 190.48223 
L 161.424336 190.48223 
L 164.199161 190.480535 
L 166.973986 190.480535 
L 169.748811 190.47884 
L 172.523636 190.47884 
L 175.298462 190.47884 
L 178.073287 190.47884 
L 180.848112 190.477145 
L 183.622937 190.477145 
L 186.397762 190.475449 
L 189.172587 190.473754 
L 191.947413 190.475449 
L 194.722238 190.470364 
L 197.497063 190.465278 
L 200.271888 190.465278 
L 203.046713 190.461888 
L 205.821538 190.448327 
L 208.596364 190.448327 
L 211.371189 190.441546 
L 214.146014 190.436461 
L 216.920839 190.427985 
L 219.695664 190.422899 
L 222.47049 190.383911 
L 225.245315 190.360178 
L 228.02014 190.360178 
L 230.794965 190.336446 
L 233.56979 190.314409 
L 236.344615 190.251688 
L 239.119441 190.227955 
L 241.894266 190.180491 
L 244.669091 190.099123 
L 247.443916 190.06522 
L 250.218741 189.994023 
L 252.993566 189.921131 
L 255.768392 189.875361 
L 258.543217 189.81603 
L 261.318042 189.795688 
L 264.092867 189.722796 
L 266.867692 189.65838 
L 269.642517 189.599049 
L 272.417343 189.534633 
L 275.192168 189.478693 
L 277.966993 189.388849 
L 280.741818 189.327823 
L 283.516643 189.260016 
L 286.291469 189.160002 
L 289.066294 189.083719 
L 291.841119 188.98879 
L 294.615944 188.89047 
L 297.390769 188.773504 
L 300.165594 188.653147 
L 302.94042 188.52601 
L 305.715245 188.409044 
L 308.49007 188.239527 
L 311.264895 188.124256 
L 314.03972 187.827602 
L 316.814545 187.612316 
L 319.589371 187.456361 
L 322.364196 187.280064 
L 325.139021 187.117328 
L 327.913846 186.920689 
L 330.688671 186.732526 
L 333.463497 186.593522 
L 336.238322 186.388407 
L 339.013147 186.157865 
L 341.787972 185.991739 
L 344.562797 185.815442 
L 347.337622 185.615412 
L 350.112448 185.354357 
L 352.887273 185.347576 
" style="fill:none;stroke:#808080;stroke-linecap:round;stroke-width:1.5;"/>
    <defs>
     <path d="M -0.75 1.5 
L 0 0.75 
L 0.75 1.5 
L 1.5 0.75 
L 0.75 0 
L 1.5 -0.75 
L 0.75 -1.5 
L 0 -0.75 
L -0.75 -1.5 
L -1.5 -0.75 
L -0.75 0 
L -1.5 0.75 
z
" id="mca63032baf" style="stroke:#ffffff;stroke-linejoin:miter;stroke-width:0.25;"/>
    </defs>
    <g clip-path="url(#p9c07636285)">
     <use style="fill:#808080;stroke:#ffffff;stroke-linejoin:miter;stroke-width:0.25;" x="28.232727" xlink:href="#mca63032baf" y="190.48223"/>
     <use style="fill:#808080;stroke:#ffffff;stroke-linejoin:miter;stroke-width:0.25;" x="31.007552" xlink:href="#mca63032baf" y="190.48223"/>
     <use style="fill:#808080;stroke:#ffffff;stroke-linejoin:miter;stroke-width:0.25;" x="33.782378" xlink:href="#mca63032baf" y="190.48223"/>
     <use style="fill:#808080;stroke:#ffffff;stroke-linejoin:miter;stroke-width:0.25;" x="36.557203" xlink:href="#mca63032baf" y="190.48223"/>
     <use style="fill:#808080;stroke:#ffffff;stroke-linejoin:miter;stroke-width:0.25;" x="39.332028" xlink:href="#mca63032baf" y="190.48223"/>
     <use style="fill:#808080;stroke:#ffffff;stroke-linejoin:miter;stroke-width:0.25;" x="42.106853" xlink:href="#mca63032baf" y="190.48223"/>
     <use style="fill:#808080;stroke:#ffffff;stroke-linejoin:miter;stroke-width:0.25;" x="44.881678" xlink:href="#mca63032baf" y="190.48223"/>
     <use style="fill:#808080;stroke:#ffffff;stroke-linejoin:miter;stroke-width:0.25;" x="47.656503" xlink:href="#mca63032baf" y="190.48223"/>
     <use style="fill:#808080;stroke:#ffffff;stroke-linejoin:miter;stroke-width:0.25;" x="50.431329" xlink:href="#mca63032baf" y="190.48223"/>
     <use style="fill:#808080;stroke:#ffffff;stroke-linejoin:miter;stroke-width:0.25;" x="53.206154" xlink:href="#mca63032baf" y="190.48223"/>
     <use style="fill:#808080;stroke:#ffffff;stroke-linejoin:miter;stroke-width:0.25;" x="55.980979" xlink:href="#mca63032baf" y="190.48223"/>
     <use style="fill:#808080;stroke:#ffffff;stroke-linejoin:miter;stroke-width:0.25;" x="58.755804" xlink:href="#mca63032baf" y="190.48223"/>
     <use style="fill:#808080;stroke:#ffffff;stroke-linejoin:miter;stroke-width:0.25;" x="61.530629" xlink:href="#mca63032baf" y="190.48223"/>
     <use style="fill:#808080;stroke:#ffffff;stroke-linejoin:miter;stroke-width:0.25;" x="64.305455" xlink:href="#mca63032baf" y="190.48223"/>
     <use style="fill:#808080;stroke:#ffffff;stroke-linejoin:miter;stroke-width:0.25;" x="67.08028" xlink:href="#mca63032baf" y="190.48223"/>
     <use style="fill:#808080;stroke:#ffffff;stroke-linejoin:miter;stroke-width:0.25;" x="69.855105" xlink:href="#mca63032baf" y="190.48223"/>
     <use style="fill:#808080;stroke:#ffffff;stroke-linejoin:miter;stroke-width:0.25;" x="72.62993" xlink:href="#mca63032baf" y="190.48223"/>
     <use style="fill:#808080;stroke:#ffffff;stroke-linejoin:miter;stroke-width:0.25;" x="75.404755" xlink:href="#mca63032baf" y="190.48223"/>
     <use style="fill:#808080;stroke:#ffffff;stroke-linejoin:miter;stroke-width:0.25;" x="78.17958" xlink:href="#mca63032baf" y="190.48223"/>
     <use style="fill:#808080;stroke:#ffffff;stroke-linejoin:miter;stroke-width:0.25;" x="80.954406" xlink:href="#mca63032baf" y="190.48223"/>
     <use style="fill:#808080;stroke:#ffffff;stroke-linejoin:miter;stroke-width:0.25;" x="83.729231" xlink:href="#mca63032baf" y="190.48223"/>
     <use style="fill:#808080;stroke:#ffffff;stroke-linejoin:miter;stroke-width:0.25;" x="86.504056" xlink:href="#mca63032baf" y="190.48223"/>
     <use style="fill:#808080;stroke:#ffffff;stroke-linejoin:miter;stroke-width:0.25;" x="89.278881" xlink:href="#mca63032baf" y="190.48223"/>
     <use style="fill:#808080;stroke:#ffffff;stroke-linejoin:miter;stroke-width:0.25;" x="92.053706" xlink:href="#mca63032baf" y="190.48223"/>
     <use style="fill:#808080;stroke:#ffffff;stroke-linejoin:miter;stroke-width:0.25;" x="94.828531" xlink:href="#mca63032baf" y="190.48223"/>
     <use style="fill:#808080;stroke:#ffffff;stroke-linejoin:miter;stroke-width:0.25;" x="97.603357" xlink:href="#mca63032baf" y="190.48223"/>
     <use style="fill:#808080;stroke:#ffffff;stroke-linejoin:miter;stroke-width:0.25;" x="100.378182" xlink:href="#mca63032baf" y="190.48223"/>
     <use style="fill:#808080;stroke:#ffffff;stroke-linejoin:miter;stroke-width:0.25;" x="103.153007" xlink:href="#mca63032baf" y="190.48223"/>
     <use style="fill:#808080;stroke:#ffffff;stroke-linejoin:miter;stroke-width:0.25;" x="105.927832" xlink:href="#mca63032baf" y="190.48223"/>
     <use style="fill:#808080;stroke:#ffffff;stroke-linejoin:miter;stroke-width:0.25;" x="108.702657" xlink:href="#mca63032baf" y="190.48223"/>
     <use style="fill:#808080;stroke:#ffffff;stroke-linejoin:miter;stroke-width:0.25;" x="111.477483" xlink:href="#mca63032baf" y="190.48223"/>
     <use style="fill:#808080;stroke:#ffffff;stroke-linejoin:miter;stroke-width:0.25;" x="114.252308" xlink:href="#mca63032baf" y="190.48223"/>
     <use style="fill:#808080;stroke:#ffffff;stroke-linejoin:miter;stroke-width:0.25;" x="117.027133" xlink:href="#mca63032baf" y="190.48223"/>
     <use style="fill:#808080;stroke:#ffffff;stroke-linejoin:miter;stroke-width:0.25;" x="119.801958" xlink:href="#mca63032baf" y="190.48223"/>
     <use style="fill:#808080;stroke:#ffffff;stroke-linejoin:miter;stroke-width:0.25;" x="122.576783" xlink:href="#mca63032baf" y="190.48223"/>
     <use style="fill:#808080;stroke:#ffffff;stroke-linejoin:miter;stroke-width:0.25;" x="125.351608" xlink:href="#mca63032baf" y="190.48223"/>
     <use style="fill:#808080;stroke:#ffffff;stroke-linejoin:miter;stroke-width:0.25;" x="128.126434" xlink:href="#mca63032baf" y="190.48223"/>
     <use style="fill:#808080;stroke:#ffffff;stroke-linejoin:miter;stroke-width:0.25;" x="130.901259" xlink:href="#mca63032baf" y="190.48223"/>
     <use style="fill:#808080;stroke:#ffffff;stroke-linejoin:miter;stroke-width:0.25;" x="133.676084" xlink:href="#mca63032baf" y="190.48223"/>
     <use style="fill:#808080;stroke:#ffffff;stroke-linejoin:miter;stroke-width:0.25;" x="136.450909" xlink:href="#mca63032baf" y="190.48223"/>
     <use style="fill:#808080;stroke:#ffffff;stroke-linejoin:miter;stroke-width:0.25;" x="139.225734" xlink:href="#mca63032baf" y="190.48223"/>
     <use style="fill:#808080;stroke:#ffffff;stroke-linejoin:miter;stroke-width:0.25;" x="142.000559" xlink:href="#mca63032baf" y="190.48223"/>
     <use style="fill:#808080;stroke:#ffffff;stroke-linejoin:miter;stroke-width:0.25;" x="144.775385" xlink:href="#mca63032baf" y="190.48223"/>
     <use style="fill:#808080;stroke:#ffffff;stroke-linejoin:miter;stroke-width:0.25;" x="147.55021" xlink:href="#mca63032baf" y="190.48223"/>
     <use style="fill:#808080;stroke:#ffffff;stroke-linejoin:miter;stroke-width:0.25;" x="150.325035" xlink:href="#mca63032baf" y="190.48223"/>
     <use style="fill:#808080;stroke:#ffffff;stroke-linejoin:miter;stroke-width:0.25;" x="153.09986" xlink:href="#mca63032baf" y="190.48223"/>
     <use style="fill:#808080;stroke:#ffffff;stroke-linejoin:miter;stroke-width:0.25;" x="155.874685" xlink:href="#mca63032baf" y="190.48223"/>
     <use style="fill:#808080;stroke:#ffffff;stroke-linejoin:miter;stroke-width:0.25;" x="158.64951" xlink:href="#mca63032baf" y="190.48223"/>
     <use style="fill:#808080;stroke:#ffffff;stroke-linejoin:miter;stroke-width:0.25;" x="161.424336" xlink:href="#mca63032baf" y="190.48223"/>
     <use style="fill:#808080;stroke:#ffffff;stroke-linejoin:miter;stroke-width:0.25;" x="164.199161" xlink:href="#mca63032baf" y="190.480535"/>
     <use style="fill:#808080;stroke:#ffffff;stroke-linejoin:miter;stroke-width:0.25;" x="166.973986" xlink:href="#mca63032baf" y="190.480535"/>
     <use style="fill:#808080;stroke:#ffffff;stroke-linejoin:miter;stroke-width:0.25;" x="169.748811" xlink:href="#mca63032baf" y="190.47884"/>
     <use style="fill:#808080;stroke:#ffffff;stroke-linejoin:miter;stroke-width:0.25;" x="172.523636" xlink:href="#mca63032baf" y="190.47884"/>
     <use style="fill:#808080;stroke:#ffffff;stroke-linejoin:miter;stroke-width:0.25;" x="175.298462" xlink:href="#mca63032baf" y="190.47884"/>
     <use style="fill:#808080;stroke:#ffffff;stroke-linejoin:miter;stroke-width:0.25;" x="178.073287" xlink:href="#mca63032baf" y="190.47884"/>
     <use style="fill:#808080;stroke:#ffffff;stroke-linejoin:miter;stroke-width:0.25;" x="180.848112" xlink:href="#mca63032baf" y="190.477145"/>
     <use style="fill:#808080;stroke:#ffffff;stroke-linejoin:miter;stroke-width:0.25;" x="183.622937" xlink:href="#mca63032baf" y="190.477145"/>
     <use style="fill:#808080;stroke:#ffffff;stroke-linejoin:miter;stroke-width:0.25;" x="186.397762" xlink:href="#mca63032baf" y="190.475449"/>
     <use style="fill:#808080;stroke:#ffffff;stroke-linejoin:miter;stroke-width:0.25;" x="189.172587" xlink:href="#mca63032baf" y="190.473754"/>
     <use style="fill:#808080;stroke:#ffffff;stroke-linejoin:miter;stroke-width:0.25;" x="191.947413" xlink:href="#mca63032baf" y="190.475449"/>
     <use style="fill:#808080;stroke:#ffffff;stroke-linejoin:miter;stroke-width:0.25;" x="194.722238" xlink:href="#mca63032baf" y="190.470364"/>
     <use style="fill:#808080;stroke:#ffffff;stroke-linejoin:miter;stroke-width:0.25;" x="197.497063" xlink:href="#mca63032baf" y="190.465278"/>
     <use style="fill:#808080;stroke:#ffffff;stroke-linejoin:miter;stroke-width:0.25;" x="200.271888" xlink:href="#mca63032baf" y="190.465278"/>
     <use style="fill:#808080;stroke:#ffffff;stroke-linejoin:miter;stroke-width:0.25;" x="203.046713" xlink:href="#mca63032baf" y="190.461888"/>
     <use style="fill:#808080;stroke:#ffffff;stroke-linejoin:miter;stroke-width:0.25;" x="205.821538" xlink:href="#mca63032baf" y="190.448327"/>
     <use style="fill:#808080;stroke:#ffffff;stroke-linejoin:miter;stroke-width:0.25;" x="208.596364" xlink:href="#mca63032baf" y="190.448327"/>
     <use style="fill:#808080;stroke:#ffffff;stroke-linejoin:miter;stroke-width:0.25;" x="211.371189" xlink:href="#mca63032baf" y="190.441546"/>
     <use style="fill:#808080;stroke:#ffffff;stroke-linejoin:miter;stroke-width:0.25;" x="214.146014" xlink:href="#mca63032baf" y="190.436461"/>
     <use style="fill:#808080;stroke:#ffffff;stroke-linejoin:miter;stroke-width:0.25;" x="216.920839" xlink:href="#mca63032baf" y="190.427985"/>
     <use style="fill:#808080;stroke:#ffffff;stroke-linejoin:miter;stroke-width:0.25;" x="219.695664" xlink:href="#mca63032baf" y="190.422899"/>
     <use style="fill:#808080;stroke:#ffffff;stroke-linejoin:miter;stroke-width:0.25;" x="222.47049" xlink:href="#mca63032baf" y="190.383911"/>
     <use style="fill:#808080;stroke:#ffffff;stroke-linejoin:miter;stroke-width:0.25;" x="225.245315" xlink:href="#mca63032baf" y="190.360178"/>
     <use style="fill:#808080;stroke:#ffffff;stroke-linejoin:miter;stroke-width:0.25;" x="228.02014" xlink:href="#mca63032baf" y="190.360178"/>
     <use style="fill:#808080;stroke:#ffffff;stroke-linejoin:miter;stroke-width:0.25;" x="230.794965" xlink:href="#mca63032baf" y="190.336446"/>
     <use style="fill:#808080;stroke:#ffffff;stroke-linejoin:miter;stroke-width:0.25;" x="233.56979" xlink:href="#mca63032baf" y="190.314409"/>
     <use style="fill:#808080;stroke:#ffffff;stroke-linejoin:miter;stroke-width:0.25;" x="236.344615" xlink:href="#mca63032baf" y="190.251688"/>
     <use style="fill:#808080;stroke:#ffffff;stroke-linejoin:miter;stroke-width:0.25;" x="239.119441" xlink:href="#mca63032baf" y="190.227955"/>
     <use style="fill:#808080;stroke:#ffffff;stroke-linejoin:miter;stroke-width:0.25;" x="241.894266" xlink:href="#mca63032baf" y="190.180491"/>
     <use style="fill:#808080;stroke:#ffffff;stroke-linejoin:miter;stroke-width:0.25;" x="244.669091" xlink:href="#mca63032baf" y="190.099123"/>
     <use style="fill:#808080;stroke:#ffffff;stroke-linejoin:miter;stroke-width:0.25;" x="247.443916" xlink:href="#mca63032baf" y="190.06522"/>
     <use style="fill:#808080;stroke:#ffffff;stroke-linejoin:miter;stroke-width:0.25;" x="250.218741" xlink:href="#mca63032baf" y="189.994023"/>
     <use style="fill:#808080;stroke:#ffffff;stroke-linejoin:miter;stroke-width:0.25;" x="252.993566" xlink:href="#mca63032baf" y="189.921131"/>
     <use style="fill:#808080;stroke:#ffffff;stroke-linejoin:miter;stroke-width:0.25;" x="255.768392" xlink:href="#mca63032baf" y="189.875361"/>
     <use style="fill:#808080;stroke:#ffffff;stroke-linejoin:miter;stroke-width:0.25;" x="258.543217" xlink:href="#mca63032baf" y="189.81603"/>
     <use style="fill:#808080;stroke:#ffffff;stroke-linejoin:miter;stroke-width:0.25;" x="261.318042" xlink:href="#mca63032baf" y="189.795688"/>
     <use style="fill:#808080;stroke:#ffffff;stroke-linejoin:miter;stroke-width:0.25;" x="264.092867" xlink:href="#mca63032baf" y="189.722796"/>
     <use style="fill:#808080;stroke:#ffffff;stroke-linejoin:miter;stroke-width:0.25;" x="266.867692" xlink:href="#mca63032baf" y="189.65838"/>
     <use style="fill:#808080;stroke:#ffffff;stroke-linejoin:miter;stroke-width:0.25;" x="269.642517" xlink:href="#mca63032baf" y="189.599049"/>
     <use style="fill:#808080;stroke:#ffffff;stroke-linejoin:miter;stroke-width:0.25;" x="272.417343" xlink:href="#mca63032baf" y="189.534633"/>
     <use style="fill:#808080;stroke:#ffffff;stroke-linejoin:miter;stroke-width:0.25;" x="275.192168" xlink:href="#mca63032baf" y="189.478693"/>
     <use style="fill:#808080;stroke:#ffffff;stroke-linejoin:miter;stroke-width:0.25;" x="277.966993" xlink:href="#mca63032baf" y="189.388849"/>
     <use style="fill:#808080;stroke:#ffffff;stroke-linejoin:miter;stroke-width:0.25;" x="280.741818" xlink:href="#mca63032baf" y="189.327823"/>
     <use style="fill:#808080;stroke:#ffffff;stroke-linejoin:miter;stroke-width:0.25;" x="283.516643" xlink:href="#mca63032baf" y="189.260016"/>
     <use style="fill:#808080;stroke:#ffffff;stroke-linejoin:miter;stroke-width:0.25;" x="286.291469" xlink:href="#mca63032baf" y="189.160002"/>
     <use style="fill:#808080;stroke:#ffffff;stroke-linejoin:miter;stroke-width:0.25;" x="289.066294" xlink:href="#mca63032baf" y="189.083719"/>
     <use style="fill:#808080;stroke:#ffffff;stroke-linejoin:miter;stroke-width:0.25;" x="291.841119" xlink:href="#mca63032baf" y="188.98879"/>
     <use style="fill:#808080;stroke:#ffffff;stroke-linejoin:miter;stroke-width:0.25;" x="294.615944" xlink:href="#mca63032baf" y="188.89047"/>
     <use style="fill:#808080;stroke:#ffffff;stroke-linejoin:miter;stroke-width:0.25;" x="297.390769" xlink:href="#mca63032baf" y="188.773504"/>
     <use style="fill:#808080;stroke:#ffffff;stroke-linejoin:miter;stroke-width:0.25;" x="300.165594" xlink:href="#mca63032baf" y="188.653147"/>
     <use style="fill:#808080;stroke:#ffffff;stroke-linejoin:miter;stroke-width:0.25;" x="302.94042" xlink:href="#mca63032baf" y="188.52601"/>
     <use style="fill:#808080;stroke:#ffffff;stroke-linejoin:miter;stroke-width:0.25;" x="305.715245" xlink:href="#mca63032baf" y="188.409044"/>
     <use style="fill:#808080;stroke:#ffffff;stroke-linejoin:miter;stroke-width:0.25;" x="308.49007" xlink:href="#mca63032baf" y="188.239527"/>
     <use style="fill:#808080;stroke:#ffffff;stroke-linejoin:miter;stroke-width:0.25;" x="311.264895" xlink:href="#mca63032baf" y="188.124256"/>
     <use style="fill:#808080;stroke:#ffffff;stroke-linejoin:miter;stroke-width:0.25;" x="314.03972" xlink:href="#mca63032baf" y="187.827602"/>
     <use style="fill:#808080;stroke:#ffffff;stroke-linejoin:miter;stroke-width:0.25;" x="316.814545" xlink:href="#mca63032baf" y="187.612316"/>
     <use style="fill:#808080;stroke:#ffffff;stroke-linejoin:miter;stroke-width:0.25;" x="319.589371" xlink:href="#mca63032baf" y="187.456361"/>
     <use style="fill:#808080;stroke:#ffffff;stroke-linejoin:miter;stroke-width:0.25;" x="322.364196" xlink:href="#mca63032baf" y="187.280064"/>
     <use style="fill:#808080;stroke:#ffffff;stroke-linejoin:miter;stroke-width:0.25;" x="325.139021" xlink:href="#mca63032baf" y="187.117328"/>
     <use style="fill:#808080;stroke:#ffffff;stroke-linejoin:miter;stroke-width:0.25;" x="327.913846" xlink:href="#mca63032baf" y="186.920689"/>
     <use style="fill:#808080;stroke:#ffffff;stroke-linejoin:miter;stroke-width:0.25;" x="330.688671" xlink:href="#mca63032baf" y="186.732526"/>
     <use style="fill:#808080;stroke:#ffffff;stroke-linejoin:miter;stroke-width:0.25;" x="333.463497" xlink:href="#mca63032baf" y="186.593522"/>
     <use style="fill:#808080;stroke:#ffffff;stroke-linejoin:miter;stroke-width:0.25;" x="336.238322" xlink:href="#mca63032baf" y="186.388407"/>
     <use style="fill:#808080;stroke:#ffffff;stroke-linejoin:miter;stroke-width:0.25;" x="339.013147" xlink:href="#mca63032baf" y="186.157865"/>
     <use style="fill:#808080;stroke:#ffffff;stroke-linejoin:miter;stroke-width:0.25;" x="341.787972" xlink:href="#mca63032baf" y="185.991739"/>
     <use style="fill:#808080;stroke:#ffffff;stroke-linejoin:miter;stroke-width:0.25;" x="344.562797" xlink:href="#mca63032baf" y="185.815442"/>
     <use style="fill:#808080;stroke:#ffffff;stroke-linejoin:miter;stroke-width:0.25;" x="347.337622" xlink:href="#mca63032baf" y="185.615412"/>
     <use style="fill:#808080;stroke:#ffffff;stroke-linejoin:miter;stroke-width:0.25;" x="350.112448" xlink:href="#mca63032baf" y="185.354357"/>
     <use style="fill:#808080;stroke:#ffffff;stroke-linejoin:miter;stroke-width:0.25;" x="352.887273" xlink:href="#mca63032baf" y="185.347576"/>
    </g>
   </g>
   <g id="line2d_20"/>
   <g id="line2d_21"/>
   <g id="line2d_22"/>
   <g id="line2d_23"/>
   <g id="line2d_24">
    <path clip-path="url(#p9c07636285)" d="M 12 28.154957 
L 369.12 28.154957 
" style="fill:none;stroke:#4c72b0;stroke-dasharray:0.5,0.825;stroke-dashoffset:0;stroke-width:0.5;"/>
   </g>
   <g id="line2d_25">
    <path clip-path="url(#p9c07636285)" d="M 12 185.347576 
L 369.12 185.347576 
" style="fill:none;stroke:#4c72b0;stroke-dasharray:0.5,0.825;stroke-dashoffset:0;stroke-width:0.5;"/>
   </g>
   <g id="line2d_26">
    <path clip-path="url(#p9c07636285)" d="M 12 128.059487 
L 369.12 128.059487 
" style="fill:none;stroke:#4c72b0;stroke-dasharray:0.5,0.825;stroke-dashoffset:0;stroke-width:0.5;"/>
   </g>
   <g id="line2d_27">
    <path clip-path="url(#p9c07636285)" d="M 352.887273 198.598594 
L 352.887273 20.038594 
" style="fill:none;stroke:#4c72b0;stroke-dasharray:0.5,0.825;stroke-dashoffset:0;stroke-width:0.5;"/>
   </g>
   <g id="patch_3">
    <path d="M 12 198.598594 
L 12 20.038594 
" style="fill:none;stroke:#262626;stroke-linecap:square;stroke-linejoin:miter;stroke-width:0.5;"/>
   </g>
   <g id="patch_4">
    <path d="M 12 198.598594 
L 369.12 198.598594 
" style="fill:none;stroke:#262626;stroke-linecap:square;stroke-linejoin:miter;stroke-width:0.5;"/>
   </g>
   <g id="text_9">
    <!-- 95759 -->
    <defs>
     <path d="M 10.984375 1.515625 
L 10.984375 10.5 
Q 14.703125 8.734375 18.5 7.8125 
Q 22.3125 6.890625 25.984375 6.890625 
Q 35.75 6.890625 40.890625 13.453125 
Q 46.046875 20.015625 46.78125 33.40625 
Q 43.953125 29.203125 39.59375 26.953125 
Q 35.25 24.703125 29.984375 24.703125 
Q 19.046875 24.703125 12.671875 31.3125 
Q 6.296875 37.9375 6.296875 49.421875 
Q 6.296875 60.640625 12.9375 67.421875 
Q 19.578125 74.21875 30.609375 74.21875 
Q 43.265625 74.21875 49.921875 64.515625 
Q 56.59375 54.828125 56.59375 36.375 
Q 56.59375 19.140625 48.40625 8.859375 
Q 40.234375 -1.421875 26.421875 -1.421875 
Q 22.703125 -1.421875 18.890625 -0.6875 
Q 15.09375 0.046875 10.984375 1.515625 
z
M 30.609375 32.421875 
Q 37.25 32.421875 41.125 36.953125 
Q 45.015625 41.5 45.015625 49.421875 
Q 45.015625 57.28125 41.125 61.84375 
Q 37.25 66.40625 30.609375 66.40625 
Q 23.96875 66.40625 20.09375 61.84375 
Q 16.21875 57.28125 16.21875 49.421875 
Q 16.21875 41.5 20.09375 36.953125 
Q 23.96875 32.421875 30.609375 32.421875 
z
" id="DejaVuSans-57"/>
     <path d="M 8.203125 72.90625 
L 55.078125 72.90625 
L 55.078125 68.703125 
L 28.609375 0 
L 18.3125 0 
L 43.21875 64.59375 
L 8.203125 64.59375 
z
" id="DejaVuSans-55"/>
    </defs>
    <g style="fill:#ff0000;" transform="translate(15.5712 26.491207)scale(0.08 -0.08)">
     <use xlink:href="#DejaVuSans-57"/>
     <use x="63.623047" xlink:href="#DejaVuSans-53"/>
     <use x="127.246094" xlink:href="#DejaVuSans-55"/>
     <use x="190.869141" xlink:href="#DejaVuSans-53"/>
     <use x="254.492188" xlink:href="#DejaVuSans-57"/>
    </g>
   </g>
   <g id="text_10">
    <!-- 3029 -->
    <defs>
     <path d="M 40.578125 39.3125 
Q 47.65625 37.796875 51.625 33 
Q 55.609375 28.21875 55.609375 21.1875 
Q 55.609375 10.40625 48.1875 4.484375 
Q 40.765625 -1.421875 27.09375 -1.421875 
Q 22.515625 -1.421875 17.65625 -0.515625 
Q 12.796875 0.390625 7.625 2.203125 
L 7.625 11.71875 
Q 11.71875 9.328125 16.59375 8.109375 
Q 21.484375 6.890625 26.8125 6.890625 
Q 36.078125 6.890625 40.9375 10.546875 
Q 45.796875 14.203125 45.796875 21.1875 
Q 45.796875 27.640625 41.28125 31.265625 
Q 36.765625 34.90625 28.71875 34.90625 
L 20.21875 34.90625 
L 20.21875 43.015625 
L 29.109375 43.015625 
Q 36.375 43.015625 40.234375 45.921875 
Q 44.09375 48.828125 44.09375 54.296875 
Q 44.09375 59.90625 40.109375 62.90625 
Q 36.140625 65.921875 28.71875 65.921875 
Q 24.65625 65.921875 20.015625 65.03125 
Q 15.375 64.15625 9.8125 62.3125 
L 9.8125 71.09375 
Q 15.4375 72.65625 20.34375 73.4375 
Q 25.25 74.21875 29.59375 74.21875 
Q 40.828125 74.21875 47.359375 69.109375 
Q 53.90625 64.015625 53.90625 55.328125 
Q 53.90625 49.265625 50.4375 45.09375 
Q 46.96875 40.921875 40.578125 39.3125 
z
" id="DejaVuSans-51"/>
     <path d="M 19.1875 8.296875 
L 53.609375 8.296875 
L 53.609375 0 
L 7.328125 0 
L 7.328125 8.296875 
Q 12.9375 14.109375 22.625 23.890625 
Q 32.328125 33.6875 34.8125 36.53125 
Q 39.546875 41.84375 41.421875 45.53125 
Q 43.3125 49.21875 43.3125 52.78125 
Q 43.3125 58.59375 39.234375 62.25 
Q 35.15625 65.921875 28.609375 65.921875 
Q 23.96875 65.921875 18.8125 64.3125 
Q 13.671875 62.703125 7.8125 59.421875 
L 7.8125 69.390625 
Q 13.765625 71.78125 18.9375 73 
Q 24.125 74.21875 28.421875 74.21875 
Q 39.75 74.21875 46.484375 68.546875 
Q 53.21875 62.890625 53.21875 53.421875 
Q 53.21875 48.921875 51.53125 44.890625 
Q 49.859375 40.875 45.40625 35.40625 
Q 44.1875 33.984375 37.640625 27.21875 
Q 31.109375 20.453125 19.1875 8.296875 
z
" id="DejaVuSans-50"/>
    </defs>
    <g style="fill:#ff0000;" transform="translate(15.5712 183.683826)scale(0.08 -0.08)">
     <use xlink:href="#DejaVuSans-51"/>
     <use x="63.623047" xlink:href="#DejaVuSans-48"/>
     <use x="127.246094" xlink:href="#DejaVuSans-50"/>
     <use x="190.869141" xlink:href="#DejaVuSans-57"/>
    </g>
   </g>
   <g id="text_11">
    <!-- 36824 -->
    <defs>
     <path d="M 33.015625 40.375 
Q 26.375 40.375 22.484375 35.828125 
Q 18.609375 31.296875 18.609375 23.390625 
Q 18.609375 15.53125 22.484375 10.953125 
Q 26.375 6.390625 33.015625 6.390625 
Q 39.65625 6.390625 43.53125 10.953125 
Q 47.40625 15.53125 47.40625 23.390625 
Q 47.40625 31.296875 43.53125 35.828125 
Q 39.65625 40.375 33.015625 40.375 
z
M 52.59375 71.296875 
L 52.59375 62.3125 
Q 48.875 64.0625 45.09375 64.984375 
Q 41.3125 65.921875 37.59375 65.921875 
Q 27.828125 65.921875 22.671875 59.328125 
Q 17.53125 52.734375 16.796875 39.40625 
Q 19.671875 43.65625 24.015625 45.921875 
Q 28.375 48.1875 33.59375 48.1875 
Q 44.578125 48.1875 50.953125 41.515625 
Q 57.328125 34.859375 57.328125 23.390625 
Q 57.328125 12.15625 50.6875 5.359375 
Q 44.046875 -1.421875 33.015625 -1.421875 
Q 20.359375 -1.421875 13.671875 8.265625 
Q 6.984375 17.96875 6.984375 36.375 
Q 6.984375 53.65625 15.1875 63.9375 
Q 23.390625 74.21875 37.203125 74.21875 
Q 40.921875 74.21875 44.703125 73.484375 
Q 48.484375 72.75 52.59375 71.296875 
z
" id="DejaVuSans-54"/>
     <path d="M 37.796875 64.3125 
L 12.890625 25.390625 
L 37.796875 25.390625 
z
M 35.203125 72.90625 
L 47.609375 72.90625 
L 47.609375 25.390625 
L 58.015625 25.390625 
L 58.015625 17.1875 
L 47.609375 17.1875 
L 47.609375 0 
L 37.796875 0 
L 37.796875 17.1875 
L 4.890625 17.1875 
L 4.890625 26.703125 
z
" id="DejaVuSans-52"/>
    </defs>
    <g style="fill:#008000;" transform="translate(15.5712 126.395737)scale(0.08 -0.08)">
     <use xlink:href="#DejaVuSans-51"/>
     <use x="63.623047" xlink:href="#DejaVuSans-54"/>
     <use x="127.246094" xlink:href="#DejaVuSans-56"/>
     <use x="190.869141" xlink:href="#DejaVuSans-50"/>
     <use x="254.492188" xlink:href="#DejaVuSans-52"/>
    </g>
   </g>
   <g id="text_12">
    <!-- COVID-19 Cases, Recoveries &amp; Deaths Graph -->
    <defs>
     <path d="M 64.40625 67.28125 
L 64.40625 56.890625 
Q 59.421875 61.53125 53.78125 63.8125 
Q 48.140625 66.109375 41.796875 66.109375 
Q 29.296875 66.109375 22.65625 58.46875 
Q 16.015625 50.828125 16.015625 36.375 
Q 16.015625 21.96875 22.65625 14.328125 
Q 29.296875 6.6875 41.796875 6.6875 
Q 48.140625 6.6875 53.78125 8.984375 
Q 59.421875 11.28125 64.40625 15.921875 
L 64.40625 5.609375 
Q 59.234375 2.09375 53.4375 0.328125 
Q 47.65625 -1.421875 41.21875 -1.421875 
Q 24.65625 -1.421875 15.125 8.703125 
Q 5.609375 18.84375 5.609375 36.375 
Q 5.609375 53.953125 15.125 64.078125 
Q 24.65625 74.21875 41.21875 74.21875 
Q 47.75 74.21875 53.53125 72.484375 
Q 59.328125 70.75 64.40625 67.28125 
z
" id="DejaVuSans-67"/>
     <path d="M 39.40625 66.21875 
Q 28.65625 66.21875 22.328125 58.203125 
Q 16.015625 50.203125 16.015625 36.375 
Q 16.015625 22.609375 22.328125 14.59375 
Q 28.65625 6.59375 39.40625 6.59375 
Q 50.140625 6.59375 56.421875 14.59375 
Q 62.703125 22.609375 62.703125 36.375 
Q 62.703125 50.203125 56.421875 58.203125 
Q 50.140625 66.21875 39.40625 66.21875 
z
M 39.40625 74.21875 
Q 54.734375 74.21875 63.90625 63.9375 
Q 73.09375 53.65625 73.09375 36.375 
Q 73.09375 19.140625 63.90625 8.859375 
Q 54.734375 -1.421875 39.40625 -1.421875 
Q 24.03125 -1.421875 14.8125 8.828125 
Q 5.609375 19.09375 5.609375 36.375 
Q 5.609375 53.65625 14.8125 63.9375 
Q 24.03125 74.21875 39.40625 74.21875 
z
" id="DejaVuSans-79"/>
     <path d="M 28.609375 0 
L 0.78125 72.90625 
L 11.078125 72.90625 
L 34.1875 11.53125 
L 57.328125 72.90625 
L 67.578125 72.90625 
L 39.796875 0 
z
" id="DejaVuSans-86"/>
     <path d="M 9.8125 72.90625 
L 19.671875 72.90625 
L 19.671875 0 
L 9.8125 0 
z
" id="DejaVuSans-73"/>
     <path d="M 19.671875 64.796875 
L 19.671875 8.109375 
L 31.59375 8.109375 
Q 46.6875 8.109375 53.6875 14.9375 
Q 60.6875 21.78125 60.6875 36.53125 
Q 60.6875 51.171875 53.6875 57.984375 
Q 46.6875 64.796875 31.59375 64.796875 
z
M 9.8125 72.90625 
L 30.078125 72.90625 
Q 51.265625 72.90625 61.171875 64.09375 
Q 71.09375 55.28125 71.09375 36.53125 
Q 71.09375 17.671875 61.125 8.828125 
Q 51.171875 0 30.078125 0 
L 9.8125 0 
z
" id="DejaVuSans-68"/>
     <path d="M 4.890625 31.390625 
L 31.203125 31.390625 
L 31.203125 23.390625 
L 4.890625 23.390625 
z
" id="DejaVuSans-45"/>
     <path d="M 44.28125 53.078125 
L 44.28125 44.578125 
Q 40.484375 46.53125 36.375 47.5 
Q 32.28125 48.484375 27.875 48.484375 
Q 21.1875 48.484375 17.84375 46.4375 
Q 14.5 44.390625 14.5 40.28125 
Q 14.5 37.15625 16.890625 35.375 
Q 19.28125 33.59375 26.515625 31.984375 
L 29.59375 31.296875 
Q 39.15625 29.25 43.1875 25.515625 
Q 47.21875 21.78125 47.21875 15.09375 
Q 47.21875 7.46875 41.1875 3.015625 
Q 35.15625 -1.421875 24.609375 -1.421875 
Q 20.21875 -1.421875 15.453125 -0.5625 
Q 10.6875 0.296875 5.421875 2 
L 5.421875 11.28125 
Q 10.40625 8.6875 15.234375 7.390625 
Q 20.0625 6.109375 24.8125 6.109375 
Q 31.15625 6.109375 34.5625 8.28125 
Q 37.984375 10.453125 37.984375 14.40625 
Q 37.984375 18.0625 35.515625 20.015625 
Q 33.0625 21.96875 24.703125 23.78125 
L 21.578125 24.515625 
Q 13.234375 26.265625 9.515625 29.90625 
Q 5.8125 33.546875 5.8125 39.890625 
Q 5.8125 47.609375 11.28125 51.796875 
Q 16.75 56 26.8125 56 
Q 31.78125 56 36.171875 55.265625 
Q 40.578125 54.546875 44.28125 53.078125 
z
" id="DejaVuSans-115"/>
     <path d="M 11.71875 12.40625 
L 22.015625 12.40625 
L 22.015625 4 
L 14.015625 -11.625 
L 7.71875 -11.625 
L 11.71875 4 
z
" id="DejaVuSans-44"/>
     <path d="M 44.390625 34.1875 
Q 47.5625 33.109375 50.5625 29.59375 
Q 53.5625 26.078125 56.59375 19.921875 
L 66.609375 0 
L 56 0 
L 46.6875 18.703125 
Q 43.0625 26.03125 39.671875 28.421875 
Q 36.28125 30.8125 30.421875 30.8125 
L 19.671875 30.8125 
L 19.671875 0 
L 9.8125 0 
L 9.8125 72.90625 
L 32.078125 72.90625 
Q 44.578125 72.90625 50.734375 67.671875 
Q 56.890625 62.453125 56.890625 51.90625 
Q 56.890625 45.015625 53.6875 40.46875 
Q 50.484375 35.9375 44.390625 34.1875 
z
M 19.671875 64.796875 
L 19.671875 38.921875 
L 32.078125 38.921875 
Q 39.203125 38.921875 42.84375 42.21875 
Q 46.484375 45.515625 46.484375 51.90625 
Q 46.484375 58.296875 42.84375 61.546875 
Q 39.203125 64.796875 32.078125 64.796875 
z
" id="DejaVuSans-82"/>
     <path d="M 48.78125 52.59375 
L 48.78125 44.1875 
Q 44.96875 46.296875 41.140625 47.34375 
Q 37.3125 48.390625 33.40625 48.390625 
Q 24.65625 48.390625 19.8125 42.84375 
Q 14.984375 37.3125 14.984375 27.296875 
Q 14.984375 17.28125 19.8125 11.734375 
Q 24.65625 6.203125 33.40625 6.203125 
Q 37.3125 6.203125 41.140625 7.25 
Q 44.96875 8.296875 48.78125 10.40625 
L 48.78125 2.09375 
Q 45.015625 0.34375 40.984375 -0.53125 
Q 36.96875 -1.421875 32.421875 -1.421875 
Q 20.0625 -1.421875 12.78125 6.34375 
Q 5.515625 14.109375 5.515625 27.296875 
Q 5.515625 40.671875 12.859375 48.328125 
Q 20.21875 56 33.015625 56 
Q 37.15625 56 41.109375 55.140625 
Q 45.0625 54.296875 48.78125 52.59375 
z
" id="DejaVuSans-99"/>
     <path d="M 30.609375 48.390625 
Q 23.390625 48.390625 19.1875 42.75 
Q 14.984375 37.109375 14.984375 27.296875 
Q 14.984375 17.484375 19.15625 11.84375 
Q 23.34375 6.203125 30.609375 6.203125 
Q 37.796875 6.203125 41.984375 11.859375 
Q 46.1875 17.53125 46.1875 27.296875 
Q 46.1875 37.015625 41.984375 42.703125 
Q 37.796875 48.390625 30.609375 48.390625 
z
M 30.609375 56 
Q 42.328125 56 49.015625 48.375 
Q 55.71875 40.765625 55.71875 27.296875 
Q 55.71875 13.875 49.015625 6.21875 
Q 42.328125 -1.421875 30.609375 -1.421875 
Q 18.84375 -1.421875 12.171875 6.21875 
Q 5.515625 13.875 5.515625 27.296875 
Q 5.515625 40.765625 12.171875 48.375 
Q 18.84375 56 30.609375 56 
z
" id="DejaVuSans-111"/>
     <path d="M 2.984375 54.6875 
L 12.5 54.6875 
L 29.59375 8.796875 
L 46.6875 54.6875 
L 56.203125 54.6875 
L 35.6875 0 
L 23.484375 0 
z
" id="DejaVuSans-118"/>
     <path d="M 9.421875 54.6875 
L 18.40625 54.6875 
L 18.40625 0 
L 9.421875 0 
z
M 9.421875 75.984375 
L 18.40625 75.984375 
L 18.40625 64.59375 
L 9.421875 64.59375 
z
" id="DejaVuSans-105"/>
     <path d="M 24.3125 39.203125 
Q 19.875 35.25 17.796875 31.3125 
Q 15.71875 27.390625 15.71875 23.09375 
Q 15.71875 15.96875 20.890625 11.234375 
Q 26.078125 6.5 33.890625 6.5 
Q 38.53125 6.5 42.578125 8.03125 
Q 46.625 9.578125 50.203125 12.703125 
z
M 31.203125 44.671875 
L 56 19.28125 
Q 58.890625 23.640625 60.5 28.59375 
Q 62.109375 33.546875 62.40625 39.109375 
L 71.484375 39.109375 
Q 70.90625 32.671875 68.359375 26.359375 
Q 65.828125 20.0625 61.28125 13.921875 
L 74.90625 0 
L 62.59375 0 
L 55.609375 7.171875 
Q 50.53125 2.828125 44.96875 0.703125 
Q 39.40625 -1.421875 33.015625 -1.421875 
Q 21.234375 -1.421875 13.765625 5.296875 
Q 6.296875 12.015625 6.296875 22.515625 
Q 6.296875 28.765625 9.5625 34.25 
Q 12.84375 39.75 19.390625 44.578125 
Q 17.046875 47.65625 15.8125 50.703125 
Q 14.59375 53.765625 14.59375 56.6875 
Q 14.59375 64.59375 20.015625 69.40625 
Q 25.4375 74.21875 34.421875 74.21875 
Q 38.484375 74.21875 42.5 73.34375 
Q 46.53125 72.46875 50.6875 70.703125 
L 50.6875 61.8125 
Q 46.4375 64.109375 42.578125 65.296875 
Q 38.71875 66.5 35.40625 66.5 
Q 30.28125 66.5 27.078125 63.78125 
Q 23.875 61.078125 23.875 56.78125 
Q 23.875 54.296875 25.3125 51.78125 
Q 26.765625 49.265625 31.203125 44.671875 
z
" id="DejaVuSans-38"/>
     <path d="M 18.3125 70.21875 
L 18.3125 54.6875 
L 36.8125 54.6875 
L 36.8125 47.703125 
L 18.3125 47.703125 
L 18.3125 18.015625 
Q 18.3125 11.328125 20.140625 9.421875 
Q 21.96875 7.515625 27.59375 7.515625 
L 36.8125 7.515625 
L 36.8125 0 
L 27.59375 0 
Q 17.1875 0 13.234375 3.875 
Q 9.28125 7.765625 9.28125 18.015625 
L 9.28125 47.703125 
L 2.6875 47.703125 
L 2.6875 54.6875 
L 9.28125 54.6875 
L 9.28125 70.21875 
z
" id="DejaVuSans-116"/>
     <path d="M 54.890625 33.015625 
L 54.890625 0 
L 45.90625 0 
L 45.90625 32.71875 
Q 45.90625 40.484375 42.875 44.328125 
Q 39.84375 48.1875 33.796875 48.1875 
Q 26.515625 48.1875 22.3125 43.546875 
Q 18.109375 38.921875 18.109375 30.90625 
L 18.109375 0 
L 9.078125 0 
L 9.078125 75.984375 
L 18.109375 75.984375 
L 18.109375 46.1875 
Q 21.34375 51.125 25.703125 53.5625 
Q 30.078125 56 35.796875 56 
Q 45.21875 56 50.046875 50.171875 
Q 54.890625 44.34375 54.890625 33.015625 
z
" id="DejaVuSans-104"/>
     <path d="M 59.515625 10.40625 
L 59.515625 29.984375 
L 43.40625 29.984375 
L 43.40625 38.09375 
L 69.28125 38.09375 
L 69.28125 6.78125 
Q 63.578125 2.734375 56.6875 0.65625 
Q 49.8125 -1.421875 42 -1.421875 
Q 24.90625 -1.421875 15.25 8.5625 
Q 5.609375 18.5625 5.609375 36.375 
Q 5.609375 54.25 15.25 64.234375 
Q 24.90625 74.21875 42 74.21875 
Q 49.125 74.21875 55.546875 72.453125 
Q 61.96875 70.703125 67.390625 67.28125 
L 67.390625 56.78125 
Q 61.921875 61.421875 55.765625 63.765625 
Q 49.609375 66.109375 42.828125 66.109375 
Q 29.4375 66.109375 22.71875 58.640625 
Q 16.015625 51.171875 16.015625 36.375 
Q 16.015625 21.625 22.71875 14.15625 
Q 29.4375 6.6875 42.828125 6.6875 
Q 48.046875 6.6875 52.140625 7.59375 
Q 56.25 8.5 59.515625 10.40625 
z
" id="DejaVuSans-71"/>
    </defs>
    <g style="fill:#262626;" transform="translate(88.964766 14.038594)scale(0.09 -0.09)">
     <use xlink:href="#DejaVuSans-67"/>
     <use x="69.824219" xlink:href="#DejaVuSans-79"/>
     <use x="146.785156" xlink:href="#DejaVuSans-86"/>
     <use x="215.193359" xlink:href="#DejaVuSans-73"/>
     <use x="244.685547" xlink:href="#DejaVuSans-68"/>
     <use x="321.6875" xlink:href="#DejaVuSans-45"/>
     <use x="357.771484" xlink:href="#DejaVuSans-49"/>
     <use x="421.394531" xlink:href="#DejaVuSans-57"/>
     <use x="485.017578" xlink:href="#DejaVuSans-32"/>
     <use x="516.804688" xlink:href="#DejaVuSans-67"/>
     <use x="586.628906" xlink:href="#DejaVuSans-97"/>
     <use x="647.908203" xlink:href="#DejaVuSans-115"/>
     <use x="700.007812" xlink:href="#DejaVuSans-101"/>
     <use x="761.53125" xlink:href="#DejaVuSans-115"/>
     <use x="813.630859" xlink:href="#DejaVuSans-44"/>
     <use x="845.417969" xlink:href="#DejaVuSans-32"/>
     <use x="877.205078" xlink:href="#DejaVuSans-82"/>
     <use x="942.1875" xlink:href="#DejaVuSans-101"/>
     <use x="1003.710938" xlink:href="#DejaVuSans-99"/>
     <use x="1058.691406" xlink:href="#DejaVuSans-111"/>
     <use x="1119.873047" xlink:href="#DejaVuSans-118"/>
     <use x="1179.052734" xlink:href="#DejaVuSans-101"/>
     <use x="1240.576172" xlink:href="#DejaVuSans-114"/>
     <use x="1281.689453" xlink:href="#DejaVuSans-105"/>
     <use x="1309.472656" xlink:href="#DejaVuSans-101"/>
     <use x="1370.996094" xlink:href="#DejaVuSans-115"/>
     <use x="1423.095703" xlink:href="#DejaVuSans-32"/>
     <use x="1454.882812" xlink:href="#DejaVuSans-38"/>
     <use x="1532.861328" xlink:href="#DejaVuSans-32"/>
     <use x="1564.648438" xlink:href="#DejaVuSans-68"/>
     <use x="1641.650391" xlink:href="#DejaVuSans-101"/>
     <use x="1703.173828" xlink:href="#DejaVuSans-97"/>
     <use x="1764.453125" xlink:href="#DejaVuSans-116"/>
     <use x="1803.662109" xlink:href="#DejaVuSans-104"/>
     <use x="1867.041016" xlink:href="#DejaVuSans-115"/>
     <use x="1919.140625" xlink:href="#DejaVuSans-32"/>
     <use x="1950.927734" xlink:href="#DejaVuSans-71"/>
     <use x="2028.417969" xlink:href="#DejaVuSans-114"/>
     <use x="2069.53125" xlink:href="#DejaVuSans-97"/>
     <use x="2130.810547" xlink:href="#DejaVuSans-112"/>
     <use x="2194.287109" xlink:href="#DejaVuSans-104"/>
    </g>
   </g>
   <g id="legend_1">
    <g id="line2d_28">
     <path d="M 19.92 31.565219 
L 37.52 31.565219 
" style="fill:none;stroke:#ff0000;stroke-linecap:round;stroke-width:1.5;"/>
    </g>
    <g id="line2d_29">
     <g>
      <use style="fill:#ff0000;stroke:#ffffff;stroke-width:0.25;" x="28.72" xlink:href="#m23a81dafbc" y="31.565219"/>
     </g>
    </g>
    <g id="text_13">
     <!-- Confirmed Cases -->
     <defs>
      <path d="M 54.890625 33.015625 
L 54.890625 0 
L 45.90625 0 
L 45.90625 32.71875 
Q 45.90625 40.484375 42.875 44.328125 
Q 39.84375 48.1875 33.796875 48.1875 
Q 26.515625 48.1875 22.3125 43.546875 
Q 18.109375 38.921875 18.109375 30.90625 
L 18.109375 0 
L 9.078125 0 
L 9.078125 54.6875 
L 18.109375 54.6875 
L 18.109375 46.1875 
Q 21.34375 51.125 25.703125 53.5625 
Q 30.078125 56 35.796875 56 
Q 45.21875 56 50.046875 50.171875 
Q 54.890625 44.34375 54.890625 33.015625 
z
" id="DejaVuSans-110"/>
      <path d="M 37.109375 75.984375 
L 37.109375 68.5 
L 28.515625 68.5 
Q 23.6875 68.5 21.796875 66.546875 
Q 19.921875 64.59375 19.921875 59.515625 
L 19.921875 54.6875 
L 34.71875 54.6875 
L 34.71875 47.703125 
L 19.921875 47.703125 
L 19.921875 0 
L 10.890625 0 
L 10.890625 47.703125 
L 2.296875 47.703125 
L 2.296875 54.6875 
L 10.890625 54.6875 
L 10.890625 58.5 
Q 10.890625 67.625 15.140625 71.796875 
Q 19.390625 75.984375 28.609375 75.984375 
z
" id="DejaVuSans-102"/>
      <path d="M 52 44.1875 
Q 55.375 50.25 60.0625 53.125 
Q 64.75 56 71.09375 56 
Q 79.640625 56 84.28125 50.015625 
Q 88.921875 44.046875 88.921875 33.015625 
L 88.921875 0 
L 79.890625 0 
L 79.890625 32.71875 
Q 79.890625 40.578125 77.09375 44.375 
Q 74.3125 48.1875 68.609375 48.1875 
Q 61.625 48.1875 57.5625 43.546875 
Q 53.515625 38.921875 53.515625 30.90625 
L 53.515625 0 
L 44.484375 0 
L 44.484375 32.71875 
Q 44.484375 40.625 41.703125 44.40625 
Q 38.921875 48.1875 33.109375 48.1875 
Q 26.21875 48.1875 22.15625 43.53125 
Q 18.109375 38.875 18.109375 30.90625 
L 18.109375 0 
L 9.078125 0 
L 9.078125 54.6875 
L 18.109375 54.6875 
L 18.109375 46.1875 
Q 21.1875 51.21875 25.484375 53.609375 
Q 29.78125 56 35.6875 56 
Q 41.65625 56 45.828125 52.96875 
Q 50 49.953125 52 44.1875 
z
" id="DejaVuSans-109"/>
      <path d="M 45.40625 46.390625 
L 45.40625 75.984375 
L 54.390625 75.984375 
L 54.390625 0 
L 45.40625 0 
L 45.40625 8.203125 
Q 42.578125 3.328125 38.25 0.953125 
Q 33.9375 -1.421875 27.875 -1.421875 
Q 17.96875 -1.421875 11.734375 6.484375 
Q 5.515625 14.40625 5.515625 27.296875 
Q 5.515625 40.1875 11.734375 48.09375 
Q 17.96875 56 27.875 56 
Q 33.9375 56 38.25 53.625 
Q 42.578125 51.265625 45.40625 46.390625 
z
M 14.796875 27.296875 
Q 14.796875 17.390625 18.875 11.75 
Q 22.953125 6.109375 30.078125 6.109375 
Q 37.203125 6.109375 41.296875 11.75 
Q 45.40625 17.390625 45.40625 27.296875 
Q 45.40625 37.203125 41.296875 42.84375 
Q 37.203125 48.484375 30.078125 48.484375 
Q 22.953125 48.484375 18.875 42.84375 
Q 14.796875 37.203125 14.796875 27.296875 
z
" id="DejaVuSans-100"/>
     </defs>
     <g style="fill:#262626;" transform="translate(44.56 34.645219)scale(0.088 -0.088)">
      <use xlink:href="#DejaVuSans-67"/>
      <use x="69.824219" xlink:href="#DejaVuSans-111"/>
      <use x="131.005859" xlink:href="#DejaVuSans-110"/>
      <use x="194.384766" xlink:href="#DejaVuSans-102"/>
      <use x="229.589844" xlink:href="#DejaVuSans-105"/>
      <use x="257.373047" xlink:href="#DejaVuSans-114"/>
      <use x="296.736328" xlink:href="#DejaVuSans-109"/>
      <use x="394.148438" xlink:href="#DejaVuSans-101"/>
      <use x="455.671875" xlink:href="#DejaVuSans-100"/>
      <use x="519.148438" xlink:href="#DejaVuSans-32"/>
      <use x="550.935547" xlink:href="#DejaVuSans-67"/>
      <use x="620.759766" xlink:href="#DejaVuSans-97"/>
      <use x="682.039062" xlink:href="#DejaVuSans-115"/>
      <use x="734.138672" xlink:href="#DejaVuSans-101"/>
      <use x="795.662109" xlink:href="#DejaVuSans-115"/>
     </g>
    </g>
    <g id="line2d_30">
     <path d="M 19.92 44.481969 
L 37.52 44.481969 
" style="fill:none;stroke:#008000;stroke-linecap:round;stroke-width:1.5;"/>
    </g>
    <g id="line2d_31">
     <g>
      <use style="fill:#008000;stroke:#ffffff;stroke-linejoin:miter;stroke-width:0.25;" x="28.72" xlink:href="#m631c24a74b" y="44.481969"/>
     </g>
    </g>
    <g id="text_14">
     <!-- Recoveries -->
     <g style="fill:#262626;" transform="translate(44.56 47.561969)scale(0.088 -0.088)">
      <use xlink:href="#DejaVuSans-82"/>
      <use x="64.982422" xlink:href="#DejaVuSans-101"/>
      <use x="126.505859" xlink:href="#DejaVuSans-99"/>
      <use x="181.486328" xlink:href="#DejaVuSans-111"/>
      <use x="242.667969" xlink:href="#DejaVuSans-118"/>
      <use x="301.847656" xlink:href="#DejaVuSans-101"/>
      <use x="363.371094" xlink:href="#DejaVuSans-114"/>
      <use x="404.484375" xlink:href="#DejaVuSans-105"/>
      <use x="432.267578" xlink:href="#DejaVuSans-101"/>
      <use x="493.791016" xlink:href="#DejaVuSans-115"/>
     </g>
    </g>
    <g id="line2d_32">
     <path d="M 19.92 57.398719 
L 37.52 57.398719 
" style="fill:none;stroke:#808080;stroke-linecap:round;stroke-width:1.5;"/>
    </g>
    <g id="line2d_33">
     <g>
      <use style="fill:#808080;stroke:#ffffff;stroke-linejoin:miter;stroke-width:0.25;" x="28.72" xlink:href="#mca63032baf" y="57.398719"/>
     </g>
    </g>
    <g id="text_15">
     <!-- Deaths -->
     <g style="fill:#262626;" transform="translate(44.56 60.478719)scale(0.088 -0.088)">
      <use xlink:href="#DejaVuSans-68"/>
      <use x="77.001953" xlink:href="#DejaVuSans-101"/>
      <use x="138.525391" xlink:href="#DejaVuSans-97"/>
      <use x="199.804688" xlink:href="#DejaVuSans-116"/>
      <use x="239.013672" xlink:href="#DejaVuSans-104"/>
      <use x="302.392578" xlink:href="#DejaVuSans-115"/>
     </g>
    </g>
   </g>
  </g>
 </g>
 <defs>
  <clipPath id="p9c07636285">
   <rect height="178.56" width="357.12" x="12" y="20.038594"/>
  </clipPath>
 </defs>
</svg>
