<?xml version="1.0" encoding="utf-8" standalone="no"?>
<!DOCTYPE svg PUBLIC "-//W3C//DTD SVG 1.1//EN"
  "http://www.w3.org/Graphics/SVG/1.1/DTD/svg11.dtd">
<!-- Created with matplotlib (https://matplotlib.org/) -->
<svg height="214.137656pt" version="1.1" viewBox="0 0 376.32 214.137656" width="376.32pt" xmlns="http://www.w3.org/2000/svg" xmlns:xlink="http://www.w3.org/1999/xlink">
 <defs>
  <style type="text/css">
*{stroke-linecap:butt;stroke-linejoin:round;}
  </style>
 </defs>
 <g id="figure_1">
  <g id="patch_1">
   <path d="M 0 214.137656 
L 376.32 214.137656 
L 376.32 0 
L 0 0 
z
" style="fill:#ffffff;"/>
  </g>
  <g id="axes_1">
   <g id="patch_2">
    <path d="M 12 198.598594 
L 369.12 198.598594 
L 369.12 20.038594 
L 12 20.038594 
z
" style="fill:#ffffff;"/>
   </g>
   <g id="matplotlib.axis_1">
    <g id="xtick_1">
     <g id="line2d_1">
      <path clip-path="url(#p4362c6db6f)" d="M 57.746777 198.598594 
L 57.746777 20.038594 
" style="fill:none;stroke:#f3f3f3;stroke-dasharray:0.5,0.825;stroke-dashoffset:0;stroke-width:0.5;"/>
     </g>
     <g id="line2d_2">
      <defs>
       <path d="M 0 0 
L 0 -3 
" id="m0196eb7a17" style="stroke:#262626;stroke-width:0.5;"/>
      </defs>
      <g>
       <use style="fill:#262626;stroke:#262626;stroke-width:0.5;" x="57.746777" xlink:href="#m0196eb7a17" y="198.598594"/>
      </g>
     </g>
     <g id="text_1">
      <!-- 01 Feb -->
      <defs>
       <path d="M 31.78125 66.40625 
Q 24.171875 66.40625 20.328125 58.90625 
Q 16.5 51.421875 16.5 36.375 
Q 16.5 21.390625 20.328125 13.890625 
Q 24.171875 6.390625 31.78125 6.390625 
Q 39.453125 6.390625 43.28125 13.890625 
Q 47.125 21.390625 47.125 36.375 
Q 47.125 51.421875 43.28125 58.90625 
Q 39.453125 66.40625 31.78125 66.40625 
z
M 31.78125 74.21875 
Q 44.046875 74.21875 50.515625 64.515625 
Q 56.984375 54.828125 56.984375 36.375 
Q 56.984375 17.96875 50.515625 8.265625 
Q 44.046875 -1.421875 31.78125 -1.421875 
Q 19.53125 -1.421875 13.0625 8.265625 
Q 6.59375 17.96875 6.59375 36.375 
Q 6.59375 54.828125 13.0625 64.515625 
Q 19.53125 74.21875 31.78125 74.21875 
z
" id="DejaVuSans-48"/>
       <path d="M 12.40625 8.296875 
L 28.515625 8.296875 
L 28.515625 63.921875 
L 10.984375 60.40625 
L 10.984375 69.390625 
L 28.421875 72.90625 
L 38.28125 72.90625 
L 38.28125 8.296875 
L 54.390625 8.296875 
L 54.390625 0 
L 12.40625 0 
z
" id="DejaVuSans-49"/>
       <path id="DejaVuSans-32"/>
       <path d="M 9.8125 72.90625 
L 51.703125 72.90625 
L 51.703125 64.59375 
L 19.671875 64.59375 
L 19.671875 43.109375 
L 48.578125 43.109375 
L 48.578125 34.8125 
L 19.671875 34.8125 
L 19.671875 0 
L 9.8125 0 
z
" id="DejaVuSans-70"/>
       <path d="M 56.203125 29.59375 
L 56.203125 25.203125 
L 14.890625 25.203125 
Q 15.484375 15.921875 20.484375 11.0625 
Q 25.484375 6.203125 34.421875 6.203125 
Q 39.59375 6.203125 44.453125 7.46875 
Q 49.3125 8.734375 54.109375 11.28125 
L 54.109375 2.78125 
Q 49.265625 0.734375 44.1875 -0.34375 
Q 39.109375 -1.421875 33.890625 -1.421875 
Q 20.796875 -1.421875 13.15625 6.1875 
Q 5.515625 13.8125 5.515625 26.8125 
Q 5.515625 40.234375 12.765625 48.109375 
Q 20.015625 56 32.328125 56 
Q 43.359375 56 49.78125 48.890625 
Q 56.203125 41.796875 56.203125 29.59375 
z
M 47.21875 32.234375 
Q 47.125 39.59375 43.09375 43.984375 
Q 39.0625 48.390625 32.421875 48.390625 
Q 24.90625 48.390625 20.390625 44.140625 
Q 15.875 39.890625 15.1875 32.171875 
z
" id="DejaVuSans-101"/>
       <path d="M 48.6875 27.296875 
Q 48.6875 37.203125 44.609375 42.84375 
Q 40.53125 48.484375 33.40625 48.484375 
Q 26.265625 48.484375 22.1875 42.84375 
Q 18.109375 37.203125 18.109375 27.296875 
Q 18.109375 17.390625 22.1875 11.75 
Q 26.265625 6.109375 33.40625 6.109375 
Q 40.53125 6.109375 44.609375 11.75 
Q 48.6875 17.390625 48.6875 27.296875 
z
M 18.109375 46.390625 
Q 20.953125 51.265625 25.265625 53.625 
Q 29.59375 56 35.59375 56 
Q 45.5625 56 51.78125 48.09375 
Q 58.015625 40.1875 58.015625 27.296875 
Q 58.015625 14.40625 51.78125 6.484375 
Q 45.5625 -1.421875 35.59375 -1.421875 
Q 29.59375 -1.421875 25.265625 0.953125 
Q 20.953125 3.328125 18.109375 8.203125 
L 18.109375 0 
L 9.078125 0 
L 9.078125 75.984375 
L 18.109375 75.984375 
z
" id="DejaVuSans-98"/>
      </defs>
      <g style="fill:#262626;" transform="translate(49.345214 205.897812)scale(0.05 -0.05)">
       <use xlink:href="#DejaVuSans-48"/>
       <use x="63.623047" xlink:href="#DejaVuSans-49"/>
       <use x="127.246094" xlink:href="#DejaVuSans-32"/>
       <use x="159.033203" xlink:href="#DejaVuSans-70"/>
       <use x="211.052734" xlink:href="#DejaVuSans-101"/>
       <use x="272.576172" xlink:href="#DejaVuSans-98"/>
      </g>
     </g>
    </g>
    <g id="xtick_2">
     <g id="line2d_3">
      <path clip-path="url(#p4362c6db6f)" d="M 99.066446 198.598594 
L 99.066446 20.038594 
" style="fill:none;stroke:#f3f3f3;stroke-dasharray:0.5,0.825;stroke-dashoffset:0;stroke-width:0.5;"/>
     </g>
     <g id="line2d_4">
      <g>
       <use style="fill:#262626;stroke:#262626;stroke-width:0.5;" x="99.066446" xlink:href="#m0196eb7a17" y="198.598594"/>
      </g>
     </g>
     <g id="text_2">
      <!-- 15 Feb -->
      <defs>
       <path d="M 10.796875 72.90625 
L 49.515625 72.90625 
L 49.515625 64.59375 
L 19.828125 64.59375 
L 19.828125 46.734375 
Q 21.96875 47.46875 24.109375 47.828125 
Q 26.265625 48.1875 28.421875 48.1875 
Q 40.625 48.1875 47.75 41.5 
Q 54.890625 34.8125 54.890625 23.390625 
Q 54.890625 11.625 47.5625 5.09375 
Q 40.234375 -1.421875 26.90625 -1.421875 
Q 22.3125 -1.421875 17.546875 -0.640625 
Q 12.796875 0.140625 7.71875 1.703125 
L 7.71875 11.625 
Q 12.109375 9.234375 16.796875 8.0625 
Q 21.484375 6.890625 26.703125 6.890625 
Q 35.15625 6.890625 40.078125 11.328125 
Q 45.015625 15.765625 45.015625 23.390625 
Q 45.015625 31 40.078125 35.4375 
Q 35.15625 39.890625 26.703125 39.890625 
Q 22.75 39.890625 18.8125 39.015625 
Q 14.890625 38.140625 10.796875 36.28125 
z
" id="DejaVuSans-53"/>
      </defs>
      <g style="fill:#262626;" transform="translate(90.664884 205.897812)scale(0.05 -0.05)">
       <use xlink:href="#DejaVuSans-49"/>
       <use x="63.623047" xlink:href="#DejaVuSans-53"/>
       <use x="127.246094" xlink:href="#DejaVuSans-32"/>
       <use x="159.033203" xlink:href="#DejaVuSans-70"/>
       <use x="211.052734" xlink:href="#DejaVuSans-101"/>
       <use x="272.576172" xlink:href="#DejaVuSans-98"/>
      </g>
     </g>
    </g>
    <g id="xtick_3">
     <g id="line2d_5">
      <path clip-path="url(#p4362c6db6f)" d="M 143.337521 198.598594 
L 143.337521 20.038594 
" style="fill:none;stroke:#f3f3f3;stroke-dasharray:0.5,0.825;stroke-dashoffset:0;stroke-width:0.5;"/>
     </g>
     <g id="line2d_6">
      <g>
       <use style="fill:#262626;stroke:#262626;stroke-width:0.5;" x="143.337521" xlink:href="#m0196eb7a17" y="198.598594"/>
      </g>
     </g>
     <g id="text_3">
      <!-- 01 Mar -->
      <defs>
       <path d="M 9.8125 72.90625 
L 24.515625 72.90625 
L 43.109375 23.296875 
L 61.8125 72.90625 
L 76.515625 72.90625 
L 76.515625 0 
L 66.890625 0 
L 66.890625 64.015625 
L 48.09375 14.015625 
L 38.1875 14.015625 
L 19.390625 64.015625 
L 19.390625 0 
L 9.8125 0 
z
" id="DejaVuSans-77"/>
       <path d="M 34.28125 27.484375 
Q 23.390625 27.484375 19.1875 25 
Q 14.984375 22.515625 14.984375 16.5 
Q 14.984375 11.71875 18.140625 8.90625 
Q 21.296875 6.109375 26.703125 6.109375 
Q 34.1875 6.109375 38.703125 11.40625 
Q 43.21875 16.703125 43.21875 25.484375 
L 43.21875 27.484375 
z
M 52.203125 31.203125 
L 52.203125 0 
L 43.21875 0 
L 43.21875 8.296875 
Q 40.140625 3.328125 35.546875 0.953125 
Q 30.953125 -1.421875 24.3125 -1.421875 
Q 15.921875 -1.421875 10.953125 3.296875 
Q 6 8.015625 6 15.921875 
Q 6 25.140625 12.171875 29.828125 
Q 18.359375 34.515625 30.609375 34.515625 
L 43.21875 34.515625 
L 43.21875 35.40625 
Q 43.21875 41.609375 39.140625 45 
Q 35.0625 48.390625 27.6875 48.390625 
Q 23 48.390625 18.546875 47.265625 
Q 14.109375 46.140625 10.015625 43.890625 
L 10.015625 52.203125 
Q 14.9375 54.109375 19.578125 55.046875 
Q 24.21875 56 28.609375 56 
Q 40.484375 56 46.34375 49.84375 
Q 52.203125 43.703125 52.203125 31.203125 
z
" id="DejaVuSans-97"/>
       <path d="M 41.109375 46.296875 
Q 39.59375 47.171875 37.8125 47.578125 
Q 36.03125 48 33.890625 48 
Q 26.265625 48 22.1875 43.046875 
Q 18.109375 38.09375 18.109375 28.8125 
L 18.109375 0 
L 9.078125 0 
L 9.078125 54.6875 
L 18.109375 54.6875 
L 18.109375 46.1875 
Q 20.953125 51.171875 25.484375 53.578125 
Q 30.03125 56 36.53125 56 
Q 37.453125 56 38.578125 55.875 
Q 39.703125 55.765625 41.0625 55.515625 
z
" id="DejaVuSans-114"/>
      </defs>
      <g style="fill:#262626;" transform="translate(134.644943 205.897812)scale(0.05 -0.05)">
       <use xlink:href="#DejaVuSans-48"/>
       <use x="63.623047" xlink:href="#DejaVuSans-49"/>
       <use x="127.246094" xlink:href="#DejaVuSans-32"/>
       <use x="159.033203" xlink:href="#DejaVuSans-77"/>
       <use x="245.3125" xlink:href="#DejaVuSans-97"/>
       <use x="306.591797" xlink:href="#DejaVuSans-114"/>
      </g>
     </g>
    </g>
    <g id="xtick_4">
     <g id="line2d_7">
      <path clip-path="url(#p4362c6db6f)" d="M 184.65719 198.598594 
L 184.65719 20.038594 
" style="fill:none;stroke:#f3f3f3;stroke-dasharray:0.5,0.825;stroke-dashoffset:0;stroke-width:0.5;"/>
     </g>
     <g id="line2d_8">
      <g>
       <use style="fill:#262626;stroke:#262626;stroke-width:0.5;" x="184.65719" xlink:href="#m0196eb7a17" y="198.598594"/>
      </g>
     </g>
     <g id="text_4">
      <!-- 15 Mar -->
      <g style="fill:#262626;" transform="translate(175.964612 205.897812)scale(0.05 -0.05)">
       <use xlink:href="#DejaVuSans-49"/>
       <use x="63.623047" xlink:href="#DejaVuSans-53"/>
       <use x="127.246094" xlink:href="#DejaVuSans-32"/>
       <use x="159.033203" xlink:href="#DejaVuSans-77"/>
       <use x="245.3125" xlink:href="#DejaVuSans-97"/>
       <use x="306.591797" xlink:href="#DejaVuSans-114"/>
      </g>
     </g>
    </g>
    <g id="xtick_5">
     <g id="line2d_9">
      <path clip-path="url(#p4362c6db6f)" d="M 234.831074 198.598594 
L 234.831074 20.038594 
" style="fill:none;stroke:#f3f3f3;stroke-dasharray:0.5,0.825;stroke-dashoffset:0;stroke-width:0.5;"/>
     </g>
     <g id="line2d_10">
      <g>
       <use style="fill:#262626;stroke:#262626;stroke-width:0.5;" x="234.831074" xlink:href="#m0196eb7a17" y="198.598594"/>
      </g>
     </g>
     <g id="text_5">
      <!-- 01 Apr -->
      <defs>
       <path d="M 34.1875 63.1875 
L 20.796875 26.90625 
L 47.609375 26.90625 
z
M 28.609375 72.90625 
L 39.796875 72.90625 
L 67.578125 0 
L 57.328125 0 
L 50.6875 18.703125 
L 17.828125 18.703125 
L 11.1875 0 
L 0.78125 0 
z
" id="DejaVuSans-65"/>
       <path d="M 18.109375 8.203125 
L 18.109375 -20.796875 
L 9.078125 -20.796875 
L 9.078125 54.6875 
L 18.109375 54.6875 
L 18.109375 46.390625 
Q 20.953125 51.265625 25.265625 53.625 
Q 29.59375 56 35.59375 56 
Q 45.5625 56 51.78125 48.09375 
Q 58.015625 40.1875 58.015625 27.296875 
Q 58.015625 14.40625 51.78125 6.484375 
Q 45.5625 -1.421875 35.59375 -1.421875 
Q 29.59375 -1.421875 25.265625 0.953125 
Q 20.953125 3.328125 18.109375 8.203125 
z
M 48.6875 27.296875 
Q 48.6875 37.203125 44.609375 42.84375 
Q 40.53125 48.484375 33.40625 48.484375 
Q 26.265625 48.484375 22.1875 42.84375 
Q 18.109375 37.203125 18.109375 27.296875 
Q 18.109375 17.390625 22.1875 11.75 
Q 26.265625 6.109375 33.40625 6.109375 
Q 40.53125 6.109375 44.609375 11.75 
Q 48.6875 17.390625 48.6875 27.296875 
z
" id="DejaVuSans-112"/>
      </defs>
      <g style="fill:#262626;" transform="translate(226.530293 205.897812)scale(0.05 -0.05)">
       <use xlink:href="#DejaVuSans-48"/>
       <use x="63.623047" xlink:href="#DejaVuSans-49"/>
       <use x="127.246094" xlink:href="#DejaVuSans-32"/>
       <use x="159.033203" xlink:href="#DejaVuSans-65"/>
       <use x="227.441406" xlink:href="#DejaVuSans-112"/>
       <use x="290.917969" xlink:href="#DejaVuSans-114"/>
      </g>
     </g>
    </g>
    <g id="xtick_6">
     <g id="line2d_11">
      <path clip-path="url(#p4362c6db6f)" d="M 276.150744 198.598594 
L 276.150744 20.038594 
" style="fill:none;stroke:#f3f3f3;stroke-dasharray:0.5,0.825;stroke-dashoffset:0;stroke-width:0.5;"/>
     </g>
     <g id="line2d_12">
      <g>
       <use style="fill:#262626;stroke:#262626;stroke-width:0.5;" x="276.150744" xlink:href="#m0196eb7a17" y="198.598594"/>
      </g>
     </g>
     <g id="text_6">
      <!-- 15 Apr -->
      <g style="fill:#262626;" transform="translate(267.849963 205.897812)scale(0.05 -0.05)">
       <use xlink:href="#DejaVuSans-49"/>
       <use x="63.623047" xlink:href="#DejaVuSans-53"/>
       <use x="127.246094" xlink:href="#DejaVuSans-32"/>
       <use x="159.033203" xlink:href="#DejaVuSans-65"/>
       <use x="227.441406" xlink:href="#DejaVuSans-112"/>
       <use x="290.917969" xlink:href="#DejaVuSans-114"/>
      </g>
     </g>
    </g>
    <g id="xtick_7">
     <g id="line2d_13">
      <path clip-path="url(#p4362c6db6f)" d="M 323.373223 198.598594 
L 323.373223 20.038594 
" style="fill:none;stroke:#f3f3f3;stroke-dasharray:0.5,0.825;stroke-dashoffset:0;stroke-width:0.5;"/>
     </g>
     <g id="line2d_14">
      <g>
       <use style="fill:#262626;stroke:#262626;stroke-width:0.5;" x="323.373223" xlink:href="#m0196eb7a17" y="198.598594"/>
      </g>
     </g>
     <g id="text_7">
      <!-- 01 May -->
      <defs>
       <path d="M 32.171875 -5.078125 
Q 28.375 -14.84375 24.75 -17.8125 
Q 21.140625 -20.796875 15.09375 -20.796875 
L 7.90625 -20.796875 
L 7.90625 -13.28125 
L 13.1875 -13.28125 
Q 16.890625 -13.28125 18.9375 -11.515625 
Q 21 -9.765625 23.484375 -3.21875 
L 25.09375 0.875 
L 2.984375 54.6875 
L 12.5 54.6875 
L 29.59375 11.921875 
L 46.6875 54.6875 
L 56.203125 54.6875 
z
" id="DejaVuSans-121"/>
      </defs>
      <g style="fill:#262626;" transform="translate(314.228692 205.897812)scale(0.05 -0.05)">
       <use xlink:href="#DejaVuSans-48"/>
       <use x="63.623047" xlink:href="#DejaVuSans-49"/>
       <use x="127.246094" xlink:href="#DejaVuSans-32"/>
       <use x="159.033203" xlink:href="#DejaVuSans-77"/>
       <use x="245.3125" xlink:href="#DejaVuSans-97"/>
       <use x="306.591797" xlink:href="#DejaVuSans-121"/>
      </g>
     </g>
    </g>
    <g id="xtick_8">
     <g id="line2d_15">
      <path clip-path="url(#p4362c6db6f)" d="M 352.887273 198.598594 
L 352.887273 20.038594 
" style="fill:none;stroke:#f3f3f3;stroke-dasharray:0.5,0.825;stroke-dashoffset:0;stroke-width:0.5;"/>
     </g>
     <g id="line2d_16">
      <g>
       <use style="fill:#262626;stroke:#262626;stroke-width:0.5;" x="352.887273" xlink:href="#m0196eb7a17" y="198.598594"/>
      </g>
     </g>
     <g id="text_8">
      <!-- 11 May -->
      <g style="fill:#262626;" transform="translate(343.742741 205.897812)scale(0.05 -0.05)">
       <use xlink:href="#DejaVuSans-49"/>
       <use x="63.623047" xlink:href="#DejaVuSans-49"/>
       <use x="127.246094" xlink:href="#DejaVuSans-32"/>
       <use x="159.033203" xlink:href="#DejaVuSans-77"/>
       <use x="245.3125" xlink:href="#DejaVuSans-97"/>
       <use x="306.591797" xlink:href="#DejaVuSans-121"/>
      </g>
     </g>
    </g>
   </g>
   <g id="line2d_17">
    <path clip-path="url(#p4362c6db6f)" d="M 28.232727 190.48223 
L 31.184132 190.48223 
L 34.135537 190.48223 
L 37.086942 190.48223 
L 40.038347 190.48223 
L 42.989752 190.48223 
L 45.941157 190.48223 
L 48.892562 190.48223 
L 51.843967 190.479936 
L 54.795372 190.479936 
L 57.746777 190.479936 
L 60.698182 190.477643 
L 63.649587 190.475349 
L 66.600992 190.475349 
L 69.552397 190.475349 
L 72.503802 190.475349 
L 75.455207 190.475349 
L 78.406612 190.475349 
L 81.358017 190.475349 
L 84.309421 190.475349 
L 87.260826 190.475349 
L 90.212231 190.475349 
L 93.163636 190.475349 
L 96.115041 190.475349 
L 99.066446 190.475349 
L 102.017851 190.475349 
L 104.969256 190.475349 
L 107.920661 190.475349 
L 110.872066 190.475349 
L 113.823471 190.475349 
L 116.774876 190.475349 
L 119.726281 190.475349 
L 122.677686 190.475349 
L 125.629091 190.475349 
L 128.580496 190.475349 
L 131.531901 190.475349 
L 134.483306 190.475349 
L 137.434711 190.475349 
L 140.386116 190.475349 
L 143.337521 190.475349 
L 146.288926 190.470761 
L 149.240331 190.470761 
L 152.191736 190.418004 
L 155.14314 190.413416 
L 158.094545 190.411122 
L 161.04595 190.404241 
L 163.997355 190.392772 
L 166.94876 190.383597 
L 169.900165 190.353778 
L 172.85157 190.340015 
L 175.802975 190.314783 
L 178.75438 190.294139 
L 181.705785 190.248263 
L 184.65719 190.223031 
L 187.608595 190.209269 
L 190.56 190.156511 
L 193.511405 190.124398 
L 196.46281 190.037234 
L 199.414215 189.922544 
L 202.36562 189.725278 
L 205.317025 189.573887 
L 208.26843 189.337626 
L 211.219835 189.252756 
L 214.17124 188.975207 
L 217.122645 188.814641 
L 220.07405 188.447634 
L 223.025455 188.218255 
L 225.97686 188.133384 
L 228.928264 187.612693 
L 231.879669 187.277799 
L 234.831074 185.899228 
L 237.782479 184.64911 
L 240.733884 184.594059 
L 243.685289 183.412754 
L 246.636694 182.252094 
L 249.588099 179.522478 
L 252.539504 178.299886 
L 255.490909 176.91214 
L 258.442314 175.05646 
L 261.393719 173.053977 
L 264.345124 171.108839 
L 267.296529 169.367849 
L 270.247934 166.505193 
L 273.199339 164.133409 
L 276.150744 162.21809 
L 279.102149 159.676566 
L 282.053554 157.561687 
L 285.004959 154.419188 
L 287.956364 150.077034 
L 290.907769 147.957568 
L 293.859174 144.42283 
L 296.810579 141.463835 
L 299.761983 137.548327 
L 302.713388 134.215443 
L 305.664793 130.194421 
L 308.616198 126.508292 
L 311.567603 122.927678 
L 314.519008 118.631401 
L 317.470413 114.644785 
L 320.421818 110.513661 
L 323.373223 105.022316 
L 326.324628 99.420869 
L 329.276033 92.984481 
L 332.227438 83.965279 
L 335.178843 77.168765 
L 338.130248 68.940923 
L 341.081653 61.224597 
L 344.033058 53.554148 
L 346.984463 46.413564 
L 349.935868 36.428675 
L 352.887273 28.154957 
" style="fill:none;stroke:#ffa500;stroke-linecap:round;stroke-width:1.5;"/>
    <defs>
     <path d="M 0 1.5 
C 0.397805 1.5 0.77937 1.341951 1.06066 1.06066 
C 1.341951 0.77937 1.5 0.397805 1.5 0 
C 1.5 -0.397805 1.341951 -0.77937 1.06066 -1.06066 
C 0.77937 -1.341951 0.397805 -1.5 0 -1.5 
C -0.397805 -1.5 -0.77937 -1.341951 -1.06066 -1.06066 
C -1.341951 -0.77937 -1.5 -0.397805 -1.5 0 
C -1.5 0.397805 -1.341951 0.77937 -1.06066 1.06066 
C -0.77937 1.341951 -0.397805 1.5 0 1.5 
z
" id="m9c44d77967" style="stroke:#ffffff;stroke-width:0.25;"/>
    </defs>
    <g clip-path="url(#p4362c6db6f)">
     <use style="fill:#ffa500;stroke:#ffffff;stroke-width:0.25;" x="28.232727" xlink:href="#m9c44d77967" y="190.48223"/>
     <use style="fill:#ffa500;stroke:#ffffff;stroke-width:0.25;" x="31.184132" xlink:href="#m9c44d77967" y="190.48223"/>
     <use style="fill:#ffa500;stroke:#ffffff;stroke-width:0.25;" x="34.135537" xlink:href="#m9c44d77967" y="190.48223"/>
     <use style="fill:#ffa500;stroke:#ffffff;stroke-width:0.25;" x="37.086942" xlink:href="#m9c44d77967" y="190.48223"/>
     <use style="fill:#ffa500;stroke:#ffffff;stroke-width:0.25;" x="40.038347" xlink:href="#m9c44d77967" y="190.48223"/>
     <use style="fill:#ffa500;stroke:#ffffff;stroke-width:0.25;" x="42.989752" xlink:href="#m9c44d77967" y="190.48223"/>
     <use style="fill:#ffa500;stroke:#ffffff;stroke-width:0.25;" x="45.941157" xlink:href="#m9c44d77967" y="190.48223"/>
     <use style="fill:#ffa500;stroke:#ffffff;stroke-width:0.25;" x="48.892562" xlink:href="#m9c44d77967" y="190.48223"/>
     <use style="fill:#ffa500;stroke:#ffffff;stroke-width:0.25;" x="51.843967" xlink:href="#m9c44d77967" y="190.479936"/>
     <use style="fill:#ffa500;stroke:#ffffff;stroke-width:0.25;" x="54.795372" xlink:href="#m9c44d77967" y="190.479936"/>
     <use style="fill:#ffa500;stroke:#ffffff;stroke-width:0.25;" x="57.746777" xlink:href="#m9c44d77967" y="190.479936"/>
     <use style="fill:#ffa500;stroke:#ffffff;stroke-width:0.25;" x="60.698182" xlink:href="#m9c44d77967" y="190.477643"/>
     <use style="fill:#ffa500;stroke:#ffffff;stroke-width:0.25;" x="63.649587" xlink:href="#m9c44d77967" y="190.475349"/>
     <use style="fill:#ffa500;stroke:#ffffff;stroke-width:0.25;" x="66.600992" xlink:href="#m9c44d77967" y="190.475349"/>
     <use style="fill:#ffa500;stroke:#ffffff;stroke-width:0.25;" x="69.552397" xlink:href="#m9c44d77967" y="190.475349"/>
     <use style="fill:#ffa500;stroke:#ffffff;stroke-width:0.25;" x="72.503802" xlink:href="#m9c44d77967" y="190.475349"/>
     <use style="fill:#ffa500;stroke:#ffffff;stroke-width:0.25;" x="75.455207" xlink:href="#m9c44d77967" y="190.475349"/>
     <use style="fill:#ffa500;stroke:#ffffff;stroke-width:0.25;" x="78.406612" xlink:href="#m9c44d77967" y="190.475349"/>
     <use style="fill:#ffa500;stroke:#ffffff;stroke-width:0.25;" x="81.358017" xlink:href="#m9c44d77967" y="190.475349"/>
     <use style="fill:#ffa500;stroke:#ffffff;stroke-width:0.25;" x="84.309421" xlink:href="#m9c44d77967" y="190.475349"/>
     <use style="fill:#ffa500;stroke:#ffffff;stroke-width:0.25;" x="87.260826" xlink:href="#m9c44d77967" y="190.475349"/>
     <use style="fill:#ffa500;stroke:#ffffff;stroke-width:0.25;" x="90.212231" xlink:href="#m9c44d77967" y="190.475349"/>
     <use style="fill:#ffa500;stroke:#ffffff;stroke-width:0.25;" x="93.163636" xlink:href="#m9c44d77967" y="190.475349"/>
     <use style="fill:#ffa500;stroke:#ffffff;stroke-width:0.25;" x="96.115041" xlink:href="#m9c44d77967" y="190.475349"/>
     <use style="fill:#ffa500;stroke:#ffffff;stroke-width:0.25;" x="99.066446" xlink:href="#m9c44d77967" y="190.475349"/>
     <use style="fill:#ffa500;stroke:#ffffff;stroke-width:0.25;" x="102.017851" xlink:href="#m9c44d77967" y="190.475349"/>
     <use style="fill:#ffa500;stroke:#ffffff;stroke-width:0.25;" x="104.969256" xlink:href="#m9c44d77967" y="190.475349"/>
     <use style="fill:#ffa500;stroke:#ffffff;stroke-width:0.25;" x="107.920661" xlink:href="#m9c44d77967" y="190.475349"/>
     <use style="fill:#ffa500;stroke:#ffffff;stroke-width:0.25;" x="110.872066" xlink:href="#m9c44d77967" y="190.475349"/>
     <use style="fill:#ffa500;stroke:#ffffff;stroke-width:0.25;" x="113.823471" xlink:href="#m9c44d77967" y="190.475349"/>
     <use style="fill:#ffa500;stroke:#ffffff;stroke-width:0.25;" x="116.774876" xlink:href="#m9c44d77967" y="190.475349"/>
     <use style="fill:#ffa500;stroke:#ffffff;stroke-width:0.25;" x="119.726281" xlink:href="#m9c44d77967" y="190.475349"/>
     <use style="fill:#ffa500;stroke:#ffffff;stroke-width:0.25;" x="122.677686" xlink:href="#m9c44d77967" y="190.475349"/>
     <use style="fill:#ffa500;stroke:#ffffff;stroke-width:0.25;" x="125.629091" xlink:href="#m9c44d77967" y="190.475349"/>
     <use style="fill:#ffa500;stroke:#ffffff;stroke-width:0.25;" x="128.580496" xlink:href="#m9c44d77967" y="190.475349"/>
     <use style="fill:#ffa500;stroke:#ffffff;stroke-width:0.25;" x="131.531901" xlink:href="#m9c44d77967" y="190.475349"/>
     <use style="fill:#ffa500;stroke:#ffffff;stroke-width:0.25;" x="134.483306" xlink:href="#m9c44d77967" y="190.475349"/>
     <use style="fill:#ffa500;stroke:#ffffff;stroke-width:0.25;" x="137.434711" xlink:href="#m9c44d77967" y="190.475349"/>
     <use style="fill:#ffa500;stroke:#ffffff;stroke-width:0.25;" x="140.386116" xlink:href="#m9c44d77967" y="190.475349"/>
     <use style="fill:#ffa500;stroke:#ffffff;stroke-width:0.25;" x="143.337521" xlink:href="#m9c44d77967" y="190.475349"/>
     <use style="fill:#ffa500;stroke:#ffffff;stroke-width:0.25;" x="146.288926" xlink:href="#m9c44d77967" y="190.470761"/>
     <use style="fill:#ffa500;stroke:#ffffff;stroke-width:0.25;" x="149.240331" xlink:href="#m9c44d77967" y="190.470761"/>
     <use style="fill:#ffa500;stroke:#ffffff;stroke-width:0.25;" x="152.191736" xlink:href="#m9c44d77967" y="190.418004"/>
     <use style="fill:#ffa500;stroke:#ffffff;stroke-width:0.25;" x="155.14314" xlink:href="#m9c44d77967" y="190.413416"/>
     <use style="fill:#ffa500;stroke:#ffffff;stroke-width:0.25;" x="158.094545" xlink:href="#m9c44d77967" y="190.411122"/>
     <use style="fill:#ffa500;stroke:#ffffff;stroke-width:0.25;" x="161.04595" xlink:href="#m9c44d77967" y="190.404241"/>
     <use style="fill:#ffa500;stroke:#ffffff;stroke-width:0.25;" x="163.997355" xlink:href="#m9c44d77967" y="190.392772"/>
     <use style="fill:#ffa500;stroke:#ffffff;stroke-width:0.25;" x="166.94876" xlink:href="#m9c44d77967" y="190.383597"/>
     <use style="fill:#ffa500;stroke:#ffffff;stroke-width:0.25;" x="169.900165" xlink:href="#m9c44d77967" y="190.353778"/>
     <use style="fill:#ffa500;stroke:#ffffff;stroke-width:0.25;" x="172.85157" xlink:href="#m9c44d77967" y="190.340015"/>
     <use style="fill:#ffa500;stroke:#ffffff;stroke-width:0.25;" x="175.802975" xlink:href="#m9c44d77967" y="190.314783"/>
     <use style="fill:#ffa500;stroke:#ffffff;stroke-width:0.25;" x="178.75438" xlink:href="#m9c44d77967" y="190.294139"/>
     <use style="fill:#ffa500;stroke:#ffffff;stroke-width:0.25;" x="181.705785" xlink:href="#m9c44d77967" y="190.248263"/>
     <use style="fill:#ffa500;stroke:#ffffff;stroke-width:0.25;" x="184.65719" xlink:href="#m9c44d77967" y="190.223031"/>
     <use style="fill:#ffa500;stroke:#ffffff;stroke-width:0.25;" x="187.608595" xlink:href="#m9c44d77967" y="190.209269"/>
     <use style="fill:#ffa500;stroke:#ffffff;stroke-width:0.25;" x="190.56" xlink:href="#m9c44d77967" y="190.156511"/>
     <use style="fill:#ffa500;stroke:#ffffff;stroke-width:0.25;" x="193.511405" xlink:href="#m9c44d77967" y="190.124398"/>
     <use style="fill:#ffa500;stroke:#ffffff;stroke-width:0.25;" x="196.46281" xlink:href="#m9c44d77967" y="190.037234"/>
     <use style="fill:#ffa500;stroke:#ffffff;stroke-width:0.25;" x="199.414215" xlink:href="#m9c44d77967" y="189.922544"/>
     <use style="fill:#ffa500;stroke:#ffffff;stroke-width:0.25;" x="202.36562" xlink:href="#m9c44d77967" y="189.725278"/>
     <use style="fill:#ffa500;stroke:#ffffff;stroke-width:0.25;" x="205.317025" xlink:href="#m9c44d77967" y="189.573887"/>
     <use style="fill:#ffa500;stroke:#ffffff;stroke-width:0.25;" x="208.26843" xlink:href="#m9c44d77967" y="189.337626"/>
     <use style="fill:#ffa500;stroke:#ffffff;stroke-width:0.25;" x="211.219835" xlink:href="#m9c44d77967" y="189.252756"/>
     <use style="fill:#ffa500;stroke:#ffffff;stroke-width:0.25;" x="214.17124" xlink:href="#m9c44d77967" y="188.975207"/>
     <use style="fill:#ffa500;stroke:#ffffff;stroke-width:0.25;" x="217.122645" xlink:href="#m9c44d77967" y="188.814641"/>
     <use style="fill:#ffa500;stroke:#ffffff;stroke-width:0.25;" x="220.07405" xlink:href="#m9c44d77967" y="188.447634"/>
     <use style="fill:#ffa500;stroke:#ffffff;stroke-width:0.25;" x="223.025455" xlink:href="#m9c44d77967" y="188.218255"/>
     <use style="fill:#ffa500;stroke:#ffffff;stroke-width:0.25;" x="225.97686" xlink:href="#m9c44d77967" y="188.133384"/>
     <use style="fill:#ffa500;stroke:#ffffff;stroke-width:0.25;" x="228.928264" xlink:href="#m9c44d77967" y="187.612693"/>
     <use style="fill:#ffa500;stroke:#ffffff;stroke-width:0.25;" x="231.879669" xlink:href="#m9c44d77967" y="187.277799"/>
     <use style="fill:#ffa500;stroke:#ffffff;stroke-width:0.25;" x="234.831074" xlink:href="#m9c44d77967" y="185.899228"/>
     <use style="fill:#ffa500;stroke:#ffffff;stroke-width:0.25;" x="237.782479" xlink:href="#m9c44d77967" y="184.64911"/>
     <use style="fill:#ffa500;stroke:#ffffff;stroke-width:0.25;" x="240.733884" xlink:href="#m9c44d77967" y="184.594059"/>
     <use style="fill:#ffa500;stroke:#ffffff;stroke-width:0.25;" x="243.685289" xlink:href="#m9c44d77967" y="183.412754"/>
     <use style="fill:#ffa500;stroke:#ffffff;stroke-width:0.25;" x="246.636694" xlink:href="#m9c44d77967" y="182.252094"/>
     <use style="fill:#ffa500;stroke:#ffffff;stroke-width:0.25;" x="249.588099" xlink:href="#m9c44d77967" y="179.522478"/>
     <use style="fill:#ffa500;stroke:#ffffff;stroke-width:0.25;" x="252.539504" xlink:href="#m9c44d77967" y="178.299886"/>
     <use style="fill:#ffa500;stroke:#ffffff;stroke-width:0.25;" x="255.490909" xlink:href="#m9c44d77967" y="176.91214"/>
     <use style="fill:#ffa500;stroke:#ffffff;stroke-width:0.25;" x="258.442314" xlink:href="#m9c44d77967" y="175.05646"/>
     <use style="fill:#ffa500;stroke:#ffffff;stroke-width:0.25;" x="261.393719" xlink:href="#m9c44d77967" y="173.053977"/>
     <use style="fill:#ffa500;stroke:#ffffff;stroke-width:0.25;" x="264.345124" xlink:href="#m9c44d77967" y="171.108839"/>
     <use style="fill:#ffa500;stroke:#ffffff;stroke-width:0.25;" x="267.296529" xlink:href="#m9c44d77967" y="169.367849"/>
     <use style="fill:#ffa500;stroke:#ffffff;stroke-width:0.25;" x="270.247934" xlink:href="#m9c44d77967" y="166.505193"/>
     <use style="fill:#ffa500;stroke:#ffffff;stroke-width:0.25;" x="273.199339" xlink:href="#m9c44d77967" y="164.133409"/>
     <use style="fill:#ffa500;stroke:#ffffff;stroke-width:0.25;" x="276.150744" xlink:href="#m9c44d77967" y="162.21809"/>
     <use style="fill:#ffa500;stroke:#ffffff;stroke-width:0.25;" x="279.102149" xlink:href="#m9c44d77967" y="159.676566"/>
     <use style="fill:#ffa500;stroke:#ffffff;stroke-width:0.25;" x="282.053554" xlink:href="#m9c44d77967" y="157.561687"/>
     <use style="fill:#ffa500;stroke:#ffffff;stroke-width:0.25;" x="285.004959" xlink:href="#m9c44d77967" y="154.419188"/>
     <use style="fill:#ffa500;stroke:#ffffff;stroke-width:0.25;" x="287.956364" xlink:href="#m9c44d77967" y="150.077034"/>
     <use style="fill:#ffa500;stroke:#ffffff;stroke-width:0.25;" x="290.907769" xlink:href="#m9c44d77967" y="147.957568"/>
     <use style="fill:#ffa500;stroke:#ffffff;stroke-width:0.25;" x="293.859174" xlink:href="#m9c44d77967" y="144.42283"/>
     <use style="fill:#ffa500;stroke:#ffffff;stroke-width:0.25;" x="296.810579" xlink:href="#m9c44d77967" y="141.463835"/>
     <use style="fill:#ffa500;stroke:#ffffff;stroke-width:0.25;" x="299.761983" xlink:href="#m9c44d77967" y="137.548327"/>
     <use style="fill:#ffa500;stroke:#ffffff;stroke-width:0.25;" x="302.713388" xlink:href="#m9c44d77967" y="134.215443"/>
     <use style="fill:#ffa500;stroke:#ffffff;stroke-width:0.25;" x="305.664793" xlink:href="#m9c44d77967" y="130.194421"/>
     <use style="fill:#ffa500;stroke:#ffffff;stroke-width:0.25;" x="308.616198" xlink:href="#m9c44d77967" y="126.508292"/>
     <use style="fill:#ffa500;stroke:#ffffff;stroke-width:0.25;" x="311.567603" xlink:href="#m9c44d77967" y="122.927678"/>
     <use style="fill:#ffa500;stroke:#ffffff;stroke-width:0.25;" x="314.519008" xlink:href="#m9c44d77967" y="118.631401"/>
     <use style="fill:#ffa500;stroke:#ffffff;stroke-width:0.25;" x="317.470413" xlink:href="#m9c44d77967" y="114.644785"/>
     <use style="fill:#ffa500;stroke:#ffffff;stroke-width:0.25;" x="320.421818" xlink:href="#m9c44d77967" y="110.513661"/>
     <use style="fill:#ffa500;stroke:#ffffff;stroke-width:0.25;" x="323.373223" xlink:href="#m9c44d77967" y="105.022316"/>
     <use style="fill:#ffa500;stroke:#ffffff;stroke-width:0.25;" x="326.324628" xlink:href="#m9c44d77967" y="99.420869"/>
     <use style="fill:#ffa500;stroke:#ffffff;stroke-width:0.25;" x="329.276033" xlink:href="#m9c44d77967" y="92.984481"/>
     <use style="fill:#ffa500;stroke:#ffffff;stroke-width:0.25;" x="332.227438" xlink:href="#m9c44d77967" y="83.965279"/>
     <use style="fill:#ffa500;stroke:#ffffff;stroke-width:0.25;" x="335.178843" xlink:href="#m9c44d77967" y="77.168765"/>
     <use style="fill:#ffa500;stroke:#ffffff;stroke-width:0.25;" x="338.130248" xlink:href="#m9c44d77967" y="68.940923"/>
     <use style="fill:#ffa500;stroke:#ffffff;stroke-width:0.25;" x="341.081653" xlink:href="#m9c44d77967" y="61.224597"/>
     <use style="fill:#ffa500;stroke:#ffffff;stroke-width:0.25;" x="344.033058" xlink:href="#m9c44d77967" y="53.554148"/>
     <use style="fill:#ffa500;stroke:#ffffff;stroke-width:0.25;" x="346.984463" xlink:href="#m9c44d77967" y="46.413564"/>
     <use style="fill:#ffa500;stroke:#ffffff;stroke-width:0.25;" x="349.935868" xlink:href="#m9c44d77967" y="36.428675"/>
     <use style="fill:#ffa500;stroke:#ffffff;stroke-width:0.25;" x="352.887273" xlink:href="#m9c44d77967" y="28.154957"/>
    </g>
   </g>
   <g id="line2d_18">
    <path clip-path="url(#p4362c6db6f)" d="M 28.232727 190.48223 
L 31.184132 190.48223 
L 34.135537 190.48223 
L 37.086942 190.48223 
L 40.038347 190.48223 
L 42.989752 190.48223 
L 45.941157 190.48223 
L 48.892562 190.48223 
L 51.843967 190.48223 
L 54.795372 190.48223 
L 57.746777 190.48223 
L 60.698182 190.48223 
L 63.649587 190.48223 
L 66.600992 190.48223 
L 69.552397 190.48223 
L 72.503802 190.48223 
L 75.455207 190.48223 
L 78.406612 190.48223 
L 81.358017 190.48223 
L 84.309421 190.48223 
L 87.260826 190.48223 
L 90.212231 190.48223 
L 93.163636 190.48223 
L 96.115041 190.48223 
L 99.066446 190.48223 
L 102.017851 190.475349 
L 104.969256 190.475349 
L 107.920661 190.475349 
L 110.872066 190.475349 
L 113.823471 190.475349 
L 116.774876 190.475349 
L 119.726281 190.475349 
L 122.677686 190.475349 
L 125.629091 190.475349 
L 128.580496 190.475349 
L 131.531901 190.475349 
L 134.483306 190.475349 
L 137.434711 190.475349 
L 140.386116 190.475349 
L 143.337521 190.475349 
L 146.288926 190.475349 
L 149.240331 190.475349 
L 152.191736 190.475349 
L 155.14314 190.475349 
L 158.094545 190.475349 
L 161.04595 190.475349 
L 163.997355 190.475349 
L 166.94876 190.475349 
L 169.900165 190.473055 
L 172.85157 190.473055 
L 175.802975 190.473055 
L 178.75438 190.473055 
L 181.705785 190.473055 
L 184.65719 190.452411 
L 187.608595 190.452411 
L 190.56 190.450117 
L 193.511405 190.450117 
L 196.46281 190.447823 
L 199.414215 190.436354 
L 202.36562 190.429473 
L 205.317025 190.420298 
L 208.26843 190.420298 
L 211.219835 190.390478 
L 214.17124 190.383597 
L 217.122645 190.379009 
L 220.07405 190.314783 
L 223.025455 190.289551 
L 225.97686 190.26432 
L 228.928264 190.248263 
L 231.879669 190.200093 
L 234.831074 190.142748 
L 237.782479 190.044115 
L 240.733884 190.041822 
L 243.685289 189.956951 
L 246.636694 189.956951 
L 249.588099 189.622057 
L 252.539504 189.516542 
L 255.490909 189.32157 
L 258.442314 189.060077 
L 261.393719 188.706833 
L 264.345124 188.259543 
L 267.296529 188.004932 
L 270.247934 187.773258 
L 273.199339 187.364963 
L 276.150744 187.197516 
L 279.102149 186.426801 
L 282.053554 185.800595 
L 285.004959 184.832613 
L 287.956364 183.93574 
L 290.907769 182.97464 
L 293.859174 181.364396 
L 296.810579 180.458347 
L 299.761983 178.98573 
L 302.713388 177.870946 
L 305.664793 176.859383 
L 308.616198 175.519806 
L 311.567603 174.111416 
L 314.519008 172.712202 
L 317.470413 171.129483 
L 320.421818 169.682099 
L 323.373223 167.528225 
L 326.324628 165.665664 
L 329.276033 163.472796 
L 332.227438 161.013848 
L 335.178843 158.043384 
L 338.130248 155.316062 
L 341.081653 152.001528 
L 344.033058 149.453122 
L 346.984463 146.209696 
L 349.935868 142.383646 
L 352.887273 138.75945 
" style="fill:none;stroke:#008000;stroke-linecap:round;stroke-width:1.5;"/>
    <defs>
     <path d="M -0 2.12132 
L 1.272792 0 
L 0 -2.12132 
L -1.272792 -0 
z
" id="meab6aa2301" style="stroke:#ffffff;stroke-linejoin:miter;stroke-width:0.25;"/>
    </defs>
    <g clip-path="url(#p4362c6db6f)">
     <use style="fill:#008000;stroke:#ffffff;stroke-linejoin:miter;stroke-width:0.25;" x="28.232727" xlink:href="#meab6aa2301" y="190.48223"/>
     <use style="fill:#008000;stroke:#ffffff;stroke-linejoin:miter;stroke-width:0.25;" x="31.184132" xlink:href="#meab6aa2301" y="190.48223"/>
     <use style="fill:#008000;stroke:#ffffff;stroke-linejoin:miter;stroke-width:0.25;" x="34.135537" xlink:href="#meab6aa2301" y="190.48223"/>
     <use style="fill:#008000;stroke:#ffffff;stroke-linejoin:miter;stroke-width:0.25;" x="37.086942" xlink:href="#meab6aa2301" y="190.48223"/>
     <use style="fill:#008000;stroke:#ffffff;stroke-linejoin:miter;stroke-width:0.25;" x="40.038347" xlink:href="#meab6aa2301" y="190.48223"/>
     <use style="fill:#008000;stroke:#ffffff;stroke-linejoin:miter;stroke-width:0.25;" x="42.989752" xlink:href="#meab6aa2301" y="190.48223"/>
     <use style="fill:#008000;stroke:#ffffff;stroke-linejoin:miter;stroke-width:0.25;" x="45.941157" xlink:href="#meab6aa2301" y="190.48223"/>
     <use style="fill:#008000;stroke:#ffffff;stroke-linejoin:miter;stroke-width:0.25;" x="48.892562" xlink:href="#meab6aa2301" y="190.48223"/>
     <use style="fill:#008000;stroke:#ffffff;stroke-linejoin:miter;stroke-width:0.25;" x="51.843967" xlink:href="#meab6aa2301" y="190.48223"/>
     <use style="fill:#008000;stroke:#ffffff;stroke-linejoin:miter;stroke-width:0.25;" x="54.795372" xlink:href="#meab6aa2301" y="190.48223"/>
     <use style="fill:#008000;stroke:#ffffff;stroke-linejoin:miter;stroke-width:0.25;" x="57.746777" xlink:href="#meab6aa2301" y="190.48223"/>
     <use style="fill:#008000;stroke:#ffffff;stroke-linejoin:miter;stroke-width:0.25;" x="60.698182" xlink:href="#meab6aa2301" y="190.48223"/>
     <use style="fill:#008000;stroke:#ffffff;stroke-linejoin:miter;stroke-width:0.25;" x="63.649587" xlink:href="#meab6aa2301" y="190.48223"/>
     <use style="fill:#008000;stroke:#ffffff;stroke-linejoin:miter;stroke-width:0.25;" x="66.600992" xlink:href="#meab6aa2301" y="190.48223"/>
     <use style="fill:#008000;stroke:#ffffff;stroke-linejoin:miter;stroke-width:0.25;" x="69.552397" xlink:href="#meab6aa2301" y="190.48223"/>
     <use style="fill:#008000;stroke:#ffffff;stroke-linejoin:miter;stroke-width:0.25;" x="72.503802" xlink:href="#meab6aa2301" y="190.48223"/>
     <use style="fill:#008000;stroke:#ffffff;stroke-linejoin:miter;stroke-width:0.25;" x="75.455207" xlink:href="#meab6aa2301" y="190.48223"/>
     <use style="fill:#008000;stroke:#ffffff;stroke-linejoin:miter;stroke-width:0.25;" x="78.406612" xlink:href="#meab6aa2301" y="190.48223"/>
     <use style="fill:#008000;stroke:#ffffff;stroke-linejoin:miter;stroke-width:0.25;" x="81.358017" xlink:href="#meab6aa2301" y="190.48223"/>
     <use style="fill:#008000;stroke:#ffffff;stroke-linejoin:miter;stroke-width:0.25;" x="84.309421" xlink:href="#meab6aa2301" y="190.48223"/>
     <use style="fill:#008000;stroke:#ffffff;stroke-linejoin:miter;stroke-width:0.25;" x="87.260826" xlink:href="#meab6aa2301" y="190.48223"/>
     <use style="fill:#008000;stroke:#ffffff;stroke-linejoin:miter;stroke-width:0.25;" x="90.212231" xlink:href="#meab6aa2301" y="190.48223"/>
     <use style="fill:#008000;stroke:#ffffff;stroke-linejoin:miter;stroke-width:0.25;" x="93.163636" xlink:href="#meab6aa2301" y="190.48223"/>
     <use style="fill:#008000;stroke:#ffffff;stroke-linejoin:miter;stroke-width:0.25;" x="96.115041" xlink:href="#meab6aa2301" y="190.48223"/>
     <use style="fill:#008000;stroke:#ffffff;stroke-linejoin:miter;stroke-width:0.25;" x="99.066446" xlink:href="#meab6aa2301" y="190.48223"/>
     <use style="fill:#008000;stroke:#ffffff;stroke-linejoin:miter;stroke-width:0.25;" x="102.017851" xlink:href="#meab6aa2301" y="190.475349"/>
     <use style="fill:#008000;stroke:#ffffff;stroke-linejoin:miter;stroke-width:0.25;" x="104.969256" xlink:href="#meab6aa2301" y="190.475349"/>
     <use style="fill:#008000;stroke:#ffffff;stroke-linejoin:miter;stroke-width:0.25;" x="107.920661" xlink:href="#meab6aa2301" y="190.475349"/>
     <use style="fill:#008000;stroke:#ffffff;stroke-linejoin:miter;stroke-width:0.25;" x="110.872066" xlink:href="#meab6aa2301" y="190.475349"/>
     <use style="fill:#008000;stroke:#ffffff;stroke-linejoin:miter;stroke-width:0.25;" x="113.823471" xlink:href="#meab6aa2301" y="190.475349"/>
     <use style="fill:#008000;stroke:#ffffff;stroke-linejoin:miter;stroke-width:0.25;" x="116.774876" xlink:href="#meab6aa2301" y="190.475349"/>
     <use style="fill:#008000;stroke:#ffffff;stroke-linejoin:miter;stroke-width:0.25;" x="119.726281" xlink:href="#meab6aa2301" y="190.475349"/>
     <use style="fill:#008000;stroke:#ffffff;stroke-linejoin:miter;stroke-width:0.25;" x="122.677686" xlink:href="#meab6aa2301" y="190.475349"/>
     <use style="fill:#008000;stroke:#ffffff;stroke-linejoin:miter;stroke-width:0.25;" x="125.629091" xlink:href="#meab6aa2301" y="190.475349"/>
     <use style="fill:#008000;stroke:#ffffff;stroke-linejoin:miter;stroke-width:0.25;" x="128.580496" xlink:href="#meab6aa2301" y="190.475349"/>
     <use style="fill:#008000;stroke:#ffffff;stroke-linejoin:miter;stroke-width:0.25;" x="131.531901" xlink:href="#meab6aa2301" y="190.475349"/>
     <use style="fill:#008000;stroke:#ffffff;stroke-linejoin:miter;stroke-width:0.25;" x="134.483306" xlink:href="#meab6aa2301" y="190.475349"/>
     <use style="fill:#008000;stroke:#ffffff;stroke-linejoin:miter;stroke-width:0.25;" x="137.434711" xlink:href="#meab6aa2301" y="190.475349"/>
     <use style="fill:#008000;stroke:#ffffff;stroke-linejoin:miter;stroke-width:0.25;" x="140.386116" xlink:href="#meab6aa2301" y="190.475349"/>
     <use style="fill:#008000;stroke:#ffffff;stroke-linejoin:miter;stroke-width:0.25;" x="143.337521" xlink:href="#meab6aa2301" y="190.475349"/>
     <use style="fill:#008000;stroke:#ffffff;stroke-linejoin:miter;stroke-width:0.25;" x="146.288926" xlink:href="#meab6aa2301" y="190.475349"/>
     <use style="fill:#008000;stroke:#ffffff;stroke-linejoin:miter;stroke-width:0.25;" x="149.240331" xlink:href="#meab6aa2301" y="190.475349"/>
     <use style="fill:#008000;stroke:#ffffff;stroke-linejoin:miter;stroke-width:0.25;" x="152.191736" xlink:href="#meab6aa2301" y="190.475349"/>
     <use style="fill:#008000;stroke:#ffffff;stroke-linejoin:miter;stroke-width:0.25;" x="155.14314" xlink:href="#meab6aa2301" y="190.475349"/>
     <use style="fill:#008000;stroke:#ffffff;stroke-linejoin:miter;stroke-width:0.25;" x="158.094545" xlink:href="#meab6aa2301" y="190.475349"/>
     <use style="fill:#008000;stroke:#ffffff;stroke-linejoin:miter;stroke-width:0.25;" x="161.04595" xlink:href="#meab6aa2301" y="190.475349"/>
     <use style="fill:#008000;stroke:#ffffff;stroke-linejoin:miter;stroke-width:0.25;" x="163.997355" xlink:href="#meab6aa2301" y="190.475349"/>
     <use style="fill:#008000;stroke:#ffffff;stroke-linejoin:miter;stroke-width:0.25;" x="166.94876" xlink:href="#meab6aa2301" y="190.475349"/>
     <use style="fill:#008000;stroke:#ffffff;stroke-linejoin:miter;stroke-width:0.25;" x="169.900165" xlink:href="#meab6aa2301" y="190.473055"/>
     <use style="fill:#008000;stroke:#ffffff;stroke-linejoin:miter;stroke-width:0.25;" x="172.85157" xlink:href="#meab6aa2301" y="190.473055"/>
     <use style="fill:#008000;stroke:#ffffff;stroke-linejoin:miter;stroke-width:0.25;" x="175.802975" xlink:href="#meab6aa2301" y="190.473055"/>
     <use style="fill:#008000;stroke:#ffffff;stroke-linejoin:miter;stroke-width:0.25;" x="178.75438" xlink:href="#meab6aa2301" y="190.473055"/>
     <use style="fill:#008000;stroke:#ffffff;stroke-linejoin:miter;stroke-width:0.25;" x="181.705785" xlink:href="#meab6aa2301" y="190.473055"/>
     <use style="fill:#008000;stroke:#ffffff;stroke-linejoin:miter;stroke-width:0.25;" x="184.65719" xlink:href="#meab6aa2301" y="190.452411"/>
     <use style="fill:#008000;stroke:#ffffff;stroke-linejoin:miter;stroke-width:0.25;" x="187.608595" xlink:href="#meab6aa2301" y="190.452411"/>
     <use style="fill:#008000;stroke:#ffffff;stroke-linejoin:miter;stroke-width:0.25;" x="190.56" xlink:href="#meab6aa2301" y="190.450117"/>
     <use style="fill:#008000;stroke:#ffffff;stroke-linejoin:miter;stroke-width:0.25;" x="193.511405" xlink:href="#meab6aa2301" y="190.450117"/>
     <use style="fill:#008000;stroke:#ffffff;stroke-linejoin:miter;stroke-width:0.25;" x="196.46281" xlink:href="#meab6aa2301" y="190.447823"/>
     <use style="fill:#008000;stroke:#ffffff;stroke-linejoin:miter;stroke-width:0.25;" x="199.414215" xlink:href="#meab6aa2301" y="190.436354"/>
     <use style="fill:#008000;stroke:#ffffff;stroke-linejoin:miter;stroke-width:0.25;" x="202.36562" xlink:href="#meab6aa2301" y="190.429473"/>
     <use style="fill:#008000;stroke:#ffffff;stroke-linejoin:miter;stroke-width:0.25;" x="205.317025" xlink:href="#meab6aa2301" y="190.420298"/>
     <use style="fill:#008000;stroke:#ffffff;stroke-linejoin:miter;stroke-width:0.25;" x="208.26843" xlink:href="#meab6aa2301" y="190.420298"/>
     <use style="fill:#008000;stroke:#ffffff;stroke-linejoin:miter;stroke-width:0.25;" x="211.219835" xlink:href="#meab6aa2301" y="190.390478"/>
     <use style="fill:#008000;stroke:#ffffff;stroke-linejoin:miter;stroke-width:0.25;" x="214.17124" xlink:href="#meab6aa2301" y="190.383597"/>
     <use style="fill:#008000;stroke:#ffffff;stroke-linejoin:miter;stroke-width:0.25;" x="217.122645" xlink:href="#meab6aa2301" y="190.379009"/>
     <use style="fill:#008000;stroke:#ffffff;stroke-linejoin:miter;stroke-width:0.25;" x="220.07405" xlink:href="#meab6aa2301" y="190.314783"/>
     <use style="fill:#008000;stroke:#ffffff;stroke-linejoin:miter;stroke-width:0.25;" x="223.025455" xlink:href="#meab6aa2301" y="190.289551"/>
     <use style="fill:#008000;stroke:#ffffff;stroke-linejoin:miter;stroke-width:0.25;" x="225.97686" xlink:href="#meab6aa2301" y="190.26432"/>
     <use style="fill:#008000;stroke:#ffffff;stroke-linejoin:miter;stroke-width:0.25;" x="228.928264" xlink:href="#meab6aa2301" y="190.248263"/>
     <use style="fill:#008000;stroke:#ffffff;stroke-linejoin:miter;stroke-width:0.25;" x="231.879669" xlink:href="#meab6aa2301" y="190.200093"/>
     <use style="fill:#008000;stroke:#ffffff;stroke-linejoin:miter;stroke-width:0.25;" x="234.831074" xlink:href="#meab6aa2301" y="190.142748"/>
     <use style="fill:#008000;stroke:#ffffff;stroke-linejoin:miter;stroke-width:0.25;" x="237.782479" xlink:href="#meab6aa2301" y="190.044115"/>
     <use style="fill:#008000;stroke:#ffffff;stroke-linejoin:miter;stroke-width:0.25;" x="240.733884" xlink:href="#meab6aa2301" y="190.041822"/>
     <use style="fill:#008000;stroke:#ffffff;stroke-linejoin:miter;stroke-width:0.25;" x="243.685289" xlink:href="#meab6aa2301" y="189.956951"/>
     <use style="fill:#008000;stroke:#ffffff;stroke-linejoin:miter;stroke-width:0.25;" x="246.636694" xlink:href="#meab6aa2301" y="189.956951"/>
     <use style="fill:#008000;stroke:#ffffff;stroke-linejoin:miter;stroke-width:0.25;" x="249.588099" xlink:href="#meab6aa2301" y="189.622057"/>
     <use style="fill:#008000;stroke:#ffffff;stroke-linejoin:miter;stroke-width:0.25;" x="252.539504" xlink:href="#meab6aa2301" y="189.516542"/>
     <use style="fill:#008000;stroke:#ffffff;stroke-linejoin:miter;stroke-width:0.25;" x="255.490909" xlink:href="#meab6aa2301" y="189.32157"/>
     <use style="fill:#008000;stroke:#ffffff;stroke-linejoin:miter;stroke-width:0.25;" x="258.442314" xlink:href="#meab6aa2301" y="189.060077"/>
     <use style="fill:#008000;stroke:#ffffff;stroke-linejoin:miter;stroke-width:0.25;" x="261.393719" xlink:href="#meab6aa2301" y="188.706833"/>
     <use style="fill:#008000;stroke:#ffffff;stroke-linejoin:miter;stroke-width:0.25;" x="264.345124" xlink:href="#meab6aa2301" y="188.259543"/>
     <use style="fill:#008000;stroke:#ffffff;stroke-linejoin:miter;stroke-width:0.25;" x="267.296529" xlink:href="#meab6aa2301" y="188.004932"/>
     <use style="fill:#008000;stroke:#ffffff;stroke-linejoin:miter;stroke-width:0.25;" x="270.247934" xlink:href="#meab6aa2301" y="187.773258"/>
     <use style="fill:#008000;stroke:#ffffff;stroke-linejoin:miter;stroke-width:0.25;" x="273.199339" xlink:href="#meab6aa2301" y="187.364963"/>
     <use style="fill:#008000;stroke:#ffffff;stroke-linejoin:miter;stroke-width:0.25;" x="276.150744" xlink:href="#meab6aa2301" y="187.197516"/>
     <use style="fill:#008000;stroke:#ffffff;stroke-linejoin:miter;stroke-width:0.25;" x="279.102149" xlink:href="#meab6aa2301" y="186.426801"/>
     <use style="fill:#008000;stroke:#ffffff;stroke-linejoin:miter;stroke-width:0.25;" x="282.053554" xlink:href="#meab6aa2301" y="185.800595"/>
     <use style="fill:#008000;stroke:#ffffff;stroke-linejoin:miter;stroke-width:0.25;" x="285.004959" xlink:href="#meab6aa2301" y="184.832613"/>
     <use style="fill:#008000;stroke:#ffffff;stroke-linejoin:miter;stroke-width:0.25;" x="287.956364" xlink:href="#meab6aa2301" y="183.93574"/>
     <use style="fill:#008000;stroke:#ffffff;stroke-linejoin:miter;stroke-width:0.25;" x="290.907769" xlink:href="#meab6aa2301" y="182.97464"/>
     <use style="fill:#008000;stroke:#ffffff;stroke-linejoin:miter;stroke-width:0.25;" x="293.859174" xlink:href="#meab6aa2301" y="181.364396"/>
     <use style="fill:#008000;stroke:#ffffff;stroke-linejoin:miter;stroke-width:0.25;" x="296.810579" xlink:href="#meab6aa2301" y="180.458347"/>
     <use style="fill:#008000;stroke:#ffffff;stroke-linejoin:miter;stroke-width:0.25;" x="299.761983" xlink:href="#meab6aa2301" y="178.98573"/>
     <use style="fill:#008000;stroke:#ffffff;stroke-linejoin:miter;stroke-width:0.25;" x="302.713388" xlink:href="#meab6aa2301" y="177.870946"/>
     <use style="fill:#008000;stroke:#ffffff;stroke-linejoin:miter;stroke-width:0.25;" x="305.664793" xlink:href="#meab6aa2301" y="176.859383"/>
     <use style="fill:#008000;stroke:#ffffff;stroke-linejoin:miter;stroke-width:0.25;" x="308.616198" xlink:href="#meab6aa2301" y="175.519806"/>
     <use style="fill:#008000;stroke:#ffffff;stroke-linejoin:miter;stroke-width:0.25;" x="311.567603" xlink:href="#meab6aa2301" y="174.111416"/>
     <use style="fill:#008000;stroke:#ffffff;stroke-linejoin:miter;stroke-width:0.25;" x="314.519008" xlink:href="#meab6aa2301" y="172.712202"/>
     <use style="fill:#008000;stroke:#ffffff;stroke-linejoin:miter;stroke-width:0.25;" x="317.470413" xlink:href="#meab6aa2301" y="171.129483"/>
     <use style="fill:#008000;stroke:#ffffff;stroke-linejoin:miter;stroke-width:0.25;" x="320.421818" xlink:href="#meab6aa2301" y="169.682099"/>
     <use style="fill:#008000;stroke:#ffffff;stroke-linejoin:miter;stroke-width:0.25;" x="323.373223" xlink:href="#meab6aa2301" y="167.528225"/>
     <use style="fill:#008000;stroke:#ffffff;stroke-linejoin:miter;stroke-width:0.25;" x="326.324628" xlink:href="#meab6aa2301" y="165.665664"/>
     <use style="fill:#008000;stroke:#ffffff;stroke-linejoin:miter;stroke-width:0.25;" x="329.276033" xlink:href="#meab6aa2301" y="163.472796"/>
     <use style="fill:#008000;stroke:#ffffff;stroke-linejoin:miter;stroke-width:0.25;" x="332.227438" xlink:href="#meab6aa2301" y="161.013848"/>
     <use style="fill:#008000;stroke:#ffffff;stroke-linejoin:miter;stroke-width:0.25;" x="335.178843" xlink:href="#meab6aa2301" y="158.043384"/>
     <use style="fill:#008000;stroke:#ffffff;stroke-linejoin:miter;stroke-width:0.25;" x="338.130248" xlink:href="#meab6aa2301" y="155.316062"/>
     <use style="fill:#008000;stroke:#ffffff;stroke-linejoin:miter;stroke-width:0.25;" x="341.081653" xlink:href="#meab6aa2301" y="152.001528"/>
     <use style="fill:#008000;stroke:#ffffff;stroke-linejoin:miter;stroke-width:0.25;" x="344.033058" xlink:href="#meab6aa2301" y="149.453122"/>
     <use style="fill:#008000;stroke:#ffffff;stroke-linejoin:miter;stroke-width:0.25;" x="346.984463" xlink:href="#meab6aa2301" y="146.209696"/>
     <use style="fill:#008000;stroke:#ffffff;stroke-linejoin:miter;stroke-width:0.25;" x="349.935868" xlink:href="#meab6aa2301" y="142.383646"/>
     <use style="fill:#008000;stroke:#ffffff;stroke-linejoin:miter;stroke-width:0.25;" x="352.887273" xlink:href="#meab6aa2301" y="138.75945"/>
    </g>
   </g>
   <g id="line2d_19">
    <path clip-path="url(#p4362c6db6f)" d="M 28.232727 190.48223 
L 31.184132 190.48223 
L 34.135537 190.48223 
L 37.086942 190.48223 
L 40.038347 190.48223 
L 42.989752 190.48223 
L 45.941157 190.48223 
L 48.892562 190.48223 
L 51.843967 190.48223 
L 54.795372 190.48223 
L 57.746777 190.48223 
L 60.698182 190.48223 
L 63.649587 190.48223 
L 66.600992 190.48223 
L 69.552397 190.48223 
L 72.503802 190.48223 
L 75.455207 190.48223 
L 78.406612 190.48223 
L 81.358017 190.48223 
L 84.309421 190.48223 
L 87.260826 190.48223 
L 90.212231 190.48223 
L 93.163636 190.48223 
L 96.115041 190.48223 
L 99.066446 190.48223 
L 102.017851 190.48223 
L 104.969256 190.48223 
L 107.920661 190.48223 
L 110.872066 190.48223 
L 113.823471 190.48223 
L 116.774876 190.48223 
L 119.726281 190.48223 
L 122.677686 190.48223 
L 125.629091 190.48223 
L 128.580496 190.48223 
L 131.531901 190.48223 
L 134.483306 190.48223 
L 137.434711 190.48223 
L 140.386116 190.48223 
L 143.337521 190.48223 
L 146.288926 190.48223 
L 149.240331 190.48223 
L 152.191736 190.48223 
L 155.14314 190.48223 
L 158.094545 190.48223 
L 161.04595 190.48223 
L 163.997355 190.48223 
L 166.94876 190.48223 
L 169.900165 190.48223 
L 172.85157 190.479936 
L 175.802975 190.479936 
L 178.75438 190.477643 
L 181.705785 190.477643 
L 184.65719 190.477643 
L 187.608595 190.477643 
L 190.56 190.475349 
L 193.511405 190.475349 
L 196.46281 190.473055 
L 199.414215 190.470761 
L 202.36562 190.473055 
L 205.317025 190.466174 
L 208.26843 190.459292 
L 211.219835 190.459292 
L 214.17124 190.454705 
L 217.122645 190.436354 
L 220.07405 190.436354 
L 223.025455 190.427179 
L 225.97686 190.420298 
L 228.928264 190.408829 
L 231.879669 190.401947 
L 234.831074 190.34919 
L 237.782479 190.317077 
L 240.733884 190.317077 
L 243.685289 190.284964 
L 246.636694 190.255144 
L 249.588099 190.170274 
L 252.539504 190.138161 
L 255.490909 190.073935 
L 258.442314 189.963832 
L 261.393719 189.917957 
L 264.345124 189.821617 
L 267.296529 189.722984 
L 270.247934 189.661052 
L 273.199339 189.580769 
L 276.150744 189.553243 
L 279.102149 189.45461 
L 282.053554 189.367446 
L 285.004959 189.287163 
L 287.956364 189.199999 
L 290.907769 189.124304 
L 293.859174 189.002732 
L 296.810579 188.920156 
L 299.761983 188.828404 
L 302.713388 188.69307 
L 305.664793 188.589849 
L 308.616198 188.461397 
L 311.567603 188.328357 
L 314.519008 188.170085 
L 317.470413 188.007225 
L 320.421818 187.835191 
L 323.373223 187.676919 
L 326.324628 187.44754 
L 329.276033 187.291562 
L 332.227438 186.890147 
L 335.178843 186.598835 
L 338.130248 186.387806 
L 341.081653 186.149252 
L 344.033058 185.929047 
L 346.984463 185.662967 
L 349.935868 185.408356 
L 352.887273 185.220265 
" style="fill:none;stroke:#ff0000;stroke-linecap:round;stroke-width:1.5;"/>
    <defs>
     <path d="M -0.75 1.5 
L 0 0.75 
L 0.75 1.5 
L 1.5 0.75 
L 0.75 0 
L 1.5 -0.75 
L 0.75 -1.5 
L 0 -0.75 
L -0.75 -1.5 
L -1.5 -0.75 
L -0.75 0 
L -1.5 0.75 
z
" id="m16b95faeb0" style="stroke:#ffffff;stroke-linejoin:miter;stroke-width:0.25;"/>
    </defs>
    <g clip-path="url(#p4362c6db6f)">
     <use style="fill:#ff0000;stroke:#ffffff;stroke-linejoin:miter;stroke-width:0.25;" x="28.232727" xlink:href="#m16b95faeb0" y="190.48223"/>
     <use style="fill:#ff0000;stroke:#ffffff;stroke-linejoin:miter;stroke-width:0.25;" x="31.184132" xlink:href="#m16b95faeb0" y="190.48223"/>
     <use style="fill:#ff0000;stroke:#ffffff;stroke-linejoin:miter;stroke-width:0.25;" x="34.135537" xlink:href="#m16b95faeb0" y="190.48223"/>
     <use style="fill:#ff0000;stroke:#ffffff;stroke-linejoin:miter;stroke-width:0.25;" x="37.086942" xlink:href="#m16b95faeb0" y="190.48223"/>
     <use style="fill:#ff0000;stroke:#ffffff;stroke-linejoin:miter;stroke-width:0.25;" x="40.038347" xlink:href="#m16b95faeb0" y="190.48223"/>
     <use style="fill:#ff0000;stroke:#ffffff;stroke-linejoin:miter;stroke-width:0.25;" x="42.989752" xlink:href="#m16b95faeb0" y="190.48223"/>
     <use style="fill:#ff0000;stroke:#ffffff;stroke-linejoin:miter;stroke-width:0.25;" x="45.941157" xlink:href="#m16b95faeb0" y="190.48223"/>
     <use style="fill:#ff0000;stroke:#ffffff;stroke-linejoin:miter;stroke-width:0.25;" x="48.892562" xlink:href="#m16b95faeb0" y="190.48223"/>
     <use style="fill:#ff0000;stroke:#ffffff;stroke-linejoin:miter;stroke-width:0.25;" x="51.843967" xlink:href="#m16b95faeb0" y="190.48223"/>
     <use style="fill:#ff0000;stroke:#ffffff;stroke-linejoin:miter;stroke-width:0.25;" x="54.795372" xlink:href="#m16b95faeb0" y="190.48223"/>
     <use style="fill:#ff0000;stroke:#ffffff;stroke-linejoin:miter;stroke-width:0.25;" x="57.746777" xlink:href="#m16b95faeb0" y="190.48223"/>
     <use style="fill:#ff0000;stroke:#ffffff;stroke-linejoin:miter;stroke-width:0.25;" x="60.698182" xlink:href="#m16b95faeb0" y="190.48223"/>
     <use style="fill:#ff0000;stroke:#ffffff;stroke-linejoin:miter;stroke-width:0.25;" x="63.649587" xlink:href="#m16b95faeb0" y="190.48223"/>
     <use style="fill:#ff0000;stroke:#ffffff;stroke-linejoin:miter;stroke-width:0.25;" x="66.600992" xlink:href="#m16b95faeb0" y="190.48223"/>
     <use style="fill:#ff0000;stroke:#ffffff;stroke-linejoin:miter;stroke-width:0.25;" x="69.552397" xlink:href="#m16b95faeb0" y="190.48223"/>
     <use style="fill:#ff0000;stroke:#ffffff;stroke-linejoin:miter;stroke-width:0.25;" x="72.503802" xlink:href="#m16b95faeb0" y="190.48223"/>
     <use style="fill:#ff0000;stroke:#ffffff;stroke-linejoin:miter;stroke-width:0.25;" x="75.455207" xlink:href="#m16b95faeb0" y="190.48223"/>
     <use style="fill:#ff0000;stroke:#ffffff;stroke-linejoin:miter;stroke-width:0.25;" x="78.406612" xlink:href="#m16b95faeb0" y="190.48223"/>
     <use style="fill:#ff0000;stroke:#ffffff;stroke-linejoin:miter;stroke-width:0.25;" x="81.358017" xlink:href="#m16b95faeb0" y="190.48223"/>
     <use style="fill:#ff0000;stroke:#ffffff;stroke-linejoin:miter;stroke-width:0.25;" x="84.309421" xlink:href="#m16b95faeb0" y="190.48223"/>
     <use style="fill:#ff0000;stroke:#ffffff;stroke-linejoin:miter;stroke-width:0.25;" x="87.260826" xlink:href="#m16b95faeb0" y="190.48223"/>
     <use style="fill:#ff0000;stroke:#ffffff;stroke-linejoin:miter;stroke-width:0.25;" x="90.212231" xlink:href="#m16b95faeb0" y="190.48223"/>
     <use style="fill:#ff0000;stroke:#ffffff;stroke-linejoin:miter;stroke-width:0.25;" x="93.163636" xlink:href="#m16b95faeb0" y="190.48223"/>
     <use style="fill:#ff0000;stroke:#ffffff;stroke-linejoin:miter;stroke-width:0.25;" x="96.115041" xlink:href="#m16b95faeb0" y="190.48223"/>
     <use style="fill:#ff0000;stroke:#ffffff;stroke-linejoin:miter;stroke-width:0.25;" x="99.066446" xlink:href="#m16b95faeb0" y="190.48223"/>
     <use style="fill:#ff0000;stroke:#ffffff;stroke-linejoin:miter;stroke-width:0.25;" x="102.017851" xlink:href="#m16b95faeb0" y="190.48223"/>
     <use style="fill:#ff0000;stroke:#ffffff;stroke-linejoin:miter;stroke-width:0.25;" x="104.969256" xlink:href="#m16b95faeb0" y="190.48223"/>
     <use style="fill:#ff0000;stroke:#ffffff;stroke-linejoin:miter;stroke-width:0.25;" x="107.920661" xlink:href="#m16b95faeb0" y="190.48223"/>
     <use style="fill:#ff0000;stroke:#ffffff;stroke-linejoin:miter;stroke-width:0.25;" x="110.872066" xlink:href="#m16b95faeb0" y="190.48223"/>
     <use style="fill:#ff0000;stroke:#ffffff;stroke-linejoin:miter;stroke-width:0.25;" x="113.823471" xlink:href="#m16b95faeb0" y="190.48223"/>
     <use style="fill:#ff0000;stroke:#ffffff;stroke-linejoin:miter;stroke-width:0.25;" x="116.774876" xlink:href="#m16b95faeb0" y="190.48223"/>
     <use style="fill:#ff0000;stroke:#ffffff;stroke-linejoin:miter;stroke-width:0.25;" x="119.726281" xlink:href="#m16b95faeb0" y="190.48223"/>
     <use style="fill:#ff0000;stroke:#ffffff;stroke-linejoin:miter;stroke-width:0.25;" x="122.677686" xlink:href="#m16b95faeb0" y="190.48223"/>
     <use style="fill:#ff0000;stroke:#ffffff;stroke-linejoin:miter;stroke-width:0.25;" x="125.629091" xlink:href="#m16b95faeb0" y="190.48223"/>
     <use style="fill:#ff0000;stroke:#ffffff;stroke-linejoin:miter;stroke-width:0.25;" x="128.580496" xlink:href="#m16b95faeb0" y="190.48223"/>
     <use style="fill:#ff0000;stroke:#ffffff;stroke-linejoin:miter;stroke-width:0.25;" x="131.531901" xlink:href="#m16b95faeb0" y="190.48223"/>
     <use style="fill:#ff0000;stroke:#ffffff;stroke-linejoin:miter;stroke-width:0.25;" x="134.483306" xlink:href="#m16b95faeb0" y="190.48223"/>
     <use style="fill:#ff0000;stroke:#ffffff;stroke-linejoin:miter;stroke-width:0.25;" x="137.434711" xlink:href="#m16b95faeb0" y="190.48223"/>
     <use style="fill:#ff0000;stroke:#ffffff;stroke-linejoin:miter;stroke-width:0.25;" x="140.386116" xlink:href="#m16b95faeb0" y="190.48223"/>
     <use style="fill:#ff0000;stroke:#ffffff;stroke-linejoin:miter;stroke-width:0.25;" x="143.337521" xlink:href="#m16b95faeb0" y="190.48223"/>
     <use style="fill:#ff0000;stroke:#ffffff;stroke-linejoin:miter;stroke-width:0.25;" x="146.288926" xlink:href="#m16b95faeb0" y="190.48223"/>
     <use style="fill:#ff0000;stroke:#ffffff;stroke-linejoin:miter;stroke-width:0.25;" x="149.240331" xlink:href="#m16b95faeb0" y="190.48223"/>
     <use style="fill:#ff0000;stroke:#ffffff;stroke-linejoin:miter;stroke-width:0.25;" x="152.191736" xlink:href="#m16b95faeb0" y="190.48223"/>
     <use style="fill:#ff0000;stroke:#ffffff;stroke-linejoin:miter;stroke-width:0.25;" x="155.14314" xlink:href="#m16b95faeb0" y="190.48223"/>
     <use style="fill:#ff0000;stroke:#ffffff;stroke-linejoin:miter;stroke-width:0.25;" x="158.094545" xlink:href="#m16b95faeb0" y="190.48223"/>
     <use style="fill:#ff0000;stroke:#ffffff;stroke-linejoin:miter;stroke-width:0.25;" x="161.04595" xlink:href="#m16b95faeb0" y="190.48223"/>
     <use style="fill:#ff0000;stroke:#ffffff;stroke-linejoin:miter;stroke-width:0.25;" x="163.997355" xlink:href="#m16b95faeb0" y="190.48223"/>
     <use style="fill:#ff0000;stroke:#ffffff;stroke-linejoin:miter;stroke-width:0.25;" x="166.94876" xlink:href="#m16b95faeb0" y="190.48223"/>
     <use style="fill:#ff0000;stroke:#ffffff;stroke-linejoin:miter;stroke-width:0.25;" x="169.900165" xlink:href="#m16b95faeb0" y="190.48223"/>
     <use style="fill:#ff0000;stroke:#ffffff;stroke-linejoin:miter;stroke-width:0.25;" x="172.85157" xlink:href="#m16b95faeb0" y="190.479936"/>
     <use style="fill:#ff0000;stroke:#ffffff;stroke-linejoin:miter;stroke-width:0.25;" x="175.802975" xlink:href="#m16b95faeb0" y="190.479936"/>
     <use style="fill:#ff0000;stroke:#ffffff;stroke-linejoin:miter;stroke-width:0.25;" x="178.75438" xlink:href="#m16b95faeb0" y="190.477643"/>
     <use style="fill:#ff0000;stroke:#ffffff;stroke-linejoin:miter;stroke-width:0.25;" x="181.705785" xlink:href="#m16b95faeb0" y="190.477643"/>
     <use style="fill:#ff0000;stroke:#ffffff;stroke-linejoin:miter;stroke-width:0.25;" x="184.65719" xlink:href="#m16b95faeb0" y="190.477643"/>
     <use style="fill:#ff0000;stroke:#ffffff;stroke-linejoin:miter;stroke-width:0.25;" x="187.608595" xlink:href="#m16b95faeb0" y="190.477643"/>
     <use style="fill:#ff0000;stroke:#ffffff;stroke-linejoin:miter;stroke-width:0.25;" x="190.56" xlink:href="#m16b95faeb0" y="190.475349"/>
     <use style="fill:#ff0000;stroke:#ffffff;stroke-linejoin:miter;stroke-width:0.25;" x="193.511405" xlink:href="#m16b95faeb0" y="190.475349"/>
     <use style="fill:#ff0000;stroke:#ffffff;stroke-linejoin:miter;stroke-width:0.25;" x="196.46281" xlink:href="#m16b95faeb0" y="190.473055"/>
     <use style="fill:#ff0000;stroke:#ffffff;stroke-linejoin:miter;stroke-width:0.25;" x="199.414215" xlink:href="#m16b95faeb0" y="190.470761"/>
     <use style="fill:#ff0000;stroke:#ffffff;stroke-linejoin:miter;stroke-width:0.25;" x="202.36562" xlink:href="#m16b95faeb0" y="190.473055"/>
     <use style="fill:#ff0000;stroke:#ffffff;stroke-linejoin:miter;stroke-width:0.25;" x="205.317025" xlink:href="#m16b95faeb0" y="190.466174"/>
     <use style="fill:#ff0000;stroke:#ffffff;stroke-linejoin:miter;stroke-width:0.25;" x="208.26843" xlink:href="#m16b95faeb0" y="190.459292"/>
     <use style="fill:#ff0000;stroke:#ffffff;stroke-linejoin:miter;stroke-width:0.25;" x="211.219835" xlink:href="#m16b95faeb0" y="190.459292"/>
     <use style="fill:#ff0000;stroke:#ffffff;stroke-linejoin:miter;stroke-width:0.25;" x="214.17124" xlink:href="#m16b95faeb0" y="190.454705"/>
     <use style="fill:#ff0000;stroke:#ffffff;stroke-linejoin:miter;stroke-width:0.25;" x="217.122645" xlink:href="#m16b95faeb0" y="190.436354"/>
     <use style="fill:#ff0000;stroke:#ffffff;stroke-linejoin:miter;stroke-width:0.25;" x="220.07405" xlink:href="#m16b95faeb0" y="190.436354"/>
     <use style="fill:#ff0000;stroke:#ffffff;stroke-linejoin:miter;stroke-width:0.25;" x="223.025455" xlink:href="#m16b95faeb0" y="190.427179"/>
     <use style="fill:#ff0000;stroke:#ffffff;stroke-linejoin:miter;stroke-width:0.25;" x="225.97686" xlink:href="#m16b95faeb0" y="190.420298"/>
     <use style="fill:#ff0000;stroke:#ffffff;stroke-linejoin:miter;stroke-width:0.25;" x="228.928264" xlink:href="#m16b95faeb0" y="190.408829"/>
     <use style="fill:#ff0000;stroke:#ffffff;stroke-linejoin:miter;stroke-width:0.25;" x="231.879669" xlink:href="#m16b95faeb0" y="190.401947"/>
     <use style="fill:#ff0000;stroke:#ffffff;stroke-linejoin:miter;stroke-width:0.25;" x="234.831074" xlink:href="#m16b95faeb0" y="190.34919"/>
     <use style="fill:#ff0000;stroke:#ffffff;stroke-linejoin:miter;stroke-width:0.25;" x="237.782479" xlink:href="#m16b95faeb0" y="190.317077"/>
     <use style="fill:#ff0000;stroke:#ffffff;stroke-linejoin:miter;stroke-width:0.25;" x="240.733884" xlink:href="#m16b95faeb0" y="190.317077"/>
     <use style="fill:#ff0000;stroke:#ffffff;stroke-linejoin:miter;stroke-width:0.25;" x="243.685289" xlink:href="#m16b95faeb0" y="190.284964"/>
     <use style="fill:#ff0000;stroke:#ffffff;stroke-linejoin:miter;stroke-width:0.25;" x="246.636694" xlink:href="#m16b95faeb0" y="190.255144"/>
     <use style="fill:#ff0000;stroke:#ffffff;stroke-linejoin:miter;stroke-width:0.25;" x="249.588099" xlink:href="#m16b95faeb0" y="190.170274"/>
     <use style="fill:#ff0000;stroke:#ffffff;stroke-linejoin:miter;stroke-width:0.25;" x="252.539504" xlink:href="#m16b95faeb0" y="190.138161"/>
     <use style="fill:#ff0000;stroke:#ffffff;stroke-linejoin:miter;stroke-width:0.25;" x="255.490909" xlink:href="#m16b95faeb0" y="190.073935"/>
     <use style="fill:#ff0000;stroke:#ffffff;stroke-linejoin:miter;stroke-width:0.25;" x="258.442314" xlink:href="#m16b95faeb0" y="189.963832"/>
     <use style="fill:#ff0000;stroke:#ffffff;stroke-linejoin:miter;stroke-width:0.25;" x="261.393719" xlink:href="#m16b95faeb0" y="189.917957"/>
     <use style="fill:#ff0000;stroke:#ffffff;stroke-linejoin:miter;stroke-width:0.25;" x="264.345124" xlink:href="#m16b95faeb0" y="189.821617"/>
     <use style="fill:#ff0000;stroke:#ffffff;stroke-linejoin:miter;stroke-width:0.25;" x="267.296529" xlink:href="#m16b95faeb0" y="189.722984"/>
     <use style="fill:#ff0000;stroke:#ffffff;stroke-linejoin:miter;stroke-width:0.25;" x="270.247934" xlink:href="#m16b95faeb0" y="189.661052"/>
     <use style="fill:#ff0000;stroke:#ffffff;stroke-linejoin:miter;stroke-width:0.25;" x="273.199339" xlink:href="#m16b95faeb0" y="189.580769"/>
     <use style="fill:#ff0000;stroke:#ffffff;stroke-linejoin:miter;stroke-width:0.25;" x="276.150744" xlink:href="#m16b95faeb0" y="189.553243"/>
     <use style="fill:#ff0000;stroke:#ffffff;stroke-linejoin:miter;stroke-width:0.25;" x="279.102149" xlink:href="#m16b95faeb0" y="189.45461"/>
     <use style="fill:#ff0000;stroke:#ffffff;stroke-linejoin:miter;stroke-width:0.25;" x="282.053554" xlink:href="#m16b95faeb0" y="189.367446"/>
     <use style="fill:#ff0000;stroke:#ffffff;stroke-linejoin:miter;stroke-width:0.25;" x="285.004959" xlink:href="#m16b95faeb0" y="189.287163"/>
     <use style="fill:#ff0000;stroke:#ffffff;stroke-linejoin:miter;stroke-width:0.25;" x="287.956364" xlink:href="#m16b95faeb0" y="189.199999"/>
     <use style="fill:#ff0000;stroke:#ffffff;stroke-linejoin:miter;stroke-width:0.25;" x="290.907769" xlink:href="#m16b95faeb0" y="189.124304"/>
     <use style="fill:#ff0000;stroke:#ffffff;stroke-linejoin:miter;stroke-width:0.25;" x="293.859174" xlink:href="#m16b95faeb0" y="189.002732"/>
     <use style="fill:#ff0000;stroke:#ffffff;stroke-linejoin:miter;stroke-width:0.25;" x="296.810579" xlink:href="#m16b95faeb0" y="188.920156"/>
     <use style="fill:#ff0000;stroke:#ffffff;stroke-linejoin:miter;stroke-width:0.25;" x="299.761983" xlink:href="#m16b95faeb0" y="188.828404"/>
     <use style="fill:#ff0000;stroke:#ffffff;stroke-linejoin:miter;stroke-width:0.25;" x="302.713388" xlink:href="#m16b95faeb0" y="188.69307"/>
     <use style="fill:#ff0000;stroke:#ffffff;stroke-linejoin:miter;stroke-width:0.25;" x="305.664793" xlink:href="#m16b95faeb0" y="188.589849"/>
     <use style="fill:#ff0000;stroke:#ffffff;stroke-linejoin:miter;stroke-width:0.25;" x="308.616198" xlink:href="#m16b95faeb0" y="188.461397"/>
     <use style="fill:#ff0000;stroke:#ffffff;stroke-linejoin:miter;stroke-width:0.25;" x="311.567603" xlink:href="#m16b95faeb0" y="188.328357"/>
     <use style="fill:#ff0000;stroke:#ffffff;stroke-linejoin:miter;stroke-width:0.25;" x="314.519008" xlink:href="#m16b95faeb0" y="188.170085"/>
     <use style="fill:#ff0000;stroke:#ffffff;stroke-linejoin:miter;stroke-width:0.25;" x="317.470413" xlink:href="#m16b95faeb0" y="188.007225"/>
     <use style="fill:#ff0000;stroke:#ffffff;stroke-linejoin:miter;stroke-width:0.25;" x="320.421818" xlink:href="#m16b95faeb0" y="187.835191"/>
     <use style="fill:#ff0000;stroke:#ffffff;stroke-linejoin:miter;stroke-width:0.25;" x="323.373223" xlink:href="#m16b95faeb0" y="187.676919"/>
     <use style="fill:#ff0000;stroke:#ffffff;stroke-linejoin:miter;stroke-width:0.25;" x="326.324628" xlink:href="#m16b95faeb0" y="187.44754"/>
     <use style="fill:#ff0000;stroke:#ffffff;stroke-linejoin:miter;stroke-width:0.25;" x="329.276033" xlink:href="#m16b95faeb0" y="187.291562"/>
     <use style="fill:#ff0000;stroke:#ffffff;stroke-linejoin:miter;stroke-width:0.25;" x="332.227438" xlink:href="#m16b95faeb0" y="186.890147"/>
     <use style="fill:#ff0000;stroke:#ffffff;stroke-linejoin:miter;stroke-width:0.25;" x="335.178843" xlink:href="#m16b95faeb0" y="186.598835"/>
     <use style="fill:#ff0000;stroke:#ffffff;stroke-linejoin:miter;stroke-width:0.25;" x="338.130248" xlink:href="#m16b95faeb0" y="186.387806"/>
     <use style="fill:#ff0000;stroke:#ffffff;stroke-linejoin:miter;stroke-width:0.25;" x="341.081653" xlink:href="#m16b95faeb0" y="186.149252"/>
     <use style="fill:#ff0000;stroke:#ffffff;stroke-linejoin:miter;stroke-width:0.25;" x="344.033058" xlink:href="#m16b95faeb0" y="185.929047"/>
     <use style="fill:#ff0000;stroke:#ffffff;stroke-linejoin:miter;stroke-width:0.25;" x="346.984463" xlink:href="#m16b95faeb0" y="185.662967"/>
     <use style="fill:#ff0000;stroke:#ffffff;stroke-linejoin:miter;stroke-width:0.25;" x="349.935868" xlink:href="#m16b95faeb0" y="185.408356"/>
     <use style="fill:#ff0000;stroke:#ffffff;stroke-linejoin:miter;stroke-width:0.25;" x="352.887273" xlink:href="#m16b95faeb0" y="185.220265"/>
    </g>
   </g>
   <g id="line2d_20"/>
   <g id="line2d_21"/>
   <g id="line2d_22"/>
   <g id="line2d_23"/>
   <g id="line2d_24">
    <path clip-path="url(#p4362c6db6f)" d="M 12 28.154957 
L 369.12 28.154957 
" style="fill:none;stroke:#4c72b0;stroke-dasharray:0.5,0.825;stroke-dashoffset:0;stroke-width:0.5;"/>
   </g>
   <g id="line2d_25">
    <path clip-path="url(#p4362c6db6f)" d="M 12 185.220265 
L 369.12 185.220265 
" style="fill:none;stroke:#4c72b0;stroke-dasharray:0.5,0.825;stroke-dashoffset:0;stroke-width:0.5;"/>
   </g>
   <g id="line2d_26">
    <path clip-path="url(#p4362c6db6f)" d="M 12 138.75945 
L 369.12 138.75945 
" style="fill:none;stroke:#4c72b0;stroke-dasharray:0.5,0.825;stroke-dashoffset:0;stroke-width:0.5;"/>
   </g>
   <g id="line2d_27">
    <path clip-path="url(#p4362c6db6f)" d="M 352.887273 198.598594 
L 352.887273 20.038594 
" style="fill:none;stroke:#4c72b0;stroke-dasharray:0.5,0.825;stroke-dashoffset:0;stroke-width:0.5;"/>
   </g>
   <g id="patch_3">
    <path d="M 12 198.598594 
L 12 20.038594 
" style="fill:none;stroke:#262626;stroke-linecap:square;stroke-linejoin:miter;stroke-width:0.5;"/>
   </g>
   <g id="patch_4">
    <path d="M 12 198.598594 
L 369.12 198.598594 
" style="fill:none;stroke:#262626;stroke-linecap:square;stroke-linejoin:miter;stroke-width:0.5;"/>
   </g>
   <g id="text_9">
    <!-- 70768 -->
    <defs>
     <path d="M 8.203125 72.90625 
L 55.078125 72.90625 
L 55.078125 68.703125 
L 28.609375 0 
L 18.3125 0 
L 43.21875 64.59375 
L 8.203125 64.59375 
z
" id="DejaVuSans-55"/>
     <path d="M 33.015625 40.375 
Q 26.375 40.375 22.484375 35.828125 
Q 18.609375 31.296875 18.609375 23.390625 
Q 18.609375 15.53125 22.484375 10.953125 
Q 26.375 6.390625 33.015625 6.390625 
Q 39.65625 6.390625 43.53125 10.953125 
Q 47.40625 15.53125 47.40625 23.390625 
Q 47.40625 31.296875 43.53125 35.828125 
Q 39.65625 40.375 33.015625 40.375 
z
M 52.59375 71.296875 
L 52.59375 62.3125 
Q 48.875 64.0625 45.09375 64.984375 
Q 41.3125 65.921875 37.59375 65.921875 
Q 27.828125 65.921875 22.671875 59.328125 
Q 17.53125 52.734375 16.796875 39.40625 
Q 19.671875 43.65625 24.015625 45.921875 
Q 28.375 48.1875 33.59375 48.1875 
Q 44.578125 48.1875 50.953125 41.515625 
Q 57.328125 34.859375 57.328125 23.390625 
Q 57.328125 12.15625 50.6875 5.359375 
Q 44.046875 -1.421875 33.015625 -1.421875 
Q 20.359375 -1.421875 13.671875 8.265625 
Q 6.984375 17.96875 6.984375 36.375 
Q 6.984375 53.65625 15.1875 63.9375 
Q 23.390625 74.21875 37.203125 74.21875 
Q 40.921875 74.21875 44.703125 73.484375 
Q 48.484375 72.75 52.59375 71.296875 
z
" id="DejaVuSans-54"/>
     <path d="M 31.78125 34.625 
Q 24.75 34.625 20.71875 30.859375 
Q 16.703125 27.09375 16.703125 20.515625 
Q 16.703125 13.921875 20.71875 10.15625 
Q 24.75 6.390625 31.78125 6.390625 
Q 38.8125 6.390625 42.859375 10.171875 
Q 46.921875 13.96875 46.921875 20.515625 
Q 46.921875 27.09375 42.890625 30.859375 
Q 38.875 34.625 31.78125 34.625 
z
M 21.921875 38.8125 
Q 15.578125 40.375 12.03125 44.71875 
Q 8.5 49.078125 8.5 55.328125 
Q 8.5 64.0625 14.71875 69.140625 
Q 20.953125 74.21875 31.78125 74.21875 
Q 42.671875 74.21875 48.875 69.140625 
Q 55.078125 64.0625 55.078125 55.328125 
Q 55.078125 49.078125 51.53125 44.71875 
Q 48 40.375 41.703125 38.8125 
Q 48.828125 37.15625 52.796875 32.3125 
Q 56.78125 27.484375 56.78125 20.515625 
Q 56.78125 9.90625 50.3125 4.234375 
Q 43.84375 -1.421875 31.78125 -1.421875 
Q 19.734375 -1.421875 13.25 4.234375 
Q 6.78125 9.90625 6.78125 20.515625 
Q 6.78125 27.484375 10.78125 32.3125 
Q 14.796875 37.15625 21.921875 38.8125 
z
M 18.3125 54.390625 
Q 18.3125 48.734375 21.84375 45.5625 
Q 25.390625 42.390625 31.78125 42.390625 
Q 38.140625 42.390625 41.71875 45.5625 
Q 45.3125 48.734375 45.3125 54.390625 
Q 45.3125 60.0625 41.71875 63.234375 
Q 38.140625 66.40625 31.78125 66.40625 
Q 25.390625 66.40625 21.84375 63.234375 
Q 18.3125 60.0625 18.3125 54.390625 
z
" id="DejaVuSans-56"/>
    </defs>
    <g style="fill:#ff0000;" transform="translate(15.5712 26.491207)scale(0.08 -0.08)">
     <use xlink:href="#DejaVuSans-55"/>
     <use x="63.623047" xlink:href="#DejaVuSans-48"/>
     <use x="127.246094" xlink:href="#DejaVuSans-55"/>
     <use x="190.869141" xlink:href="#DejaVuSans-54"/>
     <use x="254.492188" xlink:href="#DejaVuSans-56"/>
    </g>
   </g>
   <g id="text_10">
    <!-- 2294 -->
    <defs>
     <path d="M 19.1875 8.296875 
L 53.609375 8.296875 
L 53.609375 0 
L 7.328125 0 
L 7.328125 8.296875 
Q 12.9375 14.109375 22.625 23.890625 
Q 32.328125 33.6875 34.8125 36.53125 
Q 39.546875 41.84375 41.421875 45.53125 
Q 43.3125 49.21875 43.3125 52.78125 
Q 43.3125 58.59375 39.234375 62.25 
Q 35.15625 65.921875 28.609375 65.921875 
Q 23.96875 65.921875 18.8125 64.3125 
Q 13.671875 62.703125 7.8125 59.421875 
L 7.8125 69.390625 
Q 13.765625 71.78125 18.9375 73 
Q 24.125 74.21875 28.421875 74.21875 
Q 39.75 74.21875 46.484375 68.546875 
Q 53.21875 62.890625 53.21875 53.421875 
Q 53.21875 48.921875 51.53125 44.890625 
Q 49.859375 40.875 45.40625 35.40625 
Q 44.1875 33.984375 37.640625 27.21875 
Q 31.109375 20.453125 19.1875 8.296875 
z
" id="DejaVuSans-50"/>
     <path d="M 10.984375 1.515625 
L 10.984375 10.5 
Q 14.703125 8.734375 18.5 7.8125 
Q 22.3125 6.890625 25.984375 6.890625 
Q 35.75 6.890625 40.890625 13.453125 
Q 46.046875 20.015625 46.78125 33.40625 
Q 43.953125 29.203125 39.59375 26.953125 
Q 35.25 24.703125 29.984375 24.703125 
Q 19.046875 24.703125 12.671875 31.3125 
Q 6.296875 37.9375 6.296875 49.421875 
Q 6.296875 60.640625 12.9375 67.421875 
Q 19.578125 74.21875 30.609375 74.21875 
Q 43.265625 74.21875 49.921875 64.515625 
Q 56.59375 54.828125 56.59375 36.375 
Q 56.59375 19.140625 48.40625 8.859375 
Q 40.234375 -1.421875 26.421875 -1.421875 
Q 22.703125 -1.421875 18.890625 -0.6875 
Q 15.09375 0.046875 10.984375 1.515625 
z
M 30.609375 32.421875 
Q 37.25 32.421875 41.125 36.953125 
Q 45.015625 41.5 45.015625 49.421875 
Q 45.015625 57.28125 41.125 61.84375 
Q 37.25 66.40625 30.609375 66.40625 
Q 23.96875 66.40625 20.09375 61.84375 
Q 16.21875 57.28125 16.21875 49.421875 
Q 16.21875 41.5 20.09375 36.953125 
Q 23.96875 32.421875 30.609375 32.421875 
z
" id="DejaVuSans-57"/>
     <path d="M 37.796875 64.3125 
L 12.890625 25.390625 
L 37.796875 25.390625 
z
M 35.203125 72.90625 
L 47.609375 72.90625 
L 47.609375 25.390625 
L 58.015625 25.390625 
L 58.015625 17.1875 
L 47.609375 17.1875 
L 47.609375 0 
L 37.796875 0 
L 37.796875 17.1875 
L 4.890625 17.1875 
L 4.890625 26.703125 
z
" id="DejaVuSans-52"/>
    </defs>
    <g style="fill:#ff0000;" transform="translate(15.5712 183.556515)scale(0.08 -0.08)">
     <use xlink:href="#DejaVuSans-50"/>
     <use x="63.623047" xlink:href="#DejaVuSans-50"/>
     <use x="127.246094" xlink:href="#DejaVuSans-57"/>
     <use x="190.869141" xlink:href="#DejaVuSans-52"/>
    </g>
   </g>
   <g id="text_11">
    <!-- 22549 -->
    <g style="fill:#008000;" transform="translate(15.5712 137.0957)scale(0.08 -0.08)">
     <use xlink:href="#DejaVuSans-50"/>
     <use x="63.623047" xlink:href="#DejaVuSans-50"/>
     <use x="127.246094" xlink:href="#DejaVuSans-53"/>
     <use x="190.869141" xlink:href="#DejaVuSans-52"/>
     <use x="254.492188" xlink:href="#DejaVuSans-57"/>
    </g>
   </g>
   <g id="text_12">
    <!-- COVID-19 Cases, Recoveries &amp; Deaths Graph -->
    <defs>
     <path d="M 64.40625 67.28125 
L 64.40625 56.890625 
Q 59.421875 61.53125 53.78125 63.8125 
Q 48.140625 66.109375 41.796875 66.109375 
Q 29.296875 66.109375 22.65625 58.46875 
Q 16.015625 50.828125 16.015625 36.375 
Q 16.015625 21.96875 22.65625 14.328125 
Q 29.296875 6.6875 41.796875 6.6875 
Q 48.140625 6.6875 53.78125 8.984375 
Q 59.421875 11.28125 64.40625 15.921875 
L 64.40625 5.609375 
Q 59.234375 2.09375 53.4375 0.328125 
Q 47.65625 -1.421875 41.21875 -1.421875 
Q 24.65625 -1.421875 15.125 8.703125 
Q 5.609375 18.84375 5.609375 36.375 
Q 5.609375 53.953125 15.125 64.078125 
Q 24.65625 74.21875 41.21875 74.21875 
Q 47.75 74.21875 53.53125 72.484375 
Q 59.328125 70.75 64.40625 67.28125 
z
" id="DejaVuSans-67"/>
     <path d="M 39.40625 66.21875 
Q 28.65625 66.21875 22.328125 58.203125 
Q 16.015625 50.203125 16.015625 36.375 
Q 16.015625 22.609375 22.328125 14.59375 
Q 28.65625 6.59375 39.40625 6.59375 
Q 50.140625 6.59375 56.421875 14.59375 
Q 62.703125 22.609375 62.703125 36.375 
Q 62.703125 50.203125 56.421875 58.203125 
Q 50.140625 66.21875 39.40625 66.21875 
z
M 39.40625 74.21875 
Q 54.734375 74.21875 63.90625 63.9375 
Q 73.09375 53.65625 73.09375 36.375 
Q 73.09375 19.140625 63.90625 8.859375 
Q 54.734375 -1.421875 39.40625 -1.421875 
Q 24.03125 -1.421875 14.8125 8.828125 
Q 5.609375 19.09375 5.609375 36.375 
Q 5.609375 53.65625 14.8125 63.9375 
Q 24.03125 74.21875 39.40625 74.21875 
z
" id="DejaVuSans-79"/>
     <path d="M 28.609375 0 
L 0.78125 72.90625 
L 11.078125 72.90625 
L 34.1875 11.53125 
L 57.328125 72.90625 
L 67.578125 72.90625 
L 39.796875 0 
z
" id="DejaVuSans-86"/>
     <path d="M 9.8125 72.90625 
L 19.671875 72.90625 
L 19.671875 0 
L 9.8125 0 
z
" id="DejaVuSans-73"/>
     <path d="M 19.671875 64.796875 
L 19.671875 8.109375 
L 31.59375 8.109375 
Q 46.6875 8.109375 53.6875 14.9375 
Q 60.6875 21.78125 60.6875 36.53125 
Q 60.6875 51.171875 53.6875 57.984375 
Q 46.6875 64.796875 31.59375 64.796875 
z
M 9.8125 72.90625 
L 30.078125 72.90625 
Q 51.265625 72.90625 61.171875 64.09375 
Q 71.09375 55.28125 71.09375 36.53125 
Q 71.09375 17.671875 61.125 8.828125 
Q 51.171875 0 30.078125 0 
L 9.8125 0 
z
" id="DejaVuSans-68"/>
     <path d="M 4.890625 31.390625 
L 31.203125 31.390625 
L 31.203125 23.390625 
L 4.890625 23.390625 
z
" id="DejaVuSans-45"/>
     <path d="M 44.28125 53.078125 
L 44.28125 44.578125 
Q 40.484375 46.53125 36.375 47.5 
Q 32.28125 48.484375 27.875 48.484375 
Q 21.1875 48.484375 17.84375 46.4375 
Q 14.5 44.390625 14.5 40.28125 
Q 14.5 37.15625 16.890625 35.375 
Q 19.28125 33.59375 26.515625 31.984375 
L 29.59375 31.296875 
Q 39.15625 29.25 43.1875 25.515625 
Q 47.21875 21.78125 47.21875 15.09375 
Q 47.21875 7.46875 41.1875 3.015625 
Q 35.15625 -1.421875 24.609375 -1.421875 
Q 20.21875 -1.421875 15.453125 -0.5625 
Q 10.6875 0.296875 5.421875 2 
L 5.421875 11.28125 
Q 10.40625 8.6875 15.234375 7.390625 
Q 20.0625 6.109375 24.8125 6.109375 
Q 31.15625 6.109375 34.5625 8.28125 
Q 37.984375 10.453125 37.984375 14.40625 
Q 37.984375 18.0625 35.515625 20.015625 
Q 33.0625 21.96875 24.703125 23.78125 
L 21.578125 24.515625 
Q 13.234375 26.265625 9.515625 29.90625 
Q 5.8125 33.546875 5.8125 39.890625 
Q 5.8125 47.609375 11.28125 51.796875 
Q 16.75 56 26.8125 56 
Q 31.78125 56 36.171875 55.265625 
Q 40.578125 54.546875 44.28125 53.078125 
z
" id="DejaVuSans-115"/>
     <path d="M 11.71875 12.40625 
L 22.015625 12.40625 
L 22.015625 4 
L 14.015625 -11.625 
L 7.71875 -11.625 
L 11.71875 4 
z
" id="DejaVuSans-44"/>
     <path d="M 44.390625 34.1875 
Q 47.5625 33.109375 50.5625 29.59375 
Q 53.5625 26.078125 56.59375 19.921875 
L 66.609375 0 
L 56 0 
L 46.6875 18.703125 
Q 43.0625 26.03125 39.671875 28.421875 
Q 36.28125 30.8125 30.421875 30.8125 
L 19.671875 30.8125 
L 19.671875 0 
L 9.8125 0 
L 9.8125 72.90625 
L 32.078125 72.90625 
Q 44.578125 72.90625 50.734375 67.671875 
Q 56.890625 62.453125 56.890625 51.90625 
Q 56.890625 45.015625 53.6875 40.46875 
Q 50.484375 35.9375 44.390625 34.1875 
z
M 19.671875 64.796875 
L 19.671875 38.921875 
L 32.078125 38.921875 
Q 39.203125 38.921875 42.84375 42.21875 
Q 46.484375 45.515625 46.484375 51.90625 
Q 46.484375 58.296875 42.84375 61.546875 
Q 39.203125 64.796875 32.078125 64.796875 
z
" id="DejaVuSans-82"/>
     <path d="M 48.78125 52.59375 
L 48.78125 44.1875 
Q 44.96875 46.296875 41.140625 47.34375 
Q 37.3125 48.390625 33.40625 48.390625 
Q 24.65625 48.390625 19.8125 42.84375 
Q 14.984375 37.3125 14.984375 27.296875 
Q 14.984375 17.28125 19.8125 11.734375 
Q 24.65625 6.203125 33.40625 6.203125 
Q 37.3125 6.203125 41.140625 7.25 
Q 44.96875 8.296875 48.78125 10.40625 
L 48.78125 2.09375 
Q 45.015625 0.34375 40.984375 -0.53125 
Q 36.96875 -1.421875 32.421875 -1.421875 
Q 20.0625 -1.421875 12.78125 6.34375 
Q 5.515625 14.109375 5.515625 27.296875 
Q 5.515625 40.671875 12.859375 48.328125 
Q 20.21875 56 33.015625 56 
Q 37.15625 56 41.109375 55.140625 
Q 45.0625 54.296875 48.78125 52.59375 
z
" id="DejaVuSans-99"/>
     <path d="M 30.609375 48.390625 
Q 23.390625 48.390625 19.1875 42.75 
Q 14.984375 37.109375 14.984375 27.296875 
Q 14.984375 17.484375 19.15625 11.84375 
Q 23.34375 6.203125 30.609375 6.203125 
Q 37.796875 6.203125 41.984375 11.859375 
Q 46.1875 17.53125 46.1875 27.296875 
Q 46.1875 37.015625 41.984375 42.703125 
Q 37.796875 48.390625 30.609375 48.390625 
z
M 30.609375 56 
Q 42.328125 56 49.015625 48.375 
Q 55.71875 40.765625 55.71875 27.296875 
Q 55.71875 13.875 49.015625 6.21875 
Q 42.328125 -1.421875 30.609375 -1.421875 
Q 18.84375 -1.421875 12.171875 6.21875 
Q 5.515625 13.875 5.515625 27.296875 
Q 5.515625 40.765625 12.171875 48.375 
Q 18.84375 56 30.609375 56 
z
" id="DejaVuSans-111"/>
     <path d="M 2.984375 54.6875 
L 12.5 54.6875 
L 29.59375 8.796875 
L 46.6875 54.6875 
L 56.203125 54.6875 
L 35.6875 0 
L 23.484375 0 
z
" id="DejaVuSans-118"/>
     <path d="M 9.421875 54.6875 
L 18.40625 54.6875 
L 18.40625 0 
L 9.421875 0 
z
M 9.421875 75.984375 
L 18.40625 75.984375 
L 18.40625 64.59375 
L 9.421875 64.59375 
z
" id="DejaVuSans-105"/>
     <path d="M 24.3125 39.203125 
Q 19.875 35.25 17.796875 31.3125 
Q 15.71875 27.390625 15.71875 23.09375 
Q 15.71875 15.96875 20.890625 11.234375 
Q 26.078125 6.5 33.890625 6.5 
Q 38.53125 6.5 42.578125 8.03125 
Q 46.625 9.578125 50.203125 12.703125 
z
M 31.203125 44.671875 
L 56 19.28125 
Q 58.890625 23.640625 60.5 28.59375 
Q 62.109375 33.546875 62.40625 39.109375 
L 71.484375 39.109375 
Q 70.90625 32.671875 68.359375 26.359375 
Q 65.828125 20.0625 61.28125 13.921875 
L 74.90625 0 
L 62.59375 0 
L 55.609375 7.171875 
Q 50.53125 2.828125 44.96875 0.703125 
Q 39.40625 -1.421875 33.015625 -1.421875 
Q 21.234375 -1.421875 13.765625 5.296875 
Q 6.296875 12.015625 6.296875 22.515625 
Q 6.296875 28.765625 9.5625 34.25 
Q 12.84375 39.75 19.390625 44.578125 
Q 17.046875 47.65625 15.8125 50.703125 
Q 14.59375 53.765625 14.59375 56.6875 
Q 14.59375 64.59375 20.015625 69.40625 
Q 25.4375 74.21875 34.421875 74.21875 
Q 38.484375 74.21875 42.5 73.34375 
Q 46.53125 72.46875 50.6875 70.703125 
L 50.6875 61.8125 
Q 46.4375 64.109375 42.578125 65.296875 
Q 38.71875 66.5 35.40625 66.5 
Q 30.28125 66.5 27.078125 63.78125 
Q 23.875 61.078125 23.875 56.78125 
Q 23.875 54.296875 25.3125 51.78125 
Q 26.765625 49.265625 31.203125 44.671875 
z
" id="DejaVuSans-38"/>
     <path d="M 18.3125 70.21875 
L 18.3125 54.6875 
L 36.8125 54.6875 
L 36.8125 47.703125 
L 18.3125 47.703125 
L 18.3125 18.015625 
Q 18.3125 11.328125 20.140625 9.421875 
Q 21.96875 7.515625 27.59375 7.515625 
L 36.8125 7.515625 
L 36.8125 0 
L 27.59375 0 
Q 17.1875 0 13.234375 3.875 
Q 9.28125 7.765625 9.28125 18.015625 
L 9.28125 47.703125 
L 2.6875 47.703125 
L 2.6875 54.6875 
L 9.28125 54.6875 
L 9.28125 70.21875 
z
" id="DejaVuSans-116"/>
     <path d="M 54.890625 33.015625 
L 54.890625 0 
L 45.90625 0 
L 45.90625 32.71875 
Q 45.90625 40.484375 42.875 44.328125 
Q 39.84375 48.1875 33.796875 48.1875 
Q 26.515625 48.1875 22.3125 43.546875 
Q 18.109375 38.921875 18.109375 30.90625 
L 18.109375 0 
L 9.078125 0 
L 9.078125 75.984375 
L 18.109375 75.984375 
L 18.109375 46.1875 
Q 21.34375 51.125 25.703125 53.5625 
Q 30.078125 56 35.796875 56 
Q 45.21875 56 50.046875 50.171875 
Q 54.890625 44.34375 54.890625 33.015625 
z
" id="DejaVuSans-104"/>
     <path d="M 59.515625 10.40625 
L 59.515625 29.984375 
L 43.40625 29.984375 
L 43.40625 38.09375 
L 69.28125 38.09375 
L 69.28125 6.78125 
Q 63.578125 2.734375 56.6875 0.65625 
Q 49.8125 -1.421875 42 -1.421875 
Q 24.90625 -1.421875 15.25 8.5625 
Q 5.609375 18.5625 5.609375 36.375 
Q 5.609375 54.25 15.25 64.234375 
Q 24.90625 74.21875 42 74.21875 
Q 49.125 74.21875 55.546875 72.453125 
Q 61.96875 70.703125 67.390625 67.28125 
L 67.390625 56.78125 
Q 61.921875 61.421875 55.765625 63.765625 
Q 49.609375 66.109375 42.828125 66.109375 
Q 29.4375 66.109375 22.71875 58.640625 
Q 16.015625 51.171875 16.015625 36.375 
Q 16.015625 21.625 22.71875 14.15625 
Q 29.4375 6.6875 42.828125 6.6875 
Q 48.046875 6.6875 52.140625 7.59375 
Q 56.25 8.5 59.515625 10.40625 
z
" id="DejaVuSans-71"/>
    </defs>
    <g style="fill:#262626;" transform="translate(88.964766 14.038594)scale(0.09 -0.09)">
     <use xlink:href="#DejaVuSans-67"/>
     <use x="69.824219" xlink:href="#DejaVuSans-79"/>
     <use x="146.785156" xlink:href="#DejaVuSans-86"/>
     <use x="215.193359" xlink:href="#DejaVuSans-73"/>
     <use x="244.685547" xlink:href="#DejaVuSans-68"/>
     <use x="321.6875" xlink:href="#DejaVuSans-45"/>
     <use x="357.771484" xlink:href="#DejaVuSans-49"/>
     <use x="421.394531" xlink:href="#DejaVuSans-57"/>
     <use x="485.017578" xlink:href="#DejaVuSans-32"/>
     <use x="516.804688" xlink:href="#DejaVuSans-67"/>
     <use x="586.628906" xlink:href="#DejaVuSans-97"/>
     <use x="647.908203" xlink:href="#DejaVuSans-115"/>
     <use x="700.007812" xlink:href="#DejaVuSans-101"/>
     <use x="761.53125" xlink:href="#DejaVuSans-115"/>
     <use x="813.630859" xlink:href="#DejaVuSans-44"/>
     <use x="845.417969" xlink:href="#DejaVuSans-32"/>
     <use x="877.205078" xlink:href="#DejaVuSans-82"/>
     <use x="942.1875" xlink:href="#DejaVuSans-101"/>
     <use x="1003.710938" xlink:href="#DejaVuSans-99"/>
     <use x="1058.691406" xlink:href="#DejaVuSans-111"/>
     <use x="1119.873047" xlink:href="#DejaVuSans-118"/>
     <use x="1179.052734" xlink:href="#DejaVuSans-101"/>
     <use x="1240.576172" xlink:href="#DejaVuSans-114"/>
     <use x="1281.689453" xlink:href="#DejaVuSans-105"/>
     <use x="1309.472656" xlink:href="#DejaVuSans-101"/>
     <use x="1370.996094" xlink:href="#DejaVuSans-115"/>
     <use x="1423.095703" xlink:href="#DejaVuSans-32"/>
     <use x="1454.882812" xlink:href="#DejaVuSans-38"/>
     <use x="1532.861328" xlink:href="#DejaVuSans-32"/>
     <use x="1564.648438" xlink:href="#DejaVuSans-68"/>
     <use x="1641.650391" xlink:href="#DejaVuSans-101"/>
     <use x="1703.173828" xlink:href="#DejaVuSans-97"/>
     <use x="1764.453125" xlink:href="#DejaVuSans-116"/>
     <use x="1803.662109" xlink:href="#DejaVuSans-104"/>
     <use x="1867.041016" xlink:href="#DejaVuSans-115"/>
     <use x="1919.140625" xlink:href="#DejaVuSans-32"/>
     <use x="1950.927734" xlink:href="#DejaVuSans-71"/>
     <use x="2028.417969" xlink:href="#DejaVuSans-114"/>
     <use x="2069.53125" xlink:href="#DejaVuSans-97"/>
     <use x="2130.810547" xlink:href="#DejaVuSans-112"/>
     <use x="2194.287109" xlink:href="#DejaVuSans-104"/>
    </g>
   </g>
   <g id="legend_1">
    <g id="line2d_28">
     <path d="M 19.92 95.750094 
L 37.52 95.750094 
" style="fill:none;stroke:#ffa500;stroke-linecap:round;stroke-width:1.5;"/>
    </g>
    <g id="line2d_29">
     <g>
      <use style="fill:#ffa500;stroke:#ffffff;stroke-width:0.25;" x="28.72" xlink:href="#m9c44d77967" y="95.750094"/>
     </g>
    </g>
    <g id="text_13">
     <!-- Confirmed Cases -->
     <defs>
      <path d="M 54.890625 33.015625 
L 54.890625 0 
L 45.90625 0 
L 45.90625 32.71875 
Q 45.90625 40.484375 42.875 44.328125 
Q 39.84375 48.1875 33.796875 48.1875 
Q 26.515625 48.1875 22.3125 43.546875 
Q 18.109375 38.921875 18.109375 30.90625 
L 18.109375 0 
L 9.078125 0 
L 9.078125 54.6875 
L 18.109375 54.6875 
L 18.109375 46.1875 
Q 21.34375 51.125 25.703125 53.5625 
Q 30.078125 56 35.796875 56 
Q 45.21875 56 50.046875 50.171875 
Q 54.890625 44.34375 54.890625 33.015625 
z
" id="DejaVuSans-110"/>
      <path d="M 37.109375 75.984375 
L 37.109375 68.5 
L 28.515625 68.5 
Q 23.6875 68.5 21.796875 66.546875 
Q 19.921875 64.59375 19.921875 59.515625 
L 19.921875 54.6875 
L 34.71875 54.6875 
L 34.71875 47.703125 
L 19.921875 47.703125 
L 19.921875 0 
L 10.890625 0 
L 10.890625 47.703125 
L 2.296875 47.703125 
L 2.296875 54.6875 
L 10.890625 54.6875 
L 10.890625 58.5 
Q 10.890625 67.625 15.140625 71.796875 
Q 19.390625 75.984375 28.609375 75.984375 
z
" id="DejaVuSans-102"/>
      <path d="M 52 44.1875 
Q 55.375 50.25 60.0625 53.125 
Q 64.75 56 71.09375 56 
Q 79.640625 56 84.28125 50.015625 
Q 88.921875 44.046875 88.921875 33.015625 
L 88.921875 0 
L 79.890625 0 
L 79.890625 32.71875 
Q 79.890625 40.578125 77.09375 44.375 
Q 74.3125 48.1875 68.609375 48.1875 
Q 61.625 48.1875 57.5625 43.546875 
Q 53.515625 38.921875 53.515625 30.90625 
L 53.515625 0 
L 44.484375 0 
L 44.484375 32.71875 
Q 44.484375 40.625 41.703125 44.40625 
Q 38.921875 48.1875 33.109375 48.1875 
Q 26.21875 48.1875 22.15625 43.53125 
Q 18.109375 38.875 18.109375 30.90625 
L 18.109375 0 
L 9.078125 0 
L 9.078125 54.6875 
L 18.109375 54.6875 
L 18.109375 46.1875 
Q 21.1875 51.21875 25.484375 53.609375 
Q 29.78125 56 35.6875 56 
Q 41.65625 56 45.828125 52.96875 
Q 50 49.953125 52 44.1875 
z
" id="DejaVuSans-109"/>
      <path d="M 45.40625 46.390625 
L 45.40625 75.984375 
L 54.390625 75.984375 
L 54.390625 0 
L 45.40625 0 
L 45.40625 8.203125 
Q 42.578125 3.328125 38.25 0.953125 
Q 33.9375 -1.421875 27.875 -1.421875 
Q 17.96875 -1.421875 11.734375 6.484375 
Q 5.515625 14.40625 5.515625 27.296875 
Q 5.515625 40.1875 11.734375 48.09375 
Q 17.96875 56 27.875 56 
Q 33.9375 56 38.25 53.625 
Q 42.578125 51.265625 45.40625 46.390625 
z
M 14.796875 27.296875 
Q 14.796875 17.390625 18.875 11.75 
Q 22.953125 6.109375 30.078125 6.109375 
Q 37.203125 6.109375 41.296875 11.75 
Q 45.40625 17.390625 45.40625 27.296875 
Q 45.40625 37.203125 41.296875 42.84375 
Q 37.203125 48.484375 30.078125 48.484375 
Q 22.953125 48.484375 18.875 42.84375 
Q 14.796875 37.203125 14.796875 27.296875 
z
" id="DejaVuSans-100"/>
     </defs>
     <g style="fill:#262626;" transform="translate(44.56 98.830094)scale(0.088 -0.088)">
      <use xlink:href="#DejaVuSans-67"/>
      <use x="69.824219" xlink:href="#DejaVuSans-111"/>
      <use x="131.005859" xlink:href="#DejaVuSans-110"/>
      <use x="194.384766" xlink:href="#DejaVuSans-102"/>
      <use x="229.589844" xlink:href="#DejaVuSans-105"/>
      <use x="257.373047" xlink:href="#DejaVuSans-114"/>
      <use x="296.736328" xlink:href="#DejaVuSans-109"/>
      <use x="394.148438" xlink:href="#DejaVuSans-101"/>
      <use x="455.671875" xlink:href="#DejaVuSans-100"/>
      <use x="519.148438" xlink:href="#DejaVuSans-32"/>
      <use x="550.935547" xlink:href="#DejaVuSans-67"/>
      <use x="620.759766" xlink:href="#DejaVuSans-97"/>
      <use x="682.039062" xlink:href="#DejaVuSans-115"/>
      <use x="734.138672" xlink:href="#DejaVuSans-101"/>
      <use x="795.662109" xlink:href="#DejaVuSans-115"/>
     </g>
    </g>
    <g id="line2d_30">
     <path d="M 19.92 108.666844 
L 37.52 108.666844 
" style="fill:none;stroke:#008000;stroke-linecap:round;stroke-width:1.5;"/>
    </g>
    <g id="line2d_31">
     <g>
      <use style="fill:#008000;stroke:#ffffff;stroke-linejoin:miter;stroke-width:0.25;" x="28.72" xlink:href="#meab6aa2301" y="108.666844"/>
     </g>
    </g>
    <g id="text_14">
     <!-- Recoveries -->
     <g style="fill:#262626;" transform="translate(44.56 111.746844)scale(0.088 -0.088)">
      <use xlink:href="#DejaVuSans-82"/>
      <use x="64.982422" xlink:href="#DejaVuSans-101"/>
      <use x="126.505859" xlink:href="#DejaVuSans-99"/>
      <use x="181.486328" xlink:href="#DejaVuSans-111"/>
      <use x="242.667969" xlink:href="#DejaVuSans-118"/>
      <use x="301.847656" xlink:href="#DejaVuSans-101"/>
      <use x="363.371094" xlink:href="#DejaVuSans-114"/>
      <use x="404.484375" xlink:href="#DejaVuSans-105"/>
      <use x="432.267578" xlink:href="#DejaVuSans-101"/>
      <use x="493.791016" xlink:href="#DejaVuSans-115"/>
     </g>
    </g>
    <g id="line2d_32">
     <path d="M 19.92 121.583594 
L 37.52 121.583594 
" style="fill:none;stroke:#ff0000;stroke-linecap:round;stroke-width:1.5;"/>
    </g>
    <g id="line2d_33">
     <g>
      <use style="fill:#ff0000;stroke:#ffffff;stroke-linejoin:miter;stroke-width:0.25;" x="28.72" xlink:href="#m16b95faeb0" y="121.583594"/>
     </g>
    </g>
    <g id="text_15">
     <!-- Deaths -->
     <g style="fill:#262626;" transform="translate(44.56 124.663594)scale(0.088 -0.088)">
      <use xlink:href="#DejaVuSans-68"/>
      <use x="77.001953" xlink:href="#DejaVuSans-101"/>
      <use x="138.525391" xlink:href="#DejaVuSans-97"/>
      <use x="199.804688" xlink:href="#DejaVuSans-116"/>
      <use x="239.013672" xlink:href="#DejaVuSans-104"/>
      <use x="302.392578" xlink:href="#DejaVuSans-115"/>
     </g>
    </g>
   </g>
  </g>
 </g>
 <defs>
  <clipPath id="p4362c6db6f">
   <rect height="178.56" width="357.12" x="12" y="20.038594"/>
  </clipPath>
 </defs>
</svg>
