<?xml version="1.0" encoding="utf-8" standalone="no"?>
<!DOCTYPE svg PUBLIC "-//W3C//DTD SVG 1.1//EN"
  "http://www.w3.org/Graphics/SVG/1.1/DTD/svg11.dtd">
<!-- Created with matplotlib (https://matplotlib.org/) -->
<svg height="214.137656pt" version="1.1" viewBox="0 0 376.32 214.137656" width="376.32pt" xmlns="http://www.w3.org/2000/svg" xmlns:xlink="http://www.w3.org/1999/xlink">
 <defs>
  <style type="text/css">
*{stroke-linecap:butt;stroke-linejoin:round;}
  </style>
 </defs>
 <g id="figure_1">
  <g id="patch_1">
   <path d="M 0 214.137656 
L 376.32 214.137656 
L 376.32 0 
L 0 0 
z
" style="fill:#ffffff;"/>
  </g>
  <g id="axes_1">
   <g id="patch_2">
    <path d="M 12 198.598594 
L 369.12 198.598594 
L 369.12 20.038594 
L 12 20.038594 
z
" style="fill:#ffffff;"/>
   </g>
   <g id="matplotlib.axis_1">
    <g id="xtick_1">
     <g id="line2d_1">
      <path clip-path="url(#p16280fa013)" d="M 56.463557 198.598594 
L 56.463557 20.038594 
" style="fill:none;stroke:#f3f3f3;stroke-dasharray:0.5,0.825;stroke-dashoffset:0;stroke-width:0.5;"/>
     </g>
     <g id="line2d_2">
      <defs>
       <path d="M 0 0 
L 0 -3 
" id="m12bd234fa0" style="stroke:#262626;stroke-width:0.5;"/>
      </defs>
      <g>
       <use style="fill:#262626;stroke:#262626;stroke-width:0.5;" x="56.463557" xlink:href="#m12bd234fa0" y="198.598594"/>
      </g>
     </g>
     <g id="text_1">
      <!-- 01 Feb -->
      <defs>
       <path d="M 31.78125 66.40625 
Q 24.171875 66.40625 20.328125 58.90625 
Q 16.5 51.421875 16.5 36.375 
Q 16.5 21.390625 20.328125 13.890625 
Q 24.171875 6.390625 31.78125 6.390625 
Q 39.453125 6.390625 43.28125 13.890625 
Q 47.125 21.390625 47.125 36.375 
Q 47.125 51.421875 43.28125 58.90625 
Q 39.453125 66.40625 31.78125 66.40625 
z
M 31.78125 74.21875 
Q 44.046875 74.21875 50.515625 64.515625 
Q 56.984375 54.828125 56.984375 36.375 
Q 56.984375 17.96875 50.515625 8.265625 
Q 44.046875 -1.421875 31.78125 -1.421875 
Q 19.53125 -1.421875 13.0625 8.265625 
Q 6.59375 17.96875 6.59375 36.375 
Q 6.59375 54.828125 13.0625 64.515625 
Q 19.53125 74.21875 31.78125 74.21875 
z
" id="DejaVuSans-48"/>
       <path d="M 12.40625 8.296875 
L 28.515625 8.296875 
L 28.515625 63.921875 
L 10.984375 60.40625 
L 10.984375 69.390625 
L 28.421875 72.90625 
L 38.28125 72.90625 
L 38.28125 8.296875 
L 54.390625 8.296875 
L 54.390625 0 
L 12.40625 0 
z
" id="DejaVuSans-49"/>
       <path id="DejaVuSans-32"/>
       <path d="M 9.8125 72.90625 
L 51.703125 72.90625 
L 51.703125 64.59375 
L 19.671875 64.59375 
L 19.671875 43.109375 
L 48.578125 43.109375 
L 48.578125 34.8125 
L 19.671875 34.8125 
L 19.671875 0 
L 9.8125 0 
z
" id="DejaVuSans-70"/>
       <path d="M 56.203125 29.59375 
L 56.203125 25.203125 
L 14.890625 25.203125 
Q 15.484375 15.921875 20.484375 11.0625 
Q 25.484375 6.203125 34.421875 6.203125 
Q 39.59375 6.203125 44.453125 7.46875 
Q 49.3125 8.734375 54.109375 11.28125 
L 54.109375 2.78125 
Q 49.265625 0.734375 44.1875 -0.34375 
Q 39.109375 -1.421875 33.890625 -1.421875 
Q 20.796875 -1.421875 13.15625 6.1875 
Q 5.515625 13.8125 5.515625 26.8125 
Q 5.515625 40.234375 12.765625 48.109375 
Q 20.015625 56 32.328125 56 
Q 43.359375 56 49.78125 48.890625 
Q 56.203125 41.796875 56.203125 29.59375 
z
M 47.21875 32.234375 
Q 47.125 39.59375 43.09375 43.984375 
Q 39.0625 48.390625 32.421875 48.390625 
Q 24.90625 48.390625 20.390625 44.140625 
Q 15.875 39.890625 15.1875 32.171875 
z
" id="DejaVuSans-101"/>
       <path d="M 48.6875 27.296875 
Q 48.6875 37.203125 44.609375 42.84375 
Q 40.53125 48.484375 33.40625 48.484375 
Q 26.265625 48.484375 22.1875 42.84375 
Q 18.109375 37.203125 18.109375 27.296875 
Q 18.109375 17.390625 22.1875 11.75 
Q 26.265625 6.109375 33.40625 6.109375 
Q 40.53125 6.109375 44.609375 11.75 
Q 48.6875 17.390625 48.6875 27.296875 
z
M 18.109375 46.390625 
Q 20.953125 51.265625 25.265625 53.625 
Q 29.59375 56 35.59375 56 
Q 45.5625 56 51.78125 48.09375 
Q 58.015625 40.1875 58.015625 27.296875 
Q 58.015625 14.40625 51.78125 6.484375 
Q 45.5625 -1.421875 35.59375 -1.421875 
Q 29.59375 -1.421875 25.265625 0.953125 
Q 20.953125 3.328125 18.109375 8.203125 
L 18.109375 0 
L 9.078125 0 
L 9.078125 75.984375 
L 18.109375 75.984375 
z
" id="DejaVuSans-98"/>
      </defs>
      <g style="fill:#262626;" transform="translate(48.061995 205.897812)scale(0.05 -0.05)">
       <use xlink:href="#DejaVuSans-48"/>
       <use x="63.623047" xlink:href="#DejaVuSans-49"/>
       <use x="127.246094" xlink:href="#DejaVuSans-32"/>
       <use x="159.033203" xlink:href="#DejaVuSans-70"/>
       <use x="211.052734" xlink:href="#DejaVuSans-101"/>
       <use x="272.576172" xlink:href="#DejaVuSans-98"/>
      </g>
     </g>
    </g>
    <g id="xtick_2">
     <g id="line2d_3">
      <path clip-path="url(#p16280fa013)" d="M 95.986719 198.598594 
L 95.986719 20.038594 
" style="fill:none;stroke:#f3f3f3;stroke-dasharray:0.5,0.825;stroke-dashoffset:0;stroke-width:0.5;"/>
     </g>
     <g id="line2d_4">
      <g>
       <use style="fill:#262626;stroke:#262626;stroke-width:0.5;" x="95.986719" xlink:href="#m12bd234fa0" y="198.598594"/>
      </g>
     </g>
     <g id="text_2">
      <!-- 15 Feb -->
      <defs>
       <path d="M 10.796875 72.90625 
L 49.515625 72.90625 
L 49.515625 64.59375 
L 19.828125 64.59375 
L 19.828125 46.734375 
Q 21.96875 47.46875 24.109375 47.828125 
Q 26.265625 48.1875 28.421875 48.1875 
Q 40.625 48.1875 47.75 41.5 
Q 54.890625 34.8125 54.890625 23.390625 
Q 54.890625 11.625 47.5625 5.09375 
Q 40.234375 -1.421875 26.90625 -1.421875 
Q 22.3125 -1.421875 17.546875 -0.640625 
Q 12.796875 0.140625 7.71875 1.703125 
L 7.71875 11.625 
Q 12.109375 9.234375 16.796875 8.0625 
Q 21.484375 6.890625 26.703125 6.890625 
Q 35.15625 6.890625 40.078125 11.328125 
Q 45.015625 15.765625 45.015625 23.390625 
Q 45.015625 31 40.078125 35.4375 
Q 35.15625 39.890625 26.703125 39.890625 
Q 22.75 39.890625 18.8125 39.015625 
Q 14.890625 38.140625 10.796875 36.28125 
z
" id="DejaVuSans-53"/>
      </defs>
      <g style="fill:#262626;" transform="translate(87.585157 205.897812)scale(0.05 -0.05)">
       <use xlink:href="#DejaVuSans-49"/>
       <use x="63.623047" xlink:href="#DejaVuSans-53"/>
       <use x="127.246094" xlink:href="#DejaVuSans-32"/>
       <use x="159.033203" xlink:href="#DejaVuSans-70"/>
       <use x="211.052734" xlink:href="#DejaVuSans-101"/>
       <use x="272.576172" xlink:href="#DejaVuSans-98"/>
      </g>
     </g>
    </g>
    <g id="xtick_3">
     <g id="line2d_5">
      <path clip-path="url(#p16280fa013)" d="M 138.332964 198.598594 
L 138.332964 20.038594 
" style="fill:none;stroke:#f3f3f3;stroke-dasharray:0.5,0.825;stroke-dashoffset:0;stroke-width:0.5;"/>
     </g>
     <g id="line2d_6">
      <g>
       <use style="fill:#262626;stroke:#262626;stroke-width:0.5;" x="138.332964" xlink:href="#m12bd234fa0" y="198.598594"/>
      </g>
     </g>
     <g id="text_3">
      <!-- 01 Mar -->
      <defs>
       <path d="M 9.8125 72.90625 
L 24.515625 72.90625 
L 43.109375 23.296875 
L 61.8125 72.90625 
L 76.515625 72.90625 
L 76.515625 0 
L 66.890625 0 
L 66.890625 64.015625 
L 48.09375 14.015625 
L 38.1875 14.015625 
L 19.390625 64.015625 
L 19.390625 0 
L 9.8125 0 
z
" id="DejaVuSans-77"/>
       <path d="M 34.28125 27.484375 
Q 23.390625 27.484375 19.1875 25 
Q 14.984375 22.515625 14.984375 16.5 
Q 14.984375 11.71875 18.140625 8.90625 
Q 21.296875 6.109375 26.703125 6.109375 
Q 34.1875 6.109375 38.703125 11.40625 
Q 43.21875 16.703125 43.21875 25.484375 
L 43.21875 27.484375 
z
M 52.203125 31.203125 
L 52.203125 0 
L 43.21875 0 
L 43.21875 8.296875 
Q 40.140625 3.328125 35.546875 0.953125 
Q 30.953125 -1.421875 24.3125 -1.421875 
Q 15.921875 -1.421875 10.953125 3.296875 
Q 6 8.015625 6 15.921875 
Q 6 25.140625 12.171875 29.828125 
Q 18.359375 34.515625 30.609375 34.515625 
L 43.21875 34.515625 
L 43.21875 35.40625 
Q 43.21875 41.609375 39.140625 45 
Q 35.0625 48.390625 27.6875 48.390625 
Q 23 48.390625 18.546875 47.265625 
Q 14.109375 46.140625 10.015625 43.890625 
L 10.015625 52.203125 
Q 14.9375 54.109375 19.578125 55.046875 
Q 24.21875 56 28.609375 56 
Q 40.484375 56 46.34375 49.84375 
Q 52.203125 43.703125 52.203125 31.203125 
z
" id="DejaVuSans-97"/>
       <path d="M 41.109375 46.296875 
Q 39.59375 47.171875 37.8125 47.578125 
Q 36.03125 48 33.890625 48 
Q 26.265625 48 22.1875 43.046875 
Q 18.109375 38.09375 18.109375 28.8125 
L 18.109375 0 
L 9.078125 0 
L 9.078125 54.6875 
L 18.109375 54.6875 
L 18.109375 46.1875 
Q 20.953125 51.171875 25.484375 53.578125 
Q 30.03125 56 36.53125 56 
Q 37.453125 56 38.578125 55.875 
Q 39.703125 55.765625 41.0625 55.515625 
z
" id="DejaVuSans-114"/>
      </defs>
      <g style="fill:#262626;" transform="translate(129.640386 205.897812)scale(0.05 -0.05)">
       <use xlink:href="#DejaVuSans-48"/>
       <use x="63.623047" xlink:href="#DejaVuSans-49"/>
       <use x="127.246094" xlink:href="#DejaVuSans-32"/>
       <use x="159.033203" xlink:href="#DejaVuSans-77"/>
       <use x="245.3125" xlink:href="#DejaVuSans-97"/>
       <use x="306.591797" xlink:href="#DejaVuSans-114"/>
      </g>
     </g>
    </g>
    <g id="xtick_4">
     <g id="line2d_7">
      <path clip-path="url(#p16280fa013)" d="M 177.856126 198.598594 
L 177.856126 20.038594 
" style="fill:none;stroke:#f3f3f3;stroke-dasharray:0.5,0.825;stroke-dashoffset:0;stroke-width:0.5;"/>
     </g>
     <g id="line2d_8">
      <g>
       <use style="fill:#262626;stroke:#262626;stroke-width:0.5;" x="177.856126" xlink:href="#m12bd234fa0" y="198.598594"/>
      </g>
     </g>
     <g id="text_4">
      <!-- 15 Mar -->
      <g style="fill:#262626;" transform="translate(169.163548 205.897812)scale(0.05 -0.05)">
       <use xlink:href="#DejaVuSans-49"/>
       <use x="63.623047" xlink:href="#DejaVuSans-53"/>
       <use x="127.246094" xlink:href="#DejaVuSans-32"/>
       <use x="159.033203" xlink:href="#DejaVuSans-77"/>
       <use x="245.3125" xlink:href="#DejaVuSans-97"/>
       <use x="306.591797" xlink:href="#DejaVuSans-114"/>
      </g>
     </g>
    </g>
    <g id="xtick_5">
     <g id="line2d_9">
      <path clip-path="url(#p16280fa013)" d="M 225.848538 198.598594 
L 225.848538 20.038594 
" style="fill:none;stroke:#f3f3f3;stroke-dasharray:0.5,0.825;stroke-dashoffset:0;stroke-width:0.5;"/>
     </g>
     <g id="line2d_10">
      <g>
       <use style="fill:#262626;stroke:#262626;stroke-width:0.5;" x="225.848538" xlink:href="#m12bd234fa0" y="198.598594"/>
      </g>
     </g>
     <g id="text_5">
      <!-- 01 Apr -->
      <defs>
       <path d="M 34.1875 63.1875 
L 20.796875 26.90625 
L 47.609375 26.90625 
z
M 28.609375 72.90625 
L 39.796875 72.90625 
L 67.578125 0 
L 57.328125 0 
L 50.6875 18.703125 
L 17.828125 18.703125 
L 11.1875 0 
L 0.78125 0 
z
" id="DejaVuSans-65"/>
       <path d="M 18.109375 8.203125 
L 18.109375 -20.796875 
L 9.078125 -20.796875 
L 9.078125 54.6875 
L 18.109375 54.6875 
L 18.109375 46.390625 
Q 20.953125 51.265625 25.265625 53.625 
Q 29.59375 56 35.59375 56 
Q 45.5625 56 51.78125 48.09375 
Q 58.015625 40.1875 58.015625 27.296875 
Q 58.015625 14.40625 51.78125 6.484375 
Q 45.5625 -1.421875 35.59375 -1.421875 
Q 29.59375 -1.421875 25.265625 0.953125 
Q 20.953125 3.328125 18.109375 8.203125 
z
M 48.6875 27.296875 
Q 48.6875 37.203125 44.609375 42.84375 
Q 40.53125 48.484375 33.40625 48.484375 
Q 26.265625 48.484375 22.1875 42.84375 
Q 18.109375 37.203125 18.109375 27.296875 
Q 18.109375 17.390625 22.1875 11.75 
Q 26.265625 6.109375 33.40625 6.109375 
Q 40.53125 6.109375 44.609375 11.75 
Q 48.6875 17.390625 48.6875 27.296875 
z
" id="DejaVuSans-112"/>
      </defs>
      <g style="fill:#262626;" transform="translate(217.547756 205.897812)scale(0.05 -0.05)">
       <use xlink:href="#DejaVuSans-48"/>
       <use x="63.623047" xlink:href="#DejaVuSans-49"/>
       <use x="127.246094" xlink:href="#DejaVuSans-32"/>
       <use x="159.033203" xlink:href="#DejaVuSans-65"/>
       <use x="227.441406" xlink:href="#DejaVuSans-112"/>
       <use x="290.917969" xlink:href="#DejaVuSans-114"/>
      </g>
     </g>
    </g>
    <g id="xtick_6">
     <g id="line2d_11">
      <path clip-path="url(#p16280fa013)" d="M 265.3717 198.598594 
L 265.3717 20.038594 
" style="fill:none;stroke:#f3f3f3;stroke-dasharray:0.5,0.825;stroke-dashoffset:0;stroke-width:0.5;"/>
     </g>
     <g id="line2d_12">
      <g>
       <use style="fill:#262626;stroke:#262626;stroke-width:0.5;" x="265.3717" xlink:href="#m12bd234fa0" y="198.598594"/>
      </g>
     </g>
     <g id="text_6">
      <!-- 15 Apr -->
      <g style="fill:#262626;" transform="translate(257.070918 205.897812)scale(0.05 -0.05)">
       <use xlink:href="#DejaVuSans-49"/>
       <use x="63.623047" xlink:href="#DejaVuSans-53"/>
       <use x="127.246094" xlink:href="#DejaVuSans-32"/>
       <use x="159.033203" xlink:href="#DejaVuSans-65"/>
       <use x="227.441406" xlink:href="#DejaVuSans-112"/>
       <use x="290.917969" xlink:href="#DejaVuSans-114"/>
      </g>
     </g>
    </g>
    <g id="xtick_7">
     <g id="line2d_13">
      <path clip-path="url(#p16280fa013)" d="M 310.541028 198.598594 
L 310.541028 20.038594 
" style="fill:none;stroke:#f3f3f3;stroke-dasharray:0.5,0.825;stroke-dashoffset:0;stroke-width:0.5;"/>
     </g>
     <g id="line2d_14">
      <g>
       <use style="fill:#262626;stroke:#262626;stroke-width:0.5;" x="310.541028" xlink:href="#m12bd234fa0" y="198.598594"/>
      </g>
     </g>
     <g id="text_7">
      <!-- 01 May -->
      <defs>
       <path d="M 32.171875 -5.078125 
Q 28.375 -14.84375 24.75 -17.8125 
Q 21.140625 -20.796875 15.09375 -20.796875 
L 7.90625 -20.796875 
L 7.90625 -13.28125 
L 13.1875 -13.28125 
Q 16.890625 -13.28125 18.9375 -11.515625 
Q 21 -9.765625 23.484375 -3.21875 
L 25.09375 0.875 
L 2.984375 54.6875 
L 12.5 54.6875 
L 29.59375 11.921875 
L 46.6875 54.6875 
L 56.203125 54.6875 
z
" id="DejaVuSans-121"/>
      </defs>
      <g style="fill:#262626;" transform="translate(301.396496 205.897812)scale(0.05 -0.05)">
       <use xlink:href="#DejaVuSans-48"/>
       <use x="63.623047" xlink:href="#DejaVuSans-49"/>
       <use x="127.246094" xlink:href="#DejaVuSans-32"/>
       <use x="159.033203" xlink:href="#DejaVuSans-77"/>
       <use x="245.3125" xlink:href="#DejaVuSans-97"/>
       <use x="306.591797" xlink:href="#DejaVuSans-121"/>
      </g>
     </g>
    </g>
    <g id="xtick_8">
     <g id="line2d_15">
      <path clip-path="url(#p16280fa013)" d="M 352.887273 198.598594 
L 352.887273 20.038594 
" style="fill:none;stroke:#f3f3f3;stroke-dasharray:0.5,0.825;stroke-dashoffset:0;stroke-width:0.5;"/>
     </g>
     <g id="line2d_16">
      <g>
       <use style="fill:#262626;stroke:#262626;stroke-width:0.5;" x="352.887273" xlink:href="#m12bd234fa0" y="198.598594"/>
      </g>
     </g>
     <g id="text_8">
      <!-- 16 May -->
      <defs>
       <path d="M 33.015625 40.375 
Q 26.375 40.375 22.484375 35.828125 
Q 18.609375 31.296875 18.609375 23.390625 
Q 18.609375 15.53125 22.484375 10.953125 
Q 26.375 6.390625 33.015625 6.390625 
Q 39.65625 6.390625 43.53125 10.953125 
Q 47.40625 15.53125 47.40625 23.390625 
Q 47.40625 31.296875 43.53125 35.828125 
Q 39.65625 40.375 33.015625 40.375 
z
M 52.59375 71.296875 
L 52.59375 62.3125 
Q 48.875 64.0625 45.09375 64.984375 
Q 41.3125 65.921875 37.59375 65.921875 
Q 27.828125 65.921875 22.671875 59.328125 
Q 17.53125 52.734375 16.796875 39.40625 
Q 19.671875 43.65625 24.015625 45.921875 
Q 28.375 48.1875 33.59375 48.1875 
Q 44.578125 48.1875 50.953125 41.515625 
Q 57.328125 34.859375 57.328125 23.390625 
Q 57.328125 12.15625 50.6875 5.359375 
Q 44.046875 -1.421875 33.015625 -1.421875 
Q 20.359375 -1.421875 13.671875 8.265625 
Q 6.984375 17.96875 6.984375 36.375 
Q 6.984375 53.65625 15.1875 63.9375 
Q 23.390625 74.21875 37.203125 74.21875 
Q 40.921875 74.21875 44.703125 73.484375 
Q 48.484375 72.75 52.59375 71.296875 
z
" id="DejaVuSans-54"/>
      </defs>
      <g style="fill:#262626;" transform="translate(343.742741 205.897812)scale(0.05 -0.05)">
       <use xlink:href="#DejaVuSans-49"/>
       <use x="63.623047" xlink:href="#DejaVuSans-54"/>
       <use x="127.246094" xlink:href="#DejaVuSans-32"/>
       <use x="159.033203" xlink:href="#DejaVuSans-77"/>
       <use x="245.3125" xlink:href="#DejaVuSans-97"/>
       <use x="306.591797" xlink:href="#DejaVuSans-121"/>
      </g>
     </g>
    </g>
   </g>
   <g id="line2d_17">
    <path clip-path="url(#p16280fa013)" d="M 28.232727 190.48223 
L 31.05581 190.48223 
L 33.878893 190.48223 
L 36.701976 190.48223 
L 39.525059 190.48223 
L 42.348142 190.48223 
L 45.171225 190.48223 
L 47.994308 190.48223 
L 50.817391 190.480439 
L 53.640474 190.480439 
L 56.463557 190.480439 
L 59.28664 190.478649 
L 62.109723 190.476858 
L 64.932806 190.476858 
L 67.755889 190.476858 
L 70.578972 190.476858 
L 73.402055 190.476858 
L 76.225138 190.476858 
L 79.048221 190.476858 
L 81.871304 190.476858 
L 84.694387 190.476858 
L 87.51747 190.476858 
L 90.340553 190.476858 
L 93.163636 190.476858 
L 95.986719 190.476858 
L 98.809802 190.476858 
L 101.632885 190.476858 
L 104.455968 190.476858 
L 107.279051 190.476858 
L 110.102134 190.476858 
L 112.925217 190.476858 
L 115.7483 190.476858 
L 118.571383 190.476858 
L 121.394466 190.476858 
L 124.217549 190.476858 
L 127.040632 190.476858 
L 129.863715 190.476858 
L 132.686798 190.476858 
L 135.509881 190.476858 
L 138.332964 190.476858 
L 141.156047 190.473276 
L 143.97913 190.473276 
L 146.802213 190.432089 
L 149.625296 190.428508 
L 152.448379 190.426717 
L 155.271462 190.421345 
L 158.094545 190.412391 
L 160.917628 190.405228 
L 163.740711 190.381949 
L 166.563794 190.371204 
L 169.386877 190.351506 
L 172.20996 190.335389 
L 175.033043 190.299574 
L 177.856126 190.279876 
L 180.679209 190.269132 
L 183.502292 190.227945 
L 186.325375 190.202874 
L 189.148458 190.134826 
L 191.971542 190.045289 
L 194.794625 189.891285 
L 197.617708 189.773096 
L 200.440791 189.588649 
L 203.263874 189.522392 
L 206.086957 189.305712 
L 208.91004 189.18036 
L 211.733123 188.893841 
L 214.556206 188.714767 
L 217.379289 188.648509 
L 220.202372 188.242011 
L 223.025455 187.980562 
L 225.848538 186.904326 
L 228.671621 185.928371 
L 231.494704 185.885393 
L 234.317787 184.96316 
L 237.14087 184.057044 
L 239.963953 181.92606 
L 242.787036 180.971594 
L 245.610119 179.888194 
L 248.433202 178.439483 
L 251.256285 176.876165 
L 254.079368 175.357615 
L 256.902451 173.998441 
L 259.725534 171.763593 
L 262.548617 169.911965 
L 265.3717 168.416695 
L 268.194783 166.432551 
L 271.017866 164.781486 
L 273.840949 162.328168 
L 276.664032 158.938292 
L 279.487115 157.283645 
L 282.310198 154.52411 
L 285.133281 152.214052 
L 287.956364 149.157254 
L 290.779447 146.555304 
L 293.60253 143.416131 
L 296.425613 140.538407 
L 299.248696 137.743058 
L 302.071779 134.388996 
L 304.894862 131.276685 
L 307.717945 128.051556 
L 310.541028 123.764518 
L 313.364111 119.391523 
L 316.187194 114.366698 
L 319.010277 107.325497 
L 321.83336 102.019525 
L 324.656443 95.59613 
L 327.479526 89.572071 
L 330.302609 83.583826 
L 333.125692 78.009243 
L 335.948775 70.214139 
L 338.771858 63.754929 
L 341.594941 57.44435 
L 344.418024 50.705784 
L 347.241107 43.646675 
L 350.06419 36.865131 
L 352.887273 28.154957 
" style="fill:none;stroke:#ff0000;stroke-linecap:round;stroke-width:1.5;"/>
    <defs>
     <path d="M 0 1.5 
C 0.397805 1.5 0.77937 1.341951 1.06066 1.06066 
C 1.341951 0.77937 1.5 0.397805 1.5 0 
C 1.5 -0.397805 1.341951 -0.77937 1.06066 -1.06066 
C 0.77937 -1.341951 0.397805 -1.5 0 -1.5 
C -0.397805 -1.5 -0.77937 -1.341951 -1.06066 -1.06066 
C -1.341951 -0.77937 -1.5 -0.397805 -1.5 0 
C -1.5 0.397805 -1.341951 0.77937 -1.06066 1.06066 
C -0.77937 1.341951 -0.397805 1.5 0 1.5 
z
" id="m3109cc1c69" style="stroke:#ffffff;stroke-width:0.25;"/>
    </defs>
    <g clip-path="url(#p16280fa013)">
     <use style="fill:#ff0000;stroke:#ffffff;stroke-width:0.25;" x="28.232727" xlink:href="#m3109cc1c69" y="190.48223"/>
     <use style="fill:#ff0000;stroke:#ffffff;stroke-width:0.25;" x="31.05581" xlink:href="#m3109cc1c69" y="190.48223"/>
     <use style="fill:#ff0000;stroke:#ffffff;stroke-width:0.25;" x="33.878893" xlink:href="#m3109cc1c69" y="190.48223"/>
     <use style="fill:#ff0000;stroke:#ffffff;stroke-width:0.25;" x="36.701976" xlink:href="#m3109cc1c69" y="190.48223"/>
     <use style="fill:#ff0000;stroke:#ffffff;stroke-width:0.25;" x="39.525059" xlink:href="#m3109cc1c69" y="190.48223"/>
     <use style="fill:#ff0000;stroke:#ffffff;stroke-width:0.25;" x="42.348142" xlink:href="#m3109cc1c69" y="190.48223"/>
     <use style="fill:#ff0000;stroke:#ffffff;stroke-width:0.25;" x="45.171225" xlink:href="#m3109cc1c69" y="190.48223"/>
     <use style="fill:#ff0000;stroke:#ffffff;stroke-width:0.25;" x="47.994308" xlink:href="#m3109cc1c69" y="190.48223"/>
     <use style="fill:#ff0000;stroke:#ffffff;stroke-width:0.25;" x="50.817391" xlink:href="#m3109cc1c69" y="190.480439"/>
     <use style="fill:#ff0000;stroke:#ffffff;stroke-width:0.25;" x="53.640474" xlink:href="#m3109cc1c69" y="190.480439"/>
     <use style="fill:#ff0000;stroke:#ffffff;stroke-width:0.25;" x="56.463557" xlink:href="#m3109cc1c69" y="190.480439"/>
     <use style="fill:#ff0000;stroke:#ffffff;stroke-width:0.25;" x="59.28664" xlink:href="#m3109cc1c69" y="190.478649"/>
     <use style="fill:#ff0000;stroke:#ffffff;stroke-width:0.25;" x="62.109723" xlink:href="#m3109cc1c69" y="190.476858"/>
     <use style="fill:#ff0000;stroke:#ffffff;stroke-width:0.25;" x="64.932806" xlink:href="#m3109cc1c69" y="190.476858"/>
     <use style="fill:#ff0000;stroke:#ffffff;stroke-width:0.25;" x="67.755889" xlink:href="#m3109cc1c69" y="190.476858"/>
     <use style="fill:#ff0000;stroke:#ffffff;stroke-width:0.25;" x="70.578972" xlink:href="#m3109cc1c69" y="190.476858"/>
     <use style="fill:#ff0000;stroke:#ffffff;stroke-width:0.25;" x="73.402055" xlink:href="#m3109cc1c69" y="190.476858"/>
     <use style="fill:#ff0000;stroke:#ffffff;stroke-width:0.25;" x="76.225138" xlink:href="#m3109cc1c69" y="190.476858"/>
     <use style="fill:#ff0000;stroke:#ffffff;stroke-width:0.25;" x="79.048221" xlink:href="#m3109cc1c69" y="190.476858"/>
     <use style="fill:#ff0000;stroke:#ffffff;stroke-width:0.25;" x="81.871304" xlink:href="#m3109cc1c69" y="190.476858"/>
     <use style="fill:#ff0000;stroke:#ffffff;stroke-width:0.25;" x="84.694387" xlink:href="#m3109cc1c69" y="190.476858"/>
     <use style="fill:#ff0000;stroke:#ffffff;stroke-width:0.25;" x="87.51747" xlink:href="#m3109cc1c69" y="190.476858"/>
     <use style="fill:#ff0000;stroke:#ffffff;stroke-width:0.25;" x="90.340553" xlink:href="#m3109cc1c69" y="190.476858"/>
     <use style="fill:#ff0000;stroke:#ffffff;stroke-width:0.25;" x="93.163636" xlink:href="#m3109cc1c69" y="190.476858"/>
     <use style="fill:#ff0000;stroke:#ffffff;stroke-width:0.25;" x="95.986719" xlink:href="#m3109cc1c69" y="190.476858"/>
     <use style="fill:#ff0000;stroke:#ffffff;stroke-width:0.25;" x="98.809802" xlink:href="#m3109cc1c69" y="190.476858"/>
     <use style="fill:#ff0000;stroke:#ffffff;stroke-width:0.25;" x="101.632885" xlink:href="#m3109cc1c69" y="190.476858"/>
     <use style="fill:#ff0000;stroke:#ffffff;stroke-width:0.25;" x="104.455968" xlink:href="#m3109cc1c69" y="190.476858"/>
     <use style="fill:#ff0000;stroke:#ffffff;stroke-width:0.25;" x="107.279051" xlink:href="#m3109cc1c69" y="190.476858"/>
     <use style="fill:#ff0000;stroke:#ffffff;stroke-width:0.25;" x="110.102134" xlink:href="#m3109cc1c69" y="190.476858"/>
     <use style="fill:#ff0000;stroke:#ffffff;stroke-width:0.25;" x="112.925217" xlink:href="#m3109cc1c69" y="190.476858"/>
     <use style="fill:#ff0000;stroke:#ffffff;stroke-width:0.25;" x="115.7483" xlink:href="#m3109cc1c69" y="190.476858"/>
     <use style="fill:#ff0000;stroke:#ffffff;stroke-width:0.25;" x="118.571383" xlink:href="#m3109cc1c69" y="190.476858"/>
     <use style="fill:#ff0000;stroke:#ffffff;stroke-width:0.25;" x="121.394466" xlink:href="#m3109cc1c69" y="190.476858"/>
     <use style="fill:#ff0000;stroke:#ffffff;stroke-width:0.25;" x="124.217549" xlink:href="#m3109cc1c69" y="190.476858"/>
     <use style="fill:#ff0000;stroke:#ffffff;stroke-width:0.25;" x="127.040632" xlink:href="#m3109cc1c69" y="190.476858"/>
     <use style="fill:#ff0000;stroke:#ffffff;stroke-width:0.25;" x="129.863715" xlink:href="#m3109cc1c69" y="190.476858"/>
     <use style="fill:#ff0000;stroke:#ffffff;stroke-width:0.25;" x="132.686798" xlink:href="#m3109cc1c69" y="190.476858"/>
     <use style="fill:#ff0000;stroke:#ffffff;stroke-width:0.25;" x="135.509881" xlink:href="#m3109cc1c69" y="190.476858"/>
     <use style="fill:#ff0000;stroke:#ffffff;stroke-width:0.25;" x="138.332964" xlink:href="#m3109cc1c69" y="190.476858"/>
     <use style="fill:#ff0000;stroke:#ffffff;stroke-width:0.25;" x="141.156047" xlink:href="#m3109cc1c69" y="190.473276"/>
     <use style="fill:#ff0000;stroke:#ffffff;stroke-width:0.25;" x="143.97913" xlink:href="#m3109cc1c69" y="190.473276"/>
     <use style="fill:#ff0000;stroke:#ffffff;stroke-width:0.25;" x="146.802213" xlink:href="#m3109cc1c69" y="190.432089"/>
     <use style="fill:#ff0000;stroke:#ffffff;stroke-width:0.25;" x="149.625296" xlink:href="#m3109cc1c69" y="190.428508"/>
     <use style="fill:#ff0000;stroke:#ffffff;stroke-width:0.25;" x="152.448379" xlink:href="#m3109cc1c69" y="190.426717"/>
     <use style="fill:#ff0000;stroke:#ffffff;stroke-width:0.25;" x="155.271462" xlink:href="#m3109cc1c69" y="190.421345"/>
     <use style="fill:#ff0000;stroke:#ffffff;stroke-width:0.25;" x="158.094545" xlink:href="#m3109cc1c69" y="190.412391"/>
     <use style="fill:#ff0000;stroke:#ffffff;stroke-width:0.25;" x="160.917628" xlink:href="#m3109cc1c69" y="190.405228"/>
     <use style="fill:#ff0000;stroke:#ffffff;stroke-width:0.25;" x="163.740711" xlink:href="#m3109cc1c69" y="190.381949"/>
     <use style="fill:#ff0000;stroke:#ffffff;stroke-width:0.25;" x="166.563794" xlink:href="#m3109cc1c69" y="190.371204"/>
     <use style="fill:#ff0000;stroke:#ffffff;stroke-width:0.25;" x="169.386877" xlink:href="#m3109cc1c69" y="190.351506"/>
     <use style="fill:#ff0000;stroke:#ffffff;stroke-width:0.25;" x="172.20996" xlink:href="#m3109cc1c69" y="190.335389"/>
     <use style="fill:#ff0000;stroke:#ffffff;stroke-width:0.25;" x="175.033043" xlink:href="#m3109cc1c69" y="190.299574"/>
     <use style="fill:#ff0000;stroke:#ffffff;stroke-width:0.25;" x="177.856126" xlink:href="#m3109cc1c69" y="190.279876"/>
     <use style="fill:#ff0000;stroke:#ffffff;stroke-width:0.25;" x="180.679209" xlink:href="#m3109cc1c69" y="190.269132"/>
     <use style="fill:#ff0000;stroke:#ffffff;stroke-width:0.25;" x="183.502292" xlink:href="#m3109cc1c69" y="190.227945"/>
     <use style="fill:#ff0000;stroke:#ffffff;stroke-width:0.25;" x="186.325375" xlink:href="#m3109cc1c69" y="190.202874"/>
     <use style="fill:#ff0000;stroke:#ffffff;stroke-width:0.25;" x="189.148458" xlink:href="#m3109cc1c69" y="190.134826"/>
     <use style="fill:#ff0000;stroke:#ffffff;stroke-width:0.25;" x="191.971542" xlink:href="#m3109cc1c69" y="190.045289"/>
     <use style="fill:#ff0000;stroke:#ffffff;stroke-width:0.25;" x="194.794625" xlink:href="#m3109cc1c69" y="189.891285"/>
     <use style="fill:#ff0000;stroke:#ffffff;stroke-width:0.25;" x="197.617708" xlink:href="#m3109cc1c69" y="189.773096"/>
     <use style="fill:#ff0000;stroke:#ffffff;stroke-width:0.25;" x="200.440791" xlink:href="#m3109cc1c69" y="189.588649"/>
     <use style="fill:#ff0000;stroke:#ffffff;stroke-width:0.25;" x="203.263874" xlink:href="#m3109cc1c69" y="189.522392"/>
     <use style="fill:#ff0000;stroke:#ffffff;stroke-width:0.25;" x="206.086957" xlink:href="#m3109cc1c69" y="189.305712"/>
     <use style="fill:#ff0000;stroke:#ffffff;stroke-width:0.25;" x="208.91004" xlink:href="#m3109cc1c69" y="189.18036"/>
     <use style="fill:#ff0000;stroke:#ffffff;stroke-width:0.25;" x="211.733123" xlink:href="#m3109cc1c69" y="188.893841"/>
     <use style="fill:#ff0000;stroke:#ffffff;stroke-width:0.25;" x="214.556206" xlink:href="#m3109cc1c69" y="188.714767"/>
     <use style="fill:#ff0000;stroke:#ffffff;stroke-width:0.25;" x="217.379289" xlink:href="#m3109cc1c69" y="188.648509"/>
     <use style="fill:#ff0000;stroke:#ffffff;stroke-width:0.25;" x="220.202372" xlink:href="#m3109cc1c69" y="188.242011"/>
     <use style="fill:#ff0000;stroke:#ffffff;stroke-width:0.25;" x="223.025455" xlink:href="#m3109cc1c69" y="187.980562"/>
     <use style="fill:#ff0000;stroke:#ffffff;stroke-width:0.25;" x="225.848538" xlink:href="#m3109cc1c69" y="186.904326"/>
     <use style="fill:#ff0000;stroke:#ffffff;stroke-width:0.25;" x="228.671621" xlink:href="#m3109cc1c69" y="185.928371"/>
     <use style="fill:#ff0000;stroke:#ffffff;stroke-width:0.25;" x="231.494704" xlink:href="#m3109cc1c69" y="185.885393"/>
     <use style="fill:#ff0000;stroke:#ffffff;stroke-width:0.25;" x="234.317787" xlink:href="#m3109cc1c69" y="184.96316"/>
     <use style="fill:#ff0000;stroke:#ffffff;stroke-width:0.25;" x="237.14087" xlink:href="#m3109cc1c69" y="184.057044"/>
     <use style="fill:#ff0000;stroke:#ffffff;stroke-width:0.25;" x="239.963953" xlink:href="#m3109cc1c69" y="181.92606"/>
     <use style="fill:#ff0000;stroke:#ffffff;stroke-width:0.25;" x="242.787036" xlink:href="#m3109cc1c69" y="180.971594"/>
     <use style="fill:#ff0000;stroke:#ffffff;stroke-width:0.25;" x="245.610119" xlink:href="#m3109cc1c69" y="179.888194"/>
     <use style="fill:#ff0000;stroke:#ffffff;stroke-width:0.25;" x="248.433202" xlink:href="#m3109cc1c69" y="178.439483"/>
     <use style="fill:#ff0000;stroke:#ffffff;stroke-width:0.25;" x="251.256285" xlink:href="#m3109cc1c69" y="176.876165"/>
     <use style="fill:#ff0000;stroke:#ffffff;stroke-width:0.25;" x="254.079368" xlink:href="#m3109cc1c69" y="175.357615"/>
     <use style="fill:#ff0000;stroke:#ffffff;stroke-width:0.25;" x="256.902451" xlink:href="#m3109cc1c69" y="173.998441"/>
     <use style="fill:#ff0000;stroke:#ffffff;stroke-width:0.25;" x="259.725534" xlink:href="#m3109cc1c69" y="171.763593"/>
     <use style="fill:#ff0000;stroke:#ffffff;stroke-width:0.25;" x="262.548617" xlink:href="#m3109cc1c69" y="169.911965"/>
     <use style="fill:#ff0000;stroke:#ffffff;stroke-width:0.25;" x="265.3717" xlink:href="#m3109cc1c69" y="168.416695"/>
     <use style="fill:#ff0000;stroke:#ffffff;stroke-width:0.25;" x="268.194783" xlink:href="#m3109cc1c69" y="166.432551"/>
     <use style="fill:#ff0000;stroke:#ffffff;stroke-width:0.25;" x="271.017866" xlink:href="#m3109cc1c69" y="164.781486"/>
     <use style="fill:#ff0000;stroke:#ffffff;stroke-width:0.25;" x="273.840949" xlink:href="#m3109cc1c69" y="162.328168"/>
     <use style="fill:#ff0000;stroke:#ffffff;stroke-width:0.25;" x="276.664032" xlink:href="#m3109cc1c69" y="158.938292"/>
     <use style="fill:#ff0000;stroke:#ffffff;stroke-width:0.25;" x="279.487115" xlink:href="#m3109cc1c69" y="157.283645"/>
     <use style="fill:#ff0000;stroke:#ffffff;stroke-width:0.25;" x="282.310198" xlink:href="#m3109cc1c69" y="154.52411"/>
     <use style="fill:#ff0000;stroke:#ffffff;stroke-width:0.25;" x="285.133281" xlink:href="#m3109cc1c69" y="152.214052"/>
     <use style="fill:#ff0000;stroke:#ffffff;stroke-width:0.25;" x="287.956364" xlink:href="#m3109cc1c69" y="149.157254"/>
     <use style="fill:#ff0000;stroke:#ffffff;stroke-width:0.25;" x="290.779447" xlink:href="#m3109cc1c69" y="146.555304"/>
     <use style="fill:#ff0000;stroke:#ffffff;stroke-width:0.25;" x="293.60253" xlink:href="#m3109cc1c69" y="143.416131"/>
     <use style="fill:#ff0000;stroke:#ffffff;stroke-width:0.25;" x="296.425613" xlink:href="#m3109cc1c69" y="140.538407"/>
     <use style="fill:#ff0000;stroke:#ffffff;stroke-width:0.25;" x="299.248696" xlink:href="#m3109cc1c69" y="137.743058"/>
     <use style="fill:#ff0000;stroke:#ffffff;stroke-width:0.25;" x="302.071779" xlink:href="#m3109cc1c69" y="134.388996"/>
     <use style="fill:#ff0000;stroke:#ffffff;stroke-width:0.25;" x="304.894862" xlink:href="#m3109cc1c69" y="131.276685"/>
     <use style="fill:#ff0000;stroke:#ffffff;stroke-width:0.25;" x="307.717945" xlink:href="#m3109cc1c69" y="128.051556"/>
     <use style="fill:#ff0000;stroke:#ffffff;stroke-width:0.25;" x="310.541028" xlink:href="#m3109cc1c69" y="123.764518"/>
     <use style="fill:#ff0000;stroke:#ffffff;stroke-width:0.25;" x="313.364111" xlink:href="#m3109cc1c69" y="119.391523"/>
     <use style="fill:#ff0000;stroke:#ffffff;stroke-width:0.25;" x="316.187194" xlink:href="#m3109cc1c69" y="114.366698"/>
     <use style="fill:#ff0000;stroke:#ffffff;stroke-width:0.25;" x="319.010277" xlink:href="#m3109cc1c69" y="107.325497"/>
     <use style="fill:#ff0000;stroke:#ffffff;stroke-width:0.25;" x="321.83336" xlink:href="#m3109cc1c69" y="102.019525"/>
     <use style="fill:#ff0000;stroke:#ffffff;stroke-width:0.25;" x="324.656443" xlink:href="#m3109cc1c69" y="95.59613"/>
     <use style="fill:#ff0000;stroke:#ffffff;stroke-width:0.25;" x="327.479526" xlink:href="#m3109cc1c69" y="89.572071"/>
     <use style="fill:#ff0000;stroke:#ffffff;stroke-width:0.25;" x="330.302609" xlink:href="#m3109cc1c69" y="83.583826"/>
     <use style="fill:#ff0000;stroke:#ffffff;stroke-width:0.25;" x="333.125692" xlink:href="#m3109cc1c69" y="78.009243"/>
     <use style="fill:#ff0000;stroke:#ffffff;stroke-width:0.25;" x="335.948775" xlink:href="#m3109cc1c69" y="70.214139"/>
     <use style="fill:#ff0000;stroke:#ffffff;stroke-width:0.25;" x="338.771858" xlink:href="#m3109cc1c69" y="63.754929"/>
     <use style="fill:#ff0000;stroke:#ffffff;stroke-width:0.25;" x="341.594941" xlink:href="#m3109cc1c69" y="57.44435"/>
     <use style="fill:#ff0000;stroke:#ffffff;stroke-width:0.25;" x="344.418024" xlink:href="#m3109cc1c69" y="50.705784"/>
     <use style="fill:#ff0000;stroke:#ffffff;stroke-width:0.25;" x="347.241107" xlink:href="#m3109cc1c69" y="43.646675"/>
     <use style="fill:#ff0000;stroke:#ffffff;stroke-width:0.25;" x="350.06419" xlink:href="#m3109cc1c69" y="36.865131"/>
     <use style="fill:#ff0000;stroke:#ffffff;stroke-width:0.25;" x="352.887273" xlink:href="#m3109cc1c69" y="28.154957"/>
    </g>
   </g>
   <g id="line2d_18">
    <path clip-path="url(#p16280fa013)" d="M 28.232727 190.48223 
L 31.05581 190.48223 
L 33.878893 190.48223 
L 36.701976 190.48223 
L 39.525059 190.48223 
L 42.348142 190.48223 
L 45.171225 190.48223 
L 47.994308 190.48223 
L 50.817391 190.48223 
L 53.640474 190.48223 
L 56.463557 190.48223 
L 59.28664 190.48223 
L 62.109723 190.48223 
L 64.932806 190.48223 
L 67.755889 190.48223 
L 70.578972 190.48223 
L 73.402055 190.48223 
L 76.225138 190.48223 
L 79.048221 190.48223 
L 81.871304 190.48223 
L 84.694387 190.48223 
L 87.51747 190.48223 
L 90.340553 190.48223 
L 93.163636 190.48223 
L 95.986719 190.48223 
L 98.809802 190.476858 
L 101.632885 190.476858 
L 104.455968 190.476858 
L 107.279051 190.476858 
L 110.102134 190.476858 
L 112.925217 190.476858 
L 115.7483 190.476858 
L 118.571383 190.476858 
L 121.394466 190.476858 
L 124.217549 190.476858 
L 127.040632 190.476858 
L 129.863715 190.476858 
L 132.686798 190.476858 
L 135.509881 190.476858 
L 138.332964 190.476858 
L 141.156047 190.476858 
L 143.97913 190.476858 
L 146.802213 190.476858 
L 149.625296 190.476858 
L 152.448379 190.476858 
L 155.271462 190.476858 
L 158.094545 190.476858 
L 160.917628 190.476858 
L 163.740711 190.475067 
L 166.563794 190.475067 
L 169.386877 190.475067 
L 172.20996 190.475067 
L 175.033043 190.475067 
L 177.856126 190.45895 
L 180.679209 190.45895 
L 183.502292 190.45716 
L 186.325375 190.45716 
L 189.148458 190.455369 
L 191.971542 190.446415 
L 194.794625 190.441043 
L 197.617708 190.43388 
L 200.440791 190.43388 
L 203.263874 190.4106 
L 206.086957 190.405228 
L 208.91004 190.401647 
L 211.733123 190.351506 
L 214.556206 190.331808 
L 217.379289 190.31211 
L 220.202372 190.299574 
L 223.025455 190.261969 
L 225.848538 190.2172 
L 228.671621 190.140198 
L 231.494704 190.138407 
L 234.317787 190.07215 
L 237.14087 190.07215 
L 239.963953 189.810701 
L 242.787036 189.728327 
L 245.610119 189.576114 
L 248.433202 189.371969 
L 251.256285 189.096195 
L 254.079368 188.747 
L 256.902451 188.548228 
L 259.725534 188.367363 
L 262.548617 188.04861 
L 265.3717 187.917886 
L 268.194783 187.316196 
L 271.017866 186.827324 
L 273.840949 186.07163 
L 276.664032 185.37145 
L 279.487115 184.621128 
L 282.310198 183.364027 
L 285.133281 182.656683 
L 287.956364 181.507026 
L 290.779447 180.636725 
L 293.60253 179.847007 
L 296.425613 178.801213 
L 299.248696 177.701697 
L 302.071779 176.609344 
L 304.894862 175.373731 
L 307.717945 174.243772 
L 310.541028 172.562265 
L 313.364111 171.108181 
L 316.187194 169.396231 
L 319.010277 167.476555 
L 321.83336 165.157542 
L 324.656443 163.028349 
L 327.479526 160.440725 
L 330.302609 158.45121 
L 333.125692 155.919099 
L 335.948775 152.93214 
L 338.771858 150.102766 
L 341.594941 146.752286 
L 344.418024 143.206615 
L 347.241107 140.396939 
L 350.06419 136.297928 
L 352.887273 129.195841 
" style="fill:none;stroke:#008000;stroke-linecap:round;stroke-width:1.5;"/>
    <defs>
     <path d="M -0 2.12132 
L 1.272792 0 
L 0 -2.12132 
L -1.272792 -0 
z
" id="m0ab80e8c47" style="stroke:#ffffff;stroke-linejoin:miter;stroke-width:0.25;"/>
    </defs>
    <g clip-path="url(#p16280fa013)">
     <use style="fill:#008000;stroke:#ffffff;stroke-linejoin:miter;stroke-width:0.25;" x="28.232727" xlink:href="#m0ab80e8c47" y="190.48223"/>
     <use style="fill:#008000;stroke:#ffffff;stroke-linejoin:miter;stroke-width:0.25;" x="31.05581" xlink:href="#m0ab80e8c47" y="190.48223"/>
     <use style="fill:#008000;stroke:#ffffff;stroke-linejoin:miter;stroke-width:0.25;" x="33.878893" xlink:href="#m0ab80e8c47" y="190.48223"/>
     <use style="fill:#008000;stroke:#ffffff;stroke-linejoin:miter;stroke-width:0.25;" x="36.701976" xlink:href="#m0ab80e8c47" y="190.48223"/>
     <use style="fill:#008000;stroke:#ffffff;stroke-linejoin:miter;stroke-width:0.25;" x="39.525059" xlink:href="#m0ab80e8c47" y="190.48223"/>
     <use style="fill:#008000;stroke:#ffffff;stroke-linejoin:miter;stroke-width:0.25;" x="42.348142" xlink:href="#m0ab80e8c47" y="190.48223"/>
     <use style="fill:#008000;stroke:#ffffff;stroke-linejoin:miter;stroke-width:0.25;" x="45.171225" xlink:href="#m0ab80e8c47" y="190.48223"/>
     <use style="fill:#008000;stroke:#ffffff;stroke-linejoin:miter;stroke-width:0.25;" x="47.994308" xlink:href="#m0ab80e8c47" y="190.48223"/>
     <use style="fill:#008000;stroke:#ffffff;stroke-linejoin:miter;stroke-width:0.25;" x="50.817391" xlink:href="#m0ab80e8c47" y="190.48223"/>
     <use style="fill:#008000;stroke:#ffffff;stroke-linejoin:miter;stroke-width:0.25;" x="53.640474" xlink:href="#m0ab80e8c47" y="190.48223"/>
     <use style="fill:#008000;stroke:#ffffff;stroke-linejoin:miter;stroke-width:0.25;" x="56.463557" xlink:href="#m0ab80e8c47" y="190.48223"/>
     <use style="fill:#008000;stroke:#ffffff;stroke-linejoin:miter;stroke-width:0.25;" x="59.28664" xlink:href="#m0ab80e8c47" y="190.48223"/>
     <use style="fill:#008000;stroke:#ffffff;stroke-linejoin:miter;stroke-width:0.25;" x="62.109723" xlink:href="#m0ab80e8c47" y="190.48223"/>
     <use style="fill:#008000;stroke:#ffffff;stroke-linejoin:miter;stroke-width:0.25;" x="64.932806" xlink:href="#m0ab80e8c47" y="190.48223"/>
     <use style="fill:#008000;stroke:#ffffff;stroke-linejoin:miter;stroke-width:0.25;" x="67.755889" xlink:href="#m0ab80e8c47" y="190.48223"/>
     <use style="fill:#008000;stroke:#ffffff;stroke-linejoin:miter;stroke-width:0.25;" x="70.578972" xlink:href="#m0ab80e8c47" y="190.48223"/>
     <use style="fill:#008000;stroke:#ffffff;stroke-linejoin:miter;stroke-width:0.25;" x="73.402055" xlink:href="#m0ab80e8c47" y="190.48223"/>
     <use style="fill:#008000;stroke:#ffffff;stroke-linejoin:miter;stroke-width:0.25;" x="76.225138" xlink:href="#m0ab80e8c47" y="190.48223"/>
     <use style="fill:#008000;stroke:#ffffff;stroke-linejoin:miter;stroke-width:0.25;" x="79.048221" xlink:href="#m0ab80e8c47" y="190.48223"/>
     <use style="fill:#008000;stroke:#ffffff;stroke-linejoin:miter;stroke-width:0.25;" x="81.871304" xlink:href="#m0ab80e8c47" y="190.48223"/>
     <use style="fill:#008000;stroke:#ffffff;stroke-linejoin:miter;stroke-width:0.25;" x="84.694387" xlink:href="#m0ab80e8c47" y="190.48223"/>
     <use style="fill:#008000;stroke:#ffffff;stroke-linejoin:miter;stroke-width:0.25;" x="87.51747" xlink:href="#m0ab80e8c47" y="190.48223"/>
     <use style="fill:#008000;stroke:#ffffff;stroke-linejoin:miter;stroke-width:0.25;" x="90.340553" xlink:href="#m0ab80e8c47" y="190.48223"/>
     <use style="fill:#008000;stroke:#ffffff;stroke-linejoin:miter;stroke-width:0.25;" x="93.163636" xlink:href="#m0ab80e8c47" y="190.48223"/>
     <use style="fill:#008000;stroke:#ffffff;stroke-linejoin:miter;stroke-width:0.25;" x="95.986719" xlink:href="#m0ab80e8c47" y="190.48223"/>
     <use style="fill:#008000;stroke:#ffffff;stroke-linejoin:miter;stroke-width:0.25;" x="98.809802" xlink:href="#m0ab80e8c47" y="190.476858"/>
     <use style="fill:#008000;stroke:#ffffff;stroke-linejoin:miter;stroke-width:0.25;" x="101.632885" xlink:href="#m0ab80e8c47" y="190.476858"/>
     <use style="fill:#008000;stroke:#ffffff;stroke-linejoin:miter;stroke-width:0.25;" x="104.455968" xlink:href="#m0ab80e8c47" y="190.476858"/>
     <use style="fill:#008000;stroke:#ffffff;stroke-linejoin:miter;stroke-width:0.25;" x="107.279051" xlink:href="#m0ab80e8c47" y="190.476858"/>
     <use style="fill:#008000;stroke:#ffffff;stroke-linejoin:miter;stroke-width:0.25;" x="110.102134" xlink:href="#m0ab80e8c47" y="190.476858"/>
     <use style="fill:#008000;stroke:#ffffff;stroke-linejoin:miter;stroke-width:0.25;" x="112.925217" xlink:href="#m0ab80e8c47" y="190.476858"/>
     <use style="fill:#008000;stroke:#ffffff;stroke-linejoin:miter;stroke-width:0.25;" x="115.7483" xlink:href="#m0ab80e8c47" y="190.476858"/>
     <use style="fill:#008000;stroke:#ffffff;stroke-linejoin:miter;stroke-width:0.25;" x="118.571383" xlink:href="#m0ab80e8c47" y="190.476858"/>
     <use style="fill:#008000;stroke:#ffffff;stroke-linejoin:miter;stroke-width:0.25;" x="121.394466" xlink:href="#m0ab80e8c47" y="190.476858"/>
     <use style="fill:#008000;stroke:#ffffff;stroke-linejoin:miter;stroke-width:0.25;" x="124.217549" xlink:href="#m0ab80e8c47" y="190.476858"/>
     <use style="fill:#008000;stroke:#ffffff;stroke-linejoin:miter;stroke-width:0.25;" x="127.040632" xlink:href="#m0ab80e8c47" y="190.476858"/>
     <use style="fill:#008000;stroke:#ffffff;stroke-linejoin:miter;stroke-width:0.25;" x="129.863715" xlink:href="#m0ab80e8c47" y="190.476858"/>
     <use style="fill:#008000;stroke:#ffffff;stroke-linejoin:miter;stroke-width:0.25;" x="132.686798" xlink:href="#m0ab80e8c47" y="190.476858"/>
     <use style="fill:#008000;stroke:#ffffff;stroke-linejoin:miter;stroke-width:0.25;" x="135.509881" xlink:href="#m0ab80e8c47" y="190.476858"/>
     <use style="fill:#008000;stroke:#ffffff;stroke-linejoin:miter;stroke-width:0.25;" x="138.332964" xlink:href="#m0ab80e8c47" y="190.476858"/>
     <use style="fill:#008000;stroke:#ffffff;stroke-linejoin:miter;stroke-width:0.25;" x="141.156047" xlink:href="#m0ab80e8c47" y="190.476858"/>
     <use style="fill:#008000;stroke:#ffffff;stroke-linejoin:miter;stroke-width:0.25;" x="143.97913" xlink:href="#m0ab80e8c47" y="190.476858"/>
     <use style="fill:#008000;stroke:#ffffff;stroke-linejoin:miter;stroke-width:0.25;" x="146.802213" xlink:href="#m0ab80e8c47" y="190.476858"/>
     <use style="fill:#008000;stroke:#ffffff;stroke-linejoin:miter;stroke-width:0.25;" x="149.625296" xlink:href="#m0ab80e8c47" y="190.476858"/>
     <use style="fill:#008000;stroke:#ffffff;stroke-linejoin:miter;stroke-width:0.25;" x="152.448379" xlink:href="#m0ab80e8c47" y="190.476858"/>
     <use style="fill:#008000;stroke:#ffffff;stroke-linejoin:miter;stroke-width:0.25;" x="155.271462" xlink:href="#m0ab80e8c47" y="190.476858"/>
     <use style="fill:#008000;stroke:#ffffff;stroke-linejoin:miter;stroke-width:0.25;" x="158.094545" xlink:href="#m0ab80e8c47" y="190.476858"/>
     <use style="fill:#008000;stroke:#ffffff;stroke-linejoin:miter;stroke-width:0.25;" x="160.917628" xlink:href="#m0ab80e8c47" y="190.476858"/>
     <use style="fill:#008000;stroke:#ffffff;stroke-linejoin:miter;stroke-width:0.25;" x="163.740711" xlink:href="#m0ab80e8c47" y="190.475067"/>
     <use style="fill:#008000;stroke:#ffffff;stroke-linejoin:miter;stroke-width:0.25;" x="166.563794" xlink:href="#m0ab80e8c47" y="190.475067"/>
     <use style="fill:#008000;stroke:#ffffff;stroke-linejoin:miter;stroke-width:0.25;" x="169.386877" xlink:href="#m0ab80e8c47" y="190.475067"/>
     <use style="fill:#008000;stroke:#ffffff;stroke-linejoin:miter;stroke-width:0.25;" x="172.20996" xlink:href="#m0ab80e8c47" y="190.475067"/>
     <use style="fill:#008000;stroke:#ffffff;stroke-linejoin:miter;stroke-width:0.25;" x="175.033043" xlink:href="#m0ab80e8c47" y="190.475067"/>
     <use style="fill:#008000;stroke:#ffffff;stroke-linejoin:miter;stroke-width:0.25;" x="177.856126" xlink:href="#m0ab80e8c47" y="190.45895"/>
     <use style="fill:#008000;stroke:#ffffff;stroke-linejoin:miter;stroke-width:0.25;" x="180.679209" xlink:href="#m0ab80e8c47" y="190.45895"/>
     <use style="fill:#008000;stroke:#ffffff;stroke-linejoin:miter;stroke-width:0.25;" x="183.502292" xlink:href="#m0ab80e8c47" y="190.45716"/>
     <use style="fill:#008000;stroke:#ffffff;stroke-linejoin:miter;stroke-width:0.25;" x="186.325375" xlink:href="#m0ab80e8c47" y="190.45716"/>
     <use style="fill:#008000;stroke:#ffffff;stroke-linejoin:miter;stroke-width:0.25;" x="189.148458" xlink:href="#m0ab80e8c47" y="190.455369"/>
     <use style="fill:#008000;stroke:#ffffff;stroke-linejoin:miter;stroke-width:0.25;" x="191.971542" xlink:href="#m0ab80e8c47" y="190.446415"/>
     <use style="fill:#008000;stroke:#ffffff;stroke-linejoin:miter;stroke-width:0.25;" x="194.794625" xlink:href="#m0ab80e8c47" y="190.441043"/>
     <use style="fill:#008000;stroke:#ffffff;stroke-linejoin:miter;stroke-width:0.25;" x="197.617708" xlink:href="#m0ab80e8c47" y="190.43388"/>
     <use style="fill:#008000;stroke:#ffffff;stroke-linejoin:miter;stroke-width:0.25;" x="200.440791" xlink:href="#m0ab80e8c47" y="190.43388"/>
     <use style="fill:#008000;stroke:#ffffff;stroke-linejoin:miter;stroke-width:0.25;" x="203.263874" xlink:href="#m0ab80e8c47" y="190.4106"/>
     <use style="fill:#008000;stroke:#ffffff;stroke-linejoin:miter;stroke-width:0.25;" x="206.086957" xlink:href="#m0ab80e8c47" y="190.405228"/>
     <use style="fill:#008000;stroke:#ffffff;stroke-linejoin:miter;stroke-width:0.25;" x="208.91004" xlink:href="#m0ab80e8c47" y="190.401647"/>
     <use style="fill:#008000;stroke:#ffffff;stroke-linejoin:miter;stroke-width:0.25;" x="211.733123" xlink:href="#m0ab80e8c47" y="190.351506"/>
     <use style="fill:#008000;stroke:#ffffff;stroke-linejoin:miter;stroke-width:0.25;" x="214.556206" xlink:href="#m0ab80e8c47" y="190.331808"/>
     <use style="fill:#008000;stroke:#ffffff;stroke-linejoin:miter;stroke-width:0.25;" x="217.379289" xlink:href="#m0ab80e8c47" y="190.31211"/>
     <use style="fill:#008000;stroke:#ffffff;stroke-linejoin:miter;stroke-width:0.25;" x="220.202372" xlink:href="#m0ab80e8c47" y="190.299574"/>
     <use style="fill:#008000;stroke:#ffffff;stroke-linejoin:miter;stroke-width:0.25;" x="223.025455" xlink:href="#m0ab80e8c47" y="190.261969"/>
     <use style="fill:#008000;stroke:#ffffff;stroke-linejoin:miter;stroke-width:0.25;" x="225.848538" xlink:href="#m0ab80e8c47" y="190.2172"/>
     <use style="fill:#008000;stroke:#ffffff;stroke-linejoin:miter;stroke-width:0.25;" x="228.671621" xlink:href="#m0ab80e8c47" y="190.140198"/>
     <use style="fill:#008000;stroke:#ffffff;stroke-linejoin:miter;stroke-width:0.25;" x="231.494704" xlink:href="#m0ab80e8c47" y="190.138407"/>
     <use style="fill:#008000;stroke:#ffffff;stroke-linejoin:miter;stroke-width:0.25;" x="234.317787" xlink:href="#m0ab80e8c47" y="190.07215"/>
     <use style="fill:#008000;stroke:#ffffff;stroke-linejoin:miter;stroke-width:0.25;" x="237.14087" xlink:href="#m0ab80e8c47" y="190.07215"/>
     <use style="fill:#008000;stroke:#ffffff;stroke-linejoin:miter;stroke-width:0.25;" x="239.963953" xlink:href="#m0ab80e8c47" y="189.810701"/>
     <use style="fill:#008000;stroke:#ffffff;stroke-linejoin:miter;stroke-width:0.25;" x="242.787036" xlink:href="#m0ab80e8c47" y="189.728327"/>
     <use style="fill:#008000;stroke:#ffffff;stroke-linejoin:miter;stroke-width:0.25;" x="245.610119" xlink:href="#m0ab80e8c47" y="189.576114"/>
     <use style="fill:#008000;stroke:#ffffff;stroke-linejoin:miter;stroke-width:0.25;" x="248.433202" xlink:href="#m0ab80e8c47" y="189.371969"/>
     <use style="fill:#008000;stroke:#ffffff;stroke-linejoin:miter;stroke-width:0.25;" x="251.256285" xlink:href="#m0ab80e8c47" y="189.096195"/>
     <use style="fill:#008000;stroke:#ffffff;stroke-linejoin:miter;stroke-width:0.25;" x="254.079368" xlink:href="#m0ab80e8c47" y="188.747"/>
     <use style="fill:#008000;stroke:#ffffff;stroke-linejoin:miter;stroke-width:0.25;" x="256.902451" xlink:href="#m0ab80e8c47" y="188.548228"/>
     <use style="fill:#008000;stroke:#ffffff;stroke-linejoin:miter;stroke-width:0.25;" x="259.725534" xlink:href="#m0ab80e8c47" y="188.367363"/>
     <use style="fill:#008000;stroke:#ffffff;stroke-linejoin:miter;stroke-width:0.25;" x="262.548617" xlink:href="#m0ab80e8c47" y="188.04861"/>
     <use style="fill:#008000;stroke:#ffffff;stroke-linejoin:miter;stroke-width:0.25;" x="265.3717" xlink:href="#m0ab80e8c47" y="187.917886"/>
     <use style="fill:#008000;stroke:#ffffff;stroke-linejoin:miter;stroke-width:0.25;" x="268.194783" xlink:href="#m0ab80e8c47" y="187.316196"/>
     <use style="fill:#008000;stroke:#ffffff;stroke-linejoin:miter;stroke-width:0.25;" x="271.017866" xlink:href="#m0ab80e8c47" y="186.827324"/>
     <use style="fill:#008000;stroke:#ffffff;stroke-linejoin:miter;stroke-width:0.25;" x="273.840949" xlink:href="#m0ab80e8c47" y="186.07163"/>
     <use style="fill:#008000;stroke:#ffffff;stroke-linejoin:miter;stroke-width:0.25;" x="276.664032" xlink:href="#m0ab80e8c47" y="185.37145"/>
     <use style="fill:#008000;stroke:#ffffff;stroke-linejoin:miter;stroke-width:0.25;" x="279.487115" xlink:href="#m0ab80e8c47" y="184.621128"/>
     <use style="fill:#008000;stroke:#ffffff;stroke-linejoin:miter;stroke-width:0.25;" x="282.310198" xlink:href="#m0ab80e8c47" y="183.364027"/>
     <use style="fill:#008000;stroke:#ffffff;stroke-linejoin:miter;stroke-width:0.25;" x="285.133281" xlink:href="#m0ab80e8c47" y="182.656683"/>
     <use style="fill:#008000;stroke:#ffffff;stroke-linejoin:miter;stroke-width:0.25;" x="287.956364" xlink:href="#m0ab80e8c47" y="181.507026"/>
     <use style="fill:#008000;stroke:#ffffff;stroke-linejoin:miter;stroke-width:0.25;" x="290.779447" xlink:href="#m0ab80e8c47" y="180.636725"/>
     <use style="fill:#008000;stroke:#ffffff;stroke-linejoin:miter;stroke-width:0.25;" x="293.60253" xlink:href="#m0ab80e8c47" y="179.847007"/>
     <use style="fill:#008000;stroke:#ffffff;stroke-linejoin:miter;stroke-width:0.25;" x="296.425613" xlink:href="#m0ab80e8c47" y="178.801213"/>
     <use style="fill:#008000;stroke:#ffffff;stroke-linejoin:miter;stroke-width:0.25;" x="299.248696" xlink:href="#m0ab80e8c47" y="177.701697"/>
     <use style="fill:#008000;stroke:#ffffff;stroke-linejoin:miter;stroke-width:0.25;" x="302.071779" xlink:href="#m0ab80e8c47" y="176.609344"/>
     <use style="fill:#008000;stroke:#ffffff;stroke-linejoin:miter;stroke-width:0.25;" x="304.894862" xlink:href="#m0ab80e8c47" y="175.373731"/>
     <use style="fill:#008000;stroke:#ffffff;stroke-linejoin:miter;stroke-width:0.25;" x="307.717945" xlink:href="#m0ab80e8c47" y="174.243772"/>
     <use style="fill:#008000;stroke:#ffffff;stroke-linejoin:miter;stroke-width:0.25;" x="310.541028" xlink:href="#m0ab80e8c47" y="172.562265"/>
     <use style="fill:#008000;stroke:#ffffff;stroke-linejoin:miter;stroke-width:0.25;" x="313.364111" xlink:href="#m0ab80e8c47" y="171.108181"/>
     <use style="fill:#008000;stroke:#ffffff;stroke-linejoin:miter;stroke-width:0.25;" x="316.187194" xlink:href="#m0ab80e8c47" y="169.396231"/>
     <use style="fill:#008000;stroke:#ffffff;stroke-linejoin:miter;stroke-width:0.25;" x="319.010277" xlink:href="#m0ab80e8c47" y="167.476555"/>
     <use style="fill:#008000;stroke:#ffffff;stroke-linejoin:miter;stroke-width:0.25;" x="321.83336" xlink:href="#m0ab80e8c47" y="165.157542"/>
     <use style="fill:#008000;stroke:#ffffff;stroke-linejoin:miter;stroke-width:0.25;" x="324.656443" xlink:href="#m0ab80e8c47" y="163.028349"/>
     <use style="fill:#008000;stroke:#ffffff;stroke-linejoin:miter;stroke-width:0.25;" x="327.479526" xlink:href="#m0ab80e8c47" y="160.440725"/>
     <use style="fill:#008000;stroke:#ffffff;stroke-linejoin:miter;stroke-width:0.25;" x="330.302609" xlink:href="#m0ab80e8c47" y="158.45121"/>
     <use style="fill:#008000;stroke:#ffffff;stroke-linejoin:miter;stroke-width:0.25;" x="333.125692" xlink:href="#m0ab80e8c47" y="155.919099"/>
     <use style="fill:#008000;stroke:#ffffff;stroke-linejoin:miter;stroke-width:0.25;" x="335.948775" xlink:href="#m0ab80e8c47" y="152.93214"/>
     <use style="fill:#008000;stroke:#ffffff;stroke-linejoin:miter;stroke-width:0.25;" x="338.771858" xlink:href="#m0ab80e8c47" y="150.102766"/>
     <use style="fill:#008000;stroke:#ffffff;stroke-linejoin:miter;stroke-width:0.25;" x="341.594941" xlink:href="#m0ab80e8c47" y="146.752286"/>
     <use style="fill:#008000;stroke:#ffffff;stroke-linejoin:miter;stroke-width:0.25;" x="344.418024" xlink:href="#m0ab80e8c47" y="143.206615"/>
     <use style="fill:#008000;stroke:#ffffff;stroke-linejoin:miter;stroke-width:0.25;" x="347.241107" xlink:href="#m0ab80e8c47" y="140.396939"/>
     <use style="fill:#008000;stroke:#ffffff;stroke-linejoin:miter;stroke-width:0.25;" x="350.06419" xlink:href="#m0ab80e8c47" y="136.297928"/>
     <use style="fill:#008000;stroke:#ffffff;stroke-linejoin:miter;stroke-width:0.25;" x="352.887273" xlink:href="#m0ab80e8c47" y="129.195841"/>
    </g>
   </g>
   <g id="line2d_19">
    <path clip-path="url(#p16280fa013)" d="M 28.232727 190.48223 
L 31.05581 190.48223 
L 33.878893 190.48223 
L 36.701976 190.48223 
L 39.525059 190.48223 
L 42.348142 190.48223 
L 45.171225 190.48223 
L 47.994308 190.48223 
L 50.817391 190.48223 
L 53.640474 190.48223 
L 56.463557 190.48223 
L 59.28664 190.48223 
L 62.109723 190.48223 
L 64.932806 190.48223 
L 67.755889 190.48223 
L 70.578972 190.48223 
L 73.402055 190.48223 
L 76.225138 190.48223 
L 79.048221 190.48223 
L 81.871304 190.48223 
L 84.694387 190.48223 
L 87.51747 190.48223 
L 90.340553 190.48223 
L 93.163636 190.48223 
L 95.986719 190.48223 
L 98.809802 190.48223 
L 101.632885 190.48223 
L 104.455968 190.48223 
L 107.279051 190.48223 
L 110.102134 190.48223 
L 112.925217 190.48223 
L 115.7483 190.48223 
L 118.571383 190.48223 
L 121.394466 190.48223 
L 124.217549 190.48223 
L 127.040632 190.48223 
L 129.863715 190.48223 
L 132.686798 190.48223 
L 135.509881 190.48223 
L 138.332964 190.48223 
L 141.156047 190.48223 
L 143.97913 190.48223 
L 146.802213 190.48223 
L 149.625296 190.48223 
L 152.448379 190.48223 
L 155.271462 190.48223 
L 158.094545 190.48223 
L 160.917628 190.48223 
L 163.740711 190.48223 
L 166.563794 190.480439 
L 169.386877 190.480439 
L 172.20996 190.478649 
L 175.033043 190.478649 
L 177.856126 190.478649 
L 180.679209 190.478649 
L 183.502292 190.476858 
L 186.325375 190.476858 
L 189.148458 190.475067 
L 191.971542 190.473276 
L 194.794625 190.475067 
L 197.617708 190.469695 
L 200.440791 190.464323 
L 203.263874 190.464323 
L 206.086957 190.460741 
L 208.91004 190.446415 
L 211.733123 190.446415 
L 214.556206 190.439252 
L 217.379289 190.43388 
L 220.202372 190.424926 
L 223.025455 190.419554 
L 225.848538 190.378367 
L 228.671621 190.353297 
L 231.494704 190.353297 
L 234.317787 190.328226 
L 237.14087 190.304947 
L 239.963953 190.238689 
L 242.787036 190.213619 
L 245.610119 190.163478 
L 248.433202 190.077522 
L 251.256285 190.041707 
L 254.079368 189.966496 
L 256.902451 189.889494 
L 259.725534 189.841144 
L 262.548617 189.778468 
L 265.3717 189.756979 
L 268.194783 189.679977 
L 271.017866 189.611929 
L 273.840949 189.549253 
L 276.664032 189.481205 
L 279.487115 189.42211 
L 282.310198 189.327201 
L 285.133281 189.262734 
L 287.956364 189.191104 
L 290.779447 189.085451 
L 293.60253 189.004867 
L 296.425613 188.904586 
L 299.248696 188.800722 
L 302.071779 188.677161 
L 304.894862 188.550018 
L 307.717945 188.415713 
L 310.541028 188.292151 
L 313.364111 188.113077 
L 316.187194 187.991307 
L 319.010277 187.677927 
L 321.83336 187.450502 
L 324.656443 187.285754 
L 327.479526 187.099517 
L 330.302609 186.927605 
L 333.125692 186.719879 
L 335.948775 186.521107 
L 338.771858 186.374266 
L 341.594941 186.157586 
L 344.418024 185.914045 
L 347.241107 185.738552 
L 350.06419 185.552315 
L 352.887273 185.341007 
" style="fill:none;stroke:#808080;stroke-linecap:round;stroke-width:1.5;"/>
    <defs>
     <path d="M -0.75 1.5 
L 0 0.75 
L 0.75 1.5 
L 1.5 0.75 
L 0.75 0 
L 1.5 -0.75 
L 0.75 -1.5 
L 0 -0.75 
L -0.75 -1.5 
L -1.5 -0.75 
L -0.75 0 
L -1.5 0.75 
z
" id="ma13257d123" style="stroke:#ffffff;stroke-linejoin:miter;stroke-width:0.25;"/>
    </defs>
    <g clip-path="url(#p16280fa013)">
     <use style="fill:#808080;stroke:#ffffff;stroke-linejoin:miter;stroke-width:0.25;" x="28.232727" xlink:href="#ma13257d123" y="190.48223"/>
     <use style="fill:#808080;stroke:#ffffff;stroke-linejoin:miter;stroke-width:0.25;" x="31.05581" xlink:href="#ma13257d123" y="190.48223"/>
     <use style="fill:#808080;stroke:#ffffff;stroke-linejoin:miter;stroke-width:0.25;" x="33.878893" xlink:href="#ma13257d123" y="190.48223"/>
     <use style="fill:#808080;stroke:#ffffff;stroke-linejoin:miter;stroke-width:0.25;" x="36.701976" xlink:href="#ma13257d123" y="190.48223"/>
     <use style="fill:#808080;stroke:#ffffff;stroke-linejoin:miter;stroke-width:0.25;" x="39.525059" xlink:href="#ma13257d123" y="190.48223"/>
     <use style="fill:#808080;stroke:#ffffff;stroke-linejoin:miter;stroke-width:0.25;" x="42.348142" xlink:href="#ma13257d123" y="190.48223"/>
     <use style="fill:#808080;stroke:#ffffff;stroke-linejoin:miter;stroke-width:0.25;" x="45.171225" xlink:href="#ma13257d123" y="190.48223"/>
     <use style="fill:#808080;stroke:#ffffff;stroke-linejoin:miter;stroke-width:0.25;" x="47.994308" xlink:href="#ma13257d123" y="190.48223"/>
     <use style="fill:#808080;stroke:#ffffff;stroke-linejoin:miter;stroke-width:0.25;" x="50.817391" xlink:href="#ma13257d123" y="190.48223"/>
     <use style="fill:#808080;stroke:#ffffff;stroke-linejoin:miter;stroke-width:0.25;" x="53.640474" xlink:href="#ma13257d123" y="190.48223"/>
     <use style="fill:#808080;stroke:#ffffff;stroke-linejoin:miter;stroke-width:0.25;" x="56.463557" xlink:href="#ma13257d123" y="190.48223"/>
     <use style="fill:#808080;stroke:#ffffff;stroke-linejoin:miter;stroke-width:0.25;" x="59.28664" xlink:href="#ma13257d123" y="190.48223"/>
     <use style="fill:#808080;stroke:#ffffff;stroke-linejoin:miter;stroke-width:0.25;" x="62.109723" xlink:href="#ma13257d123" y="190.48223"/>
     <use style="fill:#808080;stroke:#ffffff;stroke-linejoin:miter;stroke-width:0.25;" x="64.932806" xlink:href="#ma13257d123" y="190.48223"/>
     <use style="fill:#808080;stroke:#ffffff;stroke-linejoin:miter;stroke-width:0.25;" x="67.755889" xlink:href="#ma13257d123" y="190.48223"/>
     <use style="fill:#808080;stroke:#ffffff;stroke-linejoin:miter;stroke-width:0.25;" x="70.578972" xlink:href="#ma13257d123" y="190.48223"/>
     <use style="fill:#808080;stroke:#ffffff;stroke-linejoin:miter;stroke-width:0.25;" x="73.402055" xlink:href="#ma13257d123" y="190.48223"/>
     <use style="fill:#808080;stroke:#ffffff;stroke-linejoin:miter;stroke-width:0.25;" x="76.225138" xlink:href="#ma13257d123" y="190.48223"/>
     <use style="fill:#808080;stroke:#ffffff;stroke-linejoin:miter;stroke-width:0.25;" x="79.048221" xlink:href="#ma13257d123" y="190.48223"/>
     <use style="fill:#808080;stroke:#ffffff;stroke-linejoin:miter;stroke-width:0.25;" x="81.871304" xlink:href="#ma13257d123" y="190.48223"/>
     <use style="fill:#808080;stroke:#ffffff;stroke-linejoin:miter;stroke-width:0.25;" x="84.694387" xlink:href="#ma13257d123" y="190.48223"/>
     <use style="fill:#808080;stroke:#ffffff;stroke-linejoin:miter;stroke-width:0.25;" x="87.51747" xlink:href="#ma13257d123" y="190.48223"/>
     <use style="fill:#808080;stroke:#ffffff;stroke-linejoin:miter;stroke-width:0.25;" x="90.340553" xlink:href="#ma13257d123" y="190.48223"/>
     <use style="fill:#808080;stroke:#ffffff;stroke-linejoin:miter;stroke-width:0.25;" x="93.163636" xlink:href="#ma13257d123" y="190.48223"/>
     <use style="fill:#808080;stroke:#ffffff;stroke-linejoin:miter;stroke-width:0.25;" x="95.986719" xlink:href="#ma13257d123" y="190.48223"/>
     <use style="fill:#808080;stroke:#ffffff;stroke-linejoin:miter;stroke-width:0.25;" x="98.809802" xlink:href="#ma13257d123" y="190.48223"/>
     <use style="fill:#808080;stroke:#ffffff;stroke-linejoin:miter;stroke-width:0.25;" x="101.632885" xlink:href="#ma13257d123" y="190.48223"/>
     <use style="fill:#808080;stroke:#ffffff;stroke-linejoin:miter;stroke-width:0.25;" x="104.455968" xlink:href="#ma13257d123" y="190.48223"/>
     <use style="fill:#808080;stroke:#ffffff;stroke-linejoin:miter;stroke-width:0.25;" x="107.279051" xlink:href="#ma13257d123" y="190.48223"/>
     <use style="fill:#808080;stroke:#ffffff;stroke-linejoin:miter;stroke-width:0.25;" x="110.102134" xlink:href="#ma13257d123" y="190.48223"/>
     <use style="fill:#808080;stroke:#ffffff;stroke-linejoin:miter;stroke-width:0.25;" x="112.925217" xlink:href="#ma13257d123" y="190.48223"/>
     <use style="fill:#808080;stroke:#ffffff;stroke-linejoin:miter;stroke-width:0.25;" x="115.7483" xlink:href="#ma13257d123" y="190.48223"/>
     <use style="fill:#808080;stroke:#ffffff;stroke-linejoin:miter;stroke-width:0.25;" x="118.571383" xlink:href="#ma13257d123" y="190.48223"/>
     <use style="fill:#808080;stroke:#ffffff;stroke-linejoin:miter;stroke-width:0.25;" x="121.394466" xlink:href="#ma13257d123" y="190.48223"/>
     <use style="fill:#808080;stroke:#ffffff;stroke-linejoin:miter;stroke-width:0.25;" x="124.217549" xlink:href="#ma13257d123" y="190.48223"/>
     <use style="fill:#808080;stroke:#ffffff;stroke-linejoin:miter;stroke-width:0.25;" x="127.040632" xlink:href="#ma13257d123" y="190.48223"/>
     <use style="fill:#808080;stroke:#ffffff;stroke-linejoin:miter;stroke-width:0.25;" x="129.863715" xlink:href="#ma13257d123" y="190.48223"/>
     <use style="fill:#808080;stroke:#ffffff;stroke-linejoin:miter;stroke-width:0.25;" x="132.686798" xlink:href="#ma13257d123" y="190.48223"/>
     <use style="fill:#808080;stroke:#ffffff;stroke-linejoin:miter;stroke-width:0.25;" x="135.509881" xlink:href="#ma13257d123" y="190.48223"/>
     <use style="fill:#808080;stroke:#ffffff;stroke-linejoin:miter;stroke-width:0.25;" x="138.332964" xlink:href="#ma13257d123" y="190.48223"/>
     <use style="fill:#808080;stroke:#ffffff;stroke-linejoin:miter;stroke-width:0.25;" x="141.156047" xlink:href="#ma13257d123" y="190.48223"/>
     <use style="fill:#808080;stroke:#ffffff;stroke-linejoin:miter;stroke-width:0.25;" x="143.97913" xlink:href="#ma13257d123" y="190.48223"/>
     <use style="fill:#808080;stroke:#ffffff;stroke-linejoin:miter;stroke-width:0.25;" x="146.802213" xlink:href="#ma13257d123" y="190.48223"/>
     <use style="fill:#808080;stroke:#ffffff;stroke-linejoin:miter;stroke-width:0.25;" x="149.625296" xlink:href="#ma13257d123" y="190.48223"/>
     <use style="fill:#808080;stroke:#ffffff;stroke-linejoin:miter;stroke-width:0.25;" x="152.448379" xlink:href="#ma13257d123" y="190.48223"/>
     <use style="fill:#808080;stroke:#ffffff;stroke-linejoin:miter;stroke-width:0.25;" x="155.271462" xlink:href="#ma13257d123" y="190.48223"/>
     <use style="fill:#808080;stroke:#ffffff;stroke-linejoin:miter;stroke-width:0.25;" x="158.094545" xlink:href="#ma13257d123" y="190.48223"/>
     <use style="fill:#808080;stroke:#ffffff;stroke-linejoin:miter;stroke-width:0.25;" x="160.917628" xlink:href="#ma13257d123" y="190.48223"/>
     <use style="fill:#808080;stroke:#ffffff;stroke-linejoin:miter;stroke-width:0.25;" x="163.740711" xlink:href="#ma13257d123" y="190.48223"/>
     <use style="fill:#808080;stroke:#ffffff;stroke-linejoin:miter;stroke-width:0.25;" x="166.563794" xlink:href="#ma13257d123" y="190.480439"/>
     <use style="fill:#808080;stroke:#ffffff;stroke-linejoin:miter;stroke-width:0.25;" x="169.386877" xlink:href="#ma13257d123" y="190.480439"/>
     <use style="fill:#808080;stroke:#ffffff;stroke-linejoin:miter;stroke-width:0.25;" x="172.20996" xlink:href="#ma13257d123" y="190.478649"/>
     <use style="fill:#808080;stroke:#ffffff;stroke-linejoin:miter;stroke-width:0.25;" x="175.033043" xlink:href="#ma13257d123" y="190.478649"/>
     <use style="fill:#808080;stroke:#ffffff;stroke-linejoin:miter;stroke-width:0.25;" x="177.856126" xlink:href="#ma13257d123" y="190.478649"/>
     <use style="fill:#808080;stroke:#ffffff;stroke-linejoin:miter;stroke-width:0.25;" x="180.679209" xlink:href="#ma13257d123" y="190.478649"/>
     <use style="fill:#808080;stroke:#ffffff;stroke-linejoin:miter;stroke-width:0.25;" x="183.502292" xlink:href="#ma13257d123" y="190.476858"/>
     <use style="fill:#808080;stroke:#ffffff;stroke-linejoin:miter;stroke-width:0.25;" x="186.325375" xlink:href="#ma13257d123" y="190.476858"/>
     <use style="fill:#808080;stroke:#ffffff;stroke-linejoin:miter;stroke-width:0.25;" x="189.148458" xlink:href="#ma13257d123" y="190.475067"/>
     <use style="fill:#808080;stroke:#ffffff;stroke-linejoin:miter;stroke-width:0.25;" x="191.971542" xlink:href="#ma13257d123" y="190.473276"/>
     <use style="fill:#808080;stroke:#ffffff;stroke-linejoin:miter;stroke-width:0.25;" x="194.794625" xlink:href="#ma13257d123" y="190.475067"/>
     <use style="fill:#808080;stroke:#ffffff;stroke-linejoin:miter;stroke-width:0.25;" x="197.617708" xlink:href="#ma13257d123" y="190.469695"/>
     <use style="fill:#808080;stroke:#ffffff;stroke-linejoin:miter;stroke-width:0.25;" x="200.440791" xlink:href="#ma13257d123" y="190.464323"/>
     <use style="fill:#808080;stroke:#ffffff;stroke-linejoin:miter;stroke-width:0.25;" x="203.263874" xlink:href="#ma13257d123" y="190.464323"/>
     <use style="fill:#808080;stroke:#ffffff;stroke-linejoin:miter;stroke-width:0.25;" x="206.086957" xlink:href="#ma13257d123" y="190.460741"/>
     <use style="fill:#808080;stroke:#ffffff;stroke-linejoin:miter;stroke-width:0.25;" x="208.91004" xlink:href="#ma13257d123" y="190.446415"/>
     <use style="fill:#808080;stroke:#ffffff;stroke-linejoin:miter;stroke-width:0.25;" x="211.733123" xlink:href="#ma13257d123" y="190.446415"/>
     <use style="fill:#808080;stroke:#ffffff;stroke-linejoin:miter;stroke-width:0.25;" x="214.556206" xlink:href="#ma13257d123" y="190.439252"/>
     <use style="fill:#808080;stroke:#ffffff;stroke-linejoin:miter;stroke-width:0.25;" x="217.379289" xlink:href="#ma13257d123" y="190.43388"/>
     <use style="fill:#808080;stroke:#ffffff;stroke-linejoin:miter;stroke-width:0.25;" x="220.202372" xlink:href="#ma13257d123" y="190.424926"/>
     <use style="fill:#808080;stroke:#ffffff;stroke-linejoin:miter;stroke-width:0.25;" x="223.025455" xlink:href="#ma13257d123" y="190.419554"/>
     <use style="fill:#808080;stroke:#ffffff;stroke-linejoin:miter;stroke-width:0.25;" x="225.848538" xlink:href="#ma13257d123" y="190.378367"/>
     <use style="fill:#808080;stroke:#ffffff;stroke-linejoin:miter;stroke-width:0.25;" x="228.671621" xlink:href="#ma13257d123" y="190.353297"/>
     <use style="fill:#808080;stroke:#ffffff;stroke-linejoin:miter;stroke-width:0.25;" x="231.494704" xlink:href="#ma13257d123" y="190.353297"/>
     <use style="fill:#808080;stroke:#ffffff;stroke-linejoin:miter;stroke-width:0.25;" x="234.317787" xlink:href="#ma13257d123" y="190.328226"/>
     <use style="fill:#808080;stroke:#ffffff;stroke-linejoin:miter;stroke-width:0.25;" x="237.14087" xlink:href="#ma13257d123" y="190.304947"/>
     <use style="fill:#808080;stroke:#ffffff;stroke-linejoin:miter;stroke-width:0.25;" x="239.963953" xlink:href="#ma13257d123" y="190.238689"/>
     <use style="fill:#808080;stroke:#ffffff;stroke-linejoin:miter;stroke-width:0.25;" x="242.787036" xlink:href="#ma13257d123" y="190.213619"/>
     <use style="fill:#808080;stroke:#ffffff;stroke-linejoin:miter;stroke-width:0.25;" x="245.610119" xlink:href="#ma13257d123" y="190.163478"/>
     <use style="fill:#808080;stroke:#ffffff;stroke-linejoin:miter;stroke-width:0.25;" x="248.433202" xlink:href="#ma13257d123" y="190.077522"/>
     <use style="fill:#808080;stroke:#ffffff;stroke-linejoin:miter;stroke-width:0.25;" x="251.256285" xlink:href="#ma13257d123" y="190.041707"/>
     <use style="fill:#808080;stroke:#ffffff;stroke-linejoin:miter;stroke-width:0.25;" x="254.079368" xlink:href="#ma13257d123" y="189.966496"/>
     <use style="fill:#808080;stroke:#ffffff;stroke-linejoin:miter;stroke-width:0.25;" x="256.902451" xlink:href="#ma13257d123" y="189.889494"/>
     <use style="fill:#808080;stroke:#ffffff;stroke-linejoin:miter;stroke-width:0.25;" x="259.725534" xlink:href="#ma13257d123" y="189.841144"/>
     <use style="fill:#808080;stroke:#ffffff;stroke-linejoin:miter;stroke-width:0.25;" x="262.548617" xlink:href="#ma13257d123" y="189.778468"/>
     <use style="fill:#808080;stroke:#ffffff;stroke-linejoin:miter;stroke-width:0.25;" x="265.3717" xlink:href="#ma13257d123" y="189.756979"/>
     <use style="fill:#808080;stroke:#ffffff;stroke-linejoin:miter;stroke-width:0.25;" x="268.194783" xlink:href="#ma13257d123" y="189.679977"/>
     <use style="fill:#808080;stroke:#ffffff;stroke-linejoin:miter;stroke-width:0.25;" x="271.017866" xlink:href="#ma13257d123" y="189.611929"/>
     <use style="fill:#808080;stroke:#ffffff;stroke-linejoin:miter;stroke-width:0.25;" x="273.840949" xlink:href="#ma13257d123" y="189.549253"/>
     <use style="fill:#808080;stroke:#ffffff;stroke-linejoin:miter;stroke-width:0.25;" x="276.664032" xlink:href="#ma13257d123" y="189.481205"/>
     <use style="fill:#808080;stroke:#ffffff;stroke-linejoin:miter;stroke-width:0.25;" x="279.487115" xlink:href="#ma13257d123" y="189.42211"/>
     <use style="fill:#808080;stroke:#ffffff;stroke-linejoin:miter;stroke-width:0.25;" x="282.310198" xlink:href="#ma13257d123" y="189.327201"/>
     <use style="fill:#808080;stroke:#ffffff;stroke-linejoin:miter;stroke-width:0.25;" x="285.133281" xlink:href="#ma13257d123" y="189.262734"/>
     <use style="fill:#808080;stroke:#ffffff;stroke-linejoin:miter;stroke-width:0.25;" x="287.956364" xlink:href="#ma13257d123" y="189.191104"/>
     <use style="fill:#808080;stroke:#ffffff;stroke-linejoin:miter;stroke-width:0.25;" x="290.779447" xlink:href="#ma13257d123" y="189.085451"/>
     <use style="fill:#808080;stroke:#ffffff;stroke-linejoin:miter;stroke-width:0.25;" x="293.60253" xlink:href="#ma13257d123" y="189.004867"/>
     <use style="fill:#808080;stroke:#ffffff;stroke-linejoin:miter;stroke-width:0.25;" x="296.425613" xlink:href="#ma13257d123" y="188.904586"/>
     <use style="fill:#808080;stroke:#ffffff;stroke-linejoin:miter;stroke-width:0.25;" x="299.248696" xlink:href="#ma13257d123" y="188.800722"/>
     <use style="fill:#808080;stroke:#ffffff;stroke-linejoin:miter;stroke-width:0.25;" x="302.071779" xlink:href="#ma13257d123" y="188.677161"/>
     <use style="fill:#808080;stroke:#ffffff;stroke-linejoin:miter;stroke-width:0.25;" x="304.894862" xlink:href="#ma13257d123" y="188.550018"/>
     <use style="fill:#808080;stroke:#ffffff;stroke-linejoin:miter;stroke-width:0.25;" x="307.717945" xlink:href="#ma13257d123" y="188.415713"/>
     <use style="fill:#808080;stroke:#ffffff;stroke-linejoin:miter;stroke-width:0.25;" x="310.541028" xlink:href="#ma13257d123" y="188.292151"/>
     <use style="fill:#808080;stroke:#ffffff;stroke-linejoin:miter;stroke-width:0.25;" x="313.364111" xlink:href="#ma13257d123" y="188.113077"/>
     <use style="fill:#808080;stroke:#ffffff;stroke-linejoin:miter;stroke-width:0.25;" x="316.187194" xlink:href="#ma13257d123" y="187.991307"/>
     <use style="fill:#808080;stroke:#ffffff;stroke-linejoin:miter;stroke-width:0.25;" x="319.010277" xlink:href="#ma13257d123" y="187.677927"/>
     <use style="fill:#808080;stroke:#ffffff;stroke-linejoin:miter;stroke-width:0.25;" x="321.83336" xlink:href="#ma13257d123" y="187.450502"/>
     <use style="fill:#808080;stroke:#ffffff;stroke-linejoin:miter;stroke-width:0.25;" x="324.656443" xlink:href="#ma13257d123" y="187.285754"/>
     <use style="fill:#808080;stroke:#ffffff;stroke-linejoin:miter;stroke-width:0.25;" x="327.479526" xlink:href="#ma13257d123" y="187.099517"/>
     <use style="fill:#808080;stroke:#ffffff;stroke-linejoin:miter;stroke-width:0.25;" x="330.302609" xlink:href="#ma13257d123" y="186.927605"/>
     <use style="fill:#808080;stroke:#ffffff;stroke-linejoin:miter;stroke-width:0.25;" x="333.125692" xlink:href="#ma13257d123" y="186.719879"/>
     <use style="fill:#808080;stroke:#ffffff;stroke-linejoin:miter;stroke-width:0.25;" x="335.948775" xlink:href="#ma13257d123" y="186.521107"/>
     <use style="fill:#808080;stroke:#ffffff;stroke-linejoin:miter;stroke-width:0.25;" x="338.771858" xlink:href="#ma13257d123" y="186.374266"/>
     <use style="fill:#808080;stroke:#ffffff;stroke-linejoin:miter;stroke-width:0.25;" x="341.594941" xlink:href="#ma13257d123" y="186.157586"/>
     <use style="fill:#808080;stroke:#ffffff;stroke-linejoin:miter;stroke-width:0.25;" x="344.418024" xlink:href="#ma13257d123" y="185.914045"/>
     <use style="fill:#808080;stroke:#ffffff;stroke-linejoin:miter;stroke-width:0.25;" x="347.241107" xlink:href="#ma13257d123" y="185.738552"/>
     <use style="fill:#808080;stroke:#ffffff;stroke-linejoin:miter;stroke-width:0.25;" x="350.06419" xlink:href="#ma13257d123" y="185.552315"/>
     <use style="fill:#808080;stroke:#ffffff;stroke-linejoin:miter;stroke-width:0.25;" x="352.887273" xlink:href="#ma13257d123" y="185.341007"/>
    </g>
   </g>
   <g id="line2d_20"/>
   <g id="line2d_21"/>
   <g id="line2d_22"/>
   <g id="line2d_23"/>
   <g id="line2d_24">
    <path clip-path="url(#p16280fa013)" d="M 12 28.154957 
L 369.12 28.154957 
" style="fill:none;stroke:#4c72b0;stroke-dasharray:0.5,0.825;stroke-dashoffset:0;stroke-width:0.5;"/>
   </g>
   <g id="line2d_25">
    <path clip-path="url(#p16280fa013)" d="M 12 185.341007 
L 369.12 185.341007 
" style="fill:none;stroke:#4c72b0;stroke-dasharray:0.5,0.825;stroke-dashoffset:0;stroke-width:0.5;"/>
   </g>
   <g id="line2d_26">
    <path clip-path="url(#p16280fa013)" d="M 12 129.195841 
L 369.12 129.195841 
" style="fill:none;stroke:#4c72b0;stroke-dasharray:0.5,0.825;stroke-dashoffset:0;stroke-width:0.5;"/>
   </g>
   <g id="line2d_27">
    <path clip-path="url(#p16280fa013)" d="M 352.887273 198.598594 
L 352.887273 20.038594 
" style="fill:none;stroke:#4c72b0;stroke-dasharray:0.5,0.825;stroke-dashoffset:0;stroke-width:0.5;"/>
   </g>
   <g id="patch_3">
    <path d="M 12 198.598594 
L 12 20.038594 
" style="fill:none;stroke:#262626;stroke-linecap:square;stroke-linejoin:miter;stroke-width:0.5;"/>
   </g>
   <g id="patch_4">
    <path d="M 12 198.598594 
L 369.12 198.598594 
" style="fill:none;stroke:#262626;stroke-linecap:square;stroke-linejoin:miter;stroke-width:0.5;"/>
   </g>
   <g id="text_9">
    <!-- 90648 -->
    <defs>
     <path d="M 10.984375 1.515625 
L 10.984375 10.5 
Q 14.703125 8.734375 18.5 7.8125 
Q 22.3125 6.890625 25.984375 6.890625 
Q 35.75 6.890625 40.890625 13.453125 
Q 46.046875 20.015625 46.78125 33.40625 
Q 43.953125 29.203125 39.59375 26.953125 
Q 35.25 24.703125 29.984375 24.703125 
Q 19.046875 24.703125 12.671875 31.3125 
Q 6.296875 37.9375 6.296875 49.421875 
Q 6.296875 60.640625 12.9375 67.421875 
Q 19.578125 74.21875 30.609375 74.21875 
Q 43.265625 74.21875 49.921875 64.515625 
Q 56.59375 54.828125 56.59375 36.375 
Q 56.59375 19.140625 48.40625 8.859375 
Q 40.234375 -1.421875 26.421875 -1.421875 
Q 22.703125 -1.421875 18.890625 -0.6875 
Q 15.09375 0.046875 10.984375 1.515625 
z
M 30.609375 32.421875 
Q 37.25 32.421875 41.125 36.953125 
Q 45.015625 41.5 45.015625 49.421875 
Q 45.015625 57.28125 41.125 61.84375 
Q 37.25 66.40625 30.609375 66.40625 
Q 23.96875 66.40625 20.09375 61.84375 
Q 16.21875 57.28125 16.21875 49.421875 
Q 16.21875 41.5 20.09375 36.953125 
Q 23.96875 32.421875 30.609375 32.421875 
z
" id="DejaVuSans-57"/>
     <path d="M 37.796875 64.3125 
L 12.890625 25.390625 
L 37.796875 25.390625 
z
M 35.203125 72.90625 
L 47.609375 72.90625 
L 47.609375 25.390625 
L 58.015625 25.390625 
L 58.015625 17.1875 
L 47.609375 17.1875 
L 47.609375 0 
L 37.796875 0 
L 37.796875 17.1875 
L 4.890625 17.1875 
L 4.890625 26.703125 
z
" id="DejaVuSans-52"/>
     <path d="M 31.78125 34.625 
Q 24.75 34.625 20.71875 30.859375 
Q 16.703125 27.09375 16.703125 20.515625 
Q 16.703125 13.921875 20.71875 10.15625 
Q 24.75 6.390625 31.78125 6.390625 
Q 38.8125 6.390625 42.859375 10.171875 
Q 46.921875 13.96875 46.921875 20.515625 
Q 46.921875 27.09375 42.890625 30.859375 
Q 38.875 34.625 31.78125 34.625 
z
M 21.921875 38.8125 
Q 15.578125 40.375 12.03125 44.71875 
Q 8.5 49.078125 8.5 55.328125 
Q 8.5 64.0625 14.71875 69.140625 
Q 20.953125 74.21875 31.78125 74.21875 
Q 42.671875 74.21875 48.875 69.140625 
Q 55.078125 64.0625 55.078125 55.328125 
Q 55.078125 49.078125 51.53125 44.71875 
Q 48 40.375 41.703125 38.8125 
Q 48.828125 37.15625 52.796875 32.3125 
Q 56.78125 27.484375 56.78125 20.515625 
Q 56.78125 9.90625 50.3125 4.234375 
Q 43.84375 -1.421875 31.78125 -1.421875 
Q 19.734375 -1.421875 13.25 4.234375 
Q 6.78125 9.90625 6.78125 20.515625 
Q 6.78125 27.484375 10.78125 32.3125 
Q 14.796875 37.15625 21.921875 38.8125 
z
M 18.3125 54.390625 
Q 18.3125 48.734375 21.84375 45.5625 
Q 25.390625 42.390625 31.78125 42.390625 
Q 38.140625 42.390625 41.71875 45.5625 
Q 45.3125 48.734375 45.3125 54.390625 
Q 45.3125 60.0625 41.71875 63.234375 
Q 38.140625 66.40625 31.78125 66.40625 
Q 25.390625 66.40625 21.84375 63.234375 
Q 18.3125 60.0625 18.3125 54.390625 
z
" id="DejaVuSans-56"/>
    </defs>
    <g style="fill:#ff0000;" transform="translate(15.5712 26.491207)scale(0.08 -0.08)">
     <use xlink:href="#DejaVuSans-57"/>
     <use x="63.623047" xlink:href="#DejaVuSans-48"/>
     <use x="127.246094" xlink:href="#DejaVuSans-54"/>
     <use x="190.869141" xlink:href="#DejaVuSans-52"/>
     <use x="254.492188" xlink:href="#DejaVuSans-56"/>
    </g>
   </g>
   <g id="text_10">
    <!-- 2871 -->
    <defs>
     <path d="M 19.1875 8.296875 
L 53.609375 8.296875 
L 53.609375 0 
L 7.328125 0 
L 7.328125 8.296875 
Q 12.9375 14.109375 22.625 23.890625 
Q 32.328125 33.6875 34.8125 36.53125 
Q 39.546875 41.84375 41.421875 45.53125 
Q 43.3125 49.21875 43.3125 52.78125 
Q 43.3125 58.59375 39.234375 62.25 
Q 35.15625 65.921875 28.609375 65.921875 
Q 23.96875 65.921875 18.8125 64.3125 
Q 13.671875 62.703125 7.8125 59.421875 
L 7.8125 69.390625 
Q 13.765625 71.78125 18.9375 73 
Q 24.125 74.21875 28.421875 74.21875 
Q 39.75 74.21875 46.484375 68.546875 
Q 53.21875 62.890625 53.21875 53.421875 
Q 53.21875 48.921875 51.53125 44.890625 
Q 49.859375 40.875 45.40625 35.40625 
Q 44.1875 33.984375 37.640625 27.21875 
Q 31.109375 20.453125 19.1875 8.296875 
z
" id="DejaVuSans-50"/>
     <path d="M 8.203125 72.90625 
L 55.078125 72.90625 
L 55.078125 68.703125 
L 28.609375 0 
L 18.3125 0 
L 43.21875 64.59375 
L 8.203125 64.59375 
z
" id="DejaVuSans-55"/>
    </defs>
    <g style="fill:#ff0000;" transform="translate(15.5712 183.677257)scale(0.08 -0.08)">
     <use xlink:href="#DejaVuSans-50"/>
     <use x="63.623047" xlink:href="#DejaVuSans-56"/>
     <use x="127.246094" xlink:href="#DejaVuSans-55"/>
     <use x="190.869141" xlink:href="#DejaVuSans-49"/>
    </g>
   </g>
   <g id="text_11">
    <!-- 34224 -->
    <defs>
     <path d="M 40.578125 39.3125 
Q 47.65625 37.796875 51.625 33 
Q 55.609375 28.21875 55.609375 21.1875 
Q 55.609375 10.40625 48.1875 4.484375 
Q 40.765625 -1.421875 27.09375 -1.421875 
Q 22.515625 -1.421875 17.65625 -0.515625 
Q 12.796875 0.390625 7.625 2.203125 
L 7.625 11.71875 
Q 11.71875 9.328125 16.59375 8.109375 
Q 21.484375 6.890625 26.8125 6.890625 
Q 36.078125 6.890625 40.9375 10.546875 
Q 45.796875 14.203125 45.796875 21.1875 
Q 45.796875 27.640625 41.28125 31.265625 
Q 36.765625 34.90625 28.71875 34.90625 
L 20.21875 34.90625 
L 20.21875 43.015625 
L 29.109375 43.015625 
Q 36.375 43.015625 40.234375 45.921875 
Q 44.09375 48.828125 44.09375 54.296875 
Q 44.09375 59.90625 40.109375 62.90625 
Q 36.140625 65.921875 28.71875 65.921875 
Q 24.65625 65.921875 20.015625 65.03125 
Q 15.375 64.15625 9.8125 62.3125 
L 9.8125 71.09375 
Q 15.4375 72.65625 20.34375 73.4375 
Q 25.25 74.21875 29.59375 74.21875 
Q 40.828125 74.21875 47.359375 69.109375 
Q 53.90625 64.015625 53.90625 55.328125 
Q 53.90625 49.265625 50.4375 45.09375 
Q 46.96875 40.921875 40.578125 39.3125 
z
" id="DejaVuSans-51"/>
    </defs>
    <g style="fill:#008000;" transform="translate(15.5712 127.532091)scale(0.08 -0.08)">
     <use xlink:href="#DejaVuSans-51"/>
     <use x="63.623047" xlink:href="#DejaVuSans-52"/>
     <use x="127.246094" xlink:href="#DejaVuSans-50"/>
     <use x="190.869141" xlink:href="#DejaVuSans-50"/>
     <use x="254.492188" xlink:href="#DejaVuSans-52"/>
    </g>
   </g>
   <g id="text_12">
    <!-- COVID-19 Cases, Recoveries &amp; Deaths Graph -->
    <defs>
     <path d="M 64.40625 67.28125 
L 64.40625 56.890625 
Q 59.421875 61.53125 53.78125 63.8125 
Q 48.140625 66.109375 41.796875 66.109375 
Q 29.296875 66.109375 22.65625 58.46875 
Q 16.015625 50.828125 16.015625 36.375 
Q 16.015625 21.96875 22.65625 14.328125 
Q 29.296875 6.6875 41.796875 6.6875 
Q 48.140625 6.6875 53.78125 8.984375 
Q 59.421875 11.28125 64.40625 15.921875 
L 64.40625 5.609375 
Q 59.234375 2.09375 53.4375 0.328125 
Q 47.65625 -1.421875 41.21875 -1.421875 
Q 24.65625 -1.421875 15.125 8.703125 
Q 5.609375 18.84375 5.609375 36.375 
Q 5.609375 53.953125 15.125 64.078125 
Q 24.65625 74.21875 41.21875 74.21875 
Q 47.75 74.21875 53.53125 72.484375 
Q 59.328125 70.75 64.40625 67.28125 
z
" id="DejaVuSans-67"/>
     <path d="M 39.40625 66.21875 
Q 28.65625 66.21875 22.328125 58.203125 
Q 16.015625 50.203125 16.015625 36.375 
Q 16.015625 22.609375 22.328125 14.59375 
Q 28.65625 6.59375 39.40625 6.59375 
Q 50.140625 6.59375 56.421875 14.59375 
Q 62.703125 22.609375 62.703125 36.375 
Q 62.703125 50.203125 56.421875 58.203125 
Q 50.140625 66.21875 39.40625 66.21875 
z
M 39.40625 74.21875 
Q 54.734375 74.21875 63.90625 63.9375 
Q 73.09375 53.65625 73.09375 36.375 
Q 73.09375 19.140625 63.90625 8.859375 
Q 54.734375 -1.421875 39.40625 -1.421875 
Q 24.03125 -1.421875 14.8125 8.828125 
Q 5.609375 19.09375 5.609375 36.375 
Q 5.609375 53.65625 14.8125 63.9375 
Q 24.03125 74.21875 39.40625 74.21875 
z
" id="DejaVuSans-79"/>
     <path d="M 28.609375 0 
L 0.78125 72.90625 
L 11.078125 72.90625 
L 34.1875 11.53125 
L 57.328125 72.90625 
L 67.578125 72.90625 
L 39.796875 0 
z
" id="DejaVuSans-86"/>
     <path d="M 9.8125 72.90625 
L 19.671875 72.90625 
L 19.671875 0 
L 9.8125 0 
z
" id="DejaVuSans-73"/>
     <path d="M 19.671875 64.796875 
L 19.671875 8.109375 
L 31.59375 8.109375 
Q 46.6875 8.109375 53.6875 14.9375 
Q 60.6875 21.78125 60.6875 36.53125 
Q 60.6875 51.171875 53.6875 57.984375 
Q 46.6875 64.796875 31.59375 64.796875 
z
M 9.8125 72.90625 
L 30.078125 72.90625 
Q 51.265625 72.90625 61.171875 64.09375 
Q 71.09375 55.28125 71.09375 36.53125 
Q 71.09375 17.671875 61.125 8.828125 
Q 51.171875 0 30.078125 0 
L 9.8125 0 
z
" id="DejaVuSans-68"/>
     <path d="M 4.890625 31.390625 
L 31.203125 31.390625 
L 31.203125 23.390625 
L 4.890625 23.390625 
z
" id="DejaVuSans-45"/>
     <path d="M 44.28125 53.078125 
L 44.28125 44.578125 
Q 40.484375 46.53125 36.375 47.5 
Q 32.28125 48.484375 27.875 48.484375 
Q 21.1875 48.484375 17.84375 46.4375 
Q 14.5 44.390625 14.5 40.28125 
Q 14.5 37.15625 16.890625 35.375 
Q 19.28125 33.59375 26.515625 31.984375 
L 29.59375 31.296875 
Q 39.15625 29.25 43.1875 25.515625 
Q 47.21875 21.78125 47.21875 15.09375 
Q 47.21875 7.46875 41.1875 3.015625 
Q 35.15625 -1.421875 24.609375 -1.421875 
Q 20.21875 -1.421875 15.453125 -0.5625 
Q 10.6875 0.296875 5.421875 2 
L 5.421875 11.28125 
Q 10.40625 8.6875 15.234375 7.390625 
Q 20.0625 6.109375 24.8125 6.109375 
Q 31.15625 6.109375 34.5625 8.28125 
Q 37.984375 10.453125 37.984375 14.40625 
Q 37.984375 18.0625 35.515625 20.015625 
Q 33.0625 21.96875 24.703125 23.78125 
L 21.578125 24.515625 
Q 13.234375 26.265625 9.515625 29.90625 
Q 5.8125 33.546875 5.8125 39.890625 
Q 5.8125 47.609375 11.28125 51.796875 
Q 16.75 56 26.8125 56 
Q 31.78125 56 36.171875 55.265625 
Q 40.578125 54.546875 44.28125 53.078125 
z
" id="DejaVuSans-115"/>
     <path d="M 11.71875 12.40625 
L 22.015625 12.40625 
L 22.015625 4 
L 14.015625 -11.625 
L 7.71875 -11.625 
L 11.71875 4 
z
" id="DejaVuSans-44"/>
     <path d="M 44.390625 34.1875 
Q 47.5625 33.109375 50.5625 29.59375 
Q 53.5625 26.078125 56.59375 19.921875 
L 66.609375 0 
L 56 0 
L 46.6875 18.703125 
Q 43.0625 26.03125 39.671875 28.421875 
Q 36.28125 30.8125 30.421875 30.8125 
L 19.671875 30.8125 
L 19.671875 0 
L 9.8125 0 
L 9.8125 72.90625 
L 32.078125 72.90625 
Q 44.578125 72.90625 50.734375 67.671875 
Q 56.890625 62.453125 56.890625 51.90625 
Q 56.890625 45.015625 53.6875 40.46875 
Q 50.484375 35.9375 44.390625 34.1875 
z
M 19.671875 64.796875 
L 19.671875 38.921875 
L 32.078125 38.921875 
Q 39.203125 38.921875 42.84375 42.21875 
Q 46.484375 45.515625 46.484375 51.90625 
Q 46.484375 58.296875 42.84375 61.546875 
Q 39.203125 64.796875 32.078125 64.796875 
z
" id="DejaVuSans-82"/>
     <path d="M 48.78125 52.59375 
L 48.78125 44.1875 
Q 44.96875 46.296875 41.140625 47.34375 
Q 37.3125 48.390625 33.40625 48.390625 
Q 24.65625 48.390625 19.8125 42.84375 
Q 14.984375 37.3125 14.984375 27.296875 
Q 14.984375 17.28125 19.8125 11.734375 
Q 24.65625 6.203125 33.40625 6.203125 
Q 37.3125 6.203125 41.140625 7.25 
Q 44.96875 8.296875 48.78125 10.40625 
L 48.78125 2.09375 
Q 45.015625 0.34375 40.984375 -0.53125 
Q 36.96875 -1.421875 32.421875 -1.421875 
Q 20.0625 -1.421875 12.78125 6.34375 
Q 5.515625 14.109375 5.515625 27.296875 
Q 5.515625 40.671875 12.859375 48.328125 
Q 20.21875 56 33.015625 56 
Q 37.15625 56 41.109375 55.140625 
Q 45.0625 54.296875 48.78125 52.59375 
z
" id="DejaVuSans-99"/>
     <path d="M 30.609375 48.390625 
Q 23.390625 48.390625 19.1875 42.75 
Q 14.984375 37.109375 14.984375 27.296875 
Q 14.984375 17.484375 19.15625 11.84375 
Q 23.34375 6.203125 30.609375 6.203125 
Q 37.796875 6.203125 41.984375 11.859375 
Q 46.1875 17.53125 46.1875 27.296875 
Q 46.1875 37.015625 41.984375 42.703125 
Q 37.796875 48.390625 30.609375 48.390625 
z
M 30.609375 56 
Q 42.328125 56 49.015625 48.375 
Q 55.71875 40.765625 55.71875 27.296875 
Q 55.71875 13.875 49.015625 6.21875 
Q 42.328125 -1.421875 30.609375 -1.421875 
Q 18.84375 -1.421875 12.171875 6.21875 
Q 5.515625 13.875 5.515625 27.296875 
Q 5.515625 40.765625 12.171875 48.375 
Q 18.84375 56 30.609375 56 
z
" id="DejaVuSans-111"/>
     <path d="M 2.984375 54.6875 
L 12.5 54.6875 
L 29.59375 8.796875 
L 46.6875 54.6875 
L 56.203125 54.6875 
L 35.6875 0 
L 23.484375 0 
z
" id="DejaVuSans-118"/>
     <path d="M 9.421875 54.6875 
L 18.40625 54.6875 
L 18.40625 0 
L 9.421875 0 
z
M 9.421875 75.984375 
L 18.40625 75.984375 
L 18.40625 64.59375 
L 9.421875 64.59375 
z
" id="DejaVuSans-105"/>
     <path d="M 24.3125 39.203125 
Q 19.875 35.25 17.796875 31.3125 
Q 15.71875 27.390625 15.71875 23.09375 
Q 15.71875 15.96875 20.890625 11.234375 
Q 26.078125 6.5 33.890625 6.5 
Q 38.53125 6.5 42.578125 8.03125 
Q 46.625 9.578125 50.203125 12.703125 
z
M 31.203125 44.671875 
L 56 19.28125 
Q 58.890625 23.640625 60.5 28.59375 
Q 62.109375 33.546875 62.40625 39.109375 
L 71.484375 39.109375 
Q 70.90625 32.671875 68.359375 26.359375 
Q 65.828125 20.0625 61.28125 13.921875 
L 74.90625 0 
L 62.59375 0 
L 55.609375 7.171875 
Q 50.53125 2.828125 44.96875 0.703125 
Q 39.40625 -1.421875 33.015625 -1.421875 
Q 21.234375 -1.421875 13.765625 5.296875 
Q 6.296875 12.015625 6.296875 22.515625 
Q 6.296875 28.765625 9.5625 34.25 
Q 12.84375 39.75 19.390625 44.578125 
Q 17.046875 47.65625 15.8125 50.703125 
Q 14.59375 53.765625 14.59375 56.6875 
Q 14.59375 64.59375 20.015625 69.40625 
Q 25.4375 74.21875 34.421875 74.21875 
Q 38.484375 74.21875 42.5 73.34375 
Q 46.53125 72.46875 50.6875 70.703125 
L 50.6875 61.8125 
Q 46.4375 64.109375 42.578125 65.296875 
Q 38.71875 66.5 35.40625 66.5 
Q 30.28125 66.5 27.078125 63.78125 
Q 23.875 61.078125 23.875 56.78125 
Q 23.875 54.296875 25.3125 51.78125 
Q 26.765625 49.265625 31.203125 44.671875 
z
" id="DejaVuSans-38"/>
     <path d="M 18.3125 70.21875 
L 18.3125 54.6875 
L 36.8125 54.6875 
L 36.8125 47.703125 
L 18.3125 47.703125 
L 18.3125 18.015625 
Q 18.3125 11.328125 20.140625 9.421875 
Q 21.96875 7.515625 27.59375 7.515625 
L 36.8125 7.515625 
L 36.8125 0 
L 27.59375 0 
Q 17.1875 0 13.234375 3.875 
Q 9.28125 7.765625 9.28125 18.015625 
L 9.28125 47.703125 
L 2.6875 47.703125 
L 2.6875 54.6875 
L 9.28125 54.6875 
L 9.28125 70.21875 
z
" id="DejaVuSans-116"/>
     <path d="M 54.890625 33.015625 
L 54.890625 0 
L 45.90625 0 
L 45.90625 32.71875 
Q 45.90625 40.484375 42.875 44.328125 
Q 39.84375 48.1875 33.796875 48.1875 
Q 26.515625 48.1875 22.3125 43.546875 
Q 18.109375 38.921875 18.109375 30.90625 
L 18.109375 0 
L 9.078125 0 
L 9.078125 75.984375 
L 18.109375 75.984375 
L 18.109375 46.1875 
Q 21.34375 51.125 25.703125 53.5625 
Q 30.078125 56 35.796875 56 
Q 45.21875 56 50.046875 50.171875 
Q 54.890625 44.34375 54.890625 33.015625 
z
" id="DejaVuSans-104"/>
     <path d="M 59.515625 10.40625 
L 59.515625 29.984375 
L 43.40625 29.984375 
L 43.40625 38.09375 
L 69.28125 38.09375 
L 69.28125 6.78125 
Q 63.578125 2.734375 56.6875 0.65625 
Q 49.8125 -1.421875 42 -1.421875 
Q 24.90625 -1.421875 15.25 8.5625 
Q 5.609375 18.5625 5.609375 36.375 
Q 5.609375 54.25 15.25 64.234375 
Q 24.90625 74.21875 42 74.21875 
Q 49.125 74.21875 55.546875 72.453125 
Q 61.96875 70.703125 67.390625 67.28125 
L 67.390625 56.78125 
Q 61.921875 61.421875 55.765625 63.765625 
Q 49.609375 66.109375 42.828125 66.109375 
Q 29.4375 66.109375 22.71875 58.640625 
Q 16.015625 51.171875 16.015625 36.375 
Q 16.015625 21.625 22.71875 14.15625 
Q 29.4375 6.6875 42.828125 6.6875 
Q 48.046875 6.6875 52.140625 7.59375 
Q 56.25 8.5 59.515625 10.40625 
z
" id="DejaVuSans-71"/>
    </defs>
    <g style="fill:#262626;" transform="translate(88.964766 14.038594)scale(0.09 -0.09)">
     <use xlink:href="#DejaVuSans-67"/>
     <use x="69.824219" xlink:href="#DejaVuSans-79"/>
     <use x="146.785156" xlink:href="#DejaVuSans-86"/>
     <use x="215.193359" xlink:href="#DejaVuSans-73"/>
     <use x="244.685547" xlink:href="#DejaVuSans-68"/>
     <use x="321.6875" xlink:href="#DejaVuSans-45"/>
     <use x="357.771484" xlink:href="#DejaVuSans-49"/>
     <use x="421.394531" xlink:href="#DejaVuSans-57"/>
     <use x="485.017578" xlink:href="#DejaVuSans-32"/>
     <use x="516.804688" xlink:href="#DejaVuSans-67"/>
     <use x="586.628906" xlink:href="#DejaVuSans-97"/>
     <use x="647.908203" xlink:href="#DejaVuSans-115"/>
     <use x="700.007812" xlink:href="#DejaVuSans-101"/>
     <use x="761.53125" xlink:href="#DejaVuSans-115"/>
     <use x="813.630859" xlink:href="#DejaVuSans-44"/>
     <use x="845.417969" xlink:href="#DejaVuSans-32"/>
     <use x="877.205078" xlink:href="#DejaVuSans-82"/>
     <use x="942.1875" xlink:href="#DejaVuSans-101"/>
     <use x="1003.710938" xlink:href="#DejaVuSans-99"/>
     <use x="1058.691406" xlink:href="#DejaVuSans-111"/>
     <use x="1119.873047" xlink:href="#DejaVuSans-118"/>
     <use x="1179.052734" xlink:href="#DejaVuSans-101"/>
     <use x="1240.576172" xlink:href="#DejaVuSans-114"/>
     <use x="1281.689453" xlink:href="#DejaVuSans-105"/>
     <use x="1309.472656" xlink:href="#DejaVuSans-101"/>
     <use x="1370.996094" xlink:href="#DejaVuSans-115"/>
     <use x="1423.095703" xlink:href="#DejaVuSans-32"/>
     <use x="1454.882812" xlink:href="#DejaVuSans-38"/>
     <use x="1532.861328" xlink:href="#DejaVuSans-32"/>
     <use x="1564.648438" xlink:href="#DejaVuSans-68"/>
     <use x="1641.650391" xlink:href="#DejaVuSans-101"/>
     <use x="1703.173828" xlink:href="#DejaVuSans-97"/>
     <use x="1764.453125" xlink:href="#DejaVuSans-116"/>
     <use x="1803.662109" xlink:href="#DejaVuSans-104"/>
     <use x="1867.041016" xlink:href="#DejaVuSans-115"/>
     <use x="1919.140625" xlink:href="#DejaVuSans-32"/>
     <use x="1950.927734" xlink:href="#DejaVuSans-71"/>
     <use x="2028.417969" xlink:href="#DejaVuSans-114"/>
     <use x="2069.53125" xlink:href="#DejaVuSans-97"/>
     <use x="2130.810547" xlink:href="#DejaVuSans-112"/>
     <use x="2194.287109" xlink:href="#DejaVuSans-104"/>
    </g>
   </g>
   <g id="legend_1">
    <g id="line2d_28">
     <path d="M 19.92 31.565219 
L 37.52 31.565219 
" style="fill:none;stroke:#ff0000;stroke-linecap:round;stroke-width:1.5;"/>
    </g>
    <g id="line2d_29">
     <g>
      <use style="fill:#ff0000;stroke:#ffffff;stroke-width:0.25;" x="28.72" xlink:href="#m3109cc1c69" y="31.565219"/>
     </g>
    </g>
    <g id="text_13">
     <!-- Confirmed Cases -->
     <defs>
      <path d="M 54.890625 33.015625 
L 54.890625 0 
L 45.90625 0 
L 45.90625 32.71875 
Q 45.90625 40.484375 42.875 44.328125 
Q 39.84375 48.1875 33.796875 48.1875 
Q 26.515625 48.1875 22.3125 43.546875 
Q 18.109375 38.921875 18.109375 30.90625 
L 18.109375 0 
L 9.078125 0 
L 9.078125 54.6875 
L 18.109375 54.6875 
L 18.109375 46.1875 
Q 21.34375 51.125 25.703125 53.5625 
Q 30.078125 56 35.796875 56 
Q 45.21875 56 50.046875 50.171875 
Q 54.890625 44.34375 54.890625 33.015625 
z
" id="DejaVuSans-110"/>
      <path d="M 37.109375 75.984375 
L 37.109375 68.5 
L 28.515625 68.5 
Q 23.6875 68.5 21.796875 66.546875 
Q 19.921875 64.59375 19.921875 59.515625 
L 19.921875 54.6875 
L 34.71875 54.6875 
L 34.71875 47.703125 
L 19.921875 47.703125 
L 19.921875 0 
L 10.890625 0 
L 10.890625 47.703125 
L 2.296875 47.703125 
L 2.296875 54.6875 
L 10.890625 54.6875 
L 10.890625 58.5 
Q 10.890625 67.625 15.140625 71.796875 
Q 19.390625 75.984375 28.609375 75.984375 
z
" id="DejaVuSans-102"/>
      <path d="M 52 44.1875 
Q 55.375 50.25 60.0625 53.125 
Q 64.75 56 71.09375 56 
Q 79.640625 56 84.28125 50.015625 
Q 88.921875 44.046875 88.921875 33.015625 
L 88.921875 0 
L 79.890625 0 
L 79.890625 32.71875 
Q 79.890625 40.578125 77.09375 44.375 
Q 74.3125 48.1875 68.609375 48.1875 
Q 61.625 48.1875 57.5625 43.546875 
Q 53.515625 38.921875 53.515625 30.90625 
L 53.515625 0 
L 44.484375 0 
L 44.484375 32.71875 
Q 44.484375 40.625 41.703125 44.40625 
Q 38.921875 48.1875 33.109375 48.1875 
Q 26.21875 48.1875 22.15625 43.53125 
Q 18.109375 38.875 18.109375 30.90625 
L 18.109375 0 
L 9.078125 0 
L 9.078125 54.6875 
L 18.109375 54.6875 
L 18.109375 46.1875 
Q 21.1875 51.21875 25.484375 53.609375 
Q 29.78125 56 35.6875 56 
Q 41.65625 56 45.828125 52.96875 
Q 50 49.953125 52 44.1875 
z
" id="DejaVuSans-109"/>
      <path d="M 45.40625 46.390625 
L 45.40625 75.984375 
L 54.390625 75.984375 
L 54.390625 0 
L 45.40625 0 
L 45.40625 8.203125 
Q 42.578125 3.328125 38.25 0.953125 
Q 33.9375 -1.421875 27.875 -1.421875 
Q 17.96875 -1.421875 11.734375 6.484375 
Q 5.515625 14.40625 5.515625 27.296875 
Q 5.515625 40.1875 11.734375 48.09375 
Q 17.96875 56 27.875 56 
Q 33.9375 56 38.25 53.625 
Q 42.578125 51.265625 45.40625 46.390625 
z
M 14.796875 27.296875 
Q 14.796875 17.390625 18.875 11.75 
Q 22.953125 6.109375 30.078125 6.109375 
Q 37.203125 6.109375 41.296875 11.75 
Q 45.40625 17.390625 45.40625 27.296875 
Q 45.40625 37.203125 41.296875 42.84375 
Q 37.203125 48.484375 30.078125 48.484375 
Q 22.953125 48.484375 18.875 42.84375 
Q 14.796875 37.203125 14.796875 27.296875 
z
" id="DejaVuSans-100"/>
     </defs>
     <g style="fill:#262626;" transform="translate(44.56 34.645219)scale(0.088 -0.088)">
      <use xlink:href="#DejaVuSans-67"/>
      <use x="69.824219" xlink:href="#DejaVuSans-111"/>
      <use x="131.005859" xlink:href="#DejaVuSans-110"/>
      <use x="194.384766" xlink:href="#DejaVuSans-102"/>
      <use x="229.589844" xlink:href="#DejaVuSans-105"/>
      <use x="257.373047" xlink:href="#DejaVuSans-114"/>
      <use x="296.736328" xlink:href="#DejaVuSans-109"/>
      <use x="394.148438" xlink:href="#DejaVuSans-101"/>
      <use x="455.671875" xlink:href="#DejaVuSans-100"/>
      <use x="519.148438" xlink:href="#DejaVuSans-32"/>
      <use x="550.935547" xlink:href="#DejaVuSans-67"/>
      <use x="620.759766" xlink:href="#DejaVuSans-97"/>
      <use x="682.039062" xlink:href="#DejaVuSans-115"/>
      <use x="734.138672" xlink:href="#DejaVuSans-101"/>
      <use x="795.662109" xlink:href="#DejaVuSans-115"/>
     </g>
    </g>
    <g id="line2d_30">
     <path d="M 19.92 44.481969 
L 37.52 44.481969 
" style="fill:none;stroke:#008000;stroke-linecap:round;stroke-width:1.5;"/>
    </g>
    <g id="line2d_31">
     <g>
      <use style="fill:#008000;stroke:#ffffff;stroke-linejoin:miter;stroke-width:0.25;" x="28.72" xlink:href="#m0ab80e8c47" y="44.481969"/>
     </g>
    </g>
    <g id="text_14">
     <!-- Recoveries -->
     <g style="fill:#262626;" transform="translate(44.56 47.561969)scale(0.088 -0.088)">
      <use xlink:href="#DejaVuSans-82"/>
      <use x="64.982422" xlink:href="#DejaVuSans-101"/>
      <use x="126.505859" xlink:href="#DejaVuSans-99"/>
      <use x="181.486328" xlink:href="#DejaVuSans-111"/>
      <use x="242.667969" xlink:href="#DejaVuSans-118"/>
      <use x="301.847656" xlink:href="#DejaVuSans-101"/>
      <use x="363.371094" xlink:href="#DejaVuSans-114"/>
      <use x="404.484375" xlink:href="#DejaVuSans-105"/>
      <use x="432.267578" xlink:href="#DejaVuSans-101"/>
      <use x="493.791016" xlink:href="#DejaVuSans-115"/>
     </g>
    </g>
    <g id="line2d_32">
     <path d="M 19.92 57.398719 
L 37.52 57.398719 
" style="fill:none;stroke:#808080;stroke-linecap:round;stroke-width:1.5;"/>
    </g>
    <g id="line2d_33">
     <g>
      <use style="fill:#808080;stroke:#ffffff;stroke-linejoin:miter;stroke-width:0.25;" x="28.72" xlink:href="#ma13257d123" y="57.398719"/>
     </g>
    </g>
    <g id="text_15">
     <!-- Deaths -->
     <g style="fill:#262626;" transform="translate(44.56 60.478719)scale(0.088 -0.088)">
      <use xlink:href="#DejaVuSans-68"/>
      <use x="77.001953" xlink:href="#DejaVuSans-101"/>
      <use x="138.525391" xlink:href="#DejaVuSans-97"/>
      <use x="199.804688" xlink:href="#DejaVuSans-116"/>
      <use x="239.013672" xlink:href="#DejaVuSans-104"/>
      <use x="302.392578" xlink:href="#DejaVuSans-115"/>
     </g>
    </g>
   </g>
  </g>
 </g>
 <defs>
  <clipPath id="p16280fa013">
   <rect height="178.56" width="357.12" x="12" y="20.038594"/>
  </clipPath>
 </defs>
</svg>
